<?xml version="1.0" encoding="utf-8"?>
<svg version="1.1" xmlns:xlink="http://www.w3.org/1999/xlink" width="300px" height="45px" xmlns="http://www.w3.org/2000/svg">
  <defs>
    <linearGradient gradientUnits="userSpaceOnUse" x1="52" y1="490.676470588235" x2="327" y2="515.823529411765" id="LinearGradient528">
      <stop id="Stop529" stop-color="#89b0ff" offset="0" />
      <stop id="Stop530" stop-color="#587ffa" offset="1" />
    </linearGradient>
  </defs>
  <g transform="matrix(1 0 0 1 -38 -474 )">
    <path d="M 38.5 479  A 4.5 4.5 0 0 1 43 474.5 L 333 474.5  A 4.5 4.5 0 0 1 337.5 479 L 337.5 514  A 4.5 4.5 0 0 1 333 518.5 L 43 518.5  A 4.5 4.5 0 0 1 38.5 514 L 38.5 479  Z " fill-rule="nonzero" fill="#ffffff" stroke="none" />
    <path d="M 38.5 479  A 4.5 4.5 0 0 1 43 474.5 L 333 474.5  A 4.5 4.5 0 0 1 337.5 479 L 337.5 514  A 4.5 4.5 0 0 1 333 518.5 L 43 518.5  A 4.5 4.5 0 0 1 38.5 514 L 38.5 479  Z " stroke-width="1" stroke="url(#LinearGradient528)" fill="none" />
  </g>
</svg>