<?xml version="1.0" encoding="utf-8"?>
<!-- Generator: Adobe Illustrator 21.0.0, SVG Export Plug-In . SVG Version: 6.00 Build 0)  -->
<svg version="1.1" xmlns="http://www.w3.org/2000/svg" xmlns:xlink="http://www.w3.org/1999/xlink" x="0px" y="0px"
	 viewBox="0 0 1024 1024" style="enable-background:new 0 0 1024 1024;" xml:space="preserve">
<style type="text/css">
	.st0{display:none;}
	.st1{display:inline;}
	.st2{opacity:0.25;}
	.st3{display:inline;opacity:0.25;}
	.st4{enable-background:new    ;}
	.st5{fill:url(#SVGID_1_);}
	.st6{fill:url(#SVGID_2_);}
	.st7{fill:url(#SVGID_3_);}
	.st8{fill:url(#SVGID_4_);}
	.st9{fill:url(#SVGID_5_);}
	.st10{fill:url(#SVGID_6_);}
	.st11{fill:url(#SVGID_7_);}
	.st12{fill:url(#SVGID_8_);}
	.st13{clip-path:url(#SVGID_13_);fill:url(#SVGID_14_);}
	.st14{fill:url(#SVGID_15_);}
	.st15{fill:url(#SVGID_18_);}
	.st16{fill:url(#SVGID_19_);}
	.st17{fill:url(#SVGID_20_);}
	.st18{fill:url(#SVGID_21_);}
	.st19{fill:url(#SVGID_22_);}
	.st20{fill:url(#SVGID_23_);}
	.st21{fill:url(#SVGID_24_);}
	.st22{fill:url(#SVGID_25_);}
</style>
<g id="图层_1" class="st0">
	<g id="bg">
		<g id="图层_2" class="st1">
			<g id="图标参考线">
				<g id="图标尺寸" class="st2">
					<path d="M1018.2,5.8v1012.5H5.8V5.8H1018.2 M1024,0H0v1024h1024V0z"/>
					<path d="M512,28.8c266.9,0,483.2,216.4,483.2,483.2S778.9,995.2,512,995.2S28.8,778.9,28.8,512S245.1,28.8,512,28.8 M512,23
						C241.9,23,23,241.9,23,512s218.9,489,489,489s489-218.9,489-489C1000.7,242,782,23.3,512,23z"/>
					<path d="M949.2,74.8v874.4H74.8V74.8H949.2 M955,69H69v886h886V69z"/>
					<path d="M995.2,28.8v966.5H28.8V28.8H995.2 M1001,23H23v978h978V23z"/>
					<path d="M995.2,189.8v644.3H28.8V189.8H995.2 M1001,184.1H23v655.8h978V184.1z"/>
				</g>
			</g>
		</g>
	</g>
	<g id="图标尺寸_1_" class="st3">
		<g>
			<path d="M1017.1,4.6v1010.2H6.9V4.6L1017.1,4.6 M1021.7,0h-6.9H4.6H0v6.9v1010.2v6.9h6.9h1010.2h6.9v-6.9V6.9V0H1021.7z"/>
		</g>
		<g>
			<path d="M512,27.6c266.3,0,482.2,215.8,482.2,482.2S778.3,991.9,512,991.9S29.8,776.1,29.8,509.7S245.7,27.6,512,27.6 M512,23
				c-268.6,0-489,218.1-489,486.7s218.1,486.7,489,486.7s489-218.1,489-486.7S780.6,23,512,23L512,23z"/>
		</g>
		<g>
			<path d="M948.2,73.5V946H75.8V73.5L948.2,73.5 M952.8,68.9h-6.9H73.5h-4.6v6.9v872.5v6.9h6.9h872.5h6.9v-6.9V75.8v-6.9H952.8z"/>
		</g>
		<g>
			<path d="M994.1,27.6v964.3H29.8V27.6L994.1,27.6 M998.7,23h-6.9H27.5h-4.6v6.9v964.3v6.9h6.9h964.3h6.9v-6.9V29.9V23H998.7z"/>
		</g>
		<g>
			<path d="M994.1,188.3v642.9H29.8V188.3L994.1,188.3 M998.7,183.7h-6.9H27.5h-4.6v4.6v642.9v6.9h6.9h964.3h6.9v-6.9V188.3v-4.6
				H998.7z"/>
		</g>
	</g>
</g>
<g id="图层_2_1_">
	<g>
		<g class="st4">
			<linearGradient id="SVGID_1_" gradientUnits="userSpaceOnUse" x1="132.3596" y1="845.5391" x2="860.6978" y2="845.5391">
				<stop  offset="0" style="stop-color:#FF6F2C"/>
				<stop  offset="1" style="stop-color:#E3470F"/>
			</linearGradient>
			<path class="st5" d="M860.4,698.5c-0.1,1.8-0.2,3.7-0.4,5.5c-0.2,1.6-0.4,3.2-0.6,4.8c-0.3,1.8-0.5,3.6-0.9,5.5
				c-0.3,1.6-0.6,3.2-1,4.8c-0.4,1.8-0.8,3.5-1.3,5.3c-0.4,1.6-0.9,3.2-1.4,4.8c-0.5,1.8-1.1,3.5-1.7,5.3c-0.6,1.6-1.2,3.1-1.8,4.7
				c-0.7,1.8-1.5,3.7-2.3,5.5c-0.7,1.5-1.4,3.1-2.1,4.6c-0.9,1.8-1.8,3.7-2.8,5.5c-1,1.9-2.1,3.9-3.2,5.8c-0.3,0.5-0.5,0.9-0.8,1.4
				c-1.7,2.8-3.5,5.5-5.4,8.3c-0.4,0.5-0.7,1-1.1,1.5c-1.9,2.7-4,5.4-6.1,8.1c-0.4,0.5-0.8,1-1.2,1.5c-1.9,2.3-3.9,4.6-5.9,6.9
				c-0.6,0.6-1.1,1.3-1.7,1.9c-2.4,2.7-5,5.3-7.6,7.9c-0.5,0.5-1,0.9-1.5,1.4c-2,2-4.1,3.9-6.2,5.8c-1.7,1.5-3.5,3.1-5.3,4.6
				c-1.6,1.4-3.3,2.8-5,4.2c-1.9,1.5-3.8,3-5.7,4.5c-1.8,1.4-3.6,2.7-5.4,4.1c-2,1.5-4.1,2.9-6.2,4.3c-1.9,1.3-3.8,2.6-5.8,3.9
				c-2.2,1.4-4.4,2.8-6.6,4.2c-2.8,1.7-5.5,3.5-8.4,5.2c-5.4,3.2-11.1,6.2-16.7,9.1c-1.6,0.8-3.3,1.7-5,2.5
				c-4.4,2.2-8.9,4.3-13.5,6.4c-1.5,0.7-3.1,1.4-4.6,2.1c-6,2.6-12,5.1-18.2,7.4c-1.1,0.4-2.2,0.8-3.3,1.2
				c-5.2,1.9-10.5,3.8-15.8,5.5c-2.2,0.7-4.4,1.4-6.6,2.1c-2.9,0.9-5.9,1.8-8.9,2.7c-2.5,0.7-5,1.5-7.5,2.2c-3,0.8-6,1.6-9.1,2.4
				c-2.5,0.7-5.1,1.3-7.6,1.9c-3.1,0.7-6.2,1.4-9.3,2.1c-2.6,0.6-5.1,1.2-7.7,1.7c-3.2,0.7-6.3,1.3-9.5,1.9
				c-2.4,0.5-4.9,0.9-7.3,1.4c-6.8,1.2-13.7,2.3-20.6,3.3c-1,0.1-2,0.2-2.9,0.4c-6,0.8-12.1,1.5-18.1,2.2c-2.3,0.2-4.6,0.5-6.9,0.7
				c-3.9,0.4-7.8,0.7-11.7,1c-2.5,0.2-4.9,0.4-7.4,0.5c-4.1,0.3-8.2,0.4-12.3,0.6c-2.3,0.1-4.6,0.2-6.9,0.3
				c-3.5,0.1-7.1,0.2-10.6,0.2c-2.5,0-5,0.1-7.5,0.1c-3.8,0-7.6-0.1-11.4-0.1c-2.2,0-4.5,0-6.7-0.1c-3.5-0.1-7-0.3-10.4-0.4
				c-2.4-0.1-4.9-0.2-7.3-0.3c-3.7-0.2-7.5-0.5-11.2-0.8c-2.1-0.2-4.3-0.3-6.4-0.4c-4.6-0.4-9.2-0.9-13.8-1.3
				c-1.2-0.1-2.5-0.2-3.7-0.4c-5.8-0.7-11.6-1.4-17.4-2.2c-0.9-0.1-1.8-0.3-2.8-0.4c-5-0.7-9.9-1.5-14.8-2.3
				c-2.1-0.4-4.1-0.8-6.1-1.1c-3.8-0.7-7.5-1.4-11.3-2.1c-1.9-0.4-3.9-0.8-5.8-1.3c-4.1-0.9-8.2-1.8-12.3-2.8
				c-2.3-0.5-4.5-1.1-6.7-1.7c-3.7-0.9-7.4-1.9-11-2.9c-2.1-0.6-4.1-1.2-6.2-1.8c-5.8-1.7-11.5-3.5-17.2-5.4c-1-0.3-2-0.6-3-1
				c-6.5-2.2-12.9-4.6-19.2-7c-2.6-1-5.1-2-7.6-3.1c-2-0.8-4.1-1.7-6.1-2.5c-2.8-1.2-5.6-2.5-8.4-3.8c-1.9-0.8-3.7-1.7-5.6-2.5
				c-3.1-1.5-6.1-3-9.1-4.5c-1.5-0.8-3-1.5-4.5-2.3c-4.4-2.3-8.8-4.7-13.1-7.2c-71.8-41.4-107.6-95.8-107.5-150.1l-0.3,99.1
				c-0.2,54.3,35.7,108.7,107.5,150.1c4.3,2.5,8.7,4.9,13.1,7.2c1.5,0.8,3,1.5,4.5,2.3c3,1.5,6,3,9.1,4.5c1.8,0.9,3.7,1.7,5.5,2.5
				c2.8,1.3,5.6,2.6,8.5,3.8c2,0.9,4,1.7,6,2.5c1.9,0.8,3.8,1.6,5.8,2.4c0.6,0.2,1.2,0.4,1.9,0.7c6.3,2.5,12.7,4.8,19.2,7
				c1,0.3,2,0.6,3,1c5.7,1.9,11.4,3.7,17.2,5.3c1,0.3,1.9,0.6,2.9,0.9c1.1,0.3,2.2,0.6,3.4,0.9c3.7,1,7.3,2,11,2.9
				c2.2,0.6,4.5,1.2,6.7,1.7c4.1,1,8.1,1.9,12.2,2.8c1.5,0.3,3,0.7,4.6,1c0.4,0.1,0.8,0.2,1.3,0.2c3.7,0.8,7.5,1.4,11.2,2.1
				c2.1,0.4,4.1,0.8,6.1,1.1c4.9,0.8,9.9,1.6,14.8,2.3c0.9,0.1,1.7,0.3,2.6,0.4c0,0,0.1,0,0.1,0c5.8,0.8,11.6,1.6,17.4,2.2
				c1.3,0.1,2.7,0.3,4,0.4c4.5,0.5,9,0.9,13.5,1.3c0.1,0,0.2,0,0.3,0c2,0.2,4.1,0.3,6.1,0.4c3.7,0.3,7.5,0.6,11.2,0.8
				c2.4,0.1,4.9,0.2,7.3,0.3c3.5,0.1,6.9,0.3,10.4,0.4c0.3,0,0.6,0,0.8,0c2,0,3.9,0,5.9,0.1c3.8,0.1,7.6,0.1,11.4,0.1
				c2.5,0,5-0.1,7.5-0.1c3.5-0.1,7.1-0.1,10.6-0.2c0.7,0,1.3,0,2,0c1.7-0.1,3.3-0.2,4.9-0.2c4.1-0.2,8.2-0.4,12.3-0.6
				c2.5-0.2,4.9-0.3,7.4-0.5c3.9-0.3,7.8-0.6,11.7-1c1.4-0.1,2.7-0.2,4.1-0.3c1-0.1,1.9-0.2,2.8-0.3c6.1-0.6,12.1-1.3,18.1-2.2
				c1-0.1,2-0.2,2.9-0.4c6.9-1,13.8-2.1,20.6-3.3c0.6-0.1,1.3-0.2,1.9-0.3c1.8-0.3,3.6-0.7,5.4-1.1c3.2-0.6,6.4-1.2,9.5-1.9
				c2.6-0.5,5.1-1.1,7.7-1.7c3.1-0.7,6.2-1.4,9.3-2.1c2.6-0.6,5.1-1.3,7.6-1.9c3-0.8,6.1-1.6,9.1-2.4c2.5-0.7,5-1.4,7.5-2.2
				c3-0.9,5.9-1.8,8.9-2.7c1.3-0.4,2.6-0.8,3.9-1.2c0.9-0.3,1.8-0.7,2.7-1c5.3-1.8,10.6-3.6,15.8-5.5c1.1-0.4,2.2-0.8,3.3-1.2
				c6.2-2.3,12.2-4.8,18.2-7.4c1.6-0.7,3.1-1.4,4.6-2.1c4.6-2,9.1-4.2,13.5-6.4c1.7-0.8,3.3-1.6,5-2.5c5.7-2.9,11.3-5.9,16.7-9.1
				c1.5-0.9,3-1.7,4.4-2.6c1.4-0.8,2.6-1.7,4-2.5c2.2-1.4,4.5-2.8,6.6-4.2c2-1.3,3.9-2.6,5.8-3.9c2.1-1.4,4.1-2.9,6.2-4.3
				c1.8-1.3,3.6-2.7,5.4-4.1c1.9-1.5,3.8-3,5.7-4.5c1.7-1.4,3.4-2.8,5-4.2c1.8-1.5,3.5-3,5.2-4.6c0.7-0.6,1.5-1.2,2.2-1.9
				c1.4-1.3,2.7-2.6,4.1-3.9c0.5-0.5,1-0.9,1.5-1.4c2.6-2.6,5.2-5.2,7.6-7.9c0.6-0.6,1.1-1.3,1.7-1.9c2.1-2.3,4-4.6,5.9-7
				c0.4-0.5,0.8-1,1.2-1.5c0.2-0.2,0.4-0.5,0.6-0.7c1.9-2.5,3.8-4.9,5.5-7.4c0.4-0.5,0.7-1,1.1-1.5c1.9-2.7,3.7-5.5,5.4-8.3
				c0.3-0.4,0.5-0.9,0.8-1.4c0.6-1,1.3-2.1,1.9-3.1c0.5-0.9,0.9-1.8,1.4-2.6c1-1.8,1.9-3.6,2.8-5.5c0.7-1.5,1.5-3.1,2.1-4.6
				c0.8-1.8,1.6-3.7,2.3-5.5c0.3-0.8,0.7-1.6,1-2.5c0.3-0.7,0.5-1.5,0.7-2.2c0.6-1.8,1.2-3.5,1.7-5.3c0.5-1.6,1-3.2,1.4-4.8
				c0.5-1.8,0.9-3.5,1.3-5.3c0.2-1,0.5-1.9,0.7-2.9c0.1-0.6,0.2-1.3,0.3-1.9c0.3-1.8,0.6-3.6,0.9-5.5c0.2-1.6,0.4-3.2,0.6-4.8
				c0.2-1.8,0.3-3.7,0.4-5.5c0.1-1.1,0.2-2.1,0.2-3.2c0-1.1,0-2.1,0.1-3.2l0.3-99.1C860.7,694.3,860.5,696.4,860.4,698.5z"/>
			<g>
				<linearGradient id="SVGID_2_" gradientUnits="userSpaceOnUse" x1="132.6405" y1="691.1016" x2="860.6981" y2="691.1016">
					<stop  offset="0" style="stop-color:#E3470F"/>
					<stop  offset="1" style="stop-color:#FF6F2C"/>
				</linearGradient>
				<path class="st6" d="M753.2,542c142.6,82.4,143.4,215.9,1.7,298.2s-372.2,82.4-514.8,0C97.5,757.9,96.7,624.3,238.4,542
					S610.6,459.7,753.2,542z"/>
			</g>
		</g>
	</g>
	<g>
		<g class="st4">
			<linearGradient id="SVGID_3_" gradientUnits="userSpaceOnUse" x1="214.0998" y1="726.1192" x2="778.9507" y2="726.1192">
				<stop  offset="0" style="stop-color:#D7D8D5"/>
				<stop  offset="1" style="stop-color:#F6F6F9"/>
			</linearGradient>
			<path class="st7" d="M778.7,621.6c-0.1,1.4-0.2,2.8-0.3,4.3c-0.1,1.2-0.3,2.5-0.5,3.7c-0.2,1.4-0.4,2.8-0.7,4.2
				c-0.2,1.2-0.5,2.5-0.8,3.7c-0.3,1.4-0.6,2.8-1,4.1c-0.3,1.2-0.7,2.5-1.1,3.7c-0.4,1.4-0.9,2.7-1.4,4.1c-0.4,1.2-0.9,2.4-1.4,3.6
				c-0.6,1.4-1.2,2.9-1.8,4.3c-0.5,1.2-1.1,2.4-1.7,3.6c-0.7,1.4-1.4,2.8-2.2,4.2c-0.6,1.1-1.2,2.3-1.9,3.4c-1,1.7-2,3.3-3.1,5
				c-0.7,1-1.3,2-2,3c-1.3,1.8-2.6,3.6-4,5.5c-0.6,0.9-1.2,1.7-1.9,2.6c-0.3,0.4-0.6,0.8-0.9,1.2c-1.5,1.8-3,3.6-4.6,5.4
				c-0.4,0.5-0.9,1-1.3,1.5c-1.9,2.1-3.8,4.1-5.9,6.1c-0.4,0.4-0.8,0.7-1.1,1.1c-1.6,1.5-3.2,3-4.9,4.5c-1.3,1.2-2.7,2.4-4.1,3.5
				c-1.3,1.1-2.6,2.2-3.9,3.3c-1.4,1.2-2.9,2.3-4.4,3.4c-1.4,1.1-2.8,2.1-4.2,3.2c-1.6,1.1-3.1,2.2-4.8,3.3c-1.5,1-3,2-4.5,3.1
				c-1.7,1.1-3.4,2.2-5.1,3.2c-2.2,1.3-4.3,2.7-6.5,4c-4.2,2.5-8.6,4.8-13,7c-1.3,0.7-2.6,1.3-3.9,1.9c-3.4,1.7-6.9,3.3-10.5,4.9
				c-1.2,0.5-2.4,1.1-3.6,1.6c-4.6,2-9.3,3.9-14.1,5.7c-0.9,0.3-1.7,0.6-2.6,0.9c-4,1.5-8.1,2.9-12.2,4.3c-1.7,0.6-3.4,1.1-5.1,1.7
				c-2.3,0.7-4.6,1.4-6.9,2.1c-1.9,0.6-3.9,1.1-5.9,1.7c-2.3,0.6-4.7,1.3-7,1.9c-2,0.5-4,1-6,1.5c-2.4,0.6-4.8,1.1-7.2,1.7
				c-2,0.4-4,0.9-6,1.3c-2.4,0.5-4.9,1-7.3,1.4c-1.9,0.4-3.8,0.7-5.7,1.1c-5.3,0.9-10.6,1.8-16,2.5c-0.8,0.1-1.5,0.2-2.3,0.3
				c-4.7,0.6-9.4,1.2-14.1,1.7c-1.8,0.2-3.6,0.4-5.4,0.5c-3,0.3-6,0.5-9.1,0.8c-1.9,0.1-3.8,0.3-5.7,0.4c-3.2,0.2-6.3,0.3-9.5,0.5
				c-1.8,0.1-3.6,0.2-5.4,0.2c-2.7,0.1-5.5,0.1-8.2,0.2c-1.9,0-3.9,0.1-5.8,0.1c-2.9,0-5.8,0-8.8-0.1c-1.8,0-3.5,0-5.3-0.1
				c-2.7-0.1-5.3-0.2-8-0.3c-1.9-0.1-3.8-0.1-5.7-0.2c-2.9-0.2-5.7-0.4-8.6-0.6c-1.7-0.1-3.4-0.2-5.1-0.4c-3.4-0.3-6.9-0.6-10.3-1
				c-1.1-0.1-2.2-0.2-3.3-0.3c-4.5-0.5-9-1.1-13.5-1.7c-0.7-0.1-1.5-0.2-2.2-0.3c-3.8-0.6-7.6-1.1-11.4-1.8
				c-1.6-0.3-3.2-0.6-4.8-0.9c-2.9-0.5-5.8-1.1-8.7-1.7c-1.5-0.3-3-0.7-4.5-1c-3.2-0.7-6.3-1.4-9.5-2.1c-1.8-0.4-3.5-0.9-5.3-1.3
				c-2.9-0.7-5.7-1.5-8.5-2.3c-1.6-0.4-3.2-0.9-4.8-1.4c-4.5-1.3-8.9-2.7-13.3-4.1c-0.8-0.3-1.6-0.5-2.4-0.8
				c-5.1-1.7-10-3.5-14.9-5.5c-2-0.8-4-1.6-6-2.4c-1.6-0.6-3.1-1.3-4.6-1.9c-2.2-1-4.4-2-6.6-3c-1.4-0.6-2.8-1.3-4.2-1.9
				c-2.4-1.1-4.7-2.3-7.1-3.5c-1.2-0.6-2.3-1.1-3.5-1.7c-3.4-1.8-6.8-3.7-10.2-5.6c-55.7-32.1-83.5-74.3-83.4-116.5l-0.2,57.9
				c-0.1,42.1,27.7,84.3,83.4,116.5c3.3,1.9,6.7,3.8,10.2,5.6c1.1,0.6,2.3,1.2,3.5,1.7c2.3,1.2,4.7,2.4,7,3.5c1.4,0.7,2.9,1.3,4.3,2
				c2.2,1,4.4,2,6.6,2.9c1.5,0.7,3.1,1.3,4.7,1.9c1.5,0.6,3,1.3,4.5,1.9c0.5,0.2,1,0.3,1.4,0.5c4.9,1.9,9.9,3.7,14.9,5.5
				c0.8,0.3,1.6,0.5,2.4,0.8c4.4,1.5,8.8,2.8,13.3,4.1c0.7,0.2,1.5,0.5,2.2,0.7c0.9,0.2,1.7,0.4,2.6,0.7c2.8,0.8,5.7,1.5,8.6,2.3
				c1.7,0.4,3.5,0.9,5.2,1.3c3.2,0.8,6.3,1.5,9.5,2.2c1.2,0.3,2.3,0.6,3.5,0.8c0.3,0.1,0.6,0.1,1,0.2c2.9,0.6,5.8,1.1,8.7,1.7
				c1.6,0.3,3.2,0.6,4.8,0.9c3.8,0.7,7.7,1.3,11.6,1.8c0.7,0.1,1.3,0.2,1.9,0.3c0,0,0.1,0,0.1,0c4.5,0.6,9,1.2,13.5,1.7
				c1,0.1,2,0.2,3,0.3c3.5,0.4,7.1,0.7,10.6,1c0.1,0,0.2,0,0.3,0c1.5,0.1,3.1,0.2,4.7,0.3c2.9,0.2,5.8,0.4,8.8,0.6
				c1.9,0.1,3.7,0.2,5.6,0.2c2.7,0.1,5.4,0.2,8.1,0.3c0.2,0,0.4,0,0.7,0c1.5,0,3,0,4.5,0c2.9,0,5.9,0.1,8.8,0.1
				c1.9,0,3.9-0.1,5.8-0.1c2.7,0,5.5-0.1,8.2-0.2c0.5,0,1,0,1.5,0c1.3,0,2.6-0.1,3.8-0.2c3.2-0.1,6.3-0.3,9.5-0.5
				c1.9-0.1,3.8-0.3,5.7-0.4c3-0.2,6.1-0.5,9.1-0.8c1.1-0.1,2.1-0.2,3.2-0.3c0.7-0.1,1.5-0.2,2.2-0.3c4.7-0.5,9.4-1,14.1-1.7
				c0.8-0.1,1.5-0.2,2.3-0.3c5.4-0.8,10.7-1.6,16-2.5c0.5-0.1,1-0.1,1.5-0.2c1.4-0.3,2.8-0.6,4.2-0.8c2.5-0.5,4.9-0.9,7.4-1.5
				c2-0.4,4-0.9,6-1.3c2.4-0.5,4.8-1.1,7.2-1.7c2-0.5,4-1,5.9-1.5c2.4-0.6,4.7-1.2,7-1.9c2-0.5,3.9-1.1,5.8-1.7
				c2.3-0.7,4.6-1.4,6.9-2.1c1-0.3,2-0.6,3-0.9c0.7-0.2,1.4-0.5,2.1-0.7c4.1-1.4,8.2-2.8,12.2-4.3c0.8-0.3,1.7-0.6,2.6-0.9
				c4.8-1.8,9.5-3.7,14.1-5.7c1.2-0.5,2.4-1.1,3.6-1.6c3.5-1.6,7-3.2,10.5-4.9c1.3-0.6,2.6-1.3,3.8-1.9c4.4-2.3,8.8-4.6,13-7
				c1.2-0.7,2.3-1.4,3.4-2c1.1-0.6,2-1.3,3.1-2c1.7-1.1,3.5-2.2,5.1-3.3c1.5-1,3-2,4.5-3c1.6-1.1,3.2-2.2,4.8-3.4
				c1.4-1,2.8-2.1,4.2-3.2c1.5-1.1,3-2.3,4.4-3.5c1.3-1.1,2.6-2.2,3.9-3.2c1.4-1.2,2.7-2.4,4.1-3.5c0.5-0.5,1.1-1,1.7-1.5
				c1.1-1,2.1-2,3.2-3c0.4-0.4,0.8-0.7,1.1-1.1c2-2,4-4.1,5.9-6.1c0.4-0.5,0.9-1,1.3-1.5c1.6-1.8,3.1-3.6,4.6-5.4
				c0.3-0.4,0.6-0.8,1-1.2c0.1-0.2,0.3-0.4,0.4-0.5c0.5-0.7,1-1.3,1.5-2c1.4-1.8,2.7-3.6,4-5.5c0.7-1,1.3-2,2-3
				c1.1-1.7,2.1-3.3,3.1-5c0.3-0.5,0.6-0.9,0.8-1.4c0.4-0.7,0.7-1.4,1.1-2.1c0.8-1.4,1.5-2.8,2.2-4.2c0.6-1.2,1.1-2.4,1.7-3.6
				c0.6-1.4,1.2-2.8,1.8-4.3c0.3-0.6,0.6-1.3,0.8-1.9c0.2-0.6,0.4-1.2,0.6-1.7c0.5-1.4,0.9-2.7,1.3-4.1c0.4-1.2,0.8-2.5,1.1-3.7
				c0.4-1.4,0.7-2.7,1-4.1c0.2-0.7,0.4-1.5,0.5-2.2c0.1-0.5,0.1-1,0.2-1.5c0.3-1.4,0.5-2.8,0.7-4.2c0.2-1.2,0.3-2.5,0.5-3.7
				c0.1-1.4,0.2-2.8,0.3-4.3c0-0.8,0.2-1.7,0.2-2.5c0-0.8,0-1.7,0-2.5l0.2-57.9C778.9,618.3,778.8,619.9,778.7,621.6z"/>
			<g>
				<linearGradient id="SVGID_4_" gradientUnits="userSpaceOnUse" x1="214.2641" y1="615.812" x2="778.951" y2="615.812">
					<stop  offset="0" style="stop-color:#F6F6F9"/>
					<stop  offset="1" style="stop-color:#D7D8D5"/>
				</linearGradient>
				<path class="st8" d="M695.6,500.2c110.6,63.9,111.2,167.4,1.3,231.3c-109.9,63.9-288.7,63.9-399.3,0S186.4,564,296.3,500.2
					C406.2,436.3,585,436.3,695.6,500.2z"/>
			</g>
		</g>
	</g>
	<g>
		<g>
			<g class="st4">
				<g>
					<linearGradient id="SVGID_5_" gradientUnits="userSpaceOnUse" x1="403.5867" y1="373.0765" x2="510.0227" y2="373.0765">
						<stop  offset="0" style="stop-color:#FFA21E"/>
						<stop  offset="1" style="stop-color:#FFCB27"/>
					</linearGradient>
					<polygon class="st9" points="485,311.6 510,297.1 428.6,434.5 403.6,449.1 					"/>
				</g>
				<linearGradient id="SVGID_6_" gradientUnits="userSpaceOnUse" x1="364.3377" y1="300.3943" x2="510.0226" y2="300.3943">
					<stop  offset="0" style="stop-color:#FFA21E"/>
					<stop  offset="1" style="stop-color:#FFCB27"/>
				</linearGradient>
				<path class="st10" d="M483.2,310.2c0.1,0.1,0.2,0.2,0.3,0.2c0.4,0.3,0.8,0.6,1,0.8c0.1,0.1,0.1,0.1,0.2,0.2
					c0.1,0.1,0.3,0.2,0.3,0.2l25-14.5c0,0,0,0-0.1-0.1c0,0-0.1-0.1-0.2-0.2c-0.1-0.1-0.1-0.1-0.2-0.2c0,0,0,0-0.1-0.1
					c-0.2-0.2-0.5-0.4-0.8-0.6c0,0-0.1-0.1-0.2-0.1c-0.1-0.1-0.2-0.1-0.3-0.2c-0.2-0.2-0.4-0.3-0.7-0.5c-0.2-0.1-0.5-0.3-0.7-0.5
					c-0.2-0.1-0.3-0.2-0.5-0.3c-0.1-0.1-0.2-0.1-0.3-0.2c-0.5-0.3-1.2-0.7-1.8-1.1c-0.2-0.1-0.3-0.2-0.5-0.3c-0.5-0.3-1-0.6-1.5-0.8
					c0,0,0,0-0.1,0c-0.1,0-0.1-0.1-0.2-0.1c-0.6-0.3-1.2-0.6-1.8-0.9c-0.1-0.1-0.2-0.1-0.3-0.2c-0.1,0-0.2-0.1-0.3-0.1
					c-0.6-0.3-1.3-0.6-2-0.9c-0.1,0-0.2-0.1-0.3-0.1c0,0-0.1,0-0.1,0c-0.8-0.4-1.7-0.7-2.5-1.1c-0.1,0-0.2-0.1-0.3-0.1
					c-0.1-0.1-0.3-0.1-0.4-0.2c-0.7-0.3-1.5-0.6-2.3-0.9c-0.2-0.1-0.3-0.1-0.5-0.2c-0.1,0-0.2-0.1-0.2-0.1c-1-0.3-2-0.7-3.1-1
					c-0.1,0-0.1,0-0.2-0.1c-0.1,0-0.3-0.1-0.4-0.1c-1-0.3-2-0.6-3-0.8c-0.2,0-0.3-0.1-0.5-0.1c-0.1,0-0.2,0-0.3-0.1
					c-1.3-0.3-2.6-0.6-4-0.9c-0.1,0-0.2,0-0.3-0.1c-0.2,0-0.3,0-0.5-0.1c-1.5-0.3-3-0.5-4.6-0.8c0,0-0.1,0-0.1,0c0,0,0,0,0,0
					c-1.8-0.2-3.7-0.4-5.6-0.6c-0.2,0-0.3,0-0.5,0c-0.1,0-0.1,0-0.2,0c-2.2-0.1-4.4-0.2-6.7-0.2c-0.1,0-0.2,0-0.4,0
					c-0.1,0-0.1,0-0.2,0c-2.8,0-5.7,0.2-8.7,0.4c-0.1,0-0.1,0-0.2,0c-0.2,0-0.5,0.1-0.8,0.1c-1.4,0.1-2.9,0.3-4.4,0.5
					c-0.5,0.1-0.9,0.1-1.4,0.2c-1.8,0.3-3.6,0.6-5.5,0.9c-0.1,0-0.1,0-0.2,0c-0.1,0-0.2,0.1-0.3,0.1c-2.8,0.6-5.7,1.2-8.7,2
					c-0.2,0-0.3,0.1-0.5,0.1c-3,0.8-6,1.8-9.1,2.8c-0.1,0-0.1,0-0.2,0.1c-0.2,0.1-0.5,0.2-0.7,0.3c-1.9,0.7-3.8,1.4-5.7,2.2
					c-0.6,0.2-1.1,0.5-1.7,0.7c-2.2,0.9-4.5,1.9-6.8,3c-0.2,0.1-0.4,0.2-0.6,0.3c-2.1,1-4.3,2.1-6.5,3.2c-0.6,0.3-1.2,0.6-1.9,1
					c-2.4,1.3-4.8,2.6-7.3,4l-25,14.5c2.5-1.4,4.9-2.8,7.3-4c0.6-0.3,1.2-0.6,1.8-1c2.2-1.1,4.4-2.2,6.5-3.2
					c0.2-0.1,0.4-0.2,0.6-0.3c2.3-1.1,4.5-2,6.8-3c0.6-0.2,1.1-0.5,1.7-0.7c1.9-0.8,3.9-1.5,5.7-2.2c0.3-0.1,0.6-0.2,0.8-0.3
					c3.1-1.1,6.2-2,9.1-2.8c0.2,0,0.3-0.1,0.5-0.1c3-0.8,5.9-1.5,8.7-2c0.1,0,0.3-0.1,0.5-0.1c1.9-0.4,3.7-0.7,5.5-0.9
					c0.5-0.1,0.9-0.1,1.4-0.2c1.5-0.2,2.9-0.4,4.4-0.5c0.3,0,0.7-0.1,1-0.1c3-0.3,5.9-0.4,8.7-0.4c0.2,0,0.4,0,0.5,0
					c2.3,0,4.6,0.1,6.8,0.2c0.2,0,0.4,0,0.7,0.1c1.9,0.1,3.8,0.3,5.6,0.6c0.1,0,0.1,0,0.2,0c1.6,0.2,3.1,0.5,4.6,0.8
					c0.3,0,0.5,0.1,0.8,0.1c1.4,0.3,2.7,0.6,4,0.9c0.3,0.1,0.6,0.1,0.8,0.2c1,0.3,2,0.5,3,0.8c0.2,0.1,0.4,0.1,0.6,0.2
					c1.1,0.3,2.1,0.7,3.1,1c0.2,0.1,0.5,0.2,0.7,0.3c0.8,0.3,1.6,0.6,2.3,0.9c0.2,0.1,0.5,0.2,0.7,0.3c0.9,0.4,1.7,0.7,2.5,1.1
					c0.1,0.1,0.3,0.1,0.4,0.2c0.7,0.3,1.3,0.6,2,0.9c0.2,0.1,0.4,0.2,0.6,0.3c0.6,0.3,1.2,0.6,1.8,0.9c0.1,0,0.2,0.1,0.3,0.1
					c0.5,0.3,1,0.6,1.5,0.8c1,0.6,1.8,1.1,2.6,1.6c0.2,0.1,0.3,0.2,0.5,0.3C482.3,309.6,482.8,310,483.2,310.2z"/>
				<g>
					<linearGradient id="SVGID_7_" gradientUnits="userSpaceOnUse" x1="319.4808" y1="372.8894" x2="484.9923" y2="372.8894">
						<stop  offset="0" style="stop-color:#FFA21E"/>
						<stop  offset="1" style="stop-color:#FFCB27"/>
					</linearGradient>
					<path class="st11" d="M478.7,307.4c4.1,2.4,6.2,4.1,6.3,4.2l-81.4,137.4l-84.1-97.5C404.7,276.3,460.7,297,478.7,307.4z"/>
				</g>
			</g>
		</g>
	</g>
	<linearGradient id="SVGID_8_" gradientUnits="userSpaceOnUse" x1="354.3713" y1="622.7743" x2="509.6518" y2="622.7743">
		<stop  offset="0" style="stop-color:#ED5838"/>
		<stop  offset="1" style="stop-color:#FE7A45"/>
	</linearGradient>
	<path class="st12" d="M480,539.1L480,539.1c-23.1-3.3-96.3-9-121.3,47.3c0,0-17.4,40.1,17.3,121.9l0,0
		c88.7-6.1,116.6-39.7,116.6-39.7C531.6,620.9,493.4,558.2,480,539.1z"/>
	<g>
		<g>
			<g>
				<g>
					<defs>
						<path id="SVGID_9_" d="M566.3,595.4l-18.7,32.4c-20.7,35.9-78.6,41.2-129.3,11.9c-50.7-29.3-75-82-54.3-117.9l18.7-32.4
							C362,525.2,386.3,578,437,607.2C487.7,636.5,545.6,631.2,566.3,595.4z"/>
					</defs>
					<clipPath id="SVGID_10_">
						<use xlink:href="#SVGID_9_"  style="overflow:visible;"/>
					</clipPath>
				</g>
			</g>
		</g>
		<g>
			<g class="st4">
				<g class="st4">
					<defs>
						<path id="SVGID_11_" class="st4" d="M566.3,595.4l-18.7,32.4c-20.7,35.9-78.6,41.2-129.3,11.9c-50.7-29.3-75-82-54.3-117.9
							l18.7-32.4C362,525.2,386.3,578,437,607.2C487.7,636.5,545.6,631.2,566.3,595.4z"/>
					</defs>
					<linearGradient id="SVGID_12_" gradientUnits="userSpaceOnUse" x1="356.5813" y1="573.9872" x2="566.2597" y2="573.9872">
						<stop  offset="0" style="stop-color:#FFA21E"/>
						<stop  offset="1" style="stop-color:#FFCB27"/>
					</linearGradient>
					<use xlink:href="#SVGID_11_"  style="overflow:visible;fill:url(#SVGID_12_);"/>
					<clipPath id="SVGID_13_">
						<use xlink:href="#SVGID_11_"  style="overflow:visible;"/>
					</clipPath>
					<linearGradient id="SVGID_14_" gradientUnits="userSpaceOnUse" x1="356.5812" y1="573.9869" x2="566.2596" y2="573.9869">
						<stop  offset="0" style="stop-color:#FFA21E"/>
						<stop  offset="1" style="stop-color:#FFCB27"/>
					</linearGradient>
					<path class="st13" d="M561.9,601.7c-6.8,8.6-16,15-26.9,19.1c-23.9,9-55.6,6.8-86.1-7.3c-4-1.9-8-3.9-11.9-6.2
						c-9.5-5.5-18-11.8-25.5-18.6c-32.7-29.8-45.6-70.1-28.8-99.3L364,521.8c-16.8,29.2-3.9,69.5,28.8,99.3
						c7.5,6.8,16.1,13.1,25.5,18.6c3.9,2.3,7.9,4.3,11.9,6.2c30.4,14.1,62.2,16.3,86.1,7.3c10.9-4.1,20.1-10.5,26.9-19.1
						c1.6-2,3-4.1,4.3-6.4l18.7-32.4C565,597.6,563.5,599.7,561.9,601.7z"/>
				</g>
				<g>
					<linearGradient id="SVGID_15_" gradientUnits="userSpaceOnUse" x1="375.3127" y1="542.361" x2="573.6423" y2="542.361">
						<stop  offset="0" style="stop-color:#FFA21E"/>
						<stop  offset="1" style="stop-color:#FFCB27"/>
					</linearGradient>
					<path class="st14" d="M511.9,477.4c50.7,29.3,75,82.1,54.3,117.9c-20.7,35.9-78.6,41.2-129.3,11.9c-50.7-29.3-75-82-54.3-117.9
						C403.4,453.5,461.3,448.2,511.9,477.4z"/>
				</g>
			</g>
		</g>
		<g>
			<g>
				<g>
					<defs>
						<path id="SVGID_16_" d="M566.3,595.4l-18.7,32.4c-20.7,35.9-78.6,41.2-129.3,11.9c-50.7-29.3-75-82-54.3-117.9l18.7-32.4
							C362,525.2,386.3,578,437,607.2C487.7,636.5,545.6,631.2,566.3,595.4z"/>
					</defs>
					<clipPath id="SVGID_17_">
						<use xlink:href="#SVGID_16_"  style="overflow:visible;"/>
					</clipPath>
				</g>
			</g>
		</g>
	</g>
	<linearGradient id="SVGID_18_" gradientUnits="userSpaceOnUse" x1="347.4693" y1="400.24" x2="764.4653" y2="400.24">
		<stop  offset="0" style="stop-color:#ED5838"/>
		<stop  offset="1" style="stop-color:#FE7A45"/>
	</linearGradient>
	<path class="st15" d="M681.8,182.4c-68-39.2-145.6-32.1-173.3,15.9L357.3,460c-1.3,2.2-2.4,4.4-3.4,6.7c-0.2,0.5-0.4,0.9-0.6,1.4
		c-0.9,2.2-1.8,4.5-2.5,6.8c-0.1,0.4-0.2,0.8-0.4,1.3c-0.6,2.2-1.2,4.4-1.6,6.6c-0.1,0.3-0.1,0.5-0.2,0.8c-0.4,2.4-0.7,4.8-0.9,7.3
		c0,0.5-0.1,1.1-0.1,1.6c-0.2,2.5-0.2,4.9-0.2,7.4c0,0.3,0,0.6,0,0.9c0.1,2.3,0.2,4.7,0.5,7.1c0,0.4,0.1,0.9,0.1,1.3
		c0.3,2.5,0.7,5,1.2,7.6c0.1,0.5,0.2,1.1,0.3,1.6c0.6,2.6,1.2,5.2,2,7.8c0,0,0,0.1,0,0.1c0.8,2.6,1.7,5.2,2.7,7.8
		c0.2,0.5,0.4,1,0.6,1.6c1,2.5,2.1,5.1,3.3,7.6c0.2,0.5,0.5,0.9,0.7,1.4c1.2,2.4,2.4,4.8,3.7,7.2c0.2,0.3,0.3,0.5,0.4,0.8
		c1.4,2.5,3,5,4.6,7.5c0.3,0.5,0.7,1.1,1,1.6c1.6,2.5,3.4,4.9,5.2,7.3c0.2,0.3,0.5,0.6,0.7,0.9c1.7,2.3,3.5,4.5,5.4,6.7
		c0.3,0.4,0.7,0.8,1,1.2c2,2.3,4.1,4.6,6.3,6.9c0.5,0.5,0.9,0.9,1.4,1.4c2.3,2.3,4.6,4.6,7.1,6.8c0,0,0,0,0,0
		c0.1,0.1,0.1,0.1,0.2,0.2c2.2,2,4.4,3.9,6.7,5.8c0.6,0.5,1.2,1,1.8,1.5c2.4,1.9,4.9,3.9,7.4,5.7c0,0,0.1,0.1,0.1,0.1
		c2.5,1.8,5.1,3.6,7.7,5.3c0.7,0.4,1.3,0.9,2,1.3c2.7,1.7,5.4,3.4,8.3,5.1c2.4,1.4,4.9,2.7,7.3,4c0.8,0.4,1.5,0.8,2.3,1.2
		c1.7,0.9,3.4,1.7,5.1,2.5c0.4,0.2,0.8,0.4,1.3,0.6c0.5,0.2,0.9,0.4,1.4,0.6c1.5,0.7,3,1.4,4.6,2c0.9,0.4,1.8,0.8,2.6,1.1
		c1.7,0.7,3.3,1.3,5,1.9c0.7,0.3,1.4,0.6,2.2,0.8c2.4,0.9,4.8,1.7,7.2,2.4c0.3,0.1,0.6,0.2,0.9,0.3c2.1,0.7,4.2,1.3,6.3,1.8
		c0.8,0.2,1.6,0.4,2.4,0.6c1.6,0.4,3.2,0.8,4.8,1.2c0.9,0.2,1.8,0.4,2.7,0.6c1.5,0.3,3,0.6,4.5,0.9c0.9,0.2,1.8,0.3,2.7,0.5
		c1.5,0.3,3.1,0.5,4.6,0.7c0.8,0.1,1.6,0.2,2.5,0.3c1.9,0.2,3.7,0.4,5.5,0.6c0.5,0,0.9,0.1,1.4,0.1c2.3,0.2,4.6,0.3,6.8,0.4
		c0.6,0,1.2,0,1.9,0c1.6,0,3.3,0.1,4.9,0c0.8,0,1.6,0,2.4-0.1c1.4,0,2.8-0.1,4.3-0.2c0.8-0.1,1.7-0.1,2.5-0.2
		c1.4-0.1,2.8-0.2,4.1-0.4c0.8-0.1,1.6-0.2,2.4-0.3c1.5-0.2,3-0.4,4.4-0.7c0.6-0.1,1.3-0.2,1.9-0.3c2.1-0.4,4.1-0.8,6.1-1.3
		c0.2-0.1,0.4-0.1,0.6-0.2c1.8-0.4,3.5-0.9,5.3-1.4c0.6-0.2,1.3-0.4,1.9-0.6c1.3-0.4,2.6-0.8,3.8-1.3c0.3-0.1,0.6-0.2,0.9-0.3
		c0.5-0.2,0.9-0.4,1.4-0.6c1-0.4,1.9-0.8,2.9-1.2c0.8-0.3,1.5-0.7,2.3-1c0.9-0.4,1.9-0.9,2.8-1.3c0.7-0.4,1.5-0.7,2.2-1.1
		c0.9-0.5,1.8-1,2.7-1.5c0.7-0.4,1.4-0.8,2.1-1.2c0.9-0.5,1.7-1.1,2.6-1.7c0.7-0.4,1.3-0.9,1.9-1.3c0.8-0.6,1.7-1.2,2.5-1.9
		c0.6-0.5,1.2-0.9,1.8-1.4c0.8-0.7,1.6-1.4,2.4-2.1c0.5-0.5,1.1-0.9,1.6-1.4c0.8-0.8,1.7-1.6,2.5-2.5c0.4-0.4,0.9-0.9,1.3-1.3
		c1.1-1.2,2.2-2.5,3.2-3.8c0.1-0.1,0.1-0.2,0.2-0.2c0,0,0,0,0,0c0.6-0.8,1.1-1.6,1.7-2.3c0.4-0.6,0.9-1.2,1.3-1.8
		c1-1.4,1.9-2.9,2.7-4.4l151.1-261.7C782.3,292.4,749.7,221.6,681.8,182.4z"/>
	<linearGradient id="SVGID_19_" gradientUnits="userSpaceOnUse" x1="502.1687" y1="218.967" x2="783.7878" y2="218.967">
		<stop  offset="0" style="stop-color:#FFA21E"/>
		<stop  offset="1" style="stop-color:#FFCB27"/>
	</linearGradient>
	<path class="st16" d="M754.7,338.9c0,0,0-0.1,0.1-0.2c0.8-1.4,1.6-2.9,2.2-4.4c11.5-24.1,59.6-139.9-10.9-264.8
		C605.3,70.9,529.2,167,512.3,191.3c-1.3,1.7-2.5,3.5-3.6,5.3c-0.1,0.1-0.1,0.2-0.1,0.2l0,0c-10.3,18.3-8.6,43.4,7.4,71.1
		c32.1,55.7,110.1,100.7,174,100.5C721.9,368.3,744.2,357,754.7,338.9L754.7,338.9z"/>
	<g>
		<g>
			<g class="st4">
				<linearGradient id="SVGID_20_" gradientUnits="userSpaceOnUse" x1="628.1284" y1="547.5191" x2="675.9234" y2="547.5191">
					<stop  offset="0" style="stop-color:#FFA21E"/>
					<stop  offset="1" style="stop-color:#FFCB27"/>
				</linearGradient>
				<path class="st17" d="M675.6,543.2c0-0.2,0-0.4,0-0.6c0,0,0-0.1,0-0.1c0-0.2,0-0.4,0-0.6c0.2-3.9,0.2-7.7,0.3-11.4
					c0-0.4,0-0.9,0-1.4c0-0.8,0-1.6,0-2.4c0-2.5,0-4.9-0.1-7.3c0-0.7,0-1.4,0-2.1c0-0.6-0.1-1.1-0.1-1.7c-0.1-2.1-0.2-4.2-0.3-6.3
					c0-0.8-0.1-1.7-0.1-2.4c0-0.4-0.1-0.7-0.1-1c-0.1-1.9-0.3-3.7-0.4-5.5c-0.1-0.9-0.1-1.8-0.2-2.7c0-0.2,0-0.4-0.1-0.6
					c-0.2-1.8-0.4-3.5-0.6-5.2c-0.1-0.8-0.2-1.7-0.3-2.6c0-0.1,0-0.2,0-0.3c-0.2-1.7-0.5-3.2-0.7-4.8c-0.1-0.8-0.2-1.7-0.4-2.5
					c0-0.1,0-0.1,0-0.2c-0.2-1.3-0.4-2.4-0.6-3.7c-0.2-1-0.3-2.1-0.5-3.1c0-0.1,0-0.1,0-0.2c-0.2-1-0.4-2-0.6-3
					c-0.2-1.1-0.4-2.2-0.7-3.3c0-0.1,0-0.1,0-0.2c-0.2-0.8-0.4-1.6-0.6-2.5c-0.3-1.1-0.5-2.2-0.8-3.2c0-0.1,0-0.2-0.1-0.3
					c-0.2-0.7-0.4-1.4-0.6-2.1c-0.3-1-0.5-2-0.8-2.9c0-0.1-0.1-0.3-0.1-0.4c-0.2-0.7-0.4-1.4-0.6-2.1c-0.2-0.8-0.5-1.6-0.7-2.4
					c-0.1-0.2-0.1-0.4-0.2-0.5c-0.2-0.6-0.4-1.2-0.6-1.7c-0.2-0.7-0.4-1.3-0.6-2c-0.1-0.3-0.2-0.5-0.3-0.8c-0.2-0.6-0.4-1.1-0.6-1.7
					c-0.2-0.5-0.3-0.9-0.5-1.4c-0.1-0.4-0.3-0.7-0.4-1.1c-0.2-0.5-0.3-0.9-0.5-1.4c-0.1-0.3-0.2-0.6-0.3-0.9c-0.2-0.5-0.4-1-0.6-1.5
					c-0.1-0.4-0.3-0.7-0.4-1.1c-0.1-0.1-0.1-0.3-0.2-0.4c-0.4-0.9-0.7-1.7-1.1-2.5c0-0.1-0.1-0.1-0.1-0.2c0,0,0,0,0,0
					c-0.4-0.9-0.8-1.7-1.1-2.5c0-0.1-0.1-0.2-0.1-0.2c-0.2-0.3-0.3-0.6-0.5-0.9c-0.2-0.4-0.4-0.8-0.6-1.2c-0.1-0.1-0.1-0.2-0.2-0.3
					c-0.3-0.5-0.5-0.9-0.7-1.4c-0.1-0.2-0.2-0.5-0.4-0.7c0-0.1-0.1-0.1-0.1-0.2c-0.1-0.2-0.2-0.4-0.3-0.6c-0.2-0.4-0.4-0.8-0.6-1.1
					c-0.1-0.2-0.2-0.3-0.3-0.5c-0.1-0.1-0.2-0.3-0.2-0.4c-0.1-0.1-0.1-0.2-0.2-0.3c-0.2-0.3-0.4-0.6-0.5-0.8
					c-0.1-0.1-0.1-0.2-0.2-0.3c-0.2-0.3-0.3-0.5-0.4-0.6l-25,14.5c0.1,0.1,0.2,0.4,0.4,0.6c0.1,0.1,0.1,0.2,0.2,0.3
					c0.2,0.2,0.3,0.5,0.5,0.9c0.1,0.2,0.3,0.4,0.4,0.7c0.1,0.2,0.2,0.3,0.3,0.5c0.2,0.3,0.4,0.7,0.6,1.1c0.1,0.2,0.2,0.4,0.3,0.6
					c0.2,0.3,0.3,0.6,0.5,0.9c0.2,0.4,0.5,0.9,0.7,1.4c0.2,0.5,0.5,1,0.7,1.5c0.1,0.3,0.3,0.6,0.4,0.9c0.4,0.9,0.8,1.8,1.3,2.8
					c0,0,0,0.1,0.1,0.1c0.4,0.9,0.8,1.9,1.3,3c0.1,0.3,0.3,0.7,0.4,1.1c0.3,0.8,0.6,1.6,0.9,2.4c0.2,0.4,0.3,0.9,0.5,1.4
					c0.3,0.8,0.6,1.6,0.9,2.5c0.2,0.6,0.4,1.1,0.6,1.7c0.3,0.9,0.6,1.8,0.9,2.8c0.2,0.6,0.4,1.1,0.6,1.7c0.3,1,0.6,2,0.9,3
					c0.2,0.7,0.4,1.3,0.6,2c0.3,1.1,0.6,2.2,0.9,3.4c0.2,0.7,0.4,1.4,0.5,2.1c0.3,1.1,0.5,2.3,0.8,3.5c0.2,0.8,0.4,1.6,0.6,2.5
					c0.2,1.1,0.5,2.3,0.7,3.4c0.2,1,0.4,2,0.6,3.1c0.2,1.1,0.4,2.2,0.6,3.3c0.2,1.2,0.4,2.4,0.6,3.7c0.1,0.9,0.3,1.8,0.4,2.8
					c0.2,1.6,0.5,3.1,0.7,4.8c0.1,1,0.2,2,0.3,2.9c0.2,1.7,0.4,3.4,0.6,5.2c0.1,1.1,0.2,2.2,0.3,3.3c0.2,1.8,0.3,3.6,0.4,5.5
					c0.1,1.1,0.1,2.3,0.2,3.5c0.1,2.1,0.2,4.2,0.3,6.3c0,1.2,0.1,2.5,0.1,3.8c0.1,2.4,0.1,4.8,0.1,7.3c0,1.2,0,2.5,0,3.8
					c0,3.7-0.1,7.5-0.3,11.4c0,0.3,0,0.5,0,0.8c0,0.2,0,0.4,0,0.6c-0.1,2.9-0.3,5.9-0.5,9c-0.1,0.9-0.1,1.9-0.2,2.8
					c-0.2,2.4-0.4,4.9-0.6,7.4c-0.1,1.1-0.2,2.2-0.3,3.3c-0.3,3.4-0.7,6.9-1.2,10.5c0,0.1,0,0.2,0,0.3c-0.5,3.8-1,7.7-1.6,11.7
					c-0.2,1.3-0.4,2.6-0.6,3.9c-0.4,2.7-0.9,5.4-1.3,8.1c-0.4,2.5-0.9,5-1.4,7.6c-0.4,2-0.7,3.9-1.1,6c-0.5,2.7-1.1,5.4-1.7,8.1
					c-0.4,2-0.8,3.9-1.3,6c-0.7,3.2-1.6,6.5-2.4,9.8c-0.4,1.6-0.8,3.3-1.2,4.9c-1.3,5-2.6,10.1-4.1,15.3l25-14.5
					c1.5-5.2,2.8-10.3,4.1-15.3c0.4-1.7,0.8-3.4,1.2-5.1c0.8-3.2,1.6-6.5,2.3-9.6c0.1-0.2,0.1-0.5,0.2-0.7c0.4-1.8,0.8-3.5,1.1-5.3
					c0.6-2.7,1.2-5.4,1.7-8c0.4-2,0.8-4,1.2-6c0.5-2.5,1-5,1.4-7.5c0.1-0.4,0.2-0.8,0.2-1.2c0.4-2.4,0.8-4.7,1.1-7
					c0.2-1.3,0.4-2.6,0.6-3.9c0.6-4,1.1-7.8,1.6-11.6c0,0,0,0,0,0c0-0.1,0-0.2,0-0.2c0.4-3.6,0.8-7.1,1.2-10.5
					c0.1-1.1,0.2-2.2,0.3-3.3c0.1-1.5,0.3-3,0.4-4.4c0.1-1,0.1-2,0.2-3c0.1-0.9,0.1-1.9,0.2-2.8
					C675.3,549.2,675.4,546.2,675.6,543.2z"/>
				<g>
					<linearGradient id="SVGID_21_" gradientUnits="userSpaceOnUse" x1="546.6948" y1="554.7923" x2="650.8977" y2="554.7923">
						<stop  offset="0" style="stop-color:#FFA21E"/>
						<stop  offset="1" style="stop-color:#FFCB27"/>
					</linearGradient>
					<path class="st18" d="M628.1,437.3c2.4,3.7,48.2,73.6,2.7,234.9l-84.1-97.5L628.1,437.3z"/>
				</g>
			</g>
		</g>
	</g>
	<linearGradient id="SVGID_22_" gradientUnits="userSpaceOnUse" x1="731.7416" y1="511.9455" x2="974.8665" y2="511.9455">
		<stop  offset="0" style="stop-color:#ED5838"/>
		<stop  offset="1" style="stop-color:#FE7A45"/>
	</linearGradient>
	<path class="st19" d="M731.7,621.6c0,0,36.5-195.6,203.2-219.3c0,0,37.1-0.7,39.9,34.2c0,0-1.5,31.2-52,36.8
		C922.9,473.3,788.6,488.2,731.7,621.6z"/>
	<linearGradient id="SVGID_23_" gradientUnits="userSpaceOnUse" x1="77.7768" y1="393.8964" x2="320.9016" y2="393.8964">
		<stop  offset="0" style="stop-color:#ED5838"/>
		<stop  offset="1" style="stop-color:#FE7A45"/>
	</linearGradient>
	<path class="st20" d="M320.9,503.5c0,0-36.5-195.6-203.2-219.3c0,0-37.1-0.7-39.9,34.2c0,0,1.5,31.2,52,36.8
		C129.8,355.2,264,370.2,320.9,503.5z"/>
	<linearGradient id="SVGID_24_" gradientUnits="userSpaceOnUse" x1="359.2215" y1="123.3381" x2="454.7018" y2="123.3381">
		<stop  offset="0" style="stop-color:#ED5838"/>
		<stop  offset="1" style="stop-color:#FE7A45"/>
	</linearGradient>
	<path class="st21" d="M408.9,42.8c15.8,16,54.6,66.8,44,173.5c0,0,2.6-95.1-69.7-132.3c-9.7-4.4-14.6-9.1-14.6-9.1
		c-6.9-7.4-16.3-22.2-1.9-38.9c0,0,8.9-11.2,29.8-1.9C396.6,34.1,403.7,37.7,408.9,42.8z"/>
	<linearGradient id="SVGID_25_" gradientUnits="userSpaceOnUse" x1="800.7866" y1="235.2049" x2="951.5878" y2="235.2049">
		<stop  offset="0" style="stop-color:#ED5838"/>
		<stop  offset="1" style="stop-color:#FE7A45"/>
	</linearGradient>
	<path class="st22" d="M908.3,165.4c-20.8,8.7-76.1,40.6-107.5,143c0,0,34.3-88.7,115.3-95.1c10.7-0.3,17-2.8,17-2.8
		c9.3-4.1,23.6-14.2,16.7-35.2c0,0-3.9-13.7-26.8-13.2C923,162,915.1,162.7,908.3,165.4z"/>
</g>
</svg>
