<?xml version="1.0" encoding="utf-8"?>
<!-- Generator: Adobe Illustrator 21.0.0, SVG Export Plug-In . SVG Version: 6.00 Build 0)  -->
<svg version="1.1" id="图层_1" xmlns="http://www.w3.org/2000/svg" xmlns:xlink="http://www.w3.org/1999/xlink" x="0px" y="0px"
	 viewBox="0 0 1024 1024" style="enable-background:new 0 0 1024 1024;" xml:space="preserve">
<style type="text/css">
	.st0{display:none;}
	.st1{display:inline;}
	.st2{opacity:0.25;}
	.st3{display:inline;opacity:0.25;}
	.st4{fill:url(#SVGID_1_);}
	.st5{enable-background:new    ;}
	.st6{fill:url(#SVGID_2_);}
	.st7{fill:url(#SVGID_3_);}
	.st8{fill:url(#SVGID_4_);}
	.st9{fill:url(#SVGID_5_);}
	.st10{fill:url(#SVGID_6_);}
	.st11{fill:url(#SVGID_7_);}
	.st12{fill:url(#SVGID_8_);}
	.st13{fill:url(#SVGID_9_);}
	.st14{fill:url(#SVGID_10_);}
	.st15{fill:url(#SVGID_11_);}
	.st16{fill:url(#SVGID_12_);}
	.st17{fill:url(#SVGID_13_);}
	.st18{fill:url(#SVGID_14_);}
</style>
<g id="图层_1_1_" class="st0">
	<g id="bg" class="st1">
		<g id="图层_2">
			<g id="图标参考线">
				<g id="图标尺寸" class="st2">
					<path d="M1018.2,5.8v1012.5H5.8V5.8H1018.2 M1024,0H0v1024h1024V0z"/>
					<path d="M512,28.8c266.9,0,483.2,216.4,483.2,483.2S778.9,995.2,512,995.2S28.8,778.9,28.8,512S245.1,28.8,512,28.8 M512,23
						C241.9,23,23,241.9,23,512s218.9,489,489,489s489-218.9,489-489C1000.7,242,782,23.3,512,23z"/>
					<path d="M949.2,74.8v874.4H74.8V74.8H949.2 M955,69H69v886h886V69z"/>
					<path d="M995.2,28.8v966.5H28.8V28.8H995.2 M1001,23H23v978h978V23z"/>
					<path d="M995.2,189.8v644.3H28.8V189.8H995.2 M1001,184.1H23v655.8h978V184.1z"/>
				</g>
			</g>
		</g>
	</g>
	<g id="图标尺寸_1_" class="st3">
		<g>
			<path d="M1017.1,4.6v1010.2H6.9V4.6H1017.1 M1021.7,0h-6.9H4.6H0v6.9v1010.2v6.9h6.9h1010.2h6.9v-6.9V6.9V0H1021.7z"/>
		</g>
		<g>
			<path d="M512,27.6c266.3,0,482.2,215.8,482.2,482.2S778.3,991.9,512,991.9S29.8,776.1,29.8,509.7S245.7,27.6,512,27.6 M512,23
				C243.4,23,23,241.1,23,509.7s218.1,486.7,489,486.7s489-218.1,489-486.7S780.6,23,512,23L512,23z"/>
		</g>
		<g>
			<path d="M948.2,73.5V946H75.8V73.5H948.2 M952.8,68.9h-6.9H73.5h-4.6v6.9v872.5v6.9h6.9h872.5h6.9v-6.9V75.8v-6.9H952.8z"/>
		</g>
		<g>
			<path d="M994.1,27.6v964.3H29.8V27.6H994.1 M998.7,23h-6.9H27.5h-4.6v6.9v964.3v6.9h6.9h964.3h6.9v-6.9V29.9V23H998.7z"/>
		</g>
		<g>
			<path d="M994.1,188.3v642.9H29.8V188.3H994.1 M998.7,183.7h-6.9H27.5h-4.6v4.6v642.9v6.9h6.9h964.3h6.9v-6.9V188.3v-4.6H998.7z"
				/>
		</g>
	</g>
</g>
<linearGradient id="SVGID_1_" gradientUnits="userSpaceOnUse" x1="809.2012" y1="153.6481" x2="981.0906" y2="153.6481">
	<stop  offset="0" style="stop-color:#D5CBCA"/>
	<stop  offset="1" style="stop-color:#F8F4F1"/>
</linearGradient>
<path class="st4" d="M931.8,74c-23.7,9.9-86.8,46.3-122.6,163c0,0,39.1-101.2,131.4-108.4c12.2-0.4,19.3-3.2,19.3-3.2
	c10.6-4.7,26.9-16.1,19.1-40.1c0,0-4.4-15.7-30.5-15.1C948.5,70.2,939.5,71,931.8,74z"/>
<g>
	<g class="st5">
		<linearGradient id="SVGID_2_" gradientUnits="userSpaceOnUse" x1="97.3109" y1="824.7102" x2="905.3537" y2="824.7102">
			<stop  offset="0" style="stop-color:#F6F6F9"/>
			<stop  offset="1" style="stop-color:#D7D8D5"/>
		</linearGradient>
		<path class="st6" d="M905,661.7c-0.1,2-0.2,4.1-0.4,6.1c-0.2,1.8-0.4,3.5-0.7,5.3c-0.3,2-0.6,4-1,6c-0.3,1.8-0.7,3.6-1.1,5.3
			c-0.4,2-0.9,3.9-1.4,5.9c-0.5,1.8-1,3.6-1.6,5.3c-0.6,2-1.2,3.9-1.9,5.9c-0.6,1.7-1.3,3.5-2,5.2c-0.8,2-1.7,4.1-2.6,6.1
			c-0.8,1.7-1.5,3.4-2.4,5.1c-1,2-2,4-3.1,6.1c-1.2,2.1-2.3,4.3-3.6,6.4c-0.3,0.5-0.6,1-0.9,1.5c-1.9,3.1-3.9,6.1-6,9.2
			c-0.4,0.6-0.8,1.1-1.2,1.7c-2.1,3-4.4,6-6.8,9c-0.4,0.6-0.9,1.1-1.4,1.7c-2.1,2.6-4.3,5.2-6.6,7.7c-0.6,0.7-1.2,1.4-1.9,2.1
			c-2.7,3-5.5,5.9-8.4,8.8c-0.5,0.5-1.1,1-1.6,1.6c-2.2,2.2-4.6,4.3-6.9,6.4c-1.9,1.7-3.8,3.4-5.8,5.1c-1.8,1.6-3.7,3.1-5.6,4.6
			c-2.1,1.7-4.2,3.3-6.3,5c-2,1.5-4,3-6,4.5c-2.2,1.6-4.5,3.2-6.8,4.8c-2.1,1.5-4.3,2.9-6.4,4.4c-2.4,1.6-4.9,3.1-7.3,4.6
			c-3.1,1.9-6.1,3.8-9.3,5.7c-6,3.5-12.3,6.8-18.6,10.1c-1.8,0.9-3.7,1.8-5.5,2.7c-4.9,2.4-9.9,4.8-15,7.1c-1.7,0.8-3.4,1.6-5.1,2.3
			c-6.6,2.9-13.3,5.6-20.1,8.2c-1.2,0.5-2.4,0.9-3.7,1.3c-5.8,2.1-11.6,4.2-17.5,6.1c-2.4,0.8-4.9,1.6-7.3,2.4c-3.3,1-6.5,2-9.8,3
			c-2.8,0.8-5.6,1.6-8.4,2.4c-3.3,0.9-6.7,1.8-10.1,2.7c-2.8,0.7-5.6,1.4-8.5,2.1c-3.4,0.8-6.9,1.6-10.3,2.4
			c-2.8,0.6-5.7,1.3-8.5,1.9c-3.5,0.7-7,1.4-10.6,2.1c-2.7,0.5-5.4,1-8.1,1.5c-7.6,1.3-15.2,2.6-22.9,3.6c-1.1,0.2-2.2,0.3-3.2,0.4
			c-6.7,0.9-13.4,1.7-20.1,2.4c-2.6,0.3-5.1,0.5-7.7,0.8c-4.3,0.4-8.7,0.8-13,1.1c-2.7,0.2-5.5,0.4-8.2,0.6c-4.5,0.3-9,0.5-13.6,0.7
			c-2.6,0.1-5.1,0.2-7.7,0.3c-3.9,0.1-7.9,0.2-11.8,0.2c-2.7,0-5.5,0.1-8.2,0.1c-4.2,0-8.4-0.1-12.6-0.1c-2.5,0-5,0-7.5-0.1
			c-3.8-0.1-7.6-0.3-11.5-0.4c-2.7-0.1-5.5-0.2-8.2-0.3c-4.1-0.2-8.2-0.5-12.4-0.8c-2.4-0.2-4.8-0.3-7.2-0.5
			c-5-0.4-9.9-0.9-14.9-1.4c-1.5-0.2-3-0.3-4.5-0.4c-6.5-0.7-12.9-1.5-19.3-2.4c-1-0.1-2.1-0.3-3.1-0.5c-5.5-0.8-11-1.6-16.4-2.6
			c-2.3-0.4-4.5-0.9-6.8-1.3c-4.2-0.8-8.4-1.5-12.5-2.4c-2.2-0.4-4.3-0.9-6.5-1.4c-4.6-1-9.1-2-13.6-3.1c-2.5-0.6-5-1.2-7.5-1.9
			c-4.1-1-8.2-2.1-12.3-3.3c-2.3-0.6-4.6-1.3-6.9-2c-6.4-1.9-12.8-3.8-19.1-5.9c-1.1-0.4-2.3-0.7-3.4-1.1
			c-7.2-2.5-14.3-5.1-21.3-7.8c-2.9-1.1-5.7-2.3-8.5-3.4c-2.2-0.9-4.5-1.8-6.7-2.8c-3.2-1.4-6.3-2.8-9.4-4.2c-2-0.9-4.1-1.8-6.1-2.8
			c-3.4-1.6-6.7-3.3-10.1-5c-1.7-0.8-3.3-1.6-5-2.5c-4.9-2.6-9.8-5.2-14.6-8c-79.6-46-119.4-106.3-119.2-166.6l-0.3,109.9
			c-0.2,60.3,39.6,120.6,119.2,166.6c4.8,2.7,9.6,5.4,14.6,8c1.6,0.9,3.3,1.7,5,2.5c3.3,1.7,6.7,3.4,10.1,5c2,1,4.1,1.9,6.1,2.8
			c3.1,1.4,6.2,2.8,9.4,4.2c2.2,1,4.5,1.9,6.7,2.8c2.2,0.9,4.3,1.8,6.4,2.7c0.7,0.3,1.4,0.5,2.1,0.8c7,2.7,14.1,5.4,21.3,7.8
			c1.1,0.4,2.3,0.7,3.4,1.1c6.3,2.1,12.6,4.1,19.1,5.9c1.1,0.3,2.1,0.7,3.2,1c1.2,0.3,2.5,0.6,3.7,1c4.1,1.1,8.1,2.2,12.2,3.2
			c2.5,0.6,5,1.3,7.5,1.9c4.5,1.1,9,2.1,13.6,3.1c1.7,0.4,3.4,0.8,5.1,1.1c0.5,0.1,0.9,0.2,1.4,0.3c4.1,0.8,8.3,1.6,12.5,2.4
			c2.3,0.4,4.5,0.9,6.8,1.3c5.5,0.9,11,1.8,16.6,2.6c0.9,0.1,1.9,0.3,2.8,0.4c0,0,0.1,0,0.1,0c6.4,0.9,12.8,1.7,19.3,2.4
			c1.5,0.2,3,0.3,4.5,0.4c5,0.5,10,1,15,1.5c0.1,0,0.2,0,0.4,0c2.2,0.2,4.4,0.3,6.6,0.5c4.2,0.3,8.4,0.6,12.6,0.9
			c2.7,0.1,5.4,0.2,8,0.3c3.9,0.2,7.7,0.4,11.6,0.5c0.3,0,0.6,0,0.9,0c2.2,0.1,4.3,0,6.5,0.1c4.2,0.1,8.4,0.1,12.6,0.1
			c2.8,0,5.5-0.1,8.3-0.1c3.9-0.1,7.9-0.1,11.8-0.2c0.7,0,1.5,0,2.2,0c1.8-0.1,3.7-0.2,5.5-0.3c4.5-0.2,9.1-0.4,13.6-0.7
			c2.7-0.2,5.5-0.4,8.2-0.6c4.3-0.3,8.7-0.7,13-1.1c1.5-0.1,3-0.2,4.6-0.4c1.1-0.1,2.1-0.3,3.2-0.4c6.7-0.7,13.4-1.5,20.1-2.4
			c1.1-0.1,2.2-0.3,3.3-0.4c7.7-1.1,15.3-2.3,22.8-3.6c0.7-0.1,1.4-0.2,2.1-0.3c2-0.4,4-0.8,6-1.2c3.5-0.7,7.1-1.4,10.6-2.1
			c2.9-0.6,5.7-1.2,8.6-1.9c3.4-0.8,6.9-1.6,10.3-2.4c2.8-0.7,5.7-1.4,8.5-2.1c3.4-0.9,6.7-1.8,10.1-2.7c2.8-0.8,5.6-1.6,8.4-2.4
			c3.3-1,6.6-2,9.8-3c1.4-0.4,2.9-0.8,4.3-1.3c1-0.3,2-0.7,3-1.1c5.9-2,11.8-4,17.5-6.1c1.2-0.4,2.4-0.9,3.7-1.3
			c6.8-2.6,13.5-5.3,20.1-8.2c1.7-0.7,3.4-1.5,5.1-2.3c5.1-2.3,10.1-4.6,15-7.1c1.8-0.9,3.7-1.8,5.5-2.7c6.3-3.2,12.6-6.6,18.6-10.1
			c1.7-1,3.3-1.9,4.9-2.9c1.5-0.9,2.9-1.9,4.4-2.8c2.5-1.5,5-3.1,7.4-4.7c2.2-1.4,4.3-2.9,6.4-4.3c2.3-1.6,4.6-3.2,6.8-4.8
			c2-1.5,4-3,6-4.5c2.1-1.6,4.3-3.3,6.3-5c1.9-1.5,3.7-3.1,5.6-4.6c2-1.7,3.9-3.4,5.8-5.1c0.8-0.7,1.6-1.4,2.4-2.1
			c1.6-1.4,3-2.9,4.5-4.3c0.5-0.5,1.1-1,1.6-1.6c2.9-2.9,5.7-5.8,8.4-8.8c0.6-0.7,1.3-1.4,1.9-2.1c2.3-2.5,4.5-5.1,6.6-7.7
			c0.5-0.6,0.9-1.1,1.4-1.7c0.2-0.3,0.4-0.5,0.6-0.8c2.1-2.7,4.2-5.5,6.1-8.2c0.4-0.6,0.8-1.1,1.2-1.7c2.1-3,4.1-6.1,6-9.2
			c0.3-0.5,0.6-1,0.9-1.5c0.7-1.2,1.4-2.3,2.1-3.5c0.6-1,1-2,1.5-2.9c1.1-2,2.1-4,3.1-6.1c0.8-1.7,1.6-3.4,2.4-5.1
			c0.9-2,1.8-4.1,2.6-6.1c0.4-0.9,0.8-1.8,1.2-2.7c0.3-0.8,0.5-1.7,0.8-2.5c0.7-1.9,1.3-3.9,1.9-5.8c0.6-1.8,1.1-3.6,1.6-5.3
			c0.5-2,1-3.9,1.4-5.9c0.2-1.1,0.6-2.1,0.8-3.2c0.1-0.7,0.2-1.4,0.3-2.2c0.4-2,0.7-4,1-6.1c0.2-1.8,0.5-3.5,0.7-5.3
			c0.2-2,0.3-4.1,0.4-6.1c0.1-1.2,0.2-2.4,0.3-3.6c0-1.2,0.1-2.4,0.1-3.5l0.3-109.9C905.3,656.9,905.2,659.3,905,661.7z"/>
		<g>
			<linearGradient id="SVGID_3_" gradientUnits="userSpaceOnUse" x1="97.6225" y1="653.3743" x2="905.3542" y2="653.3743">
				<stop  offset="0" style="stop-color:#D7D8D5"/>
				<stop  offset="1" style="stop-color:#F6F6F9"/>
			</linearGradient>
			<path class="st7" d="M786.1,488c158.2,91.4,159.1,239.5,1.9,330.8c-157.2,91.4-412.9,91.4-571.2,0
				C58.6,727.4,57.8,579.3,215,487.9C372.2,396.6,627.9,396.6,786.1,488z"/>
		</g>
	</g>
</g>
<g>
	<g class="st5">
		<linearGradient id="SVGID_4_" gradientUnits="userSpaceOnUse" x1="243.0361" y1="410.3242" x2="787.3782" y2="410.3242">
			<stop  offset="0" style="stop-color:#00C692"/>
			<stop  offset="1" style="stop-color:#00AB7E"/>
		</linearGradient>
		<path class="st8" d="M764.9,130.9c2.6-1.2,5.1-2.5,7.6-3.8c1.3-0.7,2.6-1.2,3.8-1.6c0.2-0.1,0.4-0.1,0.6-0.2
			c1.3-0.4,2.5-0.6,3.7-0.7c0,0,0.1,0,0.1,0c1.2-0.1,2.3,0,3.4,0.3c0.1,0,0.2,0,0.2,0.1c1.1,0.3,2.1,0.6,3,1.2L671.9,59
			c0,0-0.1,0-0.1-0.1c-0.4-0.2-0.8-0.4-1.2-0.6c-0.4-0.2-0.8-0.3-1.2-0.4c-0.2-0.1-0.4-0.1-0.6-0.1c-0.1,0-0.2,0-0.2-0.1
			c-0.2,0-0.3-0.1-0.5-0.1c-0.4-0.1-0.9-0.1-1.4-0.2c-0.5,0-1,0-1.5,0c0,0-0.1,0-0.1,0c0,0-0.1,0-0.1,0c-0.5,0-0.9,0.1-1.4,0.1
			c-0.6,0.1-1.3,0.2-1.9,0.4c-0.1,0-0.2,0.1-0.3,0.1c-0.2,0.1-0.4,0.1-0.6,0.2c-0.5,0.2-1.1,0.3-1.6,0.6c-0.7,0.3-1.5,0.7-2.2,1.1
			c-2.5,1.3-5,2.6-7.6,3.8c-0.7,0.3-1.4,0.6-2,1c-2.3,1-4.5,2.1-6.9,3c-0.3,0.1-0.6,0.3-1,0.4c-4.7,2-9.6,3.7-14.5,5.4
			c-0.4,0.1-0.8,0.3-1.2,0.4c-4.7,1.6-9.5,3-14.3,4.3c-0.4,0.1-0.9,0.2-1.3,0.4c-2.9,0.8-5.7,1.5-8.6,2.2c-0.6,0.1-1.2,0.3-1.8,0.4
			c-2.5,0.6-4.9,1.1-7.4,1.6c-0.6,0.1-1.3,0.3-1.9,0.4c-2.9,0.6-5.8,1.1-8.7,1.7c-0.6,0.1-1.2,0.2-1.8,0.3c-2.5,0.4-4.9,0.8-7.4,1.2
			c-0.6,0.1-1.2,0.2-1.8,0.3c-4.4,0.7-8.7,1.2-13,1.8c-0.2,0-0.5,0.1-0.7,0.1c-4.5,0.5-9,1-13.3,1.4c-0.1,0-0.1,0-0.2,0
			c-4.3,0.4-8.5,0.7-12.7,1c-0.3,0-0.6,0-1,0.1c-3.9,0.3-7.6,0.5-11.3,0.6c-0.6,0-1.3,0.1-1.9,0.1c-1.3,0.1-2.7,0.1-4,0.2
			c-0.7,0-1.5,0.1-2.2,0.1c-1.3,0-2.6,0.1-3.9,0.1c-0.6,0-1.3,0-1.9,0c-1.7,0-3.3,0.1-4.9,0.1c-0.2,0-0.4,0-0.6,0
			c-1.8,0-3.5,0-5.2,0c-0.5,0-1,0-1.6,0c-1.1,0-2.3,0-3.4,0c-0.6,0-1.2,0-1.8,0c-1,0-1.9,0-2.9,0c-0.5,0-1.1,0-1.6,0
			c-1,0-1.9,0-2.8-0.1c-0.4,0-0.8,0-1.2,0c-1.3,0-2.5-0.1-3.6-0.1c-0.5,0-0.9,0-1.4,0c-0.4,0-0.8,0.1-1.3,0.1c-0.2,0-0.3,0-0.5,0
			c-0.1,0-0.2,0-0.2,0c-0.8,0.1-1.6,0.3-2.4,0.5c-0.1,0-0.1,0.1-0.2,0.1c-0.5,0.1-0.9,0.3-1.4,0.5c-0.5,0.2-1,0.3-1.5,0.5
			c-0.1,0-0.2,0.1-0.2,0.1c-1.2,0.5-2.3,1.1-3.5,1.7c-1.3,0.8-2.7,1.7-4,2.7c-0.4,0.3-0.7,0.6-1.1,0.9c-1.1,0.8-2.1,1.8-3.1,2.7
			c-0.2,0.2-0.4,0.4-0.7,0.6c-0.1,0.1-0.2,0.2-0.3,0.4c-0.5,0.5-0.9,0.9-1.3,1.4c-0.4,0.4-0.8,0.9-1.2,1.3c-0.3,0.3-0.5,0.6-0.8,0.9
			c-1.2,1.4-2.5,3-3.9,4.6c-0.4,0.5-0.9,1-1.3,1.6c-1,1.2-2.1,2.5-3.2,3.8c-0.5,0.6-1,1.2-1.5,1.8c-1.6,1.8-3.2,3.7-4.9,5.7
			c-0.2,0.2-0.4,0.4-0.6,0.7c-1.5,1.8-3.1,3.6-4.7,5.5c-0.5,0.6-1,1.2-1.5,1.7c-2.4,2.7-4.9,5.6-7.4,8.5c-0.2,0.3-0.5,0.5-0.7,0.8
			c-2.5,2.9-5.1,5.8-7.8,8.8c-0.4,0.4-0.7,0.8-1.1,1.2c-2.7,3-5.5,6.2-8.4,9.3c-0.6,0.6-1.1,1.2-1.7,1.9c-2.9,3.2-5.8,6.4-8.8,9.6
			c-0.5,0.5-1,1.1-1.5,1.6c-3.2,3.4-6.3,6.8-9.6,10.3c0,0-0.1,0.1-0.1,0.1c-3.2,3.4-6.5,6.8-9.7,10.3c-0.5,0.6-1.1,1.1-1.6,1.7
			c-3.2,3.3-6.4,6.6-9.6,9.9c-0.6,0.6-1.3,1.3-1.9,1.9c-3.3,3.3-6.6,6.7-9.9,9.9c-0.5,0.5-1,0.9-1.4,1.4c-2.8,2.8-5.6,5.5-8.5,8.2
			c-0.5,0.5-1.1,1-1.6,1.5c-3.1,2.9-6.1,5.8-9.2,8.7c-0.7,0.6-1.3,1.2-2,1.8c-6.3,5.8-12.6,11.4-18.7,16.7c-0.7,0.6-1.3,1.1-2,1.7
			c-3,2.5-6,5-8.9,7.4c-0.5,0.4-1,0.8-1.4,1.1c-2.7,2.2-5.4,4.2-8,6.2c-0.5,0.4-1,0.8-1.5,1.1c-2.9,2.1-5.7,4.2-8.5,6.1
			c-0.6,0.4-1.2,0.8-1.8,1.2c-2.8,1.9-5.6,3.8-8.4,5.5c-1.3,0.8-2.6,1.8-3.9,2.9c-0.4,0.3-0.7,0.7-1.1,1c-0.5,0.4-1,0.8-1.4,1.3
			c-0.5,0.5-1,1.1-1.5,1.6c-0.2,0.2-0.4,0.4-0.6,0.6c-0.1,0.1-0.2,0.2-0.3,0.3c-0.6,0.7-1.2,1.4-1.8,2.2c-0.4,0.6-0.9,1.1-1.3,1.7
			c0,0.1-0.1,0.1-0.1,0.2c0,0.1-0.1,0.1-0.1,0.2c-0.5,0.6-0.9,1.3-1.3,2c-0.4,0.6-0.8,1.3-1.2,2c-0.1,0.2-0.3,0.5-0.4,0.7
			c-0.1,0.1-0.1,0.2-0.2,0.4c-0.2,0.3-0.3,0.6-0.5,0.9c-0.3,0.7-0.7,1.3-1,2c-0.3,0.7-0.6,1.3-0.9,2c0,0.1-0.1,0.2-0.1,0.2
			c0,0.1-0.1,0.1-0.1,0.2c-0.2,0.5-0.5,1.1-0.7,1.6c-0.3,0.7-0.5,1.4-0.8,2.2c-0.1,0.4-0.3,0.9-0.4,1.3c0,0.1-0.1,0.3-0.1,0.4
			c-0.1,0.2-0.1,0.4-0.2,0.6c-0.2,0.9-0.5,1.7-0.6,2.6c-0.1,0.5-0.2,1.1-0.3,1.6c0,0.3-0.1,0.5-0.1,0.8c0,0.2-0.1,0.5-0.1,0.7
			c-0.2,1.5-0.3,2.9-0.3,4.3l0.8,278.7c0,3.7,0.7,62.9,51.5,92.4l115.5,67.1c-50.8-29.5-51.5-88.8-51.5-92.4L358.6,392
			c0-1.6,0.1-3.3,0.4-5c0-0.3,0.1-0.5,0.1-0.8c0.3-1.6,0.6-3.2,1.1-4.8c0-0.1,0.1-0.3,0.1-0.4c0.5-1.7,1.1-3.4,1.8-5.1
			c0-0.1,0.1-0.1,0.1-0.2c0.7-1.7,1.6-3.4,2.5-5.1c0.1-0.1,0.1-0.2,0.2-0.4c0.9-1.7,1.9-3.3,3-4.8c0-0.1,0.1-0.1,0.1-0.2
			c1.1-1.5,2.2-2.9,3.4-4.3c0.2-0.2,0.4-0.4,0.6-0.6c1-1,1.9-2,3-2.9c0.4-0.3,0.7-0.7,1.1-1c1.3-1.1,2.6-2.1,3.9-2.9
			c2.7-1.7,5.5-3.6,8.4-5.5c0.6-0.4,1.2-0.8,1.8-1.2c2.8-1.9,5.6-4,8.5-6.1c0.5-0.4,1-0.8,1.5-1.1c2.6-2,5.3-4.1,8-6.2
			c0.5-0.4,1-0.8,1.4-1.1c3-2.4,5.9-4.9,9-7.4c0.7-0.6,1.3-1.1,2-1.7c6.2-5.3,12.4-10.9,18.7-16.7c0.7-0.6,1.3-1.2,2-1.8
			c3.1-2.9,6.2-5.8,9.2-8.7c0.5-0.5,1-1,1.5-1.5c2.8-2.7,5.7-5.5,8.5-8.3c0.3-0.3,0.7-0.6,1-1c0.2-0.1,0.3-0.3,0.4-0.4
			c3.3-3.3,6.6-6.6,9.9-10c0.6-0.6,1.2-1.3,1.9-1.9c3.3-3.3,6.5-6.6,9.7-10c0.5-0.5,1-1.1,1.5-1.6c3.3-3.5,6.6-6.9,9.8-10.4
			c0,0,0,0,0,0c3.3-3.5,6.5-6.9,9.7-10.4c0.5-0.5,1-1,1.4-1.5c3-3.2,5.9-6.5,8.8-9.6c0.6-0.6,1.1-1.2,1.7-1.9
			c2.9-3.2,5.7-6.3,8.4-9.3c0.4-0.4,0.7-0.8,1.1-1.2c2.7-3,5.3-5.9,7.8-8.8c0.2-0.3,0.5-0.5,0.7-0.8c2.6-2.9,5.1-5.8,7.5-8.5
			c0.2-0.3,0.5-0.6,0.7-0.8c0.2-0.3,0.5-0.5,0.7-0.8c1.7-2,3.4-3.9,5-5.8c0.1-0.1,0.2-0.2,0.3-0.3c1.8-2,3.4-4,5-5.9
			c0.4-0.5,0.8-1,1.2-1.4c1.2-1.4,2.3-2.7,3.4-4c0.4-0.5,0.9-1,1.3-1.5c1.4-1.6,2.7-3.2,3.9-4.6c0.7-0.8,1.3-1.5,2-2.2
			c0.4-0.5,0.9-1,1.3-1.4c0.3-0.3,0.7-0.6,1-0.9c1-1,2.1-1.9,3.1-2.7c0.4-0.3,0.7-0.6,1.1-0.9c1.3-1,2.7-1.9,4-2.7
			c1.2-0.7,2.3-1.2,3.5-1.7c0.6-0.2,1.1-0.4,1.7-0.6c0.5-0.2,0.9-0.4,1.4-0.5c0.9-0.3,1.9-0.5,2.8-0.6c0.2,0,0.3,0,0.5,0
			c0.9-0.1,1.8-0.2,2.7-0.1c1.1,0,2.4,0.1,3.6,0.1c0.4,0,0.8,0,1.2,0c0.9,0,1.8,0,2.8,0.1c0.5,0,1.1,0,1.6,0c0.9,0,1.9,0,2.9,0
			c0.6,0,1.2,0,1.8,0c1.1,0,2.2,0,3.4,0c0.5,0,1,0,1.6,0c1.7,0,3.4,0,5.2,0c0.2,0,0.4,0,0.6,0c1.6,0,3.2,0,4.9-0.1
			c0.6,0,1.3,0,1.9,0c1.3,0,2.6-0.1,3.9-0.1c0.7,0,1.5,0,2.2-0.1c1.3,0,2.6-0.1,4-0.2c0.5,0,1,0,1.4-0.1c0.2,0,0.3,0,0.5,0
			c3.7-0.2,7.4-0.4,11.3-0.6c0.3,0,0.6,0,1-0.1c4.1-0.3,8.3-0.6,12.7-1c0.1,0,0.1,0,0.2,0c4.4-0.4,8.8-0.9,13.3-1.4
			c0.2,0,0.5-0.1,0.7-0.1c4.3-0.5,8.6-1.1,13-1.8c0.2,0,0.4,0,0.5-0.1c0.4-0.1,0.8-0.1,1.2-0.2c2.5-0.4,4.9-0.8,7.4-1.2
			c0.6-0.1,1.2-0.2,1.8-0.3c2.9-0.5,5.8-1.1,8.7-1.7c0.6-0.1,1.3-0.3,1.9-0.4c2.5-0.5,4.9-1.1,7.4-1.6c0.6-0.1,1.2-0.3,1.8-0.4
			c2.9-0.7,5.8-1.4,8.6-2.2c0.2-0.1,0.5-0.1,0.7-0.2c0.2-0.1,0.4-0.1,0.6-0.2c4.8-1.3,9.6-2.7,14.3-4.3c0.4-0.1,0.8-0.3,1.2-0.4
			c4.9-1.7,9.8-3.4,14.5-5.4c0.1,0,0.1,0,0.2-0.1c0.3-0.1,0.5-0.2,0.8-0.4c2.3-1,4.6-2,6.9-3C763.5,131.6,764.2,131.2,764.9,130.9z"
			/>
		<g>
			<linearGradient id="SVGID_5_" gradientUnits="userSpaceOnUse" x1="358.561" y1="451.8891" x2="794.8491" y2="451.8891">
				<stop  offset="0" style="stop-color:#00AB7E"/>
				<stop  offset="1" style="stop-color:#00C692"/>
			</linearGradient>
			<path class="st9" d="M446.4,776.4c-86-17.7-87-101.2-87-105.6L358.6,392c0-13.7,9.6-31,21.5-38.4c60.9-37.7,150.5-141,183.3-180
				c3.9-4.7,8.3-8.4,12.6-10.9c4.3-2.5,8.7-3.8,12.6-3.6c32.9,1.1,122.9,0.7,183.8-32c11.9-6.4,21.6-0.2,21.6,13.5l0.8,278.7
				c0,4.4-0.5,88.8-86.1,205.6c-1.5,2.2-29.8,43.8-112.3,124c-6.1,5.9-12.4,10.8-18.7,14.4c-6.3,3.7-12.6,6.1-18.7,7.2
				C476.4,785.7,446.4,776.3,446.4,776.4z"/>
		</g>
	</g>
</g>
<g>
	<linearGradient id="SVGID_6_" gradientUnits="userSpaceOnUse" x1="443.9854" y1="474.8183" x2="698.3761" y2="474.8183">
		<stop  offset="0" style="stop-color:#D7D8D5"/>
		<stop  offset="1" style="stop-color:#EDEDEE"/>
	</linearGradient>
	<path class="st10" d="M478.3,556.8c0.1-1.8,0.2-3.6,0.3-5.5c0-0.3,0-0.6,0.1-1c0.1-1.7,0.3-3.4,0.4-5.1c0-0.3,0-0.5,0.1-0.8
		c0.2-1.9,0.4-3.7,0.6-5.6c0.1-0.5,0.1-1,0.2-1.5c0.1-0.8,0.2-1.7,0.3-2.5c0.1-0.6,0.2-1.2,0.3-1.8c0.1-0.8,0.3-1.7,0.4-2.5
		c0.1-0.6,0.2-1.1,0.3-1.7c0.2-0.9,0.3-1.8,0.5-2.7c0.1-0.5,0.2-1.1,0.3-1.6c0.2-1,0.4-2.1,0.6-3.1c0.1-0.4,0.2-0.8,0.2-1.2
		c0.1-0.4,0.2-0.8,0.3-1.2c0.2-0.9,0.4-1.8,0.6-2.7c0.1-0.5,0.2-1,0.4-1.5c0.2-0.8,0.4-1.6,0.6-2.4c0.1-0.5,0.3-1.1,0.4-1.6
		c0.2-0.7,0.4-1.5,0.6-2.2c0.1-0.6,0.3-1.1,0.5-1.7c0.2-0.6,0.3-1.3,0.5-1.9c0.5-1.9,1.1-3.8,1.7-5.7c0.1-0.3,0.2-0.7,0.3-1
		c0.6-1.8,1.1-3.6,1.7-5.4c0.1-0.2,0.2-0.5,0.2-0.7c0.6-1.8,1.2-3.6,1.8-5.3c0.2-0.4,0.3-0.9,0.5-1.3c0.6-1.6,1.2-3.2,1.8-4.8
		c0.1-0.2,0.2-0.4,0.2-0.7c0.7-1.7,1.3-3.4,2-5.1c0.2-0.4,0.4-0.9,0.5-1.3c0.6-1.4,1.2-2.8,1.8-4.3c0.1-0.3,0.3-0.7,0.4-1
		c0.7-1.7,1.5-3.3,2.2-5c0.2-0.4,0.4-0.8,0.5-1.1c0.6-1.3,1.2-2.7,1.9-4c0.2-0.4,0.4-0.9,0.6-1.3c0.8-1.6,1.6-3.3,2.4-4.9
		c0.1-0.2,0.2-0.3,0.3-0.5c0.7-1.5,1.5-2.9,2.3-4.4c0.2-0.4,0.5-0.9,0.7-1.3c0.8-1.4,1.5-2.8,2.3-4.2c0.1-0.2,0.3-0.5,0.4-0.7
		c0.9-1.6,1.8-3.2,2.7-4.8c0.2-0.4,0.5-0.8,0.7-1.2c0.8-1.4,1.6-2.7,2.4-4.1c0.2-0.3,0.4-0.7,0.6-1c1-1.6,2-3.2,3-4.8
		c0.2-0.3,0.4-0.7,0.7-1c0.9-1.5,1.9-2.9,2.8-4.3c0.2-0.3,0.4-0.6,0.6-0.9c1.1-1.6,2.2-3.2,3.3-4.8c0.2-0.3,0.5-0.7,0.7-1
		c1.2-1.8,2.5-3.5,3.8-5.3c0,0,0-0.1,0.1-0.1c1.3-1.7,2.6-3.4,3.9-5.1c0.2-0.3,0.5-0.6,0.7-0.9c1.5-1.9,3-3.8,4.5-5.7
		c0.2-0.3,0.4-0.6,0.7-0.8c1.5-1.9,3.1-3.7,4.6-5.5c0.3-0.3,0.6-0.7,0.9-1c0.7-0.8,1.4-1.6,2.2-2.4c0.3-0.4,0.7-0.8,1-1.2
		c1-1.1,1.9-2.1,2.9-3.2c0.1-0.1,0.2-0.2,0.3-0.3c1.1-1.2,2.2-2.3,3.3-3.4c0.3-0.3,0.7-0.7,1-1c0.8-0.8,1.5-1.6,2.3-2.3
		c0.5-0.5,1.1-1,1.6-1.6c0.3-0.3,0.7-0.7,1-1c0.7-0.6,1.3-1.3,2-1.9c0.3-0.3,0.5-0.5,0.8-0.8c0.9-0.9,1.9-1.7,2.8-2.6
		c0.2-0.1,0.3-0.3,0.5-0.4c0.8-0.7,1.6-1.4,2.4-2.1c0.3-0.3,0.7-0.6,1-0.9c0.6-0.5,1.3-1.1,1.9-1.6c0.4-0.3,0.7-0.6,1.1-0.9
		c0.6-0.5,1.2-1,1.8-1.5c0.4-0.3,0.8-0.6,1.1-0.9c0.6-0.5,1.3-1,1.9-1.5c0.3-0.3,0.7-0.5,1-0.8c0.8-0.6,1.6-1.2,2.4-1.8
		c0.2-0.2,0.4-0.3,0.6-0.5c1-0.7,2-1.5,3-2.2c0.3-0.2,0.6-0.4,0.8-0.6c0.7-0.5,1.5-1,2.2-1.6c0.4-0.3,0.7-0.5,1.1-0.8
		c0.6-0.4,1.3-0.9,2-1.3c0.4-0.3,0.8-0.5,1.2-0.8c0.6-0.4,1.3-0.8,1.9-1.3c0.4-0.2,0.8-0.5,1.2-0.7c0.7-0.4,1.4-0.9,2.1-1.3
		c0.3-0.2,0.7-0.4,1-0.6c1-0.6,2.1-1.2,3.1-1.8c1.4-0.8,2.7-1.5,4.1-2.3c0.4-0.2,0.8-0.4,1.2-0.6c1-0.6,2.1-1.1,3.1-1.6
		c0.4-0.2,0.7-0.4,1.1-0.5c1.3-0.7,2.7-1.3,4-1.9c0.2-0.1,0.4-0.2,0.7-0.3c1.1-0.5,2.2-1,3.4-1.5c0.4-0.2,0.9-0.4,1.3-0.5
		c0.8-0.3,1.5-0.6,2.3-0.9c0.4-0.2,0.9-0.3,1.3-0.5c0.9-0.3,1.7-0.6,2.6-0.9c0.3-0.1,0.7-0.2,1-0.4c1.2-0.4,2.3-0.8,3.5-1.1
		c0.2-0.1,0.4-0.1,0.7-0.2c0.9-0.3,1.9-0.6,2.8-0.8c0.6-0.2,1.1-0.3,1.7-0.4c0.4-0.1,0.8-0.2,1.2-0.3c0.6-0.1,1.2-0.3,1.8-0.4
		c0.4-0.1,0.8-0.2,1.1-0.3c0.7-0.1,1.4-0.3,2-0.4c0.3-0.1,0.6-0.1,0.9-0.2c1-0.2,1.9-0.3,2.9-0.5c0.1,0,0.1,0,0.2,0
		c0.9-0.1,1.7-0.2,2.5-0.3c0.3,0,0.6-0.1,0.9-0.1c0.6-0.1,1.2-0.1,1.8-0.2c0.3,0,0.7-0.1,1-0.1c0.6,0,1.2-0.1,1.8-0.1
		c0.3,0,0.6,0,0.9-0.1c0.8,0,1.5-0.1,2.3-0.1c0.1,0,0.2,0,0.3,0c0.9,0,1.7,0,2.5,0c0.2,0,0.5,0,0.7,0c0.6,0,1.2,0,1.8,0.1
		c0.3,0,0.5,0,0.8,0c0.4,0,0.7,0,1.1,0.1c1,0.1,1.9,0.2,2.9,0.3c0.3,0,0.5,0.1,0.8,0.1c1.1,0.1,2.3,0.3,3.4,0.5
		c0.2,0,0.5,0.1,0.7,0.1c0.9,0.2,1.8,0.3,2.6,0.5c0.3,0.1,0.6,0.1,0.9,0.2c1.1,0.3,2.1,0.5,3.2,0.8c0.1,0,0.2,0.1,0.3,0.1
		c1,0.3,1.9,0.6,2.8,0.9c0.3,0.1,0.6,0.2,0.9,0.3c0.8,0.3,1.6,0.6,2.5,0.9c0.2,0.1,0.4,0.2,0.6,0.2c1,0.4,1.9,0.9,2.9,1.3
		c0.2,0.1,0.5,0.2,0.7,0.4c0.8,0.4,1.5,0.8,2.3,1.2c0.4,0.2,0.8,0.4,1.2,0.6l-34.2-19.9c-0.2-0.1-0.5-0.3-0.7-0.4
		c-0.2-0.1-0.3-0.2-0.5-0.2c-0.7-0.4-1.5-0.8-2.3-1.2c-0.2-0.1-0.5-0.2-0.7-0.4c-1-0.5-1.9-0.9-2.9-1.3c0,0-0.1,0-0.1-0.1
		c-0.1-0.1-0.3-0.1-0.4-0.2c-0.8-0.3-1.6-0.6-2.5-0.9c-0.3-0.1-0.6-0.2-0.9-0.3c-0.9-0.3-1.9-0.6-2.8-0.9c-0.1,0-0.1,0-0.2-0.1
		c0,0,0,0,0,0c-1-0.3-2.1-0.6-3.2-0.8c-0.3-0.1-0.6-0.1-0.9-0.2c-0.9-0.2-1.7-0.4-2.6-0.5c-0.2,0-0.3-0.1-0.5-0.1
		c-0.1,0-0.1,0-0.2,0c-1.1-0.2-2.2-0.4-3.4-0.5c-0.3,0-0.5-0.1-0.8-0.1c-0.9-0.1-1.9-0.2-2.9-0.3c-0.2,0-0.4,0-0.5,0
		c-0.2,0-0.3,0-0.5,0c-0.3,0-0.5,0-0.8,0c-0.6,0-1.2,0-1.8-0.1c-0.2,0-0.5,0-0.7,0c-0.8,0-1.7,0-2.5,0c-0.1,0-0.2,0-0.3,0
		c-0.6,0-1.2,0-1.9,0.1c-0.1,0-0.3,0-0.4,0c-0.3,0-0.6,0-0.9,0.1c-0.6,0-1.2,0.1-1.8,0.1c-0.3,0-0.7,0.1-1,0.1
		c-0.6,0.1-1.2,0.1-1.8,0.2c-0.3,0-0.6,0.1-0.9,0.1c-0.8,0.1-1.7,0.2-2.5,0.3c-0.1,0-0.1,0-0.2,0c0,0,0,0,0,0
		c-1,0.1-1.9,0.3-2.9,0.5c-0.3,0.1-0.6,0.1-0.9,0.2c-0.7,0.1-1.4,0.3-2,0.4c-0.4,0.1-0.8,0.2-1.1,0.3c-0.6,0.1-1.2,0.3-1.8,0.4
		c-0.4,0.1-0.8,0.2-1.2,0.3c-0.4,0.1-0.9,0.2-1.3,0.3c-0.1,0-0.2,0.1-0.4,0.1c-0.9,0.3-1.9,0.5-2.8,0.8c-0.2,0.1-0.4,0.1-0.7,0.2
		c-1.2,0.4-2.3,0.7-3.5,1.1c-0.3,0.1-0.7,0.2-1,0.4c-0.8,0.3-1.7,0.6-2.6,0.9c-0.4,0.2-0.9,0.3-1.3,0.5c-0.8,0.3-1.5,0.6-2.3,0.9
		c-0.2,0.1-0.5,0.2-0.7,0.3c-0.2,0.1-0.4,0.2-0.6,0.2c-1.1,0.5-2.2,1-3.4,1.5c-0.2,0.1-0.4,0.2-0.7,0.3c-1.3,0.6-2.7,1.2-4,1.9
		c-0.4,0.2-0.7,0.4-1.1,0.5c-1,0.5-2.1,1.1-3.1,1.6c-0.4,0.2-0.8,0.4-1.2,0.6c-1.4,0.7-2.7,1.5-4.1,2.3c-1,0.6-2.1,1.2-3.1,1.8
		c-0.3,0.2-0.7,0.4-1,0.6c-0.7,0.4-1.4,0.9-2.1,1.3c-0.4,0.2-0.8,0.5-1.2,0.7c-0.6,0.4-1.3,0.8-1.9,1.3c-0.4,0.3-0.8,0.5-1.2,0.8
		c-0.7,0.4-1.3,0.9-1.9,1.3c-0.4,0.3-0.7,0.5-1.1,0.8c-0.7,0.5-1.5,1-2.2,1.6c-0.3,0.2-0.6,0.4-0.8,0.6c-1,0.7-2,1.5-3,2.2
		c-0.2,0.2-0.4,0.3-0.6,0.5c-0.8,0.6-1.6,1.2-2.4,1.8c-0.3,0.3-0.7,0.5-1,0.8c-0.6,0.5-1.3,1-1.9,1.5c-0.4,0.3-0.7,0.6-1.1,0.9
		c-0.6,0.5-1.2,1-1.8,1.5c-0.4,0.3-0.7,0.6-1.1,0.9c-0.6,0.5-1.3,1.1-1.9,1.6c-0.3,0.3-0.7,0.6-1,0.9c-0.8,0.7-1.6,1.4-2.4,2.1
		c-0.2,0.1-0.3,0.3-0.5,0.4c-0.9,0.9-1.9,1.7-2.8,2.6c-0.3,0.3-0.5,0.5-0.8,0.8c-0.7,0.6-1.3,1.3-2,1.9c-0.3,0.3-0.7,0.7-1,1
		c-0.4,0.3-0.7,0.7-1.1,1c-0.2,0.2-0.3,0.3-0.5,0.5c-0.8,0.8-1.6,1.6-2.3,2.3c-0.3,0.3-0.7,0.7-1,1c-1.1,1.1-2.2,2.3-3.3,3.4
		c-0.1,0.1-0.2,0.2-0.3,0.3c-1,1-1.9,2.1-2.9,3.2c-0.3,0.4-0.7,0.8-1,1.2c-0.7,0.8-1.4,1.6-2.2,2.4c-0.2,0.2-0.4,0.4-0.5,0.6
		c-0.1,0.1-0.2,0.3-0.4,0.4c-1.6,1.8-3.1,3.6-4.6,5.5c-0.2,0.3-0.5,0.6-0.7,0.8c-1.5,1.9-3,3.8-4.5,5.7c-0.1,0.1-0.2,0.2-0.2,0.3
		c-0.1,0.2-0.3,0.4-0.4,0.6c-1.3,1.7-2.6,3.4-3.9,5.1c0,0,0,0.1-0.1,0.1c-1.3,1.7-2.5,3.5-3.8,5.3c-0.1,0.2-0.3,0.4-0.4,0.6
		c-0.1,0.1-0.2,0.3-0.3,0.4c-1.1,1.6-2.2,3.2-3.3,4.8c-0.2,0.3-0.4,0.6-0.6,0.9c-1,1.4-1.9,2.9-2.8,4.3c-0.1,0.2-0.3,0.4-0.4,0.7
		c-0.1,0.1-0.2,0.2-0.2,0.4c-1,1.6-2,3.2-3,4.7c-0.2,0.3-0.4,0.7-0.6,1c-0.8,1.3-1.6,2.7-2.4,4c-0.1,0.2-0.3,0.5-0.4,0.7
		c-0.1,0.2-0.2,0.3-0.3,0.5c-0.9,1.6-1.8,3.2-2.7,4.8c-0.1,0.2-0.3,0.5-0.4,0.7c-0.8,1.4-1.5,2.8-2.3,4.2c-0.1,0.2-0.3,0.5-0.4,0.7
		c-0.1,0.2-0.2,0.4-0.3,0.7c-0.8,1.5-1.5,2.9-2.3,4.4c-0.1,0.2-0.2,0.3-0.3,0.5c-0.8,1.6-1.6,3.3-2.4,4.9c-0.1,0.2-0.2,0.3-0.3,0.5
		c-0.1,0.3-0.2,0.5-0.4,0.8c-0.6,1.3-1.3,2.7-1.9,4c-0.2,0.4-0.4,0.8-0.5,1.1c-0.8,1.6-1.5,3.3-2.2,5c0,0.1-0.1,0.2-0.1,0.3
		c-0.1,0.2-0.2,0.5-0.3,0.7c-0.6,1.4-1.2,2.8-1.8,4.2c-0.2,0.4-0.4,0.9-0.5,1.3c-0.7,1.7-1.4,3.4-2,5.1c0,0.1,0,0.1-0.1,0.2
		c-0.1,0.2-0.1,0.3-0.2,0.5c-0.6,1.6-1.2,3.2-1.8,4.8c-0.2,0.4-0.3,0.9-0.5,1.3c-0.6,1.8-1.3,3.6-1.8,5.3c0,0.1,0,0.1-0.1,0.2
		c-0.1,0.2-0.1,0.3-0.2,0.5c-0.6,1.8-1.2,3.6-1.7,5.4c-0.1,0.3-0.2,0.7-0.3,1c-0.6,1.9-1.1,3.8-1.7,5.7c0,0.2-0.1,0.3-0.2,0.5
		c-0.1,0.5-0.2,0.9-0.4,1.4c-0.2,0.6-0.3,1.1-0.4,1.7c-0.2,0.8-0.4,1.5-0.6,2.3c-0.1,0.5-0.3,1.1-0.4,1.6c-0.2,0.8-0.4,1.6-0.6,2.4
		c-0.1,0.5-0.2,1-0.4,1.5c-0.2,0.9-0.4,1.8-0.6,2.7c-0.1,0.4-0.2,0.8-0.3,1.2c0,0,0,0.1,0,0.1c-0.1,0.3-0.1,0.7-0.2,1
		c-0.2,1-0.4,2.1-0.6,3.1c-0.1,0.5-0.2,1.1-0.3,1.6c-0.2,0.9-0.3,1.8-0.5,2.7c-0.1,0.6-0.2,1.2-0.3,1.7c-0.1,0.8-0.3,1.7-0.4,2.5
		c-0.1,0.6-0.2,1.2-0.3,1.8c-0.1,0.8-0.2,1.7-0.3,2.5c0,0.3-0.1,0.6-0.1,1c0,0.2,0,0.4-0.1,0.6c-0.2,1.9-0.5,3.7-0.6,5.6
		c0,0.3,0,0.5-0.1,0.8c-0.2,1.7-0.3,3.4-0.4,5.1c0,0.3,0,0.6-0.1,1c-0.1,1.8-0.2,3.6-0.3,5.5c0,0.4,0,0.8,0,1.2
		c-0.1,1.9-0.1,3.7-0.1,5.6c0.1,40.6,14.5,69.2,37.6,82.7l34.2,19.9c-23.1-13.4-37.5-42-37.6-82.7c0-1.8,0-3.7,0.1-5.6
		C478.3,557.6,478.3,557.2,478.3,556.8z"/>
	<g>
		<linearGradient id="SVGID_7_" gradientUnits="userSpaceOnUse" x1="478.2195" y1="489.1133" x2="735.9713" y2="489.1133">
			<stop  offset="0" style="stop-color:#FEFFFF"/>
			<stop  offset="1" style="stop-color:#EBF7F9"/>
		</linearGradient>
		<path class="st11" d="M606.7,341c71.2-41.1,129.1-8.1,129.3,73.7s-57.3,181.4-128.5,222.5c-71.2,41.1-129.1,8.1-129.3-73.7
			C478,481.7,535.5,382.1,606.7,341z"/>
	</g>
</g>
<g>
	<linearGradient id="SVGID_8_" gradientUnits="userSpaceOnUse" x1="589.8206" y1="451.7919" x2="733.4374" y2="451.7919">
		<stop  offset="0" style="stop-color:#00AB7E"/>
		<stop  offset="1" style="stop-color:#00C692"/>
	</linearGradient>
	<path class="st12" d="M704.6,400.4c0.4-0.6,0.7-1.1,1.1-1.6c0,0,0,0,0,0c0.4-0.6,0.8-1.1,1.3-1.7c0.1-0.1,0.2-0.2,0.3-0.3
		c0.5-0.6,1-1.2,1.5-1.8c0.1-0.1,0.2-0.3,0.3-0.4c0.2-0.3,0.5-0.5,0.7-0.8c0.1-0.1,0.3-0.3,0.4-0.4c0.3-0.3,0.5-0.6,0.8-0.8
		c0.1-0.1,0.2-0.2,0.3-0.3c0.5-0.5,1-1,1.6-1.5c0.1-0.1,0.2-0.2,0.3-0.2c0.5-0.4,1-0.9,1.6-1.3c0.1-0.1,0.2-0.1,0.3-0.2
		c0.5-0.4,1.1-0.8,1.6-1.2c0.1,0,0.1-0.1,0.2-0.1c0.6-0.4,1.1-0.7,1.7-1.1c0.4-0.3,0.9-0.5,1.3-0.7c0.1-0.1,0.2-0.1,0.3-0.2
		c0.4-0.2,0.8-0.4,1.2-0.6c0,0,0.1,0,0.1,0c0.4-0.2,0.8-0.3,1.2-0.4c0.1,0,0.2-0.1,0.3-0.1c0.3-0.1,0.5-0.2,0.8-0.3
		c0.2,0,0.3-0.1,0.5-0.1c0.2,0,0.3-0.1,0.5-0.1c0.2,0,0.3-0.1,0.5-0.1c0.1,0,0.3-0.1,0.4-0.1c0.1,0,0.2,0,0.3,0
		c0.5-0.1,1-0.1,1.4-0.1l0,0c0.4,0,0.8,0,1.2,0c0.1,0,0.2,0,0.3,0c0.3,0,0.7,0.1,1,0.1c0.1,0,0.1,0,0.2,0c0.4,0.1,0.7,0.1,1.1,0.2
		c0.1,0,0.2,0.1,0.3,0.1c0.3,0.1,0.5,0.2,0.8,0.3c0.1,0,0.2,0.1,0.3,0.1c0.3,0.1,0.6,0.3,0.9,0.4c0,0,0.1,0,0.1,0.1l-34.2-19.9
		c0,0,0,0,0,0c0,0-0.1,0-0.1,0c-0.3-0.2-0.6-0.3-0.9-0.4c0,0-0.1,0-0.1-0.1c-0.1,0-0.1,0-0.2-0.1c-0.2-0.1-0.5-0.2-0.8-0.3
		c-0.1,0-0.1,0-0.2-0.1c0,0-0.1,0-0.1,0c-0.3-0.1-0.7-0.2-1.1-0.2c0,0,0,0,0,0c0,0-0.1,0-0.1,0c-0.3-0.1-0.7-0.1-1-0.1
		c-0.1,0-0.1,0-0.2,0c-0.1,0-0.1,0-0.2,0c-0.4,0-0.8,0-1.2,0h0l0,0c-0.5,0-0.9,0.1-1.4,0.1c-0.1,0-0.1,0-0.2,0c-0.1,0-0.1,0-0.2,0
		c-0.1,0-0.3,0.1-0.4,0.1c-0.2,0-0.3,0.1-0.5,0.1c-0.1,0-0.3,0.1-0.5,0.1c-0.1,0-0.2,0-0.3,0.1c-0.1,0-0.1,0-0.2,0.1
		c-0.3,0.1-0.5,0.2-0.8,0.3c-0.1,0-0.2,0.1-0.3,0.1c-0.4,0.1-0.8,0.3-1.2,0.4c0,0,0,0,0,0c0,0-0.1,0-0.1,0c-0.4,0.2-0.8,0.4-1.2,0.6
		c-0.1,0.1-0.2,0.1-0.3,0.2c-0.4,0.2-0.9,0.5-1.3,0.7c-0.6,0.3-1.1,0.7-1.7,1.1c-0.1,0-0.1,0.1-0.2,0.1c-0.5,0.4-1.1,0.7-1.6,1.2
		c-0.1,0.1-0.2,0.1-0.3,0.2c-0.5,0.4-1,0.8-1.6,1.3c-0.1,0.1-0.2,0.2-0.3,0.2c-0.5,0.5-1,1-1.6,1.5c0,0,0,0,0,0
		c-0.1,0.1-0.2,0.2-0.2,0.2c-0.3,0.3-0.5,0.5-0.8,0.8c-0.1,0.1-0.3,0.3-0.4,0.4c-0.2,0.3-0.5,0.5-0.7,0.8c-0.1,0.1-0.1,0.2-0.2,0.2
		c0,0-0.1,0.1-0.1,0.1c-0.5,0.6-1,1.2-1.5,1.8c0,0-0.1,0.1-0.1,0.1c-0.1,0.1-0.1,0.1-0.2,0.2c-0.4,0.6-0.8,1.1-1.3,1.7c0,0,0,0,0,0
		l0,0c-0.4,0.5-0.7,1.1-1.1,1.6c0,0.1-0.1,0.1-0.1,0.2c-0.1,0.1-0.1,0.2-0.2,0.3c-0.3,0.4-0.5,0.9-0.8,1.3c-0.1,0.1-0.1,0.2-0.2,0.3
		c0,0.1-0.1,0.1-0.1,0.2l-79.2,137.1l34.2,19.9l79.2-137.1c0.1-0.2,0.2-0.3,0.3-0.5c0.3-0.4,0.5-0.9,0.8-1.3
		C704.4,400.7,704.5,400.5,704.6,400.4z"/>
	<g>
		<linearGradient id="SVGID_9_" gradientUnits="userSpaceOnUse" x1="543.8597" y1="516.6857" x2="624.0548" y2="516.6857">
			<stop  offset="0" style="stop-color:#00AB7E"/>
			<stop  offset="1" style="stop-color:#00C692"/>
		</linearGradient>
		<polygon class="st13" points="578.1,513.5 543.9,493.6 589.8,519.8 624.1,539.7 		"/>
	</g>
	<linearGradient id="SVGID_10_" gradientUnits="userSpaceOnUse" x1="507.6442" y1="528.9966" x2="578.094" y2="528.9966">
		<stop  offset="0" style="stop-color:#00AB7E"/>
		<stop  offset="1" style="stop-color:#00C692"/>
	</linearGradient>
	<path class="st14" d="M543.9,493.6C543.8,493.6,543.8,493.6,543.9,493.6c-0.1,0-0.1-0.1-0.1-0.1c-0.3-0.2-0.6-0.3-0.8-0.4
		c0,0-0.1,0-0.1-0.1c-0.1,0-0.1,0-0.2-0.1c-0.2-0.1-0.5-0.2-0.7-0.3c-0.1,0-0.1,0-0.2-0.1c0,0-0.1,0-0.1,0c-0.3-0.1-0.7-0.2-1-0.2
		c0,0,0,0,0,0c0,0-0.1,0-0.1,0c-0.3-0.1-0.6-0.1-1-0.1c-0.1,0-0.1,0-0.2,0c-0.1,0-0.1,0-0.2,0c-0.4,0-0.8,0-1.2,0h0l0,0
		c-0.5,0-0.9,0.1-1.4,0.1c-0.1,0-0.1,0-0.2,0c-0.1,0-0.1,0-0.2,0c-0.1,0-0.3,0.1-0.4,0.1c-0.2,0-0.3,0.1-0.5,0.1
		c-0.1,0-0.3,0.1-0.4,0.1c-0.1,0-0.2,0-0.3,0.1c-0.1,0-0.1,0-0.2,0.1c-0.3,0.1-0.5,0.2-0.8,0.2c-0.1,0-0.2,0.1-0.3,0.1
		c-0.4,0.1-0.7,0.3-1.1,0.4c0,0,0,0,0,0c0,0-0.1,0-0.1,0c-0.4,0.2-0.8,0.4-1.2,0.6c-0.1,0.1-0.2,0.1-0.3,0.2
		c-0.4,0.2-0.9,0.4-1.3,0.7c-0.6,0.4-1.3,0.8-1.9,1.2c-0.2,0.1-0.4,0.3-0.6,0.4c-0.4,0.3-0.8,0.6-1.3,0.9c-0.2,0.2-0.5,0.4-0.7,0.6
		c-0.4,0.3-0.8,0.6-1.1,1c-0.3,0.2-0.5,0.5-0.7,0.7c-0.2,0.2-0.4,0.4-0.6,0.6c-0.2,0.2-0.4,0.4-0.6,0.6c-0.1,0.1-0.2,0.2-0.3,0.3
		c-0.4,0.5-0.9,0.9-1.3,1.4c-0.1,0.1-0.1,0.2-0.2,0.3c-0.2,0.3-0.5,0.6-0.7,0.9c-0.2,0.3-0.5,0.6-0.7,0.9c-0.1,0.1-0.2,0.3-0.3,0.4
		c-0.2,0.2-0.4,0.5-0.5,0.7c-0.2,0.2-0.4,0.5-0.5,0.7c-0.2,0.3-0.4,0.6-0.6,0.8c-0.1,0.2-0.3,0.4-0.4,0.6c-0.1,0.1-0.2,0.2-0.2,0.3
		c-0.4,0.6-0.7,1.2-1.1,1.8c0,0.1-0.1,0.1-0.1,0.2l-1,1.7c-0.3,0.5-0.5,1-0.8,1.4c0,0,0,0.1-0.1,0.1c0,0.1-0.1,0.2-0.1,0.3
		c-0.2,0.4-0.4,0.8-0.6,1.2c0,0.1-0.1,0.2-0.1,0.3c0,0.1-0.1,0.2-0.1,0.2c-0.2,0.4-0.4,0.9-0.6,1.3c0,0.1-0.1,0.2-0.1,0.2
		c0,0,0,0,0,0.1c-0.2,0.5-0.5,1.1-0.7,1.6c0,0,0,0.1-0.1,0.1c0,0.1-0.1,0.2-0.1,0.3c-0.2,0.5-0.4,1-0.5,1.4c0,0.1-0.1,0.2-0.1,0.2
		c0,0,0,0.1,0,0.1c-0.2,0.6-0.4,1.2-0.6,1.8c0,0.1,0,0.1-0.1,0.2c0,0.1,0,0.1,0,0.2c-0.2,0.7-0.4,1.4-0.5,2.1c0,0,0,0.1,0,0.1
		c0,0.1,0,0.2-0.1,0.4c-0.1,0.3-0.1,0.6-0.2,0.9c0,0.2-0.1,0.4-0.1,0.5c0,0.3-0.1,0.6-0.1,0.8c0,0.1,0,0.2,0,0.3c0,0.1,0,0.1,0,0.2
		c0,0.3-0.1,0.6-0.1,0.9c0,0.1,0,0.3,0,0.4c0,0.4-0.1,0.9-0.1,1.3c0,0,0,0.1,0,0.1c0,0.4,0,0.8,0,1.1c0,0.1,0,0.3,0,0.4
		c0,0.3,0,0.6,0,0.8c0,0.2,0,0.3,0,0.4c0,0.3,0,0.5,0.1,0.8c0,0.1,0,0.3,0,0.4c0,0.3,0.1,0.6,0.1,0.9c0,0.1,0,0.2,0,0.3
		c0.1,0.4,0.2,0.7,0.2,1.1c0,0.1,0,0.2,0.1,0.2c0.1,0.3,0.2,0.6,0.2,0.8c0,0.1,0.1,0.2,0.1,0.4c0.1,0.2,0.2,0.5,0.2,0.7
		c0,0.1,0.1,0.2,0.1,0.4c0.1,0.2,0.2,0.4,0.3,0.6c0.1,0.1,0.1,0.2,0.2,0.3c0.1,0.3,0.3,0.5,0.4,0.7c0,0.1,0.1,0.1,0.1,0.2
		c0.2,0.3,0.4,0.6,0.6,0.8c0.1,0.1,0.1,0.1,0.2,0.2c0.1,0.2,0.3,0.4,0.5,0.5c0.1,0.1,0.2,0.2,0.2,0.3c0.1,0.2,0.3,0.3,0.5,0.4
		c0.1,0.1,0.2,0.2,0.3,0.2c0.2,0.1,0.3,0.3,0.5,0.4c0.1,0.1,0.2,0.1,0.2,0.2c0.3,0.2,0.5,0.4,0.8,0.5l34.2,19.9
		c-0.3-0.2-0.6-0.3-0.8-0.5c-0.1-0.1-0.2-0.1-0.2-0.2c-0.2-0.1-0.4-0.3-0.5-0.4c-0.1-0.1-0.2-0.2-0.3-0.2c-0.2-0.1-0.3-0.3-0.5-0.4
		c-0.1-0.1-0.2-0.2-0.2-0.3c-0.2-0.2-0.3-0.4-0.5-0.5c-0.1-0.1-0.1-0.1-0.2-0.2c-0.2-0.3-0.4-0.5-0.6-0.8c0-0.1-0.1-0.1-0.1-0.2
		c-0.1-0.2-0.3-0.5-0.4-0.7c-0.1-0.1-0.1-0.2-0.2-0.3c-0.1-0.2-0.2-0.4-0.3-0.6c-0.1-0.1-0.1-0.2-0.1-0.4c-0.1-0.2-0.2-0.4-0.2-0.7
		c0-0.1-0.1-0.2-0.1-0.4c-0.1-0.3-0.2-0.5-0.2-0.8c0-0.1,0-0.2-0.1-0.2c-0.1-0.4-0.2-0.7-0.2-1.1c0-0.1,0-0.2,0-0.3
		c0-0.3-0.1-0.6-0.1-0.9c0-0.1,0-0.3,0-0.4c0-0.3-0.1-0.5-0.1-0.8c0-0.1,0-0.3,0-0.4c0-0.3,0-0.6,0-0.8c0-0.1,0-0.3,0-0.4
		c0-0.4,0-0.8,0-1.1c0,0,0-0.1,0-0.1c0-0.4,0-0.9,0.1-1.3c0-0.1,0-0.3,0-0.4c0-0.3,0.1-0.6,0.1-0.9c0-0.2,0-0.3,0.1-0.5
		c0-0.3,0.1-0.6,0.1-0.8c0-0.2,0.1-0.3,0.1-0.5c0.1-0.3,0.1-0.6,0.2-0.9c0-0.2,0.1-0.3,0.1-0.5c0.1-0.7,0.3-1.4,0.5-2.1
		c0-0.1,0.1-0.2,0.1-0.4c0.2-0.6,0.4-1.2,0.6-1.8c0-0.1,0.1-0.2,0.1-0.3c0.2-0.5,0.3-1,0.5-1.4c0.1-0.1,0.1-0.3,0.2-0.4
		c0.2-0.5,0.4-1.1,0.7-1.6c0-0.1,0.1-0.2,0.1-0.3c0.2-0.4,0.4-0.9,0.6-1.3c0.1-0.2,0.2-0.3,0.2-0.5c0.2-0.4,0.4-0.8,0.6-1.2
		c0.1-0.1,0.1-0.3,0.2-0.4c0.3-0.5,0.5-1,0.8-1.4l1-1.7c0.5-0.8,0.9-1.6,1.4-2.3c0.1-0.2,0.3-0.4,0.4-0.6c0.4-0.5,0.7-1,1.1-1.6
		c0.2-0.2,0.4-0.5,0.5-0.7c0.3-0.4,0.7-0.9,1-1.3c0.2-0.3,0.5-0.6,0.7-0.9c0.5-0.6,1-1.2,1.5-1.7c0.1-0.1,0.2-0.2,0.3-0.3
		c0.4-0.4,0.8-0.8,1.2-1.2c0.2-0.2,0.5-0.5,0.7-0.7c0.4-0.3,0.7-0.7,1.1-1c0.2-0.2,0.5-0.4,0.7-0.6c0.4-0.3,0.8-0.6,1.3-0.9
		c0.2-0.1,0.4-0.3,0.6-0.4c0.6-0.4,1.3-0.8,1.9-1.2c0.4-0.3,0.9-0.5,1.3-0.7c0.1-0.1,0.2-0.1,0.3-0.2c0.4-0.2,0.8-0.4,1.2-0.6
		c0,0,0.1,0,0.1,0c0.4-0.2,0.7-0.3,1.1-0.4c0.1,0,0.2-0.1,0.3-0.1c0.3-0.1,0.5-0.2,0.8-0.2c0.2,0,0.3-0.1,0.5-0.1
		c0.1,0,0.3-0.1,0.4-0.1c0.2,0,0.3-0.1,0.5-0.1c0.1,0,0.3-0.1,0.4-0.1c0.1,0,0.2,0,0.3,0c0.5-0.1,0.9-0.1,1.4-0.1l0,0
		c0.4,0,0.8,0,1.2,0c0.1,0,0.2,0,0.3,0c0.3,0,0.6,0.1,1,0.1c0.1,0,0.1,0,0.2,0c0.3,0.1,0.7,0.1,1,0.2c0.1,0,0.2,0.1,0.3,0.1
		c0.2,0.1,0.5,0.2,0.7,0.3c0.1,0,0.2,0.1,0.3,0.1c0.3,0.1,0.6,0.3,0.8,0.4c0,0,0.1,0,0.1,0.1L543.9,493.6z"/>
	<g>
		<linearGradient id="SVGID_11_" gradientUnits="userSpaceOnUse" x1="541.8757" y1="492.9536" x2="739.7435" y2="492.9536">
			<stop  offset="0" style="stop-color:#00C692"/>
			<stop  offset="1" style="stop-color:#00AB7E"/>
		</linearGradient>
		<path class="st15" d="M718.3,386.7c5.5-3.2,10.9-3.9,15.1-1.5c8.4,4.8,8.4,20.3,0.1,34.7l-93.7,162.4l-0.5,0.8l-0.5,0.8
			c-4,7-9.3,12.3-14.6,15.4c-5.3,3.1-10.6,3.8-14.6,1.5l-0.5-0.3L548,565.7c-8.1-4.6-8.1-19.7-0.1-33.6l1-1.7
			c4-7,9.3-12.3,14.6-15.4c5.3-3.1,10.6-3.8,14.6-1.5l46,26.2l79.2-137.1C707.4,395.4,712.8,389.8,718.3,386.7z"/>
	</g>
</g>
<linearGradient id="SVGID_12_" gradientUnits="userSpaceOnUse" x1="730.5024" y1="544.9203" x2="1007.6262" y2="544.9203">
	<stop  offset="0" style="stop-color:#FFA21E"/>
	<stop  offset="1" style="stop-color:#FFCB27"/>
</linearGradient>
<path class="st16" d="M730.5,669.9c0,0,41.6-222.9,231.6-250c0,0,42.3-0.8,45.5,39c0,0-1.7,35.5-59.3,41.9
	C948.4,500.9,795.3,517.9,730.5,669.9z"/>
<linearGradient id="SVGID_13_" gradientUnits="userSpaceOnUse" x1="17.7479" y1="410.3616" x2="294.8717" y2="410.3616">
	<stop  offset="0" style="stop-color:#FFA21E"/>
	<stop  offset="1" style="stop-color:#FFCB27"/>
</linearGradient>
<path class="st17" d="M294.9,535.3c0,0-41.6-222.9-231.6-250c0,0-42.3-0.8-45.5,39c0,0,1.7,35.5,59.3,41.9
	C77,366.3,230,383.3,294.9,535.3z"/>
<linearGradient id="SVGID_14_" gradientUnits="userSpaceOnUse" x1="200.0532" y1="130.3028" x2="308.8856" y2="130.3028">
	<stop  offset="0" style="stop-color:#D5CBCA"/>
	<stop  offset="1" style="stop-color:#F8F4F1"/>
</linearGradient>
<path class="st18" d="M256.7,38.5c18.1,18.3,62.2,76.2,50.2,197.7c0,0,2.9-108.4-79.4-150.7c-11.1-5-16.6-10.4-16.6-10.4
	c-7.9-8.4-18.6-25.3-2.1-44.3c0,0,10.1-12.7,34-2.2C242.7,28.6,250.7,32.7,256.7,38.5z"/>
</svg>
