<?xml version="1.0" encoding="utf-8"?>
<svg version="1.1" xmlns:xlink="http://www.w3.org/1999/xlink" width="120px" height="35px" xmlns="http://www.w3.org/2000/svg">
  <g transform="matrix(1 0 0 1 -40 -541 )">
    <path d="M 40.5 546  A 4.5 4.5 0 0 1 45 541.5 L 155 541.5  A 4.5 4.5 0 0 1 159.5 546 L 159.5 571  A 4.5 4.5 0 0 1 155 575.5 L 45 575.5  A 4.5 4.5 0 0 1 40.5 571 L 40.5 546  Z " fill-rule="nonzero" fill="#ffffff" stroke="none" />
    <path d="M 40.5 546  A 4.5 4.5 0 0 1 45 541.5 L 155 541.5  A 4.5 4.5 0 0 1 159.5 546 L 159.5 571  A 4.5 4.5 0 0 1 155 575.5 L 45 575.5  A 4.5 4.5 0 0 1 40.5 571 L 40.5 546  Z " stroke-width="1" stroke="#e4e4e4" fill="none" />
  </g>
</svg>