<?xml version="1.0" encoding="utf-8"?>
<svg version="1.1" xmlns:xlink="http://www.w3.org/1999/xlink" width="79px" height="35px" xmlns="http://www.w3.org/2000/svg">
  <g transform="matrix(1 0 0 1 -241 -165 )">
    <path d="M 242 170  A 4 4 0 0 1 246 166 L 315 166  A 4 4 0 0 1 319 170 L 319 195  A 4 4 0 0 1 315 199 L 246 199  A 4 4 0 0 1 242 195 L 242 170  Z " fill-rule="nonzero" fill="#409eff" stroke="none" fill-opacity="0.0784313725490196" />
    <path d="M 241.5 170  A 4.5 4.5 0 0 1 246 165.5 L 315 165.5  A 4.5 4.5 0 0 1 319.5 170 L 319.5 195  A 4.5 4.5 0 0 1 315 199.5 L 246 199.5  A 4.5 4.5 0 0 1 241.5 195 L 241.5 170  Z " stroke-width="1" stroke="#7abbff" fill="none" stroke-opacity="0.996078431372549" />
  </g>
</svg>