<?xml version="1.0" encoding="utf-8"?>
<svg version="1.1" xmlns:xlink="http://www.w3.org/1999/xlink" width="79px" height="35px" xmlns="http://www.w3.org/2000/svg">
  <g transform="matrix(1 0 0 1 -241 -165 )">
    <path d="M 241.5 170  A 4.5 4.5 0 0 1 246 165.5 L 315 165.5  A 4.5 4.5 0 0 1 319.5 170 L 319.5 195  A 4.5 4.5 0 0 1 315 199.5 L 246 199.5  A 4.5 4.5 0 0 1 241.5 195 L 241.5 170  Z " fill-rule="nonzero" fill="#ffffff" stroke="none" />
    <path d="M 241.5 170  A 4.5 4.5 0 0 1 246 165.5 L 315 165.5  A 4.5 4.5 0 0 1 319.5 170 L 319.5 195  A 4.5 4.5 0 0 1 315 199.5 L 246 199.5  A 4.5 4.5 0 0 1 241.5 195 L 241.5 170  Z " stroke-width="1" stroke="#e4e4e4" fill="none" />
  </g>
</svg>