<?xml version="1.0" encoding="utf-8"?>
<svg version="1.1" xmlns:xlink="http://www.w3.org/1999/xlink" width="257px" height="48px" xmlns="http://www.w3.org/2000/svg">
  <g transform="matrix(1 0 0 1 -153 -25 )">
    <path d="M 153 57.8  C 153 57.8  153 30  153 30  C 153 27.238576250846  155.238576250846 25  158 25  C 158 25  405 25  405 25  C 407.761423749154 25  410 27.238576250846  410 30  C 410 30  410 57.8  410 57.8  C 410 60.561423749154  407.761423749154 62.8  405 62.8  C 405 62.8  232.679049295775 62.8  232.679049295775 62.8  C 232.679049295775 62.8  220.361952269171 72.75  220.361952269171 72.75  C 220.361952269171 72.75  208.547593896714 62.8  208.547593896714 62.8  C 208.547593896714 62.8  158 62.8  158 62.8  C 155.238576250846 62.8  153 60.561423749154  153 57.8  Z " fill-rule="nonzero" fill="#000000" stroke="none" fill-opacity="0.8" />
  </g>
</svg>