<?xml version="1.0" encoding="utf-8"?>
<svg version="1.1" xmlns:xlink="http://www.w3.org/1999/xlink" width="73px" height="50px" xmlns="http://www.w3.org/2000/svg">
  <defs>
    <mask fill="white" id="clip615">
      <path d="M 71.175 10  C 72.1829196684412 9.97396355424303  73 12.2125398050891  73 14.973963554243  L 73 45  C 73 47.761423749154  72.1829196684412 50  71.175 50  L 1.825 50  C 0.817080331558798 50  0 47.761423749154  0 45  L 0 14.973963554243  C 0 12.2125398050891  0.817080331558798 9.97396355424303  1.825 9.97396355424303  L 10.8207763975155 9.97396355424303  L 14.4292132505176 0.440605176794492  L 18.1207763975155 10  L 71.175 10  Z " fill-rule="evenodd" />
    </mask>
  </defs>
  <g transform="matrix(1 0 0 1 -325 -51 )">
    <path d="M 71.175 10  C 72.1829196684412 9.97396355424303  73 12.2125398050891  73 14.973963554243  L 73 45  C 73 47.761423749154  72.1829196684412 50  71.175 50  L 1.825 50  C 0.817080331558798 50  0 47.761423749154  0 45  L 0 14.973963554243  C 0 12.2125398050891  0.817080331558798 9.97396355424303  1.825 9.97396355424303  L 10.8207763975155 9.97396355424303  L 14.4292132505176 0.440605176794492  L 18.1207763975155 10  L 71.175 10  Z " fill-rule="nonzero" fill="#ffffff" stroke="none" fill-opacity="0.8" transform="matrix(1 0 0 1 325 51 )" />
    <path d="M 71.175 10  C 72.1829196684412 9.97396355424303  73 12.2125398050891  73 14.973963554243  L 73 45  C 73 47.761423749154  72.1829196684412 50  71.175 50  L 1.825 50  C 0.817080331558798 50  0 47.761423749154  0 45  L 0 14.973963554243  C 0 12.2125398050891  0.817080331558798 9.97396355424303  1.825 9.97396355424303  L 10.8207763975155 9.97396355424303  L 14.4292132505176 0.440605176794492  L 18.1207763975155 10  L 71.175 10  Z " stroke-width="2" stroke="#e9e9e9" fill="none" transform="matrix(1 0 0 1 325 51 )" mask="url(#clip615)" />
  </g>
</svg>