<?xml version="1.0" encoding="utf-8"?>
<svg version="1.1" xmlns:xlink="http://www.w3.org/1999/xlink" width="84px" height="50px" xmlns="http://www.w3.org/2000/svg">
  <defs>
    <mask fill="white" id="clip616">
      <path d="M 81.9 10  C 83.0597979746447 9.97396355424303  84 12.2125398050891  84 14.973963554243  L 84 45  C 84 47.761423749154  83.0597979746447 50  81.9 50  L 2.1 50  C 0.94020202535533 50  0 47.761423749154  0 45  L 0 14.973963554243  C 0 12.2125398050891  0.94020202535533 9.97396355424303  2.1 10  L 12.4513043478261 10  L 16.6034782608696 0.440605176794492  L 20.8513043478261 10  L 81.9 10  Z " fill-rule="evenodd" />
    </mask>
  </defs>
  <g transform="matrix(1 0 0 1 -367 -51 )">
    <path d="M 81.9 10  C 83.0597979746447 9.97396355424303  84 12.2125398050891  84 14.973963554243  L 84 45  C 84 47.761423749154  83.0597979746447 50  81.9 50  L 2.1 50  C 0.94020202535533 50  0 47.761423749154  0 45  L 0 14.973963554243  C 0 12.2125398050891  0.94020202535533 9.97396355424303  2.1 10  L 12.4513043478261 10  L 16.6034782608696 0.440605176794492  L 20.8513043478261 10  L 81.9 10  Z " fill-rule="nonzero" fill="#ffffff" stroke="none" fill-opacity="0.8" transform="matrix(1 0 0 1 367 51 )" />
    <path d="M 81.9 10  C 83.0597979746447 9.97396355424303  84 12.2125398050891  84 14.973963554243  L 84 45  C 84 47.761423749154  83.0597979746447 50  81.9 50  L 2.1 50  C 0.94020202535533 50  0 47.761423749154  0 45  L 0 14.973963554243  C 0 12.2125398050891  0.94020202535533 9.97396355424303  2.1 10  L 12.4513043478261 10  L 16.6034782608696 0.440605176794492  L 20.8513043478261 10  L 81.9 10  Z " stroke-width="2" stroke="#e9e9e9" fill="none" transform="matrix(1 0 0 1 367 51 )" mask="url(#clip616)" />
  </g>
</svg>