<?xml version="1.0" encoding="utf-8"?>
<svg version="1.1" xmlns:xlink="http://www.w3.org/1999/xlink" width="56px" height="25px" xmlns="http://www.w3.org/2000/svg">
  <g transform="matrix(1 0 0 1 -1368 -207 )">
    <path d="M 1368.5 212  A 4.5 4.5 0 0 1 1373 207.5 L 1419 207.5  A 4.5 4.5 0 0 1 1423.5 212 L 1423.5 227  A 4.5 4.5 0 0 1 1419 231.5 L 1373 231.5  A 4.5 4.5 0 0 1 1368.5 227 L 1368.5 212  Z " fill-rule="nonzero" fill="#5daf34" stroke="none" />
    <path d="M 1368.5 212  A 4.5 4.5 0 0 1 1373 207.5 L 1419 207.5  A 4.5 4.5 0 0 1 1423.5 212 L 1423.5 227  A 4.5 4.5 0 0 1 1419 231.5 L 1373 231.5  A 4.5 4.5 0 0 1 1368.5 227 L 1368.5 212  Z " stroke-width="1" stroke="#5daf34" fill="none" />
  </g>
</svg>