<?xml version="1.0" encoding="utf-8"?>
<svg version="1.1" xmlns:xlink="http://www.w3.org/1999/xlink" width="120px" height="35px" xmlns="http://www.w3.org/2000/svg">
  <g transform="matrix(1 0 0 1 -110 -584 )">
    <path d="M 110.5 589  A 4.5 4.5 0 0 1 115 584.5 L 225 584.5  A 4.5 4.5 0 0 1 229.5 589 L 229.5 614  A 4.5 4.5 0 0 1 225 618.5 L 115 618.5  A 4.5 4.5 0 0 1 110.5 614 L 110.5 589  Z " fill-rule="nonzero" fill="#ffffff" stroke="none" />
    <path d="M 110.5 589  A 4.5 4.5 0 0 1 115 584.5 L 225 584.5  A 4.5 4.5 0 0 1 229.5 589 L 229.5 614  A 4.5 4.5 0 0 1 225 618.5 L 115 618.5  A 4.5 4.5 0 0 1 110.5 614 L 110.5 589  Z " stroke-width="1" stroke="#e4e4e4" fill="none" />
  </g>
</svg>