<?xml version="1.0" encoding="utf-8"?>
<svg version="1.1" xmlns:xlink="http://www.w3.org/1999/xlink" width="25px" height="25px" xmlns="http://www.w3.org/2000/svg">
  <g transform="matrix(1 0 0 1 -340 -709 )">
    <path d="M 352.5 709  C 359.5 709  365 714.5  365 721.5  C 365 728.5  359.5 734  352.5 734  C 345.5 734  340 728.5  340 721.5  C 340 714.5  345.5 709  352.5 709  Z " fill-rule="nonzero" fill="#ffffff" stroke="none" fill-opacity="0" />
    <path d="M 352.5 709.5  C 359.22 709.5  364.5 714.78  364.5 721.5  C 364.5 728.22  359.22 733.5  352.5 733.5  C 345.78 733.5  340.5 728.22  340.5 721.5  C 340.5 714.78  345.78 709.5  352.5 709.5  Z " stroke-width="1" stroke="#ffffff" fill="none" />
  </g>
</svg>