<?xml version="1.0" encoding="utf-8"?>
<svg version="1.1" xmlns:xlink="http://www.w3.org/1999/xlink" width="401px" height="160px" xmlns="http://www.w3.org/2000/svg">
  <g transform="matrix(1 0 0 1 -150 -178 )">
    <path d="M 150.5 181  A 2.5 2.5 0 0 1 153 178.5 L 548 178.5  A 2.5 2.5 0 0 1 550.5 181 L 550.5 335  A 2.5 2.5 0 0 1 548 337.5 L 153 337.5  A 2.5 2.5 0 0 1 150.5 335 L 150.5 181  Z " fill-rule="nonzero" fill="#ffffff" stroke="none" />
    <path d="M 150.5 181  A 2.5 2.5 0 0 1 153 178.5 L 548 178.5  A 2.5 2.5 0 0 1 550.5 181 L 550.5 335  A 2.5 2.5 0 0 1 548 337.5 L 153 337.5  A 2.5 2.5 0 0 1 150.5 335 L 150.5 181  Z " stroke-width="1" stroke="#0079fe" fill="none" />
  </g>
</svg>