<?xml version="1.0" encoding="utf-8"?>
<svg version="1.1" xmlns:xlink="http://www.w3.org/1999/xlink" width="407px" height="166px" xmlns="http://www.w3.org/2000/svg">
  <defs>
    <filter x="147px" y="175px" width="407px" height="166px" filterUnits="userSpaceOnUse" id="filter250">
      <feOffset dx="0" dy="0" in="SourceAlpha" result="shadowOffsetInner" />
      <feGaussianBlur stdDeviation="1.5" in="shadowOffsetInner" result="shadowGaussian" />
      <feComposite in2="shadowGaussian" operator="atop" in="SourceAlpha" result="shadowComposite" />
      <feColorMatrix type="matrix" values="0 0 0 0 0  0 0 0 0 0.474509803921569  0 0 0 0 0.996078431372549  0 0 0 0.8 0  " in="shadowComposite" />
    </filter>
    <g id="widget251">
      <path d="M 150.5 181  A 2.5 2.5 0 0 1 153 178.5 L 548 178.5  A 2.5 2.5 0 0 1 550.5 181 L 550.5 335  A 2.5 2.5 0 0 1 548 337.5 L 153 337.5  A 2.5 2.5 0 0 1 150.5 335 L 150.5 181  Z " fill-rule="nonzero" fill="#ffffff" stroke="none" />
      <path d="M 150.5 181  A 2.5 2.5 0 0 1 153 178.5 L 548 178.5  A 2.5 2.5 0 0 1 550.5 181 L 550.5 335  A 2.5 2.5 0 0 1 548 337.5 L 153 337.5  A 2.5 2.5 0 0 1 150.5 335 L 150.5 181  Z " stroke-width="1" stroke="#0079fe" fill="none" />
    </g>
  </defs>
  <g transform="matrix(1 0 0 1 -147 -175 )">
    <use xlink:href="#widget251" filter="url(#filter250)" />
    <use xlink:href="#widget251" />
  </g>
</svg>