<?xml version="1.0" encoding="utf-8"?>
<svg version="1.1" xmlns:xlink="http://www.w3.org/1999/xlink" width="71px" height="31px" xmlns="http://www.w3.org/2000/svg">
  <g transform="matrix(1 0 0 1 -695 -582 )">
    <path d="M 695 601.1  C 695 601.1  695 586  695 586  C 695 583.790861000677  696.790861000677 582  699 582  C 699 582  762 582  762 582  C 764.209138999323 582  766 583.790861000677  766 586  C 766 586  766 601.1  766 601.1  C 766 603.309138999323  764.209138999323 605.1  762 605.1  C 762 605.1  737.342228464419 605.1  737.342228464419 605.1  C 737.342228464419 605.1  729.452247191011 612.25  729.452247191011 612.25  C 729.452247191011 612.25  721.842228464419 605.1  721.842228464419 605.1  C 721.842228464419 605.1  699 605.1  699 605.1  C 696.790861000677 605.1  695 603.309138999323  695 601.1  Z " fill-rule="nonzero" fill="#dd4637" stroke="none" />
  </g>
</svg>