<?xml version="1.0" encoding="utf-8"?>
<svg version="1.1" xmlns:xlink="http://www.w3.org/1999/xlink" width="25px" height="20px" xmlns="http://www.w3.org/2000/svg">
  <g transform="matrix(1 0 0 1 -1448 -541 )">
    <path d="M 1464.816718427 542  C 1464.816718427 542  1466.33939693387 542.609071402747  1466.33939693387 542.609071402747  C 1466.33939693387 542.609071402747  1471.81174167121 551  1471.81174167121 551  C 1471.81174167121 551  1466.33939693387 559.390928597253  1466.33939693387 559.390928597253  C 1466.33939693387 559.390928597253  1464.816718427 560  1464.816718427 560  C 1464.816718427 560  1453 560  1453 560  C 1450.76 560  1449 558.24  1449 556  C 1449 556  1449 546  1449 546  C 1449 543.76  1450.76 542  1453 542  C 1453 542  1464.816718427 542  1464.816718427 542  Z " fill-rule="nonzero" fill="#3d8fff" stroke="none" />
    <path d="M 1464.9083592135 541.5  C 1464.9083592135 541.5  1466.66969846693 542.204535701374  1466.66969846693 542.204535701374  C 1466.66969846693 542.204535701374  1472.4058708356 551  1472.4058708356 551  C 1472.4058708356 551  1466.66969846693 559.795464298626  1466.66969846693 559.795464298626  C 1466.66969846693 559.795464298626  1464.9083592135 560.5  1464.9083592135 560.5  C 1464.9083592135 560.5  1453 560.5  1453 560.5  C 1450.48 560.5  1448.5 558.52  1448.5 556  C 1448.5 556  1448.5 546  1448.5 546  C 1448.5 543.48  1450.48 541.5  1453 541.5  C 1453 541.5  1464.9083592135 541.5  1464.9083592135 541.5  Z " stroke-width="1" stroke="#02a6b5" fill="none" stroke-opacity="0.149019607843137" />
  </g>
</svg>