<svg t="1635587487767" class="icon" viewBox="0 0 1024 1024" version="1.1" xmlns="http://www.w3.org/2000/svg" p-id="3933" width="32" height="32"><path d="M0 0h1024v1024H0V0z" fill="#25E3C9" opacity=".01" p-id="3934"></path><path d="M274.8416 409.6c-1.9456-18.568533-15.496533-34.133333-34.133333-34.133333H238.933333 102.4a34.133333 34.133333 0 0 0-34.133333 34.133333v102.4a273.066667 273.066667 0 0 0 273.066666 273.066667h68.266667a34.133333 34.133333 0 0 0 34.133333-34.133334v-70.7584l-67.413333-64.785066C316.5184 557.909333 282.692267 484.7616 274.8416 409.6zM580.266667 750.933333a34.133333 34.133333 0 0 0 34.133333 34.133334h68.266667a273.066667 273.066667 0 0 0 273.066666-273.066667v-102.4a34.133333 34.133333 0 0 0-34.133333-34.133333h-137.693867c-18.397867 0-33.006933 14.609067-34.645333 32.938666a83.797333 83.797333 0 0 1-0.1024 1.194667c-7.850667 75.1616-41.6768 148.309333-101.512533 205.789867L580.266667 680.174933V750.933333z" fill="#25E3C9" p-id="3935"></path><path d="M624.0256 160.1536c123.6992 118.920533 123.6992 311.7056 0 430.626133L546.133333 665.6V921.6a34.133333 34.133333 0 1 1-68.266666 0v-256l-77.858134-74.820267c-123.733333-118.920533-123.733333-311.7056 0-430.626133l83.968-80.725333a40.7552 40.7552 0 0 1 56.0128 0l84.036267 80.725333z" fill="#25E3C9" p-id="3936"></path></svg>