<?xml version="1.0" encoding="utf-8"?>
<svg version="1.1" xmlns:xlink="http://www.w3.org/1999/xlink" width="25px" height="20px" xmlns="http://www.w3.org/2000/svg">
  <g transform="matrix(1 0 0 1 -1448 -472 )">
    <path d="M 1464.816718427 473  C 1464.816718427 473  1466.33939693387 473.609071402747  1466.33939693387 473.609071402747  C 1466.33939693387 473.609071402747  1471.81174167121 482  1471.81174167121 482  C 1471.81174167121 482  1466.33939693387 490.390928597253  1466.33939693387 490.390928597253  C 1466.33939693387 490.390928597253  1464.816718427 491  1464.816718427 491  C 1464.816718427 491  1453 491  1453 491  C 1450.76 491  1449 489.24  1449 487  C 1449 487  1449 477  1449 477  C 1449 474.76  1450.76 473  1453 473  C 1453 473  1464.816718427 473  1464.816718427 473  Z " fill-rule="nonzero" fill="#ff9800" stroke="none" />
    <path d="M 1464.9083592135 472.5  C 1464.9083592135 472.5  1466.66969846693 473.204535701374  1466.66969846693 473.204535701374  C 1466.66969846693 473.204535701374  1472.4058708356 482  1472.4058708356 482  C 1472.4058708356 482  1466.66969846693 490.795464298626  1466.66969846693 490.795464298626  C 1466.66969846693 490.795464298626  1464.9083592135 491.5  1464.9083592135 491.5  C 1464.9083592135 491.5  1453 491.5  1453 491.5  C 1450.48 491.5  1448.5 489.52  1448.5 487  C 1448.5 487  1448.5 477  1448.5 477  C 1448.5 474.48  1450.48 472.5  1453 472.5  C 1453 472.5  1464.9083592135 472.5  1464.9083592135 472.5  Z " stroke-width="1" stroke="#02a6b5" fill="none" stroke-opacity="0.149019607843137" />
  </g>
</svg>