<?xml version="1.0" encoding="utf-8"?>
<svg version="1.1" xmlns:xlink="http://www.w3.org/1999/xlink" width="25px" height="20px" xmlns="http://www.w3.org/2000/svg">
  <g transform="matrix(1 0 0 1 -1448 -436 )">
    <path d="M 1464.816718427 437  C 1464.816718427 437  1466.33939693387 437.609071402747  1466.33939693387 437.609071402747  C 1466.33939693387 437.609071402747  1471.81174167121 446  1471.81174167121 446  C 1471.81174167121 446  1466.33939693387 454.390928597253  1466.33939693387 454.390928597253  C 1466.33939693387 454.390928597253  1464.816718427 455  1464.816718427 455  C 1464.816718427 455  1453 455  1453 455  C 1450.76 455  1449 453.24  1449 451  C 1449 451  1449 441  1449 441  C 1449 438.76  1450.76 437  1453 437  C 1453 437  1464.816718427 437  1464.816718427 437  Z " fill-rule="nonzero" fill="#ff3232" stroke="none" />
    <path d="M 1464.9083592135 436.5  C 1464.9083592135 436.5  1466.66969846693 437.204535701374  1466.66969846693 437.204535701374  C 1466.66969846693 437.204535701374  1472.4058708356 446  1472.4058708356 446  C 1472.4058708356 446  1466.66969846693 454.795464298626  1466.66969846693 454.795464298626  C 1466.66969846693 454.795464298626  1464.9083592135 455.5  1464.9083592135 455.5  C 1464.9083592135 455.5  1453 455.5  1453 455.5  C 1450.48 455.5  1448.5 453.52  1448.5 451  C 1448.5 451  1448.5 441  1448.5 441  C 1448.5 438.48  1450.48 436.5  1453 436.5  C 1453 436.5  1464.9083592135 436.5  1464.9083592135 436.5  Z " stroke-width="1" stroke="#02a6b5" fill="none" stroke-opacity="0.149019607843137" />
  </g>
</svg>