<?xml version="1.0" encoding="utf-8"?>
<svg version="1.1" xmlns:xlink="http://www.w3.org/1999/xlink" width="25px" height="20px" xmlns="http://www.w3.org/2000/svg">
  <g transform="matrix(1 0 0 1 -1448 -506 )">
    <path d="M 1464.816718427 507  C 1464.816718427 507  1466.33939693387 507.609071402747  1466.33939693387 507.609071402747  C 1466.33939693387 507.609071402747  1471.81174167121 516  1471.81174167121 516  C 1471.81174167121 516  1466.33939693387 524.390928597253  1466.33939693387 524.390928597253  C 1466.33939693387 524.390928597253  1464.816718427 525  1464.816718427 525  C 1464.816718427 525  1453 525  1453 525  C 1450.76 525  1449 523.24  1449 521  C 1449 521  1449 511  1449 511  C 1449 508.76  1450.76 507  1453 507  C 1453 507  1464.816718427 507  1464.816718427 507  Z " fill-rule="nonzero" fill="#ffd200" stroke="none" />
    <path d="M 1464.9083592135 506.5  C 1464.9083592135 506.5  1466.66969846693 507.204535701374  1466.66969846693 507.204535701374  C 1466.66969846693 507.204535701374  1472.4058708356 516  1472.4058708356 516  C 1472.4058708356 516  1466.66969846693 524.795464298626  1466.66969846693 524.795464298626  C 1466.66969846693 524.795464298626  1464.9083592135 525.5  1464.9083592135 525.5  C 1464.9083592135 525.5  1453 525.5  1453 525.5  C 1450.48 525.5  1448.5 523.52  1448.5 521  C 1448.5 521  1448.5 511  1448.5 511  C 1448.5 508.48  1450.48 506.5  1453 506.5  C 1453 506.5  1464.9083592135 506.5  1464.9083592135 506.5  Z " stroke-width="1" stroke="#02a6b5" fill="none" stroke-opacity="0.149019607843137" />
  </g>
</svg>