<?xml version="1.0" encoding="utf-8"?>
<svg version="1.1" xmlns:xlink="http://www.w3.org/1999/xlink" width="42px" height="71px" xmlns="http://www.w3.org/2000/svg">
  <defs>
    <mask fill="white" id="clip171">
      <path d="M 29.566764705882 0.436681415929229  L 24.650294117647 4.69039823008859  L 21.3767647058824 13.9455309734514  L 21.3767647058824 20.0590707964602  L 21.3767647058824 20.2412831858408  L 19.5547058823529 23.3891592920355  L 19.1902941176469 25.6134070796461  C 19.5547058823529 26.907743362832  19.0049999999999 28.0198672566372  17.7326470588235 28.7612831858407  L 17.3682352941175 28.949778761062  L 17.1829411764705 28.949778761062  L 17.0038235294116 28.7612831858407  L 12.4579411764706 28.2083628318585  L 10.0923529411764 30.4263274336284  L 3.18088235294118 31.5384513274337  L 0.265588235293933 31.5384513274337  L 2.08764705882334 32.8390707964603  L 8.63470588235293 33.5804867256637  L 8.99911764705871 33.5804867256637  L 9.36352941176472 33.5804867256637  L 9.54264705882349 33.7626991150444  L 9.54264705882349 33.9511946902655  L 11.1855882352942 38.0226991150444  L 13.0076470588236 39.3170353982302  C 13.5511764705882 40.0584513274337  13.915588235294 41.170575221239  13.915588235294 43.2063274336284  L 14.0947058823529 48.2014601769912  L 16.2749999999999 50.2434955752213  L 16.4602941176471 50.2434955752213  L 16.4602941176471 50.4131415929204  L 16.6394117647056 50.4131415929204  L 17.7326470588235 54.1139380530974  L 17.7326470588235 56.1496902654867  L 16.4602941176471 58.0032300884957  L 16.0958823529411 59.6682743362832  L 16.6394117647056 61.521814159292  L 18.8197058823528 63.0046460176991  C 21.185294117647 63.9282743362832  22.4576470588235 64.4874778761063  23.0073529411765 65.4111061946903  L 24.2797058823528 68.1882743362831  C 25.7311764705881 68.9296902654867  26.4599999999997 69.6711061946902  26.8244117647057 70.4062389380531  L 28.4611764705879 70.9654424778761  L 28.6464705882352 70.9654424778761  L 27.9176470588234 66.8939380530974  C 27.7385294117645 65.9703097345132  27.7385294117645 65.0403982300884  28.1029411764703 64.6696902654868  C 28.4673529411764 64.1167699115043  28.8317647058822 63.7460619469026  29.560588235294 63.5575663716813  L 32.2905882352939 62.6339380530974  L 32.4697058823526 62.4454424778761  L 32.6549999999999 62.4454424778761  L 32.8341176470584 62.6339380530974  L 34.1064705882351 63.0046460176991  L 35.7494117647054 62.081017699115  L 35.7494117647054 61.7165929203541  L 36.2929411764703 57.0858849557522  L 35.1997058823526 54.8616371681416  L 33.7482352941172 54.1202212389381  L 31.9323529411762 53.9317256637169  L 31.5679411764702 53.9317256637169  L 31.2035294117644 53.7432300884956  L 30.4747058823525 48.9303097345132  L 30.6538235294114 39.4929646017699  L 31.0182352941172 39.1222566371681  L 33.7482352941172 35.2329646017699  L 37.7505882352937 37.4572123893805  L 40.1161764705878 37.4572123893805  L 41.9382352941172 25.4249115044248  C 41.3947058823526 24.130575221239  40.8449999999996 23.206946902655  39.751764705882 22.6477433628319  L 38.6585294117643 22.4655309734513  L 38.6585294117643 22.6477433628319  L 38.1088235294116 22.6477433628319  L 35.1997058823526 23.2069469026549  L 35.0205882352939 22.8362389380532  L 34.8414705882351 22.6477433628319  L 32.8402941176469 20.0590707964602  L 32.8402941176469 19.8705752212389  L 32.661176470588 19.6883628318584  L 32.661176470588 15.0639380530973  L 33.3899999999996 12.4689823008849  L 34.1188235294114 11.3568584070797  C 34.1188235294114 10.6154424778761  34.3041176470584 9.87402654867253  35.026764705882 8.95039823008847  L 35.7555882352939 8.0267699115044  L 35.9347058823524 4.87889380530976  L 33.2047058823526 2.28393805309736  L 29.566764705882 0.436681415929229  Z " fill-rule="evenodd" />
    </mask>
  </defs>
  <g transform="matrix(1 0 0 1 -974 -482 )">
    <path d="M 29.566764705882 0.436681415929229  L 24.650294117647 4.69039823008859  L 21.3767647058824 13.9455309734514  L 21.3767647058824 20.0590707964602  L 21.3767647058824 20.2412831858408  L 19.5547058823529 23.3891592920355  L 19.1902941176469 25.6134070796461  C 19.5547058823529 26.907743362832  19.0049999999999 28.0198672566372  17.7326470588235 28.7612831858407  L 17.3682352941175 28.949778761062  L 17.1829411764705 28.949778761062  L 17.0038235294116 28.7612831858407  L 12.4579411764706 28.2083628318585  L 10.0923529411764 30.4263274336284  L 3.18088235294118 31.5384513274337  L 0.265588235293933 31.5384513274337  L 2.08764705882334 32.8390707964603  L 8.63470588235293 33.5804867256637  L 8.99911764705871 33.5804867256637  L 9.36352941176472 33.5804867256637  L 9.54264705882349 33.7626991150444  L 9.54264705882349 33.9511946902655  L 11.1855882352942 38.0226991150444  L 13.0076470588236 39.3170353982302  C 13.5511764705882 40.0584513274337  13.915588235294 41.170575221239  13.915588235294 43.2063274336284  L 14.0947058823529 48.2014601769912  L 16.2749999999999 50.2434955752213  L 16.4602941176471 50.2434955752213  L 16.4602941176471 50.4131415929204  L 16.6394117647056 50.4131415929204  L 17.7326470588235 54.1139380530974  L 17.7326470588235 56.1496902654867  L 16.4602941176471 58.0032300884957  L 16.0958823529411 59.6682743362832  L 16.6394117647056 61.521814159292  L 18.8197058823528 63.0046460176991  C 21.185294117647 63.9282743362832  22.4576470588235 64.4874778761063  23.0073529411765 65.4111061946903  L 24.2797058823528 68.1882743362831  C 25.7311764705881 68.9296902654867  26.4599999999997 69.6711061946902  26.8244117647057 70.4062389380531  L 28.4611764705879 70.9654424778761  L 28.6464705882352 70.9654424778761  L 27.9176470588234 66.8939380530974  C 27.7385294117645 65.9703097345132  27.7385294117645 65.0403982300884  28.1029411764703 64.6696902654868  C 28.4673529411764 64.1167699115043  28.8317647058822 63.7460619469026  29.560588235294 63.5575663716813  L 32.2905882352939 62.6339380530974  L 32.4697058823526 62.4454424778761  L 32.6549999999999 62.4454424778761  L 32.8341176470584 62.6339380530974  L 34.1064705882351 63.0046460176991  L 35.7494117647054 62.081017699115  L 35.7494117647054 61.7165929203541  L 36.2929411764703 57.0858849557522  L 35.1997058823526 54.8616371681416  L 33.7482352941172 54.1202212389381  L 31.9323529411762 53.9317256637169  L 31.5679411764702 53.9317256637169  L 31.2035294117644 53.7432300884956  L 30.4747058823525 48.9303097345132  L 30.6538235294114 39.4929646017699  L 31.0182352941172 39.1222566371681  L 33.7482352941172 35.2329646017699  L 37.7505882352937 37.4572123893805  L 40.1161764705878 37.4572123893805  L 41.9382352941172 25.4249115044248  C 41.3947058823526 24.130575221239  40.8449999999996 23.206946902655  39.751764705882 22.6477433628319  L 38.6585294117643 22.4655309734513  L 38.6585294117643 22.6477433628319  L 38.1088235294116 22.6477433628319  L 35.1997058823526 23.2069469026549  L 35.0205882352939 22.8362389380532  L 34.8414705882351 22.6477433628319  L 32.8402941176469 20.0590707964602  L 32.8402941176469 19.8705752212389  L 32.661176470588 19.6883628318584  L 32.661176470588 15.0639380530973  L 33.3899999999996 12.4689823008849  L 34.1188235294114 11.3568584070797  C 34.1188235294114 10.6154424778761  34.3041176470584 9.87402654867253  35.026764705882 8.95039823008847  L 35.7555882352939 8.0267699115044  L 35.9347058823524 4.87889380530976  L 33.2047058823526 2.28393805309736  L 29.566764705882 0.436681415929229  Z " fill-rule="nonzero" fill="#00ccff" stroke="none" fill-opacity="0.298039215686275" transform="matrix(1 0 0 1 974 482 )" />
    <path d="M 29.566764705882 0.436681415929229  L 24.650294117647 4.69039823008859  L 21.3767647058824 13.9455309734514  L 21.3767647058824 20.0590707964602  L 21.3767647058824 20.2412831858408  L 19.5547058823529 23.3891592920355  L 19.1902941176469 25.6134070796461  C 19.5547058823529 26.907743362832  19.0049999999999 28.0198672566372  17.7326470588235 28.7612831858407  L 17.3682352941175 28.949778761062  L 17.1829411764705 28.949778761062  L 17.0038235294116 28.7612831858407  L 12.4579411764706 28.2083628318585  L 10.0923529411764 30.4263274336284  L 3.18088235294118 31.5384513274337  L 0.265588235293933 31.5384513274337  L 2.08764705882334 32.8390707964603  L 8.63470588235293 33.5804867256637  L 8.99911764705871 33.5804867256637  L 9.36352941176472 33.5804867256637  L 9.54264705882349 33.7626991150444  L 9.54264705882349 33.9511946902655  L 11.1855882352942 38.0226991150444  L 13.0076470588236 39.3170353982302  C 13.5511764705882 40.0584513274337  13.915588235294 41.170575221239  13.915588235294 43.2063274336284  L 14.0947058823529 48.2014601769912  L 16.2749999999999 50.2434955752213  L 16.4602941176471 50.2434955752213  L 16.4602941176471 50.4131415929204  L 16.6394117647056 50.4131415929204  L 17.7326470588235 54.1139380530974  L 17.7326470588235 56.1496902654867  L 16.4602941176471 58.0032300884957  L 16.0958823529411 59.6682743362832  L 16.6394117647056 61.521814159292  L 18.8197058823528 63.0046460176991  C 21.185294117647 63.9282743362832  22.4576470588235 64.4874778761063  23.0073529411765 65.4111061946903  L 24.2797058823528 68.1882743362831  C 25.7311764705881 68.9296902654867  26.4599999999997 69.6711061946902  26.8244117647057 70.4062389380531  L 28.4611764705879 70.9654424778761  L 28.6464705882352 70.9654424778761  L 27.9176470588234 66.8939380530974  C 27.7385294117645 65.9703097345132  27.7385294117645 65.0403982300884  28.1029411764703 64.6696902654868  C 28.4673529411764 64.1167699115043  28.8317647058822 63.7460619469026  29.560588235294 63.5575663716813  L 32.2905882352939 62.6339380530974  L 32.4697058823526 62.4454424778761  L 32.6549999999999 62.4454424778761  L 32.8341176470584 62.6339380530974  L 34.1064705882351 63.0046460176991  L 35.7494117647054 62.081017699115  L 35.7494117647054 61.7165929203541  L 36.2929411764703 57.0858849557522  L 35.1997058823526 54.8616371681416  L 33.7482352941172 54.1202212389381  L 31.9323529411762 53.9317256637169  L 31.5679411764702 53.9317256637169  L 31.2035294117644 53.7432300884956  L 30.4747058823525 48.9303097345132  L 30.6538235294114 39.4929646017699  L 31.0182352941172 39.1222566371681  L 33.7482352941172 35.2329646017699  L 37.7505882352937 37.4572123893805  L 40.1161764705878 37.4572123893805  L 41.9382352941172 25.4249115044248  C 41.3947058823526 24.130575221239  40.8449999999996 23.206946902655  39.751764705882 22.6477433628319  L 38.6585294117643 22.4655309734513  L 38.6585294117643 22.6477433628319  L 38.1088235294116 22.6477433628319  L 35.1997058823526 23.2069469026549  L 35.0205882352939 22.8362389380532  L 34.8414705882351 22.6477433628319  L 32.8402941176469 20.0590707964602  L 32.8402941176469 19.8705752212389  L 32.661176470588 19.6883628318584  L 32.661176470588 15.0639380530973  L 33.3899999999996 12.4689823008849  L 34.1188235294114 11.3568584070797  C 34.1188235294114 10.6154424778761  34.3041176470584 9.87402654867253  35.026764705882 8.95039823008847  L 35.7555882352939 8.0267699115044  L 35.9347058823524 4.87889380530976  L 33.2047058823526 2.28393805309736  L 29.566764705882 0.436681415929229  Z " stroke-width="4" stroke="#00ccff" fill="none" stroke-opacity="0.498039215686275" transform="matrix(1 0 0 1 974 482 )" mask="url(#clip171)" />
  </g>
</svg>