<?xml version="1.0" encoding="utf-8"?>
<svg version="1.1" xmlns:xlink="http://www.w3.org/1999/xlink" width="289px" height="175px" xmlns="http://www.w3.org/2000/svg">
  <defs>
    <mask fill="white" id="clip177">
      <path d="M 35.4398706896551 0.909131205673702  L 35.4398706896551 0.921542553191557  L 35.4398706896551 1.10150709219863  C 34.7049137931035 2.75221631205682  33.4218534482758 3.84441489361711  31.9519396551725 5.12898936170211  C 30.8495043103449 5.67508865248237  30.482025862069 6.59352836879441  30.482025862069 7.69193262411352  L 30.482025862069 8.23803191489367  C 30.482025862069 9.15026595744689  29.9339224137931 10.614804964539  28.4640086206896 12.8054078014185  L 28.2771551724138 13.7176418439717  C 27.909676724138 14.2699468085108  27.1747198275862 14.6360815602837  25.8916594827587 14.6360815602837  L 15.4340948275862 13.3577127659576  L 15.4340948275862 13.5376773049646  L 14.6991379310346 15.91445035461  L 14.6991379310346 16.1006205673759  L 14.5122844827586 16.2805851063831  C 11.7593103448276 20.1218971631206  9.92191810344835 22.8648049645391  9.74129310344827 24.6892730496455  C 9.55443965517242 25.6077127659576  10.656875 28.8967198581562  13.0423706896552 34.5625000000001  L 14.6991379310346 38.4038120567377  C 15.4340948275862 40.2344858156031  14.8797629310345 42.4250886524824  13.2292241379311 44.8018617021277  L 9.92191810344835 48.0970744680852  L 4.41596982758625 48.0970744680852  L 3.31353448275857 42.0651595744682  L 1.84362068965518 49.5616134751774  L 4.22911637931031 53.216755319149  C 4.41596982758625 53.7628546099292  4.41596982758625 54.1289893617022  4.22911637931031 54.3151595744681  L 3.86163793103449 54.6812943262412  C 3.12668103448274 55.2335992907801  2.03047413793104 57.0580673758867  0.928038793103468 60.1671099290781  C -0.174396551724101 62.9100177304965  0.373706896551681 65.652925531915  2.57857758620693 68.5757978723404  L 6.98209051724135 68.5757978723404  C 8.44577586206896 68.9419326241135  10.6506465517241 71.3187056737589  13.7710991379311 75.5261524822696  L 13.9579525862069 75.8922872340427  C 13.9579525862069 77.1706560283689  14.5060560344827 78.0828900709221  15.4278663793103 78.8151595744682  L 25.1629310344828 87.7699468085107  L 25.1629310344828 87.9499113475176  L 29.5664439655172 93.4357269503546  L 32.1325646551724 93.4357269503546  L 34.8855387931035 88.4960106382979  L 35.2530172413793 88.1298758865248  L 35.4398706896551 87.9437056737588  L 42.2288793103448 89.5944148936171  L 42.2288793103448 89.7743794326241  L 42.2288793103448 90.1405141843971  L 43.1444612068966 94.7140957446809  L 51.2165301724137 104.035017730496  L 53.9695043103448 105.133421985816  L 54.1563577586208 105.319592198582  L 55.4394181034483 106.051861702128  L 55.6262715517241 106.238031914893  L 61.6803232758621 115.199024822695  L 66.6381681034483 114.466755319149  L 67.0056465517241 114.466755319149  L 67.1862715517242 114.466755319149  L 67.55375 114.832890070922  L 67.7406034482759 115.199024822695  L 71.9572629310345 123.973847517731  L 77.0957327586207 127.082890070922  L 81.3123922413794 128.181294326241  L 83.3304094827587 133.853280141844  L 86.4508620689655 133.853280141844  L 86.6377155172415 134.033244680851  L 93.2460991379311 137.694592198582  L 93.2460991379311 137.874556737588  L 93.4267241379311 138.054521276596  L 98.1977155172414 143.906471631205  L 105.167349137931 142.628102836879  L 105.534827586207 142.628102836879  L 108.100948275862 143.726507092198  L 108.287801724138 143.726507092198  L 112.691314655173 147.567819148936  L 120.58275862069 148.113918439716  L 125.35375 147.38164893617  C 131.78150862069 146.283244680851  135.817543103448 146.83554964539  137.281228448276 148.480053191489  C 138.196810344828 149.944592198582  137.648706896552 151.409131205674  135.443836206897 153.23359929078  L 133.606443965517 155.058067375886  C 133.058340517241 155.976507092199  133.787068965517 157.434840425532  136.178793103448 159.63164893617  L 136.359418103448 159.997783687943  L 136.178793103448 159.997783687943  L 137.648706896552 161.096187943262  L 138.196810344828 160.550088652482  C 142.787176724138 151.955230496454  146.455732758621 147.201684397163  149.021853448276 146.28945035461  C 151.774827586207 145.377216312057  157.461400862069 147.753989361702  166.455280172414 153.239804964539  L 177.467176724138 155.250443262411  L 177.286551724138 155.616578014184  L 177.286551724138 155.982712765957  L 176.738448275862 161.102393617021  L 182.244396551724 161.834663120567  L 182.063771551724 168.785017730496  C 183.714310344828 171.894060283688  184.997370689655 173.718528368794  185.732327586207 174.270833333333  C 186.834762931034 175.003102836879  192.340711206897 175.003102836879  202.063318965517 174.270833333333  L 207.749892241379 171.341755319149  L 213.255840517241 163.665336879433  L 219.677370689655 163.479166666667  L 222.797823275862 162.566932624114  L 234.912155172414 155.616578014184  L 235.092780172414 155.616578014184  L 235.27963362069 155.436613475177  C 242.255495689655 154.704343971631  246.291530172414 154.524379432624  247.393965517241 155.436613475177  L 255.285409482759 162.020833333333  L 257.670905172414 162.933067375887  L 258.03838362069 163.29920212766  L 261.158836206897 164.577570921986  L 261.339461206897 164.763741134752  L 261.339461206897 164.211436170213  L 261.339461206897 164.031471631206  L 261.339461206897 163.84530141844  L 261.339461206897 163.665336879433  L 262.622521551724 158.179521276596  C 262.074418103448 156.528812056738  262.074418103448 155.250443262411  262.622521551724 154.152039007092  C 262.99 153.239804964539  263.905581896552 152.6875  265.375495689655 152.321365248227  C 268.128469827586 151.775265957447  270.694590517241 154.152039007092  273.266939655173 159.271719858156  L 273.634418103448 159.451684397163  L 273.821271551724 159.451684397163  L 278.411637931035 157.441046099291  C 279.327219827586 157.254875886525  279.694698275862 156.342641843972  279.694698275862 155.430407801418  L 278.77911637931 152.14140070922  L 278.77911637931 151.955230496454  C 278.411637931035 150.490691489362  278.77911637931 149.212322695036  280.249030172414 148.666223404255  L 281.899568965517 147.387854609929  L 285.935603448276 143.000443262411  L 288.688577586207 136.962322695035  C 286.303081896552 133.121010638298  285.568125 130.37810283688  286.303081896552 128.547429078014  L 286.851185344828 123.42774822695  C 285.74875 121.230939716312  285.200646551724 119.772606382979  285.200646551724 118.488031914894  C 285.200646551724 117.941932624114  284.465689655172 116.297429078014  283.002004310345 114.100620567376  L 282.815150862069 114.100620567376  L 282.815150862069 113.554521276596  L 282.267047413793 106.97030141844  C 282.080193965517 105.871897163121  281.899568965517 104.413563829787  282.267047413793 102.582890070922  C 280.61650862069 101.298315602837  279.514073275862 100.019946808511  278.77911637931 98.7415780141844  L 276.026142241379 95.080230496454  L 275.845517241379 94.9002659574468  L 275.845517241379 94.5403368794326  L 275.845517241379 94.3541666666667  L 274.929935344828 89.780585106383  L 272.176961206897 87.5837765957447  L 272.176961206897 87.7699468085107  L 266.851637931034 83.5625  L 266.851637931034 83.9286347517731  L 267.586594827586 89.6006205673759  L 267.586594827586 89.780585106383  L 267.586594827586 90.3266843971631  L 264.833620689655 91.6112588652484  L 264.466142241379 95.0864361702129  L 264.466142241379 95.6387411347519  L 258.044612068965 98.1954787234043  L 255.845969827586 93.0757978723404  L 254.556681034483 92.7096631205675  L 252.538663793103 94.7203014184398  L 251.255603448276 98.3754432624114  L 246.665237068966 99.6538120567376  L 244.092887931035 97.8231382978723  L 240.424331896552 96.7247340425532  L 239.321896551724 91.6050531914894  L 237.858211206896 88.4960106382979  L 235.653340517241 87.5775709219857  L 235.466487068965 87.2114361702127  L 233.815948275862 85.2007978723403  L 232.165409482759 82.2779255319149  L 229.599288793103 78.9889184397164  L 227.394418103448 78.9889184397164  L 223.725862068965 80.2672872340426  L 223.53900862069 80.4534574468084  L 214.183879310345 79.9073581560283  L 207.027392241379 78.442819148936  C 206.479288793103 78.0766843971629  205.19 77.5305851063829  203.171982758621 76.2522163120567  L 197.666034482759 74.4215425531913  C 193.443146551724 73.3231382978722  191.057650862069 72.410904255319  190.503318965517 71.3124999999999  L 189.587737068966 70.7601950354609  L 188.304676724138 70.3940602836879  L 185.003599137931 68.5633865248226  L 184.636120689655 68.3834219858155  C 184.088017241379 67.6511524822695  183.533685344827 67.1050531914892  183.166206896552 66.3727836879432  L 182.43125 64.722074468085  L 180.961336206896 62.5314716312056  L 178.575840517241 61.4330673758865  L 177.66025862069 61.9791666666666  L 176.738448275862 62.7114361702127  L 176.190344827586 63.0775709219857  C 175.274762931034 63.8098404255318  174.352952586207 64.1759751773048  173.617995689655 64.3559397163119  C 172.148081896552 64.722074468085  170.684396551724 63.9898049645388  169.027629310345 62.1653368794325  L 165.545926724138 58.503989361702  C 164.26286637931 56.8594858156027  163.347284482759 55.5749113475176  162.973577586207 54.6626773049644  L 162.051767241379 53.1981382978722  C 160.768706896552 51.9197695035459  159.853125 50.6414007092197  159.298793103448 49.5429964539005  C 158.750689655172 47.8984929078013  158.563836206896 46.4339539007091  159.118168103448 44.9694148936169  L 159.118168103448 44.7894503546098  L 161.503663793103 40.7681737588651  L 162.786724137931 36.5607269503545  L 163.341056034483 33.8178191489361  L 162.419245689655 29.6165780141844  L 159.666271551724 27.239804964539  L 160.214375 23.7646276595744  C 160.214375 21.2016843971631  161.129956896552 19.9233156028369  162.967349137931 19.5633865248227  C 163.521681034483 19.3772163120567  163.882931034483 19.0110815602836  163.702306034483 18.2788120567376  L 163.702306034483 18.0988475177304  L 163.882931034483 14.4375  L 163.882931034483 14.2575354609928  L 163.882931034483 10.0500886524823  L 163.515452586207 10.0500886524823  L 163.334827586207 9.86391843971626  L 162.599870689655 9.4977836879433  L 162.599870689655 9.31781914893622  L 162.413017241379 9.31781914893622  L 159.111939655172 7.12101063829789  L 158.931314655172 7.12101063829789  L 156.358965517241 4.93040780141837  L 147.738793103448 3.28590425531911  L 144.985818965517 1.27526595744678  L 139.841120689655 1.27526595744678  C 139.106163793103 1.27526595744678  138.190581896552 1.82136524822693  136.907521551724 2.55363475177296  L 136.726896551724 2.55363475177296  L 132.690862068965 4  L 122.594547413793 4  C 121.130862068965 4.38430851063833  119.841573275862 4.75044326241141  119.10661637931 5.48271276595744  C 118.004181034483 6.39494680851067  115.986163793103 7.1272163120567  113.233189655172 8.03945035460993  L 108.462198275862 9.13785460992904  L 108.462198275862 9.31781914893622  L 108.094719827586 9.31781914893622  L 101.299482758621 8.58554964539019  L 100.751379310345 8.39937943262407  L 100.938232758621 8.58554964539019  L 100.751379310345 8.58554964539007  L 98.3658836206896 8.219414893617  L 94.323620689655 9.4977836879433  L 86.2515517241378 10.2300531914893  L 86.0646982758619 10.2300531914893  L 85.8840732758619 10.0500886524823  L 81.8418103448274 8.58554964539007  L 78.5407327586205 8.58554964539007  C 77.0708189655171 8.219414893617  75.4202801724136 7.12101063829789  73.5828879310343 4.93040780141837  L 73.3960344827585 4.56427304964541  C 73.0285560344826 2.91976950354615  72.4804525862068 2.1875  72.2935991379308 1.82136524822693  L 71.3717887931033 1.27526595744678  L 69.7212499999998 0.35682624113474  L 68.2513362068963 1.82136524822693  L 68.0644827586205 2.18749999999989  L 62.1910560344826 4.56427304964541  L 62.0104310344826 4.56427304964541  L 61.6429525862067 4.56427304964541  L 54.4864655172412 5.29654255319144  C 53.3840301724136 5.29654255319144  51.3660129310343 4.7504432624113  48.6130387931032 4.01817375886526  L 42.3721336206895 2.91976950354604  L 42.1915086206894 2.91976950354604  L 38.5167241379308 0.909131205673702  L 35.4398706896551 0.909131205673702  Z " fill-rule="evenodd" />
    </mask>
  </defs>
  <g transform="matrix(1 0 0 1 -609 -512 )">
    <path d="M 35.4398706896551 0.909131205673702  L 35.4398706896551 0.921542553191557  L 35.4398706896551 1.10150709219863  C 34.7049137931035 2.75221631205682  33.4218534482758 3.84441489361711  31.9519396551725 5.12898936170211  C 30.8495043103449 5.67508865248237  30.482025862069 6.59352836879441  30.482025862069 7.69193262411352  L 30.482025862069 8.23803191489367  C 30.482025862069 9.15026595744689  29.9339224137931 10.614804964539  28.4640086206896 12.8054078014185  L 28.2771551724138 13.7176418439717  C 27.909676724138 14.2699468085108  27.1747198275862 14.6360815602837  25.8916594827587 14.6360815602837  L 15.4340948275862 13.3577127659576  L 15.4340948275862 13.5376773049646  L 14.6991379310346 15.91445035461  L 14.6991379310346 16.1006205673759  L 14.5122844827586 16.2805851063831  C 11.7593103448276 20.1218971631206  9.92191810344835 22.8648049645391  9.74129310344827 24.6892730496455  C 9.55443965517242 25.6077127659576  10.656875 28.8967198581562  13.0423706896552 34.5625000000001  L 14.6991379310346 38.4038120567377  C 15.4340948275862 40.2344858156031  14.8797629310345 42.4250886524824  13.2292241379311 44.8018617021277  L 9.92191810344835 48.0970744680852  L 4.41596982758625 48.0970744680852  L 3.31353448275857 42.0651595744682  L 1.84362068965518 49.5616134751774  L 4.22911637931031 53.216755319149  C 4.41596982758625 53.7628546099292  4.41596982758625 54.1289893617022  4.22911637931031 54.3151595744681  L 3.86163793103449 54.6812943262412  C 3.12668103448274 55.2335992907801  2.03047413793104 57.0580673758867  0.928038793103468 60.1671099290781  C -0.174396551724101 62.9100177304965  0.373706896551681 65.652925531915  2.57857758620693 68.5757978723404  L 6.98209051724135 68.5757978723404  C 8.44577586206896 68.9419326241135  10.6506465517241 71.3187056737589  13.7710991379311 75.5261524822696  L 13.9579525862069 75.8922872340427  C 13.9579525862069 77.1706560283689  14.5060560344827 78.0828900709221  15.4278663793103 78.8151595744682  L 25.1629310344828 87.7699468085107  L 25.1629310344828 87.9499113475176  L 29.5664439655172 93.4357269503546  L 32.1325646551724 93.4357269503546  L 34.8855387931035 88.4960106382979  L 35.2530172413793 88.1298758865248  L 35.4398706896551 87.9437056737588  L 42.2288793103448 89.5944148936171  L 42.2288793103448 89.7743794326241  L 42.2288793103448 90.1405141843971  L 43.1444612068966 94.7140957446809  L 51.2165301724137 104.035017730496  L 53.9695043103448 105.133421985816  L 54.1563577586208 105.319592198582  L 55.4394181034483 106.051861702128  L 55.6262715517241 106.238031914893  L 61.6803232758621 115.199024822695  L 66.6381681034483 114.466755319149  L 67.0056465517241 114.466755319149  L 67.1862715517242 114.466755319149  L 67.55375 114.832890070922  L 67.7406034482759 115.199024822695  L 71.9572629310345 123.973847517731  L 77.0957327586207 127.082890070922  L 81.3123922413794 128.181294326241  L 83.3304094827587 133.853280141844  L 86.4508620689655 133.853280141844  L 86.6377155172415 134.033244680851  L 93.2460991379311 137.694592198582  L 93.2460991379311 137.874556737588  L 93.4267241379311 138.054521276596  L 98.1977155172414 143.906471631205  L 105.167349137931 142.628102836879  L 105.534827586207 142.628102836879  L 108.100948275862 143.726507092198  L 108.287801724138 143.726507092198  L 112.691314655173 147.567819148936  L 120.58275862069 148.113918439716  L 125.35375 147.38164893617  C 131.78150862069 146.283244680851  135.817543103448 146.83554964539  137.281228448276 148.480053191489  C 138.196810344828 149.944592198582  137.648706896552 151.409131205674  135.443836206897 153.23359929078  L 133.606443965517 155.058067375886  C 133.058340517241 155.976507092199  133.787068965517 157.434840425532  136.178793103448 159.63164893617  L 136.359418103448 159.997783687943  L 136.178793103448 159.997783687943  L 137.648706896552 161.096187943262  L 138.196810344828 160.550088652482  C 142.787176724138 151.955230496454  146.455732758621 147.201684397163  149.021853448276 146.28945035461  C 151.774827586207 145.377216312057  157.461400862069 147.753989361702  166.455280172414 153.239804964539  L 177.467176724138 155.250443262411  L 177.286551724138 155.616578014184  L 177.286551724138 155.982712765957  L 176.738448275862 161.102393617021  L 182.244396551724 161.834663120567  L 182.063771551724 168.785017730496  C 183.714310344828 171.894060283688  184.997370689655 173.718528368794  185.732327586207 174.270833333333  C 186.834762931034 175.003102836879  192.340711206897 175.003102836879  202.063318965517 174.270833333333  L 207.749892241379 171.341755319149  L 213.255840517241 163.665336879433  L 219.677370689655 163.479166666667  L 222.797823275862 162.566932624114  L 234.912155172414 155.616578014184  L 235.092780172414 155.616578014184  L 235.27963362069 155.436613475177  C 242.255495689655 154.704343971631  246.291530172414 154.524379432624  247.393965517241 155.436613475177  L 255.285409482759 162.020833333333  L 257.670905172414 162.933067375887  L 258.03838362069 163.29920212766  L 261.158836206897 164.577570921986  L 261.339461206897 164.763741134752  L 261.339461206897 164.211436170213  L 261.339461206897 164.031471631206  L 261.339461206897 163.84530141844  L 261.339461206897 163.665336879433  L 262.622521551724 158.179521276596  C 262.074418103448 156.528812056738  262.074418103448 155.250443262411  262.622521551724 154.152039007092  C 262.99 153.239804964539  263.905581896552 152.6875  265.375495689655 152.321365248227  C 268.128469827586 151.775265957447  270.694590517241 154.152039007092  273.266939655173 159.271719858156  L 273.634418103448 159.451684397163  L 273.821271551724 159.451684397163  L 278.411637931035 157.441046099291  C 279.327219827586 157.254875886525  279.694698275862 156.342641843972  279.694698275862 155.430407801418  L 278.77911637931 152.14140070922  L 278.77911637931 151.955230496454  C 278.411637931035 150.490691489362  278.77911637931 149.212322695036  280.249030172414 148.666223404255  L 281.899568965517 147.387854609929  L 285.935603448276 143.000443262411  L 288.688577586207 136.962322695035  C 286.303081896552 133.121010638298  285.568125 130.37810283688  286.303081896552 128.547429078014  L 286.851185344828 123.42774822695  C 285.74875 121.230939716312  285.200646551724 119.772606382979  285.200646551724 118.488031914894  C 285.200646551724 117.941932624114  284.465689655172 116.297429078014  283.002004310345 114.100620567376  L 282.815150862069 114.100620567376  L 282.815150862069 113.554521276596  L 282.267047413793 106.97030141844  C 282.080193965517 105.871897163121  281.899568965517 104.413563829787  282.267047413793 102.582890070922  C 280.61650862069 101.298315602837  279.514073275862 100.019946808511  278.77911637931 98.7415780141844  L 276.026142241379 95.080230496454  L 275.845517241379 94.9002659574468  L 275.845517241379 94.5403368794326  L 275.845517241379 94.3541666666667  L 274.929935344828 89.780585106383  L 272.176961206897 87.5837765957447  L 272.176961206897 87.7699468085107  L 266.851637931034 83.5625  L 266.851637931034 83.9286347517731  L 267.586594827586 89.6006205673759  L 267.586594827586 89.780585106383  L 267.586594827586 90.3266843971631  L 264.833620689655 91.6112588652484  L 264.466142241379 95.0864361702129  L 264.466142241379 95.6387411347519  L 258.044612068965 98.1954787234043  L 255.845969827586 93.0757978723404  L 254.556681034483 92.7096631205675  L 252.538663793103 94.7203014184398  L 251.255603448276 98.3754432624114  L 246.665237068966 99.6538120567376  L 244.092887931035 97.8231382978723  L 240.424331896552 96.7247340425532  L 239.321896551724 91.6050531914894  L 237.858211206896 88.4960106382979  L 235.653340517241 87.5775709219857  L 235.466487068965 87.2114361702127  L 233.815948275862 85.2007978723403  L 232.165409482759 82.2779255319149  L 229.599288793103 78.9889184397164  L 227.394418103448 78.9889184397164  L 223.725862068965 80.2672872340426  L 223.53900862069 80.4534574468084  L 214.183879310345 79.9073581560283  L 207.027392241379 78.442819148936  C 206.479288793103 78.0766843971629  205.19 77.5305851063829  203.171982758621 76.2522163120567  L 197.666034482759 74.4215425531913  C 193.443146551724 73.3231382978722  191.057650862069 72.410904255319  190.503318965517 71.3124999999999  L 189.587737068966 70.7601950354609  L 188.304676724138 70.3940602836879  L 185.003599137931 68.5633865248226  L 184.636120689655 68.3834219858155  C 184.088017241379 67.6511524822695  183.533685344827 67.1050531914892  183.166206896552 66.3727836879432  L 182.43125 64.722074468085  L 180.961336206896 62.5314716312056  L 178.575840517241 61.4330673758865  L 177.66025862069 61.9791666666666  L 176.738448275862 62.7114361702127  L 176.190344827586 63.0775709219857  C 175.274762931034 63.8098404255318  174.352952586207 64.1759751773048  173.617995689655 64.3559397163119  C 172.148081896552 64.722074468085  170.684396551724 63.9898049645388  169.027629310345 62.1653368794325  L 165.545926724138 58.503989361702  C 164.26286637931 56.8594858156027  163.347284482759 55.5749113475176  162.973577586207 54.6626773049644  L 162.051767241379 53.1981382978722  C 160.768706896552 51.9197695035459  159.853125 50.6414007092197  159.298793103448 49.5429964539005  C 158.750689655172 47.8984929078013  158.563836206896 46.4339539007091  159.118168103448 44.9694148936169  L 159.118168103448 44.7894503546098  L 161.503663793103 40.7681737588651  L 162.786724137931 36.5607269503545  L 163.341056034483 33.8178191489361  L 162.419245689655 29.6165780141844  L 159.666271551724 27.239804964539  L 160.214375 23.7646276595744  C 160.214375 21.2016843971631  161.129956896552 19.9233156028369  162.967349137931 19.5633865248227  C 163.521681034483 19.3772163120567  163.882931034483 19.0110815602836  163.702306034483 18.2788120567376  L 163.702306034483 18.0988475177304  L 163.882931034483 14.4375  L 163.882931034483 14.2575354609928  L 163.882931034483 10.0500886524823  L 163.515452586207 10.0500886524823  L 163.334827586207 9.86391843971626  L 162.599870689655 9.4977836879433  L 162.599870689655 9.31781914893622  L 162.413017241379 9.31781914893622  L 159.111939655172 7.12101063829789  L 158.931314655172 7.12101063829789  L 156.358965517241 4.93040780141837  L 147.738793103448 3.28590425531911  L 144.985818965517 1.27526595744678  L 139.841120689655 1.27526595744678  C 139.106163793103 1.27526595744678  138.190581896552 1.82136524822693  136.907521551724 2.55363475177296  L 136.726896551724 2.55363475177296  L 132.690862068965 4  L 122.594547413793 4  C 121.130862068965 4.38430851063833  119.841573275862 4.75044326241141  119.10661637931 5.48271276595744  C 118.004181034483 6.39494680851067  115.986163793103 7.1272163120567  113.233189655172 8.03945035460993  L 108.462198275862 9.13785460992904  L 108.462198275862 9.31781914893622  L 108.094719827586 9.31781914893622  L 101.299482758621 8.58554964539019  L 100.751379310345 8.39937943262407  L 100.938232758621 8.58554964539019  L 100.751379310345 8.58554964539007  L 98.3658836206896 8.219414893617  L 94.323620689655 9.4977836879433  L 86.2515517241378 10.2300531914893  L 86.0646982758619 10.2300531914893  L 85.8840732758619 10.0500886524823  L 81.8418103448274 8.58554964539007  L 78.5407327586205 8.58554964539007  C 77.0708189655171 8.219414893617  75.4202801724136 7.12101063829789  73.5828879310343 4.93040780141837  L 73.3960344827585 4.56427304964541  C 73.0285560344826 2.91976950354615  72.4804525862068 2.1875  72.2935991379308 1.82136524822693  L 71.3717887931033 1.27526595744678  L 69.7212499999998 0.35682624113474  L 68.2513362068963 1.82136524822693  L 68.0644827586205 2.18749999999989  L 62.1910560344826 4.56427304964541  L 62.0104310344826 4.56427304964541  L 61.6429525862067 4.56427304964541  L 54.4864655172412 5.29654255319144  C 53.3840301724136 5.29654255319144  51.3660129310343 4.7504432624113  48.6130387931032 4.01817375886526  L 42.3721336206895 2.91976950354604  L 42.1915086206894 2.91976950354604  L 38.5167241379308 0.909131205673702  L 35.4398706896551 0.909131205673702  Z " fill-rule="nonzero" fill="#00ccff" stroke="none" fill-opacity="0.298039215686275" transform="matrix(1 0 0 1 609 512 )" />
    <path d="M 35.4398706896551 0.909131205673702  L 35.4398706896551 0.921542553191557  L 35.4398706896551 1.10150709219863  C 34.7049137931035 2.75221631205682  33.4218534482758 3.84441489361711  31.9519396551725 5.12898936170211  C 30.8495043103449 5.67508865248237  30.482025862069 6.59352836879441  30.482025862069 7.69193262411352  L 30.482025862069 8.23803191489367  C 30.482025862069 9.15026595744689  29.9339224137931 10.614804964539  28.4640086206896 12.8054078014185  L 28.2771551724138 13.7176418439717  C 27.909676724138 14.2699468085108  27.1747198275862 14.6360815602837  25.8916594827587 14.6360815602837  L 15.4340948275862 13.3577127659576  L 15.4340948275862 13.5376773049646  L 14.6991379310346 15.91445035461  L 14.6991379310346 16.1006205673759  L 14.5122844827586 16.2805851063831  C 11.7593103448276 20.1218971631206  9.92191810344835 22.8648049645391  9.74129310344827 24.6892730496455  C 9.55443965517242 25.6077127659576  10.656875 28.8967198581562  13.0423706896552 34.5625000000001  L 14.6991379310346 38.4038120567377  C 15.4340948275862 40.2344858156031  14.8797629310345 42.4250886524824  13.2292241379311 44.8018617021277  L 9.92191810344835 48.0970744680852  L 4.41596982758625 48.0970744680852  L 3.31353448275857 42.0651595744682  L 1.84362068965518 49.5616134751774  L 4.22911637931031 53.216755319149  C 4.41596982758625 53.7628546099292  4.41596982758625 54.1289893617022  4.22911637931031 54.3151595744681  L 3.86163793103449 54.6812943262412  C 3.12668103448274 55.2335992907801  2.03047413793104 57.0580673758867  0.928038793103468 60.1671099290781  C -0.174396551724101 62.9100177304965  0.373706896551681 65.652925531915  2.57857758620693 68.5757978723404  L 6.98209051724135 68.5757978723404  C 8.44577586206896 68.9419326241135  10.6506465517241 71.3187056737589  13.7710991379311 75.5261524822696  L 13.9579525862069 75.8922872340427  C 13.9579525862069 77.1706560283689  14.5060560344827 78.0828900709221  15.4278663793103 78.8151595744682  L 25.1629310344828 87.7699468085107  L 25.1629310344828 87.9499113475176  L 29.5664439655172 93.4357269503546  L 32.1325646551724 93.4357269503546  L 34.8855387931035 88.4960106382979  L 35.2530172413793 88.1298758865248  L 35.4398706896551 87.9437056737588  L 42.2288793103448 89.5944148936171  L 42.2288793103448 89.7743794326241  L 42.2288793103448 90.1405141843971  L 43.1444612068966 94.7140957446809  L 51.2165301724137 104.035017730496  L 53.9695043103448 105.133421985816  L 54.1563577586208 105.319592198582  L 55.4394181034483 106.051861702128  L 55.6262715517241 106.238031914893  L 61.6803232758621 115.199024822695  L 66.6381681034483 114.466755319149  L 67.0056465517241 114.466755319149  L 67.1862715517242 114.466755319149  L 67.55375 114.832890070922  L 67.7406034482759 115.199024822695  L 71.9572629310345 123.973847517731  L 77.0957327586207 127.082890070922  L 81.3123922413794 128.181294326241  L 83.3304094827587 133.853280141844  L 86.4508620689655 133.853280141844  L 86.6377155172415 134.033244680851  L 93.2460991379311 137.694592198582  L 93.2460991379311 137.874556737588  L 93.4267241379311 138.054521276596  L 98.1977155172414 143.906471631205  L 105.167349137931 142.628102836879  L 105.534827586207 142.628102836879  L 108.100948275862 143.726507092198  L 108.287801724138 143.726507092198  L 112.691314655173 147.567819148936  L 120.58275862069 148.113918439716  L 125.35375 147.38164893617  C 131.78150862069 146.283244680851  135.817543103448 146.83554964539  137.281228448276 148.480053191489  C 138.196810344828 149.944592198582  137.648706896552 151.409131205674  135.443836206897 153.23359929078  L 133.606443965517 155.058067375886  C 133.058340517241 155.976507092199  133.787068965517 157.434840425532  136.178793103448 159.63164893617  L 136.359418103448 159.997783687943  L 136.178793103448 159.997783687943  L 137.648706896552 161.096187943262  L 138.196810344828 160.550088652482  C 142.787176724138 151.955230496454  146.455732758621 147.201684397163  149.021853448276 146.28945035461  C 151.774827586207 145.377216312057  157.461400862069 147.753989361702  166.455280172414 153.239804964539  L 177.467176724138 155.250443262411  L 177.286551724138 155.616578014184  L 177.286551724138 155.982712765957  L 176.738448275862 161.102393617021  L 182.244396551724 161.834663120567  L 182.063771551724 168.785017730496  C 183.714310344828 171.894060283688  184.997370689655 173.718528368794  185.732327586207 174.270833333333  C 186.834762931034 175.003102836879  192.340711206897 175.003102836879  202.063318965517 174.270833333333  L 207.749892241379 171.341755319149  L 213.255840517241 163.665336879433  L 219.677370689655 163.479166666667  L 222.797823275862 162.566932624114  L 234.912155172414 155.616578014184  L 235.092780172414 155.616578014184  L 235.27963362069 155.436613475177  C 242.255495689655 154.704343971631  246.291530172414 154.524379432624  247.393965517241 155.436613475177  L 255.285409482759 162.020833333333  L 257.670905172414 162.933067375887  L 258.03838362069 163.29920212766  L 261.158836206897 164.577570921986  L 261.339461206897 164.763741134752  L 261.339461206897 164.211436170213  L 261.339461206897 164.031471631206  L 261.339461206897 163.84530141844  L 261.339461206897 163.665336879433  L 262.622521551724 158.179521276596  C 262.074418103448 156.528812056738  262.074418103448 155.250443262411  262.622521551724 154.152039007092  C 262.99 153.239804964539  263.905581896552 152.6875  265.375495689655 152.321365248227  C 268.128469827586 151.775265957447  270.694590517241 154.152039007092  273.266939655173 159.271719858156  L 273.634418103448 159.451684397163  L 273.821271551724 159.451684397163  L 278.411637931035 157.441046099291  C 279.327219827586 157.254875886525  279.694698275862 156.342641843972  279.694698275862 155.430407801418  L 278.77911637931 152.14140070922  L 278.77911637931 151.955230496454  C 278.411637931035 150.490691489362  278.77911637931 149.212322695036  280.249030172414 148.666223404255  L 281.899568965517 147.387854609929  L 285.935603448276 143.000443262411  L 288.688577586207 136.962322695035  C 286.303081896552 133.121010638298  285.568125 130.37810283688  286.303081896552 128.547429078014  L 286.851185344828 123.42774822695  C 285.74875 121.230939716312  285.200646551724 119.772606382979  285.200646551724 118.488031914894  C 285.200646551724 117.941932624114  284.465689655172 116.297429078014  283.002004310345 114.100620567376  L 282.815150862069 114.100620567376  L 282.815150862069 113.554521276596  L 282.267047413793 106.97030141844  C 282.080193965517 105.871897163121  281.899568965517 104.413563829787  282.267047413793 102.582890070922  C 280.61650862069 101.298315602837  279.514073275862 100.019946808511  278.77911637931 98.7415780141844  L 276.026142241379 95.080230496454  L 275.845517241379 94.9002659574468  L 275.845517241379 94.5403368794326  L 275.845517241379 94.3541666666667  L 274.929935344828 89.780585106383  L 272.176961206897 87.5837765957447  L 272.176961206897 87.7699468085107  L 266.851637931034 83.5625  L 266.851637931034 83.9286347517731  L 267.586594827586 89.6006205673759  L 267.586594827586 89.780585106383  L 267.586594827586 90.3266843971631  L 264.833620689655 91.6112588652484  L 264.466142241379 95.0864361702129  L 264.466142241379 95.6387411347519  L 258.044612068965 98.1954787234043  L 255.845969827586 93.0757978723404  L 254.556681034483 92.7096631205675  L 252.538663793103 94.7203014184398  L 251.255603448276 98.3754432624114  L 246.665237068966 99.6538120567376  L 244.092887931035 97.8231382978723  L 240.424331896552 96.7247340425532  L 239.321896551724 91.6050531914894  L 237.858211206896 88.4960106382979  L 235.653340517241 87.5775709219857  L 235.466487068965 87.2114361702127  L 233.815948275862 85.2007978723403  L 232.165409482759 82.2779255319149  L 229.599288793103 78.9889184397164  L 227.394418103448 78.9889184397164  L 223.725862068965 80.2672872340426  L 223.53900862069 80.4534574468084  L 214.183879310345 79.9073581560283  L 207.027392241379 78.442819148936  C 206.479288793103 78.0766843971629  205.19 77.5305851063829  203.171982758621 76.2522163120567  L 197.666034482759 74.4215425531913  C 193.443146551724 73.3231382978722  191.057650862069 72.410904255319  190.503318965517 71.3124999999999  L 189.587737068966 70.7601950354609  L 188.304676724138 70.3940602836879  L 185.003599137931 68.5633865248226  L 184.636120689655 68.3834219858155  C 184.088017241379 67.6511524822695  183.533685344827 67.1050531914892  183.166206896552 66.3727836879432  L 182.43125 64.722074468085  L 180.961336206896 62.5314716312056  L 178.575840517241 61.4330673758865  L 177.66025862069 61.9791666666666  L 176.738448275862 62.7114361702127  L 176.190344827586 63.0775709219857  C 175.274762931034 63.8098404255318  174.352952586207 64.1759751773048  173.617995689655 64.3559397163119  C 172.148081896552 64.722074468085  170.684396551724 63.9898049645388  169.027629310345 62.1653368794325  L 165.545926724138 58.503989361702  C 164.26286637931 56.8594858156027  163.347284482759 55.5749113475176  162.973577586207 54.6626773049644  L 162.051767241379 53.1981382978722  C 160.768706896552 51.9197695035459  159.853125 50.6414007092197  159.298793103448 49.5429964539005  C 158.750689655172 47.8984929078013  158.563836206896 46.4339539007091  159.118168103448 44.9694148936169  L 159.118168103448 44.7894503546098  L 161.503663793103 40.7681737588651  L 162.786724137931 36.5607269503545  L 163.341056034483 33.8178191489361  L 162.419245689655 29.6165780141844  L 159.666271551724 27.239804964539  L 160.214375 23.7646276595744  C 160.214375 21.2016843971631  161.129956896552 19.9233156028369  162.967349137931 19.5633865248227  C 163.521681034483 19.3772163120567  163.882931034483 19.0110815602836  163.702306034483 18.2788120567376  L 163.702306034483 18.0988475177304  L 163.882931034483 14.4375  L 163.882931034483 14.2575354609928  L 163.882931034483 10.0500886524823  L 163.515452586207 10.0500886524823  L 163.334827586207 9.86391843971626  L 162.599870689655 9.4977836879433  L 162.599870689655 9.31781914893622  L 162.413017241379 9.31781914893622  L 159.111939655172 7.12101063829789  L 158.931314655172 7.12101063829789  L 156.358965517241 4.93040780141837  L 147.738793103448 3.28590425531911  L 144.985818965517 1.27526595744678  L 139.841120689655 1.27526595744678  C 139.106163793103 1.27526595744678  138.190581896552 1.82136524822693  136.907521551724 2.55363475177296  L 136.726896551724 2.55363475177296  L 132.690862068965 4  L 122.594547413793 4  C 121.130862068965 4.38430851063833  119.841573275862 4.75044326241141  119.10661637931 5.48271276595744  C 118.004181034483 6.39494680851067  115.986163793103 7.1272163120567  113.233189655172 8.03945035460993  L 108.462198275862 9.13785460992904  L 108.462198275862 9.31781914893622  L 108.094719827586 9.31781914893622  L 101.299482758621 8.58554964539019  L 100.751379310345 8.39937943262407  L 100.938232758621 8.58554964539019  L 100.751379310345 8.58554964539007  L 98.3658836206896 8.219414893617  L 94.323620689655 9.4977836879433  L 86.2515517241378 10.2300531914893  L 86.0646982758619 10.2300531914893  L 85.8840732758619 10.0500886524823  L 81.8418103448274 8.58554964539007  L 78.5407327586205 8.58554964539007  C 77.0708189655171 8.219414893617  75.4202801724136 7.12101063829789  73.5828879310343 4.93040780141837  L 73.3960344827585 4.56427304964541  C 73.0285560344826 2.91976950354615  72.4804525862068 2.1875  72.2935991379308 1.82136524822693  L 71.3717887931033 1.27526595744678  L 69.7212499999998 0.35682624113474  L 68.2513362068963 1.82136524822693  L 68.0644827586205 2.18749999999989  L 62.1910560344826 4.56427304964541  L 62.0104310344826 4.56427304964541  L 61.6429525862067 4.56427304964541  L 54.4864655172412 5.29654255319144  C 53.3840301724136 5.29654255319144  51.3660129310343 4.7504432624113  48.6130387931032 4.01817375886526  L 42.3721336206895 2.91976950354604  L 42.1915086206894 2.91976950354604  L 38.5167241379308 0.909131205673702  L 35.4398706896551 0.909131205673702  Z " stroke-width="4" stroke="#00ccff" fill="none" stroke-opacity="0.498039215686275" transform="matrix(1 0 0 1 609 512 )" mask="url(#clip177)" />
  </g>
</svg>