<?xml version="1.0" encoding="utf-8"?>
<svg version="1.1" xmlns:xlink="http://www.w3.org/1999/xlink" width="87px" height="67px" xmlns="http://www.w3.org/2000/svg">
  <defs>
    <mask fill="white" id="clip174">
      <path d="M 67.2882857142858 33.6209722222222  C 64.5415714285715 25.9469907407407  62.3417142857143 21.18875  60.6949285714287 19.5509722222222  C 58.6815 17.900787037037  57.0347142857141 14.9788425925925  55.3817142857143 10.4129166666667  C 50.0747142857144 10.4129166666667  46.9613571428573 9.50097222222223  45.4947857142857 7.67087962962967  C 44.3948571428571 6.02069444444453  42.2012142857143 4.92884259259267  39.0816428571429 4.01069444444443  L 38.1681428571428 3.82458333333329  L 39.0816428571429 0.716527777777856  L 38.5347857142858 0.350509259259297  L 37.6212857142857 0.17060185185187  C 35.4276428571429 1.26865740740743  33.9610714285714 2.36671296296299  33.408 3.82458333333329  C 32.6809285714285 5.28865740740741  31.7612142857143 6.5666203703704  30.6612857142857 7.48476851851854  C 29.7477857142858 10.4129166666667  28.8280714285714 11.8707870370372  27.9145714285715 11.8707870370372  C 27.3677142857143 12.0506944444445  27.0010714285714 11.6846759259261  26.6344285714287 11.1387500000001  L 25.1678571428572 9.8607870370372  C 24.0741428571429 9.30865740740751  22.9742142857144 8.76273148148164  22.0545000000001 8.76273148148164  L 20.2212857142858 9.1287500000002  C 18.941142857143 10.4067129629631  17.1079285714287 11.3248611111112  14.3612142857143 11.6908796296299  L 7.40121428571433 11.3248611111112  C 5.20757142857155 10.2268055555558  4.28785714285721 8.03689814814834  4.84092857142855 5.29486111111123  L 2.28064285714299 4.3829166666668  L 1.0005000000001 8.03689814814823  L 1.0005000000001 8.21680555555565  L 0.814071428571538 8.39671296296308  L 0.267214285714317 9.12874999999997  L 1.91399999999999 9.49476851851853  L 2.28064285714299 9.49476851851853  L 2.46085714285721 9.67467592592595  L 2.46085714285721 9.86078703703708  C 5.57421428571433 14.0606944444444  7.9542857142859 16.8089351851852  9.23442857142857 17.5347685185185  C 9.96771428571435 17.900787037037  12.1675714285715 18.6328240740741  16.0080000000002 19.7308796296296  L 22.6013571428572 22.1068981481482  C 24.6147857142859 23.0188425925926  26.6282142857144 27.0450462962963  28.8218571428572 34.1731018518519  C 31.7550000000002 36.1831018518519  33.5882142857145 37.0950462962963  34.8683571428573 36.9151388888888  C 36.1485 36.3692129629629  38.342142857143 35.0912499999999  41.4617142857144 33.0750462962963  L 41.6419285714287 32.8951388888888  L 41.828357142857 32.7152314814815  L 42.1950000000001 32.8951388888888  L 45.4885714285714 33.6271759259259  L 45.8552142857143 33.6271759259259  L 45.8552142857143 34.1731018518518  L 45.6750000000002 34.7190277777777  C 44.5750714285715 39.1050462962963  43.6615714285715 41.6671759259259  42.9282857142858 42.3930092592592  L 38.5347857142858 42.5729166666665  L 38.5347857142858 42.7590277777778  C 38.5347857142858 44.5891203703703  37.2546428571429 47.3311574074073  34.8745714285715 50.7990277777777  C 34.1412857142858 51.8970833333333  33.9610714285714 52.8090277777777  33.9610714285714 53.3549537037036  L 38.1681428571428 56.2768981481481  C 39.2680714285715 57.5610648148147  40.0013571428573 57.9270833333333  40.9148571428572 57.9270833333333  L 41.8345714285715 57.9270833333333  L 42.7480714285714 61.0351388888888  L 44.7615000000001 61.7671759259258  L 45.8614285714285 60.6691203703703  C 46.4145000000001 60.1169907407407  47.1415714285714 59.7509722222221  47.6884285714286 59.9370833333332  C 49.521642857143 59.9370833333332  50.9882142857143 61.0351388888888  52.8152142857143 63.4111574074074  L 54.462 65.6072685185185  L 54.6484285714285 65.4211574074074  C 55.7483571428571 64.6891203703703  57.7617857142857 64.8752314814815  60.6887142857145 65.7871759259259  L 65.4488571428573 66.8852314814815  L 69.8485714285714 65.4211574074074  L 71.6817857142859 64.5092129629628  L 72.9619285714285 63.5972685185185  L 71.8620000000001 62.3193055555555  C 71.4953571428573 61.5872685185185  71.8620000000001 60.6753240740741  72.7817142857144 59.7571759259259  C 73.8816428571429 58.8452314814814  74.6087142857144 57.933287037037  74.6087142857144 56.8352314814814  L 74.6087142857144 54.6391203703703  C 74.2482857142859 53.5410648148147  74.4285 52.8090277777777  74.795142857143 52.449212962963  C 75.1617857142858 51.7171759259259  76.4419285714287 51.3511574074074  77.9085000000001 50.9851388888889  C 80.2885714285716 50.6191203703703  83.2155 51.7171759259259  86.6955000000002 54.6391203703703  L 85.4153571428573 50.9851388888889  L 83.4019285714287 48.2431018518519  L 83.0352857142859 44.9489351851853  L 79.9219285714288 44.4030092592592  L 79.7417142857146 44.4030092592592  L 79.7417142857146 44.2231018518519  L 71.5015714285718 39.4710648148149  L 67.4747142857145 38.7390277777779  L 67.4747142857145 37.8270833333335  L 67.2882857142858 33.6209722222222  Z " fill-rule="evenodd" />
    </mask>
  </defs>
  <g transform="matrix(1 0 0 1 -1145 -544 )">
    <path d="M 67.2882857142858 33.6209722222222  C 64.5415714285715 25.9469907407407  62.3417142857143 21.18875  60.6949285714287 19.5509722222222  C 58.6815 17.900787037037  57.0347142857141 14.9788425925925  55.3817142857143 10.4129166666667  C 50.0747142857144 10.4129166666667  46.9613571428573 9.50097222222223  45.4947857142857 7.67087962962967  C 44.3948571428571 6.02069444444453  42.2012142857143 4.92884259259267  39.0816428571429 4.01069444444443  L 38.1681428571428 3.82458333333329  L 39.0816428571429 0.716527777777856  L 38.5347857142858 0.350509259259297  L 37.6212857142857 0.17060185185187  C 35.4276428571429 1.26865740740743  33.9610714285714 2.36671296296299  33.408 3.82458333333329  C 32.6809285714285 5.28865740740741  31.7612142857143 6.5666203703704  30.6612857142857 7.48476851851854  C 29.7477857142858 10.4129166666667  28.8280714285714 11.8707870370372  27.9145714285715 11.8707870370372  C 27.3677142857143 12.0506944444445  27.0010714285714 11.6846759259261  26.6344285714287 11.1387500000001  L 25.1678571428572 9.8607870370372  C 24.0741428571429 9.30865740740751  22.9742142857144 8.76273148148164  22.0545000000001 8.76273148148164  L 20.2212857142858 9.1287500000002  C 18.941142857143 10.4067129629631  17.1079285714287 11.3248611111112  14.3612142857143 11.6908796296299  L 7.40121428571433 11.3248611111112  C 5.20757142857155 10.2268055555558  4.28785714285721 8.03689814814834  4.84092857142855 5.29486111111123  L 2.28064285714299 4.3829166666668  L 1.0005000000001 8.03689814814823  L 1.0005000000001 8.21680555555565  L 0.814071428571538 8.39671296296308  L 0.267214285714317 9.12874999999997  L 1.91399999999999 9.49476851851853  L 2.28064285714299 9.49476851851853  L 2.46085714285721 9.67467592592595  L 2.46085714285721 9.86078703703708  C 5.57421428571433 14.0606944444444  7.9542857142859 16.8089351851852  9.23442857142857 17.5347685185185  C 9.96771428571435 17.900787037037  12.1675714285715 18.6328240740741  16.0080000000002 19.7308796296296  L 22.6013571428572 22.1068981481482  C 24.6147857142859 23.0188425925926  26.6282142857144 27.0450462962963  28.8218571428572 34.1731018518519  C 31.7550000000002 36.1831018518519  33.5882142857145 37.0950462962963  34.8683571428573 36.9151388888888  C 36.1485 36.3692129629629  38.342142857143 35.0912499999999  41.4617142857144 33.0750462962963  L 41.6419285714287 32.8951388888888  L 41.828357142857 32.7152314814815  L 42.1950000000001 32.8951388888888  L 45.4885714285714 33.6271759259259  L 45.8552142857143 33.6271759259259  L 45.8552142857143 34.1731018518518  L 45.6750000000002 34.7190277777777  C 44.5750714285715 39.1050462962963  43.6615714285715 41.6671759259259  42.9282857142858 42.3930092592592  L 38.5347857142858 42.5729166666665  L 38.5347857142858 42.7590277777778  C 38.5347857142858 44.5891203703703  37.2546428571429 47.3311574074073  34.8745714285715 50.7990277777777  C 34.1412857142858 51.8970833333333  33.9610714285714 52.8090277777777  33.9610714285714 53.3549537037036  L 38.1681428571428 56.2768981481481  C 39.2680714285715 57.5610648148147  40.0013571428573 57.9270833333333  40.9148571428572 57.9270833333333  L 41.8345714285715 57.9270833333333  L 42.7480714285714 61.0351388888888  L 44.7615000000001 61.7671759259258  L 45.8614285714285 60.6691203703703  C 46.4145000000001 60.1169907407407  47.1415714285714 59.7509722222221  47.6884285714286 59.9370833333332  C 49.521642857143 59.9370833333332  50.9882142857143 61.0351388888888  52.8152142857143 63.4111574074074  L 54.462 65.6072685185185  L 54.6484285714285 65.4211574074074  C 55.7483571428571 64.6891203703703  57.7617857142857 64.8752314814815  60.6887142857145 65.7871759259259  L 65.4488571428573 66.8852314814815  L 69.8485714285714 65.4211574074074  L 71.6817857142859 64.5092129629628  L 72.9619285714285 63.5972685185185  L 71.8620000000001 62.3193055555555  C 71.4953571428573 61.5872685185185  71.8620000000001 60.6753240740741  72.7817142857144 59.7571759259259  C 73.8816428571429 58.8452314814814  74.6087142857144 57.933287037037  74.6087142857144 56.8352314814814  L 74.6087142857144 54.6391203703703  C 74.2482857142859 53.5410648148147  74.4285 52.8090277777777  74.795142857143 52.449212962963  C 75.1617857142858 51.7171759259259  76.4419285714287 51.3511574074074  77.9085000000001 50.9851388888889  C 80.2885714285716 50.6191203703703  83.2155 51.7171759259259  86.6955000000002 54.6391203703703  L 85.4153571428573 50.9851388888889  L 83.4019285714287 48.2431018518519  L 83.0352857142859 44.9489351851853  L 79.9219285714288 44.4030092592592  L 79.7417142857146 44.4030092592592  L 79.7417142857146 44.2231018518519  L 71.5015714285718 39.4710648148149  L 67.4747142857145 38.7390277777779  L 67.4747142857145 37.8270833333335  L 67.2882857142858 33.6209722222222  Z " fill-rule="nonzero" fill="#00ccff" stroke="none" fill-opacity="0.498039215686275" transform="matrix(1 0 0 1 1145 544 )" />
    <path d="M 67.2882857142858 33.6209722222222  C 64.5415714285715 25.9469907407407  62.3417142857143 21.18875  60.6949285714287 19.5509722222222  C 58.6815 17.900787037037  57.0347142857141 14.9788425925925  55.3817142857143 10.4129166666667  C 50.0747142857144 10.4129166666667  46.9613571428573 9.50097222222223  45.4947857142857 7.67087962962967  C 44.3948571428571 6.02069444444453  42.2012142857143 4.92884259259267  39.0816428571429 4.01069444444443  L 38.1681428571428 3.82458333333329  L 39.0816428571429 0.716527777777856  L 38.5347857142858 0.350509259259297  L 37.6212857142857 0.17060185185187  C 35.4276428571429 1.26865740740743  33.9610714285714 2.36671296296299  33.408 3.82458333333329  C 32.6809285714285 5.28865740740741  31.7612142857143 6.5666203703704  30.6612857142857 7.48476851851854  C 29.7477857142858 10.4129166666667  28.8280714285714 11.8707870370372  27.9145714285715 11.8707870370372  C 27.3677142857143 12.0506944444445  27.0010714285714 11.6846759259261  26.6344285714287 11.1387500000001  L 25.1678571428572 9.8607870370372  C 24.0741428571429 9.30865740740751  22.9742142857144 8.76273148148164  22.0545000000001 8.76273148148164  L 20.2212857142858 9.1287500000002  C 18.941142857143 10.4067129629631  17.1079285714287 11.3248611111112  14.3612142857143 11.6908796296299  L 7.40121428571433 11.3248611111112  C 5.20757142857155 10.2268055555558  4.28785714285721 8.03689814814834  4.84092857142855 5.29486111111123  L 2.28064285714299 4.3829166666668  L 1.0005000000001 8.03689814814823  L 1.0005000000001 8.21680555555565  L 0.814071428571538 8.39671296296308  L 0.267214285714317 9.12874999999997  L 1.91399999999999 9.49476851851853  L 2.28064285714299 9.49476851851853  L 2.46085714285721 9.67467592592595  L 2.46085714285721 9.86078703703708  C 5.57421428571433 14.0606944444444  7.9542857142859 16.8089351851852  9.23442857142857 17.5347685185185  C 9.96771428571435 17.900787037037  12.1675714285715 18.6328240740741  16.0080000000002 19.7308796296296  L 22.6013571428572 22.1068981481482  C 24.6147857142859 23.0188425925926  26.6282142857144 27.0450462962963  28.8218571428572 34.1731018518519  C 31.7550000000002 36.1831018518519  33.5882142857145 37.0950462962963  34.8683571428573 36.9151388888888  C 36.1485 36.3692129629629  38.342142857143 35.0912499999999  41.4617142857144 33.0750462962963  L 41.6419285714287 32.8951388888888  L 41.828357142857 32.7152314814815  L 42.1950000000001 32.8951388888888  L 45.4885714285714 33.6271759259259  L 45.8552142857143 33.6271759259259  L 45.8552142857143 34.1731018518518  L 45.6750000000002 34.7190277777777  C 44.5750714285715 39.1050462962963  43.6615714285715 41.6671759259259  42.9282857142858 42.3930092592592  L 38.5347857142858 42.5729166666665  L 38.5347857142858 42.7590277777778  C 38.5347857142858 44.5891203703703  37.2546428571429 47.3311574074073  34.8745714285715 50.7990277777777  C 34.1412857142858 51.8970833333333  33.9610714285714 52.8090277777777  33.9610714285714 53.3549537037036  L 38.1681428571428 56.2768981481481  C 39.2680714285715 57.5610648148147  40.0013571428573 57.9270833333333  40.9148571428572 57.9270833333333  L 41.8345714285715 57.9270833333333  L 42.7480714285714 61.0351388888888  L 44.7615000000001 61.7671759259258  L 45.8614285714285 60.6691203703703  C 46.4145000000001 60.1169907407407  47.1415714285714 59.7509722222221  47.6884285714286 59.9370833333332  C 49.521642857143 59.9370833333332  50.9882142857143 61.0351388888888  52.8152142857143 63.4111574074074  L 54.462 65.6072685185185  L 54.6484285714285 65.4211574074074  C 55.7483571428571 64.6891203703703  57.7617857142857 64.8752314814815  60.6887142857145 65.7871759259259  L 65.4488571428573 66.8852314814815  L 69.8485714285714 65.4211574074074  L 71.6817857142859 64.5092129629628  L 72.9619285714285 63.5972685185185  L 71.8620000000001 62.3193055555555  C 71.4953571428573 61.5872685185185  71.8620000000001 60.6753240740741  72.7817142857144 59.7571759259259  C 73.8816428571429 58.8452314814814  74.6087142857144 57.933287037037  74.6087142857144 56.8352314814814  L 74.6087142857144 54.6391203703703  C 74.2482857142859 53.5410648148147  74.4285 52.8090277777777  74.795142857143 52.449212962963  C 75.1617857142858 51.7171759259259  76.4419285714287 51.3511574074074  77.9085000000001 50.9851388888889  C 80.2885714285716 50.6191203703703  83.2155 51.7171759259259  86.6955000000002 54.6391203703703  L 85.4153571428573 50.9851388888889  L 83.4019285714287 48.2431018518519  L 83.0352857142859 44.9489351851853  L 79.9219285714288 44.4030092592592  L 79.7417142857146 44.4030092592592  L 79.7417142857146 44.2231018518519  L 71.5015714285718 39.4710648148149  L 67.4747142857145 38.7390277777779  L 67.4747142857145 37.8270833333335  L 67.2882857142858 33.6209722222222  Z " stroke-width="4" stroke="#00ccff" fill="none" stroke-opacity="0.498039215686275" transform="matrix(1 0 0 1 1145 544 )" mask="url(#clip174)" />
  </g>
</svg>