<?xml version="1.0" encoding="utf-8"?>
<svg version="1.1" xmlns:xlink="http://www.w3.org/1999/xlink" width="187px" height="134px" xmlns="http://www.w3.org/2000/svg">
  <defs>
    <mask fill="white" id="clip183">
      <path d="M 122.011266666667 13.7815277777779  C 118.545533333333 11.746712962963  115.054866666667 9.736712962963  111.383433333333 7.54680555555558  L 109.7316 8.82476851851857  C 109.7316 9.55680555555557  110.099366666667 11.200787037037  110.6479 13.5768055555557  L 110.6479 13.7629166666668  L 110.828666666667 13.9490277777778  L 110.6479 13.9490277777778  L 108.6283 18.5149537037038  L 105.873166666667 19.6130092592593  L 105.3184 19.7929166666668  L 105.137633333333 19.7929166666668  L 100.3629 17.5968055555556  L 100.182133333333 17.5968055555556  L 100.182133333333 17.4168981481482  L 91.1812 9.19078703703713  L 87.6905333333333 7.18078703703713  L 82.1802666666666 5.17078703703703  L 82.1802666666666 4.98467592592601  L 81.9932666666666 4.98467592592601  L 79.4251333333333 3.16078703703704  L 74.8311666666666 1.69671296296303  L 72.2630333333333 1.88282407407405  L 72.0760333333333 1.88282407407405  L 66.2042333333333 1.51680555555561  L 66.0234666666665 1.51680555555561  L 61.7972666666666 0.604861111111177  L 59.2291333333333 0.604861111111177  L 57.2095333333332 2.0689351851853  C 56.1062333333333 2.61486111111117  54.6414 2.8009722222223  52.8025666666667 3.16699074074074  L 48.9441333333334 3.89282407407404  L 45.6404666666666 4.99087962962972  L 45.4534666666667 5.17699074074073  L 45.4534666666667 5.35689814814816  L 47.1053 4.98467592592601  L 41.4142666666667 5.54300925925929  L 37.1880666666667 7.18699074074073  L 36.6395333333333 7.18699074074073  L 33.1488666666667 6.82097222222228  L 27.8255999999999 7.55300925925928  L 23.4186333333332 7.55300925925928  L 21.5797999999999 9.38310185185196  L 21.3990333333333 9.38310185185196  L 19.1986666666666 9.92902777777783  L 20.1149666666666 12.125138888889  L 20.1149666666666 15.5992129629631  L 19.5602 18.7072685185186  L 22.6831 21.2631944444445  L 22.8701 21.2631944444445  L 25.4382333333334 24.1913425925927  C 27.0900666666666 25.4693055555556  27.8256 26.3812500000001  27.8256 27.4793055555556  L 28.7419 30.2213425925927  L 30.0259666666666 32.9633796296297  C 29.8389666666666 32.9633796296297  29.8389666666666 33.1432870370371  29.6582 33.1432870370371  L 26.1675333333333 35.7054166666668  L 23.7801666666666 38.8134722222223  L 24.3287 41.5555092592593  L 25.9867666666667 45.395601851852  L 26.1675333333334 45.7616203703705  L 26.1675333333334 45.9415277777779  L 25.7997666666668 47.3993981481483  C 25.4320000000001 48.3113425925927  25.0642333333333 49.0433796296297  24.5157 49.4093981481483  C 23.4124 50.3213425925928  21.5735666666666 50.3213425925928  18.6376666666666 49.4093981481483  L 14.0499333333333 48.4974537037039  L 13.8691666666667 48.4974537037039  L 13.6821666666667 48.4974537037039  L 10.3722666666667 46.8534722222224  L 5.04276666666664 46.673564814815  L 5.22976666666659 46.8534722222224  L 4.6812333333333 55.9791203703704  C 4.49423333333334 57.2570833333333  3.57793333333336 57.8030092592594  2.29386666666665 57.9891203703704  C 1.74533333333329 58.1690277777778  1.37133333333327 58.9010648148148  1.55833333333334 60.365138888889  L 1.55833333333334 60.5450462962964  L 1.37133333333327 60.5450462962964  L 1.00356666666664 62.9210648148148  C 2.28763333333336 64.0191203703704  3.20393333333334 64.9372685185185  3.57793333333336 65.6631018518519  L 4.49423333333334 70.0491203703704  L 4.49423333333334 71.6993055555556  C 4.31346666666661 72.61125  4.12646666666666 73.343287037037  3.75870000000003 74.0753240740742  L 2.47463333333332 77.7293055555556  L 0.0872666666666646 82.2952314814816  L 0.0872666666666646 83.2133796296297  L 0.45503333333329 85.4094907407408  L 2.84239999999994 88.5175462962964  C 3.57793333333336 89.4294907407408  3.94569999999999 89.9816203703704  4.12646666666666 90.5275462962964  L 6.3268333333333 93.6356018518519  L 9.63050000000004 97.295787037037  C 10.9208 98.57375  11.8371 99.1258796296297  12.2048666666666 99.1258796296297  L 15.6955333333333 96.9297685185186  C 16.4310666666667 96.3776388888889  16.9796 96.0116203703705  17.8959 96.0116203703705  C 18.6314333333333 96.0116203703705  19.7285 96.56375  21.3865666666667 97.6556018518519  L 21.5673333333334 97.6556018518519  L 21.5673333333334 97.8417129629629  L 23.4061666666667 100.037824074074  L 24.3224666666667 102.227731481481  L 25.0580000000001 103.139675925926  L 25.6127666666667 103.505694444445  L 27.9938999999999 105.149675925926  L 29.2842000000001 105.335787037037  C 30.0197333333334 105.515694444444  30.7490333333334 106.067824074074  31.3038000000001 106.799861111111  C 31.6715666666667 107.351990740741  33.6911666666667 108.077824074074  37.1818333333334 108.995972222222  L 37.3688333333333 108.995972222222  L 42.8791000000001 111.005972222222  L 43.0598666666667 111.005972222222  L 43.2468666666667 111.005972222222  L 47.1053 112.836064814815  L 53.7126333333334 114.480046296296  L 53.8996333333334 114.659953703704  L 62.5328000000001 115.025972222222  L 66.3912333333334 113.561898148148  L 69.8819000000001 113.561898148148  L 69.8819000000001 113.748009259259  L 70.0626666666668 113.927916666667  L 72.9985666666668 117.588101851852  L 72.9985666666668 117.768009259259  L 74.8311666666667 120.696157407407  L 76.3022333333334 122.340138888889  L 78.3218333333334 123.258287037037  L 78.5026000000001 123.444398148148  L 78.6896 123.624305555555  L 80.3414333333334 127.278287037037  L 80.3414333333334 127.464398148148  L 80.5284333333335 127.464398148148  L 80.5284333333335 127.644305555555  L 81.4509666666668 131.664305555555  L 84.0191000000001 132.57625  L 84.2061000000001 132.57625  L 84.3868666666668 132.57625  L 86.4064666666668 133.860416666666  L 89.1616000000001 133.308287037037  L 89.8971333333335 130.56625  L 89.8971333333335 130.386342592592  L 90.0779000000002 130.206435185185  L 93.1945666666669 127.09837962963  L 96.6852333333336 128.010324074074  L 96.6852333333336 128.376342592593  L 98.3370666666668 132.030324074074  L 101.827733333334 130.752361111111  L 102.189266666667 127.278287037037  L 102.189266666667 127.09837962963  L 102.189266666667 126.912268518519  L 102.376266666667 126.732361111111  L 104.763633333333 125.454398148148  L 104.208866666667 120.336342592593  L 104.208866666667 119.970324074074  L 104.208866666667 119.790416666667  L 106.964 114.120231481481  L 109.719133333334 113.022175925926  L 108.615833333334 107.90412037037  L 111.370966666667 107.90412037037  L 111.183966666667 105.528101851852  L 109.7129 100.589953703704  L 109.7129 100.223935185185  L 110.080666666667 96.7498611111112  L 110.080666666667 96.2039351851853  L 110.448433333334 96.017824074074  L 112.281033333333 93.6418055555556  L 112.6488 93.275787037037  L 113.203566666667 93.275787037037  L 118.1653 94.1939351851852  L 118.3523 94.1939351851852  L 122.3915 95.285787037037  L 125.882166666667 94.1939351851852  L 127.901766666667 98.2139351851853  L 128.082533333333 98.3938425925926  L 128.082533333333 101.315787037037  L 128.6373 104.057824074074  C 129.005066666667 105.15587962963  129.7406 105.887916666667  130.476133333333 106.074027777778  L 130.8439 106.074027777778  C 132.495733333333 106.440046296296  133.418266666667 107.172083333333  133.599033333334 108.270138888889  C 133.7798 109.182083333333  134.515333333334 110.460046296296  135.805633333334 111.92412037037  L 137.457466666667 114.300138888889  L 137.457466666667 114.48625  L 138.560766666667 116.49625  L 140.2126 116.310138888889  L 143.3355 113.568101851852  L 145.3551 117.774212962963  L 149.3943 119.05837962963  L 149.5813 119.05837962963  L 149.762066666667 119.238287037037  L 151.781666666667 122.892268518519  L 152.697966666667 123.438194444444  L 152.878733333333 119.96412037037  L 152.878733333333 119.784212962963  L 152.878733333333 119.232083333333  L 160.963366666667 119.052175925926  L 161.144133333333 118.320138888889  C 161.331133333333 117.95412037037  161.331133333333 117.222083333333  160.963366666667 116.676157407408  C 160.4086 115.578101851852  160.227833333333 114.666157407408  160.040833333333 113.381990740741  C 159.860066666667 111.917916666667  160.040833333333 110.819861111111  160.4086 110.460046296296  C 160.963366666667 109.728009259259  161.3249 109.728009259259  162.247433333333 109.91412037037  L 165.5511 111.012175925926  L 165.918866666667 108.636157407407  L 159.860066666667 105.894120370371  L 159.4923 105.894120370371  L 159.3053 105.528101851852  L 159.3053 105.348194444445  L 159.3053 105.162083333333  L 158.389 97.8541203703705  L 158.569766666667 93.2819907407409  L 158.569766666667 92.736064814815  L 158.569766666667 92.3700462962963  L 168.674 93.6480092592593  L 171.242133333333 91.2719907407408  C 171.7969 90.3600462962963  171.6099 89.6280092592593  171.242133333333 89.4481018518519  C 168.674 88.5361574074075  167.3837 87.4381018518519  167.3837 86.3400462962964  C 167.3837 85.7879166666667  167.5707 85.0620833333335  168.487 84.6960648148149  L 172.7132 80.4899537037038  L 177.300933333333 80.3038425925927  L 179.6883 76.2838425925927  L 179.6883 72.4437500000001  L 183.178966666667 71.7179166666667  C 184.095266666667 68.9758796296297  184.650033333333 67.5118055555557  185.011566666667 66.9658796296297  L 186.482633333333 63.8578240740742  L 183.9145 59.2856944444446  L 183.9145 59.1057870370372  L 183.9145 58.9258796296297  L 182.256433333333 52.7097685185186  L 182.256433333333 52.5236574074075  L 181.153133333333 46.127638888889  L 178.952766666667 42.4736574074075  L 175.6491 39.1794907407409  L 175.6491 38.9995833333335  L 175.6491 38.819675925926  L 175.468333333334 38.6397685185186  L 175.287566666667 35.1718981481482  L 169.222533333333 36.9957870370372  L 169.041766666667 36.8158796296298  L 166.286633333334 33.7078240740741  L 158.021233333334 27.4917129629631  L 157.840466666667 27.4917129629631  L 154.717566666667 23.471712962963  L 152.697966666667 22.1875462962964  L 151.4139 24.2037500000001  L 151.4139 24.5697685185186  L 151.2269 24.749675925926  L 151.046133333334 24.749675925926  L 150.678366666667 24.749675925926  L 148.104 24.9295833333334  L 147.736233333334 25.1156944444444  L 147.549233333334 25.1156944444444  L 141.490433333334 18.5335648148149  C 140.200133333334 17.9876388888889  138.916066666667 16.7034722222223  137.077233333334 14.8795833333335  L 134.3221 12.8695833333335  L 134.1351 12.6834722222222  L 131.0122 10.8595833333335  L 129.173366666667 12.3236574074075  L 128.986366666667 12.6834722222222  L 128.8056 12.5035648148148  L 128.624833333334 12.5035648148148  L 126.973 12.1375462962964  L 125.134166666667 13.0494907407409  L 124.947166666667 13.2356018518519  L 124.7664 13.4155092592594  L 124.5794 13.4155092592594  L 122.011266666667 13.7815277777779  Z " fill-rule="evenodd" />
    </mask>
  </defs>
  <g transform="matrix(1 0 0 1 -769 -475 )">
    <path d="M 122.011266666667 13.7815277777779  C 118.545533333333 11.746712962963  115.054866666667 9.736712962963  111.383433333333 7.54680555555558  L 109.7316 8.82476851851857  C 109.7316 9.55680555555557  110.099366666667 11.200787037037  110.6479 13.5768055555557  L 110.6479 13.7629166666668  L 110.828666666667 13.9490277777778  L 110.6479 13.9490277777778  L 108.6283 18.5149537037038  L 105.873166666667 19.6130092592593  L 105.3184 19.7929166666668  L 105.137633333333 19.7929166666668  L 100.3629 17.5968055555556  L 100.182133333333 17.5968055555556  L 100.182133333333 17.4168981481482  L 91.1812 9.19078703703713  L 87.6905333333333 7.18078703703713  L 82.1802666666666 5.17078703703703  L 82.1802666666666 4.98467592592601  L 81.9932666666666 4.98467592592601  L 79.4251333333333 3.16078703703704  L 74.8311666666666 1.69671296296303  L 72.2630333333333 1.88282407407405  L 72.0760333333333 1.88282407407405  L 66.2042333333333 1.51680555555561  L 66.0234666666665 1.51680555555561  L 61.7972666666666 0.604861111111177  L 59.2291333333333 0.604861111111177  L 57.2095333333332 2.0689351851853  C 56.1062333333333 2.61486111111117  54.6414 2.8009722222223  52.8025666666667 3.16699074074074  L 48.9441333333334 3.89282407407404  L 45.6404666666666 4.99087962962972  L 45.4534666666667 5.17699074074073  L 45.4534666666667 5.35689814814816  L 47.1053 4.98467592592601  L 41.4142666666667 5.54300925925929  L 37.1880666666667 7.18699074074073  L 36.6395333333333 7.18699074074073  L 33.1488666666667 6.82097222222228  L 27.8255999999999 7.55300925925928  L 23.4186333333332 7.55300925925928  L 21.5797999999999 9.38310185185196  L 21.3990333333333 9.38310185185196  L 19.1986666666666 9.92902777777783  L 20.1149666666666 12.125138888889  L 20.1149666666666 15.5992129629631  L 19.5602 18.7072685185186  L 22.6831 21.2631944444445  L 22.8701 21.2631944444445  L 25.4382333333334 24.1913425925927  C 27.0900666666666 25.4693055555556  27.8256 26.3812500000001  27.8256 27.4793055555556  L 28.7419 30.2213425925927  L 30.0259666666666 32.9633796296297  C 29.8389666666666 32.9633796296297  29.8389666666666 33.1432870370371  29.6582 33.1432870370371  L 26.1675333333333 35.7054166666668  L 23.7801666666666 38.8134722222223  L 24.3287 41.5555092592593  L 25.9867666666667 45.395601851852  L 26.1675333333334 45.7616203703705  L 26.1675333333334 45.9415277777779  L 25.7997666666668 47.3993981481483  C 25.4320000000001 48.3113425925927  25.0642333333333 49.0433796296297  24.5157 49.4093981481483  C 23.4124 50.3213425925928  21.5735666666666 50.3213425925928  18.6376666666666 49.4093981481483  L 14.0499333333333 48.4974537037039  L 13.8691666666667 48.4974537037039  L 13.6821666666667 48.4974537037039  L 10.3722666666667 46.8534722222224  L 5.04276666666664 46.673564814815  L 5.22976666666659 46.8534722222224  L 4.6812333333333 55.9791203703704  C 4.49423333333334 57.2570833333333  3.57793333333336 57.8030092592594  2.29386666666665 57.9891203703704  C 1.74533333333329 58.1690277777778  1.37133333333327 58.9010648148148  1.55833333333334 60.365138888889  L 1.55833333333334 60.5450462962964  L 1.37133333333327 60.5450462962964  L 1.00356666666664 62.9210648148148  C 2.28763333333336 64.0191203703704  3.20393333333334 64.9372685185185  3.57793333333336 65.6631018518519  L 4.49423333333334 70.0491203703704  L 4.49423333333334 71.6993055555556  C 4.31346666666661 72.61125  4.12646666666666 73.343287037037  3.75870000000003 74.0753240740742  L 2.47463333333332 77.7293055555556  L 0.0872666666666646 82.2952314814816  L 0.0872666666666646 83.2133796296297  L 0.45503333333329 85.4094907407408  L 2.84239999999994 88.5175462962964  C 3.57793333333336 89.4294907407408  3.94569999999999 89.9816203703704  4.12646666666666 90.5275462962964  L 6.3268333333333 93.6356018518519  L 9.63050000000004 97.295787037037  C 10.9208 98.57375  11.8371 99.1258796296297  12.2048666666666 99.1258796296297  L 15.6955333333333 96.9297685185186  C 16.4310666666667 96.3776388888889  16.9796 96.0116203703705  17.8959 96.0116203703705  C 18.6314333333333 96.0116203703705  19.7285 96.56375  21.3865666666667 97.6556018518519  L 21.5673333333334 97.6556018518519  L 21.5673333333334 97.8417129629629  L 23.4061666666667 100.037824074074  L 24.3224666666667 102.227731481481  L 25.0580000000001 103.139675925926  L 25.6127666666667 103.505694444445  L 27.9938999999999 105.149675925926  L 29.2842000000001 105.335787037037  C 30.0197333333334 105.515694444444  30.7490333333334 106.067824074074  31.3038000000001 106.799861111111  C 31.6715666666667 107.351990740741  33.6911666666667 108.077824074074  37.1818333333334 108.995972222222  L 37.3688333333333 108.995972222222  L 42.8791000000001 111.005972222222  L 43.0598666666667 111.005972222222  L 43.2468666666667 111.005972222222  L 47.1053 112.836064814815  L 53.7126333333334 114.480046296296  L 53.8996333333334 114.659953703704  L 62.5328000000001 115.025972222222  L 66.3912333333334 113.561898148148  L 69.8819000000001 113.561898148148  L 69.8819000000001 113.748009259259  L 70.0626666666668 113.927916666667  L 72.9985666666668 117.588101851852  L 72.9985666666668 117.768009259259  L 74.8311666666667 120.696157407407  L 76.3022333333334 122.340138888889  L 78.3218333333334 123.258287037037  L 78.5026000000001 123.444398148148  L 78.6896 123.624305555555  L 80.3414333333334 127.278287037037  L 80.3414333333334 127.464398148148  L 80.5284333333335 127.464398148148  L 80.5284333333335 127.644305555555  L 81.4509666666668 131.664305555555  L 84.0191000000001 132.57625  L 84.2061000000001 132.57625  L 84.3868666666668 132.57625  L 86.4064666666668 133.860416666666  L 89.1616000000001 133.308287037037  L 89.8971333333335 130.56625  L 89.8971333333335 130.386342592592  L 90.0779000000002 130.206435185185  L 93.1945666666669 127.09837962963  L 96.6852333333336 128.010324074074  L 96.6852333333336 128.376342592593  L 98.3370666666668 132.030324074074  L 101.827733333334 130.752361111111  L 102.189266666667 127.278287037037  L 102.189266666667 127.09837962963  L 102.189266666667 126.912268518519  L 102.376266666667 126.732361111111  L 104.763633333333 125.454398148148  L 104.208866666667 120.336342592593  L 104.208866666667 119.970324074074  L 104.208866666667 119.790416666667  L 106.964 114.120231481481  L 109.719133333334 113.022175925926  L 108.615833333334 107.90412037037  L 111.370966666667 107.90412037037  L 111.183966666667 105.528101851852  L 109.7129 100.589953703704  L 109.7129 100.223935185185  L 110.080666666667 96.7498611111112  L 110.080666666667 96.2039351851853  L 110.448433333334 96.017824074074  L 112.281033333333 93.6418055555556  L 112.6488 93.275787037037  L 113.203566666667 93.275787037037  L 118.1653 94.1939351851852  L 118.3523 94.1939351851852  L 122.3915 95.285787037037  L 125.882166666667 94.1939351851852  L 127.901766666667 98.2139351851853  L 128.082533333333 98.3938425925926  L 128.082533333333 101.315787037037  L 128.6373 104.057824074074  C 129.005066666667 105.15587962963  129.7406 105.887916666667  130.476133333333 106.074027777778  L 130.8439 106.074027777778  C 132.495733333333 106.440046296296  133.418266666667 107.172083333333  133.599033333334 108.270138888889  C 133.7798 109.182083333333  134.515333333334 110.460046296296  135.805633333334 111.92412037037  L 137.457466666667 114.300138888889  L 137.457466666667 114.48625  L 138.560766666667 116.49625  L 140.2126 116.310138888889  L 143.3355 113.568101851852  L 145.3551 117.774212962963  L 149.3943 119.05837962963  L 149.5813 119.05837962963  L 149.762066666667 119.238287037037  L 151.781666666667 122.892268518519  L 152.697966666667 123.438194444444  L 152.878733333333 119.96412037037  L 152.878733333333 119.784212962963  L 152.878733333333 119.232083333333  L 160.963366666667 119.052175925926  L 161.144133333333 118.320138888889  C 161.331133333333 117.95412037037  161.331133333333 117.222083333333  160.963366666667 116.676157407408  C 160.4086 115.578101851852  160.227833333333 114.666157407408  160.040833333333 113.381990740741  C 159.860066666667 111.917916666667  160.040833333333 110.819861111111  160.4086 110.460046296296  C 160.963366666667 109.728009259259  161.3249 109.728009259259  162.247433333333 109.91412037037  L 165.5511 111.012175925926  L 165.918866666667 108.636157407407  L 159.860066666667 105.894120370371  L 159.4923 105.894120370371  L 159.3053 105.528101851852  L 159.3053 105.348194444445  L 159.3053 105.162083333333  L 158.389 97.8541203703705  L 158.569766666667 93.2819907407409  L 158.569766666667 92.736064814815  L 158.569766666667 92.3700462962963  L 168.674 93.6480092592593  L 171.242133333333 91.2719907407408  C 171.7969 90.3600462962963  171.6099 89.6280092592593  171.242133333333 89.4481018518519  C 168.674 88.5361574074075  167.3837 87.4381018518519  167.3837 86.3400462962964  C 167.3837 85.7879166666667  167.5707 85.0620833333335  168.487 84.6960648148149  L 172.7132 80.4899537037038  L 177.300933333333 80.3038425925927  L 179.6883 76.2838425925927  L 179.6883 72.4437500000001  L 183.178966666667 71.7179166666667  C 184.095266666667 68.9758796296297  184.650033333333 67.5118055555557  185.011566666667 66.9658796296297  L 186.482633333333 63.8578240740742  L 183.9145 59.2856944444446  L 183.9145 59.1057870370372  L 183.9145 58.9258796296297  L 182.256433333333 52.7097685185186  L 182.256433333333 52.5236574074075  L 181.153133333333 46.127638888889  L 178.952766666667 42.4736574074075  L 175.6491 39.1794907407409  L 175.6491 38.9995833333335  L 175.6491 38.819675925926  L 175.468333333334 38.6397685185186  L 175.287566666667 35.1718981481482  L 169.222533333333 36.9957870370372  L 169.041766666667 36.8158796296298  L 166.286633333334 33.7078240740741  L 158.021233333334 27.4917129629631  L 157.840466666667 27.4917129629631  L 154.717566666667 23.471712962963  L 152.697966666667 22.1875462962964  L 151.4139 24.2037500000001  L 151.4139 24.5697685185186  L 151.2269 24.749675925926  L 151.046133333334 24.749675925926  L 150.678366666667 24.749675925926  L 148.104 24.9295833333334  L 147.736233333334 25.1156944444444  L 147.549233333334 25.1156944444444  L 141.490433333334 18.5335648148149  C 140.200133333334 17.9876388888889  138.916066666667 16.7034722222223  137.077233333334 14.8795833333335  L 134.3221 12.8695833333335  L 134.1351 12.6834722222222  L 131.0122 10.8595833333335  L 129.173366666667 12.3236574074075  L 128.986366666667 12.6834722222222  L 128.8056 12.5035648148148  L 128.624833333334 12.5035648148148  L 126.973 12.1375462962964  L 125.134166666667 13.0494907407409  L 124.947166666667 13.2356018518519  L 124.7664 13.4155092592594  L 124.5794 13.4155092592594  L 122.011266666667 13.7815277777779  Z " fill-rule="nonzero" fill="#00ccff" stroke="none" fill-opacity="0.298039215686275" transform="matrix(1 0 0 1 769 475 )" />
    <path d="M 122.011266666667 13.7815277777779  C 118.545533333333 11.746712962963  115.054866666667 9.736712962963  111.383433333333 7.54680555555558  L 109.7316 8.82476851851857  C 109.7316 9.55680555555557  110.099366666667 11.200787037037  110.6479 13.5768055555557  L 110.6479 13.7629166666668  L 110.828666666667 13.9490277777778  L 110.6479 13.9490277777778  L 108.6283 18.5149537037038  L 105.873166666667 19.6130092592593  L 105.3184 19.7929166666668  L 105.137633333333 19.7929166666668  L 100.3629 17.5968055555556  L 100.182133333333 17.5968055555556  L 100.182133333333 17.4168981481482  L 91.1812 9.19078703703713  L 87.6905333333333 7.18078703703713  L 82.1802666666666 5.17078703703703  L 82.1802666666666 4.98467592592601  L 81.9932666666666 4.98467592592601  L 79.4251333333333 3.16078703703704  L 74.8311666666666 1.69671296296303  L 72.2630333333333 1.88282407407405  L 72.0760333333333 1.88282407407405  L 66.2042333333333 1.51680555555561  L 66.0234666666665 1.51680555555561  L 61.7972666666666 0.604861111111177  L 59.2291333333333 0.604861111111177  L 57.2095333333332 2.0689351851853  C 56.1062333333333 2.61486111111117  54.6414 2.8009722222223  52.8025666666667 3.16699074074074  L 48.9441333333334 3.89282407407404  L 45.6404666666666 4.99087962962972  L 45.4534666666667 5.17699074074073  L 45.4534666666667 5.35689814814816  L 47.1053 4.98467592592601  L 41.4142666666667 5.54300925925929  L 37.1880666666667 7.18699074074073  L 36.6395333333333 7.18699074074073  L 33.1488666666667 6.82097222222228  L 27.8255999999999 7.55300925925928  L 23.4186333333332 7.55300925925928  L 21.5797999999999 9.38310185185196  L 21.3990333333333 9.38310185185196  L 19.1986666666666 9.92902777777783  L 20.1149666666666 12.125138888889  L 20.1149666666666 15.5992129629631  L 19.5602 18.7072685185186  L 22.6831 21.2631944444445  L 22.8701 21.2631944444445  L 25.4382333333334 24.1913425925927  C 27.0900666666666 25.4693055555556  27.8256 26.3812500000001  27.8256 27.4793055555556  L 28.7419 30.2213425925927  L 30.0259666666666 32.9633796296297  C 29.8389666666666 32.9633796296297  29.8389666666666 33.1432870370371  29.6582 33.1432870370371  L 26.1675333333333 35.7054166666668  L 23.7801666666666 38.8134722222223  L 24.3287 41.5555092592593  L 25.9867666666667 45.395601851852  L 26.1675333333334 45.7616203703705  L 26.1675333333334 45.9415277777779  L 25.7997666666668 47.3993981481483  C 25.4320000000001 48.3113425925927  25.0642333333333 49.0433796296297  24.5157 49.4093981481483  C 23.4124 50.3213425925928  21.5735666666666 50.3213425925928  18.6376666666666 49.4093981481483  L 14.0499333333333 48.4974537037039  L 13.8691666666667 48.4974537037039  L 13.6821666666667 48.4974537037039  L 10.3722666666667 46.8534722222224  L 5.04276666666664 46.673564814815  L 5.22976666666659 46.8534722222224  L 4.6812333333333 55.9791203703704  C 4.49423333333334 57.2570833333333  3.57793333333336 57.8030092592594  2.29386666666665 57.9891203703704  C 1.74533333333329 58.1690277777778  1.37133333333327 58.9010648148148  1.55833333333334 60.365138888889  L 1.55833333333334 60.5450462962964  L 1.37133333333327 60.5450462962964  L 1.00356666666664 62.9210648148148  C 2.28763333333336 64.0191203703704  3.20393333333334 64.9372685185185  3.57793333333336 65.6631018518519  L 4.49423333333334 70.0491203703704  L 4.49423333333334 71.6993055555556  C 4.31346666666661 72.61125  4.12646666666666 73.343287037037  3.75870000000003 74.0753240740742  L 2.47463333333332 77.7293055555556  L 0.0872666666666646 82.2952314814816  L 0.0872666666666646 83.2133796296297  L 0.45503333333329 85.4094907407408  L 2.84239999999994 88.5175462962964  C 3.57793333333336 89.4294907407408  3.94569999999999 89.9816203703704  4.12646666666666 90.5275462962964  L 6.3268333333333 93.6356018518519  L 9.63050000000004 97.295787037037  C 10.9208 98.57375  11.8371 99.1258796296297  12.2048666666666 99.1258796296297  L 15.6955333333333 96.9297685185186  C 16.4310666666667 96.3776388888889  16.9796 96.0116203703705  17.8959 96.0116203703705  C 18.6314333333333 96.0116203703705  19.7285 96.56375  21.3865666666667 97.6556018518519  L 21.5673333333334 97.6556018518519  L 21.5673333333334 97.8417129629629  L 23.4061666666667 100.037824074074  L 24.3224666666667 102.227731481481  L 25.0580000000001 103.139675925926  L 25.6127666666667 103.505694444445  L 27.9938999999999 105.149675925926  L 29.2842000000001 105.335787037037  C 30.0197333333334 105.515694444444  30.7490333333334 106.067824074074  31.3038000000001 106.799861111111  C 31.6715666666667 107.351990740741  33.6911666666667 108.077824074074  37.1818333333334 108.995972222222  L 37.3688333333333 108.995972222222  L 42.8791000000001 111.005972222222  L 43.0598666666667 111.005972222222  L 43.2468666666667 111.005972222222  L 47.1053 112.836064814815  L 53.7126333333334 114.480046296296  L 53.8996333333334 114.659953703704  L 62.5328000000001 115.025972222222  L 66.3912333333334 113.561898148148  L 69.8819000000001 113.561898148148  L 69.8819000000001 113.748009259259  L 70.0626666666668 113.927916666667  L 72.9985666666668 117.588101851852  L 72.9985666666668 117.768009259259  L 74.8311666666667 120.696157407407  L 76.3022333333334 122.340138888889  L 78.3218333333334 123.258287037037  L 78.5026000000001 123.444398148148  L 78.6896 123.624305555555  L 80.3414333333334 127.278287037037  L 80.3414333333334 127.464398148148  L 80.5284333333335 127.464398148148  L 80.5284333333335 127.644305555555  L 81.4509666666668 131.664305555555  L 84.0191000000001 132.57625  L 84.2061000000001 132.57625  L 84.3868666666668 132.57625  L 86.4064666666668 133.860416666666  L 89.1616000000001 133.308287037037  L 89.8971333333335 130.56625  L 89.8971333333335 130.386342592592  L 90.0779000000002 130.206435185185  L 93.1945666666669 127.09837962963  L 96.6852333333336 128.010324074074  L 96.6852333333336 128.376342592593  L 98.3370666666668 132.030324074074  L 101.827733333334 130.752361111111  L 102.189266666667 127.278287037037  L 102.189266666667 127.09837962963  L 102.189266666667 126.912268518519  L 102.376266666667 126.732361111111  L 104.763633333333 125.454398148148  L 104.208866666667 120.336342592593  L 104.208866666667 119.970324074074  L 104.208866666667 119.790416666667  L 106.964 114.120231481481  L 109.719133333334 113.022175925926  L 108.615833333334 107.90412037037  L 111.370966666667 107.90412037037  L 111.183966666667 105.528101851852  L 109.7129 100.589953703704  L 109.7129 100.223935185185  L 110.080666666667 96.7498611111112  L 110.080666666667 96.2039351851853  L 110.448433333334 96.017824074074  L 112.281033333333 93.6418055555556  L 112.6488 93.275787037037  L 113.203566666667 93.275787037037  L 118.1653 94.1939351851852  L 118.3523 94.1939351851852  L 122.3915 95.285787037037  L 125.882166666667 94.1939351851852  L 127.901766666667 98.2139351851853  L 128.082533333333 98.3938425925926  L 128.082533333333 101.315787037037  L 128.6373 104.057824074074  C 129.005066666667 105.15587962963  129.7406 105.887916666667  130.476133333333 106.074027777778  L 130.8439 106.074027777778  C 132.495733333333 106.440046296296  133.418266666667 107.172083333333  133.599033333334 108.270138888889  C 133.7798 109.182083333333  134.515333333334 110.460046296296  135.805633333334 111.92412037037  L 137.457466666667 114.300138888889  L 137.457466666667 114.48625  L 138.560766666667 116.49625  L 140.2126 116.310138888889  L 143.3355 113.568101851852  L 145.3551 117.774212962963  L 149.3943 119.05837962963  L 149.5813 119.05837962963  L 149.762066666667 119.238287037037  L 151.781666666667 122.892268518519  L 152.697966666667 123.438194444444  L 152.878733333333 119.96412037037  L 152.878733333333 119.784212962963  L 152.878733333333 119.232083333333  L 160.963366666667 119.052175925926  L 161.144133333333 118.320138888889  C 161.331133333333 117.95412037037  161.331133333333 117.222083333333  160.963366666667 116.676157407408  C 160.4086 115.578101851852  160.227833333333 114.666157407408  160.040833333333 113.381990740741  C 159.860066666667 111.917916666667  160.040833333333 110.819861111111  160.4086 110.460046296296  C 160.963366666667 109.728009259259  161.3249 109.728009259259  162.247433333333 109.91412037037  L 165.5511 111.012175925926  L 165.918866666667 108.636157407407  L 159.860066666667 105.894120370371  L 159.4923 105.894120370371  L 159.3053 105.528101851852  L 159.3053 105.348194444445  L 159.3053 105.162083333333  L 158.389 97.8541203703705  L 158.569766666667 93.2819907407409  L 158.569766666667 92.736064814815  L 158.569766666667 92.3700462962963  L 168.674 93.6480092592593  L 171.242133333333 91.2719907407408  C 171.7969 90.3600462962963  171.6099 89.6280092592593  171.242133333333 89.4481018518519  C 168.674 88.5361574074075  167.3837 87.4381018518519  167.3837 86.3400462962964  C 167.3837 85.7879166666667  167.5707 85.0620833333335  168.487 84.6960648148149  L 172.7132 80.4899537037038  L 177.300933333333 80.3038425925927  L 179.6883 76.2838425925927  L 179.6883 72.4437500000001  L 183.178966666667 71.7179166666667  C 184.095266666667 68.9758796296297  184.650033333333 67.5118055555557  185.011566666667 66.9658796296297  L 186.482633333333 63.8578240740742  L 183.9145 59.2856944444446  L 183.9145 59.1057870370372  L 183.9145 58.9258796296297  L 182.256433333333 52.7097685185186  L 182.256433333333 52.5236574074075  L 181.153133333333 46.127638888889  L 178.952766666667 42.4736574074075  L 175.6491 39.1794907407409  L 175.6491 38.9995833333335  L 175.6491 38.819675925926  L 175.468333333334 38.6397685185186  L 175.287566666667 35.1718981481482  L 169.222533333333 36.9957870370372  L 169.041766666667 36.8158796296298  L 166.286633333334 33.7078240740741  L 158.021233333334 27.4917129629631  L 157.840466666667 27.4917129629631  L 154.717566666667 23.471712962963  L 152.697966666667 22.1875462962964  L 151.4139 24.2037500000001  L 151.4139 24.5697685185186  L 151.2269 24.749675925926  L 151.046133333334 24.749675925926  L 150.678366666667 24.749675925926  L 148.104 24.9295833333334  L 147.736233333334 25.1156944444444  L 147.549233333334 25.1156944444444  L 141.490433333334 18.5335648148149  C 140.200133333334 17.9876388888889  138.916066666667 16.7034722222223  137.077233333334 14.8795833333335  L 134.3221 12.8695833333335  L 134.1351 12.6834722222222  L 131.0122 10.8595833333335  L 129.173366666667 12.3236574074075  L 128.986366666667 12.6834722222222  L 128.8056 12.5035648148148  L 128.624833333334 12.5035648148148  L 126.973 12.1375462962964  L 125.134166666667 13.0494907407409  L 124.947166666667 13.2356018518519  L 124.7664 13.4155092592594  L 124.5794 13.4155092592594  L 122.011266666667 13.7815277777779  Z " stroke-width="4" stroke="#00ccff" fill="none" stroke-opacity="0.498039215686275" transform="matrix(1 0 0 1 769 475 )" mask="url(#clip183)" />
  </g>
</svg>