<?xml version="1.0" encoding="utf-8"?>
<svg version="1.1" xmlns:xlink="http://www.w3.org/1999/xlink" width="80px" height="115px" xmlns="http://www.w3.org/2000/svg">
  <defs>
    <mask fill="white" id="clip176">
      <path d="M 74.0061538461539 35.7149193548387  L 73.6615384615385 34.8122311827957  L 72.2092307692308 34.0826612903227  L 72.0246153846155 34.0826612903227  L 70.9353846153847 32.988306451613  L 65.8584615384615 31.5291666666667  L 64.5907692307693 31.5291666666667  L 63.686153846154 31.8939516129033  L 61.686153846154 28.0729838709678  L 61.8707692307694 27.8875  L 63.3230769230771 26.0697580645162  L 63.3230769230771 23.8810483870968  L 63.5015384615385 23.5162634408603  L 64.406153846154 22.057123655914  L 63.686153846154 21.6923387096774  L 60.9661538461538 21.1482526881721  L 56.2523076923078 20.4186827956989  L 55.8892307692308 20.4186827956989  L 53.1692307692309 17.6858870967742  L 53.1692307692309 17.5065860215054  L 52.2584615384617 15.6826612903226  L 52.0800000000002 15.1385752688171  L 53.5323076923079 11.3114247311828  L 53.5323076923079 8.57862903225805  L 53.3538461538462 7.84905913978491  L 51.9015384615385 9.30819892473119  L 51.7230769230771 9.48750000000007  L 51.3600000000001 10.0377688172043  L 50.9969230769233 9.48750000000007  L 50.4553846153847 9.30819892473119  L 47.7353846153848 7.12567204301081  L 47.3723076923078 6.76088709677424  L 47.3723076923078 6.39610215053767  L 46.8307692307694 2.38965053763445  L 45.563076923077 0.386424731182842  L 42.8430769230771 0.56572580645161  L 41.2123076923079 3.48400537634416  L 41.0338461538463 3.84879032258073  L 40.849230769231 4.02809139784949  L 36.4984615384617 3.11922043010759  L 35.772307692308 7.13185483870973  L 35.772307692308 11.1383064516129  L 35.5876923076926 11.3237903225807  L 33.2307692307695 14.9654569892473  L 33.2307692307695 15.3302419354839  L 32.8676923076926 15.5157258064517  L 32.6830769230772 15.5157258064517  L 29.9630769230773 15.6950268817205  L 27.2430769230773 17.8837365591398  L 26.8800000000005 18.2485215053764  L 26.5169230769235 18.2485215053764  L 26.3384615384618 18.0630376344086  L 21.2615384615387 16.4245967741937  L 20.5353846153851 18.2485215053764  L 20.5353846153851 18.4340053763442  L 18.3630769230773 22.0756720430107  C 18.0000000000005 22.805241935484  17.4523076923082 23.1700268817204  16.9169230769235 23.3493279569893  L 14.7384615384619 22.9845430107528  L 11.8338461538465 21.7108870967743  L 11.2923076923081 21.3461021505377  L 11.1076923076928 21.1668010752688  L 11.1076923076928 20.9813172043011  L 10.5661538461542 16.6100806451614  L 9.65538461538506 13.3270161290324  L 9.11384615384645 12.4119623655915  L 7.84615384615427 14.9592741935484  L 5.67384615384663 17.8775537634409  L 3.85846153846194 22.0633064516129  L 3.85846153846194 22.2426075268818  L 3.85846153846194 22.4280913978496  L 3.68000000000052 22.4280913978496  L 2.04307692307748 24.7961021505378  C 2.04307692307748 25.5256720430108  1.50153846153887 26.6200268817205  0.412307692308104 28.2584677419355  L 1.50153846153887 32.4504032258066  L 6.94153846153904 38.4662634408603  L 8.75692307692361 42.2872311827958  L 8.75692307692361 42.6520161290323  L 8.57846153846208 43.0168010752689  L 8.39384615384677 43.0168010752689  L 6.94153846153904 44.8407258064516  L 6.57846153846208 45.2055107526883  L 2.9538461538466 45.9350806451613  L 3.31692307692356 48.8533602150538  L 6.03692307692347 50.3125000000001  L 10.0246153846159 51.221370967742  L 11.1138461538467 54.8630376344087  L 11.1138461538467 55.0485215053764  L 11.1138461538467 55.2340053763442  L 10.2092307692312 61.4291666666667  L 10.2092307692312 61.6084677419355  L 8.75692307692361 64.3412634408603  L 8.75692307692361 64.8915322580647  L 8.39384615384677 64.8915322580647  L 3.86461538461583 65.6211021505377  L 3.86461538461583 67.4388440860216  L 2.59692307692364 71.4452956989248  L 2.04923076923137 76.0020161290324  L 2.96000000000049 78.5555107526882  L 8.57846153846208 82.0178763440862  L 8.75692307692361 82.203360215054  L 11.1138461538467 86.2098118279572  L 11.1138461538467 86.389112903226  L 11.298461538462 86.5684139784948  L 11.1138461538467 86.7538978494625  L 8.21538461538512 93.1345430107529  L 7.4892307692312 94.9522849462367  L 5.68000000000052 99.1442204301077  L 4.9538461538466 102.427284946237  L 4.77538461538518 102.792069892473  L 4.77538461538518 102.971370967742  C 3.86461538461606 103.700940860215  3.32307692307745 104.430510752688  2.96000000000049 105.518682795699  C 2.78153846153896 105.883467741936  2.78153846153896 106.248252688172  3.13846153846191 106.613037634409  L 3.32307692307745 106.798521505376  L 5.13230769230825 108.801747311828  L 6.04307692307748 110.260887096774  L 6.40615384615433 110.081586021506  L 6.58461538461597 110.625672043011  L 6.58461538461597 110.811155913979  L 6.58461538461597 111.355241935484  L 6.58461538461597 111.540725806452  L 6.94769230769293 112.635080645161  L 8.57846153846208 113.179166666667  L 15.1076923076928 114.638306451613  C 17.2861538461543 114.638306451613  19.2738461538468 114.088037634409  21.4523076923082 113.179166666667  C 23.6246153846158 112.270295698925  25.6246153846158 112.084811827957  27.7969230769236 112.449596774194  L 28.1538461538468 111.175940860215  L 25.981538461539 106.254435483871  L 25.7969230769236 105.889650537635  L 25.981538461539 105.889650537635  L 36.3076923076923 91.4651881720431  L 47.3661538461539 80.7194892473118  L 47.5507692307692 80.7194892473118  L 50.9969230769231 79.4396505376345  L 52.8123076923077 77.4364247311828  L 52.8123076923077 77.2509408602151  C 54.2646153846155 76.1627688172043  55.5323076923077 75.4331989247312  56.9846153846154 74.8829301075269  L 55.8953846153846 73.974059139785  L 53.5384615384615 71.6060483870967  L 53.5384615384615 71.420564516129  L 53.36 71.420564516129  L 51.5446153846153 69.2318548387098  L 51.36 68.8670698924732  L 51.36 68.5022849462366  L 52.2646153846155 67.4079301075269  L 49.9076923076923 67.9581989247313  L 44.8307692307693 66.6845430107527  C 42.8369230769232 65.7694892473119  41.5692307692308 64.6751344086022  41.2000000000002 63.4014784946237  C 40.1107692307693 60.1245967741936  39.7538461538461 57.2063172043011  39.9323076923077 54.6590053763442  C 39.2061538461538 55.5678763440861  38.3015384615386 55.7533602150538  37.396923076923 55.7533602150538  L 33.5876923076924 54.838306451613  L 31.0523076923078 53.0205645161291  L 27.9753846153848 52.2909946236559  L 26.523076923077 52.2909946236559  C 25.6184615384615 52.2909946236559  24.5292307692307 51.9262096774194  23.803076923077 51.2028225806451  C 22.7138461538462 50.4732526881721  22.1723076923076 49.743682795699  21.9876923076923 49.0141129032259  C 21.6246153846155 47.5549731182796  21.9876923076923 46.6461021505377  23.2553846153846 45.7372311827957  C 24.5230769230768 44.8283602150537  25.9753846153845 43.3692204301076  27.243076923077 41.5452956989247  C 25.9753846153848 39.9068548387097  25.4276923076923 38.2684139784947  25.9753846153848 36.6299731182796  L 26.1538461538462 36.4444892473118  C 26.3323076923077 35.5356182795699  27.7846153846153 34.8060483870968  30.5046153846155 33.8971774193549  C 30.6830769230769 32.988306451613  31.0461538461537 32.4380376344086  31.4092307692307 32.2587365591398  L 34.1292307692308 32.4380376344086  L 33.7661538461539 32.0732526881721  C 31.956923076923 30.9788978494624  31.4092307692307 29.705241935484  32.3199999999999 28.2461021505377  L 33.7661538461539 27.151747311828  C 35.396923076923 26.6076612903227  37.3907692307691 26.7869623655915  39.3846153846155 27.8813172043012  L 43.5507692307692 30.7934139784948  L 47.36 30.7934139784948  L 48.6338461538463 31.8877688172043  L 48.9969230769233 33.3469086021505  C 48.9969230769233 34.2557795698926  48.4492307692308 34.8060483870969  47.7292307692309 34.8060483870969  C 46.8246153846155 34.8060483870969  46.4615384615386 35.7149193548388  46.2769230769231 36.8092741935485  L 48.0923076923077 41.1805107526883  C 49.1815384615386 39.5420698924731  50.2707692307694 38.6331989247312  51.3538461538462 38.4477150537634  C 51.8953846153848 38.4477150537634  52.6215384615384 38.8125  53.1692307692309 39.5420698924731  C 53.7107692307693 40.4509408602152  54.2584615384617 42.0893817204302  54.6215384615386 43.7278225806451  C 54.8000000000001 45.7310483870967  55.3415384615387 47.3756720430108  55.8892307692308 48.2845430107527  L 57.3415384615387 50.2877688172043  C 59.52 53.0205645161291  60.7876923076924 55.0237903225807  61.1446153846155 56.6622311827958  L 68.2153846153847 55.7533602150538  L 71.2984615384617 54.1087365591397  L 74.1969230769232 50.4670698924732  L 75.4646153846154 47.0047043010753  L 75.4646153846154 46.8192204301075  L 75.4646153846154 46.6399193548388  L 76.3692307692309 42.9920698924731  L 76.3692307692309 42.8127688172043  L 76.5538461538462 42.4479838709678  L 76.7323076923078 42.4479838709678  L 79.4523076923077 40.6302419354838  L 79.9938461538461 40.2654569892474  L 79.8092307692308 40.0799731182797  L 75.2738461538461 38.6270161290322  L 74.9107692307692 38.6270161290322  L 74.9107692307692 38.4477150537634  L 74.0061538461539 35.7149193548387  Z " fill-rule="evenodd" />
    </mask>
  </defs>
  <g transform="matrix(1 0 0 1 -1099 -416 )">
    <path d="M 74.0061538461539 35.7149193548387  L 73.6615384615385 34.8122311827957  L 72.2092307692308 34.0826612903227  L 72.0246153846155 34.0826612903227  L 70.9353846153847 32.988306451613  L 65.8584615384615 31.5291666666667  L 64.5907692307693 31.5291666666667  L 63.686153846154 31.8939516129033  L 61.686153846154 28.0729838709678  L 61.8707692307694 27.8875  L 63.3230769230771 26.0697580645162  L 63.3230769230771 23.8810483870968  L 63.5015384615385 23.5162634408603  L 64.406153846154 22.057123655914  L 63.686153846154 21.6923387096774  L 60.9661538461538 21.1482526881721  L 56.2523076923078 20.4186827956989  L 55.8892307692308 20.4186827956989  L 53.1692307692309 17.6858870967742  L 53.1692307692309 17.5065860215054  L 52.2584615384617 15.6826612903226  L 52.0800000000002 15.1385752688171  L 53.5323076923079 11.3114247311828  L 53.5323076923079 8.57862903225805  L 53.3538461538462 7.84905913978491  L 51.9015384615385 9.30819892473119  L 51.7230769230771 9.48750000000007  L 51.3600000000001 10.0377688172043  L 50.9969230769233 9.48750000000007  L 50.4553846153847 9.30819892473119  L 47.7353846153848 7.12567204301081  L 47.3723076923078 6.76088709677424  L 47.3723076923078 6.39610215053767  L 46.8307692307694 2.38965053763445  L 45.563076923077 0.386424731182842  L 42.8430769230771 0.56572580645161  L 41.2123076923079 3.48400537634416  L 41.0338461538463 3.84879032258073  L 40.849230769231 4.02809139784949  L 36.4984615384617 3.11922043010759  L 35.772307692308 7.13185483870973  L 35.772307692308 11.1383064516129  L 35.5876923076926 11.3237903225807  L 33.2307692307695 14.9654569892473  L 33.2307692307695 15.3302419354839  L 32.8676923076926 15.5157258064517  L 32.6830769230772 15.5157258064517  L 29.9630769230773 15.6950268817205  L 27.2430769230773 17.8837365591398  L 26.8800000000005 18.2485215053764  L 26.5169230769235 18.2485215053764  L 26.3384615384618 18.0630376344086  L 21.2615384615387 16.4245967741937  L 20.5353846153851 18.2485215053764  L 20.5353846153851 18.4340053763442  L 18.3630769230773 22.0756720430107  C 18.0000000000005 22.805241935484  17.4523076923082 23.1700268817204  16.9169230769235 23.3493279569893  L 14.7384615384619 22.9845430107528  L 11.8338461538465 21.7108870967743  L 11.2923076923081 21.3461021505377  L 11.1076923076928 21.1668010752688  L 11.1076923076928 20.9813172043011  L 10.5661538461542 16.6100806451614  L 9.65538461538506 13.3270161290324  L 9.11384615384645 12.4119623655915  L 7.84615384615427 14.9592741935484  L 5.67384615384663 17.8775537634409  L 3.85846153846194 22.0633064516129  L 3.85846153846194 22.2426075268818  L 3.85846153846194 22.4280913978496  L 3.68000000000052 22.4280913978496  L 2.04307692307748 24.7961021505378  C 2.04307692307748 25.5256720430108  1.50153846153887 26.6200268817205  0.412307692308104 28.2584677419355  L 1.50153846153887 32.4504032258066  L 6.94153846153904 38.4662634408603  L 8.75692307692361 42.2872311827958  L 8.75692307692361 42.6520161290323  L 8.57846153846208 43.0168010752689  L 8.39384615384677 43.0168010752689  L 6.94153846153904 44.8407258064516  L 6.57846153846208 45.2055107526883  L 2.9538461538466 45.9350806451613  L 3.31692307692356 48.8533602150538  L 6.03692307692347 50.3125000000001  L 10.0246153846159 51.221370967742  L 11.1138461538467 54.8630376344087  L 11.1138461538467 55.0485215053764  L 11.1138461538467 55.2340053763442  L 10.2092307692312 61.4291666666667  L 10.2092307692312 61.6084677419355  L 8.75692307692361 64.3412634408603  L 8.75692307692361 64.8915322580647  L 8.39384615384677 64.8915322580647  L 3.86461538461583 65.6211021505377  L 3.86461538461583 67.4388440860216  L 2.59692307692364 71.4452956989248  L 2.04923076923137 76.0020161290324  L 2.96000000000049 78.5555107526882  L 8.57846153846208 82.0178763440862  L 8.75692307692361 82.203360215054  L 11.1138461538467 86.2098118279572  L 11.1138461538467 86.389112903226  L 11.298461538462 86.5684139784948  L 11.1138461538467 86.7538978494625  L 8.21538461538512 93.1345430107529  L 7.4892307692312 94.9522849462367  L 5.68000000000052 99.1442204301077  L 4.9538461538466 102.427284946237  L 4.77538461538518 102.792069892473  L 4.77538461538518 102.971370967742  C 3.86461538461606 103.700940860215  3.32307692307745 104.430510752688  2.96000000000049 105.518682795699  C 2.78153846153896 105.883467741936  2.78153846153896 106.248252688172  3.13846153846191 106.613037634409  L 3.32307692307745 106.798521505376  L 5.13230769230825 108.801747311828  L 6.04307692307748 110.260887096774  L 6.40615384615433 110.081586021506  L 6.58461538461597 110.625672043011  L 6.58461538461597 110.811155913979  L 6.58461538461597 111.355241935484  L 6.58461538461597 111.540725806452  L 6.94769230769293 112.635080645161  L 8.57846153846208 113.179166666667  L 15.1076923076928 114.638306451613  C 17.2861538461543 114.638306451613  19.2738461538468 114.088037634409  21.4523076923082 113.179166666667  C 23.6246153846158 112.270295698925  25.6246153846158 112.084811827957  27.7969230769236 112.449596774194  L 28.1538461538468 111.175940860215  L 25.981538461539 106.254435483871  L 25.7969230769236 105.889650537635  L 25.981538461539 105.889650537635  L 36.3076923076923 91.4651881720431  L 47.3661538461539 80.7194892473118  L 47.5507692307692 80.7194892473118  L 50.9969230769231 79.4396505376345  L 52.8123076923077 77.4364247311828  L 52.8123076923077 77.2509408602151  C 54.2646153846155 76.1627688172043  55.5323076923077 75.4331989247312  56.9846153846154 74.8829301075269  L 55.8953846153846 73.974059139785  L 53.5384615384615 71.6060483870967  L 53.5384615384615 71.420564516129  L 53.36 71.420564516129  L 51.5446153846153 69.2318548387098  L 51.36 68.8670698924732  L 51.36 68.5022849462366  L 52.2646153846155 67.4079301075269  L 49.9076923076923 67.9581989247313  L 44.8307692307693 66.6845430107527  C 42.8369230769232 65.7694892473119  41.5692307692308 64.6751344086022  41.2000000000002 63.4014784946237  C 40.1107692307693 60.1245967741936  39.7538461538461 57.2063172043011  39.9323076923077 54.6590053763442  C 39.2061538461538 55.5678763440861  38.3015384615386 55.7533602150538  37.396923076923 55.7533602150538  L 33.5876923076924 54.838306451613  L 31.0523076923078 53.0205645161291  L 27.9753846153848 52.2909946236559  L 26.523076923077 52.2909946236559  C 25.6184615384615 52.2909946236559  24.5292307692307 51.9262096774194  23.803076923077 51.2028225806451  C 22.7138461538462 50.4732526881721  22.1723076923076 49.743682795699  21.9876923076923 49.0141129032259  C 21.6246153846155 47.5549731182796  21.9876923076923 46.6461021505377  23.2553846153846 45.7372311827957  C 24.5230769230768 44.8283602150537  25.9753846153845 43.3692204301076  27.243076923077 41.5452956989247  C 25.9753846153848 39.9068548387097  25.4276923076923 38.2684139784947  25.9753846153848 36.6299731182796  L 26.1538461538462 36.4444892473118  C 26.3323076923077 35.5356182795699  27.7846153846153 34.8060483870968  30.5046153846155 33.8971774193549  C 30.6830769230769 32.988306451613  31.0461538461537 32.4380376344086  31.4092307692307 32.2587365591398  L 34.1292307692308 32.4380376344086  L 33.7661538461539 32.0732526881721  C 31.956923076923 30.9788978494624  31.4092307692307 29.705241935484  32.3199999999999 28.2461021505377  L 33.7661538461539 27.151747311828  C 35.396923076923 26.6076612903227  37.3907692307691 26.7869623655915  39.3846153846155 27.8813172043012  L 43.5507692307692 30.7934139784948  L 47.36 30.7934139784948  L 48.6338461538463 31.8877688172043  L 48.9969230769233 33.3469086021505  C 48.9969230769233 34.2557795698926  48.4492307692308 34.8060483870969  47.7292307692309 34.8060483870969  C 46.8246153846155 34.8060483870969  46.4615384615386 35.7149193548388  46.2769230769231 36.8092741935485  L 48.0923076923077 41.1805107526883  C 49.1815384615386 39.5420698924731  50.2707692307694 38.6331989247312  51.3538461538462 38.4477150537634  C 51.8953846153848 38.4477150537634  52.6215384615384 38.8125  53.1692307692309 39.5420698924731  C 53.7107692307693 40.4509408602152  54.2584615384617 42.0893817204302  54.6215384615386 43.7278225806451  C 54.8000000000001 45.7310483870967  55.3415384615387 47.3756720430108  55.8892307692308 48.2845430107527  L 57.3415384615387 50.2877688172043  C 59.52 53.0205645161291  60.7876923076924 55.0237903225807  61.1446153846155 56.6622311827958  L 68.2153846153847 55.7533602150538  L 71.2984615384617 54.1087365591397  L 74.1969230769232 50.4670698924732  L 75.4646153846154 47.0047043010753  L 75.4646153846154 46.8192204301075  L 75.4646153846154 46.6399193548388  L 76.3692307692309 42.9920698924731  L 76.3692307692309 42.8127688172043  L 76.5538461538462 42.4479838709678  L 76.7323076923078 42.4479838709678  L 79.4523076923077 40.6302419354838  L 79.9938461538461 40.2654569892474  L 79.8092307692308 40.0799731182797  L 75.2738461538461 38.6270161290322  L 74.9107692307692 38.6270161290322  L 74.9107692307692 38.4477150537634  L 74.0061538461539 35.7149193548387  Z " fill-rule="nonzero" fill="#00ccff" stroke="none" fill-opacity="0.498039215686275" transform="matrix(1 0 0 1 1099 416 )" />
    <path d="M 74.0061538461539 35.7149193548387  L 73.6615384615385 34.8122311827957  L 72.2092307692308 34.0826612903227  L 72.0246153846155 34.0826612903227  L 70.9353846153847 32.988306451613  L 65.8584615384615 31.5291666666667  L 64.5907692307693 31.5291666666667  L 63.686153846154 31.8939516129033  L 61.686153846154 28.0729838709678  L 61.8707692307694 27.8875  L 63.3230769230771 26.0697580645162  L 63.3230769230771 23.8810483870968  L 63.5015384615385 23.5162634408603  L 64.406153846154 22.057123655914  L 63.686153846154 21.6923387096774  L 60.9661538461538 21.1482526881721  L 56.2523076923078 20.4186827956989  L 55.8892307692308 20.4186827956989  L 53.1692307692309 17.6858870967742  L 53.1692307692309 17.5065860215054  L 52.2584615384617 15.6826612903226  L 52.0800000000002 15.1385752688171  L 53.5323076923079 11.3114247311828  L 53.5323076923079 8.57862903225805  L 53.3538461538462 7.84905913978491  L 51.9015384615385 9.30819892473119  L 51.7230769230771 9.48750000000007  L 51.3600000000001 10.0377688172043  L 50.9969230769233 9.48750000000007  L 50.4553846153847 9.30819892473119  L 47.7353846153848 7.12567204301081  L 47.3723076923078 6.76088709677424  L 47.3723076923078 6.39610215053767  L 46.8307692307694 2.38965053763445  L 45.563076923077 0.386424731182842  L 42.8430769230771 0.56572580645161  L 41.2123076923079 3.48400537634416  L 41.0338461538463 3.84879032258073  L 40.849230769231 4.02809139784949  L 36.4984615384617 3.11922043010759  L 35.772307692308 7.13185483870973  L 35.772307692308 11.1383064516129  L 35.5876923076926 11.3237903225807  L 33.2307692307695 14.9654569892473  L 33.2307692307695 15.3302419354839  L 32.8676923076926 15.5157258064517  L 32.6830769230772 15.5157258064517  L 29.9630769230773 15.6950268817205  L 27.2430769230773 17.8837365591398  L 26.8800000000005 18.2485215053764  L 26.5169230769235 18.2485215053764  L 26.3384615384618 18.0630376344086  L 21.2615384615387 16.4245967741937  L 20.5353846153851 18.2485215053764  L 20.5353846153851 18.4340053763442  L 18.3630769230773 22.0756720430107  C 18.0000000000005 22.805241935484  17.4523076923082 23.1700268817204  16.9169230769235 23.3493279569893  L 14.7384615384619 22.9845430107528  L 11.8338461538465 21.7108870967743  L 11.2923076923081 21.3461021505377  L 11.1076923076928 21.1668010752688  L 11.1076923076928 20.9813172043011  L 10.5661538461542 16.6100806451614  L 9.65538461538506 13.3270161290324  L 9.11384615384645 12.4119623655915  L 7.84615384615427 14.9592741935484  L 5.67384615384663 17.8775537634409  L 3.85846153846194 22.0633064516129  L 3.85846153846194 22.2426075268818  L 3.85846153846194 22.4280913978496  L 3.68000000000052 22.4280913978496  L 2.04307692307748 24.7961021505378  C 2.04307692307748 25.5256720430108  1.50153846153887 26.6200268817205  0.412307692308104 28.2584677419355  L 1.50153846153887 32.4504032258066  L 6.94153846153904 38.4662634408603  L 8.75692307692361 42.2872311827958  L 8.75692307692361 42.6520161290323  L 8.57846153846208 43.0168010752689  L 8.39384615384677 43.0168010752689  L 6.94153846153904 44.8407258064516  L 6.57846153846208 45.2055107526883  L 2.9538461538466 45.9350806451613  L 3.31692307692356 48.8533602150538  L 6.03692307692347 50.3125000000001  L 10.0246153846159 51.221370967742  L 11.1138461538467 54.8630376344087  L 11.1138461538467 55.0485215053764  L 11.1138461538467 55.2340053763442  L 10.2092307692312 61.4291666666667  L 10.2092307692312 61.6084677419355  L 8.75692307692361 64.3412634408603  L 8.75692307692361 64.8915322580647  L 8.39384615384677 64.8915322580647  L 3.86461538461583 65.6211021505377  L 3.86461538461583 67.4388440860216  L 2.59692307692364 71.4452956989248  L 2.04923076923137 76.0020161290324  L 2.96000000000049 78.5555107526882  L 8.57846153846208 82.0178763440862  L 8.75692307692361 82.203360215054  L 11.1138461538467 86.2098118279572  L 11.1138461538467 86.389112903226  L 11.298461538462 86.5684139784948  L 11.1138461538467 86.7538978494625  L 8.21538461538512 93.1345430107529  L 7.4892307692312 94.9522849462367  L 5.68000000000052 99.1442204301077  L 4.9538461538466 102.427284946237  L 4.77538461538518 102.792069892473  L 4.77538461538518 102.971370967742  C 3.86461538461606 103.700940860215  3.32307692307745 104.430510752688  2.96000000000049 105.518682795699  C 2.78153846153896 105.883467741936  2.78153846153896 106.248252688172  3.13846153846191 106.613037634409  L 3.32307692307745 106.798521505376  L 5.13230769230825 108.801747311828  L 6.04307692307748 110.260887096774  L 6.40615384615433 110.081586021506  L 6.58461538461597 110.625672043011  L 6.58461538461597 110.811155913979  L 6.58461538461597 111.355241935484  L 6.58461538461597 111.540725806452  L 6.94769230769293 112.635080645161  L 8.57846153846208 113.179166666667  L 15.1076923076928 114.638306451613  C 17.2861538461543 114.638306451613  19.2738461538468 114.088037634409  21.4523076923082 113.179166666667  C 23.6246153846158 112.270295698925  25.6246153846158 112.084811827957  27.7969230769236 112.449596774194  L 28.1538461538468 111.175940860215  L 25.981538461539 106.254435483871  L 25.7969230769236 105.889650537635  L 25.981538461539 105.889650537635  L 36.3076923076923 91.4651881720431  L 47.3661538461539 80.7194892473118  L 47.5507692307692 80.7194892473118  L 50.9969230769231 79.4396505376345  L 52.8123076923077 77.4364247311828  L 52.8123076923077 77.2509408602151  C 54.2646153846155 76.1627688172043  55.5323076923077 75.4331989247312  56.9846153846154 74.8829301075269  L 55.8953846153846 73.974059139785  L 53.5384615384615 71.6060483870967  L 53.5384615384615 71.420564516129  L 53.36 71.420564516129  L 51.5446153846153 69.2318548387098  L 51.36 68.8670698924732  L 51.36 68.5022849462366  L 52.2646153846155 67.4079301075269  L 49.9076923076923 67.9581989247313  L 44.8307692307693 66.6845430107527  C 42.8369230769232 65.7694892473119  41.5692307692308 64.6751344086022  41.2000000000002 63.4014784946237  C 40.1107692307693 60.1245967741936  39.7538461538461 57.2063172043011  39.9323076923077 54.6590053763442  C 39.2061538461538 55.5678763440861  38.3015384615386 55.7533602150538  37.396923076923 55.7533602150538  L 33.5876923076924 54.838306451613  L 31.0523076923078 53.0205645161291  L 27.9753846153848 52.2909946236559  L 26.523076923077 52.2909946236559  C 25.6184615384615 52.2909946236559  24.5292307692307 51.9262096774194  23.803076923077 51.2028225806451  C 22.7138461538462 50.4732526881721  22.1723076923076 49.743682795699  21.9876923076923 49.0141129032259  C 21.6246153846155 47.5549731182796  21.9876923076923 46.6461021505377  23.2553846153846 45.7372311827957  C 24.5230769230768 44.8283602150537  25.9753846153845 43.3692204301076  27.243076923077 41.5452956989247  C 25.9753846153848 39.9068548387097  25.4276923076923 38.2684139784947  25.9753846153848 36.6299731182796  L 26.1538461538462 36.4444892473118  C 26.3323076923077 35.5356182795699  27.7846153846153 34.8060483870968  30.5046153846155 33.8971774193549  C 30.6830769230769 32.988306451613  31.0461538461537 32.4380376344086  31.4092307692307 32.2587365591398  L 34.1292307692308 32.4380376344086  L 33.7661538461539 32.0732526881721  C 31.956923076923 30.9788978494624  31.4092307692307 29.705241935484  32.3199999999999 28.2461021505377  L 33.7661538461539 27.151747311828  C 35.396923076923 26.6076612903227  37.3907692307691 26.7869623655915  39.3846153846155 27.8813172043012  L 43.5507692307692 30.7934139784948  L 47.36 30.7934139784948  L 48.6338461538463 31.8877688172043  L 48.9969230769233 33.3469086021505  C 48.9969230769233 34.2557795698926  48.4492307692308 34.8060483870969  47.7292307692309 34.8060483870969  C 46.8246153846155 34.8060483870969  46.4615384615386 35.7149193548388  46.2769230769231 36.8092741935485  L 48.0923076923077 41.1805107526883  C 49.1815384615386 39.5420698924731  50.2707692307694 38.6331989247312  51.3538461538462 38.4477150537634  C 51.8953846153848 38.4477150537634  52.6215384615384 38.8125  53.1692307692309 39.5420698924731  C 53.7107692307693 40.4509408602152  54.2584615384617 42.0893817204302  54.6215384615386 43.7278225806451  C 54.8000000000001 45.7310483870967  55.3415384615387 47.3756720430108  55.8892307692308 48.2845430107527  L 57.3415384615387 50.2877688172043  C 59.52 53.0205645161291  60.7876923076924 55.0237903225807  61.1446153846155 56.6622311827958  L 68.2153846153847 55.7533602150538  L 71.2984615384617 54.1087365591397  L 74.1969230769232 50.4670698924732  L 75.4646153846154 47.0047043010753  L 75.4646153846154 46.8192204301075  L 75.4646153846154 46.6399193548388  L 76.3692307692309 42.9920698924731  L 76.3692307692309 42.8127688172043  L 76.5538461538462 42.4479838709678  L 76.7323076923078 42.4479838709678  L 79.4523076923077 40.6302419354838  L 79.9938461538461 40.2654569892474  L 79.8092307692308 40.0799731182797  L 75.2738461538461 38.6270161290322  L 74.9107692307692 38.6270161290322  L 74.9107692307692 38.4477150537634  L 74.0061538461539 35.7149193548387  Z " stroke-width="4" stroke="#00ccff" fill="none" stroke-opacity="0.498039215686275" transform="matrix(1 0 0 1 1099 416 )" mask="url(#clip176)" />
  </g>
</svg>