<?xml version="1.0" encoding="utf-8"?>
<svg version="1.1" xmlns:xlink="http://www.w3.org/1999/xlink" width="117px" height="93px" xmlns="http://www.w3.org/2000/svg">
  <defs>
    <mask fill="white" id="clip203">
      <path d="M 105.468031914893 36.5415100671144  C 105.492925531915 33.7639932885907  106.955425531915 32.2909731543624  109.345212765958 31.5544630872483  C 110.994414893617 31.3672147651007  111.909255319149 30.6307046979866  112.276436170213 29.7131879194631  L 112.276436170213 29.5321812080538  L 112.463138297872 28.9766778523491  L 113.1975 28.9766778523491  L 116.502127659575 28.7956711409397  L 116.502127659575 26.4051342281879  C 115.587287234042 26.4051342281879  114.666223404255 26.0368791946308  113.751382978723 25.3003691275168  L 108.249893617021 20.3382885906041  L 108.249893617021 20.1510402684564  L 105.866329787234 13.1604362416108  L 102.56170212766 9.85238255033562  C 98.5289361702127 9.67137583892622  95.4110106382977 9.67137583892622  93.2141489361703 9.85238255033562  L 92.4797872340426 10.0396308724833  L 92.6664893617021 12.2429194630872  L 92.6664893617021 12.6111744966444  L 92.6664893617021 13.1604362416108  L 92.1126063829788 13.1604362416108  L 89.1813829787235 14.4462080536913  L 88.6275000000001 14.0779530201343  C 86.2439361702128 11.6874161073824  84.7752127659573 10.7698993288591  83.8603723404256 11.3191610738255  C 77.4440425531915 14.4462080536913  73.7784574468085 15.9192281879195  72.676914893617 15.1827181208055  C 71.9425531914893 15.369966442953  71.021489361702 16.1064765100672  69.7394680851063 17.3922483221477  L 69.185585106383 18.1287583892617  L 68.4512234042553 17.3922483221477  C 66.6153191489361 15.7382214765101  65.7004787234042 14.2652013422819  65.7004787234042 13.1604362416108  C 65.7004787234042 12.4239261744967  66.9825 10.9571476510067  69.1793617021276 8.56661073825512  C 71.7496276595745 5.62057046979862  73.0316489361702 3.96654362416109  73.0316489361702 3.59828859060394  L 72.4839893617021 2.68077181208048  C 71.7496276595747 2.31251677852345  70.2871276595746 3.04902684563751  68.4512234042554 4.52204697986576  C 66.6153191489364 5.81406040268462  65.5200000000001 6.36332214765105  64.7856382978724 6.18231543624154  C 64.4184574468086 6.18231543624154  64.0512765957448 5.62681208053687  63.8707978723405 4.7092953020134  L 63.6840957446809 4.34104026845637  L 62.0348936170213 1.39499999999998  L 58.5497872340426 3.60453020134219  L 58.1826063829787 3.97278523489933  L 57.9959042553193 3.60453020134219  L 57.815425531915 3.60453020134219  C 55.2513829787234 2.13151006711405  52.8678191489362 1.21399328859047  50.4842553191492 0.296476510067009  C 48.8350531914896 -0.25278523489942  47.1796276595746 0.477483221476405  45.5304255319151 2.50600671140933  L 47.1796276595746 5.26479865771807  C 48.2811702127659 8.02359060402671  48.8288297872341 9.86486577181199  48.2811702127659 11.1506375838925  C 48.0944680851067 11.6998993288589  47.5468085106385 12.2491610738253  46.8124468085107 12.2491610738253  C 45.7109042553192 12.6174161073824  44.0617021276597 12.2491610738253  42.0453191489363 10.5951342281878  C 40.3961170212767 9.4903691275166  39.114095744681 8.57285234899325  38.0125531914895 8.02359060402671  L 35.8094680851065 7.10607382550325  L 35.8094680851065 7.28708053691264  L 35.9961702127661 7.65533557046968  L 35.9961702127661 11.6998993288589  L 33.0587234042554 15.0079530201341  L 33.0587234042554 18.1349999999999  L 34.3407446808512 21.4430536912749  L 34.5212234042552 21.6240604026843  L 32.5048404255318 24.7511073825501  L 31.2165957446808 27.6971476510065  L 31.2165957446808 27.8781543624158  L 28.4658510638297 30.6369463087245  L 23.8792021276595 41.122852348993  L 24.0596808510637 46.8214429530198  L 23.8792021276595 47.0086912751675  L 13.9777659574469 52.7135234899325  L 13.4238829787234 53.8182885906036  L 14.7059042553192 56.7643288590601  L 14.7059042553192 56.9453355704694  L 14.7059042553192 57.132583892617  L 13.7910638297873 60.996140939597  L 9.75829787234045 60.4406375838922  L 8.84345744680854 65.4027181208052  L 3.70914893617021 65.4027181208052  L 2.6076063829787 67.2439932885903  L 1.14510638297861 70.3710402684561  L 0.230265957446704 81.9554697986574  L 1.33180851063821 84.3460067114091  L 1.5185106382977 84.7142617449662  L 1.5185106382977 87.1047986577178  L 3.71537234042546 89.8635906040265  L 3.90207446808495 90.2318456375835  L 3.90207446808495 92.4351342281877  L 9.77074468085084 92.0668791946307  L 10.1379255319148 91.5113758389259  L 10.1379255319148 91.3303691275165  L 10.3184042553189 91.3303691275165  L 10.3184042553189 91.1431208053688  L 11.9676063829785 88.9398322147649  L 8.29579787234024 85.6317785234897  L 7.92861702127641 85.2635234899326  L 5.912234042553 83.6094966442952  L 5.73175531914865 83.4284899328858  L 5.54505319148916 83.2474832214764  L 5.54505319148916 79.564932885906  L 8.66297872340397 79.564932885906  L 9.0301595744678 78.2791610738254  L 7.74813829787229 74.6028523489931  L 14.8988297872338 74.6028523489931  L 27.5510106382977 68.5297651006711  L 29.2002127659574 65.7709731543624  L 29.5673936170213 64.8534563758388  L 32.1314361702127 65.9582214765098  L 32.311914893617 65.9582214765098  L 32.4986170212766 66.5074832214764  L 33.6001595744679 67.793255033557  L 34.8821808510636 67.6122483221476  L 34.5149999999998 64.8534563758388  L 38.7344680851062 64.8534563758388  L 42.767234042553 65.589966442953  L 44.4164361702126 62.8311744966443  L 44.5969148936167 62.6501677852349  L 44.5969148936167 62.4629194630872  L 44.9640957446808 62.2819127516779  L 49.3640425531912 60.9961409395974  L 50.0984042553189 54.5610402684564  L 54.6850531914891 58.6056040268456  L 56.514734042553 58.9738590604028  L 57.4295744680849 57.8690939597316  L 56.8756914893615 43.8941275167787  L 56.8756914893615 43.5258724832215  L 56.8756914893615 42.7893624161075  L 59.9936170212765 43.3448657718121  L 60.1740957446807 43.3448657718121  C 60.1740957446807 43.3448657718121  60.45414893617 43.4696979865773  60.5412765957445 43.5258724832215  C 60.5972872340425 43.5633221476511  60.6844148936169 43.6569463087249  60.7217553191488 43.7068791946309  C 62.2651595744678 45.7666107382551  65.6755851063829 52.7197651006712  65.6755851063829 52.7197651006712  L 71.9052127659572 51.9832550335572  L 73.0067553191487 51.6150000000001  L 73.9215957446806 49.4054697986578  L 72.0856914893615 47.9386912751679  L 71.5380319148934 47.2021812080538  L 75.7574999999998 45.7291610738256  L 76.1246808510637 45.541912751678  L 76.3113829787231 45.3609060402687  L 77.9605851063827 47.202181208054  L 79.4293085106381 46.4656711409399  L 79.4293085106381 43.7068791946311  L 80.34414893617 43.5258724832217  L 83.4620744680849 43.5258724832217  C 85.6589361702127 43.7068791946311  87.3143617021275 44.8116442953022  88.5963829787232 46.4719127516781  L 88.9635638297871 47.2084228187922  L 90.2455851063828 42.7956040268459  C 90.9799468085104 41.6908389261748  92.4486702127656 41.5098322147654  94.6517553191488 42.4273489932889  L 95.0189361702127 42.6083557046982  L 95.0189361702127 42.7893624161076  L 95.1994148936169 42.9766107382552  C 95.379893617021 43.1638590604028  95.7470744680849 43.3448657718122  95.9337765957443 43.3448657718122  C 96.8486170212764 42.9766107382552  100.153244680851 40.7733221476511  105.468031914893 36.5415100671144  Z " fill-rule="evenodd" />
    </mask>
  </defs>
  <g transform="matrix(1 0 0 1 -1062 -715 )">
    <path d="M 105.468031914893 36.5415100671144  C 105.492925531915 33.7639932885907  106.955425531915 32.2909731543624  109.345212765958 31.5544630872483  C 110.994414893617 31.3672147651007  111.909255319149 30.6307046979866  112.276436170213 29.7131879194631  L 112.276436170213 29.5321812080538  L 112.463138297872 28.9766778523491  L 113.1975 28.9766778523491  L 116.502127659575 28.7956711409397  L 116.502127659575 26.4051342281879  C 115.587287234042 26.4051342281879  114.666223404255 26.0368791946308  113.751382978723 25.3003691275168  L 108.249893617021 20.3382885906041  L 108.249893617021 20.1510402684564  L 105.866329787234 13.1604362416108  L 102.56170212766 9.85238255033562  C 98.5289361702127 9.67137583892622  95.4110106382977 9.67137583892622  93.2141489361703 9.85238255033562  L 92.4797872340426 10.0396308724833  L 92.6664893617021 12.2429194630872  L 92.6664893617021 12.6111744966444  L 92.6664893617021 13.1604362416108  L 92.1126063829788 13.1604362416108  L 89.1813829787235 14.4462080536913  L 88.6275000000001 14.0779530201343  C 86.2439361702128 11.6874161073824  84.7752127659573 10.7698993288591  83.8603723404256 11.3191610738255  C 77.4440425531915 14.4462080536913  73.7784574468085 15.9192281879195  72.676914893617 15.1827181208055  C 71.9425531914893 15.369966442953  71.021489361702 16.1064765100672  69.7394680851063 17.3922483221477  L 69.185585106383 18.1287583892617  L 68.4512234042553 17.3922483221477  C 66.6153191489361 15.7382214765101  65.7004787234042 14.2652013422819  65.7004787234042 13.1604362416108  C 65.7004787234042 12.4239261744967  66.9825 10.9571476510067  69.1793617021276 8.56661073825512  C 71.7496276595745 5.62057046979862  73.0316489361702 3.96654362416109  73.0316489361702 3.59828859060394  L 72.4839893617021 2.68077181208048  C 71.7496276595747 2.31251677852345  70.2871276595746 3.04902684563751  68.4512234042554 4.52204697986576  C 66.6153191489364 5.81406040268462  65.5200000000001 6.36332214765105  64.7856382978724 6.18231543624154  C 64.4184574468086 6.18231543624154  64.0512765957448 5.62681208053687  63.8707978723405 4.7092953020134  L 63.6840957446809 4.34104026845637  L 62.0348936170213 1.39499999999998  L 58.5497872340426 3.60453020134219  L 58.1826063829787 3.97278523489933  L 57.9959042553193 3.60453020134219  L 57.815425531915 3.60453020134219  C 55.2513829787234 2.13151006711405  52.8678191489362 1.21399328859047  50.4842553191492 0.296476510067009  C 48.8350531914896 -0.25278523489942  47.1796276595746 0.477483221476405  45.5304255319151 2.50600671140933  L 47.1796276595746 5.26479865771807  C 48.2811702127659 8.02359060402671  48.8288297872341 9.86486577181199  48.2811702127659 11.1506375838925  C 48.0944680851067 11.6998993288589  47.5468085106385 12.2491610738253  46.8124468085107 12.2491610738253  C 45.7109042553192 12.6174161073824  44.0617021276597 12.2491610738253  42.0453191489363 10.5951342281878  C 40.3961170212767 9.4903691275166  39.114095744681 8.57285234899325  38.0125531914895 8.02359060402671  L 35.8094680851065 7.10607382550325  L 35.8094680851065 7.28708053691264  L 35.9961702127661 7.65533557046968  L 35.9961702127661 11.6998993288589  L 33.0587234042554 15.0079530201341  L 33.0587234042554 18.1349999999999  L 34.3407446808512 21.4430536912749  L 34.5212234042552 21.6240604026843  L 32.5048404255318 24.7511073825501  L 31.2165957446808 27.6971476510065  L 31.2165957446808 27.8781543624158  L 28.4658510638297 30.6369463087245  L 23.8792021276595 41.122852348993  L 24.0596808510637 46.8214429530198  L 23.8792021276595 47.0086912751675  L 13.9777659574469 52.7135234899325  L 13.4238829787234 53.8182885906036  L 14.7059042553192 56.7643288590601  L 14.7059042553192 56.9453355704694  L 14.7059042553192 57.132583892617  L 13.7910638297873 60.996140939597  L 9.75829787234045 60.4406375838922  L 8.84345744680854 65.4027181208052  L 3.70914893617021 65.4027181208052  L 2.6076063829787 67.2439932885903  L 1.14510638297861 70.3710402684561  L 0.230265957446704 81.9554697986574  L 1.33180851063821 84.3460067114091  L 1.5185106382977 84.7142617449662  L 1.5185106382977 87.1047986577178  L 3.71537234042546 89.8635906040265  L 3.90207446808495 90.2318456375835  L 3.90207446808495 92.4351342281877  L 9.77074468085084 92.0668791946307  L 10.1379255319148 91.5113758389259  L 10.1379255319148 91.3303691275165  L 10.3184042553189 91.3303691275165  L 10.3184042553189 91.1431208053688  L 11.9676063829785 88.9398322147649  L 8.29579787234024 85.6317785234897  L 7.92861702127641 85.2635234899326  L 5.912234042553 83.6094966442952  L 5.73175531914865 83.4284899328858  L 5.54505319148916 83.2474832214764  L 5.54505319148916 79.564932885906  L 8.66297872340397 79.564932885906  L 9.0301595744678 78.2791610738254  L 7.74813829787229 74.6028523489931  L 14.8988297872338 74.6028523489931  L 27.5510106382977 68.5297651006711  L 29.2002127659574 65.7709731543624  L 29.5673936170213 64.8534563758388  L 32.1314361702127 65.9582214765098  L 32.311914893617 65.9582214765098  L 32.4986170212766 66.5074832214764  L 33.6001595744679 67.793255033557  L 34.8821808510636 67.6122483221476  L 34.5149999999998 64.8534563758388  L 38.7344680851062 64.8534563758388  L 42.767234042553 65.589966442953  L 44.4164361702126 62.8311744966443  L 44.5969148936167 62.6501677852349  L 44.5969148936167 62.4629194630872  L 44.9640957446808 62.2819127516779  L 49.3640425531912 60.9961409395974  L 50.0984042553189 54.5610402684564  L 54.6850531914891 58.6056040268456  L 56.514734042553 58.9738590604028  L 57.4295744680849 57.8690939597316  L 56.8756914893615 43.8941275167787  L 56.8756914893615 43.5258724832215  L 56.8756914893615 42.7893624161075  L 59.9936170212765 43.3448657718121  L 60.1740957446807 43.3448657718121  C 60.1740957446807 43.3448657718121  60.45414893617 43.4696979865773  60.5412765957445 43.5258724832215  C 60.5972872340425 43.5633221476511  60.6844148936169 43.6569463087249  60.7217553191488 43.7068791946309  C 62.2651595744678 45.7666107382551  65.6755851063829 52.7197651006712  65.6755851063829 52.7197651006712  L 71.9052127659572 51.9832550335572  L 73.0067553191487 51.6150000000001  L 73.9215957446806 49.4054697986578  L 72.0856914893615 47.9386912751679  L 71.5380319148934 47.2021812080538  L 75.7574999999998 45.7291610738256  L 76.1246808510637 45.541912751678  L 76.3113829787231 45.3609060402687  L 77.9605851063827 47.202181208054  L 79.4293085106381 46.4656711409399  L 79.4293085106381 43.7068791946311  L 80.34414893617 43.5258724832217  L 83.4620744680849 43.5258724832217  C 85.6589361702127 43.7068791946311  87.3143617021275 44.8116442953022  88.5963829787232 46.4719127516781  L 88.9635638297871 47.2084228187922  L 90.2455851063828 42.7956040268459  C 90.9799468085104 41.6908389261748  92.4486702127656 41.5098322147654  94.6517553191488 42.4273489932889  L 95.0189361702127 42.6083557046982  L 95.0189361702127 42.7893624161076  L 95.1994148936169 42.9766107382552  C 95.379893617021 43.1638590604028  95.7470744680849 43.3448657718122  95.9337765957443 43.3448657718122  C 96.8486170212764 42.9766107382552  100.153244680851 40.7733221476511  105.468031914893 36.5415100671144  Z " fill-rule="nonzero" fill="#00ccff" stroke="none" fill-opacity="0.498039215686275" transform="matrix(1 0 0 1 1062 715 )" />
    <path d="M 105.468031914893 36.5415100671144  C 105.492925531915 33.7639932885907  106.955425531915 32.2909731543624  109.345212765958 31.5544630872483  C 110.994414893617 31.3672147651007  111.909255319149 30.6307046979866  112.276436170213 29.7131879194631  L 112.276436170213 29.5321812080538  L 112.463138297872 28.9766778523491  L 113.1975 28.9766778523491  L 116.502127659575 28.7956711409397  L 116.502127659575 26.4051342281879  C 115.587287234042 26.4051342281879  114.666223404255 26.0368791946308  113.751382978723 25.3003691275168  L 108.249893617021 20.3382885906041  L 108.249893617021 20.1510402684564  L 105.866329787234 13.1604362416108  L 102.56170212766 9.85238255033562  C 98.5289361702127 9.67137583892622  95.4110106382977 9.67137583892622  93.2141489361703 9.85238255033562  L 92.4797872340426 10.0396308724833  L 92.6664893617021 12.2429194630872  L 92.6664893617021 12.6111744966444  L 92.6664893617021 13.1604362416108  L 92.1126063829788 13.1604362416108  L 89.1813829787235 14.4462080536913  L 88.6275000000001 14.0779530201343  C 86.2439361702128 11.6874161073824  84.7752127659573 10.7698993288591  83.8603723404256 11.3191610738255  C 77.4440425531915 14.4462080536913  73.7784574468085 15.9192281879195  72.676914893617 15.1827181208055  C 71.9425531914893 15.369966442953  71.021489361702 16.1064765100672  69.7394680851063 17.3922483221477  L 69.185585106383 18.1287583892617  L 68.4512234042553 17.3922483221477  C 66.6153191489361 15.7382214765101  65.7004787234042 14.2652013422819  65.7004787234042 13.1604362416108  C 65.7004787234042 12.4239261744967  66.9825 10.9571476510067  69.1793617021276 8.56661073825512  C 71.7496276595745 5.62057046979862  73.0316489361702 3.96654362416109  73.0316489361702 3.59828859060394  L 72.4839893617021 2.68077181208048  C 71.7496276595747 2.31251677852345  70.2871276595746 3.04902684563751  68.4512234042554 4.52204697986576  C 66.6153191489364 5.81406040268462  65.5200000000001 6.36332214765105  64.7856382978724 6.18231543624154  C 64.4184574468086 6.18231543624154  64.0512765957448 5.62681208053687  63.8707978723405 4.7092953020134  L 63.6840957446809 4.34104026845637  L 62.0348936170213 1.39499999999998  L 58.5497872340426 3.60453020134219  L 58.1826063829787 3.97278523489933  L 57.9959042553193 3.60453020134219  L 57.815425531915 3.60453020134219  C 55.2513829787234 2.13151006711405  52.8678191489362 1.21399328859047  50.4842553191492 0.296476510067009  C 48.8350531914896 -0.25278523489942  47.1796276595746 0.477483221476405  45.5304255319151 2.50600671140933  L 47.1796276595746 5.26479865771807  C 48.2811702127659 8.02359060402671  48.8288297872341 9.86486577181199  48.2811702127659 11.1506375838925  C 48.0944680851067 11.6998993288589  47.5468085106385 12.2491610738253  46.8124468085107 12.2491610738253  C 45.7109042553192 12.6174161073824  44.0617021276597 12.2491610738253  42.0453191489363 10.5951342281878  C 40.3961170212767 9.4903691275166  39.114095744681 8.57285234899325  38.0125531914895 8.02359060402671  L 35.8094680851065 7.10607382550325  L 35.8094680851065 7.28708053691264  L 35.9961702127661 7.65533557046968  L 35.9961702127661 11.6998993288589  L 33.0587234042554 15.0079530201341  L 33.0587234042554 18.1349999999999  L 34.3407446808512 21.4430536912749  L 34.5212234042552 21.6240604026843  L 32.5048404255318 24.7511073825501  L 31.2165957446808 27.6971476510065  L 31.2165957446808 27.8781543624158  L 28.4658510638297 30.6369463087245  L 23.8792021276595 41.122852348993  L 24.0596808510637 46.8214429530198  L 23.8792021276595 47.0086912751675  L 13.9777659574469 52.7135234899325  L 13.4238829787234 53.8182885906036  L 14.7059042553192 56.7643288590601  L 14.7059042553192 56.9453355704694  L 14.7059042553192 57.132583892617  L 13.7910638297873 60.996140939597  L 9.75829787234045 60.4406375838922  L 8.84345744680854 65.4027181208052  L 3.70914893617021 65.4027181208052  L 2.6076063829787 67.2439932885903  L 1.14510638297861 70.3710402684561  L 0.230265957446704 81.9554697986574  L 1.33180851063821 84.3460067114091  L 1.5185106382977 84.7142617449662  L 1.5185106382977 87.1047986577178  L 3.71537234042546 89.8635906040265  L 3.90207446808495 90.2318456375835  L 3.90207446808495 92.4351342281877  L 9.77074468085084 92.0668791946307  L 10.1379255319148 91.5113758389259  L 10.1379255319148 91.3303691275165  L 10.3184042553189 91.3303691275165  L 10.3184042553189 91.1431208053688  L 11.9676063829785 88.9398322147649  L 8.29579787234024 85.6317785234897  L 7.92861702127641 85.2635234899326  L 5.912234042553 83.6094966442952  L 5.73175531914865 83.4284899328858  L 5.54505319148916 83.2474832214764  L 5.54505319148916 79.564932885906  L 8.66297872340397 79.564932885906  L 9.0301595744678 78.2791610738254  L 7.74813829787229 74.6028523489931  L 14.8988297872338 74.6028523489931  L 27.5510106382977 68.5297651006711  L 29.2002127659574 65.7709731543624  L 29.5673936170213 64.8534563758388  L 32.1314361702127 65.9582214765098  L 32.311914893617 65.9582214765098  L 32.4986170212766 66.5074832214764  L 33.6001595744679 67.793255033557  L 34.8821808510636 67.6122483221476  L 34.5149999999998 64.8534563758388  L 38.7344680851062 64.8534563758388  L 42.767234042553 65.589966442953  L 44.4164361702126 62.8311744966443  L 44.5969148936167 62.6501677852349  L 44.5969148936167 62.4629194630872  L 44.9640957446808 62.2819127516779  L 49.3640425531912 60.9961409395974  L 50.0984042553189 54.5610402684564  L 54.6850531914891 58.6056040268456  L 56.514734042553 58.9738590604028  L 57.4295744680849 57.8690939597316  L 56.8756914893615 43.8941275167787  L 56.8756914893615 43.5258724832215  L 56.8756914893615 42.7893624161075  L 59.9936170212765 43.3448657718121  L 60.1740957446807 43.3448657718121  C 60.1740957446807 43.3448657718121  60.45414893617 43.4696979865773  60.5412765957445 43.5258724832215  C 60.5972872340425 43.5633221476511  60.6844148936169 43.6569463087249  60.7217553191488 43.7068791946309  C 62.2651595744678 45.7666107382551  65.6755851063829 52.7197651006712  65.6755851063829 52.7197651006712  L 71.9052127659572 51.9832550335572  L 73.0067553191487 51.6150000000001  L 73.9215957446806 49.4054697986578  L 72.0856914893615 47.9386912751679  L 71.5380319148934 47.2021812080538  L 75.7574999999998 45.7291610738256  L 76.1246808510637 45.541912751678  L 76.3113829787231 45.3609060402687  L 77.9605851063827 47.202181208054  L 79.4293085106381 46.4656711409399  L 79.4293085106381 43.7068791946311  L 80.34414893617 43.5258724832217  L 83.4620744680849 43.5258724832217  C 85.6589361702127 43.7068791946311  87.3143617021275 44.8116442953022  88.5963829787232 46.4719127516781  L 88.9635638297871 47.2084228187922  L 90.2455851063828 42.7956040268459  C 90.9799468085104 41.6908389261748  92.4486702127656 41.5098322147654  94.6517553191488 42.4273489932889  L 95.0189361702127 42.6083557046982  L 95.0189361702127 42.7893624161076  L 95.1994148936169 42.9766107382552  C 95.379893617021 43.1638590604028  95.7470744680849 43.3448657718122  95.9337765957443 43.3448657718122  C 96.8486170212764 42.9766107382552  100.153244680851 40.7733221476511  105.468031914893 36.5415100671144  Z " stroke-width="4" stroke="#00ccff" fill="none" stroke-opacity="0.498039215686275" transform="matrix(1 0 0 1 1062 715 )" mask="url(#clip203)" />
  </g>
</svg>