<?xml version="1.0" encoding="utf-8"?>
<svg version="1.1" xmlns:xlink="http://www.w3.org/1999/xlink" width="162px" height="142px" xmlns="http://www.w3.org/2000/svg">
  <defs>
    <mask fill="white" id="clip185">
      <path d="M 15.6205384615384 3.60916666666697  L 15.6205384615384 3.63407894736838  L 11.396076923077 2.34486842105264  L 6.99092307692314 1.79679824561401  L 5.52669230769231 3.44723684210521  L 5.1590769230769 6.56749999999999  L 5.34600000000006 6.74811403508761  L 6.62953846153846 11.5188157894736  L 6.81023076923083 15.1933771929824  L 6.81023076923083 16.295745614035  L 4.61076923076928 16.295745614035  L 5.53292307692311 20.6989912280701  L 2.04369230769231 21.988201754386  L 0.573230769230861 24.7410087719297  L 2.41130769230773 26.2108333333333  L 2.77892307692315 26.391447368421  L 9.20284615384617 31.5296052631578  L 9.38976923076933 31.7102192982455  L 9.57046153846153 31.7102192982455  L 9.57046153846153 31.8970614035087  L 9.57046153846153 32.0839035087719  L 10.4926153846154 36.67399122807  L 13.4273076923077 40.8903947368419  C 14.1625384615385 41.9927631578946  15.0784615384615 43.0951315789472  16.7296153846154 44.5587280701753  L 16.9165384615385 44.5587280701753  L 17.0972307692309 44.7393421052629  L 17.0972307692309 44.9261842105261  L 16.9165384615385 45.293640350877  L 16.9165384615385 49.3294298245612  C 17.4648461538462 50.4317982456138  17.6517692307693 52.8171491228068  17.6517692307693 56.298640350877  C 19.3029230769231 58.6902192982456  20.0381538461539 60.3344298245613  20.0381538461539 61.4367982456139  C 20.0381538461539 62.1717105263156  20.5864615384615 63.6353070175437  21.5023846153846 65.6594298245612  L 21.5023846153846 65.8400438596489  C 21.8700000000001 68.4122368421051  21.6893076923077 70.6107456140348  21.1347692307693 72.4480263157893  C 20.5802307692308 73.7310087719296  21.3154615384616 76.1163596491226  23.3342307692308 79.4234649122806  L 23.5211538461539 79.6040789473682  L 23.7018461538461 79.9715350877191  L 23.5211538461539 80.3389912280701  L 20.5802307692307 86.7601315789472  C 21.1347692307692 88.2299561403506  21.3154615384615 89.3260964912279  21.3154615384615 90.067236842105  L 20.5802307692307 96.1209210526314  C 20.2126153846153 98.1388157894735  20.2126153846153 99.2411842105261  21.1347692307692 99.6086403508771  L 22.2376153846154 100.343552631579  C 23.8887692307692 101.07846491228  24.4370769230769 101.99399122807  24.4370769230769 102.915745614035  L 24.2501538461538 106.03600877193  L 25.166076923077 106.40346491228  L 25.353 106.584078947368  L 25.9013076923076 106.03600877193  C 26.4496153846154 105.481710526316  27.0041538461538 104.746798245614  27.184846153846 103.831271929824  L 27.5524615384614 103.27697368421  L 27.7393846153845 102.909517543859  C 28.4746153846153 102.542061403509  28.8422307692307 101.99399122807  29.3905384615383 101.259078947368  C 29.5774615384614 100.156710526316  29.5774615384614 99.0605701754385  29.2098461538461 97.7713596491226  L 28.8422307692307 96.8558333333331  L 29.7581538461538 96.66899122807  C 32.6990769230769 95.9340789473682  34.3502307692307 96.1209210526314  34.9047692307691 97.4039035087717  L 36.3689999999999 101.072236842105  L 36.3689999999999 101.252850877193  L 36.3689999999999 101.439692982456  L 37.1042307692307 107.493377192982  L 39.4906153846154 108.782587719298  L 39.6713076923076 108.782587719298  L 39.8582307692307 108.782587719298  L 41.3286923076923 110.065570175438  L 42.7991538461537 108.415131578947  L 44.4503076923075 107.125921052631  L 45.004846153846 107.125921052631  C 46.2883846153844 107.493377192982  47.0236153846153 108.415131578947  47.3912307692307 109.698114035087  L 48.1264615384613 114.468815789473  L 48.3133846153845 115.203728070175  L 53.266846153846 125.8475  L 55.2856153846152 127.865394736842  L 55.4663076923076 128.052236842105  L 55.4663076923076 128.232850877193  L 56.3884615384613 132.636096491228  L 56.7560769230768 136.8525  L 56.9367692307691 137.219956140351  C 58.2203076923075 135.382675438596  59.3231538461537 134.467149122807  60.0583846153845 134.834605263158  C 60.7936153846152 135.021447368421  60.9743076923075 135.388903508772  60.9743076923075 136.117587719298  L 60.9743076923075 137.219956140351  L 60.9743076923075 140.520833333333  L 60.9743076923075 141.436359649122  C 61.8902307692307 141.623201754385  62.6254615384615 141.436359649122  62.8123846153844 140.888289473684  L 64.6442307692307 138.316096491228  L 66.6692307692307 136.298201754386  C 67.9527692307692 135.382675438596  69.2363076923075 134.647763157894  70.7067692307691 134.647763157894  L 70.8874615384615 134.647763157894  L 74.7443076923075 135.563289473684  L 75.8471538461538 135.015219298245  L 77.865923076923 132.443026315789  L 77.4983076923075 128.407236842105  C 76.2147692307691 126.2025  75.6602307692307 124.371447368421  76.0340769230768 123.08846491228  L 76.5823846153846 119.787587719298  L 76.5823846153846 119.420131578947  L 76.7693076923076 119.052675438596  L 80.2585384615384 117.034780701754  L 80.4454615384614 117.034780701754  L 83.0125384615384 115.384342105263  L 85.9534615384613 111.167938596491  L 86.3210769230768 108.047675438596  L 84.6 102.915745614035  L 90.3586153846152 103.638201754386  L 90.3586153846152 100.517938596491  L 90.3586153846152 100.331096491228  L 93.1126153846153 97.9457456140348  L 98.4399230769229 96.4821491228066  L 98.8075384615384 96.4821491228066  L 101.929153846154 103.270745614035  L 101.929153846154 103.638201754386  L 101.561538461538 106.204166666666  L 101.929153846154 108.589517543859  C 102.296769230769 109.691885964912  103.032 110.246184210526  103.580307692308 110.246184210526  C 104.315538461538 110.246184210526  105.050769230769 109.691885964912  105.786 108.776359649122  L 105.966692307692 108.408903508772  L 106.153615384615 108.408903508772  L 110.558769230769 106.939078947368  L 110.739461538461 106.939078947368  C 113.125846153846 106.939078947368  114.228692307692 107.487149122807  114.777 108.589517543859  L 115.144615384615 113.547061403508  L 115.144615384615 113.727675438596  L 116.066769230769 113.908289473684  L 117.898615384615 114.456359649122  L 120.652615384615 114.269517543859  L 125.238461538461 112.986535087719  L 127.992461538461 110.601184210526  L 128.173153846154 108.577061403508  L 126.889615384615 107.107236842105  L 122.116846153846 105.456798245614  L 121.749230769231 105.26995614035  L 121.749230769231 105.089342105263  L 116.24123076923 99.5837280701751  L 116.795769230769 99.2162719298242  L 119.549769230769 96.8309210526312  L 119.730461538461 96.6440789473681  L 122.484461538461 95.5417105263155  L 123.039 95.5417105263155  L 126.708923076923 96.2766228070171  L 126.895846153846 96.2766228070171  L 127.076538461538 96.4634649122803  L 127.076538461538 94.9936403508767  L 125.425384615384 92.2408333333328  L 122.858307692307 90.9578508771926  L 119.369076923077 85.8196929824558  L 119.182153846154 85.6328508771926  L 119.182153846154 85.4709210526315  L 117.531 79.4172368421052  L 117.531 74.827149122807  L 120.465692307692 72.0743421052632  L 124.870846153846 72.0743421052632  L 135.151615384615 72.9898684210526  L 139.924384615384 66.2012719298245  L 139.924384615384 65.8338157894736  L 140.292 65.8338157894736  L 144.148846153846 63.8159210526316  L 146.167615384615 59.7801315789474  L 146.348307692308 59.5995175438596  L 150.940384615384 55.7443421052632  L 153.139846153846 51.708552631579  L 153.139846153846 51.5279385964913  L 153.320538461538 51.5279385964913  L 153.320538461538 51.3473245614035  L 155.158615384615 49.5100438596492  L 157.358076923077 45.8417105263159  L 158.093307692307 40.1492543859649  L 158.093307692307 39.6011842105263  L 158.274 39.4205701754386  L 161.208692307692 37.4026754385965  L 161.943923076923 36.6677631578948  L 157.532538461538 35.9328508771931  L 150.192692307692 36.3003070175439  L 150.012 36.1196929824563  L 147.258 33.914956140351  L 146.890384615384 33.914956140351  L 146.890384615384 33.7281140350879  L 145.426153846154 31.5233771929827  L 145.058538461538 31.7039912280703  L 144.871615384615 32.0714473684213  C 144.504 32.6257456140353  143.588076923077 32.806359649123  142.48523076923 32.806359649123  L 141.382384615384 33.3544298245616  C 141.014769230769 33.5412719298247  140.834076923077 33.7218859649125  140.279538461538 33.5412719298247  C 139.911923076923 33.5412719298247  139.73123076923 32.9932017543861  139.363615384615 32.0714473684212  C 139.182923076923 31.1559210526317  138.815307692307 30.2341666666667  137.712461538461 29.3186403508773  L 137.531769230769 29.1317982456142  L 137.531769230769 28.9511842105265  L 137.351076923077 28.9511842105265  L 136.428923076923 26.5658333333336  L 135.693692307692 26.5658333333336  L 132.939692307692 28.3968859649125  L 132.759 28.5775000000002  L 132.572076923077 28.5775000000002  L 126.148153846154 29.8604824561405  L 125.780538461538 29.8604824561405  L 125.412923076923 29.6736403508775  L 121.194692307692 26.7402192982458  L 121.007769230769 26.559605263158  L 121.007769230769 26.372763157895  L 120.827076923077 26.372763157895  L 119.724230769231 24.1680263157898  L 116.602615384615 27.4689035087721  C 114.403153846154 30.0348684210528  112.745769230769 30.7760087719299  111.649153846154 30.0348684210528  L 107.424692307692 27.8363596491231  L 104.49 27.4689035087721  L 104.122384615384 27.6495175438599  L 101.368384615384 25.6316228070177  L 101.187692307692 25.45100877193  L 100.639384615384 25.2641666666669  L 101.922923076923 20.3066228070178  L 101.922923076923 18.6561842105265  L 100.271769230769 17.9212719298248  L 100.091076923077 17.9212719298248  L 96.2342307692307 13.7048684210529  L 96.4149230769229 10.5846052631582  L 86.8693846153844 9.66907894736869  L 83.1932307692307 7.64495614035116  C 82.2773076923076 7.09688596491264  81.5420769230768 5.99451754385996  80.9875384615384 4.16346491228103  L 80.4392307692307 2.88048245614073  L 79.704 0.127675438596839  L 78.4142307692307 0.308289473684567  L 75.4795384615384 2.69364035087744  L 71.9903076923076 6.91004385964936  L 72.7255384615383 10.0303070175441  L 73.8221538461536 14.0660964912283  L 73.8221538461536 14.2529385964915  L 74.0090769230767 14.2529385964915  L 73.8221538461536 14.4335526315792  L 73.8221538461536 14.6203947368424  C 73.4545384615383 15.7165350877195  72.3579230769228 16.2708333333335  70.7005384615383 16.2708333333335  L 67.0306153846152 16.2708333333335  L 64.824923076923 15.1684649122809  L 62.070923076923 16.2708333333335  L 61.5163846153845 16.4576754385968  L 61.1487692307691 16.2708333333335  L 60.7811538461538 18.8430263157896  L 60.6004615384615 19.2104824561405  L 60.6004615384615 19.7585526315792  L 60.045923076923 19.7585526315792  L 55.4538461538461 18.2887280701757  C 55.4538461538461 19.7585526315792  55.640769230769 20.8609210526319  56.3759999999999 22.1439035087722  C 56.9243076923075 23.4268859649125  57.1112307692306 24.3486403508774  56.5566923076922 25.45100877193  L 56.0083846153846 26.9208333333336  C 55.4538461538461 27.4689035087721  53.8026923076921 27.6557456140353  51.4163076923075 27.4689035087721  L 48.2946923076922 27.4689035087721  L 48.107769230769 32.607061403509  L 44.0702307692306 31.1372368421055  L 43.8833076923077 31.1372368421055  L 43.6963846153845 30.9503947368423  L 41.6713846153845 27.1014473684214  L 37.2662307692306 25.6316228070177  L 36.1633846153845 23.2462719298248  L 34.5122307692307 24.5292543859651  L 34.3253076923077 24.5292543859651  L 31.5713076923076 25.0835526315791  L 30.836076923077 25.0835526315791  L 29.3656153846154 21.7826754385967  L 27.8951538461538 19.7647807017546  L 27.7144615384616 19.5779385964915  C 26.2502307692307 17.7468859649124  25.515 16.0964473684213  25.1473846153847 15.1746929824563  C 25.1473846153847 14.9878508771932  24.7797692307693 14.6266228070177  23.8638461538462 14.4397807017546  L 23.1286153846154 14.2591666666669  C 21.845076923077 13.7048684210529  20.9291538461539 12.6025000000003  20.3746153846154 10.9520614035091  L 19.6393846153848 7.83179824561444  L 19.6393846153848 5.25960526315828  L 18.3558461538462 2.87425438596517  L 16.1563846153848 3.60916666666697  L 15.9694615384616 3.60916666666697  L 15.7887692307694 3.60916666666697  L 15.6205384615384 3.60916666666697  Z " fill-rule="evenodd" />
    </mask>
  </defs>
  <g transform="matrix(1 0 0 1 -876 -569 )">
    <path d="M 15.6205384615384 3.60916666666697  L 15.6205384615384 3.63407894736838  L 11.396076923077 2.34486842105264  L 6.99092307692314 1.79679824561401  L 5.52669230769231 3.44723684210521  L 5.1590769230769 6.56749999999999  L 5.34600000000006 6.74811403508761  L 6.62953846153846 11.5188157894736  L 6.81023076923083 15.1933771929824  L 6.81023076923083 16.295745614035  L 4.61076923076928 16.295745614035  L 5.53292307692311 20.6989912280701  L 2.04369230769231 21.988201754386  L 0.573230769230861 24.7410087719297  L 2.41130769230773 26.2108333333333  L 2.77892307692315 26.391447368421  L 9.20284615384617 31.5296052631578  L 9.38976923076933 31.7102192982455  L 9.57046153846153 31.7102192982455  L 9.57046153846153 31.8970614035087  L 9.57046153846153 32.0839035087719  L 10.4926153846154 36.67399122807  L 13.4273076923077 40.8903947368419  C 14.1625384615385 41.9927631578946  15.0784615384615 43.0951315789472  16.7296153846154 44.5587280701753  L 16.9165384615385 44.5587280701753  L 17.0972307692309 44.7393421052629  L 17.0972307692309 44.9261842105261  L 16.9165384615385 45.293640350877  L 16.9165384615385 49.3294298245612  C 17.4648461538462 50.4317982456138  17.6517692307693 52.8171491228068  17.6517692307693 56.298640350877  C 19.3029230769231 58.6902192982456  20.0381538461539 60.3344298245613  20.0381538461539 61.4367982456139  C 20.0381538461539 62.1717105263156  20.5864615384615 63.6353070175437  21.5023846153846 65.6594298245612  L 21.5023846153846 65.8400438596489  C 21.8700000000001 68.4122368421051  21.6893076923077 70.6107456140348  21.1347692307693 72.4480263157893  C 20.5802307692308 73.7310087719296  21.3154615384616 76.1163596491226  23.3342307692308 79.4234649122806  L 23.5211538461539 79.6040789473682  L 23.7018461538461 79.9715350877191  L 23.5211538461539 80.3389912280701  L 20.5802307692307 86.7601315789472  C 21.1347692307692 88.2299561403506  21.3154615384615 89.3260964912279  21.3154615384615 90.067236842105  L 20.5802307692307 96.1209210526314  C 20.2126153846153 98.1388157894735  20.2126153846153 99.2411842105261  21.1347692307692 99.6086403508771  L 22.2376153846154 100.343552631579  C 23.8887692307692 101.07846491228  24.4370769230769 101.99399122807  24.4370769230769 102.915745614035  L 24.2501538461538 106.03600877193  L 25.166076923077 106.40346491228  L 25.353 106.584078947368  L 25.9013076923076 106.03600877193  C 26.4496153846154 105.481710526316  27.0041538461538 104.746798245614  27.184846153846 103.831271929824  L 27.5524615384614 103.27697368421  L 27.7393846153845 102.909517543859  C 28.4746153846153 102.542061403509  28.8422307692307 101.99399122807  29.3905384615383 101.259078947368  C 29.5774615384614 100.156710526316  29.5774615384614 99.0605701754385  29.2098461538461 97.7713596491226  L 28.8422307692307 96.8558333333331  L 29.7581538461538 96.66899122807  C 32.6990769230769 95.9340789473682  34.3502307692307 96.1209210526314  34.9047692307691 97.4039035087717  L 36.3689999999999 101.072236842105  L 36.3689999999999 101.252850877193  L 36.3689999999999 101.439692982456  L 37.1042307692307 107.493377192982  L 39.4906153846154 108.782587719298  L 39.6713076923076 108.782587719298  L 39.8582307692307 108.782587719298  L 41.3286923076923 110.065570175438  L 42.7991538461537 108.415131578947  L 44.4503076923075 107.125921052631  L 45.004846153846 107.125921052631  C 46.2883846153844 107.493377192982  47.0236153846153 108.415131578947  47.3912307692307 109.698114035087  L 48.1264615384613 114.468815789473  L 48.3133846153845 115.203728070175  L 53.266846153846 125.8475  L 55.2856153846152 127.865394736842  L 55.4663076923076 128.052236842105  L 55.4663076923076 128.232850877193  L 56.3884615384613 132.636096491228  L 56.7560769230768 136.8525  L 56.9367692307691 137.219956140351  C 58.2203076923075 135.382675438596  59.3231538461537 134.467149122807  60.0583846153845 134.834605263158  C 60.7936153846152 135.021447368421  60.9743076923075 135.388903508772  60.9743076923075 136.117587719298  L 60.9743076923075 137.219956140351  L 60.9743076923075 140.520833333333  L 60.9743076923075 141.436359649122  C 61.8902307692307 141.623201754385  62.6254615384615 141.436359649122  62.8123846153844 140.888289473684  L 64.6442307692307 138.316096491228  L 66.6692307692307 136.298201754386  C 67.9527692307692 135.382675438596  69.2363076923075 134.647763157894  70.7067692307691 134.647763157894  L 70.8874615384615 134.647763157894  L 74.7443076923075 135.563289473684  L 75.8471538461538 135.015219298245  L 77.865923076923 132.443026315789  L 77.4983076923075 128.407236842105  C 76.2147692307691 126.2025  75.6602307692307 124.371447368421  76.0340769230768 123.08846491228  L 76.5823846153846 119.787587719298  L 76.5823846153846 119.420131578947  L 76.7693076923076 119.052675438596  L 80.2585384615384 117.034780701754  L 80.4454615384614 117.034780701754  L 83.0125384615384 115.384342105263  L 85.9534615384613 111.167938596491  L 86.3210769230768 108.047675438596  L 84.6 102.915745614035  L 90.3586153846152 103.638201754386  L 90.3586153846152 100.517938596491  L 90.3586153846152 100.331096491228  L 93.1126153846153 97.9457456140348  L 98.4399230769229 96.4821491228066  L 98.8075384615384 96.4821491228066  L 101.929153846154 103.270745614035  L 101.929153846154 103.638201754386  L 101.561538461538 106.204166666666  L 101.929153846154 108.589517543859  C 102.296769230769 109.691885964912  103.032 110.246184210526  103.580307692308 110.246184210526  C 104.315538461538 110.246184210526  105.050769230769 109.691885964912  105.786 108.776359649122  L 105.966692307692 108.408903508772  L 106.153615384615 108.408903508772  L 110.558769230769 106.939078947368  L 110.739461538461 106.939078947368  C 113.125846153846 106.939078947368  114.228692307692 107.487149122807  114.777 108.589517543859  L 115.144615384615 113.547061403508  L 115.144615384615 113.727675438596  L 116.066769230769 113.908289473684  L 117.898615384615 114.456359649122  L 120.652615384615 114.269517543859  L 125.238461538461 112.986535087719  L 127.992461538461 110.601184210526  L 128.173153846154 108.577061403508  L 126.889615384615 107.107236842105  L 122.116846153846 105.456798245614  L 121.749230769231 105.26995614035  L 121.749230769231 105.089342105263  L 116.24123076923 99.5837280701751  L 116.795769230769 99.2162719298242  L 119.549769230769 96.8309210526312  L 119.730461538461 96.6440789473681  L 122.484461538461 95.5417105263155  L 123.039 95.5417105263155  L 126.708923076923 96.2766228070171  L 126.895846153846 96.2766228070171  L 127.076538461538 96.4634649122803  L 127.076538461538 94.9936403508767  L 125.425384615384 92.2408333333328  L 122.858307692307 90.9578508771926  L 119.369076923077 85.8196929824558  L 119.182153846154 85.6328508771926  L 119.182153846154 85.4709210526315  L 117.531 79.4172368421052  L 117.531 74.827149122807  L 120.465692307692 72.0743421052632  L 124.870846153846 72.0743421052632  L 135.151615384615 72.9898684210526  L 139.924384615384 66.2012719298245  L 139.924384615384 65.8338157894736  L 140.292 65.8338157894736  L 144.148846153846 63.8159210526316  L 146.167615384615 59.7801315789474  L 146.348307692308 59.5995175438596  L 150.940384615384 55.7443421052632  L 153.139846153846 51.708552631579  L 153.139846153846 51.5279385964913  L 153.320538461538 51.5279385964913  L 153.320538461538 51.3473245614035  L 155.158615384615 49.5100438596492  L 157.358076923077 45.8417105263159  L 158.093307692307 40.1492543859649  L 158.093307692307 39.6011842105263  L 158.274 39.4205701754386  L 161.208692307692 37.4026754385965  L 161.943923076923 36.6677631578948  L 157.532538461538 35.9328508771931  L 150.192692307692 36.3003070175439  L 150.012 36.1196929824563  L 147.258 33.914956140351  L 146.890384615384 33.914956140351  L 146.890384615384 33.7281140350879  L 145.426153846154 31.5233771929827  L 145.058538461538 31.7039912280703  L 144.871615384615 32.0714473684213  C 144.504 32.6257456140353  143.588076923077 32.806359649123  142.48523076923 32.806359649123  L 141.382384615384 33.3544298245616  C 141.014769230769 33.5412719298247  140.834076923077 33.7218859649125  140.279538461538 33.5412719298247  C 139.911923076923 33.5412719298247  139.73123076923 32.9932017543861  139.363615384615 32.0714473684212  C 139.182923076923 31.1559210526317  138.815307692307 30.2341666666667  137.712461538461 29.3186403508773  L 137.531769230769 29.1317982456142  L 137.531769230769 28.9511842105265  L 137.351076923077 28.9511842105265  L 136.428923076923 26.5658333333336  L 135.693692307692 26.5658333333336  L 132.939692307692 28.3968859649125  L 132.759 28.5775000000002  L 132.572076923077 28.5775000000002  L 126.148153846154 29.8604824561405  L 125.780538461538 29.8604824561405  L 125.412923076923 29.6736403508775  L 121.194692307692 26.7402192982458  L 121.007769230769 26.559605263158  L 121.007769230769 26.372763157895  L 120.827076923077 26.372763157895  L 119.724230769231 24.1680263157898  L 116.602615384615 27.4689035087721  C 114.403153846154 30.0348684210528  112.745769230769 30.7760087719299  111.649153846154 30.0348684210528  L 107.424692307692 27.8363596491231  L 104.49 27.4689035087721  L 104.122384615384 27.6495175438599  L 101.368384615384 25.6316228070177  L 101.187692307692 25.45100877193  L 100.639384615384 25.2641666666669  L 101.922923076923 20.3066228070178  L 101.922923076923 18.6561842105265  L 100.271769230769 17.9212719298248  L 100.091076923077 17.9212719298248  L 96.2342307692307 13.7048684210529  L 96.4149230769229 10.5846052631582  L 86.8693846153844 9.66907894736869  L 83.1932307692307 7.64495614035116  C 82.2773076923076 7.09688596491264  81.5420769230768 5.99451754385996  80.9875384615384 4.16346491228103  L 80.4392307692307 2.88048245614073  L 79.704 0.127675438596839  L 78.4142307692307 0.308289473684567  L 75.4795384615384 2.69364035087744  L 71.9903076923076 6.91004385964936  L 72.7255384615383 10.0303070175441  L 73.8221538461536 14.0660964912283  L 73.8221538461536 14.2529385964915  L 74.0090769230767 14.2529385964915  L 73.8221538461536 14.4335526315792  L 73.8221538461536 14.6203947368424  C 73.4545384615383 15.7165350877195  72.3579230769228 16.2708333333335  70.7005384615383 16.2708333333335  L 67.0306153846152 16.2708333333335  L 64.824923076923 15.1684649122809  L 62.070923076923 16.2708333333335  L 61.5163846153845 16.4576754385968  L 61.1487692307691 16.2708333333335  L 60.7811538461538 18.8430263157896  L 60.6004615384615 19.2104824561405  L 60.6004615384615 19.7585526315792  L 60.045923076923 19.7585526315792  L 55.4538461538461 18.2887280701757  C 55.4538461538461 19.7585526315792  55.640769230769 20.8609210526319  56.3759999999999 22.1439035087722  C 56.9243076923075 23.4268859649125  57.1112307692306 24.3486403508774  56.5566923076922 25.45100877193  L 56.0083846153846 26.9208333333336  C 55.4538461538461 27.4689035087721  53.8026923076921 27.6557456140353  51.4163076923075 27.4689035087721  L 48.2946923076922 27.4689035087721  L 48.107769230769 32.607061403509  L 44.0702307692306 31.1372368421055  L 43.8833076923077 31.1372368421055  L 43.6963846153845 30.9503947368423  L 41.6713846153845 27.1014473684214  L 37.2662307692306 25.6316228070177  L 36.1633846153845 23.2462719298248  L 34.5122307692307 24.5292543859651  L 34.3253076923077 24.5292543859651  L 31.5713076923076 25.0835526315791  L 30.836076923077 25.0835526315791  L 29.3656153846154 21.7826754385967  L 27.8951538461538 19.7647807017546  L 27.7144615384616 19.5779385964915  C 26.2502307692307 17.7468859649124  25.515 16.0964473684213  25.1473846153847 15.1746929824563  C 25.1473846153847 14.9878508771932  24.7797692307693 14.6266228070177  23.8638461538462 14.4397807017546  L 23.1286153846154 14.2591666666669  C 21.845076923077 13.7048684210529  20.9291538461539 12.6025000000003  20.3746153846154 10.9520614035091  L 19.6393846153848 7.83179824561444  L 19.6393846153848 5.25960526315828  L 18.3558461538462 2.87425438596517  L 16.1563846153848 3.60916666666697  L 15.9694615384616 3.60916666666697  L 15.7887692307694 3.60916666666697  L 15.6205384615384 3.60916666666697  Z " fill-rule="nonzero" fill="#00ccff" stroke="none" fill-opacity="0.447058823529412" transform="matrix(1 0 0 1 876 569 )" />
    <path d="M 15.6205384615384 3.60916666666697  L 15.6205384615384 3.63407894736838  L 11.396076923077 2.34486842105264  L 6.99092307692314 1.79679824561401  L 5.52669230769231 3.44723684210521  L 5.1590769230769 6.56749999999999  L 5.34600000000006 6.74811403508761  L 6.62953846153846 11.5188157894736  L 6.81023076923083 15.1933771929824  L 6.81023076923083 16.295745614035  L 4.61076923076928 16.295745614035  L 5.53292307692311 20.6989912280701  L 2.04369230769231 21.988201754386  L 0.573230769230861 24.7410087719297  L 2.41130769230773 26.2108333333333  L 2.77892307692315 26.391447368421  L 9.20284615384617 31.5296052631578  L 9.38976923076933 31.7102192982455  L 9.57046153846153 31.7102192982455  L 9.57046153846153 31.8970614035087  L 9.57046153846153 32.0839035087719  L 10.4926153846154 36.67399122807  L 13.4273076923077 40.8903947368419  C 14.1625384615385 41.9927631578946  15.0784615384615 43.0951315789472  16.7296153846154 44.5587280701753  L 16.9165384615385 44.5587280701753  L 17.0972307692309 44.7393421052629  L 17.0972307692309 44.9261842105261  L 16.9165384615385 45.293640350877  L 16.9165384615385 49.3294298245612  C 17.4648461538462 50.4317982456138  17.6517692307693 52.8171491228068  17.6517692307693 56.298640350877  C 19.3029230769231 58.6902192982456  20.0381538461539 60.3344298245613  20.0381538461539 61.4367982456139  C 20.0381538461539 62.1717105263156  20.5864615384615 63.6353070175437  21.5023846153846 65.6594298245612  L 21.5023846153846 65.8400438596489  C 21.8700000000001 68.4122368421051  21.6893076923077 70.6107456140348  21.1347692307693 72.4480263157893  C 20.5802307692308 73.7310087719296  21.3154615384616 76.1163596491226  23.3342307692308 79.4234649122806  L 23.5211538461539 79.6040789473682  L 23.7018461538461 79.9715350877191  L 23.5211538461539 80.3389912280701  L 20.5802307692307 86.7601315789472  C 21.1347692307692 88.2299561403506  21.3154615384615 89.3260964912279  21.3154615384615 90.067236842105  L 20.5802307692307 96.1209210526314  C 20.2126153846153 98.1388157894735  20.2126153846153 99.2411842105261  21.1347692307692 99.6086403508771  L 22.2376153846154 100.343552631579  C 23.8887692307692 101.07846491228  24.4370769230769 101.99399122807  24.4370769230769 102.915745614035  L 24.2501538461538 106.03600877193  L 25.166076923077 106.40346491228  L 25.353 106.584078947368  L 25.9013076923076 106.03600877193  C 26.4496153846154 105.481710526316  27.0041538461538 104.746798245614  27.184846153846 103.831271929824  L 27.5524615384614 103.27697368421  L 27.7393846153845 102.909517543859  C 28.4746153846153 102.542061403509  28.8422307692307 101.99399122807  29.3905384615383 101.259078947368  C 29.5774615384614 100.156710526316  29.5774615384614 99.0605701754385  29.2098461538461 97.7713596491226  L 28.8422307692307 96.8558333333331  L 29.7581538461538 96.66899122807  C 32.6990769230769 95.9340789473682  34.3502307692307 96.1209210526314  34.9047692307691 97.4039035087717  L 36.3689999999999 101.072236842105  L 36.3689999999999 101.252850877193  L 36.3689999999999 101.439692982456  L 37.1042307692307 107.493377192982  L 39.4906153846154 108.782587719298  L 39.6713076923076 108.782587719298  L 39.8582307692307 108.782587719298  L 41.3286923076923 110.065570175438  L 42.7991538461537 108.415131578947  L 44.4503076923075 107.125921052631  L 45.004846153846 107.125921052631  C 46.2883846153844 107.493377192982  47.0236153846153 108.415131578947  47.3912307692307 109.698114035087  L 48.1264615384613 114.468815789473  L 48.3133846153845 115.203728070175  L 53.266846153846 125.8475  L 55.2856153846152 127.865394736842  L 55.4663076923076 128.052236842105  L 55.4663076923076 128.232850877193  L 56.3884615384613 132.636096491228  L 56.7560769230768 136.8525  L 56.9367692307691 137.219956140351  C 58.2203076923075 135.382675438596  59.3231538461537 134.467149122807  60.0583846153845 134.834605263158  C 60.7936153846152 135.021447368421  60.9743076923075 135.388903508772  60.9743076923075 136.117587719298  L 60.9743076923075 137.219956140351  L 60.9743076923075 140.520833333333  L 60.9743076923075 141.436359649122  C 61.8902307692307 141.623201754385  62.6254615384615 141.436359649122  62.8123846153844 140.888289473684  L 64.6442307692307 138.316096491228  L 66.6692307692307 136.298201754386  C 67.9527692307692 135.382675438596  69.2363076923075 134.647763157894  70.7067692307691 134.647763157894  L 70.8874615384615 134.647763157894  L 74.7443076923075 135.563289473684  L 75.8471538461538 135.015219298245  L 77.865923076923 132.443026315789  L 77.4983076923075 128.407236842105  C 76.2147692307691 126.2025  75.6602307692307 124.371447368421  76.0340769230768 123.08846491228  L 76.5823846153846 119.787587719298  L 76.5823846153846 119.420131578947  L 76.7693076923076 119.052675438596  L 80.2585384615384 117.034780701754  L 80.4454615384614 117.034780701754  L 83.0125384615384 115.384342105263  L 85.9534615384613 111.167938596491  L 86.3210769230768 108.047675438596  L 84.6 102.915745614035  L 90.3586153846152 103.638201754386  L 90.3586153846152 100.517938596491  L 90.3586153846152 100.331096491228  L 93.1126153846153 97.9457456140348  L 98.4399230769229 96.4821491228066  L 98.8075384615384 96.4821491228066  L 101.929153846154 103.270745614035  L 101.929153846154 103.638201754386  L 101.561538461538 106.204166666666  L 101.929153846154 108.589517543859  C 102.296769230769 109.691885964912  103.032 110.246184210526  103.580307692308 110.246184210526  C 104.315538461538 110.246184210526  105.050769230769 109.691885964912  105.786 108.776359649122  L 105.966692307692 108.408903508772  L 106.153615384615 108.408903508772  L 110.558769230769 106.939078947368  L 110.739461538461 106.939078947368  C 113.125846153846 106.939078947368  114.228692307692 107.487149122807  114.777 108.589517543859  L 115.144615384615 113.547061403508  L 115.144615384615 113.727675438596  L 116.066769230769 113.908289473684  L 117.898615384615 114.456359649122  L 120.652615384615 114.269517543859  L 125.238461538461 112.986535087719  L 127.992461538461 110.601184210526  L 128.173153846154 108.577061403508  L 126.889615384615 107.107236842105  L 122.116846153846 105.456798245614  L 121.749230769231 105.26995614035  L 121.749230769231 105.089342105263  L 116.24123076923 99.5837280701751  L 116.795769230769 99.2162719298242  L 119.549769230769 96.8309210526312  L 119.730461538461 96.6440789473681  L 122.484461538461 95.5417105263155  L 123.039 95.5417105263155  L 126.708923076923 96.2766228070171  L 126.895846153846 96.2766228070171  L 127.076538461538 96.4634649122803  L 127.076538461538 94.9936403508767  L 125.425384615384 92.2408333333328  L 122.858307692307 90.9578508771926  L 119.369076923077 85.8196929824558  L 119.182153846154 85.6328508771926  L 119.182153846154 85.4709210526315  L 117.531 79.4172368421052  L 117.531 74.827149122807  L 120.465692307692 72.0743421052632  L 124.870846153846 72.0743421052632  L 135.151615384615 72.9898684210526  L 139.924384615384 66.2012719298245  L 139.924384615384 65.8338157894736  L 140.292 65.8338157894736  L 144.148846153846 63.8159210526316  L 146.167615384615 59.7801315789474  L 146.348307692308 59.5995175438596  L 150.940384615384 55.7443421052632  L 153.139846153846 51.708552631579  L 153.139846153846 51.5279385964913  L 153.320538461538 51.5279385964913  L 153.320538461538 51.3473245614035  L 155.158615384615 49.5100438596492  L 157.358076923077 45.8417105263159  L 158.093307692307 40.1492543859649  L 158.093307692307 39.6011842105263  L 158.274 39.4205701754386  L 161.208692307692 37.4026754385965  L 161.943923076923 36.6677631578948  L 157.532538461538 35.9328508771931  L 150.192692307692 36.3003070175439  L 150.012 36.1196929824563  L 147.258 33.914956140351  L 146.890384615384 33.914956140351  L 146.890384615384 33.7281140350879  L 145.426153846154 31.5233771929827  L 145.058538461538 31.7039912280703  L 144.871615384615 32.0714473684213  C 144.504 32.6257456140353  143.588076923077 32.806359649123  142.48523076923 32.806359649123  L 141.382384615384 33.3544298245616  C 141.014769230769 33.5412719298247  140.834076923077 33.7218859649125  140.279538461538 33.5412719298247  C 139.911923076923 33.5412719298247  139.73123076923 32.9932017543861  139.363615384615 32.0714473684212  C 139.182923076923 31.1559210526317  138.815307692307 30.2341666666667  137.712461538461 29.3186403508773  L 137.531769230769 29.1317982456142  L 137.531769230769 28.9511842105265  L 137.351076923077 28.9511842105265  L 136.428923076923 26.5658333333336  L 135.693692307692 26.5658333333336  L 132.939692307692 28.3968859649125  L 132.759 28.5775000000002  L 132.572076923077 28.5775000000002  L 126.148153846154 29.8604824561405  L 125.780538461538 29.8604824561405  L 125.412923076923 29.6736403508775  L 121.194692307692 26.7402192982458  L 121.007769230769 26.559605263158  L 121.007769230769 26.372763157895  L 120.827076923077 26.372763157895  L 119.724230769231 24.1680263157898  L 116.602615384615 27.4689035087721  C 114.403153846154 30.0348684210528  112.745769230769 30.7760087719299  111.649153846154 30.0348684210528  L 107.424692307692 27.8363596491231  L 104.49 27.4689035087721  L 104.122384615384 27.6495175438599  L 101.368384615384 25.6316228070177  L 101.187692307692 25.45100877193  L 100.639384615384 25.2641666666669  L 101.922923076923 20.3066228070178  L 101.922923076923 18.6561842105265  L 100.271769230769 17.9212719298248  L 100.091076923077 17.9212719298248  L 96.2342307692307 13.7048684210529  L 96.4149230769229 10.5846052631582  L 86.8693846153844 9.66907894736869  L 83.1932307692307 7.64495614035116  C 82.2773076923076 7.09688596491264  81.5420769230768 5.99451754385996  80.9875384615384 4.16346491228103  L 80.4392307692307 2.88048245614073  L 79.704 0.127675438596839  L 78.4142307692307 0.308289473684567  L 75.4795384615384 2.69364035087744  L 71.9903076923076 6.91004385964936  L 72.7255384615383 10.0303070175441  L 73.8221538461536 14.0660964912283  L 73.8221538461536 14.2529385964915  L 74.0090769230767 14.2529385964915  L 73.8221538461536 14.4335526315792  L 73.8221538461536 14.6203947368424  C 73.4545384615383 15.7165350877195  72.3579230769228 16.2708333333335  70.7005384615383 16.2708333333335  L 67.0306153846152 16.2708333333335  L 64.824923076923 15.1684649122809  L 62.070923076923 16.2708333333335  L 61.5163846153845 16.4576754385968  L 61.1487692307691 16.2708333333335  L 60.7811538461538 18.8430263157896  L 60.6004615384615 19.2104824561405  L 60.6004615384615 19.7585526315792  L 60.045923076923 19.7585526315792  L 55.4538461538461 18.2887280701757  C 55.4538461538461 19.7585526315792  55.640769230769 20.8609210526319  56.3759999999999 22.1439035087722  C 56.9243076923075 23.4268859649125  57.1112307692306 24.3486403508774  56.5566923076922 25.45100877193  L 56.0083846153846 26.9208333333336  C 55.4538461538461 27.4689035087721  53.8026923076921 27.6557456140353  51.4163076923075 27.4689035087721  L 48.2946923076922 27.4689035087721  L 48.107769230769 32.607061403509  L 44.0702307692306 31.1372368421055  L 43.8833076923077 31.1372368421055  L 43.6963846153845 30.9503947368423  L 41.6713846153845 27.1014473684214  L 37.2662307692306 25.6316228070177  L 36.1633846153845 23.2462719298248  L 34.5122307692307 24.5292543859651  L 34.3253076923077 24.5292543859651  L 31.5713076923076 25.0835526315791  L 30.836076923077 25.0835526315791  L 29.3656153846154 21.7826754385967  L 27.8951538461538 19.7647807017546  L 27.7144615384616 19.5779385964915  C 26.2502307692307 17.7468859649124  25.515 16.0964473684213  25.1473846153847 15.1746929824563  C 25.1473846153847 14.9878508771932  24.7797692307693 14.6266228070177  23.8638461538462 14.4397807017546  L 23.1286153846154 14.2591666666669  C 21.845076923077 13.7048684210529  20.9291538461539 12.6025000000003  20.3746153846154 10.9520614035091  L 19.6393846153848 7.83179824561444  L 19.6393846153848 5.25960526315828  L 18.3558461538462 2.87425438596517  L 16.1563846153848 3.60916666666697  L 15.9694615384616 3.60916666666697  L 15.7887692307694 3.60916666666697  L 15.6205384615384 3.60916666666697  Z " stroke-width="4" stroke="#00ccff" fill="none" stroke-opacity="0.498039215686275" transform="matrix(1 0 0 1 876 569 )" mask="url(#clip185)" />
  </g>
</svg>