<?xml version="1.0" encoding="utf-8"?>
<svg version="1.1" xmlns:xlink="http://www.w3.org/1999/xlink" width="115px" height="89px" xmlns="http://www.w3.org/2000/svg">
  <defs>
    <mask fill="white" id="clip192">
      <path d="M 92.0123655913978 2.48510563380285  L 92.1978494623656 2.67313380281689  L 92.5626344086022 3.04292253521135  L 90.194623655914 6.73454225352111  C 89.2795698924732 7.84390845070425  88.0059139784946 8.58348591549304  86.5467741935483 8.58348591549304  L 86.1819892473118 8.58348591549304  L 84.364247311828 7.47411971830991  L 82.5403225806451 7.66214788732395  L 78.8924731182796 10.4324295774649  C 77.9836021505375 10.8022183098592  76.8892473118279 9.88088028169011  75.2508064516129 7.66214788732395  L 74.1626344086021 10.0626408450705  L 73.9833333333333 10.0626408450705  L 73.7978494623655 10.2444014084507  L 72.5180107526882 11.541795774648  L 70.1500000000001 11.541795774648  L 67.7819892473117 12.2813732394367  L 64.8637096774193 14.5001056338027  L 63.9548387096772 14.5001056338027  L 62.8604838709676 15.2334154929578  C 61.9516129032256 16.1547535211267  61.5868279569893 16.9005985915493  62.1309139784946 17.6339084507042  L 63.4045698924729 19.4765845070423  L 58.3037634408601 18.9250352112676  L 55.5709677419354 21.1437676056338  L 55.2061827956989 22.0651056338029  L 55.2061827956989 22.2468661971831  L 54.6620967741934 23.7260211267607  L 54.4766129032258 23.9077816901408  L 54.2973118279568 24.0895422535211  L 51.75 24.0895422535211  L 48.4731182795698 22.7984154929577  L 47.3787634408602 22.6166549295775  L 44.8314516129033 22.9864436619719  C 43.7370967741934 22.9864436619719  42.463440860215 21.6953169014084  41.3690860215054 19.6646126760563  L 39.180376344086 18.7432746478873  L 37.3626344086022 21.5135563380281  L 37.1771505376344 21.5135563380281  L 34.6298387096774 23.7322887323944  L 34.4505376344086 23.7322887323944  L 34.4505376344086 23.9140492957746  L 34.085752688172 23.9140492957746  L 32.0825268817204 24.4655985915493  L 29.1642473118279 27.0541197183098  L 26.0666666666667 28.5332746478873  L 23.8841397849463 31.4853169014085  L 16.6008064516129 31.4853169014085  L 10.9497311827957 29.2728521126761  L 7.85215053763432 28.9030633802817  L 5.11935483870968 30.3822183098591  L 4.93387096774211 30.3822183098591  L 3.10994623655927 31.1217957746478  C 2.20107526881725 31.4915845070423  1.47150537634411 32.0431338028169  0.927419354838889 32.2311619718309  L 0.56263440860215 33.1524999999999  L 0.56263440860215 35.3649647887324  L 1.47150537634411 36.8441197183099  L 5.8427419354839 35.3649647887324  C 6.75779569892472 35.3649647887324  8.02526881720428 35.916514084507  9.66989247311835 36.8441197183099  L 10.0346774193549 37.0258802816901  L 10.2201612903227 37.2139084507041  L 10.3994623655915 43.4940492957746  L 11.3145161290323 43.6820774647886  L 15.1416666666668 43.6820774647886  L 17.5096774193549 43.1305281690139  L 17.8744623655916 42.7607394366196  C 19.3336021505378 42.0211619718309  20.6072580645164 41.4696126760563  22.2456989247314 41.2815845070421  L 22.9752688172044 41.0935563380281  L 23.340053763441 41.6451056338027  L 24.4344086021508 43.8638380281689  L 24.4344086021508 44.0455985915492  L 24.9846774193551 50.1377112676055  L 24.9846774193551 50.6892605633801  L 21.701612903226 54.1991197183097  L 21.5161290322584 54.1991197183097  L 21.5161290322584 54.38088028169  L 17.6951612903229 56.2235563380281  L 16.4153225806454 57.7027112676055  L 16.9594086021508 58.8120774647887  L 24.7930107526884 59.5516549295774  L 24.978494623656 59.7396830985913  L 25.1577956989248 59.9277112676054  L 28.2553763440862 61.7703873239435  L 35.173924731183 61.5886267605632  L 35.173924731183 62.5099647887323  L 35.5387096774197 66.0198239436618  L 35.5387096774197 66.3896126760562  L 35.7241935483872 66.3896126760562  L 32.626612903226 69.5296830985915  C 32.2618279569895 73.5910915492957  32.9913978494626 75.9915845070421  34.6298387096776 76.5494014084506  L 40.4602150537635 79.6894718309858  L 45.0107526881723 82.829542253521  L 48.8379032258067 80.9805985915491  L 49.2026881720433 80.7925704225351  L 49.5674731182799 80.6045422535211  L 49.7467741935485 80.7925704225351  L 55.5771505376347 85.2237676056337  L 56.4860215053767 85.5935563380281  L 57.9451612903228 83.7446126760564  L 58.3099462365593 83.3748239436618  L 58.4892473118283 83.1867957746477  L 58.6747311827959 83.1867957746477  L 58.8540322580646 83.1867957746477  L 62.3163978494625 83.7446126760564  L 63.4045698924729 80.9805985915491  L 67.4172043010753 85.5872887323943  L 71.0588709677421 85.7690492957745  L 71.6091397849464 85.9508098591548  L 71.9739247311829 85.9508098591548  L 71.9739247311829 86.3205985915491  L 71.9739247311829 88.7210915492957  L 73.4330645161292 88.3513028169014  L 79.442741935484 80.2222183098589  L 81.990053763441 84.101866197183  L 81.990053763441 82.8107394366195  L 81.990053763441 82.6289788732395  L 81.990053763441 82.4409507042254  L 83.8139784946238 78.7493309859155  L 85.4524193548389 75.9790492957746  L 90.0029569892474 75.9790492957746  L 90.7325268817207 70.8082746478873  L 91.282795698925 70.8082746478873  L 91.6475806451615 70.9900352112677  L 95.1099462365593 71.5415845070422  L 95.468548387097 69.6926408450704  L 94.1948924731187 66.7405985915493  L 94.1948924731187 66.3708098591549  L 94.9244623655917 64.3401056338028  L 94.9244623655917 63.9703169014084  L 95.1099462365593 63.7822887323943  L 95.2892473118283 63.7822887323943  L 95.2892473118283 63.5942605633802  L 104.761290322581 58.4234859154929  L 104.396505376344 53.4407394366197  L 104.396505376344 53.2527112676056  L 106.214247311828 49.5610915492957  L 106.579032258065 48.821514084507  L 109.497311827957 41.9898239436619  L 109.676612903226 41.8080633802817  L 112.044623655914 39.4075704225352  L 113.503763440861 36.6372887323944  L 113.503763440861 36.2674999999999  L 114.783602150538 34.0550352112676  L 113.689247311828 31.2847535211268  L 113.689247311828 31.1029929577465  L 113.503763440861 31.1029929577465  L 113.503763440861 28.1446830985916  L 112.044623655914 28.1446830985916  L 109.31182795699 29.4358098591549  C 108.038172043011 30.357147887324  106.214247311828 29.9873591549296  103.84623655914 28.5144718309859  C 102.931182795699 27.7748943661973  102.931182795699 25.9259507042253  103.481451612904 23.1619366197183  L 102.022311827957 22.9801760563381  L 101.292741935484 23.9015140845071  C 99.6543010752691 25.750457746479  98.3744623655919 26.8535563380282  98.0158602150541 26.8535563380282  C 97.6510752688175 26.8535563380282  97.4717741935488 26.8535563380282  97.1069892473123 26.6655281690142  C 96.9276881720433 26.1139788732395  96.5629032258068 25.1863732394368  96.5629032258068 23.713485915493  C 96.5629032258068 22.0525704225353  96.5629032258068 20.9432042253522  97.1069892473123 20.5734154929578  C 97.4717741935488 20.0218661971833  97.8365591397853 19.8338380281691  98.2013440860219 20.2036267605635  L 101.66370967742 13.7417253521128  L 102.572580645162 11.3412323943662  L 103.122849462366 8.57095070422542  L 101.119623655914 6.91003521126777  C 100.56935483871 6.35221830985938  100.390053763441 5.06109154929584  100.754838709678 3.21214788732402  L 100.754838709678 2.10904929577487  C 100.754838709678 1.55123239436637  100.390053763441 0.817922535211437  99.6604838709682 0.266373239436689  L 99.2956989247315 0.266373239436689  L 99.1102150537639 0.817922535211437  C 98.5661290322585 2.2970774647888  97.2862903225811 3.03038732394373  95.2892473118285 2.47883802816909  C 94.380376344086 2.12158450704226  93.2860215053764 2.12158450704226  92.0123655913978 2.48510563380285  Z " fill-rule="evenodd" />
    </mask>
  </defs>
  <g transform="matrix(1 0 0 1 -979 -703 )">
    <path d="M 92.0123655913978 2.48510563380285  L 92.1978494623656 2.67313380281689  L 92.5626344086022 3.04292253521135  L 90.194623655914 6.73454225352111  C 89.2795698924732 7.84390845070425  88.0059139784946 8.58348591549304  86.5467741935483 8.58348591549304  L 86.1819892473118 8.58348591549304  L 84.364247311828 7.47411971830991  L 82.5403225806451 7.66214788732395  L 78.8924731182796 10.4324295774649  C 77.9836021505375 10.8022183098592  76.8892473118279 9.88088028169011  75.2508064516129 7.66214788732395  L 74.1626344086021 10.0626408450705  L 73.9833333333333 10.0626408450705  L 73.7978494623655 10.2444014084507  L 72.5180107526882 11.541795774648  L 70.1500000000001 11.541795774648  L 67.7819892473117 12.2813732394367  L 64.8637096774193 14.5001056338027  L 63.9548387096772 14.5001056338027  L 62.8604838709676 15.2334154929578  C 61.9516129032256 16.1547535211267  61.5868279569893 16.9005985915493  62.1309139784946 17.6339084507042  L 63.4045698924729 19.4765845070423  L 58.3037634408601 18.9250352112676  L 55.5709677419354 21.1437676056338  L 55.2061827956989 22.0651056338029  L 55.2061827956989 22.2468661971831  L 54.6620967741934 23.7260211267607  L 54.4766129032258 23.9077816901408  L 54.2973118279568 24.0895422535211  L 51.75 24.0895422535211  L 48.4731182795698 22.7984154929577  L 47.3787634408602 22.6166549295775  L 44.8314516129033 22.9864436619719  C 43.7370967741934 22.9864436619719  42.463440860215 21.6953169014084  41.3690860215054 19.6646126760563  L 39.180376344086 18.7432746478873  L 37.3626344086022 21.5135563380281  L 37.1771505376344 21.5135563380281  L 34.6298387096774 23.7322887323944  L 34.4505376344086 23.7322887323944  L 34.4505376344086 23.9140492957746  L 34.085752688172 23.9140492957746  L 32.0825268817204 24.4655985915493  L 29.1642473118279 27.0541197183098  L 26.0666666666667 28.5332746478873  L 23.8841397849463 31.4853169014085  L 16.6008064516129 31.4853169014085  L 10.9497311827957 29.2728521126761  L 7.85215053763432 28.9030633802817  L 5.11935483870968 30.3822183098591  L 4.93387096774211 30.3822183098591  L 3.10994623655927 31.1217957746478  C 2.20107526881725 31.4915845070423  1.47150537634411 32.0431338028169  0.927419354838889 32.2311619718309  L 0.56263440860215 33.1524999999999  L 0.56263440860215 35.3649647887324  L 1.47150537634411 36.8441197183099  L 5.8427419354839 35.3649647887324  C 6.75779569892472 35.3649647887324  8.02526881720428 35.916514084507  9.66989247311835 36.8441197183099  L 10.0346774193549 37.0258802816901  L 10.2201612903227 37.2139084507041  L 10.3994623655915 43.4940492957746  L 11.3145161290323 43.6820774647886  L 15.1416666666668 43.6820774647886  L 17.5096774193549 43.1305281690139  L 17.8744623655916 42.7607394366196  C 19.3336021505378 42.0211619718309  20.6072580645164 41.4696126760563  22.2456989247314 41.2815845070421  L 22.9752688172044 41.0935563380281  L 23.340053763441 41.6451056338027  L 24.4344086021508 43.8638380281689  L 24.4344086021508 44.0455985915492  L 24.9846774193551 50.1377112676055  L 24.9846774193551 50.6892605633801  L 21.701612903226 54.1991197183097  L 21.5161290322584 54.1991197183097  L 21.5161290322584 54.38088028169  L 17.6951612903229 56.2235563380281  L 16.4153225806454 57.7027112676055  L 16.9594086021508 58.8120774647887  L 24.7930107526884 59.5516549295774  L 24.978494623656 59.7396830985913  L 25.1577956989248 59.9277112676054  L 28.2553763440862 61.7703873239435  L 35.173924731183 61.5886267605632  L 35.173924731183 62.5099647887323  L 35.5387096774197 66.0198239436618  L 35.5387096774197 66.3896126760562  L 35.7241935483872 66.3896126760562  L 32.626612903226 69.5296830985915  C 32.2618279569895 73.5910915492957  32.9913978494626 75.9915845070421  34.6298387096776 76.5494014084506  L 40.4602150537635 79.6894718309858  L 45.0107526881723 82.829542253521  L 48.8379032258067 80.9805985915491  L 49.2026881720433 80.7925704225351  L 49.5674731182799 80.6045422535211  L 49.7467741935485 80.7925704225351  L 55.5771505376347 85.2237676056337  L 56.4860215053767 85.5935563380281  L 57.9451612903228 83.7446126760564  L 58.3099462365593 83.3748239436618  L 58.4892473118283 83.1867957746477  L 58.6747311827959 83.1867957746477  L 58.8540322580646 83.1867957746477  L 62.3163978494625 83.7446126760564  L 63.4045698924729 80.9805985915491  L 67.4172043010753 85.5872887323943  L 71.0588709677421 85.7690492957745  L 71.6091397849464 85.9508098591548  L 71.9739247311829 85.9508098591548  L 71.9739247311829 86.3205985915491  L 71.9739247311829 88.7210915492957  L 73.4330645161292 88.3513028169014  L 79.442741935484 80.2222183098589  L 81.990053763441 84.101866197183  L 81.990053763441 82.8107394366195  L 81.990053763441 82.6289788732395  L 81.990053763441 82.4409507042254  L 83.8139784946238 78.7493309859155  L 85.4524193548389 75.9790492957746  L 90.0029569892474 75.9790492957746  L 90.7325268817207 70.8082746478873  L 91.282795698925 70.8082746478873  L 91.6475806451615 70.9900352112677  L 95.1099462365593 71.5415845070422  L 95.468548387097 69.6926408450704  L 94.1948924731187 66.7405985915493  L 94.1948924731187 66.3708098591549  L 94.9244623655917 64.3401056338028  L 94.9244623655917 63.9703169014084  L 95.1099462365593 63.7822887323943  L 95.2892473118283 63.7822887323943  L 95.2892473118283 63.5942605633802  L 104.761290322581 58.4234859154929  L 104.396505376344 53.4407394366197  L 104.396505376344 53.2527112676056  L 106.214247311828 49.5610915492957  L 106.579032258065 48.821514084507  L 109.497311827957 41.9898239436619  L 109.676612903226 41.8080633802817  L 112.044623655914 39.4075704225352  L 113.503763440861 36.6372887323944  L 113.503763440861 36.2674999999999  L 114.783602150538 34.0550352112676  L 113.689247311828 31.2847535211268  L 113.689247311828 31.1029929577465  L 113.503763440861 31.1029929577465  L 113.503763440861 28.1446830985916  L 112.044623655914 28.1446830985916  L 109.31182795699 29.4358098591549  C 108.038172043011 30.357147887324  106.214247311828 29.9873591549296  103.84623655914 28.5144718309859  C 102.931182795699 27.7748943661973  102.931182795699 25.9259507042253  103.481451612904 23.1619366197183  L 102.022311827957 22.9801760563381  L 101.292741935484 23.9015140845071  C 99.6543010752691 25.750457746479  98.3744623655919 26.8535563380282  98.0158602150541 26.8535563380282  C 97.6510752688175 26.8535563380282  97.4717741935488 26.8535563380282  97.1069892473123 26.6655281690142  C 96.9276881720433 26.1139788732395  96.5629032258068 25.1863732394368  96.5629032258068 23.713485915493  C 96.5629032258068 22.0525704225353  96.5629032258068 20.9432042253522  97.1069892473123 20.5734154929578  C 97.4717741935488 20.0218661971833  97.8365591397853 19.8338380281691  98.2013440860219 20.2036267605635  L 101.66370967742 13.7417253521128  L 102.572580645162 11.3412323943662  L 103.122849462366 8.57095070422542  L 101.119623655914 6.91003521126777  C 100.56935483871 6.35221830985938  100.390053763441 5.06109154929584  100.754838709678 3.21214788732402  L 100.754838709678 2.10904929577487  C 100.754838709678 1.55123239436637  100.390053763441 0.817922535211437  99.6604838709682 0.266373239436689  L 99.2956989247315 0.266373239436689  L 99.1102150537639 0.817922535211437  C 98.5661290322585 2.2970774647888  97.2862903225811 3.03038732394373  95.2892473118285 2.47883802816909  C 94.380376344086 2.12158450704226  93.2860215053764 2.12158450704226  92.0123655913978 2.48510563380285  Z " fill-rule="nonzero" fill="#00ccff" stroke="none" fill-opacity="0.498039215686275" transform="matrix(1 0 0 1 979 703 )" />
    <path d="M 92.0123655913978 2.48510563380285  L 92.1978494623656 2.67313380281689  L 92.5626344086022 3.04292253521135  L 90.194623655914 6.73454225352111  C 89.2795698924732 7.84390845070425  88.0059139784946 8.58348591549304  86.5467741935483 8.58348591549304  L 86.1819892473118 8.58348591549304  L 84.364247311828 7.47411971830991  L 82.5403225806451 7.66214788732395  L 78.8924731182796 10.4324295774649  C 77.9836021505375 10.8022183098592  76.8892473118279 9.88088028169011  75.2508064516129 7.66214788732395  L 74.1626344086021 10.0626408450705  L 73.9833333333333 10.0626408450705  L 73.7978494623655 10.2444014084507  L 72.5180107526882 11.541795774648  L 70.1500000000001 11.541795774648  L 67.7819892473117 12.2813732394367  L 64.8637096774193 14.5001056338027  L 63.9548387096772 14.5001056338027  L 62.8604838709676 15.2334154929578  C 61.9516129032256 16.1547535211267  61.5868279569893 16.9005985915493  62.1309139784946 17.6339084507042  L 63.4045698924729 19.4765845070423  L 58.3037634408601 18.9250352112676  L 55.5709677419354 21.1437676056338  L 55.2061827956989 22.0651056338029  L 55.2061827956989 22.2468661971831  L 54.6620967741934 23.7260211267607  L 54.4766129032258 23.9077816901408  L 54.2973118279568 24.0895422535211  L 51.75 24.0895422535211  L 48.4731182795698 22.7984154929577  L 47.3787634408602 22.6166549295775  L 44.8314516129033 22.9864436619719  C 43.7370967741934 22.9864436619719  42.463440860215 21.6953169014084  41.3690860215054 19.6646126760563  L 39.180376344086 18.7432746478873  L 37.3626344086022 21.5135563380281  L 37.1771505376344 21.5135563380281  L 34.6298387096774 23.7322887323944  L 34.4505376344086 23.7322887323944  L 34.4505376344086 23.9140492957746  L 34.085752688172 23.9140492957746  L 32.0825268817204 24.4655985915493  L 29.1642473118279 27.0541197183098  L 26.0666666666667 28.5332746478873  L 23.8841397849463 31.4853169014085  L 16.6008064516129 31.4853169014085  L 10.9497311827957 29.2728521126761  L 7.85215053763432 28.9030633802817  L 5.11935483870968 30.3822183098591  L 4.93387096774211 30.3822183098591  L 3.10994623655927 31.1217957746478  C 2.20107526881725 31.4915845070423  1.47150537634411 32.0431338028169  0.927419354838889 32.2311619718309  L 0.56263440860215 33.1524999999999  L 0.56263440860215 35.3649647887324  L 1.47150537634411 36.8441197183099  L 5.8427419354839 35.3649647887324  C 6.75779569892472 35.3649647887324  8.02526881720428 35.916514084507  9.66989247311835 36.8441197183099  L 10.0346774193549 37.0258802816901  L 10.2201612903227 37.2139084507041  L 10.3994623655915 43.4940492957746  L 11.3145161290323 43.6820774647886  L 15.1416666666668 43.6820774647886  L 17.5096774193549 43.1305281690139  L 17.8744623655916 42.7607394366196  C 19.3336021505378 42.0211619718309  20.6072580645164 41.4696126760563  22.2456989247314 41.2815845070421  L 22.9752688172044 41.0935563380281  L 23.340053763441 41.6451056338027  L 24.4344086021508 43.8638380281689  L 24.4344086021508 44.0455985915492  L 24.9846774193551 50.1377112676055  L 24.9846774193551 50.6892605633801  L 21.701612903226 54.1991197183097  L 21.5161290322584 54.1991197183097  L 21.5161290322584 54.38088028169  L 17.6951612903229 56.2235563380281  L 16.4153225806454 57.7027112676055  L 16.9594086021508 58.8120774647887  L 24.7930107526884 59.5516549295774  L 24.978494623656 59.7396830985913  L 25.1577956989248 59.9277112676054  L 28.2553763440862 61.7703873239435  L 35.173924731183 61.5886267605632  L 35.173924731183 62.5099647887323  L 35.5387096774197 66.0198239436618  L 35.5387096774197 66.3896126760562  L 35.7241935483872 66.3896126760562  L 32.626612903226 69.5296830985915  C 32.2618279569895 73.5910915492957  32.9913978494626 75.9915845070421  34.6298387096776 76.5494014084506  L 40.4602150537635 79.6894718309858  L 45.0107526881723 82.829542253521  L 48.8379032258067 80.9805985915491  L 49.2026881720433 80.7925704225351  L 49.5674731182799 80.6045422535211  L 49.7467741935485 80.7925704225351  L 55.5771505376347 85.2237676056337  L 56.4860215053767 85.5935563380281  L 57.9451612903228 83.7446126760564  L 58.3099462365593 83.3748239436618  L 58.4892473118283 83.1867957746477  L 58.6747311827959 83.1867957746477  L 58.8540322580646 83.1867957746477  L 62.3163978494625 83.7446126760564  L 63.4045698924729 80.9805985915491  L 67.4172043010753 85.5872887323943  L 71.0588709677421 85.7690492957745  L 71.6091397849464 85.9508098591548  L 71.9739247311829 85.9508098591548  L 71.9739247311829 86.3205985915491  L 71.9739247311829 88.7210915492957  L 73.4330645161292 88.3513028169014  L 79.442741935484 80.2222183098589  L 81.990053763441 84.101866197183  L 81.990053763441 82.8107394366195  L 81.990053763441 82.6289788732395  L 81.990053763441 82.4409507042254  L 83.8139784946238 78.7493309859155  L 85.4524193548389 75.9790492957746  L 90.0029569892474 75.9790492957746  L 90.7325268817207 70.8082746478873  L 91.282795698925 70.8082746478873  L 91.6475806451615 70.9900352112677  L 95.1099462365593 71.5415845070422  L 95.468548387097 69.6926408450704  L 94.1948924731187 66.7405985915493  L 94.1948924731187 66.3708098591549  L 94.9244623655917 64.3401056338028  L 94.9244623655917 63.9703169014084  L 95.1099462365593 63.7822887323943  L 95.2892473118283 63.7822887323943  L 95.2892473118283 63.5942605633802  L 104.761290322581 58.4234859154929  L 104.396505376344 53.4407394366197  L 104.396505376344 53.2527112676056  L 106.214247311828 49.5610915492957  L 106.579032258065 48.821514084507  L 109.497311827957 41.9898239436619  L 109.676612903226 41.8080633802817  L 112.044623655914 39.4075704225352  L 113.503763440861 36.6372887323944  L 113.503763440861 36.2674999999999  L 114.783602150538 34.0550352112676  L 113.689247311828 31.2847535211268  L 113.689247311828 31.1029929577465  L 113.503763440861 31.1029929577465  L 113.503763440861 28.1446830985916  L 112.044623655914 28.1446830985916  L 109.31182795699 29.4358098591549  C 108.038172043011 30.357147887324  106.214247311828 29.9873591549296  103.84623655914 28.5144718309859  C 102.931182795699 27.7748943661973  102.931182795699 25.9259507042253  103.481451612904 23.1619366197183  L 102.022311827957 22.9801760563381  L 101.292741935484 23.9015140845071  C 99.6543010752691 25.750457746479  98.3744623655919 26.8535563380282  98.0158602150541 26.8535563380282  C 97.6510752688175 26.8535563380282  97.4717741935488 26.8535563380282  97.1069892473123 26.6655281690142  C 96.9276881720433 26.1139788732395  96.5629032258068 25.1863732394368  96.5629032258068 23.713485915493  C 96.5629032258068 22.0525704225353  96.5629032258068 20.9432042253522  97.1069892473123 20.5734154929578  C 97.4717741935488 20.0218661971833  97.8365591397853 19.8338380281691  98.2013440860219 20.2036267605635  L 101.66370967742 13.7417253521128  L 102.572580645162 11.3412323943662  L 103.122849462366 8.57095070422542  L 101.119623655914 6.91003521126777  C 100.56935483871 6.35221830985938  100.390053763441 5.06109154929584  100.754838709678 3.21214788732402  L 100.754838709678 2.10904929577487  C 100.754838709678 1.55123239436637  100.390053763441 0.817922535211437  99.6604838709682 0.266373239436689  L 99.2956989247315 0.266373239436689  L 99.1102150537639 0.817922535211437  C 98.5661290322585 2.2970774647888  97.2862903225811 3.03038732394373  95.2892473118285 2.47883802816909  C 94.380376344086 2.12158450704226  93.2860215053764 2.12158450704226  92.0123655913978 2.48510563380285  Z " stroke-width="4" stroke="#00ccff" fill="none" stroke-opacity="0.498039215686275" transform="matrix(1 0 0 1 979 703 )" mask="url(#clip192)" />
  </g>
</svg>