<?xml version="1.0" encoding="utf-8"?>
<svg version="1.1" xmlns:xlink="http://www.w3.org/1999/xlink" width="50px" height="109px" xmlns="http://www.w3.org/2000/svg">
  <defs>
    <mask fill="white" id="clip196">
      <path d="M 41.6913580246917 6.62408571428557  L 46.4259259259259 5.51540000000011  L 47.1543209876543 4.59357142857141  L 45.8765432098764 1.65991428571431  L 44.6049382716049 0.189971428571425  L 43.1481481481482 2.57551428571435  L 43.1481481481482 2.75614285714289  L 40.7839506172838 5.50917142857145  L 40.6049382716049 5.6898000000001  L 40.2407407407408 5.6898000000001  L 35.8765432098764 6.97288571428578  L 35.5123456790122 6.97288571428578  L 31.3271604938271 6.24414285714295  L 28.9629629629628 6.97288571428578  L 28.4135802469135 8.99717142857151  L 28.2345679012345 9.36465714285725  L 26.2345679012345 10.6477428571429  L 25.8703703703702 10.8346000000001  L 25.5061728395061 10.8346000000001  L 21.8703703703702 10.4671142857144  L 21.6913580246912 10.8346000000001  L 21.6913580246912 14.5032285714286  L 21.5061728395061 14.6838571428573  L 19.506172839506 17.2500285714286  L 19.506172839506 17.4368857142858  L 19.3209876543209 17.4368857142858  L 15.8641975308642 20.9248857142858  L 15.6851851851852 20.9248857142858  L 15.5061728395062 21.1055142857143  L 11.8703703703703 21.8404857142858  L 9.50617283950623 24.4066571428572  L 10.0555555555554 27.5271714285715  L 10.0555555555554 28.262142857143  L 9.50617283950623 28.4490000000001  L 6.77777777777783 31.0214000000002  L 5.32098765432113 32.8588285714287  L 6.41358024691363 35.2443714285715  L 6.41358024691363 35.4250000000001  L 6.41358024691363 35.6118571428573  L 6.41358024691363 39.0936285714287  L 6.41358024691363 39.2804857142858  L 4.41358024691363 42.2203714285716  L 4.41358024691363 42.4010000000002  L 1.68518518518522 45.5215142857145  L 2.04938271604954 49.190142857143  L 4.41358024691363 51.3950571428572  L 4.41358024691363 51.5819142857144  C 5.50000000000011 53.4193428571431  6.04938271604931 54.8892857142858  6.04938271604931 56.1723714285716  L 6.04938271604931 60.2084857142859  L 5.8641975308642 60.2084857142859  L 5.68518518518522 60.3891142857144  L 2.04938271604954 63.142142857143  L 1.68518518518522 68.6482000000002  L 2.04938271604954 74.1542571428573  C 2.04938271604954 75.9916857142858  2.77777777777771 79.4734571428573  4.59876543209873 84.6182571428573  L 4.59876543209873 84.7988857142859  L 4.59876543209873 85.1663714285716  L 0.59876543209873 103.883228571429  L 0.962962962963047 107.558085714286  L 3.69135802469157 108.841171428572  L 8.05555555555566 104.437571428571  L 8.23456790123464 104.437571428571  L 22.2407407407409 98.9315142857143  L 25.8827160493829 95.6241428571429  L 26.246913580247 95.2566571428572  L 26.425925925926 95.4372857142857  L 26.7901234567903 95.4372857142857  L 34.7901234567904 96.1722571428571  C 35.8827160493829 96.1722571428571  38.2469135802471 95.2566571428571  41.7037037037039 93.7867142857143  L 41.7037037037039 89.9312285714285  L 41.8888888888891 89.7506  L 42.0679012345681 89.7506  L 44.2530864197532 87.7325428571428  L 43.7037037037038 85.347  L 43.7037037037038 85.1663714285714  L 43.7037037037038 84.9795142857142  L 43.7037037037038 84.6182571428571  L 43.8827160493828 84.4313999999999  C 44.6111111111112 83.6964285714284  44.6111111111112 82.9614571428571  44.0679012345679 82.4133428571429  C 43.5246913580248 81.3108857142856  43.7037037037038 79.8409428571428  44.6111111111112 78.1966  L 45.5246913580248 76.9072857142856  L 45.3395061728396 74.3411142857143  L 42.6111111111112 71.0399714285713  C 41.3333333333335 70.1243714285714  41.1543209876545 68.8350571428571  41.8827160493829 67.5519714285713  C 42.2469135802471 66.4495142857143  42.7901234567904 65.3532857142857  43.7037037037039 64.431457142857  L 44.4320987654322 61.3109428571428  L 46.4320987654322 56.9073428571428  L 46.9753086419755 54.8892857142856  L 49.882716049383 49.3832285714285  L 47.882716049383 45.8952285714286  L 42.240740740741 42.4072285714285  L 41.8765432098767 42.4072285714285  L 41.8765432098767 42.0397428571429  L 40.7839506172841 39.099857142857  L 40.7839506172841 38.9192285714284  L 40.7839506172841 38.5517428571427  L 41.3271604938274 33.6000285714285  L 41.3271604938274 33.4193999999999  L 42.6049382716051 29.7445428571427  C 42.4259259259261 28.4614571428571  42.6049382716051 27.5396285714286  43.1481481481484 26.8046571428571  C 43.5123456790125 26.4371714285713  44.061728395062 26.0696857142856  44.6049382716051 26.0696857142856  L 48.061728395062 25.5215714285713  L 48.9691358024694 23.5035142857141  L 49.8765432098769 17.4493428571427  L 49.1481481481484 15.2506571428571  L 46.061728395062 14.5156857142856  L 45.8765432098768 14.5156857142856  L 42.2407407407411 12.6844857142855  L 42.0555555555558 12.4976285714284  L 42.0555555555558 12.1301428571428  L 41.8765432098768 11.9432857142856  L 41.6913580246917 7.53968571428561  L 41.6913580246917 7.17219999999986  L 41.6913580246917 6.62408571428557  Z " fill-rule="evenodd" />
    </mask>
  </defs>
  <g transform="matrix(1 0 0 1 -1058 -454 )">
    <path d="M 41.6913580246917 6.62408571428557  L 46.4259259259259 5.51540000000011  L 47.1543209876543 4.59357142857141  L 45.8765432098764 1.65991428571431  L 44.6049382716049 0.189971428571425  L 43.1481481481482 2.57551428571435  L 43.1481481481482 2.75614285714289  L 40.7839506172838 5.50917142857145  L 40.6049382716049 5.6898000000001  L 40.2407407407408 5.6898000000001  L 35.8765432098764 6.97288571428578  L 35.5123456790122 6.97288571428578  L 31.3271604938271 6.24414285714295  L 28.9629629629628 6.97288571428578  L 28.4135802469135 8.99717142857151  L 28.2345679012345 9.36465714285725  L 26.2345679012345 10.6477428571429  L 25.8703703703702 10.8346000000001  L 25.5061728395061 10.8346000000001  L 21.8703703703702 10.4671142857144  L 21.6913580246912 10.8346000000001  L 21.6913580246912 14.5032285714286  L 21.5061728395061 14.6838571428573  L 19.506172839506 17.2500285714286  L 19.506172839506 17.4368857142858  L 19.3209876543209 17.4368857142858  L 15.8641975308642 20.9248857142858  L 15.6851851851852 20.9248857142858  L 15.5061728395062 21.1055142857143  L 11.8703703703703 21.8404857142858  L 9.50617283950623 24.4066571428572  L 10.0555555555554 27.5271714285715  L 10.0555555555554 28.262142857143  L 9.50617283950623 28.4490000000001  L 6.77777777777783 31.0214000000002  L 5.32098765432113 32.8588285714287  L 6.41358024691363 35.2443714285715  L 6.41358024691363 35.4250000000001  L 6.41358024691363 35.6118571428573  L 6.41358024691363 39.0936285714287  L 6.41358024691363 39.2804857142858  L 4.41358024691363 42.2203714285716  L 4.41358024691363 42.4010000000002  L 1.68518518518522 45.5215142857145  L 2.04938271604954 49.190142857143  L 4.41358024691363 51.3950571428572  L 4.41358024691363 51.5819142857144  C 5.50000000000011 53.4193428571431  6.04938271604931 54.8892857142858  6.04938271604931 56.1723714285716  L 6.04938271604931 60.2084857142859  L 5.8641975308642 60.2084857142859  L 5.68518518518522 60.3891142857144  L 2.04938271604954 63.142142857143  L 1.68518518518522 68.6482000000002  L 2.04938271604954 74.1542571428573  C 2.04938271604954 75.9916857142858  2.77777777777771 79.4734571428573  4.59876543209873 84.6182571428573  L 4.59876543209873 84.7988857142859  L 4.59876543209873 85.1663714285716  L 0.59876543209873 103.883228571429  L 0.962962962963047 107.558085714286  L 3.69135802469157 108.841171428572  L 8.05555555555566 104.437571428571  L 8.23456790123464 104.437571428571  L 22.2407407407409 98.9315142857143  L 25.8827160493829 95.6241428571429  L 26.246913580247 95.2566571428572  L 26.425925925926 95.4372857142857  L 26.7901234567903 95.4372857142857  L 34.7901234567904 96.1722571428571  C 35.8827160493829 96.1722571428571  38.2469135802471 95.2566571428571  41.7037037037039 93.7867142857143  L 41.7037037037039 89.9312285714285  L 41.8888888888891 89.7506  L 42.0679012345681 89.7506  L 44.2530864197532 87.7325428571428  L 43.7037037037038 85.347  L 43.7037037037038 85.1663714285714  L 43.7037037037038 84.9795142857142  L 43.7037037037038 84.6182571428571  L 43.8827160493828 84.4313999999999  C 44.6111111111112 83.6964285714284  44.6111111111112 82.9614571428571  44.0679012345679 82.4133428571429  C 43.5246913580248 81.3108857142856  43.7037037037038 79.8409428571428  44.6111111111112 78.1966  L 45.5246913580248 76.9072857142856  L 45.3395061728396 74.3411142857143  L 42.6111111111112 71.0399714285713  C 41.3333333333335 70.1243714285714  41.1543209876545 68.8350571428571  41.8827160493829 67.5519714285713  C 42.2469135802471 66.4495142857143  42.7901234567904 65.3532857142857  43.7037037037039 64.431457142857  L 44.4320987654322 61.3109428571428  L 46.4320987654322 56.9073428571428  L 46.9753086419755 54.8892857142856  L 49.882716049383 49.3832285714285  L 47.882716049383 45.8952285714286  L 42.240740740741 42.4072285714285  L 41.8765432098767 42.4072285714285  L 41.8765432098767 42.0397428571429  L 40.7839506172841 39.099857142857  L 40.7839506172841 38.9192285714284  L 40.7839506172841 38.5517428571427  L 41.3271604938274 33.6000285714285  L 41.3271604938274 33.4193999999999  L 42.6049382716051 29.7445428571427  C 42.4259259259261 28.4614571428571  42.6049382716051 27.5396285714286  43.1481481481484 26.8046571428571  C 43.5123456790125 26.4371714285713  44.061728395062 26.0696857142856  44.6049382716051 26.0696857142856  L 48.061728395062 25.5215714285713  L 48.9691358024694 23.5035142857141  L 49.8765432098769 17.4493428571427  L 49.1481481481484 15.2506571428571  L 46.061728395062 14.5156857142856  L 45.8765432098768 14.5156857142856  L 42.2407407407411 12.6844857142855  L 42.0555555555558 12.4976285714284  L 42.0555555555558 12.1301428571428  L 41.8765432098768 11.9432857142856  L 41.6913580246917 7.53968571428561  L 41.6913580246917 7.17219999999986  L 41.6913580246917 6.62408571428557  Z " fill-rule="nonzero" fill="#00ccff" stroke="none" fill-opacity="0.349019607843137" transform="matrix(1 0 0 1 1058 454 )" />
    <path d="M 41.6913580246917 6.62408571428557  L 46.4259259259259 5.51540000000011  L 47.1543209876543 4.59357142857141  L 45.8765432098764 1.65991428571431  L 44.6049382716049 0.189971428571425  L 43.1481481481482 2.57551428571435  L 43.1481481481482 2.75614285714289  L 40.7839506172838 5.50917142857145  L 40.6049382716049 5.6898000000001  L 40.2407407407408 5.6898000000001  L 35.8765432098764 6.97288571428578  L 35.5123456790122 6.97288571428578  L 31.3271604938271 6.24414285714295  L 28.9629629629628 6.97288571428578  L 28.4135802469135 8.99717142857151  L 28.2345679012345 9.36465714285725  L 26.2345679012345 10.6477428571429  L 25.8703703703702 10.8346000000001  L 25.5061728395061 10.8346000000001  L 21.8703703703702 10.4671142857144  L 21.6913580246912 10.8346000000001  L 21.6913580246912 14.5032285714286  L 21.5061728395061 14.6838571428573  L 19.506172839506 17.2500285714286  L 19.506172839506 17.4368857142858  L 19.3209876543209 17.4368857142858  L 15.8641975308642 20.9248857142858  L 15.6851851851852 20.9248857142858  L 15.5061728395062 21.1055142857143  L 11.8703703703703 21.8404857142858  L 9.50617283950623 24.4066571428572  L 10.0555555555554 27.5271714285715  L 10.0555555555554 28.262142857143  L 9.50617283950623 28.4490000000001  L 6.77777777777783 31.0214000000002  L 5.32098765432113 32.8588285714287  L 6.41358024691363 35.2443714285715  L 6.41358024691363 35.4250000000001  L 6.41358024691363 35.6118571428573  L 6.41358024691363 39.0936285714287  L 6.41358024691363 39.2804857142858  L 4.41358024691363 42.2203714285716  L 4.41358024691363 42.4010000000002  L 1.68518518518522 45.5215142857145  L 2.04938271604954 49.190142857143  L 4.41358024691363 51.3950571428572  L 4.41358024691363 51.5819142857144  C 5.50000000000011 53.4193428571431  6.04938271604931 54.8892857142858  6.04938271604931 56.1723714285716  L 6.04938271604931 60.2084857142859  L 5.8641975308642 60.2084857142859  L 5.68518518518522 60.3891142857144  L 2.04938271604954 63.142142857143  L 1.68518518518522 68.6482000000002  L 2.04938271604954 74.1542571428573  C 2.04938271604954 75.9916857142858  2.77777777777771 79.4734571428573  4.59876543209873 84.6182571428573  L 4.59876543209873 84.7988857142859  L 4.59876543209873 85.1663714285716  L 0.59876543209873 103.883228571429  L 0.962962962963047 107.558085714286  L 3.69135802469157 108.841171428572  L 8.05555555555566 104.437571428571  L 8.23456790123464 104.437571428571  L 22.2407407407409 98.9315142857143  L 25.8827160493829 95.6241428571429  L 26.246913580247 95.2566571428572  L 26.425925925926 95.4372857142857  L 26.7901234567903 95.4372857142857  L 34.7901234567904 96.1722571428571  C 35.8827160493829 96.1722571428571  38.2469135802471 95.2566571428571  41.7037037037039 93.7867142857143  L 41.7037037037039 89.9312285714285  L 41.8888888888891 89.7506  L 42.0679012345681 89.7506  L 44.2530864197532 87.7325428571428  L 43.7037037037038 85.347  L 43.7037037037038 85.1663714285714  L 43.7037037037038 84.9795142857142  L 43.7037037037038 84.6182571428571  L 43.8827160493828 84.4313999999999  C 44.6111111111112 83.6964285714284  44.6111111111112 82.9614571428571  44.0679012345679 82.4133428571429  C 43.5246913580248 81.3108857142856  43.7037037037038 79.8409428571428  44.6111111111112 78.1966  L 45.5246913580248 76.9072857142856  L 45.3395061728396 74.3411142857143  L 42.6111111111112 71.0399714285713  C 41.3333333333335 70.1243714285714  41.1543209876545 68.8350571428571  41.8827160493829 67.5519714285713  C 42.2469135802471 66.4495142857143  42.7901234567904 65.3532857142857  43.7037037037039 64.431457142857  L 44.4320987654322 61.3109428571428  L 46.4320987654322 56.9073428571428  L 46.9753086419755 54.8892857142856  L 49.882716049383 49.3832285714285  L 47.882716049383 45.8952285714286  L 42.240740740741 42.4072285714285  L 41.8765432098767 42.4072285714285  L 41.8765432098767 42.0397428571429  L 40.7839506172841 39.099857142857  L 40.7839506172841 38.9192285714284  L 40.7839506172841 38.5517428571427  L 41.3271604938274 33.6000285714285  L 41.3271604938274 33.4193999999999  L 42.6049382716051 29.7445428571427  C 42.4259259259261 28.4614571428571  42.6049382716051 27.5396285714286  43.1481481481484 26.8046571428571  C 43.5123456790125 26.4371714285713  44.061728395062 26.0696857142856  44.6049382716051 26.0696857142856  L 48.061728395062 25.5215714285713  L 48.9691358024694 23.5035142857141  L 49.8765432098769 17.4493428571427  L 49.1481481481484 15.2506571428571  L 46.061728395062 14.5156857142856  L 45.8765432098768 14.5156857142856  L 42.2407407407411 12.6844857142855  L 42.0555555555558 12.4976285714284  L 42.0555555555558 12.1301428571428  L 41.8765432098768 11.9432857142856  L 41.6913580246917 7.53968571428561  L 41.6913580246917 7.17219999999986  L 41.6913580246917 6.62408571428557  Z " stroke-width="4" stroke="#00ccff" fill="none" stroke-opacity="0.498039215686275" transform="matrix(1 0 0 1 1058 454 )" mask="url(#clip196)" />
  </g>
</svg>