<?xml version="1.0" encoding="utf-8"?>
<svg version="1.1" xmlns:xlink="http://www.w3.org/1999/xlink" width="100px" height="63px" xmlns="http://www.w3.org/2000/svg">
  <defs>
    <mask fill="white" id="clip223">
      <path d="M 91.4099378881988 1.84945544554455  L 91.4099378881988 1.88064356435643  L 91.0434782608697 2.0615346534654  C 91.0434782608697 2.98470297029712  90.4906832298136 3.53361386138613  89.5776397515529 3.53361386138613  L 82.4409937888199 2.79757425742582  C 77.5031055900622 1.88064356435643  74.4285714285716 -0.0155940594059985  72.5590062111804 0.221435643564405  C 69.1242236024847 0.65806930693077  62.4968944099381 9.77747524752476  62.4968944099381 9.77747524752476  L 62.8633540372673 13.8194554455447  L 62.8633540372673 14.1874752475247  L 61.9440993788822 14.3683663366337  C 54.0745341614909 15.4724257425744  49.8633540372672 14.7363861386139  49.3167701863355 12.1602475247525  L 48.4037267080747 0.764108910891082  L 39.2546583850932 0.208960396039629  L 35.4161490683231 8.29915841584159  L 35.0496894409939 4.80608910891101  C 34.8695652173914 2.04905940594062  34.3167701863355 0.396089108910928  33.770186335404 0.0280693069306608  L 29.745341614907 2.04905940594062  L 27.913043478261 4.43806930693074  L 27.7329192546584 4.62519801980204  L 27.5465838509317 4.62519801980204  L 23.8881987577643 5.91014851485158  C 19.8633540372673 9.21608910891098  16.3788819875779 12.7091584158416  13.273291925466 16.3831188118812  L 3.57142857142878 29.6131188118812  L 5.58385093167715 34.2040099009902  L 5.58385093167715 34.9400495049505  L 5.39751552795042 35.1271782178218  C 4.67080745341639 36.2312376237625  5.03105590062125 37.8842079207922  6.13043478260886 39.7180693069308  C 7.40993788819878 42.1070792079208  8.32298136645977 44.6832178217823  8.32298136645977 47.6211386138615  L 8.32298136645977 48.1762871287129  L 0.453416149068403 52.7671782178219  L 0.453416149068403 54.6072772277229  L 4.11180124223608 56.2602475247526  C 4.47826086956536 56.4473762376238  4.65838509316779 56.8091584158416  4.65838509316779 56.9962871287129  L 4.65838509316779 57.3643069306931  C 4.47826086956536 58.2812376237624  5.93788819875783 59.5661881188119  8.68322981366475 60.8573762376238  L 15.4534161490685 62.6912376237625  L 17.4658385093169 61.406287128713  L 19.664596273292 58.2812376237625  L 21.496894409938 52.9480693069308  L 26.8012422360249 54.9690594059407  L 27.5341614906833 55.5242079207922  L 27.5341614906833 55.8922277227724  L 27.5341614906833 56.0731188118814  C 26.6211180124225 58.2812376237625  27.1677018633542 59.7533168316833  28.8198757763977 60.6702475247527  L 34.6770186335405 60.8511386138615  C 36.6894409937889 60.4831188118814  38.3354037267083 59.7470792079209  39.4347826086957 58.8301485148517  C 40.1614906832299 57.9069801980199  41.2608695652176 57.7260891089111  42.9130434782609 57.9069801980199  C 44.9254658385095 58.2750000000001  46.7577639751553 59.0110396039604  48.0372670807456 60.6640099009901  L 49.3167701863355 57.5389603960397  L 49.6832298136646 56.9900495049507  L 49.8695652173914 56.9900495049507  C 50.7826086956522 56.4411386138614  51.3354037267083 55.5179702970297  52.0621118012423 54.2330198019804  C 52.608695652174 52.9418316831684  53.527950310559 51.6568811881189  54.9875776397515 50.7399504950496  L 57.552795031056 49.2741089108912  L 57.7329192546583 49.0869801980199  L 57.9192546583851 49.2741089108912  L 58.0993788819876 49.2741089108912  L 59.5590062111801 49.6421287128713  L 59.9254658385092 49.8230198019803  L 61.9378881987578 40.6350000000001  L 61.9378881987578 40.4541089108911  L 64.8633540372671 39.905198019802  C 67.7888198757764 37.8842079207922  69.2608695652175 36.2312376237625  69.0745341614908 34.7591584158417  L 68.527950310559 32.0021287128714  C 67.7950310559006 30.1682673267328  67.7950310559006 28.8770792079208  68.1614906832299 28.3281683168318  C 68.7142857142858 27.7792574257427  69.0745341614908 27.5921287128714  69.6273291925467 27.5921287128714  C 70.9068322981366 27.5921287128714  72.3726708074535 27.9601485148515  73.8385093167701 28.696188118812  L 74.2049689440994 25.7520297029703  L 74.2049689440994 25.3840099009902  L 74.3850931677018 25.2031188118813  L 77.4968944099379 23.7310396039604  L 77.8633540372671 22.0780693069308  L 76.0372670807454 22.0780693069308  L 75.6708074534162 21.8909405940595  L 75.8509316770185 20.9740099009902  L 75.8509316770185 20.4188613861386  L 76.0372670807452 20.0508415841584  L 76.5838509316769 20.0508415841584  L 76.9503105590061 20.0508415841584  C 78.2298136645961 20.0508415841584  79.6956521739129 19.314801980198  81.3416149068323 17.8489603960396  L 92.8757763975154 9.5778712871288  L 93.2422360248446 9.5778712871288  L 96.9006211180124 11.2308415841585  L 98.3664596273292 11.0499504950496  L 97.4534161490683 7.18886138613868  L 97.4534161490683 6.82084158415842  L 97.6397515527949 6.63371287128712  L 97.8198757763972 6.45282178217826  L 99.8322981366458 3.14064356435654  L 99.2857142857141 2.77262376237627  L 97.9999999999998 3.14064356435654  L 97.9999999999998 3.32153465346551  L 97.8198757763972 3.32153465346551  L 94.1552795031054 3.87044554455451  L 93.2422360248446 3.87044554455451  L 93.0621118012421 3.87044554455451  L 93.0621118012421 3.68955445544555  L 92.8819875776396 3.13440594059421  L 92.1490683229812 1.84945544554455  L 91.4099378881988 1.84945544554455  Z " fill-rule="evenodd" />
    </mask>
  </defs>
  <g transform="matrix(1 0 0 1 -1124 -493 )">
    <path d="M 91.4099378881988 1.84945544554455  L 91.4099378881988 1.88064356435643  L 91.0434782608697 2.0615346534654  C 91.0434782608697 2.98470297029712  90.4906832298136 3.53361386138613  89.5776397515529 3.53361386138613  L 82.4409937888199 2.79757425742582  C 77.5031055900622 1.88064356435643  74.4285714285716 -0.0155940594059985  72.5590062111804 0.221435643564405  C 69.1242236024847 0.65806930693077  62.4968944099381 9.77747524752476  62.4968944099381 9.77747524752476  L 62.8633540372673 13.8194554455447  L 62.8633540372673 14.1874752475247  L 61.9440993788822 14.3683663366337  C 54.0745341614909 15.4724257425744  49.8633540372672 14.7363861386139  49.3167701863355 12.1602475247525  L 48.4037267080747 0.764108910891082  L 39.2546583850932 0.208960396039629  L 35.4161490683231 8.29915841584159  L 35.0496894409939 4.80608910891101  C 34.8695652173914 2.04905940594062  34.3167701863355 0.396089108910928  33.770186335404 0.0280693069306608  L 29.745341614907 2.04905940594062  L 27.913043478261 4.43806930693074  L 27.7329192546584 4.62519801980204  L 27.5465838509317 4.62519801980204  L 23.8881987577643 5.91014851485158  C 19.8633540372673 9.21608910891098  16.3788819875779 12.7091584158416  13.273291925466 16.3831188118812  L 3.57142857142878 29.6131188118812  L 5.58385093167715 34.2040099009902  L 5.58385093167715 34.9400495049505  L 5.39751552795042 35.1271782178218  C 4.67080745341639 36.2312376237625  5.03105590062125 37.8842079207922  6.13043478260886 39.7180693069308  C 7.40993788819878 42.1070792079208  8.32298136645977 44.6832178217823  8.32298136645977 47.6211386138615  L 8.32298136645977 48.1762871287129  L 0.453416149068403 52.7671782178219  L 0.453416149068403 54.6072772277229  L 4.11180124223608 56.2602475247526  C 4.47826086956536 56.4473762376238  4.65838509316779 56.8091584158416  4.65838509316779 56.9962871287129  L 4.65838509316779 57.3643069306931  C 4.47826086956536 58.2812376237624  5.93788819875783 59.5661881188119  8.68322981366475 60.8573762376238  L 15.4534161490685 62.6912376237625  L 17.4658385093169 61.406287128713  L 19.664596273292 58.2812376237625  L 21.496894409938 52.9480693069308  L 26.8012422360249 54.9690594059407  L 27.5341614906833 55.5242079207922  L 27.5341614906833 55.8922277227724  L 27.5341614906833 56.0731188118814  C 26.6211180124225 58.2812376237625  27.1677018633542 59.7533168316833  28.8198757763977 60.6702475247527  L 34.6770186335405 60.8511386138615  C 36.6894409937889 60.4831188118814  38.3354037267083 59.7470792079209  39.4347826086957 58.8301485148517  C 40.1614906832299 57.9069801980199  41.2608695652176 57.7260891089111  42.9130434782609 57.9069801980199  C 44.9254658385095 58.2750000000001  46.7577639751553 59.0110396039604  48.0372670807456 60.6640099009901  L 49.3167701863355 57.5389603960397  L 49.6832298136646 56.9900495049507  L 49.8695652173914 56.9900495049507  C 50.7826086956522 56.4411386138614  51.3354037267083 55.5179702970297  52.0621118012423 54.2330198019804  C 52.608695652174 52.9418316831684  53.527950310559 51.6568811881189  54.9875776397515 50.7399504950496  L 57.552795031056 49.2741089108912  L 57.7329192546583 49.0869801980199  L 57.9192546583851 49.2741089108912  L 58.0993788819876 49.2741089108912  L 59.5590062111801 49.6421287128713  L 59.9254658385092 49.8230198019803  L 61.9378881987578 40.6350000000001  L 61.9378881987578 40.4541089108911  L 64.8633540372671 39.905198019802  C 67.7888198757764 37.8842079207922  69.2608695652175 36.2312376237625  69.0745341614908 34.7591584158417  L 68.527950310559 32.0021287128714  C 67.7950310559006 30.1682673267328  67.7950310559006 28.8770792079208  68.1614906832299 28.3281683168318  C 68.7142857142858 27.7792574257427  69.0745341614908 27.5921287128714  69.6273291925467 27.5921287128714  C 70.9068322981366 27.5921287128714  72.3726708074535 27.9601485148515  73.8385093167701 28.696188118812  L 74.2049689440994 25.7520297029703  L 74.2049689440994 25.3840099009902  L 74.3850931677018 25.2031188118813  L 77.4968944099379 23.7310396039604  L 77.8633540372671 22.0780693069308  L 76.0372670807454 22.0780693069308  L 75.6708074534162 21.8909405940595  L 75.8509316770185 20.9740099009902  L 75.8509316770185 20.4188613861386  L 76.0372670807452 20.0508415841584  L 76.5838509316769 20.0508415841584  L 76.9503105590061 20.0508415841584  C 78.2298136645961 20.0508415841584  79.6956521739129 19.314801980198  81.3416149068323 17.8489603960396  L 92.8757763975154 9.5778712871288  L 93.2422360248446 9.5778712871288  L 96.9006211180124 11.2308415841585  L 98.3664596273292 11.0499504950496  L 97.4534161490683 7.18886138613868  L 97.4534161490683 6.82084158415842  L 97.6397515527949 6.63371287128712  L 97.8198757763972 6.45282178217826  L 99.8322981366458 3.14064356435654  L 99.2857142857141 2.77262376237627  L 97.9999999999998 3.14064356435654  L 97.9999999999998 3.32153465346551  L 97.8198757763972 3.32153465346551  L 94.1552795031054 3.87044554455451  L 93.2422360248446 3.87044554455451  L 93.0621118012421 3.87044554455451  L 93.0621118012421 3.68955445544555  L 92.8819875776396 3.13440594059421  L 92.1490683229812 1.84945544554455  L 91.4099378881988 1.84945544554455  Z " fill-rule="nonzero" fill="#00ccff" stroke="none" fill-opacity="0.498039215686275" transform="matrix(1 0 0 1 1124 493 )" />
    <path d="M 91.4099378881988 1.84945544554455  L 91.4099378881988 1.88064356435643  L 91.0434782608697 2.0615346534654  C 91.0434782608697 2.98470297029712  90.4906832298136 3.53361386138613  89.5776397515529 3.53361386138613  L 82.4409937888199 2.79757425742582  C 77.5031055900622 1.88064356435643  74.4285714285716 -0.0155940594059985  72.5590062111804 0.221435643564405  C 69.1242236024847 0.65806930693077  62.4968944099381 9.77747524752476  62.4968944099381 9.77747524752476  L 62.8633540372673 13.8194554455447  L 62.8633540372673 14.1874752475247  L 61.9440993788822 14.3683663366337  C 54.0745341614909 15.4724257425744  49.8633540372672 14.7363861386139  49.3167701863355 12.1602475247525  L 48.4037267080747 0.764108910891082  L 39.2546583850932 0.208960396039629  L 35.4161490683231 8.29915841584159  L 35.0496894409939 4.80608910891101  C 34.8695652173914 2.04905940594062  34.3167701863355 0.396089108910928  33.770186335404 0.0280693069306608  L 29.745341614907 2.04905940594062  L 27.913043478261 4.43806930693074  L 27.7329192546584 4.62519801980204  L 27.5465838509317 4.62519801980204  L 23.8881987577643 5.91014851485158  C 19.8633540372673 9.21608910891098  16.3788819875779 12.7091584158416  13.273291925466 16.3831188118812  L 3.57142857142878 29.6131188118812  L 5.58385093167715 34.2040099009902  L 5.58385093167715 34.9400495049505  L 5.39751552795042 35.1271782178218  C 4.67080745341639 36.2312376237625  5.03105590062125 37.8842079207922  6.13043478260886 39.7180693069308  C 7.40993788819878 42.1070792079208  8.32298136645977 44.6832178217823  8.32298136645977 47.6211386138615  L 8.32298136645977 48.1762871287129  L 0.453416149068403 52.7671782178219  L 0.453416149068403 54.6072772277229  L 4.11180124223608 56.2602475247526  C 4.47826086956536 56.4473762376238  4.65838509316779 56.8091584158416  4.65838509316779 56.9962871287129  L 4.65838509316779 57.3643069306931  C 4.47826086956536 58.2812376237624  5.93788819875783 59.5661881188119  8.68322981366475 60.8573762376238  L 15.4534161490685 62.6912376237625  L 17.4658385093169 61.406287128713  L 19.664596273292 58.2812376237625  L 21.496894409938 52.9480693069308  L 26.8012422360249 54.9690594059407  L 27.5341614906833 55.5242079207922  L 27.5341614906833 55.8922277227724  L 27.5341614906833 56.0731188118814  C 26.6211180124225 58.2812376237625  27.1677018633542 59.7533168316833  28.8198757763977 60.6702475247527  L 34.6770186335405 60.8511386138615  C 36.6894409937889 60.4831188118814  38.3354037267083 59.7470792079209  39.4347826086957 58.8301485148517  C 40.1614906832299 57.9069801980199  41.2608695652176 57.7260891089111  42.9130434782609 57.9069801980199  C 44.9254658385095 58.2750000000001  46.7577639751553 59.0110396039604  48.0372670807456 60.6640099009901  L 49.3167701863355 57.5389603960397  L 49.6832298136646 56.9900495049507  L 49.8695652173914 56.9900495049507  C 50.7826086956522 56.4411386138614  51.3354037267083 55.5179702970297  52.0621118012423 54.2330198019804  C 52.608695652174 52.9418316831684  53.527950310559 51.6568811881189  54.9875776397515 50.7399504950496  L 57.552795031056 49.2741089108912  L 57.7329192546583 49.0869801980199  L 57.9192546583851 49.2741089108912  L 58.0993788819876 49.2741089108912  L 59.5590062111801 49.6421287128713  L 59.9254658385092 49.8230198019803  L 61.9378881987578 40.6350000000001  L 61.9378881987578 40.4541089108911  L 64.8633540372671 39.905198019802  C 67.7888198757764 37.8842079207922  69.2608695652175 36.2312376237625  69.0745341614908 34.7591584158417  L 68.527950310559 32.0021287128714  C 67.7950310559006 30.1682673267328  67.7950310559006 28.8770792079208  68.1614906832299 28.3281683168318  C 68.7142857142858 27.7792574257427  69.0745341614908 27.5921287128714  69.6273291925467 27.5921287128714  C 70.9068322981366 27.5921287128714  72.3726708074535 27.9601485148515  73.8385093167701 28.696188118812  L 74.2049689440994 25.7520297029703  L 74.2049689440994 25.3840099009902  L 74.3850931677018 25.2031188118813  L 77.4968944099379 23.7310396039604  L 77.8633540372671 22.0780693069308  L 76.0372670807454 22.0780693069308  L 75.6708074534162 21.8909405940595  L 75.8509316770185 20.9740099009902  L 75.8509316770185 20.4188613861386  L 76.0372670807452 20.0508415841584  L 76.5838509316769 20.0508415841584  L 76.9503105590061 20.0508415841584  C 78.2298136645961 20.0508415841584  79.6956521739129 19.314801980198  81.3416149068323 17.8489603960396  L 92.8757763975154 9.5778712871288  L 93.2422360248446 9.5778712871288  L 96.9006211180124 11.2308415841585  L 98.3664596273292 11.0499504950496  L 97.4534161490683 7.18886138613868  L 97.4534161490683 6.82084158415842  L 97.6397515527949 6.63371287128712  L 97.8198757763972 6.45282178217826  L 99.8322981366458 3.14064356435654  L 99.2857142857141 2.77262376237627  L 97.9999999999998 3.14064356435654  L 97.9999999999998 3.32153465346551  L 97.8198757763972 3.32153465346551  L 94.1552795031054 3.87044554455451  L 93.2422360248446 3.87044554455451  L 93.0621118012421 3.87044554455451  L 93.0621118012421 3.68955445544555  L 92.8819875776396 3.13440594059421  L 92.1490683229812 1.84945544554455  L 91.4099378881988 1.84945544554455  Z " stroke-width="4" stroke="#00ccff" fill="none" stroke-opacity="0.498039215686275" transform="matrix(1 0 0 1 1124 493 )" mask="url(#clip223)" />
  </g>
</svg>