<?xml version="1.0" encoding="utf-8"?>
<svg version="1.1" xmlns:xlink="http://www.w3.org/1999/xlink" width="65px" height="80px" xmlns="http://www.w3.org/2000/svg">
  <defs>
    <mask fill="white" id="clip206">
      <path d="M 34.2519047619049 3.76744186046494  L 34.0661904761905 3.95348837209303  L 33.7009523809523 4.1395348837209  L 30.5995238095238 6.32868217054261  L 27.8633333333333 9.43565891472872  L 27.677619047619 9.43565891472872  L 27.677619047619 9.80155038759688  L 23.6661904761905 9.80155038759688  L 21.4747619047619 8.524031007752  C 18.7385714285714 9.25581395348831  17.2838095238095 11.0852713178294  16.7328571428571 14.5519379844961  L 16.5533333333334 17.6589147286821  L 18.7385714285714 15.6496124031007  L 17.2838095238095 21.677519379845  L 17.2838095238095 21.8573643410853  L 17.2838095238095 22.0434108527131  L 11.2604761904762 27.3395348837208  C 10.3504761904762 28.4372093023255  9.98523809523829 29.3550387596899  10.3504761904762 29.9007751937984  L 11.4461904761905 31.1782945736434  C 12.7214285714284 32.275968992248  13.4519047619048 33.1875968992248  13.2661904761904 33.9193798449611  C 13.2661904761904 34.4651162790697  13.0804761904762 35.0108527131782  12.7214285714286 35.3829457364341  L 8.88952380952378 38.6697674418604  C 9.06904761904752 39.5813953488371  9.06904761904752 41.0449612403099  8.88952380952378 42.6945736434108  L 8.88952380952378 43.2403100775193  L 8.70999999999992 43.4263565891472  L 7.25523809523804 43.9720930232556  C 7.25523809523804 44.8837209302324  6.8900000000001 45.4294573643409  5.97380952380956 46.3472868217053  L 3.96809523809532 48.3565891472867  L 3.96809523809532 48.5426356589146  C 4.33333333333326 49.4542635658913  4.33333333333326 50.5519379844959  3.60285714285715 52.2015503875967  C 4.512857142857 54.0248062015503  4.512857142857 55.3085271317827  3.60285714285715 55.8542635658913  L 1.77666666666664 57.6837209302324  L 1.41142857142847 57.8635658914727  L 0.501428571428505 58.2294573643409  L 0.501428571428505 58.5953488372093  L 1.77666666666664 62.9798449612402  L 2.14190476190458 62.9798449612402  C 5.24333333333323 62.613953488372  8.53047619047618 62.613953488372  12.1704761904761 62.9798449612402  L 12.5357142857143 62.9798449612402  L 12.5357142857143 63.1596899224805  L 16.5533333333332 67.1782945736434  L 16.5533333333332 67.3581395348835  L 16.732857142857 67.3581395348835  L 19.1038095238094 74.1240310077518  L 24.025238095238 78.6883720930232  L 26.0309523809524 79.4201550387595  L 26.2104761904761 73.7581395348835  L 30.7666666666667 78.3286821705425  L 31.4971428571428 77.5968992248061  L 34.7842857142855 70.8372093023255  L 35.3290476190475 66.998449612403  L 35.8738095238094 67.1844961240308  L 36.2390476190475 67.1844961240308  L 39.7057142857142 67.3643410852711  L 39.52 64.6232558139533  L 39.52 64.0775193798448  L 39.52 63.7116279069764  L 40.0647619047618 63.7116279069764  L 44.6271428571429 63.8914728682169  C 46.9980952380953 61.5162790697673  48.0938095238095 59.5069767441859  48.0938095238095 57.857364341085  L 47.3633333333332 51.2837209302323  L 51.374761904762 52.5674418604649  L 52.4704761904761 50.7379844961238  L 50.6442857142856 48.9085271317826  L 50.0933333333332 48.1767441860462  L 53.7457142857143 44.5240310077518  L 53.925238095238 44.8899224806199  L 54.2904761904762 44.8899224806199  L 56.4819047619046 46.1674418604648  L 56.4819047619046 45.6155038759688  L 55.0209523809523 42.3286821705424  L 55.5719047619046 41.7829457364338  L 56.4819047619046 41.2372093023254  L 56.1166666666667 39.9534883720928  L 54.2904761904759 36.4806201550385  L 54.6557142857141 36.3007751937982  L 55.0209523809523 35.93488372093  L 59.9485714285713 33.1937984496121  L 60.1342857142855 31.1844961240308  C 55.9371428571428 28.9891472868215  53.7519047619048 27.165891472868  54.1109523809524 26.2480620155036  C 54.2966666666665 25.5162790697673  54.6619047619047 25.3364341085269  55.5719047619046 25.3364341085269  L 61.0442857142857 26.2480620155036  L 61.2238095238095 22.9612403100773  L 61.2238095238095 22.595348837209  L 63.9599999999999 19.8542635658912  L 64.6904761904763 17.8449612403098  C 63.594761904762 17.4790697674416  62.8642857142858 16.7472868217052  62.14 16.0217054263563  L 61.9604761904762 15.6558139534881  L 61.9604761904762 15.2899224806199  L 62.14 14.3720930232555  L 61.9604761904762 14.0062015503872  L 61.5952380952383 13.8263565891471  L 61.4157142857144 14.0062015503872  C 61.0504761904765 14.7379844961238  60.1404761904763 15.2899224806199  58.8652380952382 15.2899224806199  C 56.8595238095239 15.2899224806199  55.2190476190478 14.3720930232555  53.9438095238097 13.0945736434106  L 53.9438095238097 12.9085271317826  L 53.764285714286 12.9085271317826  L 52.3033333333335 10.3534883720927  L 51.9380952380952 10.7193798449611  C 51.7523809523811 11.8108527131781  51.0280952380954 12.9085271317826  49.7528571428572 13.8263565891471  C 47.3819047619048 14.9240310077516  45.1904761904764 15.2899224806199  43.0052380952383 14.3720930232555  C 41.5442857142858 13.8263565891471  40.6342857142859 12.7286821705425  40.0833333333335 11.0852713178292  L 39.5385714285716 7.42635658914708  C 38.9938095238095 3.95348837209281  38.2633333333334 1.94418604651139  37.1676190476192 1.39224806201537  C 36.0719047619048 0.660465116278942  34.9761904761907 0.480620155038537  34.0661904761905 0.660465116278942  L 34.2519047619049 3.76744186046494  Z " fill-rule="evenodd" />
    </mask>
  </defs>
  <g transform="matrix(1 0 0 1 -1152 -660 )">
    <path d="M 34.2519047619049 3.76744186046494  L 34.0661904761905 3.95348837209303  L 33.7009523809523 4.1395348837209  L 30.5995238095238 6.32868217054261  L 27.8633333333333 9.43565891472872  L 27.677619047619 9.43565891472872  L 27.677619047619 9.80155038759688  L 23.6661904761905 9.80155038759688  L 21.4747619047619 8.524031007752  C 18.7385714285714 9.25581395348831  17.2838095238095 11.0852713178294  16.7328571428571 14.5519379844961  L 16.5533333333334 17.6589147286821  L 18.7385714285714 15.6496124031007  L 17.2838095238095 21.677519379845  L 17.2838095238095 21.8573643410853  L 17.2838095238095 22.0434108527131  L 11.2604761904762 27.3395348837208  C 10.3504761904762 28.4372093023255  9.98523809523829 29.3550387596899  10.3504761904762 29.9007751937984  L 11.4461904761905 31.1782945736434  C 12.7214285714284 32.275968992248  13.4519047619048 33.1875968992248  13.2661904761904 33.9193798449611  C 13.2661904761904 34.4651162790697  13.0804761904762 35.0108527131782  12.7214285714286 35.3829457364341  L 8.88952380952378 38.6697674418604  C 9.06904761904752 39.5813953488371  9.06904761904752 41.0449612403099  8.88952380952378 42.6945736434108  L 8.88952380952378 43.2403100775193  L 8.70999999999992 43.4263565891472  L 7.25523809523804 43.9720930232556  C 7.25523809523804 44.8837209302324  6.8900000000001 45.4294573643409  5.97380952380956 46.3472868217053  L 3.96809523809532 48.3565891472867  L 3.96809523809532 48.5426356589146  C 4.33333333333326 49.4542635658913  4.33333333333326 50.5519379844959  3.60285714285715 52.2015503875967  C 4.512857142857 54.0248062015503  4.512857142857 55.3085271317827  3.60285714285715 55.8542635658913  L 1.77666666666664 57.6837209302324  L 1.41142857142847 57.8635658914727  L 0.501428571428505 58.2294573643409  L 0.501428571428505 58.5953488372093  L 1.77666666666664 62.9798449612402  L 2.14190476190458 62.9798449612402  C 5.24333333333323 62.613953488372  8.53047619047618 62.613953488372  12.1704761904761 62.9798449612402  L 12.5357142857143 62.9798449612402  L 12.5357142857143 63.1596899224805  L 16.5533333333332 67.1782945736434  L 16.5533333333332 67.3581395348835  L 16.732857142857 67.3581395348835  L 19.1038095238094 74.1240310077518  L 24.025238095238 78.6883720930232  L 26.0309523809524 79.4201550387595  L 26.2104761904761 73.7581395348835  L 30.7666666666667 78.3286821705425  L 31.4971428571428 77.5968992248061  L 34.7842857142855 70.8372093023255  L 35.3290476190475 66.998449612403  L 35.8738095238094 67.1844961240308  L 36.2390476190475 67.1844961240308  L 39.7057142857142 67.3643410852711  L 39.52 64.6232558139533  L 39.52 64.0775193798448  L 39.52 63.7116279069764  L 40.0647619047618 63.7116279069764  L 44.6271428571429 63.8914728682169  C 46.9980952380953 61.5162790697673  48.0938095238095 59.5069767441859  48.0938095238095 57.857364341085  L 47.3633333333332 51.2837209302323  L 51.374761904762 52.5674418604649  L 52.4704761904761 50.7379844961238  L 50.6442857142856 48.9085271317826  L 50.0933333333332 48.1767441860462  L 53.7457142857143 44.5240310077518  L 53.925238095238 44.8899224806199  L 54.2904761904762 44.8899224806199  L 56.4819047619046 46.1674418604648  L 56.4819047619046 45.6155038759688  L 55.0209523809523 42.3286821705424  L 55.5719047619046 41.7829457364338  L 56.4819047619046 41.2372093023254  L 56.1166666666667 39.9534883720928  L 54.2904761904759 36.4806201550385  L 54.6557142857141 36.3007751937982  L 55.0209523809523 35.93488372093  L 59.9485714285713 33.1937984496121  L 60.1342857142855 31.1844961240308  C 55.9371428571428 28.9891472868215  53.7519047619048 27.165891472868  54.1109523809524 26.2480620155036  C 54.2966666666665 25.5162790697673  54.6619047619047 25.3364341085269  55.5719047619046 25.3364341085269  L 61.0442857142857 26.2480620155036  L 61.2238095238095 22.9612403100773  L 61.2238095238095 22.595348837209  L 63.9599999999999 19.8542635658912  L 64.6904761904763 17.8449612403098  C 63.594761904762 17.4790697674416  62.8642857142858 16.7472868217052  62.14 16.0217054263563  L 61.9604761904762 15.6558139534881  L 61.9604761904762 15.2899224806199  L 62.14 14.3720930232555  L 61.9604761904762 14.0062015503872  L 61.5952380952383 13.8263565891471  L 61.4157142857144 14.0062015503872  C 61.0504761904765 14.7379844961238  60.1404761904763 15.2899224806199  58.8652380952382 15.2899224806199  C 56.8595238095239 15.2899224806199  55.2190476190478 14.3720930232555  53.9438095238097 13.0945736434106  L 53.9438095238097 12.9085271317826  L 53.764285714286 12.9085271317826  L 52.3033333333335 10.3534883720927  L 51.9380952380952 10.7193798449611  C 51.7523809523811 11.8108527131781  51.0280952380954 12.9085271317826  49.7528571428572 13.8263565891471  C 47.3819047619048 14.9240310077516  45.1904761904764 15.2899224806199  43.0052380952383 14.3720930232555  C 41.5442857142858 13.8263565891471  40.6342857142859 12.7286821705425  40.0833333333335 11.0852713178292  L 39.5385714285716 7.42635658914708  C 38.9938095238095 3.95348837209281  38.2633333333334 1.94418604651139  37.1676190476192 1.39224806201537  C 36.0719047619048 0.660465116278942  34.9761904761907 0.480620155038537  34.0661904761905 0.660465116278942  L 34.2519047619049 3.76744186046494  Z " fill-rule="nonzero" fill="#00ccff" stroke="none" fill-opacity="0.298039215686275" transform="matrix(1 0 0 1 1152 660 )" />
    <path d="M 34.2519047619049 3.76744186046494  L 34.0661904761905 3.95348837209303  L 33.7009523809523 4.1395348837209  L 30.5995238095238 6.32868217054261  L 27.8633333333333 9.43565891472872  L 27.677619047619 9.43565891472872  L 27.677619047619 9.80155038759688  L 23.6661904761905 9.80155038759688  L 21.4747619047619 8.524031007752  C 18.7385714285714 9.25581395348831  17.2838095238095 11.0852713178294  16.7328571428571 14.5519379844961  L 16.5533333333334 17.6589147286821  L 18.7385714285714 15.6496124031007  L 17.2838095238095 21.677519379845  L 17.2838095238095 21.8573643410853  L 17.2838095238095 22.0434108527131  L 11.2604761904762 27.3395348837208  C 10.3504761904762 28.4372093023255  9.98523809523829 29.3550387596899  10.3504761904762 29.9007751937984  L 11.4461904761905 31.1782945736434  C 12.7214285714284 32.275968992248  13.4519047619048 33.1875968992248  13.2661904761904 33.9193798449611  C 13.2661904761904 34.4651162790697  13.0804761904762 35.0108527131782  12.7214285714286 35.3829457364341  L 8.88952380952378 38.6697674418604  C 9.06904761904752 39.5813953488371  9.06904761904752 41.0449612403099  8.88952380952378 42.6945736434108  L 8.88952380952378 43.2403100775193  L 8.70999999999992 43.4263565891472  L 7.25523809523804 43.9720930232556  C 7.25523809523804 44.8837209302324  6.8900000000001 45.4294573643409  5.97380952380956 46.3472868217053  L 3.96809523809532 48.3565891472867  L 3.96809523809532 48.5426356589146  C 4.33333333333326 49.4542635658913  4.33333333333326 50.5519379844959  3.60285714285715 52.2015503875967  C 4.512857142857 54.0248062015503  4.512857142857 55.3085271317827  3.60285714285715 55.8542635658913  L 1.77666666666664 57.6837209302324  L 1.41142857142847 57.8635658914727  L 0.501428571428505 58.2294573643409  L 0.501428571428505 58.5953488372093  L 1.77666666666664 62.9798449612402  L 2.14190476190458 62.9798449612402  C 5.24333333333323 62.613953488372  8.53047619047618 62.613953488372  12.1704761904761 62.9798449612402  L 12.5357142857143 62.9798449612402  L 12.5357142857143 63.1596899224805  L 16.5533333333332 67.1782945736434  L 16.5533333333332 67.3581395348835  L 16.732857142857 67.3581395348835  L 19.1038095238094 74.1240310077518  L 24.025238095238 78.6883720930232  L 26.0309523809524 79.4201550387595  L 26.2104761904761 73.7581395348835  L 30.7666666666667 78.3286821705425  L 31.4971428571428 77.5968992248061  L 34.7842857142855 70.8372093023255  L 35.3290476190475 66.998449612403  L 35.8738095238094 67.1844961240308  L 36.2390476190475 67.1844961240308  L 39.7057142857142 67.3643410852711  L 39.52 64.6232558139533  L 39.52 64.0775193798448  L 39.52 63.7116279069764  L 40.0647619047618 63.7116279069764  L 44.6271428571429 63.8914728682169  C 46.9980952380953 61.5162790697673  48.0938095238095 59.5069767441859  48.0938095238095 57.857364341085  L 47.3633333333332 51.2837209302323  L 51.374761904762 52.5674418604649  L 52.4704761904761 50.7379844961238  L 50.6442857142856 48.9085271317826  L 50.0933333333332 48.1767441860462  L 53.7457142857143 44.5240310077518  L 53.925238095238 44.8899224806199  L 54.2904761904762 44.8899224806199  L 56.4819047619046 46.1674418604648  L 56.4819047619046 45.6155038759688  L 55.0209523809523 42.3286821705424  L 55.5719047619046 41.7829457364338  L 56.4819047619046 41.2372093023254  L 56.1166666666667 39.9534883720928  L 54.2904761904759 36.4806201550385  L 54.6557142857141 36.3007751937982  L 55.0209523809523 35.93488372093  L 59.9485714285713 33.1937984496121  L 60.1342857142855 31.1844961240308  C 55.9371428571428 28.9891472868215  53.7519047619048 27.165891472868  54.1109523809524 26.2480620155036  C 54.2966666666665 25.5162790697673  54.6619047619047 25.3364341085269  55.5719047619046 25.3364341085269  L 61.0442857142857 26.2480620155036  L 61.2238095238095 22.9612403100773  L 61.2238095238095 22.595348837209  L 63.9599999999999 19.8542635658912  L 64.6904761904763 17.8449612403098  C 63.594761904762 17.4790697674416  62.8642857142858 16.7472868217052  62.14 16.0217054263563  L 61.9604761904762 15.6558139534881  L 61.9604761904762 15.2899224806199  L 62.14 14.3720930232555  L 61.9604761904762 14.0062015503872  L 61.5952380952383 13.8263565891471  L 61.4157142857144 14.0062015503872  C 61.0504761904765 14.7379844961238  60.1404761904763 15.2899224806199  58.8652380952382 15.2899224806199  C 56.8595238095239 15.2899224806199  55.2190476190478 14.3720930232555  53.9438095238097 13.0945736434106  L 53.9438095238097 12.9085271317826  L 53.764285714286 12.9085271317826  L 52.3033333333335 10.3534883720927  L 51.9380952380952 10.7193798449611  C 51.7523809523811 11.8108527131781  51.0280952380954 12.9085271317826  49.7528571428572 13.8263565891471  C 47.3819047619048 14.9240310077516  45.1904761904764 15.2899224806199  43.0052380952383 14.3720930232555  C 41.5442857142858 13.8263565891471  40.6342857142859 12.7286821705425  40.0833333333335 11.0852713178292  L 39.5385714285716 7.42635658914708  C 38.9938095238095 3.95348837209281  38.2633333333334 1.94418604651139  37.1676190476192 1.39224806201537  C 36.0719047619048 0.660465116278942  34.9761904761907 0.480620155038537  34.0661904761905 0.660465116278942  L 34.2519047619049 3.76744186046494  Z " stroke-width="4" stroke="#00ccff" fill="none" stroke-opacity="0.498039215686275" transform="matrix(1 0 0 1 1152 660 )" mask="url(#clip206)" />
  </g>
</svg>