<?xml version="1.0" encoding="utf-8"?>
<svg version="1.1" xmlns:xlink="http://www.w3.org/1999/xlink" width="165px" height="150px" xmlns="http://www.w3.org/2000/svg">
  <defs>
    <mask fill="white" id="clip221">
      <path d="M 163.498872180451 103.801867219917  C 164.603007518797 101.23755186722  164.603007518797 95.9221991701246  163.871052631579 87.6690871369295  L 161.129323308271 69.7002074688797  L 161.309210526316 69.3329875518672  L 161.49530075188 69.3329875518672  C 162.773120300752 67.3163900414938  163.50507518797 65.6670124481328  163.139097744361 64.3786307053942  L 162.413345864662 63.2769709543569  C 160.403571428571 61.9948132780083  159.485526315789 59.0570539419088  160.037593984962 54.1089211618258  L 158.387593984962 54.1089211618258  C 157.10977443609 53.9284232365145  155.645864661654 54.4761410788382  154.188157894737 55.3910788381743  C 152.724248120301 56.4927385892117  151.812406015038 57.7748962655602  151.632518796993 58.6898340248963  C 150.900563909774 60.8869294605809  148.524812030075 62.3558091286308  144.505263157895 63.6379668049793  L 143.593421052632 69.3267634854772  L 143.593421052632 69.5134854771784  L 143.407330827068 69.7002074688797  L 141.403759398496 73.3661825726142  L 141.217669172932 73.7334024896266  L 141.031578947368 73.7334024896266  L 140.845488721805 73.7334024896266  L 122.751315789474 77.0383817427386  L 122.56522556391 77.0383817427386  L 122.019360902256 77.0383817427386  L 122.019360902256 76.6711618257262  L 116.721992481203 70.9885892116183  L 118.365789473684 69.3392116182573  L 116.356015037594 66.588174273859  L 113.794172932331 64.7520746887967  L 113.614285714286 64.5715767634855  L 113.428195488722 64.5715767634855  L 113.428195488722 64.3910788381743  L 113.428195488722 64.2105809128631  L 112.516353383459 59.2624481327801  L 107.76484962406 59.6296680497926  L 107.40507518797 59.2624481327801  L 103.379323308271 56.8786307053942  L 88.9387218045112 54.3143153526971  L 76.873872180451 53.7603734439834  L 76.5078947368421 54.1275933609959  C 75.9558270676692 54.1275933609959  75.596052631579 53.9470954356846  75.4099624060152 53.5736514522822  L 68.4625939849625 37.8080912863071  C 67.7368421052632 36.5197095435685  64.809022556391 32.4865145228216  58.9595864661654 25.5217842323652  C 53.476127819549 18.73755186722  50.3684210526317 15.0715767634855  49.4565789473685 14.3371369294606  L 39.2216165413535 4.25414937759336  L 37.5778195488723 3.33298755186723  L 24.7872180451128 3.146265560166  L 24.6073308270677 3.146265560166  L 24.2413533834588 2.77904564315355  C 22.9635338345865 1.86410788381744  21.1336466165415 0.942946058091309  18.3919172932332 0.395228215767702  C 16.0161654135339 -0.525933609958486  10.5327067669175 1.31016597510376  1.94154135338363 5.89730290456436  L 1.57556390977459 6.07780082987557  L 1.94154135338363 8.64211618257264  L 2.12142857142874 8.64211618257264  L 2.12142857142874 8.82883817427387  L 1.94154135338363 8.82883817427387  L 1.94154135338363 9.19605809128632  L 0.477631578947467 12.1275933609958  L 0.477631578947467 12.3143153526971  L 0.29154135338365 12.3143153526971  L 0.11165413533854 14.3309128630706  C 0.11165413533854 15.9802904564315  0.477631578947467 17.8163900414938  1.02349624060162 19.2790456431536  L 2.30751879699278 20.1939834024896  L 5.04924812030094 20.0072614107884  L 7.42500000000029 20.554979253112  L 8.33684210526326 19.8205394190871  C 8.33684210526326 18.1711618257261  8.88890977443634 16.8890041493776  9.6146616541356 16.5217842323652  L 11.4445488721806 16.5217842323652  L 17.8398496240603 18.3578838174274  L 19.3037593984964 18.5383817427386  L 17.2939849624062 22.0238589211618  L 17.2939849624062 26.24377593361  C 17.2939849624062 27.1649377593361  18.9439849624061 29.3620331950207  22.2315789473686 32.4802904564315  C 24.241353383459 33.9491701244813  25.519172932331 34.6773858921162  26.6171052631581 34.8641078838174  L 27.5351503759401 34.6773858921162  L 28.4469924812033 34.3101659751038  L 31.5546992481206 31.191908713693  L 33.9304511278198 29.7230290456432  L 33.9304511278198 29.5363070539419  L 38.8618421052635 28.801867219917  L 40.3195488721808 25.6836099585062  L 44.7050751879704 23.1130705394191  L 48.5447368421057 25.3163900414938  L 48.5447368421057 25.496887966805  L 48.9107142857148 25.6836099585062  L 52.5704887218048 31.9139004149378  L 54.0281954887222 36.1338174273859  L 54.0281954887222 36.6877593360996  L 53.2962406015043 41.8226141078839  L 54.7601503759404 45.308091286307  L 54.7601503759404 45.8620331950208  L 53.668421052632 49.8952282157676  L 53.668421052632 53.5612033195021  C 54.7601503759404 56.8661825726141  55.3122180451131 59.0632780082988  55.3122180451131 59.6172199170124  L 54.9462406015042 62.7292531120332  L 54.9462406015042 62.9159751037345  L 53.1163533834591 65.4802904564315  L 53.1163533834591 65.6670124481328  L 51.2864661654139 67.8641078838175  L 51.1003759398501 71.8973029045644  L 52.1983082706772 76.1172199170125  L 52.3781954887221 76.2977178423237  L 52.1983082706772 76.4782157676349  L 51.1003759398501 82.8952282157676  L 50.1823308270681 83.8101659751038  C 49.4503759398501 84.3641078838174  48.5385338345868 84.3641078838174  47.4406015037598 83.8101659751038  L 47.0746240601508 83.8101659751038  L 45.4308270676696 81.9802904564315  L 43.6009398496245 82.5342323651453  L 41.2251879699252 85.0985477178423  L 38.663345864662 92.6172199170124  L 38.663345864662 92.8039419087137  L 38.4834586466169 92.9844398340249  L 35.9216165413538 95.1815352697096  L 35.5556390977447 95.1815352697096  L 34.0917293233086 95.3682572614108  L 31.1639097744364 99.588174273859  L 32.6278195488725 102.339211618257  L 32.9937969924815 102.70643153527  L 36.6473684210531 107.28734439834  L 36.6473684210531 107.474066390042  L 36.6473684210531 108.942946058091  L 40.6669172932335 109.490663900415  L 41.3988721804513 113.16286307054  L 41.3988721804513 113.343360995851  L 41.9447368421057 117.74377593361  L 43.0426691729326 118.658713692946  L 46.696240601504 117.557053941909  L 50.1699248120304 115.540456431535  L 50.7219924812033 115.173236514523  L 51.9998120300755 121.409751037344  L 53.6498120300754 123.79979253112  L 54.0157894736847 123.980290456432  L 55.2998120300756 126.550829875519  L 58.0415413533839 128.747925311203  C 58.4075187969928 129.301867219917  59.3193609022559 129.301867219917  60.2312030075192 129.301867219917  L 61.1430451127823 129.488589211618  L 62.7930451127824 128.754149377593  C 64.0708646616546 128.20643153527  65.3486842105267 127.652489626556  66.8125939849627 127.471991701245  L 67.9105263157899 126.918049792531  L 70.4661654135341 126.73132780083  C 71.3780075187974 126.73132780083  71.7439849624063 126.918049792531  72.2898496240605 127.465767634855  L 75.9496240601508 125.081950207469  L 76.3156015037598 125.081950207469  L 76.6815789473687 125.26867219917  L 76.8676691729326 125.081950207469  L 77.2336466165417 125.449170124481  C 78.6913533834589 127.098547717842  79.4233082706769 128.567427385892  79.4233082706769 129.301867219917  L 81.073308270677 132.052904564315  L 82.3511278195492 132.420124481328  L 82.5310150375941 132.420124481328  L 82.7171052631581 132.420124481328  L 82.3511278195492 132.052904564315  C 82.1650375939852 131.137966804979  82.1650375939852 130.584024896266  82.3511278195492 130.216804979253  C 82.7171052631581 129.662863070539  83.4490601503761 129.301867219917  84.5469924812032 129.301867219917  L 91.3082706766921 129.121369294606  L 91.4943609022559 128.940871369295  L 91.8603383458649 128.940871369295  L 91.8603383458649 129.308091286307  L 92.2263157894739 129.308091286307  L 94.2360902255641 133.160788381743  L 94.0500000000003 135.177385892116  L 93.8701127819551 135.177385892116  L 96.4257518796994 135.73132780083  L 96.6056390977445 135.73132780083  C 96.4257518796994 135.177385892116  96.4257518796994 134.810165975104  96.7855263157896 134.449170124481  L 97.6973684210527 134.26244813278  L 103.726691729323 138.482365145228  C 104.272556390978 139.036307053942  104.638533834587 139.764522821577  104.824624060151 140.679460580913  L 105.004511278196 143.25  L 107.020488721805 143.617219917012  L 108.298308270677 141.413900414938  C 107.746240601504 140.3122406639  107.386466165414 139.210580912863  107.566353383459 138.476141078838  C 107.746240601504 137.741701244813  107.932330827068 137.19398340249  108.658082706767 136.826763485477  L 109.21015037594 136.279045643154  C 109.21015037594 135.911825726141  109.396240601504 135.73132780083  109.756015037594 135.544605809129  L 111.399812030075 135.73132780083  C 112.311654135338 136.279045643154  113.049812030076 138.115145228216  113.409586466166 141.233402489627  L 113.409586466166 141.600622406639  L 113.775563909775 141.78734439834  C 113.961654135338 142.521784232365  115.053383458647 143.069502074689  116.703383458647 143.623443983402  L 116.883270676692 143.623443983402  L 117.069360902256 143.803941908714  L 122.918796992481 149.853734439834  L 125.66052631579 148.932572614108  L 125.294548872181 148.017634854772  C 124.562593984963 147.102697095436  124.376503759399 146.1877593361  124.376503759399 145.633817427386  C 124.376503759399 144.345435684647  125.294548872181 143.063278008299  127.118233082707 141.78112033195  L 130.225939849624 139.030082987552  L 133.879511278196 141.594398340249  L 134.611466165414 141.594398340249  L 135.343421052632 137.561203319502  L 135.343421052632 136.826763485477  L 136.07537593985 136.640041493776  L 139.003195488722 137.007261410788  C 139.555263157895 137.554979253112  139.915037593985 138.108921161826  139.915037593985 139.023858921162  C 139.915037593985 139.752074688797  139.369172932331 140.673236514523  138.817105263159 141.407676348548  L 139.369172932331 141.77489626556  C 141.192857142858 142.689834024896  142.656766917294 143.424273858921  143.754699248121 143.610995850622  L 143.940789473685 143.610995850622  L 146.316541353384 144.893153526971  L 148.146428571429 144.70643153527  L 145.404699248121 131.318464730291  C 143.581015037594 130.216804979253  141.931015037595 128.019709543569  140.287218045113 125.449170124481  C 139.009398496241 123.245850622407  139.73515037594 120.133817427386  142.662969924812 116.461618257261  C 144.306766917294 114.631742738589  146.316541353384 112.795643153527  148.512406015038 110.959543568465  L 148.698496240602 110.592323651452  L 151.254135338346 110.592323651452  L 151.44022556391 110.959543568465  L 153.629887218045 111.874481327801  L 158.201503759399 111.874481327801  C 160.031390977444 110.959543568465  161.675187969925 108.208506224066  163.498872180451 103.801867219917  Z " fill-rule="evenodd" />
    </mask>
  </defs>
  <g transform="matrix(1 0 0 1 -1158 -225 )">
    <path d="M 163.498872180451 103.801867219917  C 164.603007518797 101.23755186722  164.603007518797 95.9221991701246  163.871052631579 87.6690871369295  L 161.129323308271 69.7002074688797  L 161.309210526316 69.3329875518672  L 161.49530075188 69.3329875518672  C 162.773120300752 67.3163900414938  163.50507518797 65.6670124481328  163.139097744361 64.3786307053942  L 162.413345864662 63.2769709543569  C 160.403571428571 61.9948132780083  159.485526315789 59.0570539419088  160.037593984962 54.1089211618258  L 158.387593984962 54.1089211618258  C 157.10977443609 53.9284232365145  155.645864661654 54.4761410788382  154.188157894737 55.3910788381743  C 152.724248120301 56.4927385892117  151.812406015038 57.7748962655602  151.632518796993 58.6898340248963  C 150.900563909774 60.8869294605809  148.524812030075 62.3558091286308  144.505263157895 63.6379668049793  L 143.593421052632 69.3267634854772  L 143.593421052632 69.5134854771784  L 143.407330827068 69.7002074688797  L 141.403759398496 73.3661825726142  L 141.217669172932 73.7334024896266  L 141.031578947368 73.7334024896266  L 140.845488721805 73.7334024896266  L 122.751315789474 77.0383817427386  L 122.56522556391 77.0383817427386  L 122.019360902256 77.0383817427386  L 122.019360902256 76.6711618257262  L 116.721992481203 70.9885892116183  L 118.365789473684 69.3392116182573  L 116.356015037594 66.588174273859  L 113.794172932331 64.7520746887967  L 113.614285714286 64.5715767634855  L 113.428195488722 64.5715767634855  L 113.428195488722 64.3910788381743  L 113.428195488722 64.2105809128631  L 112.516353383459 59.2624481327801  L 107.76484962406 59.6296680497926  L 107.40507518797 59.2624481327801  L 103.379323308271 56.8786307053942  L 88.9387218045112 54.3143153526971  L 76.873872180451 53.7603734439834  L 76.5078947368421 54.1275933609959  C 75.9558270676692 54.1275933609959  75.596052631579 53.9470954356846  75.4099624060152 53.5736514522822  L 68.4625939849625 37.8080912863071  C 67.7368421052632 36.5197095435685  64.809022556391 32.4865145228216  58.9595864661654 25.5217842323652  C 53.476127819549 18.73755186722  50.3684210526317 15.0715767634855  49.4565789473685 14.3371369294606  L 39.2216165413535 4.25414937759336  L 37.5778195488723 3.33298755186723  L 24.7872180451128 3.146265560166  L 24.6073308270677 3.146265560166  L 24.2413533834588 2.77904564315355  C 22.9635338345865 1.86410788381744  21.1336466165415 0.942946058091309  18.3919172932332 0.395228215767702  C 16.0161654135339 -0.525933609958486  10.5327067669175 1.31016597510376  1.94154135338363 5.89730290456436  L 1.57556390977459 6.07780082987557  L 1.94154135338363 8.64211618257264  L 2.12142857142874 8.64211618257264  L 2.12142857142874 8.82883817427387  L 1.94154135338363 8.82883817427387  L 1.94154135338363 9.19605809128632  L 0.477631578947467 12.1275933609958  L 0.477631578947467 12.3143153526971  L 0.29154135338365 12.3143153526971  L 0.11165413533854 14.3309128630706  C 0.11165413533854 15.9802904564315  0.477631578947467 17.8163900414938  1.02349624060162 19.2790456431536  L 2.30751879699278 20.1939834024896  L 5.04924812030094 20.0072614107884  L 7.42500000000029 20.554979253112  L 8.33684210526326 19.8205394190871  C 8.33684210526326 18.1711618257261  8.88890977443634 16.8890041493776  9.6146616541356 16.5217842323652  L 11.4445488721806 16.5217842323652  L 17.8398496240603 18.3578838174274  L 19.3037593984964 18.5383817427386  L 17.2939849624062 22.0238589211618  L 17.2939849624062 26.24377593361  C 17.2939849624062 27.1649377593361  18.9439849624061 29.3620331950207  22.2315789473686 32.4802904564315  C 24.241353383459 33.9491701244813  25.519172932331 34.6773858921162  26.6171052631581 34.8641078838174  L 27.5351503759401 34.6773858921162  L 28.4469924812033 34.3101659751038  L 31.5546992481206 31.191908713693  L 33.9304511278198 29.7230290456432  L 33.9304511278198 29.5363070539419  L 38.8618421052635 28.801867219917  L 40.3195488721808 25.6836099585062  L 44.7050751879704 23.1130705394191  L 48.5447368421057 25.3163900414938  L 48.5447368421057 25.496887966805  L 48.9107142857148 25.6836099585062  L 52.5704887218048 31.9139004149378  L 54.0281954887222 36.1338174273859  L 54.0281954887222 36.6877593360996  L 53.2962406015043 41.8226141078839  L 54.7601503759404 45.308091286307  L 54.7601503759404 45.8620331950208  L 53.668421052632 49.8952282157676  L 53.668421052632 53.5612033195021  C 54.7601503759404 56.8661825726141  55.3122180451131 59.0632780082988  55.3122180451131 59.6172199170124  L 54.9462406015042 62.7292531120332  L 54.9462406015042 62.9159751037345  L 53.1163533834591 65.4802904564315  L 53.1163533834591 65.6670124481328  L 51.2864661654139 67.8641078838175  L 51.1003759398501 71.8973029045644  L 52.1983082706772 76.1172199170125  L 52.3781954887221 76.2977178423237  L 52.1983082706772 76.4782157676349  L 51.1003759398501 82.8952282157676  L 50.1823308270681 83.8101659751038  C 49.4503759398501 84.3641078838174  48.5385338345868 84.3641078838174  47.4406015037598 83.8101659751038  L 47.0746240601508 83.8101659751038  L 45.4308270676696 81.9802904564315  L 43.6009398496245 82.5342323651453  L 41.2251879699252 85.0985477178423  L 38.663345864662 92.6172199170124  L 38.663345864662 92.8039419087137  L 38.4834586466169 92.9844398340249  L 35.9216165413538 95.1815352697096  L 35.5556390977447 95.1815352697096  L 34.0917293233086 95.3682572614108  L 31.1639097744364 99.588174273859  L 32.6278195488725 102.339211618257  L 32.9937969924815 102.70643153527  L 36.6473684210531 107.28734439834  L 36.6473684210531 107.474066390042  L 36.6473684210531 108.942946058091  L 40.6669172932335 109.490663900415  L 41.3988721804513 113.16286307054  L 41.3988721804513 113.343360995851  L 41.9447368421057 117.74377593361  L 43.0426691729326 118.658713692946  L 46.696240601504 117.557053941909  L 50.1699248120304 115.540456431535  L 50.7219924812033 115.173236514523  L 51.9998120300755 121.409751037344  L 53.6498120300754 123.79979253112  L 54.0157894736847 123.980290456432  L 55.2998120300756 126.550829875519  L 58.0415413533839 128.747925311203  C 58.4075187969928 129.301867219917  59.3193609022559 129.301867219917  60.2312030075192 129.301867219917  L 61.1430451127823 129.488589211618  L 62.7930451127824 128.754149377593  C 64.0708646616546 128.20643153527  65.3486842105267 127.652489626556  66.8125939849627 127.471991701245  L 67.9105263157899 126.918049792531  L 70.4661654135341 126.73132780083  C 71.3780075187974 126.73132780083  71.7439849624063 126.918049792531  72.2898496240605 127.465767634855  L 75.9496240601508 125.081950207469  L 76.3156015037598 125.081950207469  L 76.6815789473687 125.26867219917  L 76.8676691729326 125.081950207469  L 77.2336466165417 125.449170124481  C 78.6913533834589 127.098547717842  79.4233082706769 128.567427385892  79.4233082706769 129.301867219917  L 81.073308270677 132.052904564315  L 82.3511278195492 132.420124481328  L 82.5310150375941 132.420124481328  L 82.7171052631581 132.420124481328  L 82.3511278195492 132.052904564315  C 82.1650375939852 131.137966804979  82.1650375939852 130.584024896266  82.3511278195492 130.216804979253  C 82.7171052631581 129.662863070539  83.4490601503761 129.301867219917  84.5469924812032 129.301867219917  L 91.3082706766921 129.121369294606  L 91.4943609022559 128.940871369295  L 91.8603383458649 128.940871369295  L 91.8603383458649 129.308091286307  L 92.2263157894739 129.308091286307  L 94.2360902255641 133.160788381743  L 94.0500000000003 135.177385892116  L 93.8701127819551 135.177385892116  L 96.4257518796994 135.73132780083  L 96.6056390977445 135.73132780083  C 96.4257518796994 135.177385892116  96.4257518796994 134.810165975104  96.7855263157896 134.449170124481  L 97.6973684210527 134.26244813278  L 103.726691729323 138.482365145228  C 104.272556390978 139.036307053942  104.638533834587 139.764522821577  104.824624060151 140.679460580913  L 105.004511278196 143.25  L 107.020488721805 143.617219917012  L 108.298308270677 141.413900414938  C 107.746240601504 140.3122406639  107.386466165414 139.210580912863  107.566353383459 138.476141078838  C 107.746240601504 137.741701244813  107.932330827068 137.19398340249  108.658082706767 136.826763485477  L 109.21015037594 136.279045643154  C 109.21015037594 135.911825726141  109.396240601504 135.73132780083  109.756015037594 135.544605809129  L 111.399812030075 135.73132780083  C 112.311654135338 136.279045643154  113.049812030076 138.115145228216  113.409586466166 141.233402489627  L 113.409586466166 141.600622406639  L 113.775563909775 141.78734439834  C 113.961654135338 142.521784232365  115.053383458647 143.069502074689  116.703383458647 143.623443983402  L 116.883270676692 143.623443983402  L 117.069360902256 143.803941908714  L 122.918796992481 149.853734439834  L 125.66052631579 148.932572614108  L 125.294548872181 148.017634854772  C 124.562593984963 147.102697095436  124.376503759399 146.1877593361  124.376503759399 145.633817427386  C 124.376503759399 144.345435684647  125.294548872181 143.063278008299  127.118233082707 141.78112033195  L 130.225939849624 139.030082987552  L 133.879511278196 141.594398340249  L 134.611466165414 141.594398340249  L 135.343421052632 137.561203319502  L 135.343421052632 136.826763485477  L 136.07537593985 136.640041493776  L 139.003195488722 137.007261410788  C 139.555263157895 137.554979253112  139.915037593985 138.108921161826  139.915037593985 139.023858921162  C 139.915037593985 139.752074688797  139.369172932331 140.673236514523  138.817105263159 141.407676348548  L 139.369172932331 141.77489626556  C 141.192857142858 142.689834024896  142.656766917294 143.424273858921  143.754699248121 143.610995850622  L 143.940789473685 143.610995850622  L 146.316541353384 144.893153526971  L 148.146428571429 144.70643153527  L 145.404699248121 131.318464730291  C 143.581015037594 130.216804979253  141.931015037595 128.019709543569  140.287218045113 125.449170124481  C 139.009398496241 123.245850622407  139.73515037594 120.133817427386  142.662969924812 116.461618257261  C 144.306766917294 114.631742738589  146.316541353384 112.795643153527  148.512406015038 110.959543568465  L 148.698496240602 110.592323651452  L 151.254135338346 110.592323651452  L 151.44022556391 110.959543568465  L 153.629887218045 111.874481327801  L 158.201503759399 111.874481327801  C 160.031390977444 110.959543568465  161.675187969925 108.208506224066  163.498872180451 103.801867219917  Z " fill-rule="nonzero" fill="#00ccff" stroke="none" fill-opacity="0.498039215686275" transform="matrix(1 0 0 1 1158 225 )" />
    <path d="M 163.498872180451 103.801867219917  C 164.603007518797 101.23755186722  164.603007518797 95.9221991701246  163.871052631579 87.6690871369295  L 161.129323308271 69.7002074688797  L 161.309210526316 69.3329875518672  L 161.49530075188 69.3329875518672  C 162.773120300752 67.3163900414938  163.50507518797 65.6670124481328  163.139097744361 64.3786307053942  L 162.413345864662 63.2769709543569  C 160.403571428571 61.9948132780083  159.485526315789 59.0570539419088  160.037593984962 54.1089211618258  L 158.387593984962 54.1089211618258  C 157.10977443609 53.9284232365145  155.645864661654 54.4761410788382  154.188157894737 55.3910788381743  C 152.724248120301 56.4927385892117  151.812406015038 57.7748962655602  151.632518796993 58.6898340248963  C 150.900563909774 60.8869294605809  148.524812030075 62.3558091286308  144.505263157895 63.6379668049793  L 143.593421052632 69.3267634854772  L 143.593421052632 69.5134854771784  L 143.407330827068 69.7002074688797  L 141.403759398496 73.3661825726142  L 141.217669172932 73.7334024896266  L 141.031578947368 73.7334024896266  L 140.845488721805 73.7334024896266  L 122.751315789474 77.0383817427386  L 122.56522556391 77.0383817427386  L 122.019360902256 77.0383817427386  L 122.019360902256 76.6711618257262  L 116.721992481203 70.9885892116183  L 118.365789473684 69.3392116182573  L 116.356015037594 66.588174273859  L 113.794172932331 64.7520746887967  L 113.614285714286 64.5715767634855  L 113.428195488722 64.5715767634855  L 113.428195488722 64.3910788381743  L 113.428195488722 64.2105809128631  L 112.516353383459 59.2624481327801  L 107.76484962406 59.6296680497926  L 107.40507518797 59.2624481327801  L 103.379323308271 56.8786307053942  L 88.9387218045112 54.3143153526971  L 76.873872180451 53.7603734439834  L 76.5078947368421 54.1275933609959  C 75.9558270676692 54.1275933609959  75.596052631579 53.9470954356846  75.4099624060152 53.5736514522822  L 68.4625939849625 37.8080912863071  C 67.7368421052632 36.5197095435685  64.809022556391 32.4865145228216  58.9595864661654 25.5217842323652  C 53.476127819549 18.73755186722  50.3684210526317 15.0715767634855  49.4565789473685 14.3371369294606  L 39.2216165413535 4.25414937759336  L 37.5778195488723 3.33298755186723  L 24.7872180451128 3.146265560166  L 24.6073308270677 3.146265560166  L 24.2413533834588 2.77904564315355  C 22.9635338345865 1.86410788381744  21.1336466165415 0.942946058091309  18.3919172932332 0.395228215767702  C 16.0161654135339 -0.525933609958486  10.5327067669175 1.31016597510376  1.94154135338363 5.89730290456436  L 1.57556390977459 6.07780082987557  L 1.94154135338363 8.64211618257264  L 2.12142857142874 8.64211618257264  L 2.12142857142874 8.82883817427387  L 1.94154135338363 8.82883817427387  L 1.94154135338363 9.19605809128632  L 0.477631578947467 12.1275933609958  L 0.477631578947467 12.3143153526971  L 0.29154135338365 12.3143153526971  L 0.11165413533854 14.3309128630706  C 0.11165413533854 15.9802904564315  0.477631578947467 17.8163900414938  1.02349624060162 19.2790456431536  L 2.30751879699278 20.1939834024896  L 5.04924812030094 20.0072614107884  L 7.42500000000029 20.554979253112  L 8.33684210526326 19.8205394190871  C 8.33684210526326 18.1711618257261  8.88890977443634 16.8890041493776  9.6146616541356 16.5217842323652  L 11.4445488721806 16.5217842323652  L 17.8398496240603 18.3578838174274  L 19.3037593984964 18.5383817427386  L 17.2939849624062 22.0238589211618  L 17.2939849624062 26.24377593361  C 17.2939849624062 27.1649377593361  18.9439849624061 29.3620331950207  22.2315789473686 32.4802904564315  C 24.241353383459 33.9491701244813  25.519172932331 34.6773858921162  26.6171052631581 34.8641078838174  L 27.5351503759401 34.6773858921162  L 28.4469924812033 34.3101659751038  L 31.5546992481206 31.191908713693  L 33.9304511278198 29.7230290456432  L 33.9304511278198 29.5363070539419  L 38.8618421052635 28.801867219917  L 40.3195488721808 25.6836099585062  L 44.7050751879704 23.1130705394191  L 48.5447368421057 25.3163900414938  L 48.5447368421057 25.496887966805  L 48.9107142857148 25.6836099585062  L 52.5704887218048 31.9139004149378  L 54.0281954887222 36.1338174273859  L 54.0281954887222 36.6877593360996  L 53.2962406015043 41.8226141078839  L 54.7601503759404 45.308091286307  L 54.7601503759404 45.8620331950208  L 53.668421052632 49.8952282157676  L 53.668421052632 53.5612033195021  C 54.7601503759404 56.8661825726141  55.3122180451131 59.0632780082988  55.3122180451131 59.6172199170124  L 54.9462406015042 62.7292531120332  L 54.9462406015042 62.9159751037345  L 53.1163533834591 65.4802904564315  L 53.1163533834591 65.6670124481328  L 51.2864661654139 67.8641078838175  L 51.1003759398501 71.8973029045644  L 52.1983082706772 76.1172199170125  L 52.3781954887221 76.2977178423237  L 52.1983082706772 76.4782157676349  L 51.1003759398501 82.8952282157676  L 50.1823308270681 83.8101659751038  C 49.4503759398501 84.3641078838174  48.5385338345868 84.3641078838174  47.4406015037598 83.8101659751038  L 47.0746240601508 83.8101659751038  L 45.4308270676696 81.9802904564315  L 43.6009398496245 82.5342323651453  L 41.2251879699252 85.0985477178423  L 38.663345864662 92.6172199170124  L 38.663345864662 92.8039419087137  L 38.4834586466169 92.9844398340249  L 35.9216165413538 95.1815352697096  L 35.5556390977447 95.1815352697096  L 34.0917293233086 95.3682572614108  L 31.1639097744364 99.588174273859  L 32.6278195488725 102.339211618257  L 32.9937969924815 102.70643153527  L 36.6473684210531 107.28734439834  L 36.6473684210531 107.474066390042  L 36.6473684210531 108.942946058091  L 40.6669172932335 109.490663900415  L 41.3988721804513 113.16286307054  L 41.3988721804513 113.343360995851  L 41.9447368421057 117.74377593361  L 43.0426691729326 118.658713692946  L 46.696240601504 117.557053941909  L 50.1699248120304 115.540456431535  L 50.7219924812033 115.173236514523  L 51.9998120300755 121.409751037344  L 53.6498120300754 123.79979253112  L 54.0157894736847 123.980290456432  L 55.2998120300756 126.550829875519  L 58.0415413533839 128.747925311203  C 58.4075187969928 129.301867219917  59.3193609022559 129.301867219917  60.2312030075192 129.301867219917  L 61.1430451127823 129.488589211618  L 62.7930451127824 128.754149377593  C 64.0708646616546 128.20643153527  65.3486842105267 127.652489626556  66.8125939849627 127.471991701245  L 67.9105263157899 126.918049792531  L 70.4661654135341 126.73132780083  C 71.3780075187974 126.73132780083  71.7439849624063 126.918049792531  72.2898496240605 127.465767634855  L 75.9496240601508 125.081950207469  L 76.3156015037598 125.081950207469  L 76.6815789473687 125.26867219917  L 76.8676691729326 125.081950207469  L 77.2336466165417 125.449170124481  C 78.6913533834589 127.098547717842  79.4233082706769 128.567427385892  79.4233082706769 129.301867219917  L 81.073308270677 132.052904564315  L 82.3511278195492 132.420124481328  L 82.5310150375941 132.420124481328  L 82.7171052631581 132.420124481328  L 82.3511278195492 132.052904564315  C 82.1650375939852 131.137966804979  82.1650375939852 130.584024896266  82.3511278195492 130.216804979253  C 82.7171052631581 129.662863070539  83.4490601503761 129.301867219917  84.5469924812032 129.301867219917  L 91.3082706766921 129.121369294606  L 91.4943609022559 128.940871369295  L 91.8603383458649 128.940871369295  L 91.8603383458649 129.308091286307  L 92.2263157894739 129.308091286307  L 94.2360902255641 133.160788381743  L 94.0500000000003 135.177385892116  L 93.8701127819551 135.177385892116  L 96.4257518796994 135.73132780083  L 96.6056390977445 135.73132780083  C 96.4257518796994 135.177385892116  96.4257518796994 134.810165975104  96.7855263157896 134.449170124481  L 97.6973684210527 134.26244813278  L 103.726691729323 138.482365145228  C 104.272556390978 139.036307053942  104.638533834587 139.764522821577  104.824624060151 140.679460580913  L 105.004511278196 143.25  L 107.020488721805 143.617219917012  L 108.298308270677 141.413900414938  C 107.746240601504 140.3122406639  107.386466165414 139.210580912863  107.566353383459 138.476141078838  C 107.746240601504 137.741701244813  107.932330827068 137.19398340249  108.658082706767 136.826763485477  L 109.21015037594 136.279045643154  C 109.21015037594 135.911825726141  109.396240601504 135.73132780083  109.756015037594 135.544605809129  L 111.399812030075 135.73132780083  C 112.311654135338 136.279045643154  113.049812030076 138.115145228216  113.409586466166 141.233402489627  L 113.409586466166 141.600622406639  L 113.775563909775 141.78734439834  C 113.961654135338 142.521784232365  115.053383458647 143.069502074689  116.703383458647 143.623443983402  L 116.883270676692 143.623443983402  L 117.069360902256 143.803941908714  L 122.918796992481 149.853734439834  L 125.66052631579 148.932572614108  L 125.294548872181 148.017634854772  C 124.562593984963 147.102697095436  124.376503759399 146.1877593361  124.376503759399 145.633817427386  C 124.376503759399 144.345435684647  125.294548872181 143.063278008299  127.118233082707 141.78112033195  L 130.225939849624 139.030082987552  L 133.879511278196 141.594398340249  L 134.611466165414 141.594398340249  L 135.343421052632 137.561203319502  L 135.343421052632 136.826763485477  L 136.07537593985 136.640041493776  L 139.003195488722 137.007261410788  C 139.555263157895 137.554979253112  139.915037593985 138.108921161826  139.915037593985 139.023858921162  C 139.915037593985 139.752074688797  139.369172932331 140.673236514523  138.817105263159 141.407676348548  L 139.369172932331 141.77489626556  C 141.192857142858 142.689834024896  142.656766917294 143.424273858921  143.754699248121 143.610995850622  L 143.940789473685 143.610995850622  L 146.316541353384 144.893153526971  L 148.146428571429 144.70643153527  L 145.404699248121 131.318464730291  C 143.581015037594 130.216804979253  141.931015037595 128.019709543569  140.287218045113 125.449170124481  C 139.009398496241 123.245850622407  139.73515037594 120.133817427386  142.662969924812 116.461618257261  C 144.306766917294 114.631742738589  146.316541353384 112.795643153527  148.512406015038 110.959543568465  L 148.698496240602 110.592323651452  L 151.254135338346 110.592323651452  L 151.44022556391 110.959543568465  L 153.629887218045 111.874481327801  L 158.201503759399 111.874481327801  C 160.031390977444 110.959543568465  161.675187969925 108.208506224066  163.498872180451 103.801867219917  Z " stroke-width="4" stroke="#00ccff" fill="none" stroke-opacity="0.498039215686275" transform="matrix(1 0 0 1 1158 225 )" mask="url(#clip221)" />
  </g>
</svg>