<?xml version="1.0" encoding="utf-8"?>
<svg version="1.1" xmlns:xlink="http://www.w3.org/1999/xlink" width="16px" height="14px" xmlns="http://www.w3.org/2000/svg">
  <defs>
    <mask fill="white" id="clip224">
      <path d="M 12.2215384615387 12.1769565217392  C 12.4000000000001 9.65695652173918  13.3107692307692 8.22043478260866  14.4000000000001 7.50217391304352  L 15.6676923076923 6.07173913043482  L 15.6676923076923 5.88913043478271  L 11.1323076923078 2.30391304347825  C 8.77538461538484 0.69086956521744  6.7815384615385 0.155217391304404  5.32923076923078 0.331739130434812  L 3.33538461538467 1.05000000000007  L 3.33538461538467 4.81782608695653  C 2.97230769230782 6.07782608695663  2.43076923076922 7.50826086956522  1.16307692307703 8.5856521739131  L 0.436923076923108 9.30391304347825  L 2.2461538461539 11.4586956521739  L 2.43076923076922 11.4586956521739  L 2.97230769230782 12.8952173913044  L 5.15076923076936 13.7900000000001  C 6.41846153846154 12.8952173913044  7.32307692307711 12.5360869565218  8.22769230769234 12.7126086956522  L 12.0369230769231 13.4308695652174  L 12.2215384615387 12.1769565217392  Z " fill-rule="evenodd" />
    </mask>
  </defs>
  <g transform="matrix(1 0 0 1 -1217 -596 )">
    <path d="M 12.2215384615387 12.1769565217392  C 12.4000000000001 9.65695652173918  13.3107692307692 8.22043478260866  14.4000000000001 7.50217391304352  L 15.6676923076923 6.07173913043482  L 15.6676923076923 5.88913043478271  L 11.1323076923078 2.30391304347825  C 8.77538461538484 0.69086956521744  6.7815384615385 0.155217391304404  5.32923076923078 0.331739130434812  L 3.33538461538467 1.05000000000007  L 3.33538461538467 4.81782608695653  C 2.97230769230782 6.07782608695663  2.43076923076922 7.50826086956522  1.16307692307703 8.5856521739131  L 0.436923076923108 9.30391304347825  L 2.2461538461539 11.4586956521739  L 2.43076923076922 11.4586956521739  L 2.97230769230782 12.8952173913044  L 5.15076923076936 13.7900000000001  C 6.41846153846154 12.8952173913044  7.32307692307711 12.5360869565218  8.22769230769234 12.7126086956522  L 12.0369230769231 13.4308695652174  L 12.2215384615387 12.1769565217392  Z " fill-rule="nonzero" fill="#00ccff" stroke="none" fill-opacity="0.298039215686275" transform="matrix(1 0 0 1 1217 596 )" />
    <path d="M 12.2215384615387 12.1769565217392  C 12.4000000000001 9.65695652173918  13.3107692307692 8.22043478260866  14.4000000000001 7.50217391304352  L 15.6676923076923 6.07173913043482  L 15.6676923076923 5.88913043478271  L 11.1323076923078 2.30391304347825  C 8.77538461538484 0.69086956521744  6.7815384615385 0.155217391304404  5.32923076923078 0.331739130434812  L 3.33538461538467 1.05000000000007  L 3.33538461538467 4.81782608695653  C 2.97230769230782 6.07782608695663  2.43076923076922 7.50826086956522  1.16307692307703 8.5856521739131  L 0.436923076923108 9.30391304347825  L 2.2461538461539 11.4586956521739  L 2.43076923076922 11.4586956521739  L 2.97230769230782 12.8952173913044  L 5.15076923076936 13.7900000000001  C 6.41846153846154 12.8952173913044  7.32307692307711 12.5360869565218  8.22769230769234 12.7126086956522  L 12.0369230769231 13.4308695652174  L 12.2215384615387 12.1769565217392  Z " stroke-width="4" stroke="#00ccff" fill="none" stroke-opacity="0.498039215686275" transform="matrix(1 0 0 1 1217 596 )" mask="url(#clip224)" />
  </g>
</svg>