<?xml version="1.0" encoding="utf-8"?>
<svg version="1.1" xmlns:xlink="http://www.w3.org/1999/xlink" width="38px" height="32px" xmlns="http://www.w3.org/2000/svg">
  <defs>
    <mask fill="white" id="clip230">
      <path d="M 17.1126666666667 4  L 17.1126666666667 3.38769230769242  L 16.5553333333334 4.29230769230765  L 16.5553333333334 4.47692307692296  L 16.3653333333333 4.83999999999992  L 8.71466666666674 6.65538461538461  L 9.08833333333337 7.56000000000006  L 11.5140000000001 10.2800000000001  C 11.3303333333334 10.2800000000001  10.9503333333334 10.4646153846154  10.7666666666668 10.4646153846154  L 7.2263333333334 12.2738461538461  L 1.62766666666664 16.4461538461538  C -0.234333333333325 18.6246153846155  0.139333333333298 22.6123076923076  2.93866666666668 28.5938461538462  L 8.53733333333344 29.1353846153846  L 8.72100000000012 29.1353846153846  L 8.72100000000012 29.3138461538462  L 14.3196666666666 31.8553846153845  L 20.2920000000001 30.9507692307693  C 22.7176666666668 30.4092307692307  25.5169999999999 28.2307692307693  29.0636666666667 24.0584615384614  L 29.2536666666667 24.0584615384614  L 29.6273333333335 23.6953846153845  L 32.2366666666668 22.9692307692308  L 31.4893333333334 15.3569230769231  L 31.4893333333334 14.9938461538461  L 34.8460000000001 10.2800000000001  L 34.8460000000001 10.1015384615384  L 35.0296666666668 10.1015384615384  L 37.6453333333333 8.10769230769233  C 38.019 5.9292307692308  37.829 3.93538461538469  36.8980000000001 2.30461538461532  C 36.1506666666668 0.858461538461484  35.2196666666667 0.31076923076921  34.2886666666668 0.31076923076921  L 34.6623333333334 3.03076923076924  L 29.6273333333335 2.12615384615367  L 27.3916666666668 3.39384615384608  L 27.2080000000001 3.39384615384608  L 27.2080000000001 4  L 17.1126666666667 4  Z " fill-rule="evenodd" />
    </mask>
  </defs>
  <g transform="matrix(1 0 0 1 -1044 -810 )">
    <path d="M 17.1126666666667 4  L 17.1126666666667 3.38769230769242  L 16.5553333333334 4.29230769230765  L 16.5553333333334 4.47692307692296  L 16.3653333333333 4.83999999999992  L 8.71466666666674 6.65538461538461  L 9.08833333333337 7.56000000000006  L 11.5140000000001 10.2800000000001  C 11.3303333333334 10.2800000000001  10.9503333333334 10.4646153846154  10.7666666666668 10.4646153846154  L 7.2263333333334 12.2738461538461  L 1.62766666666664 16.4461538461538  C -0.234333333333325 18.6246153846155  0.139333333333298 22.6123076923076  2.93866666666668 28.5938461538462  L 8.53733333333344 29.1353846153846  L 8.72100000000012 29.1353846153846  L 8.72100000000012 29.3138461538462  L 14.3196666666666 31.8553846153845  L 20.2920000000001 30.9507692307693  C 22.7176666666668 30.4092307692307  25.5169999999999 28.2307692307693  29.0636666666667 24.0584615384614  L 29.2536666666667 24.0584615384614  L 29.6273333333335 23.6953846153845  L 32.2366666666668 22.9692307692308  L 31.4893333333334 15.3569230769231  L 31.4893333333334 14.9938461538461  L 34.8460000000001 10.2800000000001  L 34.8460000000001 10.1015384615384  L 35.0296666666668 10.1015384615384  L 37.6453333333333 8.10769230769233  C 38.019 5.9292307692308  37.829 3.93538461538469  36.8980000000001 2.30461538461532  C 36.1506666666668 0.858461538461484  35.2196666666667 0.31076923076921  34.2886666666668 0.31076923076921  L 34.6623333333334 3.03076923076924  L 29.6273333333335 2.12615384615367  L 27.3916666666668 3.39384615384608  L 27.2080000000001 3.39384615384608  L 27.2080000000001 4  L 17.1126666666667 4  Z " fill-rule="nonzero" fill="#00ccff" stroke="none" fill-opacity="0.298039215686275" transform="matrix(1 0 0 1 1044 810 )" />
    <path d="M 17.1126666666667 4  L 17.1126666666667 3.38769230769242  L 16.5553333333334 4.29230769230765  L 16.5553333333334 4.47692307692296  L 16.3653333333333 4.83999999999992  L 8.71466666666674 6.65538461538461  L 9.08833333333337 7.56000000000006  L 11.5140000000001 10.2800000000001  C 11.3303333333334 10.2800000000001  10.9503333333334 10.4646153846154  10.7666666666668 10.4646153846154  L 7.2263333333334 12.2738461538461  L 1.62766666666664 16.4461538461538  C -0.234333333333325 18.6246153846155  0.139333333333298 22.6123076923076  2.93866666666668 28.5938461538462  L 8.53733333333344 29.1353846153846  L 8.72100000000012 29.1353846153846  L 8.72100000000012 29.3138461538462  L 14.3196666666666 31.8553846153845  L 20.2920000000001 30.9507692307693  C 22.7176666666668 30.4092307692307  25.5169999999999 28.2307692307693  29.0636666666667 24.0584615384614  L 29.2536666666667 24.0584615384614  L 29.6273333333335 23.6953846153845  L 32.2366666666668 22.9692307692308  L 31.4893333333334 15.3569230769231  L 31.4893333333334 14.9938461538461  L 34.8460000000001 10.2800000000001  L 34.8460000000001 10.1015384615384  L 35.0296666666668 10.1015384615384  L 37.6453333333333 8.10769230769233  C 38.019 5.9292307692308  37.829 3.93538461538469  36.8980000000001 2.30461538461532  C 36.1506666666668 0.858461538461484  35.2196666666667 0.31076923076921  34.2886666666668 0.31076923076921  L 34.6623333333334 3.03076923076924  L 29.6273333333335 2.12615384615367  L 27.3916666666668 3.39384615384608  L 27.2080000000001 3.39384615384608  L 27.2080000000001 4  L 17.1126666666667 4  Z " stroke-width="4" stroke="#00ccff" fill="none" stroke-opacity="0.498039215686275" transform="matrix(1 0 0 1 1044 810 )" mask="url(#clip230)" />
  </g>
</svg>