<?xml version="1.0" encoding="utf-8"?>
<svg version="1.1" xmlns:xlink="http://www.w3.org/1999/xlink" width="71px" height="31px" xmlns="http://www.w3.org/2000/svg">
  <g transform="matrix(1 0 0 1 -1048 -449 )">
    <path d="M 1048 468.1  C 1048 468.1  1048 453  1048 453  C 1048 450.790861000677  1049.79086100068 449  1052 449  C 1052 449  1115 449  1115 449  C 1117.20913899932 449  1119 450.790861000677  1119 453  C 1119 453  1119 468.1  1119 468.1  C 1119 470.309138999323  1117.20913899932 472.1  1115 472.1  C 1115 472.1  1090.34222846442 472.1  1090.34222846442 472.1  C 1090.34222846442 472.1  1082.45224719101 479.25  1082.45224719101 479.25  C 1082.45224719101 479.25  1074.84222846442 472.1  1074.84222846442 472.1  C 1074.84222846442 472.1  1052 472.1  1052 472.1  C 1049.79086100068 472.1  1048 470.309138999323  1048 468.1  Z " fill-rule="nonzero" fill="#dd4637" stroke="none" />
  </g>
</svg>