<?xml version="1.0" encoding="utf-8"?>
<svg version="1.1" xmlns:xlink="http://www.w3.org/1999/xlink" width="86px" height="85px" xmlns="http://www.w3.org/2000/svg">
  <defs>
    <mask fill="white" id="clip227">
      <path d="M 19.0072463768115 28.409375  L 19.0072463768115 28.428125  L 18.8202898550724 28.428125  L 4.86710144927542 34.140625  L 0.641884057971083 38.190625  C -0.0872463768114358 44.446875  0.641884057971083 48.134375  2.84797101449271 49.240625  L 6.88623188405802 51.815625  L 7.06695652173914 51.815625  L 7.06695652173914 52.003125  L 8.17000000000007 58.815625  C 11.6536231884057 63.4218749999999  14.0466666666667 65.815625  15.3304347826087 66.365625  L 19.3686956521739 67.284375  L 19.9233333333333 67.4656249999999  L 19.9233333333333 67.6531249999999  C 20.4717391304348 68.3843749999999  21.7617391304349 69.1218749999999  24.1423188405798 69.8593749999999  L 35.1602898550724 70.4156249999999  C 43.2430434782609 70.4156249999999  47.8297101449275 70.9656249999999  48.7457971014493 71.890625  C 49.668115942029 72.6218749999998  49.84884057971 74.4656249999999  49.668115942029 77.228125  C 49.4873913043479 79.0718749999999  49.668115942029 80.1781249999999  49.84884057971 80.3593749999999  L 53.8933333333332 79.4343749999998  C 57.0155072463767 78.3281249999999  58.8476811594203 78.3281249999999  59.7699999999999 79.253125  L 61.2407246376811 81.096875  C 63.4405797101448 83.8593749999999  64.911304347826 84.9593749999999  65.2789855072464 84.7781249999998  C 66.3820289855071 84.4093749999998  67.6657971014491 83.3031249999999  68.9495652173913 81.465625  L 69.3172463768116 80.909375  L 72.6201449275361 82.934375  L 74.6392753623188 81.278125  C 75.1939130434782 78.696875  76.4714492753621 77.409375  78.677536231884 77.221875  L 79.5936231884057 76.859375  L 79.2259420289854 76.1218749999999  L 78.858260869565 75.753125  L 79.0389855072463 75.565625  L 79.2259420289854 70.965625  C 77.7552173913041 68.753125  75.9230434782608 68.0156249999999  73.9039130434782 68.384375  C 71.8847826086954 68.940625  70.4140579710144 68.940625  69.8594202898549 68.203125  C 69.4979710144926 67.653125  69.4979710144926 67.284375  69.4979710144926 66.546875  C 68.2079710144925 64.334375  66.9304347826086 62.496875  65.2727536231882 60.840625  C 63.0728985507245 59.003125  62.518260869565 57.3406249999999  63.0728985507245 55.6843749999999  L 63.4405797101448 55.1343750000001  L 68.581884057971 56.053125  L 68.2142028985506 52.9218750000001  C 68.0334782608695 51.078125  68.2142028985506 49.790625  69.1302898550723 48.871875  C 69.4979710144926 48.134375  70.4140579710144 47.765625  71.330144927536 47.578125  L 73.53 46.840625  L 73.53 45.921875  C 71.8785507246375 42.421875  71.330144927536 39.840625  72.0592753623187 38.740625  L 73.1623188405796 37.821875  C 73.716956521739 37.634375  75.5491304347825 38.003125  78.1166666666666 38.921875  L 78.3036231884056 39.109375  L 78.3036231884056 39.478125  C 80.3227536231884 41.8718749999999  81.4257971014491 43.3468750000001  81.9742028985506 43.7156249999999  L 85.4640579710143 38.003125  C 82.3418840579709 34.134375  80.6904347826087 31.3718749999999  80.1420289855072 30.265625  L 77.387536231884 32.109375  L 77.0198550724638 31.7406249999999  L 69.6786956521738 29.896875  L 69.4917391304347 29.896875  L 69.4917391304347 29.709375  C 66.3695652173913 28.234375  64.5373913043478 26.578125  64.3504347826087 24.921875  L 59.9444927536231 22.896875  L 59.9444927536231 18.659375  L 68.0210144927536 13.871875  C 67.6533333333333 11.665625  67.0986956521739 9.453125  66.18884057971 7.60937500000011  L 64.9050724637681 5.03437500000007  L 59.3960869565216 5.58437500000002  C 56.8223188405796 6.68437499999993  54.4355072463768 7.24062500000002  52.0549275362319 7.24062500000002  L 46.3589855072462 5.95312500000011  L 46.3589855072462 3.921875  L 45.4428985507246 3.74062500000002  L 43.7914492753622 3.19062499999995  L 43.4237681159419 2.08437500000002  L 43.4237681159419 1.89687500000002  L 43.2430434782609 1.34687499999995  L 43.2430434782609 1.15937500000007  L 43.2430434782609 0.609375  L 42.8753623188406 0.790624999999977  L 42.50768115942 5.58437500000002  L 42.3207246376811 7.24062500000002  C 41.9530434782608 8.15937500000007  41.5853623188406 8.71562500000005  41.9530434782608 9.07812500000011  C 42.8753623188406 10.365625  42.6884057971013 11.840625  41.7660869565217 13.1281250000001  L 42.5014492753621 16.259375  L 42.314492753623 16.4406250000001  L 41.9468115942027 16.6281250000001  L 39.746956521739 18.653125  L 39.746956521739 22.890625  L 39.1923188405796 23.071875  C 35.1540579710145 24.915625  32.3995652173913 25.8343749999999  30.7481159420289 25.8343749999999  L 22.6715942028985 25.2781249999999  L 19.1879710144927 28.409375  L 19.0072463768115 28.409375  Z " fill-rule="evenodd" />
    </mask>
  </defs>
  <g transform="matrix(1 0 0 1 -1063 -526 )">
    <path d="M 19.0072463768115 28.409375  L 19.0072463768115 28.428125  L 18.8202898550724 28.428125  L 4.86710144927542 34.140625  L 0.641884057971083 38.190625  C -0.0872463768114358 44.446875  0.641884057971083 48.134375  2.84797101449271 49.240625  L 6.88623188405802 51.815625  L 7.06695652173914 51.815625  L 7.06695652173914 52.003125  L 8.17000000000007 58.815625  C 11.6536231884057 63.4218749999999  14.0466666666667 65.815625  15.3304347826087 66.365625  L 19.3686956521739 67.284375  L 19.9233333333333 67.4656249999999  L 19.9233333333333 67.6531249999999  C 20.4717391304348 68.3843749999999  21.7617391304349 69.1218749999999  24.1423188405798 69.8593749999999  L 35.1602898550724 70.4156249999999  C 43.2430434782609 70.4156249999999  47.8297101449275 70.9656249999999  48.7457971014493 71.890625  C 49.668115942029 72.6218749999998  49.84884057971 74.4656249999999  49.668115942029 77.228125  C 49.4873913043479 79.0718749999999  49.668115942029 80.1781249999999  49.84884057971 80.3593749999999  L 53.8933333333332 79.4343749999998  C 57.0155072463767 78.3281249999999  58.8476811594203 78.3281249999999  59.7699999999999 79.253125  L 61.2407246376811 81.096875  C 63.4405797101448 83.8593749999999  64.911304347826 84.9593749999999  65.2789855072464 84.7781249999998  C 66.3820289855071 84.4093749999998  67.6657971014491 83.3031249999999  68.9495652173913 81.465625  L 69.3172463768116 80.909375  L 72.6201449275361 82.934375  L 74.6392753623188 81.278125  C 75.1939130434782 78.696875  76.4714492753621 77.409375  78.677536231884 77.221875  L 79.5936231884057 76.859375  L 79.2259420289854 76.1218749999999  L 78.858260869565 75.753125  L 79.0389855072463 75.565625  L 79.2259420289854 70.965625  C 77.7552173913041 68.753125  75.9230434782608 68.0156249999999  73.9039130434782 68.384375  C 71.8847826086954 68.940625  70.4140579710144 68.940625  69.8594202898549 68.203125  C 69.4979710144926 67.653125  69.4979710144926 67.284375  69.4979710144926 66.546875  C 68.2079710144925 64.334375  66.9304347826086 62.496875  65.2727536231882 60.840625  C 63.0728985507245 59.003125  62.518260869565 57.3406249999999  63.0728985507245 55.6843749999999  L 63.4405797101448 55.1343750000001  L 68.581884057971 56.053125  L 68.2142028985506 52.9218750000001  C 68.0334782608695 51.078125  68.2142028985506 49.790625  69.1302898550723 48.871875  C 69.4979710144926 48.134375  70.4140579710144 47.765625  71.330144927536 47.578125  L 73.53 46.840625  L 73.53 45.921875  C 71.8785507246375 42.421875  71.330144927536 39.840625  72.0592753623187 38.740625  L 73.1623188405796 37.821875  C 73.716956521739 37.634375  75.5491304347825 38.003125  78.1166666666666 38.921875  L 78.3036231884056 39.109375  L 78.3036231884056 39.478125  C 80.3227536231884 41.8718749999999  81.4257971014491 43.3468750000001  81.9742028985506 43.7156249999999  L 85.4640579710143 38.003125  C 82.3418840579709 34.134375  80.6904347826087 31.3718749999999  80.1420289855072 30.265625  L 77.387536231884 32.109375  L 77.0198550724638 31.7406249999999  L 69.6786956521738 29.896875  L 69.4917391304347 29.896875  L 69.4917391304347 29.709375  C 66.3695652173913 28.234375  64.5373913043478 26.578125  64.3504347826087 24.921875  L 59.9444927536231 22.896875  L 59.9444927536231 18.659375  L 68.0210144927536 13.871875  C 67.6533333333333 11.665625  67.0986956521739 9.453125  66.18884057971 7.60937500000011  L 64.9050724637681 5.03437500000007  L 59.3960869565216 5.58437500000002  C 56.8223188405796 6.68437499999993  54.4355072463768 7.24062500000002  52.0549275362319 7.24062500000002  L 46.3589855072462 5.95312500000011  L 46.3589855072462 3.921875  L 45.4428985507246 3.74062500000002  L 43.7914492753622 3.19062499999995  L 43.4237681159419 2.08437500000002  L 43.4237681159419 1.89687500000002  L 43.2430434782609 1.34687499999995  L 43.2430434782609 1.15937500000007  L 43.2430434782609 0.609375  L 42.8753623188406 0.790624999999977  L 42.50768115942 5.58437500000002  L 42.3207246376811 7.24062500000002  C 41.9530434782608 8.15937500000007  41.5853623188406 8.71562500000005  41.9530434782608 9.07812500000011  C 42.8753623188406 10.365625  42.6884057971013 11.840625  41.7660869565217 13.1281250000001  L 42.5014492753621 16.259375  L 42.314492753623 16.4406250000001  L 41.9468115942027 16.6281250000001  L 39.746956521739 18.653125  L 39.746956521739 22.890625  L 39.1923188405796 23.071875  C 35.1540579710145 24.915625  32.3995652173913 25.8343749999999  30.7481159420289 25.8343749999999  L 22.6715942028985 25.2781249999999  L 19.1879710144927 28.409375  L 19.0072463768115 28.409375  Z " fill-rule="nonzero" fill="#00ccff" stroke="none" fill-opacity="0.498039215686275" transform="matrix(1 0 0 1 1063 526 )" />
    <path d="M 19.0072463768115 28.409375  L 19.0072463768115 28.428125  L 18.8202898550724 28.428125  L 4.86710144927542 34.140625  L 0.641884057971083 38.190625  C -0.0872463768114358 44.446875  0.641884057971083 48.134375  2.84797101449271 49.240625  L 6.88623188405802 51.815625  L 7.06695652173914 51.815625  L 7.06695652173914 52.003125  L 8.17000000000007 58.815625  C 11.6536231884057 63.4218749999999  14.0466666666667 65.815625  15.3304347826087 66.365625  L 19.3686956521739 67.284375  L 19.9233333333333 67.4656249999999  L 19.9233333333333 67.6531249999999  C 20.4717391304348 68.3843749999999  21.7617391304349 69.1218749999999  24.1423188405798 69.8593749999999  L 35.1602898550724 70.4156249999999  C 43.2430434782609 70.4156249999999  47.8297101449275 70.9656249999999  48.7457971014493 71.890625  C 49.668115942029 72.6218749999998  49.84884057971 74.4656249999999  49.668115942029 77.228125  C 49.4873913043479 79.0718749999999  49.668115942029 80.1781249999999  49.84884057971 80.3593749999999  L 53.8933333333332 79.4343749999998  C 57.0155072463767 78.3281249999999  58.8476811594203 78.3281249999999  59.7699999999999 79.253125  L 61.2407246376811 81.096875  C 63.4405797101448 83.8593749999999  64.911304347826 84.9593749999999  65.2789855072464 84.7781249999998  C 66.3820289855071 84.4093749999998  67.6657971014491 83.3031249999999  68.9495652173913 81.465625  L 69.3172463768116 80.909375  L 72.6201449275361 82.934375  L 74.6392753623188 81.278125  C 75.1939130434782 78.696875  76.4714492753621 77.409375  78.677536231884 77.221875  L 79.5936231884057 76.859375  L 79.2259420289854 76.1218749999999  L 78.858260869565 75.753125  L 79.0389855072463 75.565625  L 79.2259420289854 70.965625  C 77.7552173913041 68.753125  75.9230434782608 68.0156249999999  73.9039130434782 68.384375  C 71.8847826086954 68.940625  70.4140579710144 68.940625  69.8594202898549 68.203125  C 69.4979710144926 67.653125  69.4979710144926 67.284375  69.4979710144926 66.546875  C 68.2079710144925 64.334375  66.9304347826086 62.496875  65.2727536231882 60.840625  C 63.0728985507245 59.003125  62.518260869565 57.3406249999999  63.0728985507245 55.6843749999999  L 63.4405797101448 55.1343750000001  L 68.581884057971 56.053125  L 68.2142028985506 52.9218750000001  C 68.0334782608695 51.078125  68.2142028985506 49.790625  69.1302898550723 48.871875  C 69.4979710144926 48.134375  70.4140579710144 47.765625  71.330144927536 47.578125  L 73.53 46.840625  L 73.53 45.921875  C 71.8785507246375 42.421875  71.330144927536 39.840625  72.0592753623187 38.740625  L 73.1623188405796 37.821875  C 73.716956521739 37.634375  75.5491304347825 38.003125  78.1166666666666 38.921875  L 78.3036231884056 39.109375  L 78.3036231884056 39.478125  C 80.3227536231884 41.8718749999999  81.4257971014491 43.3468750000001  81.9742028985506 43.7156249999999  L 85.4640579710143 38.003125  C 82.3418840579709 34.134375  80.6904347826087 31.3718749999999  80.1420289855072 30.265625  L 77.387536231884 32.109375  L 77.0198550724638 31.7406249999999  L 69.6786956521738 29.896875  L 69.4917391304347 29.896875  L 69.4917391304347 29.709375  C 66.3695652173913 28.234375  64.5373913043478 26.578125  64.3504347826087 24.921875  L 59.9444927536231 22.896875  L 59.9444927536231 18.659375  L 68.0210144927536 13.871875  C 67.6533333333333 11.665625  67.0986956521739 9.453125  66.18884057971 7.60937500000011  L 64.9050724637681 5.03437500000007  L 59.3960869565216 5.58437500000002  C 56.8223188405796 6.68437499999993  54.4355072463768 7.24062500000002  52.0549275362319 7.24062500000002  L 46.3589855072462 5.95312500000011  L 46.3589855072462 3.921875  L 45.4428985507246 3.74062500000002  L 43.7914492753622 3.19062499999995  L 43.4237681159419 2.08437500000002  L 43.4237681159419 1.89687500000002  L 43.2430434782609 1.34687499999995  L 43.2430434782609 1.15937500000007  L 43.2430434782609 0.609375  L 42.8753623188406 0.790624999999977  L 42.50768115942 5.58437500000002  L 42.3207246376811 7.24062500000002  C 41.9530434782608 8.15937500000007  41.5853623188406 8.71562500000005  41.9530434782608 9.07812500000011  C 42.8753623188406 10.365625  42.6884057971013 11.840625  41.7660869565217 13.1281250000001  L 42.5014492753621 16.259375  L 42.314492753623 16.4406250000001  L 41.9468115942027 16.6281250000001  L 39.746956521739 18.653125  L 39.746956521739 22.890625  L 39.1923188405796 23.071875  C 35.1540579710145 24.915625  32.3995652173913 25.8343749999999  30.7481159420289 25.8343749999999  L 22.6715942028985 25.2781249999999  L 19.1879710144927 28.409375  L 19.0072463768115 28.409375  Z " stroke-width="4" stroke="#00ccff" fill="none" stroke-opacity="0.498039215686275" transform="matrix(1 0 0 1 1063 526 )" mask="url(#clip227)" />
  </g>
</svg>