<?xml version="1.0" encoding="utf-8"?>
<svg version="1.1" xmlns:xlink="http://www.w3.org/1999/xlink" width="209px" height="178px" xmlns="http://www.w3.org/2000/svg">
  <defs>
    <mask fill="white" id="clip478">
      <path d="M 130.164702380952 66.8091258741263  L 124.118630952381 64.6121328671329  L 121.182678571428 64.6121328671329  L 120.268303571429 66.6286363636365  L 121.916666666667 68.2779370629371  L 121.916666666667 68.4584265734267  L 121.916666666667 68.6451398601398  L 122.650654761905 71.0288461538462  L 122.831041666667 71.2155594405596  L 122.831041666667 71.7632517482518  L 122.464047619047 71.9499650349651  L 118.433333333333 73.9664685314685  L 118.246726190476 74.1531818181818  L 118.066339285714 74.1531818181818  L 117.885952380952 74.1531818181818  C 114.769613095238 73.7859790209791  113.12125 72.871083916084  112.573869047619 71.5827622377623  L 111.472886904762 69.3857692307693  L 105.974196428571 68.2841608391609  L 104.506220238095 61.3135314685316  C 103.411458333333 61.1268181818183  102.490863095238 60.5791258741259  101.943482142857 59.8447202797204  L 101.756875 59.4775174825176  C 100.8425 58.1954195804196  100.108511904762 57.4610139860141  99.0075297619048 57.2805244755247  C 97.5457738095238 56.7328321678323  96.2581845238094 55.6312237762239  95.1572023809523 53.9819230769232  L 92.9614583333333 52.6936013986015  L 92.7748511904762 52.6936013986015  L 89.8388988095238 49.7559790209791  L 89.1049107142858 47.1917832167834  L 89.1049107142858 47.00506993007  L 94.9705952380953 38.9328321678322  C 95.1572023809523 38.3851398601399  95.3375892857143 38.0179370629371  95.1572023809523 37.8312237762239  L 94.0562202380952 35.267027972028  L 90.9398809523809 36.5491258741259  L 90.7532738095238 36.5491258741259  L 90.7532738095238 36.7296153846155  L 90.572886904762 36.7296153846155  L 82.5114583333333 37.2835314685316  L 79.3951190476191 38.0179370629371  L 78.2941369047619 39.1195454545455  L 77.7405357142857 40.2211538461539  C 77.0065476190476 41.136048951049  75.9117857142858 41.6837412587413  74.2572023809523 41.3165384615385  L 74.0768154761905 41.136048951049  L 71.3274702380953 39.1195454545455  L 71.1470833333333 34.5326223776224  C 69.6791071428572 33.431013986014  68.7647321428572 32.3294055944056  68.3977380952382 31.4145104895106  L 67.6637500000002 27.3815034965035  L 65.8287797619048 25.1845104895106  L 63.8134226190477 23.5352097902098  L 62.8928273809524 22.9812937062937  L 66.1895535714287 18.7615734265736  L 66.9235416666667 16.3778671328673  L 63.2536011904763 11.7971678321679  L 63.0732142857144 11.7971678321679  L 63.0732142857144 11.6104545454546  L 61.4248511904763 7.93842657342668  L 61.4248511904763 7.75793706293712  L 61.0578571428573 5.92192307692312  L 58.6692857142859 4.09213286713293  L 58.6692857142859 3.90541958041968  L 56.1065476190478 1.15451048951059  L 52.8098214285715 0.606818181818312  L 49.1461011904764 1.70842657342666  L 48.5987202380954 2.44283216783231  L 48.0513392857144 7.57744755244767  L 48.0513392857144 13.2659790209791  L 47.4977380952383 13.4464685314686  L 44.0144047619049 14.7347902097904  L 44.0144047619049 14.9152797202798  L 40.7176785714287 15.1019930069931  C 39.0693154761906 16.0168881118883  37.2343452380953 16.9317832167833  35.2189880952382 17.6661888111889  L 34.8519940476192 17.8529020979022  L 34.6716071428573 17.8529020979022  L 28.4389285714288 16.384090909091  L 25.8761904761906 19.1350000000001  C 25.3288095238097 19.8694055944057  24.0474404761906 20.6038111888114  22.3990773809526 20.9710139860141  L 18.5487500000002 24.089125874126  L 16.533392857143 27.2072377622379  L 16.533392857143 27.3877272727274  L 16.3530059523811 27.5682167832169  C 15.252023809524 29.2237412587414  14.337648809524 30.5058391608393  13.6036607142858 31.0535314685317  L 11.4079166666668 33.8044405594407  L 11.4079166666668 33.9849300699302  L 11.2213095238096 34.1654195804198  L 9.93994047619066 35.0803146853149  C 9.01934523809541 35.4475174825177  8.1049702380954 35.634230769231  7.37098214285732 35.634230769231  L 2.78666666666675 35.2670279720281  L 1.68568452380964 36.9163286713288  L 0.0373214285716017 39.8539510489512  L 0.771309523809691 42.7853496503499  L 0.404315476190675 49.9364685314688  L 1.68568452380975 52.1396853146855  L 1.68568452380975 52.3201748251751  L 2.23928571428593 53.9756993006995  L 4.80202380952397 53.9756993006995  L 9.19973214285733 54.8905944055947  L 14.8788095238098 55.2577972027974  L 17.4415476190478 54.8905944055947  L 17.8085416666668 54.8905944055947  L 17.9889285714287 54.8905944055947  L 22.934017857143 56.7266083916087  L 23.1206250000002 56.7266083916087  L 25.6833630952382 58.7431118881121  L 31.1820535714288 60.7596153846156  L 31.3686607142859 60.7596153846156  L 35.0323809523812 62.9628321678324  L 44.014404761905 71.2155594405597  L 48.0451190476192 73.0453496503499  L 49.6934821428573 72.317167832168  L 51.3418452380954 69.1990559440562  L 50.4274702380954 64.2449300699303  C 50.4274702380954 62.7823426573428  51.5284523809526 61.861223776224  53.7241964285716 60.946328671329  L 54.0911904761905 60.7596153846156  L 65.287619047619 67.363041958042  L 66.5689880952381 66.9958391608392  L 69.1379464285714 65.527027972028  L 69.5049404761905 65.527027972028  L 70.9729166666667 65.7075174825175  L 73.1686607142858 63.8715034965036  L 73.5356547619048 63.6910139860141  L 74.0830357142857 64.0582167832168  L 80.6764880952381 68.6451398601398  L 80.8630952380953 68.8256293706294  L 85.0804166666666 72.3109440559441  C 86.1751785714285 73.0391258741261  87.6431547619047 74.3274475524477  88.9245238095237 76.1634615384617  L 90.9398809523809 78.3666783216784  L 92.588244047619 78.1799650349651  L 94.4232142857143 74.6946503496504  L 98.2735416666666 77.4455594405596  L 98.4601488095239 77.4455594405596  L 98.6405357142858 77.4455594405596  L 101.756875 81.2918531468532  L 110.004910714286 87.5280769230769  L 112.387261904762 90.2789860139861  L 119.540535714286 88.2562587412589  L 119.901309523809 93.5775874125875  L 123.017648809524 96.6956993006994  L 123.017648809524 96.8761888111889  L 125.580386904762 100.728706293706  L 125.580386904762 100.909195804196  L 125.580386904762 101.089685314685  L 125.580386904762 101.276398601399  L 128.329732142857 113.923111888112  L 131.079077380952 119.063951048951  L 127.409136904762 128.412062937063  L 127.409136904762 128.978426573427  L 124.292797619048 129.712832167832  L 124.292797619048 132.463741258741  L 124.112410714286 132.644230769231  L 120.996071428571 137.778846153846  L 120.629077380952 137.778846153846  L 116.231369047619 138.146048951049  L 111.833660714286 141.811853146853  C 112.387261904762 142.365769230769  113.12125 142.726748251748  114.396398809524 143.280664335664  C 116.231369047619 143.83458041958  116.411755952381 145.297167832168  115.497380952381 147.861363636364  L 115.497380952381 148.048076923077  L 112.381041666667 151.166188811189  L 112.200654761905 151.166188811189  L 112.014047619048 151.533391608392  L 111.827440476191 151.533391608392  L 111.647053571428 151.533391608392  L 102.851636904762 150.251293706294  L 102.67125 153.369405594406  L 103.585625 159.972832167832  L 110.91306547619 163.090944055944  L 110.91306547619 163.458146853147  L 113.662410714286 162.543251748252  L 113.849017857143 162.362762237762  L 114.216011904762 162.182272727273  L 114.396398809524 162.549475524476  L 114.576785714286 162.549475524476  L 116.592142857143 163.651083916084  L 119.708482142857 163.651083916084  L 120.809464285714 163.464370629371  L 119.708482142857 159.979055944056  L 118.974494047619 156.307027972028  L 118.974494047619 156.126538461539  L 118.974494047619 155.759335664336  L 119.154880952381 155.572622377622  L 119.154880952381 155.392132867133  L 120.255863095238 154.110034965035  L 120.622857142857 153.742832167832  L 120.803244047619 153.562342657343  L 122.818601190476 150.811433566434  L 123.005208333333 150.62472027972  L 126.301934523809 148.060524475525  L 126.482321428571 148.060524475525  L 126.482321428571 147.873811188811  L 126.668928571428 147.873811188811  L 130.699642857143 147.326118881119  L 130.699642857143 148.427727272727  C 130.699642857143 149.709825174825  130.880029761905 150.62472027972  131.066636904762 151.178636363637  L 131.800625 152.827937062937  L 132.901607142857 155.211643356644  L 136.565327380952 157.228146853147  L 146.648333333333 158.143041958042  L 147.015327380952 158.143041958042  L 147.562708333333 158.143041958042  L 147.562708333333 158.690734265734  L 147.562708333333 159.057937062937  L 147.195714285714 162.356538461539  L 150.131666666667 165.474650349651  L 152.327410714286 166.389545454546  L 152.694404761905 166.570034965035  L 152.694404761905 166.756748251748  L 152.874791666667 167.123951048951  L 152.874791666667 168.406048951049  L 152.874791666667 170.242062937063  L 151.960416666667 173.907867132867  L 153.241785714285 174.828986013986  C 154.709761904762 174.642272727273  155.991130952381 174.642272727273  157.278720238095 175.563391608392  L 161.496041666667 177.579895104895  L 164.058779761905 175.563391608392  L 166.808125 172.625769230769  L 166.994732142857 171.343671328672  L 167.175119047619 170.976468531469  L 167.542113095238 170.789755244755  L 167.909107142857 170.422552447553  L 167.909107142857 170.05534965035  L 166.988511904762 166.202832167832  L 166.801904761905 164.186328671329  L 166.621517857143 164.005839160839  L 166.621517857143 163.819125874126  L 166.801904761905 163.638636363637  L 166.801904761905 163.451923076923  L 168.269880952381 161.068216783217  L 168.456488095238 160.881503496504  L 171.386220238095 158.865  L 171.566607142857 158.865  L 177.618898809524 158.865  L 178.533273809524 158.497797202797  L 178.346666666667 155.379685314686  L 177.426071428571 152.628776223777  L 175.410714285714 149.330174825175  L 175.230327380952 149.143461538462  L 175.230327380952 148.956748251749  L 175.230327380952 144.376048951049  L 175.230327380952 144.189335664336  L 176.331309523809 141.438426573427  L 176.517916666666 141.257937062937  L 181.469226190476 134.106818181819  L 181.655833333333 133.920104895105  L 181.836220238095 133.920104895105  L 182.203214285714 133.739615384616  L 183.304196428571 133.739615384616  L 185.132946428571 133.920104895105  L 189.350267857143 136.303811188812  L 192.099613095238 137.038216783217  L 192.466607142857 135.756118881119  L 191.913005952381 135.388916083916  L 191.913005952381 134.841223776224  C 191.913005952381 133.74583916084  192.466607142857 132.824720279721  193.567589285714 131.909825174826  L 196.86431547619 129.526118881119  L 197.044702380952 129.34562937063  L 197.044702380952 129.158916083916  C 198.879672619047 128.611223776224  199.980654761904 128.244020979021  200.708422619047 128.244020979021  L 203.638154761904 127.876818181819  L 204.023809523809 127.876818181819  L 205.85255952381 128.244020979021  L 207.133928571428 123.657097902098  L 207.133928571428 120.538986013986  C 207.133928571428 118.516258741259  207.133928571428 117.234160839161  207.687529761905 116.866958041958  L 208.968898809524 114.483251748252  L 207.320535714286 112.286258741259  L 205.124791666667 110.817447552448  L 200.540476190476 109.53534965035  C 199.626101190476 109.53534965035  197.971517857143 108.620454545455  195.222172619048 106.236748251749  L 192.472827380952 104.954650349651  L 192.292440476191 104.954650349651  L 192.105833333333 104.767937062937  L 188.809107142857 100.734930069931  L 185.692767857143 100.734930069931  L 185.512380952381 100.548216783217  L 185.325773809524 100.548216783217  L 182.576428571429 99.0856293706297  L 180.928065476191 101.288846153847  L 180.561071428572 109.908776223777  L 181.108452380953 113.207377622378  L 182.389821428572 113.207377622378  L 182.576428571429 113.387867132868  L 185.139166666667 114.122272727273  L 185.139166666667 114.302762237763  L 185.139166666667 114.489475524476  L 186.420535714286 117.607587412588  L 186.600922619048 117.607587412588  L 186.600922619048 117.794300699301  L 186.600922619048 117.974790209791  L 185.86693452381 123.657097902098  L 185.86693452381 124.024300699301  L 185.86693452381 124.204790209791  L 185.680327380952 124.38527972028  C 184.765952380952 124.932972027972  184.031964285714 125.300174825175  183.117589285714 125.854090909091  L 182.750595238095 126.040804195805  L 182.570208333333 125.854090909091  L 182.383601190476 125.854090909091  L 181.102232142857 125.486888111889  L 178.166279761905 126.588496503497  L 177.985892857143 126.588496503497  L 178.166279761905 127.136188811189  L 178.352886904762 127.322902097903  L 178.900267857143 132.270804195805  C 178.900267857143 133.00520979021  178.533273809524 133.372412587413  177.799285714286 133.559125874126  L 175.603541666667 133.559125874126  C 174.50255952381 133.378636363637  173.955178571429 133.00520979021  173.401577380953 132.457517482518  L 171.205833333333 130.808216783217  L 171.025446428572 130.621503496504  L 170.838839285715 130.621503496504  L 170.838839285715 130.441013986014  L 169.557470238096 127.322902097903  C 169.190476190476 126.9556993007  168.269880952381 126.401783216784  166.441130952381 125.854090909091  L 166.254523809524 125.854090909091  L 166.074136904762 125.854090909091  L 163.505178571429 124.018076923077  L 163.13818452381 124.018076923077  L 163.13818452381 123.650874125875  L 162.404196428572 120.532762237763  L 162.771190476191 118.149055944056  L 162.970238095238 118.149055944056  L 162.970238095238 117.962342657343  L 164.071220238095 116.680244755245  L 164.071220238095 115.759125874126  L 162.970238095238 112.460524475525  L 160.4075 110.076818181819  L 160.4075 109.709615384616  L 159.673511904762 102.191293706294  L 157.838541666667 100.361503496504  L 157.65193452381 100.361503496504  L 157.471547619048 100.174790209791  L 156.003571428571 96.6894755244759  L 149.410119047619 95.9550699300705  C 147.761755952381 95.4073776223781  146.660773809524 94.3057692307697  145.926785714286 92.8369580419586  L 142.990833333333 92.8369580419586  C 141.896071428571 92.4697552447558  140.795089285714 91.7353496503501  139.513720238095 90.4532517482522  L 139.146726190476 90.0860489510494  C 138.412738095238 89.3516433566439  137.67875 88.2500349650355  136.950982142857 86.7812237762242  L 136.764375 86.6007342657348  L 136.216994047619 83.6631118881124  L 136.216994047619 83.4826223776229  L 136.216994047619 83.3021328671334  L 137.317976190476 77.6198251748257  L 137.317976190476 77.4393356643361  L 138.418958333333 75.0556293706298  L 138.418958333333 74.8689160839166  L 138.418958333333 74.688426573427  L 138.60556547619 74.688426573427  L 145.566011904762 71.7508041958047  L 148.315357142857 68.4522027972032  L 148.862738095238 65.7012937062941  L 148.495744047619 63.6847902097907  C 147.394761904762 61.3010839160844  146.660773809524 59.8322727272732  146.660773809524 58.917377622378  L 145.199017857143 59.1040909090913  L 142.630059523809 58.917377622378  C 142.076458333333 59.1040909090913  140.614702380952 60.753391608392  138.599345238095 63.1370979020983  L 135.483005952381 66.0684965034968  L 135.302619047619 66.0684965034968  L 135.116011904762 66.2552097902101  C 132.733660714286 66.8091258741263  131.085297619048 67.1701048951053  130.164702380952 66.8091258741263  Z " fill-rule="evenodd" />
    </mask>
  </defs>
  <g transform="matrix(1 0 0 1 -827 -420 )">
    <path d="M 130.164702380952 66.8091258741263  L 124.118630952381 64.6121328671329  L 121.182678571428 64.6121328671329  L 120.268303571429 66.6286363636365  L 121.916666666667 68.2779370629371  L 121.916666666667 68.4584265734267  L 121.916666666667 68.6451398601398  L 122.650654761905 71.0288461538462  L 122.831041666667 71.2155594405596  L 122.831041666667 71.7632517482518  L 122.464047619047 71.9499650349651  L 118.433333333333 73.9664685314685  L 118.246726190476 74.1531818181818  L 118.066339285714 74.1531818181818  L 117.885952380952 74.1531818181818  C 114.769613095238 73.7859790209791  113.12125 72.871083916084  112.573869047619 71.5827622377623  L 111.472886904762 69.3857692307693  L 105.974196428571 68.2841608391609  L 104.506220238095 61.3135314685316  C 103.411458333333 61.1268181818183  102.490863095238 60.5791258741259  101.943482142857 59.8447202797204  L 101.756875 59.4775174825176  C 100.8425 58.1954195804196  100.108511904762 57.4610139860141  99.0075297619048 57.2805244755247  C 97.5457738095238 56.7328321678323  96.2581845238094 55.6312237762239  95.1572023809523 53.9819230769232  L 92.9614583333333 52.6936013986015  L 92.7748511904762 52.6936013986015  L 89.8388988095238 49.7559790209791  L 89.1049107142858 47.1917832167834  L 89.1049107142858 47.00506993007  L 94.9705952380953 38.9328321678322  C 95.1572023809523 38.3851398601399  95.3375892857143 38.0179370629371  95.1572023809523 37.8312237762239  L 94.0562202380952 35.267027972028  L 90.9398809523809 36.5491258741259  L 90.7532738095238 36.5491258741259  L 90.7532738095238 36.7296153846155  L 90.572886904762 36.7296153846155  L 82.5114583333333 37.2835314685316  L 79.3951190476191 38.0179370629371  L 78.2941369047619 39.1195454545455  L 77.7405357142857 40.2211538461539  C 77.0065476190476 41.136048951049  75.9117857142858 41.6837412587413  74.2572023809523 41.3165384615385  L 74.0768154761905 41.136048951049  L 71.3274702380953 39.1195454545455  L 71.1470833333333 34.5326223776224  C 69.6791071428572 33.431013986014  68.7647321428572 32.3294055944056  68.3977380952382 31.4145104895106  L 67.6637500000002 27.3815034965035  L 65.8287797619048 25.1845104895106  L 63.8134226190477 23.5352097902098  L 62.8928273809524 22.9812937062937  L 66.1895535714287 18.7615734265736  L 66.9235416666667 16.3778671328673  L 63.2536011904763 11.7971678321679  L 63.0732142857144 11.7971678321679  L 63.0732142857144 11.6104545454546  L 61.4248511904763 7.93842657342668  L 61.4248511904763 7.75793706293712  L 61.0578571428573 5.92192307692312  L 58.6692857142859 4.09213286713293  L 58.6692857142859 3.90541958041968  L 56.1065476190478 1.15451048951059  L 52.8098214285715 0.606818181818312  L 49.1461011904764 1.70842657342666  L 48.5987202380954 2.44283216783231  L 48.0513392857144 7.57744755244767  L 48.0513392857144 13.2659790209791  L 47.4977380952383 13.4464685314686  L 44.0144047619049 14.7347902097904  L 44.0144047619049 14.9152797202798  L 40.7176785714287 15.1019930069931  C 39.0693154761906 16.0168881118883  37.2343452380953 16.9317832167833  35.2189880952382 17.6661888111889  L 34.8519940476192 17.8529020979022  L 34.6716071428573 17.8529020979022  L 28.4389285714288 16.384090909091  L 25.8761904761906 19.1350000000001  C 25.3288095238097 19.8694055944057  24.0474404761906 20.6038111888114  22.3990773809526 20.9710139860141  L 18.5487500000002 24.089125874126  L 16.533392857143 27.2072377622379  L 16.533392857143 27.3877272727274  L 16.3530059523811 27.5682167832169  C 15.252023809524 29.2237412587414  14.337648809524 30.5058391608393  13.6036607142858 31.0535314685317  L 11.4079166666668 33.8044405594407  L 11.4079166666668 33.9849300699302  L 11.2213095238096 34.1654195804198  L 9.93994047619066 35.0803146853149  C 9.01934523809541 35.4475174825177  8.1049702380954 35.634230769231  7.37098214285732 35.634230769231  L 2.78666666666675 35.2670279720281  L 1.68568452380964 36.9163286713288  L 0.0373214285716017 39.8539510489512  L 0.771309523809691 42.7853496503499  L 0.404315476190675 49.9364685314688  L 1.68568452380975 52.1396853146855  L 1.68568452380975 52.3201748251751  L 2.23928571428593 53.9756993006995  L 4.80202380952397 53.9756993006995  L 9.19973214285733 54.8905944055947  L 14.8788095238098 55.2577972027974  L 17.4415476190478 54.8905944055947  L 17.8085416666668 54.8905944055947  L 17.9889285714287 54.8905944055947  L 22.934017857143 56.7266083916087  L 23.1206250000002 56.7266083916087  L 25.6833630952382 58.7431118881121  L 31.1820535714288 60.7596153846156  L 31.3686607142859 60.7596153846156  L 35.0323809523812 62.9628321678324  L 44.014404761905 71.2155594405597  L 48.0451190476192 73.0453496503499  L 49.6934821428573 72.317167832168  L 51.3418452380954 69.1990559440562  L 50.4274702380954 64.2449300699303  C 50.4274702380954 62.7823426573428  51.5284523809526 61.861223776224  53.7241964285716 60.946328671329  L 54.0911904761905 60.7596153846156  L 65.287619047619 67.363041958042  L 66.5689880952381 66.9958391608392  L 69.1379464285714 65.527027972028  L 69.5049404761905 65.527027972028  L 70.9729166666667 65.7075174825175  L 73.1686607142858 63.8715034965036  L 73.5356547619048 63.6910139860141  L 74.0830357142857 64.0582167832168  L 80.6764880952381 68.6451398601398  L 80.8630952380953 68.8256293706294  L 85.0804166666666 72.3109440559441  C 86.1751785714285 73.0391258741261  87.6431547619047 74.3274475524477  88.9245238095237 76.1634615384617  L 90.9398809523809 78.3666783216784  L 92.588244047619 78.1799650349651  L 94.4232142857143 74.6946503496504  L 98.2735416666666 77.4455594405596  L 98.4601488095239 77.4455594405596  L 98.6405357142858 77.4455594405596  L 101.756875 81.2918531468532  L 110.004910714286 87.5280769230769  L 112.387261904762 90.2789860139861  L 119.540535714286 88.2562587412589  L 119.901309523809 93.5775874125875  L 123.017648809524 96.6956993006994  L 123.017648809524 96.8761888111889  L 125.580386904762 100.728706293706  L 125.580386904762 100.909195804196  L 125.580386904762 101.089685314685  L 125.580386904762 101.276398601399  L 128.329732142857 113.923111888112  L 131.079077380952 119.063951048951  L 127.409136904762 128.412062937063  L 127.409136904762 128.978426573427  L 124.292797619048 129.712832167832  L 124.292797619048 132.463741258741  L 124.112410714286 132.644230769231  L 120.996071428571 137.778846153846  L 120.629077380952 137.778846153846  L 116.231369047619 138.146048951049  L 111.833660714286 141.811853146853  C 112.387261904762 142.365769230769  113.12125 142.726748251748  114.396398809524 143.280664335664  C 116.231369047619 143.83458041958  116.411755952381 145.297167832168  115.497380952381 147.861363636364  L 115.497380952381 148.048076923077  L 112.381041666667 151.166188811189  L 112.200654761905 151.166188811189  L 112.014047619048 151.533391608392  L 111.827440476191 151.533391608392  L 111.647053571428 151.533391608392  L 102.851636904762 150.251293706294  L 102.67125 153.369405594406  L 103.585625 159.972832167832  L 110.91306547619 163.090944055944  L 110.91306547619 163.458146853147  L 113.662410714286 162.543251748252  L 113.849017857143 162.362762237762  L 114.216011904762 162.182272727273  L 114.396398809524 162.549475524476  L 114.576785714286 162.549475524476  L 116.592142857143 163.651083916084  L 119.708482142857 163.651083916084  L 120.809464285714 163.464370629371  L 119.708482142857 159.979055944056  L 118.974494047619 156.307027972028  L 118.974494047619 156.126538461539  L 118.974494047619 155.759335664336  L 119.154880952381 155.572622377622  L 119.154880952381 155.392132867133  L 120.255863095238 154.110034965035  L 120.622857142857 153.742832167832  L 120.803244047619 153.562342657343  L 122.818601190476 150.811433566434  L 123.005208333333 150.62472027972  L 126.301934523809 148.060524475525  L 126.482321428571 148.060524475525  L 126.482321428571 147.873811188811  L 126.668928571428 147.873811188811  L 130.699642857143 147.326118881119  L 130.699642857143 148.427727272727  C 130.699642857143 149.709825174825  130.880029761905 150.62472027972  131.066636904762 151.178636363637  L 131.800625 152.827937062937  L 132.901607142857 155.211643356644  L 136.565327380952 157.228146853147  L 146.648333333333 158.143041958042  L 147.015327380952 158.143041958042  L 147.562708333333 158.143041958042  L 147.562708333333 158.690734265734  L 147.562708333333 159.057937062937  L 147.195714285714 162.356538461539  L 150.131666666667 165.474650349651  L 152.327410714286 166.389545454546  L 152.694404761905 166.570034965035  L 152.694404761905 166.756748251748  L 152.874791666667 167.123951048951  L 152.874791666667 168.406048951049  L 152.874791666667 170.242062937063  L 151.960416666667 173.907867132867  L 153.241785714285 174.828986013986  C 154.709761904762 174.642272727273  155.991130952381 174.642272727273  157.278720238095 175.563391608392  L 161.496041666667 177.579895104895  L 164.058779761905 175.563391608392  L 166.808125 172.625769230769  L 166.994732142857 171.343671328672  L 167.175119047619 170.976468531469  L 167.542113095238 170.789755244755  L 167.909107142857 170.422552447553  L 167.909107142857 170.05534965035  L 166.988511904762 166.202832167832  L 166.801904761905 164.186328671329  L 166.621517857143 164.005839160839  L 166.621517857143 163.819125874126  L 166.801904761905 163.638636363637  L 166.801904761905 163.451923076923  L 168.269880952381 161.068216783217  L 168.456488095238 160.881503496504  L 171.386220238095 158.865  L 171.566607142857 158.865  L 177.618898809524 158.865  L 178.533273809524 158.497797202797  L 178.346666666667 155.379685314686  L 177.426071428571 152.628776223777  L 175.410714285714 149.330174825175  L 175.230327380952 149.143461538462  L 175.230327380952 148.956748251749  L 175.230327380952 144.376048951049  L 175.230327380952 144.189335664336  L 176.331309523809 141.438426573427  L 176.517916666666 141.257937062937  L 181.469226190476 134.106818181819  L 181.655833333333 133.920104895105  L 181.836220238095 133.920104895105  L 182.203214285714 133.739615384616  L 183.304196428571 133.739615384616  L 185.132946428571 133.920104895105  L 189.350267857143 136.303811188812  L 192.099613095238 137.038216783217  L 192.466607142857 135.756118881119  L 191.913005952381 135.388916083916  L 191.913005952381 134.841223776224  C 191.913005952381 133.74583916084  192.466607142857 132.824720279721  193.567589285714 131.909825174826  L 196.86431547619 129.526118881119  L 197.044702380952 129.34562937063  L 197.044702380952 129.158916083916  C 198.879672619047 128.611223776224  199.980654761904 128.244020979021  200.708422619047 128.244020979021  L 203.638154761904 127.876818181819  L 204.023809523809 127.876818181819  L 205.85255952381 128.244020979021  L 207.133928571428 123.657097902098  L 207.133928571428 120.538986013986  C 207.133928571428 118.516258741259  207.133928571428 117.234160839161  207.687529761905 116.866958041958  L 208.968898809524 114.483251748252  L 207.320535714286 112.286258741259  L 205.124791666667 110.817447552448  L 200.540476190476 109.53534965035  C 199.626101190476 109.53534965035  197.971517857143 108.620454545455  195.222172619048 106.236748251749  L 192.472827380952 104.954650349651  L 192.292440476191 104.954650349651  L 192.105833333333 104.767937062937  L 188.809107142857 100.734930069931  L 185.692767857143 100.734930069931  L 185.512380952381 100.548216783217  L 185.325773809524 100.548216783217  L 182.576428571429 99.0856293706297  L 180.928065476191 101.288846153847  L 180.561071428572 109.908776223777  L 181.108452380953 113.207377622378  L 182.389821428572 113.207377622378  L 182.576428571429 113.387867132868  L 185.139166666667 114.122272727273  L 185.139166666667 114.302762237763  L 185.139166666667 114.489475524476  L 186.420535714286 117.607587412588  L 186.600922619048 117.607587412588  L 186.600922619048 117.794300699301  L 186.600922619048 117.974790209791  L 185.86693452381 123.657097902098  L 185.86693452381 124.024300699301  L 185.86693452381 124.204790209791  L 185.680327380952 124.38527972028  C 184.765952380952 124.932972027972  184.031964285714 125.300174825175  183.117589285714 125.854090909091  L 182.750595238095 126.040804195805  L 182.570208333333 125.854090909091  L 182.383601190476 125.854090909091  L 181.102232142857 125.486888111889  L 178.166279761905 126.588496503497  L 177.985892857143 126.588496503497  L 178.166279761905 127.136188811189  L 178.352886904762 127.322902097903  L 178.900267857143 132.270804195805  C 178.900267857143 133.00520979021  178.533273809524 133.372412587413  177.799285714286 133.559125874126  L 175.603541666667 133.559125874126  C 174.50255952381 133.378636363637  173.955178571429 133.00520979021  173.401577380953 132.457517482518  L 171.205833333333 130.808216783217  L 171.025446428572 130.621503496504  L 170.838839285715 130.621503496504  L 170.838839285715 130.441013986014  L 169.557470238096 127.322902097903  C 169.190476190476 126.9556993007  168.269880952381 126.401783216784  166.441130952381 125.854090909091  L 166.254523809524 125.854090909091  L 166.074136904762 125.854090909091  L 163.505178571429 124.018076923077  L 163.13818452381 124.018076923077  L 163.13818452381 123.650874125875  L 162.404196428572 120.532762237763  L 162.771190476191 118.149055944056  L 162.970238095238 118.149055944056  L 162.970238095238 117.962342657343  L 164.071220238095 116.680244755245  L 164.071220238095 115.759125874126  L 162.970238095238 112.460524475525  L 160.4075 110.076818181819  L 160.4075 109.709615384616  L 159.673511904762 102.191293706294  L 157.838541666667 100.361503496504  L 157.65193452381 100.361503496504  L 157.471547619048 100.174790209791  L 156.003571428571 96.6894755244759  L 149.410119047619 95.9550699300705  C 147.761755952381 95.4073776223781  146.660773809524 94.3057692307697  145.926785714286 92.8369580419586  L 142.990833333333 92.8369580419586  C 141.896071428571 92.4697552447558  140.795089285714 91.7353496503501  139.513720238095 90.4532517482522  L 139.146726190476 90.0860489510494  C 138.412738095238 89.3516433566439  137.67875 88.2500349650355  136.950982142857 86.7812237762242  L 136.764375 86.6007342657348  L 136.216994047619 83.6631118881124  L 136.216994047619 83.4826223776229  L 136.216994047619 83.3021328671334  L 137.317976190476 77.6198251748257  L 137.317976190476 77.4393356643361  L 138.418958333333 75.0556293706298  L 138.418958333333 74.8689160839166  L 138.418958333333 74.688426573427  L 138.60556547619 74.688426573427  L 145.566011904762 71.7508041958047  L 148.315357142857 68.4522027972032  L 148.862738095238 65.7012937062941  L 148.495744047619 63.6847902097907  C 147.394761904762 61.3010839160844  146.660773809524 59.8322727272732  146.660773809524 58.917377622378  L 145.199017857143 59.1040909090913  L 142.630059523809 58.917377622378  C 142.076458333333 59.1040909090913  140.614702380952 60.753391608392  138.599345238095 63.1370979020983  L 135.483005952381 66.0684965034968  L 135.302619047619 66.0684965034968  L 135.116011904762 66.2552097902101  C 132.733660714286 66.8091258741263  131.085297619048 67.1701048951053  130.164702380952 66.8091258741263  Z " fill-rule="nonzero" fill="#00ccff" stroke="none" fill-opacity="0.498039215686275" transform="matrix(1 0 0 1 827 420 )" />
    <path d="M 130.164702380952 66.8091258741263  L 124.118630952381 64.6121328671329  L 121.182678571428 64.6121328671329  L 120.268303571429 66.6286363636365  L 121.916666666667 68.2779370629371  L 121.916666666667 68.4584265734267  L 121.916666666667 68.6451398601398  L 122.650654761905 71.0288461538462  L 122.831041666667 71.2155594405596  L 122.831041666667 71.7632517482518  L 122.464047619047 71.9499650349651  L 118.433333333333 73.9664685314685  L 118.246726190476 74.1531818181818  L 118.066339285714 74.1531818181818  L 117.885952380952 74.1531818181818  C 114.769613095238 73.7859790209791  113.12125 72.871083916084  112.573869047619 71.5827622377623  L 111.472886904762 69.3857692307693  L 105.974196428571 68.2841608391609  L 104.506220238095 61.3135314685316  C 103.411458333333 61.1268181818183  102.490863095238 60.5791258741259  101.943482142857 59.8447202797204  L 101.756875 59.4775174825176  C 100.8425 58.1954195804196  100.108511904762 57.4610139860141  99.0075297619048 57.2805244755247  C 97.5457738095238 56.7328321678323  96.2581845238094 55.6312237762239  95.1572023809523 53.9819230769232  L 92.9614583333333 52.6936013986015  L 92.7748511904762 52.6936013986015  L 89.8388988095238 49.7559790209791  L 89.1049107142858 47.1917832167834  L 89.1049107142858 47.00506993007  L 94.9705952380953 38.9328321678322  C 95.1572023809523 38.3851398601399  95.3375892857143 38.0179370629371  95.1572023809523 37.8312237762239  L 94.0562202380952 35.267027972028  L 90.9398809523809 36.5491258741259  L 90.7532738095238 36.5491258741259  L 90.7532738095238 36.7296153846155  L 90.572886904762 36.7296153846155  L 82.5114583333333 37.2835314685316  L 79.3951190476191 38.0179370629371  L 78.2941369047619 39.1195454545455  L 77.7405357142857 40.2211538461539  C 77.0065476190476 41.136048951049  75.9117857142858 41.6837412587413  74.2572023809523 41.3165384615385  L 74.0768154761905 41.136048951049  L 71.3274702380953 39.1195454545455  L 71.1470833333333 34.5326223776224  C 69.6791071428572 33.431013986014  68.7647321428572 32.3294055944056  68.3977380952382 31.4145104895106  L 67.6637500000002 27.3815034965035  L 65.8287797619048 25.1845104895106  L 63.8134226190477 23.5352097902098  L 62.8928273809524 22.9812937062937  L 66.1895535714287 18.7615734265736  L 66.9235416666667 16.3778671328673  L 63.2536011904763 11.7971678321679  L 63.0732142857144 11.7971678321679  L 63.0732142857144 11.6104545454546  L 61.4248511904763 7.93842657342668  L 61.4248511904763 7.75793706293712  L 61.0578571428573 5.92192307692312  L 58.6692857142859 4.09213286713293  L 58.6692857142859 3.90541958041968  L 56.1065476190478 1.15451048951059  L 52.8098214285715 0.606818181818312  L 49.1461011904764 1.70842657342666  L 48.5987202380954 2.44283216783231  L 48.0513392857144 7.57744755244767  L 48.0513392857144 13.2659790209791  L 47.4977380952383 13.4464685314686  L 44.0144047619049 14.7347902097904  L 44.0144047619049 14.9152797202798  L 40.7176785714287 15.1019930069931  C 39.0693154761906 16.0168881118883  37.2343452380953 16.9317832167833  35.2189880952382 17.6661888111889  L 34.8519940476192 17.8529020979022  L 34.6716071428573 17.8529020979022  L 28.4389285714288 16.384090909091  L 25.8761904761906 19.1350000000001  C 25.3288095238097 19.8694055944057  24.0474404761906 20.6038111888114  22.3990773809526 20.9710139860141  L 18.5487500000002 24.089125874126  L 16.533392857143 27.2072377622379  L 16.533392857143 27.3877272727274  L 16.3530059523811 27.5682167832169  C 15.252023809524 29.2237412587414  14.337648809524 30.5058391608393  13.6036607142858 31.0535314685317  L 11.4079166666668 33.8044405594407  L 11.4079166666668 33.9849300699302  L 11.2213095238096 34.1654195804198  L 9.93994047619066 35.0803146853149  C 9.01934523809541 35.4475174825177  8.1049702380954 35.634230769231  7.37098214285732 35.634230769231  L 2.78666666666675 35.2670279720281  L 1.68568452380964 36.9163286713288  L 0.0373214285716017 39.8539510489512  L 0.771309523809691 42.7853496503499  L 0.404315476190675 49.9364685314688  L 1.68568452380975 52.1396853146855  L 1.68568452380975 52.3201748251751  L 2.23928571428593 53.9756993006995  L 4.80202380952397 53.9756993006995  L 9.19973214285733 54.8905944055947  L 14.8788095238098 55.2577972027974  L 17.4415476190478 54.8905944055947  L 17.8085416666668 54.8905944055947  L 17.9889285714287 54.8905944055947  L 22.934017857143 56.7266083916087  L 23.1206250000002 56.7266083916087  L 25.6833630952382 58.7431118881121  L 31.1820535714288 60.7596153846156  L 31.3686607142859 60.7596153846156  L 35.0323809523812 62.9628321678324  L 44.014404761905 71.2155594405597  L 48.0451190476192 73.0453496503499  L 49.6934821428573 72.317167832168  L 51.3418452380954 69.1990559440562  L 50.4274702380954 64.2449300699303  C 50.4274702380954 62.7823426573428  51.5284523809526 61.861223776224  53.7241964285716 60.946328671329  L 54.0911904761905 60.7596153846156  L 65.287619047619 67.363041958042  L 66.5689880952381 66.9958391608392  L 69.1379464285714 65.527027972028  L 69.5049404761905 65.527027972028  L 70.9729166666667 65.7075174825175  L 73.1686607142858 63.8715034965036  L 73.5356547619048 63.6910139860141  L 74.0830357142857 64.0582167832168  L 80.6764880952381 68.6451398601398  L 80.8630952380953 68.8256293706294  L 85.0804166666666 72.3109440559441  C 86.1751785714285 73.0391258741261  87.6431547619047 74.3274475524477  88.9245238095237 76.1634615384617  L 90.9398809523809 78.3666783216784  L 92.588244047619 78.1799650349651  L 94.4232142857143 74.6946503496504  L 98.2735416666666 77.4455594405596  L 98.4601488095239 77.4455594405596  L 98.6405357142858 77.4455594405596  L 101.756875 81.2918531468532  L 110.004910714286 87.5280769230769  L 112.387261904762 90.2789860139861  L 119.540535714286 88.2562587412589  L 119.901309523809 93.5775874125875  L 123.017648809524 96.6956993006994  L 123.017648809524 96.8761888111889  L 125.580386904762 100.728706293706  L 125.580386904762 100.909195804196  L 125.580386904762 101.089685314685  L 125.580386904762 101.276398601399  L 128.329732142857 113.923111888112  L 131.079077380952 119.063951048951  L 127.409136904762 128.412062937063  L 127.409136904762 128.978426573427  L 124.292797619048 129.712832167832  L 124.292797619048 132.463741258741  L 124.112410714286 132.644230769231  L 120.996071428571 137.778846153846  L 120.629077380952 137.778846153846  L 116.231369047619 138.146048951049  L 111.833660714286 141.811853146853  C 112.387261904762 142.365769230769  113.12125 142.726748251748  114.396398809524 143.280664335664  C 116.231369047619 143.83458041958  116.411755952381 145.297167832168  115.497380952381 147.861363636364  L 115.497380952381 148.048076923077  L 112.381041666667 151.166188811189  L 112.200654761905 151.166188811189  L 112.014047619048 151.533391608392  L 111.827440476191 151.533391608392  L 111.647053571428 151.533391608392  L 102.851636904762 150.251293706294  L 102.67125 153.369405594406  L 103.585625 159.972832167832  L 110.91306547619 163.090944055944  L 110.91306547619 163.458146853147  L 113.662410714286 162.543251748252  L 113.849017857143 162.362762237762  L 114.216011904762 162.182272727273  L 114.396398809524 162.549475524476  L 114.576785714286 162.549475524476  L 116.592142857143 163.651083916084  L 119.708482142857 163.651083916084  L 120.809464285714 163.464370629371  L 119.708482142857 159.979055944056  L 118.974494047619 156.307027972028  L 118.974494047619 156.126538461539  L 118.974494047619 155.759335664336  L 119.154880952381 155.572622377622  L 119.154880952381 155.392132867133  L 120.255863095238 154.110034965035  L 120.622857142857 153.742832167832  L 120.803244047619 153.562342657343  L 122.818601190476 150.811433566434  L 123.005208333333 150.62472027972  L 126.301934523809 148.060524475525  L 126.482321428571 148.060524475525  L 126.482321428571 147.873811188811  L 126.668928571428 147.873811188811  L 130.699642857143 147.326118881119  L 130.699642857143 148.427727272727  C 130.699642857143 149.709825174825  130.880029761905 150.62472027972  131.066636904762 151.178636363637  L 131.800625 152.827937062937  L 132.901607142857 155.211643356644  L 136.565327380952 157.228146853147  L 146.648333333333 158.143041958042  L 147.015327380952 158.143041958042  L 147.562708333333 158.143041958042  L 147.562708333333 158.690734265734  L 147.562708333333 159.057937062937  L 147.195714285714 162.356538461539  L 150.131666666667 165.474650349651  L 152.327410714286 166.389545454546  L 152.694404761905 166.570034965035  L 152.694404761905 166.756748251748  L 152.874791666667 167.123951048951  L 152.874791666667 168.406048951049  L 152.874791666667 170.242062937063  L 151.960416666667 173.907867132867  L 153.241785714285 174.828986013986  C 154.709761904762 174.642272727273  155.991130952381 174.642272727273  157.278720238095 175.563391608392  L 161.496041666667 177.579895104895  L 164.058779761905 175.563391608392  L 166.808125 172.625769230769  L 166.994732142857 171.343671328672  L 167.175119047619 170.976468531469  L 167.542113095238 170.789755244755  L 167.909107142857 170.422552447553  L 167.909107142857 170.05534965035  L 166.988511904762 166.202832167832  L 166.801904761905 164.186328671329  L 166.621517857143 164.005839160839  L 166.621517857143 163.819125874126  L 166.801904761905 163.638636363637  L 166.801904761905 163.451923076923  L 168.269880952381 161.068216783217  L 168.456488095238 160.881503496504  L 171.386220238095 158.865  L 171.566607142857 158.865  L 177.618898809524 158.865  L 178.533273809524 158.497797202797  L 178.346666666667 155.379685314686  L 177.426071428571 152.628776223777  L 175.410714285714 149.330174825175  L 175.230327380952 149.143461538462  L 175.230327380952 148.956748251749  L 175.230327380952 144.376048951049  L 175.230327380952 144.189335664336  L 176.331309523809 141.438426573427  L 176.517916666666 141.257937062937  L 181.469226190476 134.106818181819  L 181.655833333333 133.920104895105  L 181.836220238095 133.920104895105  L 182.203214285714 133.739615384616  L 183.304196428571 133.739615384616  L 185.132946428571 133.920104895105  L 189.350267857143 136.303811188812  L 192.099613095238 137.038216783217  L 192.466607142857 135.756118881119  L 191.913005952381 135.388916083916  L 191.913005952381 134.841223776224  C 191.913005952381 133.74583916084  192.466607142857 132.824720279721  193.567589285714 131.909825174826  L 196.86431547619 129.526118881119  L 197.044702380952 129.34562937063  L 197.044702380952 129.158916083916  C 198.879672619047 128.611223776224  199.980654761904 128.244020979021  200.708422619047 128.244020979021  L 203.638154761904 127.876818181819  L 204.023809523809 127.876818181819  L 205.85255952381 128.244020979021  L 207.133928571428 123.657097902098  L 207.133928571428 120.538986013986  C 207.133928571428 118.516258741259  207.133928571428 117.234160839161  207.687529761905 116.866958041958  L 208.968898809524 114.483251748252  L 207.320535714286 112.286258741259  L 205.124791666667 110.817447552448  L 200.540476190476 109.53534965035  C 199.626101190476 109.53534965035  197.971517857143 108.620454545455  195.222172619048 106.236748251749  L 192.472827380952 104.954650349651  L 192.292440476191 104.954650349651  L 192.105833333333 104.767937062937  L 188.809107142857 100.734930069931  L 185.692767857143 100.734930069931  L 185.512380952381 100.548216783217  L 185.325773809524 100.548216783217  L 182.576428571429 99.0856293706297  L 180.928065476191 101.288846153847  L 180.561071428572 109.908776223777  L 181.108452380953 113.207377622378  L 182.389821428572 113.207377622378  L 182.576428571429 113.387867132868  L 185.139166666667 114.122272727273  L 185.139166666667 114.302762237763  L 185.139166666667 114.489475524476  L 186.420535714286 117.607587412588  L 186.600922619048 117.607587412588  L 186.600922619048 117.794300699301  L 186.600922619048 117.974790209791  L 185.86693452381 123.657097902098  L 185.86693452381 124.024300699301  L 185.86693452381 124.204790209791  L 185.680327380952 124.38527972028  C 184.765952380952 124.932972027972  184.031964285714 125.300174825175  183.117589285714 125.854090909091  L 182.750595238095 126.040804195805  L 182.570208333333 125.854090909091  L 182.383601190476 125.854090909091  L 181.102232142857 125.486888111889  L 178.166279761905 126.588496503497  L 177.985892857143 126.588496503497  L 178.166279761905 127.136188811189  L 178.352886904762 127.322902097903  L 178.900267857143 132.270804195805  C 178.900267857143 133.00520979021  178.533273809524 133.372412587413  177.799285714286 133.559125874126  L 175.603541666667 133.559125874126  C 174.50255952381 133.378636363637  173.955178571429 133.00520979021  173.401577380953 132.457517482518  L 171.205833333333 130.808216783217  L 171.025446428572 130.621503496504  L 170.838839285715 130.621503496504  L 170.838839285715 130.441013986014  L 169.557470238096 127.322902097903  C 169.190476190476 126.9556993007  168.269880952381 126.401783216784  166.441130952381 125.854090909091  L 166.254523809524 125.854090909091  L 166.074136904762 125.854090909091  L 163.505178571429 124.018076923077  L 163.13818452381 124.018076923077  L 163.13818452381 123.650874125875  L 162.404196428572 120.532762237763  L 162.771190476191 118.149055944056  L 162.970238095238 118.149055944056  L 162.970238095238 117.962342657343  L 164.071220238095 116.680244755245  L 164.071220238095 115.759125874126  L 162.970238095238 112.460524475525  L 160.4075 110.076818181819  L 160.4075 109.709615384616  L 159.673511904762 102.191293706294  L 157.838541666667 100.361503496504  L 157.65193452381 100.361503496504  L 157.471547619048 100.174790209791  L 156.003571428571 96.6894755244759  L 149.410119047619 95.9550699300705  C 147.761755952381 95.4073776223781  146.660773809524 94.3057692307697  145.926785714286 92.8369580419586  L 142.990833333333 92.8369580419586  C 141.896071428571 92.4697552447558  140.795089285714 91.7353496503501  139.513720238095 90.4532517482522  L 139.146726190476 90.0860489510494  C 138.412738095238 89.3516433566439  137.67875 88.2500349650355  136.950982142857 86.7812237762242  L 136.764375 86.6007342657348  L 136.216994047619 83.6631118881124  L 136.216994047619 83.4826223776229  L 136.216994047619 83.3021328671334  L 137.317976190476 77.6198251748257  L 137.317976190476 77.4393356643361  L 138.418958333333 75.0556293706298  L 138.418958333333 74.8689160839166  L 138.418958333333 74.688426573427  L 138.60556547619 74.688426573427  L 145.566011904762 71.7508041958047  L 148.315357142857 68.4522027972032  L 148.862738095238 65.7012937062941  L 148.495744047619 63.6847902097907  C 147.394761904762 61.3010839160844  146.660773809524 59.8322727272732  146.660773809524 58.917377622378  L 145.199017857143 59.1040909090913  L 142.630059523809 58.917377622378  C 142.076458333333 59.1040909090913  140.614702380952 60.753391608392  138.599345238095 63.1370979020983  L 135.483005952381 66.0684965034968  L 135.302619047619 66.0684965034968  L 135.116011904762 66.2552097902101  C 132.733660714286 66.8091258741263  131.085297619048 67.1701048951053  130.164702380952 66.8091258741263  Z " stroke-width="4" stroke="#00ccff" fill="none" stroke-opacity="0.498039215686275" transform="matrix(1 0 0 1 827 420 )" mask="url(#clip478)" />
  </g>
</svg>