<?xml version="1.0" encoding="utf-8"?>
<svg version="1.1" xmlns:xlink="http://www.w3.org/1999/xlink" width="66px" height="67px" xmlns="http://www.w3.org/2000/svg">
  <defs>
    <mask fill="white" id="clip501">
      <path d="M 64.5492452830182 17.8325462962963  C 65.0971698113208 16.9143981481481  65.4645283018868 15.6364351851853  65.4645283018868 13.8063425925926  L 64.1818867924528 10.8843981481481  L 62.1645283018868 7.95624999999995  L 59.9603773584905 7.41032407407397  L 59.7735849056605 7.41032407407397  L 59.7735849056605 7.23041666666666  L 59.5930188679246 7.23041666666666  L 57.7624528301886 6.31847222222223  L 57.3950943396226 6.31847222222223  L 56.6603773584906 6.49837962962965  L 54.2756603773586 6.8643981481481  L 54.0888679245282 6.8643981481481  L 53.7215094339622 6.68449074074078  L 51.3367924528302 5.76634259259254  L 51.3367924528302 5.58643518518511  L 51.1562264150942 5.58643518518511  L 51.1562264150942 5.4065277777778  L 49.3256603773584 3.57643518518512  L 47.3083018867924 1.56643518518513  L 45.4715094339622 0.474583333333385  L 43.454150943396 2.29847222222224  L 40.8826415094339 4.12856481481481  L 40.1479245283019 9.61263888888891  L 40.1479245283019 9.79254629629634  L 37.7632075471697 13.8125462962964  L 37.7632075471697 14.1785648148149  L 37.5826415094339 14.1785648148149  L 35.7458490566037 16.0086574074076  L 33.5479245283018 20.2147685185186  L 33.3673584905661 20.5807870370371  C 31.717358490566 21.8649537037038  30.2479245283017 23.1429166666668  28.7784905660376 24.2347685185185  L 26.9416981132074 27.5227314814815  C 26.5743396226413 28.4346759259261  25.1111320754715 29.5327314814815  22.3590566037735 30.6307870370372  L 20.5222641509433 33.7388425925926  L 17.4028301886792 37.9449537037037  L 17.2222641509433 37.9449537037037  L 17.2222641509433 38.1248611111112  L 16.8549056603772 38.1248611111112  L 2.17924528301876 37.2129166666666  L 0.529245283018781 38.8568981481482  L 0.529245283018781 41.9649537037037  L 1.99245283018843 47.9949537037037  L 5.11188679245276 52.3809722222223  L 7.67716981132071 53.8450462962963  L 7.67716981132071 54.0249537037037  L 7.86396226415081 54.0249537037037  C 9.32716981132057 55.8488425925926  10.0618867924527 57.1330092592592  10.0618867924527 58.0449537037038  L 10.0618867924527 60.4209722222223  L 9.14660377358462 61.3329166666667  L 9.70075471698101 61.6989351851853  L 10.435471698113 61.6989351851853  L 11.5375471698112 59.5090277777779  L 11.9049056603773 59.5090277777779  L 14.8375471698113 60.4209722222224  L 15.0243396226413 61.3329166666668  L 16.4875471698111 61.3329166666668  L 16.1264150943395 60.241064814815  L 15.9396226415091 59.8750462962964  L 17.9569811320753 56.7669907407409  C 18.3243396226413 55.8550462962963  19.2396226415092 55.4890277777779  20.5222641509433 55.8550462962963  L 23.8284905660374 56.0349537037038  L 25.6652830188676 53.6589351851852  L 25.6652830188676 51.4628240740742  L 26.3999999999998 49.0868055555557  L 26.3999999999998 48.9068981481482  L 26.5805660377357 48.7207870370371  L 26.7611320754714 48.5408796296298  L 28.0499999999998 47.8088425925928  L 28.0499999999998 47.6227314814818  L 28.2305660377356 47.6227314814818  L 28.4173584905657 47.8088425925928  L 31.169433962264 48.1748611111113  L 31.169433962264 48.5346759259259  L 31.72358490566 50.7307870370371  L 31.72358490566 51.8226388888888  L 32.0909433962261 53.472824074074  L 32.8256603773582 53.6527314814814  L 33.7471698113205 52.3747685185185  L 33.7471698113205 52.1948611111111  L 35.2166037735847 50.1848611111111  L 35.4033962264148 49.8188425925925  L 37.4207547169807 48.9068981481481  L 37.607547169811 48.9068981481481  L 37.7881132075468 48.7207870370371  L 40.172830188679 49.452824074074  L 40.3533962264147 49.452824074074  L 40.7207547169808 49.6389351851851  L 42.0033962264147 52.1948611111111  L 42.0033962264147 54.750787037037  L 43.8401886792449 58.2248611111111  L 43.8401886792449 58.5908796296296  L 43.8401886792449 61.1530092592592  L 44.3943396226412 62.2510648148148  L 44.9422641509429 62.2510648148148  L 45.6769811320751 61.3329166666665  L 45.8575471698108 60.9668981481481  L 48.0554716981127 62.2510648148148  L 48.242264150943 62.2510648148148  L 48.4228301886787 62.2510648148148  L 48.4228301886787 62.6170833333333  L 48.4228301886787 62.7969907407406  L 49.1575471698109 65.9050462962962  L 50.0728301886787 66.4509722222222  L 50.2596226415089 66.0849537037036  L 51.1749056603768 63.7089351851851  L 51.1749056603768 63.522824074074  L 51.3554716981125 63.1568055555554  L 51.5360377358485 63.1568055555554  L 51.7228301886786 63.1568055555554  L 53.0054716981125 62.4247685185185  L 53.1860377358485 62.4247685185185  L 53.1860377358485 62.244861111111  L 54.8360377358483 62.244861111111  L 54.4686792452824 61.3267129629628  L 54.4686792452824 60.9606944444444  L 53.5533962264145 52.3685648148148  L 50.0666037735841 46.7045833333332  L 43.4603773584897 39.0306018518518  L 43.2735849056596 38.8506944444443  L 42.9062264150937 33.9125462962962  L 40.7020754716974 30.0724537037036  L 40.7020754716974 29.8863425925924  L 40.5152830188673 29.7064351851851  L 40.7020754716974 29.3404166666666  L 41.8041509433955 24.5883796296296  L 42.1715094339615 24.5883796296296  L 42.5388679245276 24.5883796296296  L 54.0950943396219 23.8563425925926  L 60.3339622641503 20.5683796296296  L 60.5145283018861 20.3884722222222  C 62.7186792452824 19.6564351851853  64.1881132075465 18.7444907407407  64.5492452830182 17.8325462962963  Z " fill-rule="evenodd" />
    </mask>
  </defs>
  <g transform="matrix(1 0 0 1 -995 -606 )">
    <path d="M 64.5492452830182 17.8325462962963  C 65.0971698113208 16.9143981481481  65.4645283018868 15.6364351851853  65.4645283018868 13.8063425925926  L 64.1818867924528 10.8843981481481  L 62.1645283018868 7.95624999999995  L 59.9603773584905 7.41032407407397  L 59.7735849056605 7.41032407407397  L 59.7735849056605 7.23041666666666  L 59.5930188679246 7.23041666666666  L 57.7624528301886 6.31847222222223  L 57.3950943396226 6.31847222222223  L 56.6603773584906 6.49837962962965  L 54.2756603773586 6.8643981481481  L 54.0888679245282 6.8643981481481  L 53.7215094339622 6.68449074074078  L 51.3367924528302 5.76634259259254  L 51.3367924528302 5.58643518518511  L 51.1562264150942 5.58643518518511  L 51.1562264150942 5.4065277777778  L 49.3256603773584 3.57643518518512  L 47.3083018867924 1.56643518518513  L 45.4715094339622 0.474583333333385  L 43.454150943396 2.29847222222224  L 40.8826415094339 4.12856481481481  L 40.1479245283019 9.61263888888891  L 40.1479245283019 9.79254629629634  L 37.7632075471697 13.8125462962964  L 37.7632075471697 14.1785648148149  L 37.5826415094339 14.1785648148149  L 35.7458490566037 16.0086574074076  L 33.5479245283018 20.2147685185186  L 33.3673584905661 20.5807870370371  C 31.717358490566 21.8649537037038  30.2479245283017 23.1429166666668  28.7784905660376 24.2347685185185  L 26.9416981132074 27.5227314814815  C 26.5743396226413 28.4346759259261  25.1111320754715 29.5327314814815  22.3590566037735 30.6307870370372  L 20.5222641509433 33.7388425925926  L 17.4028301886792 37.9449537037037  L 17.2222641509433 37.9449537037037  L 17.2222641509433 38.1248611111112  L 16.8549056603772 38.1248611111112  L 2.17924528301876 37.2129166666666  L 0.529245283018781 38.8568981481482  L 0.529245283018781 41.9649537037037  L 1.99245283018843 47.9949537037037  L 5.11188679245276 52.3809722222223  L 7.67716981132071 53.8450462962963  L 7.67716981132071 54.0249537037037  L 7.86396226415081 54.0249537037037  C 9.32716981132057 55.8488425925926  10.0618867924527 57.1330092592592  10.0618867924527 58.0449537037038  L 10.0618867924527 60.4209722222223  L 9.14660377358462 61.3329166666667  L 9.70075471698101 61.6989351851853  L 10.435471698113 61.6989351851853  L 11.5375471698112 59.5090277777779  L 11.9049056603773 59.5090277777779  L 14.8375471698113 60.4209722222224  L 15.0243396226413 61.3329166666668  L 16.4875471698111 61.3329166666668  L 16.1264150943395 60.241064814815  L 15.9396226415091 59.8750462962964  L 17.9569811320753 56.7669907407409  C 18.3243396226413 55.8550462962963  19.2396226415092 55.4890277777779  20.5222641509433 55.8550462962963  L 23.8284905660374 56.0349537037038  L 25.6652830188676 53.6589351851852  L 25.6652830188676 51.4628240740742  L 26.3999999999998 49.0868055555557  L 26.3999999999998 48.9068981481482  L 26.5805660377357 48.7207870370371  L 26.7611320754714 48.5408796296298  L 28.0499999999998 47.8088425925928  L 28.0499999999998 47.6227314814818  L 28.2305660377356 47.6227314814818  L 28.4173584905657 47.8088425925928  L 31.169433962264 48.1748611111113  L 31.169433962264 48.5346759259259  L 31.72358490566 50.7307870370371  L 31.72358490566 51.8226388888888  L 32.0909433962261 53.472824074074  L 32.8256603773582 53.6527314814814  L 33.7471698113205 52.3747685185185  L 33.7471698113205 52.1948611111111  L 35.2166037735847 50.1848611111111  L 35.4033962264148 49.8188425925925  L 37.4207547169807 48.9068981481481  L 37.607547169811 48.9068981481481  L 37.7881132075468 48.7207870370371  L 40.172830188679 49.452824074074  L 40.3533962264147 49.452824074074  L 40.7207547169808 49.6389351851851  L 42.0033962264147 52.1948611111111  L 42.0033962264147 54.750787037037  L 43.8401886792449 58.2248611111111  L 43.8401886792449 58.5908796296296  L 43.8401886792449 61.1530092592592  L 44.3943396226412 62.2510648148148  L 44.9422641509429 62.2510648148148  L 45.6769811320751 61.3329166666665  L 45.8575471698108 60.9668981481481  L 48.0554716981127 62.2510648148148  L 48.242264150943 62.2510648148148  L 48.4228301886787 62.2510648148148  L 48.4228301886787 62.6170833333333  L 48.4228301886787 62.7969907407406  L 49.1575471698109 65.9050462962962  L 50.0728301886787 66.4509722222222  L 50.2596226415089 66.0849537037036  L 51.1749056603768 63.7089351851851  L 51.1749056603768 63.522824074074  L 51.3554716981125 63.1568055555554  L 51.5360377358485 63.1568055555554  L 51.7228301886786 63.1568055555554  L 53.0054716981125 62.4247685185185  L 53.1860377358485 62.4247685185185  L 53.1860377358485 62.244861111111  L 54.8360377358483 62.244861111111  L 54.4686792452824 61.3267129629628  L 54.4686792452824 60.9606944444444  L 53.5533962264145 52.3685648148148  L 50.0666037735841 46.7045833333332  L 43.4603773584897 39.0306018518518  L 43.2735849056596 38.8506944444443  L 42.9062264150937 33.9125462962962  L 40.7020754716974 30.0724537037036  L 40.7020754716974 29.8863425925924  L 40.5152830188673 29.7064351851851  L 40.7020754716974 29.3404166666666  L 41.8041509433955 24.5883796296296  L 42.1715094339615 24.5883796296296  L 42.5388679245276 24.5883796296296  L 54.0950943396219 23.8563425925926  L 60.3339622641503 20.5683796296296  L 60.5145283018861 20.3884722222222  C 62.7186792452824 19.6564351851853  64.1881132075465 18.7444907407407  64.5492452830182 17.8325462962963  Z " fill-rule="nonzero" fill="#00ccff" stroke="none" fill-opacity="0.498039215686275" transform="matrix(1 0 0 1 995 606 )" />
    <path d="M 64.5492452830182 17.8325462962963  C 65.0971698113208 16.9143981481481  65.4645283018868 15.6364351851853  65.4645283018868 13.8063425925926  L 64.1818867924528 10.8843981481481  L 62.1645283018868 7.95624999999995  L 59.9603773584905 7.41032407407397  L 59.7735849056605 7.41032407407397  L 59.7735849056605 7.23041666666666  L 59.5930188679246 7.23041666666666  L 57.7624528301886 6.31847222222223  L 57.3950943396226 6.31847222222223  L 56.6603773584906 6.49837962962965  L 54.2756603773586 6.8643981481481  L 54.0888679245282 6.8643981481481  L 53.7215094339622 6.68449074074078  L 51.3367924528302 5.76634259259254  L 51.3367924528302 5.58643518518511  L 51.1562264150942 5.58643518518511  L 51.1562264150942 5.4065277777778  L 49.3256603773584 3.57643518518512  L 47.3083018867924 1.56643518518513  L 45.4715094339622 0.474583333333385  L 43.454150943396 2.29847222222224  L 40.8826415094339 4.12856481481481  L 40.1479245283019 9.61263888888891  L 40.1479245283019 9.79254629629634  L 37.7632075471697 13.8125462962964  L 37.7632075471697 14.1785648148149  L 37.5826415094339 14.1785648148149  L 35.7458490566037 16.0086574074076  L 33.5479245283018 20.2147685185186  L 33.3673584905661 20.5807870370371  C 31.717358490566 21.8649537037038  30.2479245283017 23.1429166666668  28.7784905660376 24.2347685185185  L 26.9416981132074 27.5227314814815  C 26.5743396226413 28.4346759259261  25.1111320754715 29.5327314814815  22.3590566037735 30.6307870370372  L 20.5222641509433 33.7388425925926  L 17.4028301886792 37.9449537037037  L 17.2222641509433 37.9449537037037  L 17.2222641509433 38.1248611111112  L 16.8549056603772 38.1248611111112  L 2.17924528301876 37.2129166666666  L 0.529245283018781 38.8568981481482  L 0.529245283018781 41.9649537037037  L 1.99245283018843 47.9949537037037  L 5.11188679245276 52.3809722222223  L 7.67716981132071 53.8450462962963  L 7.67716981132071 54.0249537037037  L 7.86396226415081 54.0249537037037  C 9.32716981132057 55.8488425925926  10.0618867924527 57.1330092592592  10.0618867924527 58.0449537037038  L 10.0618867924527 60.4209722222223  L 9.14660377358462 61.3329166666667  L 9.70075471698101 61.6989351851853  L 10.435471698113 61.6989351851853  L 11.5375471698112 59.5090277777779  L 11.9049056603773 59.5090277777779  L 14.8375471698113 60.4209722222224  L 15.0243396226413 61.3329166666668  L 16.4875471698111 61.3329166666668  L 16.1264150943395 60.241064814815  L 15.9396226415091 59.8750462962964  L 17.9569811320753 56.7669907407409  C 18.3243396226413 55.8550462962963  19.2396226415092 55.4890277777779  20.5222641509433 55.8550462962963  L 23.8284905660374 56.0349537037038  L 25.6652830188676 53.6589351851852  L 25.6652830188676 51.4628240740742  L 26.3999999999998 49.0868055555557  L 26.3999999999998 48.9068981481482  L 26.5805660377357 48.7207870370371  L 26.7611320754714 48.5408796296298  L 28.0499999999998 47.8088425925928  L 28.0499999999998 47.6227314814818  L 28.2305660377356 47.6227314814818  L 28.4173584905657 47.8088425925928  L 31.169433962264 48.1748611111113  L 31.169433962264 48.5346759259259  L 31.72358490566 50.7307870370371  L 31.72358490566 51.8226388888888  L 32.0909433962261 53.472824074074  L 32.8256603773582 53.6527314814814  L 33.7471698113205 52.3747685185185  L 33.7471698113205 52.1948611111111  L 35.2166037735847 50.1848611111111  L 35.4033962264148 49.8188425925925  L 37.4207547169807 48.9068981481481  L 37.607547169811 48.9068981481481  L 37.7881132075468 48.7207870370371  L 40.172830188679 49.452824074074  L 40.3533962264147 49.452824074074  L 40.7207547169808 49.6389351851851  L 42.0033962264147 52.1948611111111  L 42.0033962264147 54.750787037037  L 43.8401886792449 58.2248611111111  L 43.8401886792449 58.5908796296296  L 43.8401886792449 61.1530092592592  L 44.3943396226412 62.2510648148148  L 44.9422641509429 62.2510648148148  L 45.6769811320751 61.3329166666665  L 45.8575471698108 60.9668981481481  L 48.0554716981127 62.2510648148148  L 48.242264150943 62.2510648148148  L 48.4228301886787 62.2510648148148  L 48.4228301886787 62.6170833333333  L 48.4228301886787 62.7969907407406  L 49.1575471698109 65.9050462962962  L 50.0728301886787 66.4509722222222  L 50.2596226415089 66.0849537037036  L 51.1749056603768 63.7089351851851  L 51.1749056603768 63.522824074074  L 51.3554716981125 63.1568055555554  L 51.5360377358485 63.1568055555554  L 51.7228301886786 63.1568055555554  L 53.0054716981125 62.4247685185185  L 53.1860377358485 62.4247685185185  L 53.1860377358485 62.244861111111  L 54.8360377358483 62.244861111111  L 54.4686792452824 61.3267129629628  L 54.4686792452824 60.9606944444444  L 53.5533962264145 52.3685648148148  L 50.0666037735841 46.7045833333332  L 43.4603773584897 39.0306018518518  L 43.2735849056596 38.8506944444443  L 42.9062264150937 33.9125462962962  L 40.7020754716974 30.0724537037036  L 40.7020754716974 29.8863425925924  L 40.5152830188673 29.7064351851851  L 40.7020754716974 29.3404166666666  L 41.8041509433955 24.5883796296296  L 42.1715094339615 24.5883796296296  L 42.5388679245276 24.5883796296296  L 54.0950943396219 23.8563425925926  L 60.3339622641503 20.5683796296296  L 60.5145283018861 20.3884722222222  C 62.7186792452824 19.6564351851853  64.1881132075465 18.7444907407407  64.5492452830182 17.8325462962963  Z " stroke-width="4" stroke="#00ccff" fill="none" stroke-opacity="0.498039215686275" transform="matrix(1 0 0 1 995 606 )" mask="url(#clip501)" />
  </g>
</svg>