<?xml version="1.0" encoding="utf-8"?>
<svg version="1.1" xmlns:xlink="http://www.w3.org/1999/xlink" width="328px" height="279px" xmlns="http://www.w3.org/2000/svg">
  <defs>
    <mask fill="white" id="clip487">
      <path d="M 320.350815939279 34.9122828507795  L 321.066565464896 29.7921046770601  L 319.784440227704 25.7593429844098  L 316.47954459203 20.0861358574611  L 313.728576850095 18.6196770601337  L 310.97760910816 20.0861358574611  L 309.328273244782 23.3794543429844  L 309.14155597723 23.7460690423163  L 308.774345351044 23.7460690423163  L 308.587628083492 23.7460690423163  L 303.459127134725 24.6594988864143  C 302.905199240987 25.0261135857461  302.357495256167 25.2125278396437  301.990284629981 25.7593429844098  L 300.888652751423 27.0393875278397  L 298.137685009488 29.2328619153676  L 297.403263757116 29.5994766146994  L 295.025730550285 29.9723051224944  C 293.924098671727 29.7921046770601  292.274762808349 28.8724610244989  290.077722960152 27.2258017817372  L 289.891005692599 27.0456013363029  C 286.225123339658 23.3856681514477  284.389070208729 20.8193652561247  284.389070208729 19.3591202672606  L 284.389070208729 14.5993429844098  L 284.389070208729 14.4191425389755  L 284.389070208729 14.2389420935413  L 284.942998102467 13.31929844098  L 279.627779886148 11.492438752784  L 279.441062618596 13.31929844098  C 279.441062618596 13.8661135857461  278.893358633776 14.5993429844098  277.972220113852 15.1523719376393  L 276.136166982922 15.885601336303  L 275.407969639469 15.7054008908686  L 275.407969639469 15.5189866369711  L 272.657001897533 14.972171492205  L 273.210929791271 16.9854454342985  L 268.443415559772 13.8723273942094  L 268.250474383302 13.8723273942094  L 268.069981024668 13.6859131403118  C 267.335559772296 11.6726391982183  266.96834914611 9.65936525612477  266.96834914611 7.46589086859694  C 266.96834914611 5.63281737193768  267.155066413662 4.53297327394216  267.883263757116 3.79974387527847  L 268.984895635674 1.78646993318489  L 268.617685009488 0.139810690423246  L 263.84394686907 0.873040089086885  C 261.460189753321 1.05324053452119  259.810853889943 2.51969933184859  258.895939278937 5.2662026726058  L 258.895939278937 5.45261692650337  L 256.144971537002 9.66557906458803  L 258.895939278937 9.47916481069052  L 259.082656546489 9.47916481069052  L 259.263149905123 9.29896436525621  L 259.449867172676 9.66557906458803  L 261.646907020873 10.579008908686  L 262.014117647059 10.579008908686  L 262.375104364326 10.7654231625835  L 262.375104364326 11.3122383073497  L 262.742314990512 15.1585857461025  L 263.84394686907 18.824732739421  L 263.84394686907 19.0049331848552  L 263.84394686907 19.1851336302896  L 263.84394686907 19.3715478841871  L 257.79430740038 31.2709910913141  C 256.69889943074 32.9176503340757  256.144971537002 37.3108129175947  255.777760910816 43.9036636971047  L 255.777760910816 44.4504788418708  L 253.394003795066 49.0300556792873  L 255.043339658444 50.8631291759466  L 255.043339658444 51.2297438752785  C 255.230056925996 53.9762472160357  255.043339658444 55.6229064587974  254.308918406072 55.9895211581293  L 253.761214421252 56.1697216035635  C 252.479089184061 56.9029510022272  248.259278937381 61.2961135857461  241.475218216319 69.5356236080179  L 240.927514231499 70.0886525612473  L 240.560303605313 69.908452115813  L 240.012599620493 69.5418374164811  C 237.628842504744 67.8951781737194  235.431802656546 66.4287193763921  234.143453510436 64.9622605790646  C 233.041821631879 64.229031180401  230.290853889943 63.6822160356348  225.710056925996 63.6822160356348  L 225.529563567362 72.1019265033408  L 225.34284629981 72.2821269487751  L 222.044174573055 88.2081180400892  C 221.309753320683 90.2213919821826  221.123036053131 93.8875389755011  221.123036053131 99.3743318485524  L 222.405161290323 101.020991091314  L 223.50679316888 98.8275167037862  L 223.693510436433 98.8275167037862  L 223.874003795066 98.4609020044544  L 228.093814041746 96.2674276169266  L 239.825882352941 98.0942873051225  L 241.114231499051 96.6340423162584  L 242.763567362429 93.7011247216035  L 243.130777988615 93.5209242761693  L 243.317495256167 93.3345100222717  L 247.904516129032 92.4210801781738  L 253.954155597723 92.054465478842  C 255.790208728653 92.4210801781738  257.98724857685 94.8009688195992  260.738216318786 98.4609020044544  C 268.076204933586 102.12083518931  272.109297912713 105.420367483296  273.024212523719 108.347071269488  C 273.571916508539 109.813530066815  273.571916508539 110.913374164811  273.024212523719 112.193418708241  C 272.476508538899 113.47346325167  271.194383301708 114.206692650334  269.358330170778 114.386893095768  L 269.171612903226 114.386893095768  C 260.190512333966 114.020278396437  255.049563567362 114.020278396437  253.213510436433 114.573307349666  L 248.813206831119 117.500011135858  C 243.311271347249 121.526559020045  239.645388994307 123.539832962138  237.628842504744 123.539832962138  L 233.962960151803 124.092861915368  L 231.759696394687 133.245801781737  C 231.211992409867 135.992305122494  230.290853889943 137.825378619154  228.641518026565 139.105423162584  C 227.17889943074 140.571881959911  224.975635673624 141.485311804009  222.044174573055 142.038340757238  C 218.558785578748 142.585155902004  215.627324478178 143.871414253898  212.876356736243 145.518073496659  L 209.758178368121 152.110924276169  L 209.571461100569 152.297338530067  L 209.390967741935 152.297338530067  L 209.204250474383 152.297338530067  L 200.770853889943 155.777071269488  L 200.216925996205 155.777071269488  L 196.003339658444 154.86364142539  C 192.704667931689 154.31061247216  190.134193548387 153.397182628062  188.478633776091 152.297338530067  C 186.281593927894 151.197494432071  183.897836812144 151.017293986637  181.327362428843 151.744309576837  C 179.130322580645 154.857427616927  178.028690702087 158.703775055679  178.209184060721 162.910523385301  C 178.395901328273 165.103997772829  178.943605313093 166.570456570156  179.491309297913 166.937071269488  L 180.779658444023 166.756870824054  L 182.248500948767 165.843440979956  L 182.615711574953 171.703062360802  C 182.615711574953 173.710122494432  181.881290322581 175.17658129176  180.412447817837 176.276425389755  C 179.491309297913 177.009654788419  177.848197343454 177.742884187082  175.458216318786 178.469899777283  L 173.99559772296 178.836514476615  C 172.15954459203 179.569743875278  168.306944971537 184.509721603564  162.624516129032 193.482461024499  L 162.624516129032 193.668875278396  L 162.444022770399 193.668875278396  L 156.942087286527 196.968407572383  C 157.863225806452 196.968407572383  158.410929791271 197.335022271715  158.224212523719 198.068251670379  C 158.043719165085 198.801481069042  157.489791271347 198.981681514477  156.027172675522 199.168095768374  L 140.442504743833 198.801481069042  C 123.021783681214 198.248452115813  109.453662239089 203.014443207127  99.7319165085388 212.90061247216  L 99.5451992409868 213.080812917595  L 99.1779886148008 213.261013363029  L 98.997495256167 213.261013363029  L 92.5806451612905 213.994242761693  L 92.2134345351044 214.174443207127  L 91.8462239089184 214.174443207127  L 90.0101707779887 209.781280623608  L 83.4066034155597 211.42793986637  C 79.9212144212524 211.608140311804  75.3404174573055 210.694710467706  70.2056925996204 208.128407572383  C 65.4381783681215 206.11513363029  61.2183681214422 203.368630289532  56.9985578747628 200.075311804009  C 54.2475901328274 197.875623608018  50.7622011385199 196.409164810691  46.7291081593928 195.68214922049  L 40.8599620493359 195.129120267261  L 34.256394686907 196.048763919822  C 29.488880455408 196.775779510022  24.7213662239089 196.775779510022  20.3210626185958 196.415378619154  C 15.005844402277 196.048763919822  8.58277039848201 194.588518930958  0.883795066413654 192.202416481069  L 0.329867172675506 193.302260579065  L 0.516584440227746 193.302260579065  L 0.697077798861471 193.302260579065  L 0.883795066413654 193.482461024499  L 0.883795066413654 193.668875278397  L 1.06428842504749 195.501948775056  L 2.71984819734354 198.981681514477  L 6.5662239089184 203.747672605791  L 6.75294117647064 204.294487750557  L 6.01851992409871 207.774220489978  L 6.01851992409871 207.960634743876  L 5.83802656546499 207.960634743876  L 3.63476280834919 210.887338530067  L 6.01851992409871 213.267227171492  C 6.93965844402288 214.18065701559  7.48113851992423 214.913886414254  7.48113851992423 215.647115812918  L 8.03506641366226 219.126848552339  L 10.7860341555977 221.873351893096  L 10.7860341555977 222.239966592428  L 11.1532447817837 224.619855233853  L 11.1532447817837 226.446714922049  L 12.8025806451614 227.732973273942  L 13.9042125237192 227.36635857461  L 14.0847058823529 226.813329621381  C 14.6324098671727 225.346870824054  15.5473244781783 224.61364142539  16.8356736242883 224.433440979956  L 18.3045161290323 223.886625835189  L 28.0262618595825 222.966982182628  L 31.878861480076 221.500523385301  L 32.246072106262 221.320322939867  L 32.7937760910817 220.953708240535  L 34.8103225806452 225.346870824054  L 34.990815939279 225.346870824054  C 35.177533206831 226.440501113586  34.990815939279 227.360144766147  34.4431119544591 228.273574610245  L 29.1216698292221 235.786069042316  L 29.488880455408 237.066113585746  L 31.8726375711576 239.446002227172  L 34.2563946869071 240.912461024499  L 34.4431119544594 240.912461024499  C 35.544743833017 242.378919821826  36.4596584440229 243.292349665924  37.5550664136624 243.658964365256  C 38.8371916508539 244.025579064588  40.1255407969641 245.125423162584  41.2271726755219 246.591881959911  L 41.4076660341557 247.138697104677  L 43.2437191650855 247.871926503341  L 43.7914231499051 248.058340757238  L 43.9719165085389 248.058340757238  L 44.5258444022772 250.071614699332  L 44.7063377609108 252.084888641426  L 45.4407590132827 255.01780623608  L 50.0215559772296 255.751035634744  L 50.3887666034157 255.751035634744  L 50.5692599620493 255.937449888642  L 50.5692599620493 256.117650334076  L 50.7559772296015 256.484265033408  L 52.0443263757116 259.044354120267  L 55.7102087286527 260.324398663697  L 58.2744592030361 259.044354120267  L 57.9072485768501 257.584109131403  L 55.5234914611005 255.384420935412  L 55.8907020872865 255.01780623608  L 55.8907020872865 254.651191536748  L 57.9072485768501 250.804844097996  L 62.3075521821632 250.804844097996  L 62.488045540797 250.991258351893  L 68.7244022770398 253.184732739421  L 72.2097912713472 252.637917594655  L 74.9607590132827 250.071614699332  C 78.0789373814041 246.225267260579  80.0954838709677 244.578608017818  81.3776091081593 245.498251670379  L 82.8464516129033 245.311837416481  C 84.4957874762808 245.311837416481  85.4107020872865 245.498251670379  85.9646299810245 245.678452115813  C 86.1451233396583 246.045066815145  86.3318406072106 246.411681514477  86.3318406072106 246.778296213809  C 86.3318406072106 247.505311804009  87.0662618595824 248.971770601336  88.1678937381403 250.98504454343  L 88.1678937381403 251.165244988864  L 88.1678937381403 251.351659242762  L 88.7218216318785 253.911748329621  L 88.7218216318785 254.464777282851  L 87.9874003795067 257.391481069042  L 87.9874003795067 257.57789532294  L 87.8006831119545 257.758095768374  L 84.682504743833 261.41802895323  L 84.5020113851994 261.598229398664  L 77.9046679316889 264.524933184855  L 76.9835294117648 266.358006681515  L 76.068614800759 271.664599109132  L 76.6225426944972 274.230902004454  L 78.2718785578747 276.977405345212  L 79.0000759013282 277.524220489978  L 81.203339658444 278.990679287305  L 88.9085388994308 278.990679287305  L 95.3253889943072 278.077249443207  L 96.240303605313 277.157605790646  C 97.1552182163189 276.05776169265  98.0763567362429 275.691146993319  98.6240607210625 275.691146993319  L 103.024364326376 276.424376391982  L 103.391574952562 275.691146993319  C 103.024364326376 274.411102449889  103.024364326376 273.311258351893  103.758785578748 272.211414253898  L 105.594838709678 269.098296213809  L 105.594838709678 263.238674832962  L 105.594838709678 263.052260579065  L 108.893510436433 253.532706013363  L 109.074003795066 253.352505567929  L 109.074003795066 253.166091314031  L 109.2544971537 253.166091314031  L 109.2544971537 252.985890868597  L 114.936925996205 248.406314031181  L 115.304136622391 248.039699331849  L 120.258368121442 250.23938752784  C 122.822618595825 252.066247216036  124.110967741936 253.532706013363  124.110967741936 254.452349665924  L 123.74375711575 258.478897550111  L 122.094421252372 261.045200445434  L 120.81229601518 264.711347438753  L 120.81229601518 268.73789532294  L 122.094421252372 270.570968819599  L 123.74375711575 270.384554565702  L 124.110967741936 270.204354120267  L 126.861935483871 270.384554565702  C 128.330777988615 271.117783964365  129.245692599621 272.404042316258  129.980113851992 274.230902004454  L 131.62944971537 274.777717149221  L 131.816166982922 274.777717149221  L 132.002884250474 274.777717149221  L 138.233017077799 277.710634743875  L 140.983984819734 278.624064587973  L 144.836584440228 278.077249443207  L 146.485920303605 275.877561247216  L 148.689184060721 266.904821826281  L 148.869677419355 261.958630289532  L 148.869677419355 261.592015590201  L 149.236888045541 261.411815144766  L 149.423605313093 261.225400890869  L 152.9089943074 258.298697104677  L 154.925540796964 255.732394209354  L 155.106034155598 255.55219376392  L 158.771916508539 253.899320712695  L 160.968956356736 252.619276169265  L 163.719924098672 251.51943207127  L 162.257305502846 246.026425389755  L 168.493662239089 246.759654788419  L 168.493662239089 246.939855233853  L 171.792333965844 248.219899777283  L 171.792333965844 248.033485523385  L 172.713472485768 244.559966592428  L 172.713472485768 244.006937639198  L 173.267400379506 244.187138084633  L 173.634611005692 244.187138084633  L 176.566072106262 244.920367483296  L 178.034914611006 244.920367483296  L 180.785882352941 241.807249443207  L 180.966375711575 241.807249443207  L 181.153092979127 241.62083518931  L 181.333586337761 241.62083518931  L 185.00569259962 240.887605790646  L 188.123870967742 237.954688195991  L 189.773206831119 235.574799554566  L 189.773206831119 232.648095768374  C 189.773206831119 231.548251670379  190.320910815939 230.815022271715  191.422542694497 230.268207126949  L 191.789753320683 230.268207126949  L 191.970246679317 230.268207126949  L 195.455635673624 230.634821826281  L 196.918254269449 229.721391982183  L 197.472182163187 227.15508908686  L 201.138064516129 226.055244988864  L 201.324781783681 226.055244988864  L 201.505275142315 226.055244988864  L 206.09229601518 226.608273942094  L 209.758178368121 225.688630289533  L 211.955218216318 223.495155902005  L 213.424060721062 220.56223830735  L 210.673092979127 217.635534521158  L 210.673092979127 217.455334075724  L 210.125388994307 215.255645879733  L 209.390967741935 211.962327394209  L 209.390967741935 211.782126948775  L 211.040303605313 208.855423162584  C 211.040303605313 207.941993318486  211.588007590132 206.655734966592  213.056850094876 205.195489977728  L 215.07339658444 201.168942093541  L 215.07339658444 200.982527839644  L 215.260113851992 200.982527839644  L 217.096166982922 198.049610244989  L 219.847134724857 192.556603563474  L 222.411385199241 196.21653674833  L 222.591878557874 196.402951002227  L 222.591878557874 196.583151447662  L 223.513017077799 200.24929844098  L 223.513017077799 200.429498886414  L 224.060721062618 204.095645879733  L 226.63119544592 205.195489977728  L 226.811688804554 205.195489977728  L 227.546110056925 205.56210467706  L 227.732827324478 205.375690423163  L 229.929867172675 201.535556792873  L 231.218216318785 197.875623608018  L 231.765920303605 198.055824053452  L 232.319848197343 198.236024498887  L 237.635066413662 200.069097995546  L 240.199316888045 198.055824053452  L 240.386034155597 197.875623608018  L 240.753244781783 197.875623608018  L 243.323719165085 197.68920935412  L 245.153548387096 194.576091314031  L 245.153548387096 190.729743875278  L 246.441897533206 184.870122494432  L 246.809108159392 185.05653674833  L 247.36303605313 185.05653674833  L 251.396129032258 185.969966592428  L 253.225958254269 182.676648106904  L 253.412675521821 182.676648106904  L 253.779886148007 182.676648106904  L 257.451992409867 182.310033407573  L 257.999696394687 182.310033407573  L 257.999696394687 182.490233853007  L 258.366907020872 182.670434298441  L 260.202960151802 185.230523385301  L 260.202960151802 185.416937639198  L 260.389677419355 185.597138084633  L 260.389677419355 185.963752783965  L 260.750664136622 189.629899777283  L 262.586717267552 191.276559020045  L 265.150967741935 188.896670378619  L 265.704895635673 189.629899777283  C 266.626034155597 190.543329621381  266.987020872865 191.462973273942  266.987020872865 192.556603563474  L 266.987020872865 195.849922048998  L 265.704895635673 199.149454342985  L 266.626034155597 200.615913140312  L 268.455863377609 202.629187082406  L 276.154838709677 203.729031180401  L 276.341555977229 203.909231625835  L 276.708766603415 204.095645879733  L 277.256470588235 204.642461024499  L 279.459734345351 201.52934298441  L 279.646451612903 201.52934298441  L 281.482504743833 199.696269487751  L 280.748083491461 196.949766146994  L 278.731537001897 185.230523385301  L 284.046755218216 187.796826280624  L 284.22724857685 187.796826280624  L 284.407741935484 187.796826280624  L 286.791499051233 190.723530066815  L 288.260341555977 192.183775055679  L 290.463605313093 190.723530066815  L 298.162580645161 182.303819599109  L 298.349297912713 182.303819599109  L 301.100265654649 180.284331848552  L 304.21844402277 175.891169265033  L 304.405161290322 175.524554565702  L 308.618747628083 176.624398663697  L 310.641518026565 176.624398663697  C 310.641518026565 174.977739420936  311.008728652751 173.87789532294  311.189222011385 173.144665924276  L 314.307400379506 169.484732739421  L 315.22853889943 168.931703786192  L 318.894421252371 170.211748329622  L 323.294724857685 169.664933184855  L 326.232409867172 166.551815144766  L 327.695028462998 163.805311804009  L 326.780113851992 162.338853006682  L 324.215863377609 163.625111358575  L 324.035370018975 163.44491091314  L 323.848652751423 163.258496659243  L 320.549981024668 160.331792873051  L 320.369487666034 160.145378619154  L 321.657836812144 155.199187082405  L 322.018823529412 151.53925389755  L 321.103908918406 148.426135857461  L 318.539658444022 147.512706013363  L 318.539658444022 147.326291759466  L 318.35294117647 147.139877505568  L 318.172447817837 146.959677060134  L 315.969184060721 142.560300668152  L 315.601973434535 142.013485523385  L 312.483795066413 145.679632516704  L 309.365616698292 147.692906458798  L 308.63119544592 148.059521158129  L 308.450702087286 147.879320712695  L 308.263984819734 147.512706013363  L 304.965313092979 144.399587973274  L 304.965313092979 144.21938752784  L 302.58155597723 139.092995545657  L 302.58155597723 138.912795100223  L 301.479924098672 135.252861915368  L 301.479924098672 135.072661469933  L 301.479924098672 129.579654788419  L 301.112713472486 126.286336302895  L 298.542239089184 125.366692650334  L 298.36174573055 125.366692650334  L 298.36174573055 125.1864922049  L 292.492599620493 120.606915367483  L 292.853586337761 120.053886414254  L 295.604554079696 117.127182628062  L 295.604554079696 116.940768374165  L 295.604554079696 116.760567928731  L 295.971764705882 116.760567928731  L 299.089943074004 116.393953229399  L 299.276660341556 116.393953229399  C 300.191574952562 116.393953229399  301.112713472486 116.940768374165  301.840910815939 117.860412026726  L 304.405161290322 119.87368596882  L 307.156129032258 117.680211581292  L 309.172675521821 114.933708240535  L 309.172675521821 112.553819599109  L 308.43825426945 106.694198218263  L 307.89055028463 104.314309576838  L 303.851233396584 103.581080178174  L 303.851233396584 101.201191536748  L 300.185351043643 96.6278285077952  L 300.004857685009 96.4414142538977  L 298.16880455408 93.1480957683742  L 297.801593927894 92.7814810690424  L 297.801593927894 92.4148663697106  L 301.834686907021 87.1020601336304  L 301.834686907021 86.921859688196  L 302.015180265655 86.7354454342985  L 302.015180265655 86.549031180401  L 302.38239089184 86.549031180401  L 304.031726755218 86.3688307349667  L 306.048273244782 84.722171492205  L 308.432030360531 77.3960913140313  L 308.612523719165 77.3960913140313  L 308.612523719165 77.2096770601337  L 311.550208728653 73.9163585746103  L 311.550208728653 73.736158129176  L 311.730702087286 73.736158129176  L 311.91119544592 73.736158129176  L 315.216091081594 72.8165144766148  L 315.216091081594 73.1831291759466  L 317.413130929791 75.0162026726058  L 318.147552182163 75.2026169265034  L 319.429677419354 69.5231959910914  L 318.147552182163 65.4966481069043  L 317.967058823529 65.3102338530068  L 317.967058823529 64.9436191536749  L 318.514762808349 60.3640423162584  L 318.514762808349 59.9974276169265  L 320.718026565465 57.6175389755012  L 322.186869070209 55.0574498886415  L 322.367362428842 52.8577616926504  C 322.367362428842 51.7579175946548  321.819658444022 49.9310579064588  320.718026565465 47.1845545657017  L 320.718026565465 42.7913919821827  L 320.718026565465 42.6049777282851  L 321.639165085389 38.7586302895323  C 320.904743833017 37.1119710467707  320.350815939279 35.8319265033408  320.350815939279 34.9122828507795  Z " fill-rule="evenodd" />
    </mask>
  </defs>
  <g transform="matrix(1 0 0 1 -888 -232 )">
    <path d="M 320.350815939279 34.9122828507795  L 321.066565464896 29.7921046770601  L 319.784440227704 25.7593429844098  L 316.47954459203 20.0861358574611  L 313.728576850095 18.6196770601337  L 310.97760910816 20.0861358574611  L 309.328273244782 23.3794543429844  L 309.14155597723 23.7460690423163  L 308.774345351044 23.7460690423163  L 308.587628083492 23.7460690423163  L 303.459127134725 24.6594988864143  C 302.905199240987 25.0261135857461  302.357495256167 25.2125278396437  301.990284629981 25.7593429844098  L 300.888652751423 27.0393875278397  L 298.137685009488 29.2328619153676  L 297.403263757116 29.5994766146994  L 295.025730550285 29.9723051224944  C 293.924098671727 29.7921046770601  292.274762808349 28.8724610244989  290.077722960152 27.2258017817372  L 289.891005692599 27.0456013363029  C 286.225123339658 23.3856681514477  284.389070208729 20.8193652561247  284.389070208729 19.3591202672606  L 284.389070208729 14.5993429844098  L 284.389070208729 14.4191425389755  L 284.389070208729 14.2389420935413  L 284.942998102467 13.31929844098  L 279.627779886148 11.492438752784  L 279.441062618596 13.31929844098  C 279.441062618596 13.8661135857461  278.893358633776 14.5993429844098  277.972220113852 15.1523719376393  L 276.136166982922 15.885601336303  L 275.407969639469 15.7054008908686  L 275.407969639469 15.5189866369711  L 272.657001897533 14.972171492205  L 273.210929791271 16.9854454342985  L 268.443415559772 13.8723273942094  L 268.250474383302 13.8723273942094  L 268.069981024668 13.6859131403118  C 267.335559772296 11.6726391982183  266.96834914611 9.65936525612477  266.96834914611 7.46589086859694  C 266.96834914611 5.63281737193768  267.155066413662 4.53297327394216  267.883263757116 3.79974387527847  L 268.984895635674 1.78646993318489  L 268.617685009488 0.139810690423246  L 263.84394686907 0.873040089086885  C 261.460189753321 1.05324053452119  259.810853889943 2.51969933184859  258.895939278937 5.2662026726058  L 258.895939278937 5.45261692650337  L 256.144971537002 9.66557906458803  L 258.895939278937 9.47916481069052  L 259.082656546489 9.47916481069052  L 259.263149905123 9.29896436525621  L 259.449867172676 9.66557906458803  L 261.646907020873 10.579008908686  L 262.014117647059 10.579008908686  L 262.375104364326 10.7654231625835  L 262.375104364326 11.3122383073497  L 262.742314990512 15.1585857461025  L 263.84394686907 18.824732739421  L 263.84394686907 19.0049331848552  L 263.84394686907 19.1851336302896  L 263.84394686907 19.3715478841871  L 257.79430740038 31.2709910913141  C 256.69889943074 32.9176503340757  256.144971537002 37.3108129175947  255.777760910816 43.9036636971047  L 255.777760910816 44.4504788418708  L 253.394003795066 49.0300556792873  L 255.043339658444 50.8631291759466  L 255.043339658444 51.2297438752785  C 255.230056925996 53.9762472160357  255.043339658444 55.6229064587974  254.308918406072 55.9895211581293  L 253.761214421252 56.1697216035635  C 252.479089184061 56.9029510022272  248.259278937381 61.2961135857461  241.475218216319 69.5356236080179  L 240.927514231499 70.0886525612473  L 240.560303605313 69.908452115813  L 240.012599620493 69.5418374164811  C 237.628842504744 67.8951781737194  235.431802656546 66.4287193763921  234.143453510436 64.9622605790646  C 233.041821631879 64.229031180401  230.290853889943 63.6822160356348  225.710056925996 63.6822160356348  L 225.529563567362 72.1019265033408  L 225.34284629981 72.2821269487751  L 222.044174573055 88.2081180400892  C 221.309753320683 90.2213919821826  221.123036053131 93.8875389755011  221.123036053131 99.3743318485524  L 222.405161290323 101.020991091314  L 223.50679316888 98.8275167037862  L 223.693510436433 98.8275167037862  L 223.874003795066 98.4609020044544  L 228.093814041746 96.2674276169266  L 239.825882352941 98.0942873051225  L 241.114231499051 96.6340423162584  L 242.763567362429 93.7011247216035  L 243.130777988615 93.5209242761693  L 243.317495256167 93.3345100222717  L 247.904516129032 92.4210801781738  L 253.954155597723 92.054465478842  C 255.790208728653 92.4210801781738  257.98724857685 94.8009688195992  260.738216318786 98.4609020044544  C 268.076204933586 102.12083518931  272.109297912713 105.420367483296  273.024212523719 108.347071269488  C 273.571916508539 109.813530066815  273.571916508539 110.913374164811  273.024212523719 112.193418708241  C 272.476508538899 113.47346325167  271.194383301708 114.206692650334  269.358330170778 114.386893095768  L 269.171612903226 114.386893095768  C 260.190512333966 114.020278396437  255.049563567362 114.020278396437  253.213510436433 114.573307349666  L 248.813206831119 117.500011135858  C 243.311271347249 121.526559020045  239.645388994307 123.539832962138  237.628842504744 123.539832962138  L 233.962960151803 124.092861915368  L 231.759696394687 133.245801781737  C 231.211992409867 135.992305122494  230.290853889943 137.825378619154  228.641518026565 139.105423162584  C 227.17889943074 140.571881959911  224.975635673624 141.485311804009  222.044174573055 142.038340757238  C 218.558785578748 142.585155902004  215.627324478178 143.871414253898  212.876356736243 145.518073496659  L 209.758178368121 152.110924276169  L 209.571461100569 152.297338530067  L 209.390967741935 152.297338530067  L 209.204250474383 152.297338530067  L 200.770853889943 155.777071269488  L 200.216925996205 155.777071269488  L 196.003339658444 154.86364142539  C 192.704667931689 154.31061247216  190.134193548387 153.397182628062  188.478633776091 152.297338530067  C 186.281593927894 151.197494432071  183.897836812144 151.017293986637  181.327362428843 151.744309576837  C 179.130322580645 154.857427616927  178.028690702087 158.703775055679  178.209184060721 162.910523385301  C 178.395901328273 165.103997772829  178.943605313093 166.570456570156  179.491309297913 166.937071269488  L 180.779658444023 166.756870824054  L 182.248500948767 165.843440979956  L 182.615711574953 171.703062360802  C 182.615711574953 173.710122494432  181.881290322581 175.17658129176  180.412447817837 176.276425389755  C 179.491309297913 177.009654788419  177.848197343454 177.742884187082  175.458216318786 178.469899777283  L 173.99559772296 178.836514476615  C 172.15954459203 179.569743875278  168.306944971537 184.509721603564  162.624516129032 193.482461024499  L 162.624516129032 193.668875278396  L 162.444022770399 193.668875278396  L 156.942087286527 196.968407572383  C 157.863225806452 196.968407572383  158.410929791271 197.335022271715  158.224212523719 198.068251670379  C 158.043719165085 198.801481069042  157.489791271347 198.981681514477  156.027172675522 199.168095768374  L 140.442504743833 198.801481069042  C 123.021783681214 198.248452115813  109.453662239089 203.014443207127  99.7319165085388 212.90061247216  L 99.5451992409868 213.080812917595  L 99.1779886148008 213.261013363029  L 98.997495256167 213.261013363029  L 92.5806451612905 213.994242761693  L 92.2134345351044 214.174443207127  L 91.8462239089184 214.174443207127  L 90.0101707779887 209.781280623608  L 83.4066034155597 211.42793986637  C 79.9212144212524 211.608140311804  75.3404174573055 210.694710467706  70.2056925996204 208.128407572383  C 65.4381783681215 206.11513363029  61.2183681214422 203.368630289532  56.9985578747628 200.075311804009  C 54.2475901328274 197.875623608018  50.7622011385199 196.409164810691  46.7291081593928 195.68214922049  L 40.8599620493359 195.129120267261  L 34.256394686907 196.048763919822  C 29.488880455408 196.775779510022  24.7213662239089 196.775779510022  20.3210626185958 196.415378619154  C 15.005844402277 196.048763919822  8.58277039848201 194.588518930958  0.883795066413654 192.202416481069  L 0.329867172675506 193.302260579065  L 0.516584440227746 193.302260579065  L 0.697077798861471 193.302260579065  L 0.883795066413654 193.482461024499  L 0.883795066413654 193.668875278397  L 1.06428842504749 195.501948775056  L 2.71984819734354 198.981681514477  L 6.5662239089184 203.747672605791  L 6.75294117647064 204.294487750557  L 6.01851992409871 207.774220489978  L 6.01851992409871 207.960634743876  L 5.83802656546499 207.960634743876  L 3.63476280834919 210.887338530067  L 6.01851992409871 213.267227171492  C 6.93965844402288 214.18065701559  7.48113851992423 214.913886414254  7.48113851992423 215.647115812918  L 8.03506641366226 219.126848552339  L 10.7860341555977 221.873351893096  L 10.7860341555977 222.239966592428  L 11.1532447817837 224.619855233853  L 11.1532447817837 226.446714922049  L 12.8025806451614 227.732973273942  L 13.9042125237192 227.36635857461  L 14.0847058823529 226.813329621381  C 14.6324098671727 225.346870824054  15.5473244781783 224.61364142539  16.8356736242883 224.433440979956  L 18.3045161290323 223.886625835189  L 28.0262618595825 222.966982182628  L 31.878861480076 221.500523385301  L 32.246072106262 221.320322939867  L 32.7937760910817 220.953708240535  L 34.8103225806452 225.346870824054  L 34.990815939279 225.346870824054  C 35.177533206831 226.440501113586  34.990815939279 227.360144766147  34.4431119544591 228.273574610245  L 29.1216698292221 235.786069042316  L 29.488880455408 237.066113585746  L 31.8726375711576 239.446002227172  L 34.2563946869071 240.912461024499  L 34.4431119544594 240.912461024499  C 35.544743833017 242.378919821826  36.4596584440229 243.292349665924  37.5550664136624 243.658964365256  C 38.8371916508539 244.025579064588  40.1255407969641 245.125423162584  41.2271726755219 246.591881959911  L 41.4076660341557 247.138697104677  L 43.2437191650855 247.871926503341  L 43.7914231499051 248.058340757238  L 43.9719165085389 248.058340757238  L 44.5258444022772 250.071614699332  L 44.7063377609108 252.084888641426  L 45.4407590132827 255.01780623608  L 50.0215559772296 255.751035634744  L 50.3887666034157 255.751035634744  L 50.5692599620493 255.937449888642  L 50.5692599620493 256.117650334076  L 50.7559772296015 256.484265033408  L 52.0443263757116 259.044354120267  L 55.7102087286527 260.324398663697  L 58.2744592030361 259.044354120267  L 57.9072485768501 257.584109131403  L 55.5234914611005 255.384420935412  L 55.8907020872865 255.01780623608  L 55.8907020872865 254.651191536748  L 57.9072485768501 250.804844097996  L 62.3075521821632 250.804844097996  L 62.488045540797 250.991258351893  L 68.7244022770398 253.184732739421  L 72.2097912713472 252.637917594655  L 74.9607590132827 250.071614699332  C 78.0789373814041 246.225267260579  80.0954838709677 244.578608017818  81.3776091081593 245.498251670379  L 82.8464516129033 245.311837416481  C 84.4957874762808 245.311837416481  85.4107020872865 245.498251670379  85.9646299810245 245.678452115813  C 86.1451233396583 246.045066815145  86.3318406072106 246.411681514477  86.3318406072106 246.778296213809  C 86.3318406072106 247.505311804009  87.0662618595824 248.971770601336  88.1678937381403 250.98504454343  L 88.1678937381403 251.165244988864  L 88.1678937381403 251.351659242762  L 88.7218216318785 253.911748329621  L 88.7218216318785 254.464777282851  L 87.9874003795067 257.391481069042  L 87.9874003795067 257.57789532294  L 87.8006831119545 257.758095768374  L 84.682504743833 261.41802895323  L 84.5020113851994 261.598229398664  L 77.9046679316889 264.524933184855  L 76.9835294117648 266.358006681515  L 76.068614800759 271.664599109132  L 76.6225426944972 274.230902004454  L 78.2718785578747 276.977405345212  L 79.0000759013282 277.524220489978  L 81.203339658444 278.990679287305  L 88.9085388994308 278.990679287305  L 95.3253889943072 278.077249443207  L 96.240303605313 277.157605790646  C 97.1552182163189 276.05776169265  98.0763567362429 275.691146993319  98.6240607210625 275.691146993319  L 103.024364326376 276.424376391982  L 103.391574952562 275.691146993319  C 103.024364326376 274.411102449889  103.024364326376 273.311258351893  103.758785578748 272.211414253898  L 105.594838709678 269.098296213809  L 105.594838709678 263.238674832962  L 105.594838709678 263.052260579065  L 108.893510436433 253.532706013363  L 109.074003795066 253.352505567929  L 109.074003795066 253.166091314031  L 109.2544971537 253.166091314031  L 109.2544971537 252.985890868597  L 114.936925996205 248.406314031181  L 115.304136622391 248.039699331849  L 120.258368121442 250.23938752784  C 122.822618595825 252.066247216036  124.110967741936 253.532706013363  124.110967741936 254.452349665924  L 123.74375711575 258.478897550111  L 122.094421252372 261.045200445434  L 120.81229601518 264.711347438753  L 120.81229601518 268.73789532294  L 122.094421252372 270.570968819599  L 123.74375711575 270.384554565702  L 124.110967741936 270.204354120267  L 126.861935483871 270.384554565702  C 128.330777988615 271.117783964365  129.245692599621 272.404042316258  129.980113851992 274.230902004454  L 131.62944971537 274.777717149221  L 131.816166982922 274.777717149221  L 132.002884250474 274.777717149221  L 138.233017077799 277.710634743875  L 140.983984819734 278.624064587973  L 144.836584440228 278.077249443207  L 146.485920303605 275.877561247216  L 148.689184060721 266.904821826281  L 148.869677419355 261.958630289532  L 148.869677419355 261.592015590201  L 149.236888045541 261.411815144766  L 149.423605313093 261.225400890869  L 152.9089943074 258.298697104677  L 154.925540796964 255.732394209354  L 155.106034155598 255.55219376392  L 158.771916508539 253.899320712695  L 160.968956356736 252.619276169265  L 163.719924098672 251.51943207127  L 162.257305502846 246.026425389755  L 168.493662239089 246.759654788419  L 168.493662239089 246.939855233853  L 171.792333965844 248.219899777283  L 171.792333965844 248.033485523385  L 172.713472485768 244.559966592428  L 172.713472485768 244.006937639198  L 173.267400379506 244.187138084633  L 173.634611005692 244.187138084633  L 176.566072106262 244.920367483296  L 178.034914611006 244.920367483296  L 180.785882352941 241.807249443207  L 180.966375711575 241.807249443207  L 181.153092979127 241.62083518931  L 181.333586337761 241.62083518931  L 185.00569259962 240.887605790646  L 188.123870967742 237.954688195991  L 189.773206831119 235.574799554566  L 189.773206831119 232.648095768374  C 189.773206831119 231.548251670379  190.320910815939 230.815022271715  191.422542694497 230.268207126949  L 191.789753320683 230.268207126949  L 191.970246679317 230.268207126949  L 195.455635673624 230.634821826281  L 196.918254269449 229.721391982183  L 197.472182163187 227.15508908686  L 201.138064516129 226.055244988864  L 201.324781783681 226.055244988864  L 201.505275142315 226.055244988864  L 206.09229601518 226.608273942094  L 209.758178368121 225.688630289533  L 211.955218216318 223.495155902005  L 213.424060721062 220.56223830735  L 210.673092979127 217.635534521158  L 210.673092979127 217.455334075724  L 210.125388994307 215.255645879733  L 209.390967741935 211.962327394209  L 209.390967741935 211.782126948775  L 211.040303605313 208.855423162584  C 211.040303605313 207.941993318486  211.588007590132 206.655734966592  213.056850094876 205.195489977728  L 215.07339658444 201.168942093541  L 215.07339658444 200.982527839644  L 215.260113851992 200.982527839644  L 217.096166982922 198.049610244989  L 219.847134724857 192.556603563474  L 222.411385199241 196.21653674833  L 222.591878557874 196.402951002227  L 222.591878557874 196.583151447662  L 223.513017077799 200.24929844098  L 223.513017077799 200.429498886414  L 224.060721062618 204.095645879733  L 226.63119544592 205.195489977728  L 226.811688804554 205.195489977728  L 227.546110056925 205.56210467706  L 227.732827324478 205.375690423163  L 229.929867172675 201.535556792873  L 231.218216318785 197.875623608018  L 231.765920303605 198.055824053452  L 232.319848197343 198.236024498887  L 237.635066413662 200.069097995546  L 240.199316888045 198.055824053452  L 240.386034155597 197.875623608018  L 240.753244781783 197.875623608018  L 243.323719165085 197.68920935412  L 245.153548387096 194.576091314031  L 245.153548387096 190.729743875278  L 246.441897533206 184.870122494432  L 246.809108159392 185.05653674833  L 247.36303605313 185.05653674833  L 251.396129032258 185.969966592428  L 253.225958254269 182.676648106904  L 253.412675521821 182.676648106904  L 253.779886148007 182.676648106904  L 257.451992409867 182.310033407573  L 257.999696394687 182.310033407573  L 257.999696394687 182.490233853007  L 258.366907020872 182.670434298441  L 260.202960151802 185.230523385301  L 260.202960151802 185.416937639198  L 260.389677419355 185.597138084633  L 260.389677419355 185.963752783965  L 260.750664136622 189.629899777283  L 262.586717267552 191.276559020045  L 265.150967741935 188.896670378619  L 265.704895635673 189.629899777283  C 266.626034155597 190.543329621381  266.987020872865 191.462973273942  266.987020872865 192.556603563474  L 266.987020872865 195.849922048998  L 265.704895635673 199.149454342985  L 266.626034155597 200.615913140312  L 268.455863377609 202.629187082406  L 276.154838709677 203.729031180401  L 276.341555977229 203.909231625835  L 276.708766603415 204.095645879733  L 277.256470588235 204.642461024499  L 279.459734345351 201.52934298441  L 279.646451612903 201.52934298441  L 281.482504743833 199.696269487751  L 280.748083491461 196.949766146994  L 278.731537001897 185.230523385301  L 284.046755218216 187.796826280624  L 284.22724857685 187.796826280624  L 284.407741935484 187.796826280624  L 286.791499051233 190.723530066815  L 288.260341555977 192.183775055679  L 290.463605313093 190.723530066815  L 298.162580645161 182.303819599109  L 298.349297912713 182.303819599109  L 301.100265654649 180.284331848552  L 304.21844402277 175.891169265033  L 304.405161290322 175.524554565702  L 308.618747628083 176.624398663697  L 310.641518026565 176.624398663697  C 310.641518026565 174.977739420936  311.008728652751 173.87789532294  311.189222011385 173.144665924276  L 314.307400379506 169.484732739421  L 315.22853889943 168.931703786192  L 318.894421252371 170.211748329622  L 323.294724857685 169.664933184855  L 326.232409867172 166.551815144766  L 327.695028462998 163.805311804009  L 326.780113851992 162.338853006682  L 324.215863377609 163.625111358575  L 324.035370018975 163.44491091314  L 323.848652751423 163.258496659243  L 320.549981024668 160.331792873051  L 320.369487666034 160.145378619154  L 321.657836812144 155.199187082405  L 322.018823529412 151.53925389755  L 321.103908918406 148.426135857461  L 318.539658444022 147.512706013363  L 318.539658444022 147.326291759466  L 318.35294117647 147.139877505568  L 318.172447817837 146.959677060134  L 315.969184060721 142.560300668152  L 315.601973434535 142.013485523385  L 312.483795066413 145.679632516704  L 309.365616698292 147.692906458798  L 308.63119544592 148.059521158129  L 308.450702087286 147.879320712695  L 308.263984819734 147.512706013363  L 304.965313092979 144.399587973274  L 304.965313092979 144.21938752784  L 302.58155597723 139.092995545657  L 302.58155597723 138.912795100223  L 301.479924098672 135.252861915368  L 301.479924098672 135.072661469933  L 301.479924098672 129.579654788419  L 301.112713472486 126.286336302895  L 298.542239089184 125.366692650334  L 298.36174573055 125.366692650334  L 298.36174573055 125.1864922049  L 292.492599620493 120.606915367483  L 292.853586337761 120.053886414254  L 295.604554079696 117.127182628062  L 295.604554079696 116.940768374165  L 295.604554079696 116.760567928731  L 295.971764705882 116.760567928731  L 299.089943074004 116.393953229399  L 299.276660341556 116.393953229399  C 300.191574952562 116.393953229399  301.112713472486 116.940768374165  301.840910815939 117.860412026726  L 304.405161290322 119.87368596882  L 307.156129032258 117.680211581292  L 309.172675521821 114.933708240535  L 309.172675521821 112.553819599109  L 308.43825426945 106.694198218263  L 307.89055028463 104.314309576838  L 303.851233396584 103.581080178174  L 303.851233396584 101.201191536748  L 300.185351043643 96.6278285077952  L 300.004857685009 96.4414142538977  L 298.16880455408 93.1480957683742  L 297.801593927894 92.7814810690424  L 297.801593927894 92.4148663697106  L 301.834686907021 87.1020601336304  L 301.834686907021 86.921859688196  L 302.015180265655 86.7354454342985  L 302.015180265655 86.549031180401  L 302.38239089184 86.549031180401  L 304.031726755218 86.3688307349667  L 306.048273244782 84.722171492205  L 308.432030360531 77.3960913140313  L 308.612523719165 77.3960913140313  L 308.612523719165 77.2096770601337  L 311.550208728653 73.9163585746103  L 311.550208728653 73.736158129176  L 311.730702087286 73.736158129176  L 311.91119544592 73.736158129176  L 315.216091081594 72.8165144766148  L 315.216091081594 73.1831291759466  L 317.413130929791 75.0162026726058  L 318.147552182163 75.2026169265034  L 319.429677419354 69.5231959910914  L 318.147552182163 65.4966481069043  L 317.967058823529 65.3102338530068  L 317.967058823529 64.9436191536749  L 318.514762808349 60.3640423162584  L 318.514762808349 59.9974276169265  L 320.718026565465 57.6175389755012  L 322.186869070209 55.0574498886415  L 322.367362428842 52.8577616926504  C 322.367362428842 51.7579175946548  321.819658444022 49.9310579064588  320.718026565465 47.1845545657017  L 320.718026565465 42.7913919821827  L 320.718026565465 42.6049777282851  L 321.639165085389 38.7586302895323  C 320.904743833017 37.1119710467707  320.350815939279 35.8319265033408  320.350815939279 34.9122828507795  Z " fill-rule="nonzero" fill="#00ccff" stroke="none" fill-opacity="0.298039215686275" transform="matrix(1 0 0 1 888 232 )" />
    <path d="M 320.350815939279 34.9122828507795  L 321.066565464896 29.7921046770601  L 319.784440227704 25.7593429844098  L 316.47954459203 20.0861358574611  L 313.728576850095 18.6196770601337  L 310.97760910816 20.0861358574611  L 309.328273244782 23.3794543429844  L 309.14155597723 23.7460690423163  L 308.774345351044 23.7460690423163  L 308.587628083492 23.7460690423163  L 303.459127134725 24.6594988864143  C 302.905199240987 25.0261135857461  302.357495256167 25.2125278396437  301.990284629981 25.7593429844098  L 300.888652751423 27.0393875278397  L 298.137685009488 29.2328619153676  L 297.403263757116 29.5994766146994  L 295.025730550285 29.9723051224944  C 293.924098671727 29.7921046770601  292.274762808349 28.8724610244989  290.077722960152 27.2258017817372  L 289.891005692599 27.0456013363029  C 286.225123339658 23.3856681514477  284.389070208729 20.8193652561247  284.389070208729 19.3591202672606  L 284.389070208729 14.5993429844098  L 284.389070208729 14.4191425389755  L 284.389070208729 14.2389420935413  L 284.942998102467 13.31929844098  L 279.627779886148 11.492438752784  L 279.441062618596 13.31929844098  C 279.441062618596 13.8661135857461  278.893358633776 14.5993429844098  277.972220113852 15.1523719376393  L 276.136166982922 15.885601336303  L 275.407969639469 15.7054008908686  L 275.407969639469 15.5189866369711  L 272.657001897533 14.972171492205  L 273.210929791271 16.9854454342985  L 268.443415559772 13.8723273942094  L 268.250474383302 13.8723273942094  L 268.069981024668 13.6859131403118  C 267.335559772296 11.6726391982183  266.96834914611 9.65936525612477  266.96834914611 7.46589086859694  C 266.96834914611 5.63281737193768  267.155066413662 4.53297327394216  267.883263757116 3.79974387527847  L 268.984895635674 1.78646993318489  L 268.617685009488 0.139810690423246  L 263.84394686907 0.873040089086885  C 261.460189753321 1.05324053452119  259.810853889943 2.51969933184859  258.895939278937 5.2662026726058  L 258.895939278937 5.45261692650337  L 256.144971537002 9.66557906458803  L 258.895939278937 9.47916481069052  L 259.082656546489 9.47916481069052  L 259.263149905123 9.29896436525621  L 259.449867172676 9.66557906458803  L 261.646907020873 10.579008908686  L 262.014117647059 10.579008908686  L 262.375104364326 10.7654231625835  L 262.375104364326 11.3122383073497  L 262.742314990512 15.1585857461025  L 263.84394686907 18.824732739421  L 263.84394686907 19.0049331848552  L 263.84394686907 19.1851336302896  L 263.84394686907 19.3715478841871  L 257.79430740038 31.2709910913141  C 256.69889943074 32.9176503340757  256.144971537002 37.3108129175947  255.777760910816 43.9036636971047  L 255.777760910816 44.4504788418708  L 253.394003795066 49.0300556792873  L 255.043339658444 50.8631291759466  L 255.043339658444 51.2297438752785  C 255.230056925996 53.9762472160357  255.043339658444 55.6229064587974  254.308918406072 55.9895211581293  L 253.761214421252 56.1697216035635  C 252.479089184061 56.9029510022272  248.259278937381 61.2961135857461  241.475218216319 69.5356236080179  L 240.927514231499 70.0886525612473  L 240.560303605313 69.908452115813  L 240.012599620493 69.5418374164811  C 237.628842504744 67.8951781737194  235.431802656546 66.4287193763921  234.143453510436 64.9622605790646  C 233.041821631879 64.229031180401  230.290853889943 63.6822160356348  225.710056925996 63.6822160356348  L 225.529563567362 72.1019265033408  L 225.34284629981 72.2821269487751  L 222.044174573055 88.2081180400892  C 221.309753320683 90.2213919821826  221.123036053131 93.8875389755011  221.123036053131 99.3743318485524  L 222.405161290323 101.020991091314  L 223.50679316888 98.8275167037862  L 223.693510436433 98.8275167037862  L 223.874003795066 98.4609020044544  L 228.093814041746 96.2674276169266  L 239.825882352941 98.0942873051225  L 241.114231499051 96.6340423162584  L 242.763567362429 93.7011247216035  L 243.130777988615 93.5209242761693  L 243.317495256167 93.3345100222717  L 247.904516129032 92.4210801781738  L 253.954155597723 92.054465478842  C 255.790208728653 92.4210801781738  257.98724857685 94.8009688195992  260.738216318786 98.4609020044544  C 268.076204933586 102.12083518931  272.109297912713 105.420367483296  273.024212523719 108.347071269488  C 273.571916508539 109.813530066815  273.571916508539 110.913374164811  273.024212523719 112.193418708241  C 272.476508538899 113.47346325167  271.194383301708 114.206692650334  269.358330170778 114.386893095768  L 269.171612903226 114.386893095768  C 260.190512333966 114.020278396437  255.049563567362 114.020278396437  253.213510436433 114.573307349666  L 248.813206831119 117.500011135858  C 243.311271347249 121.526559020045  239.645388994307 123.539832962138  237.628842504744 123.539832962138  L 233.962960151803 124.092861915368  L 231.759696394687 133.245801781737  C 231.211992409867 135.992305122494  230.290853889943 137.825378619154  228.641518026565 139.105423162584  C 227.17889943074 140.571881959911  224.975635673624 141.485311804009  222.044174573055 142.038340757238  C 218.558785578748 142.585155902004  215.627324478178 143.871414253898  212.876356736243 145.518073496659  L 209.758178368121 152.110924276169  L 209.571461100569 152.297338530067  L 209.390967741935 152.297338530067  L 209.204250474383 152.297338530067  L 200.770853889943 155.777071269488  L 200.216925996205 155.777071269488  L 196.003339658444 154.86364142539  C 192.704667931689 154.31061247216  190.134193548387 153.397182628062  188.478633776091 152.297338530067  C 186.281593927894 151.197494432071  183.897836812144 151.017293986637  181.327362428843 151.744309576837  C 179.130322580645 154.857427616927  178.028690702087 158.703775055679  178.209184060721 162.910523385301  C 178.395901328273 165.103997772829  178.943605313093 166.570456570156  179.491309297913 166.937071269488  L 180.779658444023 166.756870824054  L 182.248500948767 165.843440979956  L 182.615711574953 171.703062360802  C 182.615711574953 173.710122494432  181.881290322581 175.17658129176  180.412447817837 176.276425389755  C 179.491309297913 177.009654788419  177.848197343454 177.742884187082  175.458216318786 178.469899777283  L 173.99559772296 178.836514476615  C 172.15954459203 179.569743875278  168.306944971537 184.509721603564  162.624516129032 193.482461024499  L 162.624516129032 193.668875278396  L 162.444022770399 193.668875278396  L 156.942087286527 196.968407572383  C 157.863225806452 196.968407572383  158.410929791271 197.335022271715  158.224212523719 198.068251670379  C 158.043719165085 198.801481069042  157.489791271347 198.981681514477  156.027172675522 199.168095768374  L 140.442504743833 198.801481069042  C 123.021783681214 198.248452115813  109.453662239089 203.014443207127  99.7319165085388 212.90061247216  L 99.5451992409868 213.080812917595  L 99.1779886148008 213.261013363029  L 98.997495256167 213.261013363029  L 92.5806451612905 213.994242761693  L 92.2134345351044 214.174443207127  L 91.8462239089184 214.174443207127  L 90.0101707779887 209.781280623608  L 83.4066034155597 211.42793986637  C 79.9212144212524 211.608140311804  75.3404174573055 210.694710467706  70.2056925996204 208.128407572383  C 65.4381783681215 206.11513363029  61.2183681214422 203.368630289532  56.9985578747628 200.075311804009  C 54.2475901328274 197.875623608018  50.7622011385199 196.409164810691  46.7291081593928 195.68214922049  L 40.8599620493359 195.129120267261  L 34.256394686907 196.048763919822  C 29.488880455408 196.775779510022  24.7213662239089 196.775779510022  20.3210626185958 196.415378619154  C 15.005844402277 196.048763919822  8.58277039848201 194.588518930958  0.883795066413654 192.202416481069  L 0.329867172675506 193.302260579065  L 0.516584440227746 193.302260579065  L 0.697077798861471 193.302260579065  L 0.883795066413654 193.482461024499  L 0.883795066413654 193.668875278397  L 1.06428842504749 195.501948775056  L 2.71984819734354 198.981681514477  L 6.5662239089184 203.747672605791  L 6.75294117647064 204.294487750557  L 6.01851992409871 207.774220489978  L 6.01851992409871 207.960634743876  L 5.83802656546499 207.960634743876  L 3.63476280834919 210.887338530067  L 6.01851992409871 213.267227171492  C 6.93965844402288 214.18065701559  7.48113851992423 214.913886414254  7.48113851992423 215.647115812918  L 8.03506641366226 219.126848552339  L 10.7860341555977 221.873351893096  L 10.7860341555977 222.239966592428  L 11.1532447817837 224.619855233853  L 11.1532447817837 226.446714922049  L 12.8025806451614 227.732973273942  L 13.9042125237192 227.36635857461  L 14.0847058823529 226.813329621381  C 14.6324098671727 225.346870824054  15.5473244781783 224.61364142539  16.8356736242883 224.433440979956  L 18.3045161290323 223.886625835189  L 28.0262618595825 222.966982182628  L 31.878861480076 221.500523385301  L 32.246072106262 221.320322939867  L 32.7937760910817 220.953708240535  L 34.8103225806452 225.346870824054  L 34.990815939279 225.346870824054  C 35.177533206831 226.440501113586  34.990815939279 227.360144766147  34.4431119544591 228.273574610245  L 29.1216698292221 235.786069042316  L 29.488880455408 237.066113585746  L 31.8726375711576 239.446002227172  L 34.2563946869071 240.912461024499  L 34.4431119544594 240.912461024499  C 35.544743833017 242.378919821826  36.4596584440229 243.292349665924  37.5550664136624 243.658964365256  C 38.8371916508539 244.025579064588  40.1255407969641 245.125423162584  41.2271726755219 246.591881959911  L 41.4076660341557 247.138697104677  L 43.2437191650855 247.871926503341  L 43.7914231499051 248.058340757238  L 43.9719165085389 248.058340757238  L 44.5258444022772 250.071614699332  L 44.7063377609108 252.084888641426  L 45.4407590132827 255.01780623608  L 50.0215559772296 255.751035634744  L 50.3887666034157 255.751035634744  L 50.5692599620493 255.937449888642  L 50.5692599620493 256.117650334076  L 50.7559772296015 256.484265033408  L 52.0443263757116 259.044354120267  L 55.7102087286527 260.324398663697  L 58.2744592030361 259.044354120267  L 57.9072485768501 257.584109131403  L 55.5234914611005 255.384420935412  L 55.8907020872865 255.01780623608  L 55.8907020872865 254.651191536748  L 57.9072485768501 250.804844097996  L 62.3075521821632 250.804844097996  L 62.488045540797 250.991258351893  L 68.7244022770398 253.184732739421  L 72.2097912713472 252.637917594655  L 74.9607590132827 250.071614699332  C 78.0789373814041 246.225267260579  80.0954838709677 244.578608017818  81.3776091081593 245.498251670379  L 82.8464516129033 245.311837416481  C 84.4957874762808 245.311837416481  85.4107020872865 245.498251670379  85.9646299810245 245.678452115813  C 86.1451233396583 246.045066815145  86.3318406072106 246.411681514477  86.3318406072106 246.778296213809  C 86.3318406072106 247.505311804009  87.0662618595824 248.971770601336  88.1678937381403 250.98504454343  L 88.1678937381403 251.165244988864  L 88.1678937381403 251.351659242762  L 88.7218216318785 253.911748329621  L 88.7218216318785 254.464777282851  L 87.9874003795067 257.391481069042  L 87.9874003795067 257.57789532294  L 87.8006831119545 257.758095768374  L 84.682504743833 261.41802895323  L 84.5020113851994 261.598229398664  L 77.9046679316889 264.524933184855  L 76.9835294117648 266.358006681515  L 76.068614800759 271.664599109132  L 76.6225426944972 274.230902004454  L 78.2718785578747 276.977405345212  L 79.0000759013282 277.524220489978  L 81.203339658444 278.990679287305  L 88.9085388994308 278.990679287305  L 95.3253889943072 278.077249443207  L 96.240303605313 277.157605790646  C 97.1552182163189 276.05776169265  98.0763567362429 275.691146993319  98.6240607210625 275.691146993319  L 103.024364326376 276.424376391982  L 103.391574952562 275.691146993319  C 103.024364326376 274.411102449889  103.024364326376 273.311258351893  103.758785578748 272.211414253898  L 105.594838709678 269.098296213809  L 105.594838709678 263.238674832962  L 105.594838709678 263.052260579065  L 108.893510436433 253.532706013363  L 109.074003795066 253.352505567929  L 109.074003795066 253.166091314031  L 109.2544971537 253.166091314031  L 109.2544971537 252.985890868597  L 114.936925996205 248.406314031181  L 115.304136622391 248.039699331849  L 120.258368121442 250.23938752784  C 122.822618595825 252.066247216036  124.110967741936 253.532706013363  124.110967741936 254.452349665924  L 123.74375711575 258.478897550111  L 122.094421252372 261.045200445434  L 120.81229601518 264.711347438753  L 120.81229601518 268.73789532294  L 122.094421252372 270.570968819599  L 123.74375711575 270.384554565702  L 124.110967741936 270.204354120267  L 126.861935483871 270.384554565702  C 128.330777988615 271.117783964365  129.245692599621 272.404042316258  129.980113851992 274.230902004454  L 131.62944971537 274.777717149221  L 131.816166982922 274.777717149221  L 132.002884250474 274.777717149221  L 138.233017077799 277.710634743875  L 140.983984819734 278.624064587973  L 144.836584440228 278.077249443207  L 146.485920303605 275.877561247216  L 148.689184060721 266.904821826281  L 148.869677419355 261.958630289532  L 148.869677419355 261.592015590201  L 149.236888045541 261.411815144766  L 149.423605313093 261.225400890869  L 152.9089943074 258.298697104677  L 154.925540796964 255.732394209354  L 155.106034155598 255.55219376392  L 158.771916508539 253.899320712695  L 160.968956356736 252.619276169265  L 163.719924098672 251.51943207127  L 162.257305502846 246.026425389755  L 168.493662239089 246.759654788419  L 168.493662239089 246.939855233853  L 171.792333965844 248.219899777283  L 171.792333965844 248.033485523385  L 172.713472485768 244.559966592428  L 172.713472485768 244.006937639198  L 173.267400379506 244.187138084633  L 173.634611005692 244.187138084633  L 176.566072106262 244.920367483296  L 178.034914611006 244.920367483296  L 180.785882352941 241.807249443207  L 180.966375711575 241.807249443207  L 181.153092979127 241.62083518931  L 181.333586337761 241.62083518931  L 185.00569259962 240.887605790646  L 188.123870967742 237.954688195991  L 189.773206831119 235.574799554566  L 189.773206831119 232.648095768374  C 189.773206831119 231.548251670379  190.320910815939 230.815022271715  191.422542694497 230.268207126949  L 191.789753320683 230.268207126949  L 191.970246679317 230.268207126949  L 195.455635673624 230.634821826281  L 196.918254269449 229.721391982183  L 197.472182163187 227.15508908686  L 201.138064516129 226.055244988864  L 201.324781783681 226.055244988864  L 201.505275142315 226.055244988864  L 206.09229601518 226.608273942094  L 209.758178368121 225.688630289533  L 211.955218216318 223.495155902005  L 213.424060721062 220.56223830735  L 210.673092979127 217.635534521158  L 210.673092979127 217.455334075724  L 210.125388994307 215.255645879733  L 209.390967741935 211.962327394209  L 209.390967741935 211.782126948775  L 211.040303605313 208.855423162584  C 211.040303605313 207.941993318486  211.588007590132 206.655734966592  213.056850094876 205.195489977728  L 215.07339658444 201.168942093541  L 215.07339658444 200.982527839644  L 215.260113851992 200.982527839644  L 217.096166982922 198.049610244989  L 219.847134724857 192.556603563474  L 222.411385199241 196.21653674833  L 222.591878557874 196.402951002227  L 222.591878557874 196.583151447662  L 223.513017077799 200.24929844098  L 223.513017077799 200.429498886414  L 224.060721062618 204.095645879733  L 226.63119544592 205.195489977728  L 226.811688804554 205.195489977728  L 227.546110056925 205.56210467706  L 227.732827324478 205.375690423163  L 229.929867172675 201.535556792873  L 231.218216318785 197.875623608018  L 231.765920303605 198.055824053452  L 232.319848197343 198.236024498887  L 237.635066413662 200.069097995546  L 240.199316888045 198.055824053452  L 240.386034155597 197.875623608018  L 240.753244781783 197.875623608018  L 243.323719165085 197.68920935412  L 245.153548387096 194.576091314031  L 245.153548387096 190.729743875278  L 246.441897533206 184.870122494432  L 246.809108159392 185.05653674833  L 247.36303605313 185.05653674833  L 251.396129032258 185.969966592428  L 253.225958254269 182.676648106904  L 253.412675521821 182.676648106904  L 253.779886148007 182.676648106904  L 257.451992409867 182.310033407573  L 257.999696394687 182.310033407573  L 257.999696394687 182.490233853007  L 258.366907020872 182.670434298441  L 260.202960151802 185.230523385301  L 260.202960151802 185.416937639198  L 260.389677419355 185.597138084633  L 260.389677419355 185.963752783965  L 260.750664136622 189.629899777283  L 262.586717267552 191.276559020045  L 265.150967741935 188.896670378619  L 265.704895635673 189.629899777283  C 266.626034155597 190.543329621381  266.987020872865 191.462973273942  266.987020872865 192.556603563474  L 266.987020872865 195.849922048998  L 265.704895635673 199.149454342985  L 266.626034155597 200.615913140312  L 268.455863377609 202.629187082406  L 276.154838709677 203.729031180401  L 276.341555977229 203.909231625835  L 276.708766603415 204.095645879733  L 277.256470588235 204.642461024499  L 279.459734345351 201.52934298441  L 279.646451612903 201.52934298441  L 281.482504743833 199.696269487751  L 280.748083491461 196.949766146994  L 278.731537001897 185.230523385301  L 284.046755218216 187.796826280624  L 284.22724857685 187.796826280624  L 284.407741935484 187.796826280624  L 286.791499051233 190.723530066815  L 288.260341555977 192.183775055679  L 290.463605313093 190.723530066815  L 298.162580645161 182.303819599109  L 298.349297912713 182.303819599109  L 301.100265654649 180.284331848552  L 304.21844402277 175.891169265033  L 304.405161290322 175.524554565702  L 308.618747628083 176.624398663697  L 310.641518026565 176.624398663697  C 310.641518026565 174.977739420936  311.008728652751 173.87789532294  311.189222011385 173.144665924276  L 314.307400379506 169.484732739421  L 315.22853889943 168.931703786192  L 318.894421252371 170.211748329622  L 323.294724857685 169.664933184855  L 326.232409867172 166.551815144766  L 327.695028462998 163.805311804009  L 326.780113851992 162.338853006682  L 324.215863377609 163.625111358575  L 324.035370018975 163.44491091314  L 323.848652751423 163.258496659243  L 320.549981024668 160.331792873051  L 320.369487666034 160.145378619154  L 321.657836812144 155.199187082405  L 322.018823529412 151.53925389755  L 321.103908918406 148.426135857461  L 318.539658444022 147.512706013363  L 318.539658444022 147.326291759466  L 318.35294117647 147.139877505568  L 318.172447817837 146.959677060134  L 315.969184060721 142.560300668152  L 315.601973434535 142.013485523385  L 312.483795066413 145.679632516704  L 309.365616698292 147.692906458798  L 308.63119544592 148.059521158129  L 308.450702087286 147.879320712695  L 308.263984819734 147.512706013363  L 304.965313092979 144.399587973274  L 304.965313092979 144.21938752784  L 302.58155597723 139.092995545657  L 302.58155597723 138.912795100223  L 301.479924098672 135.252861915368  L 301.479924098672 135.072661469933  L 301.479924098672 129.579654788419  L 301.112713472486 126.286336302895  L 298.542239089184 125.366692650334  L 298.36174573055 125.366692650334  L 298.36174573055 125.1864922049  L 292.492599620493 120.606915367483  L 292.853586337761 120.053886414254  L 295.604554079696 117.127182628062  L 295.604554079696 116.940768374165  L 295.604554079696 116.760567928731  L 295.971764705882 116.760567928731  L 299.089943074004 116.393953229399  L 299.276660341556 116.393953229399  C 300.191574952562 116.393953229399  301.112713472486 116.940768374165  301.840910815939 117.860412026726  L 304.405161290322 119.87368596882  L 307.156129032258 117.680211581292  L 309.172675521821 114.933708240535  L 309.172675521821 112.553819599109  L 308.43825426945 106.694198218263  L 307.89055028463 104.314309576838  L 303.851233396584 103.581080178174  L 303.851233396584 101.201191536748  L 300.185351043643 96.6278285077952  L 300.004857685009 96.4414142538977  L 298.16880455408 93.1480957683742  L 297.801593927894 92.7814810690424  L 297.801593927894 92.4148663697106  L 301.834686907021 87.1020601336304  L 301.834686907021 86.921859688196  L 302.015180265655 86.7354454342985  L 302.015180265655 86.549031180401  L 302.38239089184 86.549031180401  L 304.031726755218 86.3688307349667  L 306.048273244782 84.722171492205  L 308.432030360531 77.3960913140313  L 308.612523719165 77.3960913140313  L 308.612523719165 77.2096770601337  L 311.550208728653 73.9163585746103  L 311.550208728653 73.736158129176  L 311.730702087286 73.736158129176  L 311.91119544592 73.736158129176  L 315.216091081594 72.8165144766148  L 315.216091081594 73.1831291759466  L 317.413130929791 75.0162026726058  L 318.147552182163 75.2026169265034  L 319.429677419354 69.5231959910914  L 318.147552182163 65.4966481069043  L 317.967058823529 65.3102338530068  L 317.967058823529 64.9436191536749  L 318.514762808349 60.3640423162584  L 318.514762808349 59.9974276169265  L 320.718026565465 57.6175389755012  L 322.186869070209 55.0574498886415  L 322.367362428842 52.8577616926504  C 322.367362428842 51.7579175946548  321.819658444022 49.9310579064588  320.718026565465 47.1845545657017  L 320.718026565465 42.7913919821827  L 320.718026565465 42.6049777282851  L 321.639165085389 38.7586302895323  C 320.904743833017 37.1119710467707  320.350815939279 35.8319265033408  320.350815939279 34.9122828507795  Z " stroke-width="4" stroke="#00ccff" fill="none" stroke-opacity="0.498039215686275" transform="matrix(1 0 0 1 888 232 )" mask="url(#clip487)" />
  </g>
</svg>