<?xml version="1.0" encoding="utf-8"?>
<svg version="1.1" xmlns:xlink="http://www.w3.org/1999/xlink" width="89px" height="77px" xmlns="http://www.w3.org/2000/svg">
  <defs>
    <mask fill="white" id="clip498">
      <path d="M 70.4718181818179 2.96418699187018  L 69.7125174825175 1.66207317073167  L 68.4304195804197 1.11117886178863  L 66.9678321678323 2.03142276422761  L 66.0529370629371 3.69036585365859  C 65.3185314685314 5.34930894308945  64.5841258741258 6.27581300813006  63.302027972028 6.27581300813006  C 62.5676223776225 6.27581300813006  61.6527272727272 5.72491869918701  61.105034965035 5.16776422764224  L 60.9183216783218 4.98621951219513  L 60.7378321678323 4.80467479674803  L 60.1839160839162 2.95792682926833  L 60.1839160839162 2.77012195121949  L 59.9972027972029 0.37247967479675  L 58.8955944055945 0.184674796748027  L 58.7088811188813 0.37247967479675  L 58.1611888111889 2.21296747967483  L 58.1611888111889 4.79841463414641  L 57.9806993006995 4.97995934959351  L 57.7939860139863 5.16150406504062  L 55.5969930069933 8.11630081300814  L 55.2297902097905 8.48565040650408  L 54.8625874125877 8.48565040650408  L 50.4623776223779 8.11630081300814  L 50.095174825175 8.11630081300814  L 50.095174825175 8.29784552845524  L 50.095174825175 8.48565040650408  L 48.6263636363637 10.5139430894309  L 49.1740559440561 11.8035365853658  L 49.3607692307694 11.8035365853658  L 48.0724475524478 13.8318292682926  L 44.0394405594407 13.8318292682926  L 44.0394405594407 13.0931300813008  L 43.6722377622378 12.7237804878048  L 43.1245454545455 12.3544308943088  L 42.3901398601398 13.6440243902438  L 42.2096503496505 14.2011788617885  L 39.4587412587414 14.2011788617885  L 39.2720279720282 14.0133739837397  L 37.6227272727274 12.7237804878048  L 37.4422377622381 12.3544308943088  L 37.4422377622381 12.1728861788617  L 37.2555244755248 12.1728861788617  L 37.2555244755248 11.8035365853658  L 34.3241258741261 11.2526422764228  L 32.1271328671331 12.1728861788617  L 30.8388111888113 13.0993902439025  L 34.5108391608394 17.3375203252032  L 39.2782517482518 18.8149186991869  L 39.4649650349651 19.0027235772357  L 39.6454545454546 19.1905284552845  L 42.0291608391609 21.4003658536584  L 41.108041958042 25.0876016260162  L 41.108041958042 25.6384959349592  L 40.9213286713289 25.6384959349592  L 37.803216783217 28.2176829268292  L 37.803216783217 28.3992276422763  L 37.6165034965037 28.3992276422763  L 32.4818881118882 29.87662601626  L 32.3013986013989 29.87662601626  L 29.3700000000002 30.245975609756  L 29.1895104895107 30.245975609756  L 29.0090209790211 30.245975609756  L 26.9862937062939 29.5072764227641  L 25.8909090909093 29.3257317073171  L 24.7893006993011 31.1724796747967  L 24.6088111888115 31.1724796747967  L 24.6088111888115 31.3540243902439  L 22.2251048951052 33.0129674796747  L 22.0446153846157 33.0129674796747  L 18.7460139860142 34.4841056910569  L 18.5593006993009 34.4841056910569  L 14.7067832167835 33.1945121951219  L 6.27356643356677 33.5638617886179  L 4.44377622377641 34.114756097561  L 4.25706293706315 34.3025609756097  L 2.60776223776253 34.3025609756097  L 0.591258741259139 37.0695528455284  L 0.958461538461961 40.205894308943  L 2.79447552447601 44.4502845528455  L 4.8109790209794 45.5583333333332  L 4.99769230769266 45.5583333333332  L 4.99769230769266 45.746138211382  L 5.73209790209825 46.297032520325  L 7.01419580419605 44.4502845528455  L 7.20090909090931 44.2687398373982  L 7.38139860139887 44.0809349593495  L 7.56811188811207 44.0809349593495  L 10.3190209790212 43.7115853658535  L 10.6862237762239 43.7115853658535  L 10.6862237762239 43.8993902439023  L 13.437132867133 44.6380894308941  L 16.188041958042 50.9107723577234  L 16.0075524475526 50.9107723577234  L 16.0075524475526 51.0923170731705  L 14.9059440559442 54.5980081300811  L 13.9848251748254 56.8141056910567  L 13.9848251748254 56.9956504065038  L 12.7027272727274 60.1319918699185  L 12.7027272727274 64.007032520325  L 14.8997202797204 66.2231300813005  L 15.0802097902099 66.2231300813005  L 18.0116083916085 68.8085772357721  L 18.3788111888114 68.9901219512193  L 18.5593006993008 69.1716666666664  L 16.3623076923079 74.3363008130079  L 15.8083916083917 76.7339430894306  L 16.5427972027974 76.3645934959347  L 16.7295104895106 76.3645934959347  L 18.5593006993008 75.6258943089429  L 21.8641258741261 73.779146341463  L 22.0446153846154 73.779146341463  L 25.7104195804196 74.3363008130079  L 25.8971328671329 74.3363008130079  L 31.3989510489512 76.5461382113818  L 37.4484615384616 76.5461382113818  L 39.0977622377623 74.3363008130079  L 39.2782517482518 74.1484959349591  L 39.4649650349651 73.966951219512  L 42.583076923077 72.4895528455281  L 45.5206993006994 69.9103658536583  L 45.8879020979023 69.7288211382112  L 48.0848951048952 68.9901219512194  L 50.4686013986014 67.1433739837396  L 53.2195104895105 63.4561382113819  L 57.0658041958043 64.9335365853656  L 57.6197202797204 65.1213414634144  L 57.6197202797204 65.3028861788615  L 57.8002097902097 65.4844308943086  C 58.3479020979021 66.9618292682925  58.9018181818182 67.7005284552843  59.4495104895105 67.8820731707315  L 61.8332167832168 67.5127235772355  L 62.3871328671328 67.5127235772355  L 63.6692307692308 67.8820731707315  L 63.8559440559441 67.8820731707315  L 63.8559440559441 68.0698780487803  L 66.9740559440559 69.177926829268  L 67.888951048951 69.177926829268  L 68.0756643356643 68.4392276422761  L 68.4428671328672 67.3311788617883  L 68.4428671328672 67.1433739837396  L 68.6233566433565 66.9618292682925  L 68.8038461538461 66.7740243902438  L 68.8038461538461 66.5924796747967  L 69.9054545454543 65.8537804878047  L 70.0859440559439 65.6722357723577  L 72.1024475524473 64.0070325203251  L 72.2891608391608 64.0070325203251  L 72.4696503496501 63.825487804878  L 72.8368531468529 63.825487804878  L 74.6728671328671 64.0070325203251  C 74.6728671328671 62.8989837398373  75.226783216783 61.7909349593496  76.3283916083915 60.6891463414634  C 77.6104895104893 59.7689024390244  78.5253846153845 59.2117479674797  79.0793006993005 59.3995528455284  L 80.1809090909089 58.6608536585366  L 80.3676223776222 58.6608536585366  L 80.3676223776222 58.4730487804878  L 81.2825174825174 57.5465447154472  L 81.2825174825174 57.365  L 81.4692307692305 57.365  L 81.64972027972 57.1771951219513  L 81.8302097902096 57.1771951219513  L 84.767832167832 56.4447560975611  L 86.4171328671326 56.4447560975611  L 87.1515384615383 55.8876016260165  L 87.6992307692304 54.7795528455286  L 88.6203496503493 52.9328048780488  L 88.2531468531465 52.7512601626017  C 87.1515384615383 51.4616666666669  86.4171328671324 49.9842682926831  86.0561538461535 47.9559756097563  L 85.8694405594403 47.7744308943091  L 86.0561538461535 47.7744308943091  L 86.0561538461535 47.5928861788619  L 86.790559440559 43.5300406504067  C 86.790559440559 42.2404471544718  87.1577622377619 41.3139430894311  88.0726573426568 40.3936991869921  L 87.7054545454541 37.0758130081304  C 87.5249650349647 36.7064634146343  87.1577622377619 36.3371138211385  86.2366433566431 36.1555691056913  L 80.367622377622 38.5532113821141  L 80.7348251748248 32.4683333333335  C 80.9153146853143 31.5480894308945  82.7513286713283 29.882886178862  86.2366433566431 27.8545934959352  L 84.5873426573424 21.4003658536589  C 84.2201398601396 19.1905284552848  84.7740559440557 17.5253252032522  86.2366433566431 16.0541869918702  L 85.8694405594403 14.952398373984  L 84.0396503496501 14.952398373984  L 83.4919580419577 15.1339430894312  L 82.5770629370625 17.7131300813011  C 81.842657342657 18.6333739837401  81.1082517482514 19.1905284552848  80.3738461538458 19.1905284552848  L 80.0066433566431 19.1905284552848  L 78.1706293706289 17.8946747967482  L 77.9901398601396 17.8946747967482  L 77.80965034965 17.8946747967482  L 77.80965034965 17.7131300813011  L 77.80965034965 17.3437804878051  L 77.255734265734 16.0541869918702  L 77.0752447552444 14.213699186992  L 77.0752447552444 14.0258943089434  L 76.8947552447549 14.3952439024392  L 76.7080419580418 14.952398373984  L 73.4094405594403 14.952398373984  L 73.0422377622375 14.2136991869921  L 72.4883216783215 12.1854065040653  L 72.4883216783215 9.41841463414664  L 70.4718181818179 5.91272357723608  L 70.4718181818179 2.96418699187018  Z " fill-rule="evenodd" />
    </mask>
  </defs>
  <g transform="matrix(1 0 0 1 -964 -656 )">
    <path d="M 70.4718181818179 2.96418699187018  L 69.7125174825175 1.66207317073167  L 68.4304195804197 1.11117886178863  L 66.9678321678323 2.03142276422761  L 66.0529370629371 3.69036585365859  C 65.3185314685314 5.34930894308945  64.5841258741258 6.27581300813006  63.302027972028 6.27581300813006  C 62.5676223776225 6.27581300813006  61.6527272727272 5.72491869918701  61.105034965035 5.16776422764224  L 60.9183216783218 4.98621951219513  L 60.7378321678323 4.80467479674803  L 60.1839160839162 2.95792682926833  L 60.1839160839162 2.77012195121949  L 59.9972027972029 0.37247967479675  L 58.8955944055945 0.184674796748027  L 58.7088811188813 0.37247967479675  L 58.1611888111889 2.21296747967483  L 58.1611888111889 4.79841463414641  L 57.9806993006995 4.97995934959351  L 57.7939860139863 5.16150406504062  L 55.5969930069933 8.11630081300814  L 55.2297902097905 8.48565040650408  L 54.8625874125877 8.48565040650408  L 50.4623776223779 8.11630081300814  L 50.095174825175 8.11630081300814  L 50.095174825175 8.29784552845524  L 50.095174825175 8.48565040650408  L 48.6263636363637 10.5139430894309  L 49.1740559440561 11.8035365853658  L 49.3607692307694 11.8035365853658  L 48.0724475524478 13.8318292682926  L 44.0394405594407 13.8318292682926  L 44.0394405594407 13.0931300813008  L 43.6722377622378 12.7237804878048  L 43.1245454545455 12.3544308943088  L 42.3901398601398 13.6440243902438  L 42.2096503496505 14.2011788617885  L 39.4587412587414 14.2011788617885  L 39.2720279720282 14.0133739837397  L 37.6227272727274 12.7237804878048  L 37.4422377622381 12.3544308943088  L 37.4422377622381 12.1728861788617  L 37.2555244755248 12.1728861788617  L 37.2555244755248 11.8035365853658  L 34.3241258741261 11.2526422764228  L 32.1271328671331 12.1728861788617  L 30.8388111888113 13.0993902439025  L 34.5108391608394 17.3375203252032  L 39.2782517482518 18.8149186991869  L 39.4649650349651 19.0027235772357  L 39.6454545454546 19.1905284552845  L 42.0291608391609 21.4003658536584  L 41.108041958042 25.0876016260162  L 41.108041958042 25.6384959349592  L 40.9213286713289 25.6384959349592  L 37.803216783217 28.2176829268292  L 37.803216783217 28.3992276422763  L 37.6165034965037 28.3992276422763  L 32.4818881118882 29.87662601626  L 32.3013986013989 29.87662601626  L 29.3700000000002 30.245975609756  L 29.1895104895107 30.245975609756  L 29.0090209790211 30.245975609756  L 26.9862937062939 29.5072764227641  L 25.8909090909093 29.3257317073171  L 24.7893006993011 31.1724796747967  L 24.6088111888115 31.1724796747967  L 24.6088111888115 31.3540243902439  L 22.2251048951052 33.0129674796747  L 22.0446153846157 33.0129674796747  L 18.7460139860142 34.4841056910569  L 18.5593006993009 34.4841056910569  L 14.7067832167835 33.1945121951219  L 6.27356643356677 33.5638617886179  L 4.44377622377641 34.114756097561  L 4.25706293706315 34.3025609756097  L 2.60776223776253 34.3025609756097  L 0.591258741259139 37.0695528455284  L 0.958461538461961 40.205894308943  L 2.79447552447601 44.4502845528455  L 4.8109790209794 45.5583333333332  L 4.99769230769266 45.5583333333332  L 4.99769230769266 45.746138211382  L 5.73209790209825 46.297032520325  L 7.01419580419605 44.4502845528455  L 7.20090909090931 44.2687398373982  L 7.38139860139887 44.0809349593495  L 7.56811188811207 44.0809349593495  L 10.3190209790212 43.7115853658535  L 10.6862237762239 43.7115853658535  L 10.6862237762239 43.8993902439023  L 13.437132867133 44.6380894308941  L 16.188041958042 50.9107723577234  L 16.0075524475526 50.9107723577234  L 16.0075524475526 51.0923170731705  L 14.9059440559442 54.5980081300811  L 13.9848251748254 56.8141056910567  L 13.9848251748254 56.9956504065038  L 12.7027272727274 60.1319918699185  L 12.7027272727274 64.007032520325  L 14.8997202797204 66.2231300813005  L 15.0802097902099 66.2231300813005  L 18.0116083916085 68.8085772357721  L 18.3788111888114 68.9901219512193  L 18.5593006993008 69.1716666666664  L 16.3623076923079 74.3363008130079  L 15.8083916083917 76.7339430894306  L 16.5427972027974 76.3645934959347  L 16.7295104895106 76.3645934959347  L 18.5593006993008 75.6258943089429  L 21.8641258741261 73.779146341463  L 22.0446153846154 73.779146341463  L 25.7104195804196 74.3363008130079  L 25.8971328671329 74.3363008130079  L 31.3989510489512 76.5461382113818  L 37.4484615384616 76.5461382113818  L 39.0977622377623 74.3363008130079  L 39.2782517482518 74.1484959349591  L 39.4649650349651 73.966951219512  L 42.583076923077 72.4895528455281  L 45.5206993006994 69.9103658536583  L 45.8879020979023 69.7288211382112  L 48.0848951048952 68.9901219512194  L 50.4686013986014 67.1433739837396  L 53.2195104895105 63.4561382113819  L 57.0658041958043 64.9335365853656  L 57.6197202797204 65.1213414634144  L 57.6197202797204 65.3028861788615  L 57.8002097902097 65.4844308943086  C 58.3479020979021 66.9618292682925  58.9018181818182 67.7005284552843  59.4495104895105 67.8820731707315  L 61.8332167832168 67.5127235772355  L 62.3871328671328 67.5127235772355  L 63.6692307692308 67.8820731707315  L 63.8559440559441 67.8820731707315  L 63.8559440559441 68.0698780487803  L 66.9740559440559 69.177926829268  L 67.888951048951 69.177926829268  L 68.0756643356643 68.4392276422761  L 68.4428671328672 67.3311788617883  L 68.4428671328672 67.1433739837396  L 68.6233566433565 66.9618292682925  L 68.8038461538461 66.7740243902438  L 68.8038461538461 66.5924796747967  L 69.9054545454543 65.8537804878047  L 70.0859440559439 65.6722357723577  L 72.1024475524473 64.0070325203251  L 72.2891608391608 64.0070325203251  L 72.4696503496501 63.825487804878  L 72.8368531468529 63.825487804878  L 74.6728671328671 64.0070325203251  C 74.6728671328671 62.8989837398373  75.226783216783 61.7909349593496  76.3283916083915 60.6891463414634  C 77.6104895104893 59.7689024390244  78.5253846153845 59.2117479674797  79.0793006993005 59.3995528455284  L 80.1809090909089 58.6608536585366  L 80.3676223776222 58.6608536585366  L 80.3676223776222 58.4730487804878  L 81.2825174825174 57.5465447154472  L 81.2825174825174 57.365  L 81.4692307692305 57.365  L 81.64972027972 57.1771951219513  L 81.8302097902096 57.1771951219513  L 84.767832167832 56.4447560975611  L 86.4171328671326 56.4447560975611  L 87.1515384615383 55.8876016260165  L 87.6992307692304 54.7795528455286  L 88.6203496503493 52.9328048780488  L 88.2531468531465 52.7512601626017  C 87.1515384615383 51.4616666666669  86.4171328671324 49.9842682926831  86.0561538461535 47.9559756097563  L 85.8694405594403 47.7744308943091  L 86.0561538461535 47.7744308943091  L 86.0561538461535 47.5928861788619  L 86.790559440559 43.5300406504067  C 86.790559440559 42.2404471544718  87.1577622377619 41.3139430894311  88.0726573426568 40.3936991869921  L 87.7054545454541 37.0758130081304  C 87.5249650349647 36.7064634146343  87.1577622377619 36.3371138211385  86.2366433566431 36.1555691056913  L 80.367622377622 38.5532113821141  L 80.7348251748248 32.4683333333335  C 80.9153146853143 31.5480894308945  82.7513286713283 29.882886178862  86.2366433566431 27.8545934959352  L 84.5873426573424 21.4003658536589  C 84.2201398601396 19.1905284552848  84.7740559440557 17.5253252032522  86.2366433566431 16.0541869918702  L 85.8694405594403 14.952398373984  L 84.0396503496501 14.952398373984  L 83.4919580419577 15.1339430894312  L 82.5770629370625 17.7131300813011  C 81.842657342657 18.6333739837401  81.1082517482514 19.1905284552848  80.3738461538458 19.1905284552848  L 80.0066433566431 19.1905284552848  L 78.1706293706289 17.8946747967482  L 77.9901398601396 17.8946747967482  L 77.80965034965 17.8946747967482  L 77.80965034965 17.7131300813011  L 77.80965034965 17.3437804878051  L 77.255734265734 16.0541869918702  L 77.0752447552444 14.213699186992  L 77.0752447552444 14.0258943089434  L 76.8947552447549 14.3952439024392  L 76.7080419580418 14.952398373984  L 73.4094405594403 14.952398373984  L 73.0422377622375 14.2136991869921  L 72.4883216783215 12.1854065040653  L 72.4883216783215 9.41841463414664  L 70.4718181818179 5.91272357723608  L 70.4718181818179 2.96418699187018  Z " fill-rule="nonzero" fill="#00ccff" stroke="none" fill-opacity="0.498039215686275" transform="matrix(1 0 0 1 964 656 )" />
    <path d="M 70.4718181818179 2.96418699187018  L 69.7125174825175 1.66207317073167  L 68.4304195804197 1.11117886178863  L 66.9678321678323 2.03142276422761  L 66.0529370629371 3.69036585365859  C 65.3185314685314 5.34930894308945  64.5841258741258 6.27581300813006  63.302027972028 6.27581300813006  C 62.5676223776225 6.27581300813006  61.6527272727272 5.72491869918701  61.105034965035 5.16776422764224  L 60.9183216783218 4.98621951219513  L 60.7378321678323 4.80467479674803  L 60.1839160839162 2.95792682926833  L 60.1839160839162 2.77012195121949  L 59.9972027972029 0.37247967479675  L 58.8955944055945 0.184674796748027  L 58.7088811188813 0.37247967479675  L 58.1611888111889 2.21296747967483  L 58.1611888111889 4.79841463414641  L 57.9806993006995 4.97995934959351  L 57.7939860139863 5.16150406504062  L 55.5969930069933 8.11630081300814  L 55.2297902097905 8.48565040650408  L 54.8625874125877 8.48565040650408  L 50.4623776223779 8.11630081300814  L 50.095174825175 8.11630081300814  L 50.095174825175 8.29784552845524  L 50.095174825175 8.48565040650408  L 48.6263636363637 10.5139430894309  L 49.1740559440561 11.8035365853658  L 49.3607692307694 11.8035365853658  L 48.0724475524478 13.8318292682926  L 44.0394405594407 13.8318292682926  L 44.0394405594407 13.0931300813008  L 43.6722377622378 12.7237804878048  L 43.1245454545455 12.3544308943088  L 42.3901398601398 13.6440243902438  L 42.2096503496505 14.2011788617885  L 39.4587412587414 14.2011788617885  L 39.2720279720282 14.0133739837397  L 37.6227272727274 12.7237804878048  L 37.4422377622381 12.3544308943088  L 37.4422377622381 12.1728861788617  L 37.2555244755248 12.1728861788617  L 37.2555244755248 11.8035365853658  L 34.3241258741261 11.2526422764228  L 32.1271328671331 12.1728861788617  L 30.8388111888113 13.0993902439025  L 34.5108391608394 17.3375203252032  L 39.2782517482518 18.8149186991869  L 39.4649650349651 19.0027235772357  L 39.6454545454546 19.1905284552845  L 42.0291608391609 21.4003658536584  L 41.108041958042 25.0876016260162  L 41.108041958042 25.6384959349592  L 40.9213286713289 25.6384959349592  L 37.803216783217 28.2176829268292  L 37.803216783217 28.3992276422763  L 37.6165034965037 28.3992276422763  L 32.4818881118882 29.87662601626  L 32.3013986013989 29.87662601626  L 29.3700000000002 30.245975609756  L 29.1895104895107 30.245975609756  L 29.0090209790211 30.245975609756  L 26.9862937062939 29.5072764227641  L 25.8909090909093 29.3257317073171  L 24.7893006993011 31.1724796747967  L 24.6088111888115 31.1724796747967  L 24.6088111888115 31.3540243902439  L 22.2251048951052 33.0129674796747  L 22.0446153846157 33.0129674796747  L 18.7460139860142 34.4841056910569  L 18.5593006993009 34.4841056910569  L 14.7067832167835 33.1945121951219  L 6.27356643356677 33.5638617886179  L 4.44377622377641 34.114756097561  L 4.25706293706315 34.3025609756097  L 2.60776223776253 34.3025609756097  L 0.591258741259139 37.0695528455284  L 0.958461538461961 40.205894308943  L 2.79447552447601 44.4502845528455  L 4.8109790209794 45.5583333333332  L 4.99769230769266 45.5583333333332  L 4.99769230769266 45.746138211382  L 5.73209790209825 46.297032520325  L 7.01419580419605 44.4502845528455  L 7.20090909090931 44.2687398373982  L 7.38139860139887 44.0809349593495  L 7.56811188811207 44.0809349593495  L 10.3190209790212 43.7115853658535  L 10.6862237762239 43.7115853658535  L 10.6862237762239 43.8993902439023  L 13.437132867133 44.6380894308941  L 16.188041958042 50.9107723577234  L 16.0075524475526 50.9107723577234  L 16.0075524475526 51.0923170731705  L 14.9059440559442 54.5980081300811  L 13.9848251748254 56.8141056910567  L 13.9848251748254 56.9956504065038  L 12.7027272727274 60.1319918699185  L 12.7027272727274 64.007032520325  L 14.8997202797204 66.2231300813005  L 15.0802097902099 66.2231300813005  L 18.0116083916085 68.8085772357721  L 18.3788111888114 68.9901219512193  L 18.5593006993008 69.1716666666664  L 16.3623076923079 74.3363008130079  L 15.8083916083917 76.7339430894306  L 16.5427972027974 76.3645934959347  L 16.7295104895106 76.3645934959347  L 18.5593006993008 75.6258943089429  L 21.8641258741261 73.779146341463  L 22.0446153846154 73.779146341463  L 25.7104195804196 74.3363008130079  L 25.8971328671329 74.3363008130079  L 31.3989510489512 76.5461382113818  L 37.4484615384616 76.5461382113818  L 39.0977622377623 74.3363008130079  L 39.2782517482518 74.1484959349591  L 39.4649650349651 73.966951219512  L 42.583076923077 72.4895528455281  L 45.5206993006994 69.9103658536583  L 45.8879020979023 69.7288211382112  L 48.0848951048952 68.9901219512194  L 50.4686013986014 67.1433739837396  L 53.2195104895105 63.4561382113819  L 57.0658041958043 64.9335365853656  L 57.6197202797204 65.1213414634144  L 57.6197202797204 65.3028861788615  L 57.8002097902097 65.4844308943086  C 58.3479020979021 66.9618292682925  58.9018181818182 67.7005284552843  59.4495104895105 67.8820731707315  L 61.8332167832168 67.5127235772355  L 62.3871328671328 67.5127235772355  L 63.6692307692308 67.8820731707315  L 63.8559440559441 67.8820731707315  L 63.8559440559441 68.0698780487803  L 66.9740559440559 69.177926829268  L 67.888951048951 69.177926829268  L 68.0756643356643 68.4392276422761  L 68.4428671328672 67.3311788617883  L 68.4428671328672 67.1433739837396  L 68.6233566433565 66.9618292682925  L 68.8038461538461 66.7740243902438  L 68.8038461538461 66.5924796747967  L 69.9054545454543 65.8537804878047  L 70.0859440559439 65.6722357723577  L 72.1024475524473 64.0070325203251  L 72.2891608391608 64.0070325203251  L 72.4696503496501 63.825487804878  L 72.8368531468529 63.825487804878  L 74.6728671328671 64.0070325203251  C 74.6728671328671 62.8989837398373  75.226783216783 61.7909349593496  76.3283916083915 60.6891463414634  C 77.6104895104893 59.7689024390244  78.5253846153845 59.2117479674797  79.0793006993005 59.3995528455284  L 80.1809090909089 58.6608536585366  L 80.3676223776222 58.6608536585366  L 80.3676223776222 58.4730487804878  L 81.2825174825174 57.5465447154472  L 81.2825174825174 57.365  L 81.4692307692305 57.365  L 81.64972027972 57.1771951219513  L 81.8302097902096 57.1771951219513  L 84.767832167832 56.4447560975611  L 86.4171328671326 56.4447560975611  L 87.1515384615383 55.8876016260165  L 87.6992307692304 54.7795528455286  L 88.6203496503493 52.9328048780488  L 88.2531468531465 52.7512601626017  C 87.1515384615383 51.4616666666669  86.4171328671324 49.9842682926831  86.0561538461535 47.9559756097563  L 85.8694405594403 47.7744308943091  L 86.0561538461535 47.7744308943091  L 86.0561538461535 47.5928861788619  L 86.790559440559 43.5300406504067  C 86.790559440559 42.2404471544718  87.1577622377619 41.3139430894311  88.0726573426568 40.3936991869921  L 87.7054545454541 37.0758130081304  C 87.5249650349647 36.7064634146343  87.1577622377619 36.3371138211385  86.2366433566431 36.1555691056913  L 80.367622377622 38.5532113821141  L 80.7348251748248 32.4683333333335  C 80.9153146853143 31.5480894308945  82.7513286713283 29.882886178862  86.2366433566431 27.8545934959352  L 84.5873426573424 21.4003658536589  C 84.2201398601396 19.1905284552848  84.7740559440557 17.5253252032522  86.2366433566431 16.0541869918702  L 85.8694405594403 14.952398373984  L 84.0396503496501 14.952398373984  L 83.4919580419577 15.1339430894312  L 82.5770629370625 17.7131300813011  C 81.842657342657 18.6333739837401  81.1082517482514 19.1905284552848  80.3738461538458 19.1905284552848  L 80.0066433566431 19.1905284552848  L 78.1706293706289 17.8946747967482  L 77.9901398601396 17.8946747967482  L 77.80965034965 17.8946747967482  L 77.80965034965 17.7131300813011  L 77.80965034965 17.3437804878051  L 77.255734265734 16.0541869918702  L 77.0752447552444 14.213699186992  L 77.0752447552444 14.0258943089434  L 76.8947552447549 14.3952439024392  L 76.7080419580418 14.952398373984  L 73.4094405594403 14.952398373984  L 73.0422377622375 14.2136991869921  L 72.4883216783215 12.1854065040653  L 72.4883216783215 9.41841463414664  L 70.4718181818179 5.91272357723608  L 70.4718181818179 2.96418699187018  Z " stroke-width="4" stroke="#00ccff" fill="none" stroke-opacity="0.498039215686275" transform="matrix(1 0 0 1 964 656 )" mask="url(#clip498)" />
  </g>
</svg>