<?xml version="1.0" encoding="utf-8"?>
<svg version="1.1" xmlns:xlink="http://www.w3.org/1999/xlink" width="131px" height="136px" xmlns="http://www.w3.org/2000/svg">
  <defs>
    <mask fill="white" id="clip495">
      <path d="M 2.55138095238141 81.3733333333334  L 0.892047619047673 83.4040182648401  L 0.155952380952328 85.7824657534247  C 1.26009523809523 85.7824657534247  2.72604761904762 85.0496803652969  4.20447619047621 83.9505022831052  L 4.38538095238096 83.764200913242  L 4.75342857142857 83.764200913242  L 12.1081428571429 82.8513242009133  L 16.8865238095239 80.4728767123288  L 18.7267619047619 83.0314155251142  L 19.0948095238095 83.2177168949771  L 16.8865238095239 86.6953424657535  L 19.456619047619 89.2538812785389  L 19.456619047619 89.4401826484018  L 19.456619047619 89.9866666666666  L 17.616380952381 97.6747031963471  L 22.3947619047619 101.152328767123  L 31.0345238095238 101.518721461187  L 29.7494761904762 103.164383561644  C 24.235 109.933333333333  21.6586666666667 113.963652968037  21.8458095238096 115.242922374429  L 25.1582380952381 115.975707762557  C 29.5685714285715 116.342100456621  32.1386666666668 117.621369863014  33.0619047619047 119.26703196347  C 34.1660476190476 121.465388127854  35.2701904761905 123.657534246575  36.1871904761904 126.222283105023  L 41.1527142857144 128.967123287671  L 44.278 129.519817351598  L 50.7094761904762 124.030136986301  L 54.0156666666666 128.967123287671  L 54.0156666666666 129.147214611872  L 54.2028095238094 129.333515981735  L 55.3007142857143 133.904109589041  L 58.0579523809523 134.450593607306  L 62.2873809523809 135.916164383562  L 63.3915238095236 135.549771689498  L 63.3915238095236 135.369680365297  L 62.6554285714284 130.612785388128  L 62.4745238095236 130.432694063927  L 60.0853333333331 119.633424657534  L 60.0853333333331 119.26703196347  L 61.5575238095237 111.765296803653  L 61.9255714285714 111.945388127854  L 62.4745238095236 111.945388127854  L 67.4338095238094 112.311780821918  L 73.6843809523809 107.73497716895  L 74.2395714285714 108.101369863014  C 77.5457619047618 110.659908675799  79.7540476190476 112.67196347032  80.8519523809523 114.137534246575  C 81.9560952380952 113.771141552511  83.977238095238 111.759086757991  86.734476190476 108.647853881278  L 86.9216190476189 108.461552511416  L 87.2896666666664 108.095159817351  L 96.4783809523809 110.473607305936  L 100.526904761905 107.182283105023  L 100.714047619048 106.99598173516  L 100.894952380952 106.815890410959  L 101.082095238095 106.815890410959  L 101.263 106.99598173516  L 105.124380952381 107.728767123288  L 117.625523809524 96.7494063926941  L 121.480666666666 97.8485844748859  L 121.661571428571 98.0348858447488  L 121.842476190476 98.2149771689498  L 122.029619047619 98.4012785388128  L 122.946619047619 100.046940639269  L 123.863619047619 98.9477625570776  L 124.050761904762 98.9477625570776  L 124.050761904762 98.7614611872147  L 124.231666666666 98.7614611872147  L 127.905904761904 96.7494063926941  L 130.663142857142 94.1846575342465  L 129.927047619047 88.5148858447488  L 129.378095238095 87.782100456621  L 125.891 89.2476712328767  C 124.786857142857 89.6140639269407  123.863619047619 89.9804566210046  122.578571428571 89.9804566210046  L 118.52380952381 89.9804566210046  C 117.238761904762 89.8003652968036  116.502666666667 89.4339726027397  115.953714285714 88.7011872146119  L 115.585666666667 82.8451141552512  C 114.300619047619 82.1123287671234  113.745428571428 81.7459360730595  113.196476190476 81.7459360730595  L 112.279476190476 82.1123287671234  L 110.994428571429 82.8451141552512  L 108.424333333333 83.3915981735161  L 107.688238095238 83.3915981735161  L 107.507333333333 83.025205479452  L 106.035142857143 80.4666666666667  L 105.848 78.0882191780822  L 107.313952380952 71.1329680365296  L 107.501095238095 71.1329680365296  L 107.501095238095 70.9528767123288  L 109.15419047619 67.4752511415525  L 104.007761904762 62.8984474885845  L 103.826857142857 62.7183561643835  L 103.645952380953 62.5320547945206  L 103.645952380953 57.2286757990869  L 103.826857142857 57.048584474886  L 106.771238095238 48.6339726027398  L 104.931 44.0571689497718  L 103.277904761905 43.6907762557078  L 101.250523809524 43.8708675799087  L 99.229380952381 46.9821004566211  L 96.6592857142858 45.1501369863014  L 94.0891904761906 43.6845662100457  L 92.0618095238095 38.5612785388128  L 91.3319523809523 34.9035616438357  L 91.3319523809523 34.5371689497717  L 91.1448095238096 34.3570776255708  L 91.693761904762 33.9906849315068  L 94.0829523809524 30.6993607305936  L 94.6319047619048 30.3329680365297  L 94.8128095238096 30.3329680365297  L 96.6468095238097 29.9665753424657  L 98.6679523809525 29.4200913242009  L 108.224714285714 29.053698630137  L 108.405619047619 29.053698630137  L 109.690666666667 29.6001826484018  L 110.058714285714 29.7864840182648  L 111.530904761905 30.3329680365297  L 114.107238095238 29.2337899543379  L 116.309285714286 27.5881278538812  L 117.413428571429 25.7561643835616  L 117.600571428572 24.8432876712327  L 117.413428571429 20.8191780821918  L 115.386047619048 20.4527853881277  L 111.524666666667 21.7382648401825  C 110.420523809524 23.0175342465752  109.135476190476 23.9304109589041  107.850428571429 23.9304109589041  C 106.565380952381 23.9304109589041  105.461238095238 22.8312328767122  104.357095238095 20.8191780821918  L 104.176190476191 20.8191780821918  L 104.176190476191 20.6390867579908  L 103.989047619048 18.0743378995433  L 103.989047619048 17.7079452054794  L 104.176190476191 15.3294977168948  L 102.155047619048 10.386301369863  L 98.2936666666666 11.4854794520547  L 96.6405714285714 12.9510502283104  L 97.1895238095239 18.4407305936072  L 91.1260952380952 15.6958904109589  L 92.5982857142858 18.987214611872  L 92.7791904761905 19.1673059360729  L 92.7791904761905 19.5336986301368  L 92.2302380952381 23.1914155251141  L 92.2302380952381 23.557808219178  L 92.0430952380954 23.557808219178  L 88.5497619047619 28.4947945205479  L 82.854380952381 31.9724200913241  L 82.3054285714287 35.2699543378995  C 82.1182857142857 35.8164383561643  82.854380952381 37.2820091324199  83.7713809523811 39.1077625570775  L 83.9585238095239 39.2940639269405  L 83.9585238095239 39.4803652968035  L 84.3265714285715 44.2372602739724  L 84.3265714285715 44.7837442922372  L 84.1456666666668 44.9700456621002  L 81.937380952381 47.8949771689496  L 81.7564761904762 48.0812785388125  L 81.5755714285715 48.0812785388125  L 79.9224761904763 49.1804566210043  L 79.7415714285716 49.1804566210043  L 79.5606666666669 49.1804566210043  L 79.3735238095241 49.1804566210043  L 79.1863809523812 49.1804566210043  L 74.9631904761907 48.2613698630134  C 74.2270952380956 48.2613698630134  73.3038571428574 48.6277625570773  72.3868571428575 49.3605479452052  L 70.5466190476192 51.3726027397258  L 69.0744285714288 53.2045662100454  C 68.1574285714289 54.850228310502  66.8723809523812 55.2166210045659  64.8512380952384 54.850228310502  C 63.5661904761907 54.6701369863011  63.1981428571431 53.3846575342463  63.5661904761907 51.7389954337897  L 63.5661904761907 50.4597260273971  L 63.385285714286 49.1804566210044  L 62.6491904761908 50.0933333333331  C 62.1002380952384 50.8261187214609  61.5450476190479 51.006210045662  60.8089523809527 51.006210045662  C 60.0728571428575 50.8261187214611  59.5239047619051 50.0933333333331  59.1558571428574 48.8140639269404  L 59.1558571428574 48.6339726027396  L 58.7878095238099 44.4235616438356  L 57.8645714285718 40.3994520547944  L 56.0243333333337 38.5674885844747  L 55.8434285714289 38.3811872146118  L 51.988285714286 29.6001826484018  L 51.8011428571432 29.4200913242008  L 50.6970000000003 26.8553424657533  L 50.6970000000003 26.6752511415525  L 50.5160952380956 26.6752511415525  L 50.5160952380956 26.4889497716895  L 49.7800000000004 21.7320547945205  L 49.231047619048 20.9992694063927  L 48.4949523809528 21.5457534246575  C 47.2036666666671 23.0113242009134  46.2866666666672 23.9242009132421  45.9186190476195 23.9242009132421  C 45.363428571429 23.9242009132421  44.4464285714289 23.1914155251142  42.9804761904766 22.0922374429224  L 40.2232380952385 20.8067579908676  L 39.8551904761909 20.6266666666668  L 39.6742857142862 20.4403652968036  L 39.6742857142862 20.2602739726028  L 39.4871428571433 19.8938812785389  L 39.3062380952385 16.2361643835617  L 38.7510476190481 13.4913242009134  L 37.2850952380957 9.8336073059362  L 35.8129047619053 9.8336073059362  C 35.99380952381 11.2991780821918  35.8129047619053 12.5784474885845  35.4448571428576 13.4913242009134  C 35.07680952381 14.5905022831051  34.3407142857147 15.3232876712329  33.2365714285719 16.2361643835617  C 32.8685238095243 17.5216438356165  32.3195714285719 18.4345205479452  31.5834761904766 19.161095890411  C 30.4793333333338 20.2602739726028  29.5623333333338 20.2602739726028  28.458190476191 19.5274885844749  L 27.9092380952386 19.341187214612  C 26.8050952380958 18.9747945205481  26.624190476191 17.6955251141554  26.8050952380958 15.3170776255708  L 26.8050952380958 14.4042009132421  L 24.4159047619053 12.9448401826486  C 23.4926666666671 12.5784474885845  22.9437142857147 11.4792694063927  22.7565714285719 9.8336073059362  L 23.67980952381 1.59908675799102  L 23.3117619047624 0.313607305936216  L 20.3736190476195 3.61114155251153  L 18.3524761904766 5.07671232876714  L 17.7972857142862 6.35598173515984  C 18.5333809523814 8.00785388127849  18.901428571429 9.28712328767131  18.901428571429 10.2  C 18.901428571429 12.0319634703197  17.984428571429 13.4913242009133  16.3313333333337 14.0440182648402  L 13.0189047619052 15.3232876712329  L 12.1019047619052 15.8697716894977  L 11.9147619047623 17.1552511415526  L 11.9147619047623 22.2785388127854  C 12.1019047619052 23.9242009132421  12.2828095238099 24.8370776255708  12.8380000000004 24.8370776255708  C 13.9359047619052 25.3897716894977  15.2271904761909 25.3897716894977  16.3313333333337 24.4706849315069  L 17.4354761904766 23.9242009132421  L 20.9288095238099 31.9724200913242  L 20.9288095238099 32.1587214611873  L 20.9288095238099 32.5251141552512  C 19.6375238095243 46.975890410959  18.3524761904766 55.2104109589042  16.6993809523814 57.4087671232878  C 15.9632857142861 58.1415525114155  15.4143333333338 58.5017351598174  14.3101904761909 58.6880365296805  C 13.0189047619053 58.6880365296805  12.1019047619052 58.5017351598174  10.8168571428575 57.7689497716896  C 6.03847619047662 67.2827397260274  2.91319047619089 72.2259360730594  1.4472380952385 72.9587214611872  C 0.711142857143216 73.1450228310503  0.524000000000456 75.5234703196348  0.711142857143329 79.7276712328768  L 1.81528571428618 80.6405479452055  L 2.18333333333379 81.0069406392695  L 2.55138095238141 81.3733333333334  Z " fill-rule="evenodd" />
    </mask>
  </defs>
  <g transform="matrix(1 0 0 1 -871 -658 )">
    <path d="M 2.55138095238141 81.3733333333334  L 0.892047619047673 83.4040182648401  L 0.155952380952328 85.7824657534247  C 1.26009523809523 85.7824657534247  2.72604761904762 85.0496803652969  4.20447619047621 83.9505022831052  L 4.38538095238096 83.764200913242  L 4.75342857142857 83.764200913242  L 12.1081428571429 82.8513242009133  L 16.8865238095239 80.4728767123288  L 18.7267619047619 83.0314155251142  L 19.0948095238095 83.2177168949771  L 16.8865238095239 86.6953424657535  L 19.456619047619 89.2538812785389  L 19.456619047619 89.4401826484018  L 19.456619047619 89.9866666666666  L 17.616380952381 97.6747031963471  L 22.3947619047619 101.152328767123  L 31.0345238095238 101.518721461187  L 29.7494761904762 103.164383561644  C 24.235 109.933333333333  21.6586666666667 113.963652968037  21.8458095238096 115.242922374429  L 25.1582380952381 115.975707762557  C 29.5685714285715 116.342100456621  32.1386666666668 117.621369863014  33.0619047619047 119.26703196347  C 34.1660476190476 121.465388127854  35.2701904761905 123.657534246575  36.1871904761904 126.222283105023  L 41.1527142857144 128.967123287671  L 44.278 129.519817351598  L 50.7094761904762 124.030136986301  L 54.0156666666666 128.967123287671  L 54.0156666666666 129.147214611872  L 54.2028095238094 129.333515981735  L 55.3007142857143 133.904109589041  L 58.0579523809523 134.450593607306  L 62.2873809523809 135.916164383562  L 63.3915238095236 135.549771689498  L 63.3915238095236 135.369680365297  L 62.6554285714284 130.612785388128  L 62.4745238095236 130.432694063927  L 60.0853333333331 119.633424657534  L 60.0853333333331 119.26703196347  L 61.5575238095237 111.765296803653  L 61.9255714285714 111.945388127854  L 62.4745238095236 111.945388127854  L 67.4338095238094 112.311780821918  L 73.6843809523809 107.73497716895  L 74.2395714285714 108.101369863014  C 77.5457619047618 110.659908675799  79.7540476190476 112.67196347032  80.8519523809523 114.137534246575  C 81.9560952380952 113.771141552511  83.977238095238 111.759086757991  86.734476190476 108.647853881278  L 86.9216190476189 108.461552511416  L 87.2896666666664 108.095159817351  L 96.4783809523809 110.473607305936  L 100.526904761905 107.182283105023  L 100.714047619048 106.99598173516  L 100.894952380952 106.815890410959  L 101.082095238095 106.815890410959  L 101.263 106.99598173516  L 105.124380952381 107.728767123288  L 117.625523809524 96.7494063926941  L 121.480666666666 97.8485844748859  L 121.661571428571 98.0348858447488  L 121.842476190476 98.2149771689498  L 122.029619047619 98.4012785388128  L 122.946619047619 100.046940639269  L 123.863619047619 98.9477625570776  L 124.050761904762 98.9477625570776  L 124.050761904762 98.7614611872147  L 124.231666666666 98.7614611872147  L 127.905904761904 96.7494063926941  L 130.663142857142 94.1846575342465  L 129.927047619047 88.5148858447488  L 129.378095238095 87.782100456621  L 125.891 89.2476712328767  C 124.786857142857 89.6140639269407  123.863619047619 89.9804566210046  122.578571428571 89.9804566210046  L 118.52380952381 89.9804566210046  C 117.238761904762 89.8003652968036  116.502666666667 89.4339726027397  115.953714285714 88.7011872146119  L 115.585666666667 82.8451141552512  C 114.300619047619 82.1123287671234  113.745428571428 81.7459360730595  113.196476190476 81.7459360730595  L 112.279476190476 82.1123287671234  L 110.994428571429 82.8451141552512  L 108.424333333333 83.3915981735161  L 107.688238095238 83.3915981735161  L 107.507333333333 83.025205479452  L 106.035142857143 80.4666666666667  L 105.848 78.0882191780822  L 107.313952380952 71.1329680365296  L 107.501095238095 71.1329680365296  L 107.501095238095 70.9528767123288  L 109.15419047619 67.4752511415525  L 104.007761904762 62.8984474885845  L 103.826857142857 62.7183561643835  L 103.645952380953 62.5320547945206  L 103.645952380953 57.2286757990869  L 103.826857142857 57.048584474886  L 106.771238095238 48.6339726027398  L 104.931 44.0571689497718  L 103.277904761905 43.6907762557078  L 101.250523809524 43.8708675799087  L 99.229380952381 46.9821004566211  L 96.6592857142858 45.1501369863014  L 94.0891904761906 43.6845662100457  L 92.0618095238095 38.5612785388128  L 91.3319523809523 34.9035616438357  L 91.3319523809523 34.5371689497717  L 91.1448095238096 34.3570776255708  L 91.693761904762 33.9906849315068  L 94.0829523809524 30.6993607305936  L 94.6319047619048 30.3329680365297  L 94.8128095238096 30.3329680365297  L 96.6468095238097 29.9665753424657  L 98.6679523809525 29.4200913242009  L 108.224714285714 29.053698630137  L 108.405619047619 29.053698630137  L 109.690666666667 29.6001826484018  L 110.058714285714 29.7864840182648  L 111.530904761905 30.3329680365297  L 114.107238095238 29.2337899543379  L 116.309285714286 27.5881278538812  L 117.413428571429 25.7561643835616  L 117.600571428572 24.8432876712327  L 117.413428571429 20.8191780821918  L 115.386047619048 20.4527853881277  L 111.524666666667 21.7382648401825  C 110.420523809524 23.0175342465752  109.135476190476 23.9304109589041  107.850428571429 23.9304109589041  C 106.565380952381 23.9304109589041  105.461238095238 22.8312328767122  104.357095238095 20.8191780821918  L 104.176190476191 20.8191780821918  L 104.176190476191 20.6390867579908  L 103.989047619048 18.0743378995433  L 103.989047619048 17.7079452054794  L 104.176190476191 15.3294977168948  L 102.155047619048 10.386301369863  L 98.2936666666666 11.4854794520547  L 96.6405714285714 12.9510502283104  L 97.1895238095239 18.4407305936072  L 91.1260952380952 15.6958904109589  L 92.5982857142858 18.987214611872  L 92.7791904761905 19.1673059360729  L 92.7791904761905 19.5336986301368  L 92.2302380952381 23.1914155251141  L 92.2302380952381 23.557808219178  L 92.0430952380954 23.557808219178  L 88.5497619047619 28.4947945205479  L 82.854380952381 31.9724200913241  L 82.3054285714287 35.2699543378995  C 82.1182857142857 35.8164383561643  82.854380952381 37.2820091324199  83.7713809523811 39.1077625570775  L 83.9585238095239 39.2940639269405  L 83.9585238095239 39.4803652968035  L 84.3265714285715 44.2372602739724  L 84.3265714285715 44.7837442922372  L 84.1456666666668 44.9700456621002  L 81.937380952381 47.8949771689496  L 81.7564761904762 48.0812785388125  L 81.5755714285715 48.0812785388125  L 79.9224761904763 49.1804566210043  L 79.7415714285716 49.1804566210043  L 79.5606666666669 49.1804566210043  L 79.3735238095241 49.1804566210043  L 79.1863809523812 49.1804566210043  L 74.9631904761907 48.2613698630134  C 74.2270952380956 48.2613698630134  73.3038571428574 48.6277625570773  72.3868571428575 49.3605479452052  L 70.5466190476192 51.3726027397258  L 69.0744285714288 53.2045662100454  C 68.1574285714289 54.850228310502  66.8723809523812 55.2166210045659  64.8512380952384 54.850228310502  C 63.5661904761907 54.6701369863011  63.1981428571431 53.3846575342463  63.5661904761907 51.7389954337897  L 63.5661904761907 50.4597260273971  L 63.385285714286 49.1804566210044  L 62.6491904761908 50.0933333333331  C 62.1002380952384 50.8261187214609  61.5450476190479 51.006210045662  60.8089523809527 51.006210045662  C 60.0728571428575 50.8261187214611  59.5239047619051 50.0933333333331  59.1558571428574 48.8140639269404  L 59.1558571428574 48.6339726027396  L 58.7878095238099 44.4235616438356  L 57.8645714285718 40.3994520547944  L 56.0243333333337 38.5674885844747  L 55.8434285714289 38.3811872146118  L 51.988285714286 29.6001826484018  L 51.8011428571432 29.4200913242008  L 50.6970000000003 26.8553424657533  L 50.6970000000003 26.6752511415525  L 50.5160952380956 26.6752511415525  L 50.5160952380956 26.4889497716895  L 49.7800000000004 21.7320547945205  L 49.231047619048 20.9992694063927  L 48.4949523809528 21.5457534246575  C 47.2036666666671 23.0113242009134  46.2866666666672 23.9242009132421  45.9186190476195 23.9242009132421  C 45.363428571429 23.9242009132421  44.4464285714289 23.1914155251142  42.9804761904766 22.0922374429224  L 40.2232380952385 20.8067579908676  L 39.8551904761909 20.6266666666668  L 39.6742857142862 20.4403652968036  L 39.6742857142862 20.2602739726028  L 39.4871428571433 19.8938812785389  L 39.3062380952385 16.2361643835617  L 38.7510476190481 13.4913242009134  L 37.2850952380957 9.8336073059362  L 35.8129047619053 9.8336073059362  C 35.99380952381 11.2991780821918  35.8129047619053 12.5784474885845  35.4448571428576 13.4913242009134  C 35.07680952381 14.5905022831051  34.3407142857147 15.3232876712329  33.2365714285719 16.2361643835617  C 32.8685238095243 17.5216438356165  32.3195714285719 18.4345205479452  31.5834761904766 19.161095890411  C 30.4793333333338 20.2602739726028  29.5623333333338 20.2602739726028  28.458190476191 19.5274885844749  L 27.9092380952386 19.341187214612  C 26.8050952380958 18.9747945205481  26.624190476191 17.6955251141554  26.8050952380958 15.3170776255708  L 26.8050952380958 14.4042009132421  L 24.4159047619053 12.9448401826486  C 23.4926666666671 12.5784474885845  22.9437142857147 11.4792694063927  22.7565714285719 9.8336073059362  L 23.67980952381 1.59908675799102  L 23.3117619047624 0.313607305936216  L 20.3736190476195 3.61114155251153  L 18.3524761904766 5.07671232876714  L 17.7972857142862 6.35598173515984  C 18.5333809523814 8.00785388127849  18.901428571429 9.28712328767131  18.901428571429 10.2  C 18.901428571429 12.0319634703197  17.984428571429 13.4913242009133  16.3313333333337 14.0440182648402  L 13.0189047619052 15.3232876712329  L 12.1019047619052 15.8697716894977  L 11.9147619047623 17.1552511415526  L 11.9147619047623 22.2785388127854  C 12.1019047619052 23.9242009132421  12.2828095238099 24.8370776255708  12.8380000000004 24.8370776255708  C 13.9359047619052 25.3897716894977  15.2271904761909 25.3897716894977  16.3313333333337 24.4706849315069  L 17.4354761904766 23.9242009132421  L 20.9288095238099 31.9724200913242  L 20.9288095238099 32.1587214611873  L 20.9288095238099 32.5251141552512  C 19.6375238095243 46.975890410959  18.3524761904766 55.2104109589042  16.6993809523814 57.4087671232878  C 15.9632857142861 58.1415525114155  15.4143333333338 58.5017351598174  14.3101904761909 58.6880365296805  C 13.0189047619053 58.6880365296805  12.1019047619052 58.5017351598174  10.8168571428575 57.7689497716896  C 6.03847619047662 67.2827397260274  2.91319047619089 72.2259360730594  1.4472380952385 72.9587214611872  C 0.711142857143216 73.1450228310503  0.524000000000456 75.5234703196348  0.711142857143329 79.7276712328768  L 1.81528571428618 80.6405479452055  L 2.18333333333379 81.0069406392695  L 2.55138095238141 81.3733333333334  Z " fill-rule="nonzero" fill="#00ccff" stroke="none" fill-opacity="0.298039215686275" transform="matrix(1 0 0 1 871 658 )" />
    <path d="M 2.55138095238141 81.3733333333334  L 0.892047619047673 83.4040182648401  L 0.155952380952328 85.7824657534247  C 1.26009523809523 85.7824657534247  2.72604761904762 85.0496803652969  4.20447619047621 83.9505022831052  L 4.38538095238096 83.764200913242  L 4.75342857142857 83.764200913242  L 12.1081428571429 82.8513242009133  L 16.8865238095239 80.4728767123288  L 18.7267619047619 83.0314155251142  L 19.0948095238095 83.2177168949771  L 16.8865238095239 86.6953424657535  L 19.456619047619 89.2538812785389  L 19.456619047619 89.4401826484018  L 19.456619047619 89.9866666666666  L 17.616380952381 97.6747031963471  L 22.3947619047619 101.152328767123  L 31.0345238095238 101.518721461187  L 29.7494761904762 103.164383561644  C 24.235 109.933333333333  21.6586666666667 113.963652968037  21.8458095238096 115.242922374429  L 25.1582380952381 115.975707762557  C 29.5685714285715 116.342100456621  32.1386666666668 117.621369863014  33.0619047619047 119.26703196347  C 34.1660476190476 121.465388127854  35.2701904761905 123.657534246575  36.1871904761904 126.222283105023  L 41.1527142857144 128.967123287671  L 44.278 129.519817351598  L 50.7094761904762 124.030136986301  L 54.0156666666666 128.967123287671  L 54.0156666666666 129.147214611872  L 54.2028095238094 129.333515981735  L 55.3007142857143 133.904109589041  L 58.0579523809523 134.450593607306  L 62.2873809523809 135.916164383562  L 63.3915238095236 135.549771689498  L 63.3915238095236 135.369680365297  L 62.6554285714284 130.612785388128  L 62.4745238095236 130.432694063927  L 60.0853333333331 119.633424657534  L 60.0853333333331 119.26703196347  L 61.5575238095237 111.765296803653  L 61.9255714285714 111.945388127854  L 62.4745238095236 111.945388127854  L 67.4338095238094 112.311780821918  L 73.6843809523809 107.73497716895  L 74.2395714285714 108.101369863014  C 77.5457619047618 110.659908675799  79.7540476190476 112.67196347032  80.8519523809523 114.137534246575  C 81.9560952380952 113.771141552511  83.977238095238 111.759086757991  86.734476190476 108.647853881278  L 86.9216190476189 108.461552511416  L 87.2896666666664 108.095159817351  L 96.4783809523809 110.473607305936  L 100.526904761905 107.182283105023  L 100.714047619048 106.99598173516  L 100.894952380952 106.815890410959  L 101.082095238095 106.815890410959  L 101.263 106.99598173516  L 105.124380952381 107.728767123288  L 117.625523809524 96.7494063926941  L 121.480666666666 97.8485844748859  L 121.661571428571 98.0348858447488  L 121.842476190476 98.2149771689498  L 122.029619047619 98.4012785388128  L 122.946619047619 100.046940639269  L 123.863619047619 98.9477625570776  L 124.050761904762 98.9477625570776  L 124.050761904762 98.7614611872147  L 124.231666666666 98.7614611872147  L 127.905904761904 96.7494063926941  L 130.663142857142 94.1846575342465  L 129.927047619047 88.5148858447488  L 129.378095238095 87.782100456621  L 125.891 89.2476712328767  C 124.786857142857 89.6140639269407  123.863619047619 89.9804566210046  122.578571428571 89.9804566210046  L 118.52380952381 89.9804566210046  C 117.238761904762 89.8003652968036  116.502666666667 89.4339726027397  115.953714285714 88.7011872146119  L 115.585666666667 82.8451141552512  C 114.300619047619 82.1123287671234  113.745428571428 81.7459360730595  113.196476190476 81.7459360730595  L 112.279476190476 82.1123287671234  L 110.994428571429 82.8451141552512  L 108.424333333333 83.3915981735161  L 107.688238095238 83.3915981735161  L 107.507333333333 83.025205479452  L 106.035142857143 80.4666666666667  L 105.848 78.0882191780822  L 107.313952380952 71.1329680365296  L 107.501095238095 71.1329680365296  L 107.501095238095 70.9528767123288  L 109.15419047619 67.4752511415525  L 104.007761904762 62.8984474885845  L 103.826857142857 62.7183561643835  L 103.645952380953 62.5320547945206  L 103.645952380953 57.2286757990869  L 103.826857142857 57.048584474886  L 106.771238095238 48.6339726027398  L 104.931 44.0571689497718  L 103.277904761905 43.6907762557078  L 101.250523809524 43.8708675799087  L 99.229380952381 46.9821004566211  L 96.6592857142858 45.1501369863014  L 94.0891904761906 43.6845662100457  L 92.0618095238095 38.5612785388128  L 91.3319523809523 34.9035616438357  L 91.3319523809523 34.5371689497717  L 91.1448095238096 34.3570776255708  L 91.693761904762 33.9906849315068  L 94.0829523809524 30.6993607305936  L 94.6319047619048 30.3329680365297  L 94.8128095238096 30.3329680365297  L 96.6468095238097 29.9665753424657  L 98.6679523809525 29.4200913242009  L 108.224714285714 29.053698630137  L 108.405619047619 29.053698630137  L 109.690666666667 29.6001826484018  L 110.058714285714 29.7864840182648  L 111.530904761905 30.3329680365297  L 114.107238095238 29.2337899543379  L 116.309285714286 27.5881278538812  L 117.413428571429 25.7561643835616  L 117.600571428572 24.8432876712327  L 117.413428571429 20.8191780821918  L 115.386047619048 20.4527853881277  L 111.524666666667 21.7382648401825  C 110.420523809524 23.0175342465752  109.135476190476 23.9304109589041  107.850428571429 23.9304109589041  C 106.565380952381 23.9304109589041  105.461238095238 22.8312328767122  104.357095238095 20.8191780821918  L 104.176190476191 20.8191780821918  L 104.176190476191 20.6390867579908  L 103.989047619048 18.0743378995433  L 103.989047619048 17.7079452054794  L 104.176190476191 15.3294977168948  L 102.155047619048 10.386301369863  L 98.2936666666666 11.4854794520547  L 96.6405714285714 12.9510502283104  L 97.1895238095239 18.4407305936072  L 91.1260952380952 15.6958904109589  L 92.5982857142858 18.987214611872  L 92.7791904761905 19.1673059360729  L 92.7791904761905 19.5336986301368  L 92.2302380952381 23.1914155251141  L 92.2302380952381 23.557808219178  L 92.0430952380954 23.557808219178  L 88.5497619047619 28.4947945205479  L 82.854380952381 31.9724200913241  L 82.3054285714287 35.2699543378995  C 82.1182857142857 35.8164383561643  82.854380952381 37.2820091324199  83.7713809523811 39.1077625570775  L 83.9585238095239 39.2940639269405  L 83.9585238095239 39.4803652968035  L 84.3265714285715 44.2372602739724  L 84.3265714285715 44.7837442922372  L 84.1456666666668 44.9700456621002  L 81.937380952381 47.8949771689496  L 81.7564761904762 48.0812785388125  L 81.5755714285715 48.0812785388125  L 79.9224761904763 49.1804566210043  L 79.7415714285716 49.1804566210043  L 79.5606666666669 49.1804566210043  L 79.3735238095241 49.1804566210043  L 79.1863809523812 49.1804566210043  L 74.9631904761907 48.2613698630134  C 74.2270952380956 48.2613698630134  73.3038571428574 48.6277625570773  72.3868571428575 49.3605479452052  L 70.5466190476192 51.3726027397258  L 69.0744285714288 53.2045662100454  C 68.1574285714289 54.850228310502  66.8723809523812 55.2166210045659  64.8512380952384 54.850228310502  C 63.5661904761907 54.6701369863011  63.1981428571431 53.3846575342463  63.5661904761907 51.7389954337897  L 63.5661904761907 50.4597260273971  L 63.385285714286 49.1804566210044  L 62.6491904761908 50.0933333333331  C 62.1002380952384 50.8261187214609  61.5450476190479 51.006210045662  60.8089523809527 51.006210045662  C 60.0728571428575 50.8261187214611  59.5239047619051 50.0933333333331  59.1558571428574 48.8140639269404  L 59.1558571428574 48.6339726027396  L 58.7878095238099 44.4235616438356  L 57.8645714285718 40.3994520547944  L 56.0243333333337 38.5674885844747  L 55.8434285714289 38.3811872146118  L 51.988285714286 29.6001826484018  L 51.8011428571432 29.4200913242008  L 50.6970000000003 26.8553424657533  L 50.6970000000003 26.6752511415525  L 50.5160952380956 26.6752511415525  L 50.5160952380956 26.4889497716895  L 49.7800000000004 21.7320547945205  L 49.231047619048 20.9992694063927  L 48.4949523809528 21.5457534246575  C 47.2036666666671 23.0113242009134  46.2866666666672 23.9242009132421  45.9186190476195 23.9242009132421  C 45.363428571429 23.9242009132421  44.4464285714289 23.1914155251142  42.9804761904766 22.0922374429224  L 40.2232380952385 20.8067579908676  L 39.8551904761909 20.6266666666668  L 39.6742857142862 20.4403652968036  L 39.6742857142862 20.2602739726028  L 39.4871428571433 19.8938812785389  L 39.3062380952385 16.2361643835617  L 38.7510476190481 13.4913242009134  L 37.2850952380957 9.8336073059362  L 35.8129047619053 9.8336073059362  C 35.99380952381 11.2991780821918  35.8129047619053 12.5784474885845  35.4448571428576 13.4913242009134  C 35.07680952381 14.5905022831051  34.3407142857147 15.3232876712329  33.2365714285719 16.2361643835617  C 32.8685238095243 17.5216438356165  32.3195714285719 18.4345205479452  31.5834761904766 19.161095890411  C 30.4793333333338 20.2602739726028  29.5623333333338 20.2602739726028  28.458190476191 19.5274885844749  L 27.9092380952386 19.341187214612  C 26.8050952380958 18.9747945205481  26.624190476191 17.6955251141554  26.8050952380958 15.3170776255708  L 26.8050952380958 14.4042009132421  L 24.4159047619053 12.9448401826486  C 23.4926666666671 12.5784474885845  22.9437142857147 11.4792694063927  22.7565714285719 9.8336073059362  L 23.67980952381 1.59908675799102  L 23.3117619047624 0.313607305936216  L 20.3736190476195 3.61114155251153  L 18.3524761904766 5.07671232876714  L 17.7972857142862 6.35598173515984  C 18.5333809523814 8.00785388127849  18.901428571429 9.28712328767131  18.901428571429 10.2  C 18.901428571429 12.0319634703197  17.984428571429 13.4913242009133  16.3313333333337 14.0440182648402  L 13.0189047619052 15.3232876712329  L 12.1019047619052 15.8697716894977  L 11.9147619047623 17.1552511415526  L 11.9147619047623 22.2785388127854  C 12.1019047619052 23.9242009132421  12.2828095238099 24.8370776255708  12.8380000000004 24.8370776255708  C 13.9359047619052 25.3897716894977  15.2271904761909 25.3897716894977  16.3313333333337 24.4706849315069  L 17.4354761904766 23.9242009132421  L 20.9288095238099 31.9724200913242  L 20.9288095238099 32.1587214611873  L 20.9288095238099 32.5251141552512  C 19.6375238095243 46.975890410959  18.3524761904766 55.2104109589042  16.6993809523814 57.4087671232878  C 15.9632857142861 58.1415525114155  15.4143333333338 58.5017351598174  14.3101904761909 58.6880365296805  C 13.0189047619053 58.6880365296805  12.1019047619052 58.5017351598174  10.8168571428575 57.7689497716896  C 6.03847619047662 67.2827397260274  2.91319047619089 72.2259360730594  1.4472380952385 72.9587214611872  C 0.711142857143216 73.1450228310503  0.524000000000456 75.5234703196348  0.711142857143329 79.7276712328768  L 1.81528571428618 80.6405479452055  L 2.18333333333379 81.0069406392695  L 2.55138095238141 81.3733333333334  Z " stroke-width="4" stroke="#00ccff" fill="none" stroke-opacity="0.498039215686275" transform="matrix(1 0 0 1 871 658 )" mask="url(#clip495)" />
  </g>
</svg>