<?xml version="1.0" encoding="utf-8"?>
<svg version="1.1" xmlns:xlink="http://www.w3.org/1999/xlink" width="74px" height="133px" xmlns="http://www.w3.org/2000/svg">
  <defs>
    <mask fill="white" id="clip503">
      <path d="M 27.7344537815126 32.0163317757011  L 24.6376470588236 30.5247429906543  L 23.536974789916 30.3382943925234  L 21.7025210084034 41.5127803738319  L 24.8179831932773 45.1733878504673  L 27.7468907563025 46.4598831775701  L 27.9272268907562 46.4598831775701  L 28.1137815126049 46.6401168224299  L 31.963025210084 49.753808411215  L 37.273613445378 51.0403037383178  L 37.4539495798318 51.0403037383178  L 40.2025210084032 52.8737149532711  L 40.389075630252 52.8737149532711  L 40.389075630252 53.2403971962617  L 42.4038655462183 56.1676401869159  L 42.770756302521 56.5343224299065  L 42.5842016806722 56.9010046728971  L 40.7497478991596 59.8344626168224  C 40.3828571428571 60.2011448598131  40.3828571428571 61.1147429906541  40.3828571428571 62.5814719626168  L 40.5694117647057 62.5814719626168  L 40.5694117647057 66.0556308411215  L 40.3828571428571 66.2358644859812  L 38.7349579831932 71.7298831775701  L 38.5546218487393 72.6434813084112  L 38.1877310924369 72.6434813084112  L 37.6405042016805 72.4632476635513  L 35.2588235294118 71.9101168224299  L 32.1433613445377 72.0965654205609  L 29.3947899159664 73.0101635514019  L 26.2793277310923 75.5707242990654  L 25.5517647058822 76.3040887850467  L 29.5813445378151 78.3177336448598  L 29.2144537815125 79.0510981308411  C 29.0278991596639 79.9646962616822  28.1137815126049 80.8845093457944  26.6462184873949 81.4314252336449  L 24.0842016806722 81.6178738317756  L 19.8680672268907 79.9709112149533  L 16.0188235294116 77.7770327102803  L 14.3709243697479 77.7770327102803  L 9.78789915966377 84.3710981308411  L 8.86756302520996 86.564976635514  L 8.86756302520996 90.4120327102803  L 10.7020168067226 93.5257242990654  L 10.7020168067226 93.7059579439252  L 11.8026890756302 96.6332009345795  L 11.8026890756302 96.9998831775702  L 11.9830252100841 101.207406542056  L 11.9830252100841 101.754322429907  L 12.1633613445377 102.121004672897  L 9.23445378151246 102.674135514019  L 3.73731092436947 102.674135514019  L 1.169075630252 104.321098130841  L 0.0684033613443944 106.154509345795  L 0.248739495798077 106.334742990654  L 1.34941176470568 111.828761682243  L 1.53596638655438 111.828761682243  L 1.53596638655438 114.028855140187  L 2.81697478991566 116.58941588785  L 6.66621848739487 119.156191588785  L 12.3436974789914 117.875911214953  L 15.0922689075627 116.0425  L 15.4653781512602 115.856051401869  L 18.0273949579829 115.856051401869  L 19.4949579831931 119.336425233645  C 20.4152941176469 120.250023364486  21.142857142857 121.163621495327  21.5097478991595 122.263668224299  L 22.7969747899157 122.083434579439  L 23.1638655462184 122.083434579439  L 23.5307563025208 122.083434579439  L 23.7173109243696 121.716752336449  L 26.2793277310923 119.703107476636  L 28.6610084033613 123.916845794393  L 31.2292436974789 125.563808411215  L 34.8981512605042 125.563808411215  L 37.6467226890755 125.197126168224  L 38.1939495798317 125.197126168224  L 44.7917647058822 126.110724299066  L 44.9783193277309 126.110724299066  L 44.9783193277309 126.297172897196  L 47.7268907563024 127.944135514019  L 47.7268907563024 128.124369158878  L 50.1085714285712 129.951565420561  L 50.1085714285712 130.131799065421  L 51.7564705882351 131.965210280374  L 53.5909243697477 132.698574766355  L 56.5198319327731 132.331892523365  L 56.5198319327731 128.491051401869  L 55.0522689075628 125.924275700935  L 54.8719327731092 125.924275700935  L 54.8719327731092 125.737827102804  L 53.7712605042016 120.977172897196  L 56.3332773109244 118.416612149533  L 56.513613445378 118.230163551402  L 56.7001680672267 118.230163551402  L 58.8952941176468 117.863481308411  L 61.2769747899158 117.863481308411  L 62.0107563025209 116.94988317757  L 60.5431932773107 114.936238317757  L 55.2326050420165 111.455864485981  L 53.9515966386554 109.442219626168  L 53.7650420168065 109.261985981308  L 53.5847058823529 109.081752336449  L 53.7650420168065 108.715070093458  L 55.2326050420168 105.968060747664  L 55.5994957983193 106.328528037383  L 59.2621848739494 107.248341121495  L 68.9754621848738 106.881658878505  L 69.1557983193277 107.061892523365  L 69.3361344537814 107.061892523365  L 72.0847058823529 107.975490654206  L 73.9191596638653 106.328528037383  L 72.9988235294117 100.654275700935  L 69.5164705882352 98.4541822429908  C 66.58756302521 96.8072196261684  65.6672268907561 92.7799299065422  66.2206722689075 86.1858644859814  L 63.2917647058822 84.7191355140187  L 62.9248739495797 84.538901869159  L 62.5579831932771 84.538901869159  L 62.5579831932771 84.1722196261683  L 62.5579831932771 83.9919859813085  L 62.0107563025209 79.2251168224301  L 66.0403361344536 60.5491822429909  C 64.3924369747897 55.0551635514021  63.4783193277309 51.3945560747666  63.4783193277309 49.5611448598133  L 63.1114285714284 44.0671261682245  L 63.4783193277309 38.0261915887852  L 63.4783193277309 37.6595093457945  L 63.8452100840335 37.2990420560749  L 67.5141176470586 34.5520327102806  L 67.5141176470586 31.6247897196264  C 67.5141176470586 30.891425233645  67.1472268907562 29.7913785046732  66.2331092436974 28.3308644859816  L 63.8514285714284 25.764088785047  L 63.4845378151259 25.764088785047  L 63.4845378151259 25.2171728971965  L 63.1176470588233 20.8232009345796  L 63.1176470588233 20.6429672897198  L 62.9310924369745 20.4565186915891  L 63.2979831932772 20.2700700934581  L 63.2979831932772 20.0898364485982  L 68.061344537815 14.0489018691591  L 68.061344537815 11.4883411214954  L 66.5937815126048 8.74133177570104  L 66.5937815126048 8.56109813084129  L 66.4072268907561 8.1944158878506  L 68.7889075630251 5.26717289719636  L 68.7889075630251 5.08072429906554  L 68.9754621848738 5.08072429906554  L 71.5436974789914 3.06707943925255  L 71.1768067226889 0.686752336448762  L 69.8895798319326 0.686752336448762  L 67.8747899159663 0.320070093458071  L 66.7741176470585 4.71404205607496  L 66.2206722689073 4.53380841121509  L 61.4573109243695 2.70039719626186  L 58.5284033613443 2.15348130841141  L 59.6290756302519 6.73390186915901  L 55.599495798319 8.02039719626191  L 49.7354621848737 11.134088785047  L 47.9010084033611 13.5144158878506  L 47.9010084033611 13.7008644859815  L 47.7144537815125 13.7008644859815  L 44.5989915966384 16.4478738317758  L 44.0517647058822 20.8418457943926  L 44.0517647058822 21.2085280373833  L 42.3976470588233 27.4359112149534  L 42.5779831932772 27.4359112149534  L 41.8442016806721 30.3631542056075  L 41.8442016806721 30.5496028037385  L 41.6576470588234 30.7298364485982  L 39.642857142857 33.4768457943926  L 39.4625210084033 33.4768457943926  L 39.4625210084033 33.6570794392525  L 39.2759663865545 33.8373130841123  L 39.0956302521008 33.8373130841123  L 34.6991596638655 34.3904439252339  L 34.6991596638655 34.5706775700937  L 34.5126050420167 34.3904439252339  L 27.9147899159663 32.196565420561  L 27.7344537815126 32.0163317757011  Z " fill-rule="evenodd" />
    </mask>
  </defs>
  <g transform="matrix(1 0 0 1 -995 -478 )">
    <path d="M 27.7344537815126 32.0163317757011  L 24.6376470588236 30.5247429906543  L 23.536974789916 30.3382943925234  L 21.7025210084034 41.5127803738319  L 24.8179831932773 45.1733878504673  L 27.7468907563025 46.4598831775701  L 27.9272268907562 46.4598831775701  L 28.1137815126049 46.6401168224299  L 31.963025210084 49.753808411215  L 37.273613445378 51.0403037383178  L 37.4539495798318 51.0403037383178  L 40.2025210084032 52.8737149532711  L 40.389075630252 52.8737149532711  L 40.389075630252 53.2403971962617  L 42.4038655462183 56.1676401869159  L 42.770756302521 56.5343224299065  L 42.5842016806722 56.9010046728971  L 40.7497478991596 59.8344626168224  C 40.3828571428571 60.2011448598131  40.3828571428571 61.1147429906541  40.3828571428571 62.5814719626168  L 40.5694117647057 62.5814719626168  L 40.5694117647057 66.0556308411215  L 40.3828571428571 66.2358644859812  L 38.7349579831932 71.7298831775701  L 38.5546218487393 72.6434813084112  L 38.1877310924369 72.6434813084112  L 37.6405042016805 72.4632476635513  L 35.2588235294118 71.9101168224299  L 32.1433613445377 72.0965654205609  L 29.3947899159664 73.0101635514019  L 26.2793277310923 75.5707242990654  L 25.5517647058822 76.3040887850467  L 29.5813445378151 78.3177336448598  L 29.2144537815125 79.0510981308411  C 29.0278991596639 79.9646962616822  28.1137815126049 80.8845093457944  26.6462184873949 81.4314252336449  L 24.0842016806722 81.6178738317756  L 19.8680672268907 79.9709112149533  L 16.0188235294116 77.7770327102803  L 14.3709243697479 77.7770327102803  L 9.78789915966377 84.3710981308411  L 8.86756302520996 86.564976635514  L 8.86756302520996 90.4120327102803  L 10.7020168067226 93.5257242990654  L 10.7020168067226 93.7059579439252  L 11.8026890756302 96.6332009345795  L 11.8026890756302 96.9998831775702  L 11.9830252100841 101.207406542056  L 11.9830252100841 101.754322429907  L 12.1633613445377 102.121004672897  L 9.23445378151246 102.674135514019  L 3.73731092436947 102.674135514019  L 1.169075630252 104.321098130841  L 0.0684033613443944 106.154509345795  L 0.248739495798077 106.334742990654  L 1.34941176470568 111.828761682243  L 1.53596638655438 111.828761682243  L 1.53596638655438 114.028855140187  L 2.81697478991566 116.58941588785  L 6.66621848739487 119.156191588785  L 12.3436974789914 117.875911214953  L 15.0922689075627 116.0425  L 15.4653781512602 115.856051401869  L 18.0273949579829 115.856051401869  L 19.4949579831931 119.336425233645  C 20.4152941176469 120.250023364486  21.142857142857 121.163621495327  21.5097478991595 122.263668224299  L 22.7969747899157 122.083434579439  L 23.1638655462184 122.083434579439  L 23.5307563025208 122.083434579439  L 23.7173109243696 121.716752336449  L 26.2793277310923 119.703107476636  L 28.6610084033613 123.916845794393  L 31.2292436974789 125.563808411215  L 34.8981512605042 125.563808411215  L 37.6467226890755 125.197126168224  L 38.1939495798317 125.197126168224  L 44.7917647058822 126.110724299066  L 44.9783193277309 126.110724299066  L 44.9783193277309 126.297172897196  L 47.7268907563024 127.944135514019  L 47.7268907563024 128.124369158878  L 50.1085714285712 129.951565420561  L 50.1085714285712 130.131799065421  L 51.7564705882351 131.965210280374  L 53.5909243697477 132.698574766355  L 56.5198319327731 132.331892523365  L 56.5198319327731 128.491051401869  L 55.0522689075628 125.924275700935  L 54.8719327731092 125.924275700935  L 54.8719327731092 125.737827102804  L 53.7712605042016 120.977172897196  L 56.3332773109244 118.416612149533  L 56.513613445378 118.230163551402  L 56.7001680672267 118.230163551402  L 58.8952941176468 117.863481308411  L 61.2769747899158 117.863481308411  L 62.0107563025209 116.94988317757  L 60.5431932773107 114.936238317757  L 55.2326050420165 111.455864485981  L 53.9515966386554 109.442219626168  L 53.7650420168065 109.261985981308  L 53.5847058823529 109.081752336449  L 53.7650420168065 108.715070093458  L 55.2326050420168 105.968060747664  L 55.5994957983193 106.328528037383  L 59.2621848739494 107.248341121495  L 68.9754621848738 106.881658878505  L 69.1557983193277 107.061892523365  L 69.3361344537814 107.061892523365  L 72.0847058823529 107.975490654206  L 73.9191596638653 106.328528037383  L 72.9988235294117 100.654275700935  L 69.5164705882352 98.4541822429908  C 66.58756302521 96.8072196261684  65.6672268907561 92.7799299065422  66.2206722689075 86.1858644859814  L 63.2917647058822 84.7191355140187  L 62.9248739495797 84.538901869159  L 62.5579831932771 84.538901869159  L 62.5579831932771 84.1722196261683  L 62.5579831932771 83.9919859813085  L 62.0107563025209 79.2251168224301  L 66.0403361344536 60.5491822429909  C 64.3924369747897 55.0551635514021  63.4783193277309 51.3945560747666  63.4783193277309 49.5611448598133  L 63.1114285714284 44.0671261682245  L 63.4783193277309 38.0261915887852  L 63.4783193277309 37.6595093457945  L 63.8452100840335 37.2990420560749  L 67.5141176470586 34.5520327102806  L 67.5141176470586 31.6247897196264  C 67.5141176470586 30.891425233645  67.1472268907562 29.7913785046732  66.2331092436974 28.3308644859816  L 63.8514285714284 25.764088785047  L 63.4845378151259 25.764088785047  L 63.4845378151259 25.2171728971965  L 63.1176470588233 20.8232009345796  L 63.1176470588233 20.6429672897198  L 62.9310924369745 20.4565186915891  L 63.2979831932772 20.2700700934581  L 63.2979831932772 20.0898364485982  L 68.061344537815 14.0489018691591  L 68.061344537815 11.4883411214954  L 66.5937815126048 8.74133177570104  L 66.5937815126048 8.56109813084129  L 66.4072268907561 8.1944158878506  L 68.7889075630251 5.26717289719636  L 68.7889075630251 5.08072429906554  L 68.9754621848738 5.08072429906554  L 71.5436974789914 3.06707943925255  L 71.1768067226889 0.686752336448762  L 69.8895798319326 0.686752336448762  L 67.8747899159663 0.320070093458071  L 66.7741176470585 4.71404205607496  L 66.2206722689073 4.53380841121509  L 61.4573109243695 2.70039719626186  L 58.5284033613443 2.15348130841141  L 59.6290756302519 6.73390186915901  L 55.599495798319 8.02039719626191  L 49.7354621848737 11.134088785047  L 47.9010084033611 13.5144158878506  L 47.9010084033611 13.7008644859815  L 47.7144537815125 13.7008644859815  L 44.5989915966384 16.4478738317758  L 44.0517647058822 20.8418457943926  L 44.0517647058822 21.2085280373833  L 42.3976470588233 27.4359112149534  L 42.5779831932772 27.4359112149534  L 41.8442016806721 30.3631542056075  L 41.8442016806721 30.5496028037385  L 41.6576470588234 30.7298364485982  L 39.642857142857 33.4768457943926  L 39.4625210084033 33.4768457943926  L 39.4625210084033 33.6570794392525  L 39.2759663865545 33.8373130841123  L 39.0956302521008 33.8373130841123  L 34.6991596638655 34.3904439252339  L 34.6991596638655 34.5706775700937  L 34.5126050420167 34.3904439252339  L 27.9147899159663 32.196565420561  L 27.7344537815126 32.0163317757011  Z " fill-rule="nonzero" fill="#00ccff" stroke="none" fill-opacity="0.498039215686275" transform="matrix(1 0 0 1 995 478 )" />
    <path d="M 27.7344537815126 32.0163317757011  L 24.6376470588236 30.5247429906543  L 23.536974789916 30.3382943925234  L 21.7025210084034 41.5127803738319  L 24.8179831932773 45.1733878504673  L 27.7468907563025 46.4598831775701  L 27.9272268907562 46.4598831775701  L 28.1137815126049 46.6401168224299  L 31.963025210084 49.753808411215  L 37.273613445378 51.0403037383178  L 37.4539495798318 51.0403037383178  L 40.2025210084032 52.8737149532711  L 40.389075630252 52.8737149532711  L 40.389075630252 53.2403971962617  L 42.4038655462183 56.1676401869159  L 42.770756302521 56.5343224299065  L 42.5842016806722 56.9010046728971  L 40.7497478991596 59.8344626168224  C 40.3828571428571 60.2011448598131  40.3828571428571 61.1147429906541  40.3828571428571 62.5814719626168  L 40.5694117647057 62.5814719626168  L 40.5694117647057 66.0556308411215  L 40.3828571428571 66.2358644859812  L 38.7349579831932 71.7298831775701  L 38.5546218487393 72.6434813084112  L 38.1877310924369 72.6434813084112  L 37.6405042016805 72.4632476635513  L 35.2588235294118 71.9101168224299  L 32.1433613445377 72.0965654205609  L 29.3947899159664 73.0101635514019  L 26.2793277310923 75.5707242990654  L 25.5517647058822 76.3040887850467  L 29.5813445378151 78.3177336448598  L 29.2144537815125 79.0510981308411  C 29.0278991596639 79.9646962616822  28.1137815126049 80.8845093457944  26.6462184873949 81.4314252336449  L 24.0842016806722 81.6178738317756  L 19.8680672268907 79.9709112149533  L 16.0188235294116 77.7770327102803  L 14.3709243697479 77.7770327102803  L 9.78789915966377 84.3710981308411  L 8.86756302520996 86.564976635514  L 8.86756302520996 90.4120327102803  L 10.7020168067226 93.5257242990654  L 10.7020168067226 93.7059579439252  L 11.8026890756302 96.6332009345795  L 11.8026890756302 96.9998831775702  L 11.9830252100841 101.207406542056  L 11.9830252100841 101.754322429907  L 12.1633613445377 102.121004672897  L 9.23445378151246 102.674135514019  L 3.73731092436947 102.674135514019  L 1.169075630252 104.321098130841  L 0.0684033613443944 106.154509345795  L 0.248739495798077 106.334742990654  L 1.34941176470568 111.828761682243  L 1.53596638655438 111.828761682243  L 1.53596638655438 114.028855140187  L 2.81697478991566 116.58941588785  L 6.66621848739487 119.156191588785  L 12.3436974789914 117.875911214953  L 15.0922689075627 116.0425  L 15.4653781512602 115.856051401869  L 18.0273949579829 115.856051401869  L 19.4949579831931 119.336425233645  C 20.4152941176469 120.250023364486  21.142857142857 121.163621495327  21.5097478991595 122.263668224299  L 22.7969747899157 122.083434579439  L 23.1638655462184 122.083434579439  L 23.5307563025208 122.083434579439  L 23.7173109243696 121.716752336449  L 26.2793277310923 119.703107476636  L 28.6610084033613 123.916845794393  L 31.2292436974789 125.563808411215  L 34.8981512605042 125.563808411215  L 37.6467226890755 125.197126168224  L 38.1939495798317 125.197126168224  L 44.7917647058822 126.110724299066  L 44.9783193277309 126.110724299066  L 44.9783193277309 126.297172897196  L 47.7268907563024 127.944135514019  L 47.7268907563024 128.124369158878  L 50.1085714285712 129.951565420561  L 50.1085714285712 130.131799065421  L 51.7564705882351 131.965210280374  L 53.5909243697477 132.698574766355  L 56.5198319327731 132.331892523365  L 56.5198319327731 128.491051401869  L 55.0522689075628 125.924275700935  L 54.8719327731092 125.924275700935  L 54.8719327731092 125.737827102804  L 53.7712605042016 120.977172897196  L 56.3332773109244 118.416612149533  L 56.513613445378 118.230163551402  L 56.7001680672267 118.230163551402  L 58.8952941176468 117.863481308411  L 61.2769747899158 117.863481308411  L 62.0107563025209 116.94988317757  L 60.5431932773107 114.936238317757  L 55.2326050420165 111.455864485981  L 53.9515966386554 109.442219626168  L 53.7650420168065 109.261985981308  L 53.5847058823529 109.081752336449  L 53.7650420168065 108.715070093458  L 55.2326050420168 105.968060747664  L 55.5994957983193 106.328528037383  L 59.2621848739494 107.248341121495  L 68.9754621848738 106.881658878505  L 69.1557983193277 107.061892523365  L 69.3361344537814 107.061892523365  L 72.0847058823529 107.975490654206  L 73.9191596638653 106.328528037383  L 72.9988235294117 100.654275700935  L 69.5164705882352 98.4541822429908  C 66.58756302521 96.8072196261684  65.6672268907561 92.7799299065422  66.2206722689075 86.1858644859814  L 63.2917647058822 84.7191355140187  L 62.9248739495797 84.538901869159  L 62.5579831932771 84.538901869159  L 62.5579831932771 84.1722196261683  L 62.5579831932771 83.9919859813085  L 62.0107563025209 79.2251168224301  L 66.0403361344536 60.5491822429909  C 64.3924369747897 55.0551635514021  63.4783193277309 51.3945560747666  63.4783193277309 49.5611448598133  L 63.1114285714284 44.0671261682245  L 63.4783193277309 38.0261915887852  L 63.4783193277309 37.6595093457945  L 63.8452100840335 37.2990420560749  L 67.5141176470586 34.5520327102806  L 67.5141176470586 31.6247897196264  C 67.5141176470586 30.891425233645  67.1472268907562 29.7913785046732  66.2331092436974 28.3308644859816  L 63.8514285714284 25.764088785047  L 63.4845378151259 25.764088785047  L 63.4845378151259 25.2171728971965  L 63.1176470588233 20.8232009345796  L 63.1176470588233 20.6429672897198  L 62.9310924369745 20.4565186915891  L 63.2979831932772 20.2700700934581  L 63.2979831932772 20.0898364485982  L 68.061344537815 14.0489018691591  L 68.061344537815 11.4883411214954  L 66.5937815126048 8.74133177570104  L 66.5937815126048 8.56109813084129  L 66.4072268907561 8.1944158878506  L 68.7889075630251 5.26717289719636  L 68.7889075630251 5.08072429906554  L 68.9754621848738 5.08072429906554  L 71.5436974789914 3.06707943925255  L 71.1768067226889 0.686752336448762  L 69.8895798319326 0.686752336448762  L 67.8747899159663 0.320070093458071  L 66.7741176470585 4.71404205607496  L 66.2206722689073 4.53380841121509  L 61.4573109243695 2.70039719626186  L 58.5284033613443 2.15348130841141  L 59.6290756302519 6.73390186915901  L 55.599495798319 8.02039719626191  L 49.7354621848737 11.134088785047  L 47.9010084033611 13.5144158878506  L 47.9010084033611 13.7008644859815  L 47.7144537815125 13.7008644859815  L 44.5989915966384 16.4478738317758  L 44.0517647058822 20.8418457943926  L 44.0517647058822 21.2085280373833  L 42.3976470588233 27.4359112149534  L 42.5779831932772 27.4359112149534  L 41.8442016806721 30.3631542056075  L 41.8442016806721 30.5496028037385  L 41.6576470588234 30.7298364485982  L 39.642857142857 33.4768457943926  L 39.4625210084033 33.4768457943926  L 39.4625210084033 33.6570794392525  L 39.2759663865545 33.8373130841123  L 39.0956302521008 33.8373130841123  L 34.6991596638655 34.3904439252339  L 34.6991596638655 34.5706775700937  L 34.5126050420167 34.3904439252339  L 27.9147899159663 32.196565420561  L 27.7344537815126 32.0163317757011  Z " stroke-width="4" stroke="#00ccff" fill="none" stroke-opacity="0.498039215686275" transform="matrix(1 0 0 1 995 478 )" mask="url(#clip503)" />
  </g>
</svg>