<?xml version="1.0" encoding="utf-8"?>
<svg version="1.1" xmlns:xlink="http://www.w3.org/1999/xlink" width="300px" height="227px" xmlns="http://www.w3.org/2000/svg">
  <defs>
    <mask fill="white" id="clip490">
      <path d="M 299.151767151767 122.141547945206  L 299.170478170478 122.141547945206  L 299.351351351351 121.95497260274  L 299.538461538462 121.95497260274  L 299.538461538462 121.774616438356  L 293.656964656965 105.101  L 289.983367983368 102.171767123288  L 289.983367983368 101.804835616438  L 289.060291060291 95.0197123287671  L 281.345114345114 93.9251369863014  L 281.158004158004 93.9251369863014  L 280.790020790021 93.9251369863014  L 280.790020790021 93.7385616438356  L 280.609147609148 93.3716301369864  L 280.609147609148 93.1912739726029  C 279.692307692308 90.6289726027399  277.303534303534 87.8738767123289  273.629937629938 84.9446438356165  C 271.609147609148 83.2965616438356  269.582120582121 82.1957671232877  267.929313929314 81.8288356164384  C 266.644490644491 81.0949726027399  265.359667359667 80.5476849315069  264.43659043659 79.8138219178082  C 262.047817047817 78.1657397260275  253.777546777547 76.884589041096  239.264033264033 76.5176575342466  L 238.715176715177 76.5176575342466  L 237.06237006237 73.9553561643836  C 236.326403326403 72.3072739726027  235.77130977131 70.8395479452055  235.590436590437 69.1914657534247  C 235.590436590437 67.1764520547945  237.97920997921 60.5779041095891  243.12474012474 49.7689726027398  L 240.555093555094 41.7026986301371  L 237.798336798337 28.8787534246576  C 237.430353430353 27.044095890411  234.305613305613 25.3960136986302  228.798336798337 23.7479315068494  C 227.694386694387 23.381  226.590436590437 23.0140684931507  225.486486486487 22.2802054794521  C 223.465696465696 21.3659863013699  221.993762993763 19.7179041095891  221.257796257796 17.702890410959  C 220.153846153846 15.3209452054795  218.320166320166 13.3059315068493  215.744282744283 12.2051369863013  L 215.557172557172 12.0247808219178  L 215.376299376299 11.8444246575343  L 213.174636174636 0.481986301369886  L 204.349272349272 1.39620547945208  L 203.432432432433 3.77815068493152  C 202.328482328482 7.62782191780826  201.230769230769 9.45626027397265  199.939708939709 9.45626027397265  L 194.245322245322 11.284698630137  C 190.752598752599 12.5720684931507  188.544698544699 14.0335753424658  187.446985446985 15.6878767123288  C 186.891891891892 16.4217397260275  186.343035343035 18.6233287671233  185.975051975052 21.5525616438356  C 185.419958419958 24.8487260273973  184.871101871102 27.2306712328767  184.135135135135 28.698397260274  C 183.031185031185 31.0803424657535  181.378378378378 32.915  178.808731808732 33.8292191780822  C 174.031185031185 35.6638767123288  165.948024948025 32.5480684931507  154.733887733888 24.6683698630137  L 139.665280665281 43.9105068493151  L 141.505197505198 51.7902054794521  L 141.686070686071 51.7902054794521  L 141.873180873181 52.1509178082192  L 141.505197505198 52.3312739726027  L 141.505197505198 52.5178493150686  C 140.769230769231 53.6186438356165  139.665280665281 54.346287671233  138.380457380457 54.5328630136987  C 136.914760914761 54.899794520548  135.442827442827 54.346287671233  133.790020790021 53.245493150685  C 132.324324324324 52.1446986301371  128.095634095634 51.2304794520549  121.297297297297 50.8635479452055  L 118.172557172557 50.683191780822  L 113.582120582121 50.3162602739726  L 108.617463617464 51.2304794520549  L 110.819126819127 54.3400684931507  C 112.659043659044 56.7220136986302  113.388773388773 58.1897397260275  113.2079002079 59.1101780821919  L 111.18711018711 71.0199041095891  L 112.110187110187 77.4318767123287  L 112.29106029106 77.4318767123287  L 112.29106029106 77.6122328767124  L 112.110187110187 77.7988082191781  L 108.430353430353 89.7085342465754  C 108.24948024948 90.8093287671234  107.881496881497 91.3566164383562  107.513513513513 91.1762602739727  L 107.14553014553 91.1762602739727  L 107.14553014553 90.9896849315069  L 106.590436590437 89.888890410959  C 105.85446985447 88.4211643835617  105.486486486486 87.8738767123289  104.93762993763 88.0604520547946  C 104.569646569647 88.2408082191782  104.02079002079 88.9746712328767  103.83367983368 90.6227534246577  C 103.097713097713 93.9189178082192  101.076923076923 96.667794520548  97.9521829521829 99.6032465753426  L 94.6465696465696 102.171767123288  L 92.993762993763 103.08598630137  L 92.8128898128898 103.08598630137  L 80.8690228690229 103.266342465753  L 76.2723492723493 107.663301369863  L 76.0852390852391 107.663301369863  L 75.7172557172557 107.663301369863  L 75.5363825363825 107.663301369863  L 62.8565488565488 105.828643835617  C 60.8357588357588 108.030232876712  58.8149688149688 108.757876712329  56.7941787941787 108.397164383562  C 54.9542619542619 107.843657534247  51.8295218295218 108.577520547945  47.4261954261954 110.231821917808  L 42.2806652806652 116.283082191781  L 42.093555093555 116.65001369863  L 34.010395010395 116.830369863014  L 34.010395010395 110.051465753425  L 28.8586278586278 110.051465753425  L 27.9417879417879 112.986917808219  L 24.0873180873181 113.901136986301  L 23.7193347193347 113.901136986301  L 23.5384615384615 113.720780821918  L 23.3513513513513 113.720780821918  C 20.9625779625779 112.253054794521  18.024948024948 111.152260273973  15.081081081081 110.785328767123  C 13.4282744282744 110.60497260274  11.4074844074844 111.699547945206  8.4636174636174 114.268068493151  C 5.33887733887733 116.830369863014  3.1372141372141 119.212315068493  2.03326403326398 121.413904109589  C 2.5883575883576 121.780835616439  2.9563409563409 122.514698630137  2.9563409563409 123.615493150685  C 3.32432432432431 124.896643835617  3.5051975051975 125.997438356164  3.5051975051975 127.465164383562  C 3.32432432432431 128.932890410959  2.76923076923069 129.847109589041  2.03326403326398 130.58097260274  C 1.11642411642406 131.128260273973  0.561330561330536 132.782561643836  0.0124740124739304 135.711794520548  L 2.95010395010388 137.726808219178  L 6.99168399168396 133.510205479452  L 12.1372141372141 139.194534246576  L 12.1372141372141 139.555246575343  L 13.2411642411642 149.636534246575  L 13.2411642411642 149.823109589041  L 13.0540540540541 149.823109589041  L 10.1164241164241 163.747849315069  L 9.3804573804573 163.747849315069  C 5.15800415800413 163.747849315069  2.40124740124737 163.934424657534  1.29729729729725 164.662068493151  C 1.48440748440747 165.582506849315  3.32432432432431 167.04401369863  6.44906444906437 169.065246575343  L 9.01871101871102 168.698315068493  L 9.57380457380452 168.698315068493  L 9.75467775467773 168.878671232877  L 15.8232848232848 174.743356164384  C 18.2120582120582 176.758369863014  18.024948024948 180.241109589041  14.9064449064448 185.371931506849  L 15.8232848232848 191.056260273973  L 18.2120582120582 191.603547945206  L 27.5675675675676 191.603547945206  L 22.7837837837838 196.000506849315  L 25.5405405405406 197.468232876713  L 29.2141372141373 199.483246575343  L 39.1372141372141 203.693630136986  L 39.3180873180873 203.880205479452  L 39.6860706860707 203.880205479452  L 40.6029106029106 218.905739726028  C 40.7837837837837 221.83497260274  42.991683991684 224.036561643836  47.4012474012474 225.504287671233  L 48.1372141372142 225.137356164384  L 48.3180873180873 225.137356164384  L 48.5051975051975 225.137356164384  L 58.7962577962578 226.598863013699  L 59.5259875259875 226.598863013699  L 59.5259875259875 226.418506849315  L 59.7130977130977 226.051575342466  C 60.8108108108108 224.036561643836  61.5467775467775 222.575054794521  61.5467775467775 222.208123287671  L 61.5467775467775 221.841191780822  C 61.3596673596673 220.193109589041  62.0956340956341 218.725383561644  63.5675675675676 217.624589041096  C 65.039501039501 216.523794520548  65.9563409563409 215.423  66.5051975051975 214.141849315069  L 66.6923076923077 213.961493150685  C 67.2474012474013 212.49998630137  69.0810810810811 212.133054794521  72.2058212058212 213.047273972603  L 72.3866943866944 213.047273972603  L 75.8794178794179 215.062287671233  L 87.4553014553014 217.263876712329  L 94.6216216216217 216.716589041096  L 99.7671517671517 214.515  C 100.683991683992 213.233849315069  101.419958419958 212.686561643836  101.968814968815 212.313410958904  C 102.891891891892 212.133054794521  104.170478170478 212.49998630137  105.642411642412 213.774917808219  L 106.378378378378 214.141849315069  C 107.114345114345 214.689136986301  107.663201663202 215.789931506849  108.399168399168 217.80494520548  L 112.079002079002 220.553821917808  L 114.835758835759 220.553821917808  L 115.016632016632 220.553821917808  L 115.384615384615 220.553821917808  L 115.565488565489 220.553821917808  L 119.426195426195 222.201904109589  L 126.592515592516 221.654616438356  L 130.634095634096 220.367246575343  L 141.112266112266 221.287684931507  L 145.70893970894 220.000315068493  L 151.035343035343 217.798726027397  C 152.139293139293 217.064863013699  153.424116424117 216.517575342466  155.264033264033 216  L 165.367983367983 216  L 169.04158004158 214.682917808219  C 170.507276507277 213.768698630137  171.798336798337 213.221410958904  172.902286902287 213.221410958904  L 178.783783783784 213.221410958904  L 181.540540540541 215.236424657534  L 189.442827442827 216.884506849315  C 190.546777546777 216.884506849315  191.644490644491 217.798726027397  193.484407484408 219.45302739726  L 196.796257796258 221.654616438356  L 197.164241164241 222.015328767123  L 204.698544698545 222.201904109589  L 204.885654885655 222.201904109589  L 208.378378378378 224.030342465754  L 212.968814968815 224.944561643836  L 213.155925155925 224.944561643836  L 217.016632016632 225.498068493151  L 218.120582120582 223.296479452055  L 216.467775467775 219.627164383562  L 215.731808731809 215.964068493151  L 215.731808731809 215.777493150685  L 215.544698544698 215.777493150685  L 216.093555093555 215.230205479452  L 218.669438669439 211.747465753425  L 218.669438669439 211.560890410959  L 218.850311850312 211.560890410959  L 218.850311850312 211.380534246576  L 221.419958419958 209.545876712329  L 220.871101871102 208.445082191781  L 219.773388773389 204.78198630137  C 219.773388773389 204.234698630137  219.224532224532 203.867767123288  218.120582120582 203.133904109589  L 215.363825363825 200.204671232877  L 211.871101871102 197.269219178082  L 211.690228690229 196.902287671233  L 211.322245322245 196.715712328767  L 211.503118503119 196.535356164384  L 211.503118503119 196.168424657535  L 212.051975051975 192.685684931507  L 212.051975051975 190.123383561644  L 210.399168399169 185.720205479452  L 214.621621621622 184.80598630137  L 216.642411642412 182.79097260274  L 221.787941787942 182.79097260274  L 226.933471933472 182.057109589041  L 227.114345114345 182.057109589041  L 230.607068607069 182.424041095891  L 234.648648648649 180.956315068493  L 239.245322245322 180.40902739726  L 242.182952182952 179.121657534247  L 242.370062370062 179.121657534247  L 250.272349272349 177.65393150685  L 251.557172557173 176.372780821918  L 251.189189189189 174.905054794521  L 249.717255717256 172.336534246576  L 249.717255717256 172.156178082192  L 249.536382536383 171.969602739726  L 249.536382536383 171.789246575343  L 249.904365904366 169.040369863014  L 250.085239085239 168.853794520548  L 250.085239085239 165.004123287671  L 249.349272349272 161.70795890411  L 249.349272349272 161.521383561644  L 251.182952182952 157.858287671233  C 251.918918918919 156.210205479452  252.835758835759 155.29598630137  253.939708939709 155.29598630137  L 258.717255717256 155.662917808219  C 259.453222453223 155.662917808219  260.370062370062 155.29598630137  261.293139293139 154.562123287671  L 268.45945945946 144.847767123288  L 268.45945945946 144.667410958904  L 268.64656964657 144.480835616438  L 272.507276507277 141.36502739726  L 272.87525987526 140.998095890411  C 274.340956340957 140.631164383562  275.264033264033 140.083876712329  275.81288981289 139.71694520548  L 276.72972972973 138.802726027397  C 278.014553014553 137.154643835617  279.118503118503 136.420780821918  279.85446985447 136.420780821918  L 286.10395010395 137.701931506849  L 291.436590436591 135.139630136986  L 291.617463617464 135.139630136986  L 291.798336798337 135.139630136986  L 294.923076923077 134.772698630137  L 297.492723492724 133.671904109589  L 297.492723492724 129.455301369863  L 298.22869022869 124.144123287671  L 298.22869022869 123.957547945206  L 298.22869022869 123.77097260274  L 299.151767151767 122.303246575343  L 299.151767151767 122.141547945206  Z " fill-rule="evenodd" />
    </mask>
  </defs>
  <g transform="matrix(1 0 0 1 -576 -298 )">
    <path d="M 299.151767151767 122.141547945206  L 299.170478170478 122.141547945206  L 299.351351351351 121.95497260274  L 299.538461538462 121.95497260274  L 299.538461538462 121.774616438356  L 293.656964656965 105.101  L 289.983367983368 102.171767123288  L 289.983367983368 101.804835616438  L 289.060291060291 95.0197123287671  L 281.345114345114 93.9251369863014  L 281.158004158004 93.9251369863014  L 280.790020790021 93.9251369863014  L 280.790020790021 93.7385616438356  L 280.609147609148 93.3716301369864  L 280.609147609148 93.1912739726029  C 279.692307692308 90.6289726027399  277.303534303534 87.8738767123289  273.629937629938 84.9446438356165  C 271.609147609148 83.2965616438356  269.582120582121 82.1957671232877  267.929313929314 81.8288356164384  C 266.644490644491 81.0949726027399  265.359667359667 80.5476849315069  264.43659043659 79.8138219178082  C 262.047817047817 78.1657397260275  253.777546777547 76.884589041096  239.264033264033 76.5176575342466  L 238.715176715177 76.5176575342466  L 237.06237006237 73.9553561643836  C 236.326403326403 72.3072739726027  235.77130977131 70.8395479452055  235.590436590437 69.1914657534247  C 235.590436590437 67.1764520547945  237.97920997921 60.5779041095891  243.12474012474 49.7689726027398  L 240.555093555094 41.7026986301371  L 237.798336798337 28.8787534246576  C 237.430353430353 27.044095890411  234.305613305613 25.3960136986302  228.798336798337 23.7479315068494  C 227.694386694387 23.381  226.590436590437 23.0140684931507  225.486486486487 22.2802054794521  C 223.465696465696 21.3659863013699  221.993762993763 19.7179041095891  221.257796257796 17.702890410959  C 220.153846153846 15.3209452054795  218.320166320166 13.3059315068493  215.744282744283 12.2051369863013  L 215.557172557172 12.0247808219178  L 215.376299376299 11.8444246575343  L 213.174636174636 0.481986301369886  L 204.349272349272 1.39620547945208  L 203.432432432433 3.77815068493152  C 202.328482328482 7.62782191780826  201.230769230769 9.45626027397265  199.939708939709 9.45626027397265  L 194.245322245322 11.284698630137  C 190.752598752599 12.5720684931507  188.544698544699 14.0335753424658  187.446985446985 15.6878767123288  C 186.891891891892 16.4217397260275  186.343035343035 18.6233287671233  185.975051975052 21.5525616438356  C 185.419958419958 24.8487260273973  184.871101871102 27.2306712328767  184.135135135135 28.698397260274  C 183.031185031185 31.0803424657535  181.378378378378 32.915  178.808731808732 33.8292191780822  C 174.031185031185 35.6638767123288  165.948024948025 32.5480684931507  154.733887733888 24.6683698630137  L 139.665280665281 43.9105068493151  L 141.505197505198 51.7902054794521  L 141.686070686071 51.7902054794521  L 141.873180873181 52.1509178082192  L 141.505197505198 52.3312739726027  L 141.505197505198 52.5178493150686  C 140.769230769231 53.6186438356165  139.665280665281 54.346287671233  138.380457380457 54.5328630136987  C 136.914760914761 54.899794520548  135.442827442827 54.346287671233  133.790020790021 53.245493150685  C 132.324324324324 52.1446986301371  128.095634095634 51.2304794520549  121.297297297297 50.8635479452055  L 118.172557172557 50.683191780822  L 113.582120582121 50.3162602739726  L 108.617463617464 51.2304794520549  L 110.819126819127 54.3400684931507  C 112.659043659044 56.7220136986302  113.388773388773 58.1897397260275  113.2079002079 59.1101780821919  L 111.18711018711 71.0199041095891  L 112.110187110187 77.4318767123287  L 112.29106029106 77.4318767123287  L 112.29106029106 77.6122328767124  L 112.110187110187 77.7988082191781  L 108.430353430353 89.7085342465754  C 108.24948024948 90.8093287671234  107.881496881497 91.3566164383562  107.513513513513 91.1762602739727  L 107.14553014553 91.1762602739727  L 107.14553014553 90.9896849315069  L 106.590436590437 89.888890410959  C 105.85446985447 88.4211643835617  105.486486486486 87.8738767123289  104.93762993763 88.0604520547946  C 104.569646569647 88.2408082191782  104.02079002079 88.9746712328767  103.83367983368 90.6227534246577  C 103.097713097713 93.9189178082192  101.076923076923 96.667794520548  97.9521829521829 99.6032465753426  L 94.6465696465696 102.171767123288  L 92.993762993763 103.08598630137  L 92.8128898128898 103.08598630137  L 80.8690228690229 103.266342465753  L 76.2723492723493 107.663301369863  L 76.0852390852391 107.663301369863  L 75.7172557172557 107.663301369863  L 75.5363825363825 107.663301369863  L 62.8565488565488 105.828643835617  C 60.8357588357588 108.030232876712  58.8149688149688 108.757876712329  56.7941787941787 108.397164383562  C 54.9542619542619 107.843657534247  51.8295218295218 108.577520547945  47.4261954261954 110.231821917808  L 42.2806652806652 116.283082191781  L 42.093555093555 116.65001369863  L 34.010395010395 116.830369863014  L 34.010395010395 110.051465753425  L 28.8586278586278 110.051465753425  L 27.9417879417879 112.986917808219  L 24.0873180873181 113.901136986301  L 23.7193347193347 113.901136986301  L 23.5384615384615 113.720780821918  L 23.3513513513513 113.720780821918  C 20.9625779625779 112.253054794521  18.024948024948 111.152260273973  15.081081081081 110.785328767123  C 13.4282744282744 110.60497260274  11.4074844074844 111.699547945206  8.4636174636174 114.268068493151  C 5.33887733887733 116.830369863014  3.1372141372141 119.212315068493  2.03326403326398 121.413904109589  C 2.5883575883576 121.780835616439  2.9563409563409 122.514698630137  2.9563409563409 123.615493150685  C 3.32432432432431 124.896643835617  3.5051975051975 125.997438356164  3.5051975051975 127.465164383562  C 3.32432432432431 128.932890410959  2.76923076923069 129.847109589041  2.03326403326398 130.58097260274  C 1.11642411642406 131.128260273973  0.561330561330536 132.782561643836  0.0124740124739304 135.711794520548  L 2.95010395010388 137.726808219178  L 6.99168399168396 133.510205479452  L 12.1372141372141 139.194534246576  L 12.1372141372141 139.555246575343  L 13.2411642411642 149.636534246575  L 13.2411642411642 149.823109589041  L 13.0540540540541 149.823109589041  L 10.1164241164241 163.747849315069  L 9.3804573804573 163.747849315069  C 5.15800415800413 163.747849315069  2.40124740124737 163.934424657534  1.29729729729725 164.662068493151  C 1.48440748440747 165.582506849315  3.32432432432431 167.04401369863  6.44906444906437 169.065246575343  L 9.01871101871102 168.698315068493  L 9.57380457380452 168.698315068493  L 9.75467775467773 168.878671232877  L 15.8232848232848 174.743356164384  C 18.2120582120582 176.758369863014  18.024948024948 180.241109589041  14.9064449064448 185.371931506849  L 15.8232848232848 191.056260273973  L 18.2120582120582 191.603547945206  L 27.5675675675676 191.603547945206  L 22.7837837837838 196.000506849315  L 25.5405405405406 197.468232876713  L 29.2141372141373 199.483246575343  L 39.1372141372141 203.693630136986  L 39.3180873180873 203.880205479452  L 39.6860706860707 203.880205479452  L 40.6029106029106 218.905739726028  C 40.7837837837837 221.83497260274  42.991683991684 224.036561643836  47.4012474012474 225.504287671233  L 48.1372141372142 225.137356164384  L 48.3180873180873 225.137356164384  L 48.5051975051975 225.137356164384  L 58.7962577962578 226.598863013699  L 59.5259875259875 226.598863013699  L 59.5259875259875 226.418506849315  L 59.7130977130977 226.051575342466  C 60.8108108108108 224.036561643836  61.5467775467775 222.575054794521  61.5467775467775 222.208123287671  L 61.5467775467775 221.841191780822  C 61.3596673596673 220.193109589041  62.0956340956341 218.725383561644  63.5675675675676 217.624589041096  C 65.039501039501 216.523794520548  65.9563409563409 215.423  66.5051975051975 214.141849315069  L 66.6923076923077 213.961493150685  C 67.2474012474013 212.49998630137  69.0810810810811 212.133054794521  72.2058212058212 213.047273972603  L 72.3866943866944 213.047273972603  L 75.8794178794179 215.062287671233  L 87.4553014553014 217.263876712329  L 94.6216216216217 216.716589041096  L 99.7671517671517 214.515  C 100.683991683992 213.233849315069  101.419958419958 212.686561643836  101.968814968815 212.313410958904  C 102.891891891892 212.133054794521  104.170478170478 212.49998630137  105.642411642412 213.774917808219  L 106.378378378378 214.141849315069  C 107.114345114345 214.689136986301  107.663201663202 215.789931506849  108.399168399168 217.80494520548  L 112.079002079002 220.553821917808  L 114.835758835759 220.553821917808  L 115.016632016632 220.553821917808  L 115.384615384615 220.553821917808  L 115.565488565489 220.553821917808  L 119.426195426195 222.201904109589  L 126.592515592516 221.654616438356  L 130.634095634096 220.367246575343  L 141.112266112266 221.287684931507  L 145.70893970894 220.000315068493  L 151.035343035343 217.798726027397  C 152.139293139293 217.064863013699  153.424116424117 216.517575342466  155.264033264033 216  L 165.367983367983 216  L 169.04158004158 214.682917808219  C 170.507276507277 213.768698630137  171.798336798337 213.221410958904  172.902286902287 213.221410958904  L 178.783783783784 213.221410958904  L 181.540540540541 215.236424657534  L 189.442827442827 216.884506849315  C 190.546777546777 216.884506849315  191.644490644491 217.798726027397  193.484407484408 219.45302739726  L 196.796257796258 221.654616438356  L 197.164241164241 222.015328767123  L 204.698544698545 222.201904109589  L 204.885654885655 222.201904109589  L 208.378378378378 224.030342465754  L 212.968814968815 224.944561643836  L 213.155925155925 224.944561643836  L 217.016632016632 225.498068493151  L 218.120582120582 223.296479452055  L 216.467775467775 219.627164383562  L 215.731808731809 215.964068493151  L 215.731808731809 215.777493150685  L 215.544698544698 215.777493150685  L 216.093555093555 215.230205479452  L 218.669438669439 211.747465753425  L 218.669438669439 211.560890410959  L 218.850311850312 211.560890410959  L 218.850311850312 211.380534246576  L 221.419958419958 209.545876712329  L 220.871101871102 208.445082191781  L 219.773388773389 204.78198630137  C 219.773388773389 204.234698630137  219.224532224532 203.867767123288  218.120582120582 203.133904109589  L 215.363825363825 200.204671232877  L 211.871101871102 197.269219178082  L 211.690228690229 196.902287671233  L 211.322245322245 196.715712328767  L 211.503118503119 196.535356164384  L 211.503118503119 196.168424657535  L 212.051975051975 192.685684931507  L 212.051975051975 190.123383561644  L 210.399168399169 185.720205479452  L 214.621621621622 184.80598630137  L 216.642411642412 182.79097260274  L 221.787941787942 182.79097260274  L 226.933471933472 182.057109589041  L 227.114345114345 182.057109589041  L 230.607068607069 182.424041095891  L 234.648648648649 180.956315068493  L 239.245322245322 180.40902739726  L 242.182952182952 179.121657534247  L 242.370062370062 179.121657534247  L 250.272349272349 177.65393150685  L 251.557172557173 176.372780821918  L 251.189189189189 174.905054794521  L 249.717255717256 172.336534246576  L 249.717255717256 172.156178082192  L 249.536382536383 171.969602739726  L 249.536382536383 171.789246575343  L 249.904365904366 169.040369863014  L 250.085239085239 168.853794520548  L 250.085239085239 165.004123287671  L 249.349272349272 161.70795890411  L 249.349272349272 161.521383561644  L 251.182952182952 157.858287671233  C 251.918918918919 156.210205479452  252.835758835759 155.29598630137  253.939708939709 155.29598630137  L 258.717255717256 155.662917808219  C 259.453222453223 155.662917808219  260.370062370062 155.29598630137  261.293139293139 154.562123287671  L 268.45945945946 144.847767123288  L 268.45945945946 144.667410958904  L 268.64656964657 144.480835616438  L 272.507276507277 141.36502739726  L 272.87525987526 140.998095890411  C 274.340956340957 140.631164383562  275.264033264033 140.083876712329  275.81288981289 139.71694520548  L 276.72972972973 138.802726027397  C 278.014553014553 137.154643835617  279.118503118503 136.420780821918  279.85446985447 136.420780821918  L 286.10395010395 137.701931506849  L 291.436590436591 135.139630136986  L 291.617463617464 135.139630136986  L 291.798336798337 135.139630136986  L 294.923076923077 134.772698630137  L 297.492723492724 133.671904109589  L 297.492723492724 129.455301369863  L 298.22869022869 124.144123287671  L 298.22869022869 123.957547945206  L 298.22869022869 123.77097260274  L 299.151767151767 122.303246575343  L 299.151767151767 122.141547945206  Z " fill-rule="nonzero" fill="#00ccff" stroke="none" fill-opacity="0.498039215686275" transform="matrix(1 0 0 1 576 298 )" />
    <path d="M 299.151767151767 122.141547945206  L 299.170478170478 122.141547945206  L 299.351351351351 121.95497260274  L 299.538461538462 121.95497260274  L 299.538461538462 121.774616438356  L 293.656964656965 105.101  L 289.983367983368 102.171767123288  L 289.983367983368 101.804835616438  L 289.060291060291 95.0197123287671  L 281.345114345114 93.9251369863014  L 281.158004158004 93.9251369863014  L 280.790020790021 93.9251369863014  L 280.790020790021 93.7385616438356  L 280.609147609148 93.3716301369864  L 280.609147609148 93.1912739726029  C 279.692307692308 90.6289726027399  277.303534303534 87.8738767123289  273.629937629938 84.9446438356165  C 271.609147609148 83.2965616438356  269.582120582121 82.1957671232877  267.929313929314 81.8288356164384  C 266.644490644491 81.0949726027399  265.359667359667 80.5476849315069  264.43659043659 79.8138219178082  C 262.047817047817 78.1657397260275  253.777546777547 76.884589041096  239.264033264033 76.5176575342466  L 238.715176715177 76.5176575342466  L 237.06237006237 73.9553561643836  C 236.326403326403 72.3072739726027  235.77130977131 70.8395479452055  235.590436590437 69.1914657534247  C 235.590436590437 67.1764520547945  237.97920997921 60.5779041095891  243.12474012474 49.7689726027398  L 240.555093555094 41.7026986301371  L 237.798336798337 28.8787534246576  C 237.430353430353 27.044095890411  234.305613305613 25.3960136986302  228.798336798337 23.7479315068494  C 227.694386694387 23.381  226.590436590437 23.0140684931507  225.486486486487 22.2802054794521  C 223.465696465696 21.3659863013699  221.993762993763 19.7179041095891  221.257796257796 17.702890410959  C 220.153846153846 15.3209452054795  218.320166320166 13.3059315068493  215.744282744283 12.2051369863013  L 215.557172557172 12.0247808219178  L 215.376299376299 11.8444246575343  L 213.174636174636 0.481986301369886  L 204.349272349272 1.39620547945208  L 203.432432432433 3.77815068493152  C 202.328482328482 7.62782191780826  201.230769230769 9.45626027397265  199.939708939709 9.45626027397265  L 194.245322245322 11.284698630137  C 190.752598752599 12.5720684931507  188.544698544699 14.0335753424658  187.446985446985 15.6878767123288  C 186.891891891892 16.4217397260275  186.343035343035 18.6233287671233  185.975051975052 21.5525616438356  C 185.419958419958 24.8487260273973  184.871101871102 27.2306712328767  184.135135135135 28.698397260274  C 183.031185031185 31.0803424657535  181.378378378378 32.915  178.808731808732 33.8292191780822  C 174.031185031185 35.6638767123288  165.948024948025 32.5480684931507  154.733887733888 24.6683698630137  L 139.665280665281 43.9105068493151  L 141.505197505198 51.7902054794521  L 141.686070686071 51.7902054794521  L 141.873180873181 52.1509178082192  L 141.505197505198 52.3312739726027  L 141.505197505198 52.5178493150686  C 140.769230769231 53.6186438356165  139.665280665281 54.346287671233  138.380457380457 54.5328630136987  C 136.914760914761 54.899794520548  135.442827442827 54.346287671233  133.790020790021 53.245493150685  C 132.324324324324 52.1446986301371  128.095634095634 51.2304794520549  121.297297297297 50.8635479452055  L 118.172557172557 50.683191780822  L 113.582120582121 50.3162602739726  L 108.617463617464 51.2304794520549  L 110.819126819127 54.3400684931507  C 112.659043659044 56.7220136986302  113.388773388773 58.1897397260275  113.2079002079 59.1101780821919  L 111.18711018711 71.0199041095891  L 112.110187110187 77.4318767123287  L 112.29106029106 77.4318767123287  L 112.29106029106 77.6122328767124  L 112.110187110187 77.7988082191781  L 108.430353430353 89.7085342465754  C 108.24948024948 90.8093287671234  107.881496881497 91.3566164383562  107.513513513513 91.1762602739727  L 107.14553014553 91.1762602739727  L 107.14553014553 90.9896849315069  L 106.590436590437 89.888890410959  C 105.85446985447 88.4211643835617  105.486486486486 87.8738767123289  104.93762993763 88.0604520547946  C 104.569646569647 88.2408082191782  104.02079002079 88.9746712328767  103.83367983368 90.6227534246577  C 103.097713097713 93.9189178082192  101.076923076923 96.667794520548  97.9521829521829 99.6032465753426  L 94.6465696465696 102.171767123288  L 92.993762993763 103.08598630137  L 92.8128898128898 103.08598630137  L 80.8690228690229 103.266342465753  L 76.2723492723493 107.663301369863  L 76.0852390852391 107.663301369863  L 75.7172557172557 107.663301369863  L 75.5363825363825 107.663301369863  L 62.8565488565488 105.828643835617  C 60.8357588357588 108.030232876712  58.8149688149688 108.757876712329  56.7941787941787 108.397164383562  C 54.9542619542619 107.843657534247  51.8295218295218 108.577520547945  47.4261954261954 110.231821917808  L 42.2806652806652 116.283082191781  L 42.093555093555 116.65001369863  L 34.010395010395 116.830369863014  L 34.010395010395 110.051465753425  L 28.8586278586278 110.051465753425  L 27.9417879417879 112.986917808219  L 24.0873180873181 113.901136986301  L 23.7193347193347 113.901136986301  L 23.5384615384615 113.720780821918  L 23.3513513513513 113.720780821918  C 20.9625779625779 112.253054794521  18.024948024948 111.152260273973  15.081081081081 110.785328767123  C 13.4282744282744 110.60497260274  11.4074844074844 111.699547945206  8.4636174636174 114.268068493151  C 5.33887733887733 116.830369863014  3.1372141372141 119.212315068493  2.03326403326398 121.413904109589  C 2.5883575883576 121.780835616439  2.9563409563409 122.514698630137  2.9563409563409 123.615493150685  C 3.32432432432431 124.896643835617  3.5051975051975 125.997438356164  3.5051975051975 127.465164383562  C 3.32432432432431 128.932890410959  2.76923076923069 129.847109589041  2.03326403326398 130.58097260274  C 1.11642411642406 131.128260273973  0.561330561330536 132.782561643836  0.0124740124739304 135.711794520548  L 2.95010395010388 137.726808219178  L 6.99168399168396 133.510205479452  L 12.1372141372141 139.194534246576  L 12.1372141372141 139.555246575343  L 13.2411642411642 149.636534246575  L 13.2411642411642 149.823109589041  L 13.0540540540541 149.823109589041  L 10.1164241164241 163.747849315069  L 9.3804573804573 163.747849315069  C 5.15800415800413 163.747849315069  2.40124740124737 163.934424657534  1.29729729729725 164.662068493151  C 1.48440748440747 165.582506849315  3.32432432432431 167.04401369863  6.44906444906437 169.065246575343  L 9.01871101871102 168.698315068493  L 9.57380457380452 168.698315068493  L 9.75467775467773 168.878671232877  L 15.8232848232848 174.743356164384  C 18.2120582120582 176.758369863014  18.024948024948 180.241109589041  14.9064449064448 185.371931506849  L 15.8232848232848 191.056260273973  L 18.2120582120582 191.603547945206  L 27.5675675675676 191.603547945206  L 22.7837837837838 196.000506849315  L 25.5405405405406 197.468232876713  L 29.2141372141373 199.483246575343  L 39.1372141372141 203.693630136986  L 39.3180873180873 203.880205479452  L 39.6860706860707 203.880205479452  L 40.6029106029106 218.905739726028  C 40.7837837837837 221.83497260274  42.991683991684 224.036561643836  47.4012474012474 225.504287671233  L 48.1372141372142 225.137356164384  L 48.3180873180873 225.137356164384  L 48.5051975051975 225.137356164384  L 58.7962577962578 226.598863013699  L 59.5259875259875 226.598863013699  L 59.5259875259875 226.418506849315  L 59.7130977130977 226.051575342466  C 60.8108108108108 224.036561643836  61.5467775467775 222.575054794521  61.5467775467775 222.208123287671  L 61.5467775467775 221.841191780822  C 61.3596673596673 220.193109589041  62.0956340956341 218.725383561644  63.5675675675676 217.624589041096  C 65.039501039501 216.523794520548  65.9563409563409 215.423  66.5051975051975 214.141849315069  L 66.6923076923077 213.961493150685  C 67.2474012474013 212.49998630137  69.0810810810811 212.133054794521  72.2058212058212 213.047273972603  L 72.3866943866944 213.047273972603  L 75.8794178794179 215.062287671233  L 87.4553014553014 217.263876712329  L 94.6216216216217 216.716589041096  L 99.7671517671517 214.515  C 100.683991683992 213.233849315069  101.419958419958 212.686561643836  101.968814968815 212.313410958904  C 102.891891891892 212.133054794521  104.170478170478 212.49998630137  105.642411642412 213.774917808219  L 106.378378378378 214.141849315069  C 107.114345114345 214.689136986301  107.663201663202 215.789931506849  108.399168399168 217.80494520548  L 112.079002079002 220.553821917808  L 114.835758835759 220.553821917808  L 115.016632016632 220.553821917808  L 115.384615384615 220.553821917808  L 115.565488565489 220.553821917808  L 119.426195426195 222.201904109589  L 126.592515592516 221.654616438356  L 130.634095634096 220.367246575343  L 141.112266112266 221.287684931507  L 145.70893970894 220.000315068493  L 151.035343035343 217.798726027397  C 152.139293139293 217.064863013699  153.424116424117 216.517575342466  155.264033264033 216  L 165.367983367983 216  L 169.04158004158 214.682917808219  C 170.507276507277 213.768698630137  171.798336798337 213.221410958904  172.902286902287 213.221410958904  L 178.783783783784 213.221410958904  L 181.540540540541 215.236424657534  L 189.442827442827 216.884506849315  C 190.546777546777 216.884506849315  191.644490644491 217.798726027397  193.484407484408 219.45302739726  L 196.796257796258 221.654616438356  L 197.164241164241 222.015328767123  L 204.698544698545 222.201904109589  L 204.885654885655 222.201904109589  L 208.378378378378 224.030342465754  L 212.968814968815 224.944561643836  L 213.155925155925 224.944561643836  L 217.016632016632 225.498068493151  L 218.120582120582 223.296479452055  L 216.467775467775 219.627164383562  L 215.731808731809 215.964068493151  L 215.731808731809 215.777493150685  L 215.544698544698 215.777493150685  L 216.093555093555 215.230205479452  L 218.669438669439 211.747465753425  L 218.669438669439 211.560890410959  L 218.850311850312 211.560890410959  L 218.850311850312 211.380534246576  L 221.419958419958 209.545876712329  L 220.871101871102 208.445082191781  L 219.773388773389 204.78198630137  C 219.773388773389 204.234698630137  219.224532224532 203.867767123288  218.120582120582 203.133904109589  L 215.363825363825 200.204671232877  L 211.871101871102 197.269219178082  L 211.690228690229 196.902287671233  L 211.322245322245 196.715712328767  L 211.503118503119 196.535356164384  L 211.503118503119 196.168424657535  L 212.051975051975 192.685684931507  L 212.051975051975 190.123383561644  L 210.399168399169 185.720205479452  L 214.621621621622 184.80598630137  L 216.642411642412 182.79097260274  L 221.787941787942 182.79097260274  L 226.933471933472 182.057109589041  L 227.114345114345 182.057109589041  L 230.607068607069 182.424041095891  L 234.648648648649 180.956315068493  L 239.245322245322 180.40902739726  L 242.182952182952 179.121657534247  L 242.370062370062 179.121657534247  L 250.272349272349 177.65393150685  L 251.557172557173 176.372780821918  L 251.189189189189 174.905054794521  L 249.717255717256 172.336534246576  L 249.717255717256 172.156178082192  L 249.536382536383 171.969602739726  L 249.536382536383 171.789246575343  L 249.904365904366 169.040369863014  L 250.085239085239 168.853794520548  L 250.085239085239 165.004123287671  L 249.349272349272 161.70795890411  L 249.349272349272 161.521383561644  L 251.182952182952 157.858287671233  C 251.918918918919 156.210205479452  252.835758835759 155.29598630137  253.939708939709 155.29598630137  L 258.717255717256 155.662917808219  C 259.453222453223 155.662917808219  260.370062370062 155.29598630137  261.293139293139 154.562123287671  L 268.45945945946 144.847767123288  L 268.45945945946 144.667410958904  L 268.64656964657 144.480835616438  L 272.507276507277 141.36502739726  L 272.87525987526 140.998095890411  C 274.340956340957 140.631164383562  275.264033264033 140.083876712329  275.81288981289 139.71694520548  L 276.72972972973 138.802726027397  C 278.014553014553 137.154643835617  279.118503118503 136.420780821918  279.85446985447 136.420780821918  L 286.10395010395 137.701931506849  L 291.436590436591 135.139630136986  L 291.617463617464 135.139630136986  L 291.798336798337 135.139630136986  L 294.923076923077 134.772698630137  L 297.492723492724 133.671904109589  L 297.492723492724 129.455301369863  L 298.22869022869 124.144123287671  L 298.22869022869 123.957547945206  L 298.22869022869 123.77097260274  L 299.151767151767 122.303246575343  L 299.151767151767 122.141547945206  Z " stroke-width="4" stroke="#00ccff" fill="none" stroke-opacity="0.498039215686275" transform="matrix(1 0 0 1 576 298 )" mask="url(#clip490)" />
  </g>
</svg>