<?xml version="1.0" encoding="utf-8"?>
<svg version="1.1" xmlns:xlink="http://www.w3.org/1999/xlink" width="71px" height="95px" xmlns="http://www.w3.org/2000/svg">
  <defs>
    <mask fill="white" id="clip512">
      <path d="M 61.2219298245617 4.21911764705862  L 55.3488596491228 3.66650326797378  L 55.1682456140352 3.48022875816991  L 51.1324561403509 0.00310457516332008  L 48.9339473684212 1.10212418300648  C 47.4641228070175 4.3929738562091  45.4462280701754 6.40473856209144  42.8740350877193 7.32369281045749  C 42.1391228070175 7.69003267973858  41.223596491228 7.50996732026135  40.6755263157895 6.95735294117651  C 39.9406140350878 6.0446078431371  40.3080701754386 4.02663398692812  41.5972807017545 0.922058823529369  L 35.5373684210526 4.76552287581694  L 35.356754385965 5.13186274509803  L 35.1699122807019 5.13186274509803  L 29.8511403508772 5.13186274509803  L 25.0804385964913 7.50996732026147  L 25.0804385964913 7.87630718954244  L 19.9422807017546 8.05637254901967  L 17.1894736842107 9.52173202614381  L 15.9064912280703 12.0861111111111  L 15.5390350877194 12.4524509803922  L 9.48535087719302 12.4524509803922  C 8.38298245614044 12.4524509803922  5.99763157894756 14.2779411764707  2.1424561403511 18.1214052287582  C 3.97973684210547 18.8540849673203  4.89526315789499 19.5867647058824  5.26271929824588 20.1393790849673  L 5.4433333333335 21.2383986928105  L 5.4433333333335 21.0583333333334  L 8.19614035087739 31.3034313725491  L 8.376754385965 31.8498366013072  L 8.376754385965 32.5825163398692  L 8.19614035087739 32.5825163398692  L 7.82868421052649 32.7625816993464  L 7.64807017543865 32.7625816993464  L 0.311403508772059 42.8214052287582  L 0.678859649123069 45.3857843137255  C 1.77500000000009 44.4730392156863  2.69675438596505 44.2867647058824  3.43166666666673 44.6531045751634  C 4.34719298245636 45.0194444444445  4.71464912280715 46.4848039215688  4.34719298245636 48.6766339869281  C 3.97973684210547 52.1537581699347  4.53403508771953 55.9972222222223  6.18447368421062 59.654411764706  L 8.75666666666689 62.3988562091504  C 9.67219298245629 63.3116013071896  10.0396491228071 64.2243464052287  9.85280701754402 65.1433006535948  L 8.56982456140383 66.975  L 10.2202631578949 69.1668300653595  C 11.1357894736843 70.9985294117647  10.407105263158 74.1031045751635  8.20236842105282 78.499183006536  L 10.5877192982458 82.5227124183007  L 10.9551754385967 83.4416666666667  L 12.4187719298247 82.5227124183007  C 14.8041228070177 80.3308823529412  16.8220175438599 79.7782679738563  18.4724561403511 80.3308823529412  C 19.5748245614037 80.6972222222223  20.1291228070177 81.6099673202614  20.3097368421055 82.5227124183007  C 20.4965789473687 83.8080065359478  19.0267543859653 85.9998366013072  15.7196491228073 89.2906862745098  L 13.1536842105266 92.5815359477124  L 14.4366666666668 94.5933006535947  C 16.267719298246 92.9478758169935  17.7375438596492 92.4014705882353  18.6592982456142 92.7616013071895  C 19.761666666667 92.7616013071895  22.8757017543861 91.6625816993463  28.2007017543863 88.9243464052287  C 29.8573684210529 88.0116013071895  32.0558771929827 88.9243464052287  34.8086842105266 91.6687908496731  L 35.9110526315792 91.1223856209149  L 35.7242105263161 88.9305555555555  L 35.1761403508776 88.5642156862745  C 34.8086842105266 88.0178104575162  35.1761403508776 87.4651960784313  35.7242105263161 86.9187908496732  L 34.8086842105266 83.4416666666666  C 34.6218421052636 82.8890522875816  34.6218421052636 82.1563725490195  34.8086842105266 81.6099673202614  C 35.3629824561407 81.0635620915032  36.0916666666668 80.6972222222221  36.8265789473687 80.3308823529411  L 38.4832456140352 78.865522875817  L 37.5614912280703 76.6674836601306  L 37.5614912280703 76.4874183006536  L 37.7421052631581 76.4874183006536  L 37.7421052631581 76.3011437908497  C 38.4770175438598 75.2021241830066  38.4770175438598 74.2893790849673  38.2901754385967 73.7367647058824  C 37.5552631578951 72.4576797385621  38.1095614035091 71.5449346405228  39.5731578947372 70.2596405228759  L 41.5972807017546 68.4341503267973  L 41.2298245614037 68.0678104575162  L 40.6755263157897 67.5214052287581  L 43.0608771929826 66.422385620915  L 43.0608771929826 63.4916666666666  C 43.0608771929826 62.3988562091503  43.9764035087721 60.933496732026  46.542368421053 59.1017973856208  L 47.6447368421055 58.1890522875816  L 44.8919298245617 55.0782679738561  C 43.9764035087721 53.7991830065359  44.343859649123 52.1537581699345  45.9880701754389 50.5021241830065  L 45.9880701754389 50.1357843137254  L 51.6805263157896 45.3795751633985  L 51.8673684210529 44.1004901960783  C 50.7650000000001 43.7341503267972  50.3975438596494 41.7223856209149  50.9518421052634 38.6116013071894  C 51.6867543859651 33.6691176470587  53.8852631578949 31.2972222222221  57.7404385964913 30.7446078431373  L 58.1078947368424 30.7446078431373  L 60.4932456140353 32.0236928104574  L 63.0654385964914 32.0236928104574  L 65.4507894736845 29.092973856209  L 65.6314035087721 28.9129084967319  L 68.5648245614037 27.0812091503267  L 68.1973684210527 24.5230392156861  L 68.1973684210527 23.9766339869279  L 68.5648245614037 23.6102941176468  L 69.2997368421055 23.2439542483658  L 70.215263157895 22.1449346405227  L 70.3958771929827 21.9648692810456  L 68.5585964912282 18.8540849673201  C 66.7213157894738 16.4759803921568  65.0708771929826 14.2779411764704  63.9747368421054 11.71977124183  C 63.0592105263158 10.0743464052287  63.2398245614037 8.24264705882342  64.5290350877194 6.23088235294097  L 61.2219298245617 4.21911764705862  Z " fill-rule="evenodd" />
    </mask>
  </defs>
  <g transform="matrix(1 0 0 1 -1116 -635 )">
    <path d="M 61.2219298245617 4.21911764705862  L 55.3488596491228 3.66650326797378  L 55.1682456140352 3.48022875816991  L 51.1324561403509 0.00310457516332008  L 48.9339473684212 1.10212418300648  C 47.4641228070175 4.3929738562091  45.4462280701754 6.40473856209144  42.8740350877193 7.32369281045749  C 42.1391228070175 7.69003267973858  41.223596491228 7.50996732026135  40.6755263157895 6.95735294117651  C 39.9406140350878 6.0446078431371  40.3080701754386 4.02663398692812  41.5972807017545 0.922058823529369  L 35.5373684210526 4.76552287581694  L 35.356754385965 5.13186274509803  L 35.1699122807019 5.13186274509803  L 29.8511403508772 5.13186274509803  L 25.0804385964913 7.50996732026147  L 25.0804385964913 7.87630718954244  L 19.9422807017546 8.05637254901967  L 17.1894736842107 9.52173202614381  L 15.9064912280703 12.0861111111111  L 15.5390350877194 12.4524509803922  L 9.48535087719302 12.4524509803922  C 8.38298245614044 12.4524509803922  5.99763157894756 14.2779411764707  2.1424561403511 18.1214052287582  C 3.97973684210547 18.8540849673203  4.89526315789499 19.5867647058824  5.26271929824588 20.1393790849673  L 5.4433333333335 21.2383986928105  L 5.4433333333335 21.0583333333334  L 8.19614035087739 31.3034313725491  L 8.376754385965 31.8498366013072  L 8.376754385965 32.5825163398692  L 8.19614035087739 32.5825163398692  L 7.82868421052649 32.7625816993464  L 7.64807017543865 32.7625816993464  L 0.311403508772059 42.8214052287582  L 0.678859649123069 45.3857843137255  C 1.77500000000009 44.4730392156863  2.69675438596505 44.2867647058824  3.43166666666673 44.6531045751634  C 4.34719298245636 45.0194444444445  4.71464912280715 46.4848039215688  4.34719298245636 48.6766339869281  C 3.97973684210547 52.1537581699347  4.53403508771953 55.9972222222223  6.18447368421062 59.654411764706  L 8.75666666666689 62.3988562091504  C 9.67219298245629 63.3116013071896  10.0396491228071 64.2243464052287  9.85280701754402 65.1433006535948  L 8.56982456140383 66.975  L 10.2202631578949 69.1668300653595  C 11.1357894736843 70.9985294117647  10.407105263158 74.1031045751635  8.20236842105282 78.499183006536  L 10.5877192982458 82.5227124183007  L 10.9551754385967 83.4416666666667  L 12.4187719298247 82.5227124183007  C 14.8041228070177 80.3308823529412  16.8220175438599 79.7782679738563  18.4724561403511 80.3308823529412  C 19.5748245614037 80.6972222222223  20.1291228070177 81.6099673202614  20.3097368421055 82.5227124183007  C 20.4965789473687 83.8080065359478  19.0267543859653 85.9998366013072  15.7196491228073 89.2906862745098  L 13.1536842105266 92.5815359477124  L 14.4366666666668 94.5933006535947  C 16.267719298246 92.9478758169935  17.7375438596492 92.4014705882353  18.6592982456142 92.7616013071895  C 19.761666666667 92.7616013071895  22.8757017543861 91.6625816993463  28.2007017543863 88.9243464052287  C 29.8573684210529 88.0116013071895  32.0558771929827 88.9243464052287  34.8086842105266 91.6687908496731  L 35.9110526315792 91.1223856209149  L 35.7242105263161 88.9305555555555  L 35.1761403508776 88.5642156862745  C 34.8086842105266 88.0178104575162  35.1761403508776 87.4651960784313  35.7242105263161 86.9187908496732  L 34.8086842105266 83.4416666666666  C 34.6218421052636 82.8890522875816  34.6218421052636 82.1563725490195  34.8086842105266 81.6099673202614  C 35.3629824561407 81.0635620915032  36.0916666666668 80.6972222222221  36.8265789473687 80.3308823529411  L 38.4832456140352 78.865522875817  L 37.5614912280703 76.6674836601306  L 37.5614912280703 76.4874183006536  L 37.7421052631581 76.4874183006536  L 37.7421052631581 76.3011437908497  C 38.4770175438598 75.2021241830066  38.4770175438598 74.2893790849673  38.2901754385967 73.7367647058824  C 37.5552631578951 72.4576797385621  38.1095614035091 71.5449346405228  39.5731578947372 70.2596405228759  L 41.5972807017546 68.4341503267973  L 41.2298245614037 68.0678104575162  L 40.6755263157897 67.5214052287581  L 43.0608771929826 66.422385620915  L 43.0608771929826 63.4916666666666  C 43.0608771929826 62.3988562091503  43.9764035087721 60.933496732026  46.542368421053 59.1017973856208  L 47.6447368421055 58.1890522875816  L 44.8919298245617 55.0782679738561  C 43.9764035087721 53.7991830065359  44.343859649123 52.1537581699345  45.9880701754389 50.5021241830065  L 45.9880701754389 50.1357843137254  L 51.6805263157896 45.3795751633985  L 51.8673684210529 44.1004901960783  C 50.7650000000001 43.7341503267972  50.3975438596494 41.7223856209149  50.9518421052634 38.6116013071894  C 51.6867543859651 33.6691176470587  53.8852631578949 31.2972222222221  57.7404385964913 30.7446078431373  L 58.1078947368424 30.7446078431373  L 60.4932456140353 32.0236928104574  L 63.0654385964914 32.0236928104574  L 65.4507894736845 29.092973856209  L 65.6314035087721 28.9129084967319  L 68.5648245614037 27.0812091503267  L 68.1973684210527 24.5230392156861  L 68.1973684210527 23.9766339869279  L 68.5648245614037 23.6102941176468  L 69.2997368421055 23.2439542483658  L 70.215263157895 22.1449346405227  L 70.3958771929827 21.9648692810456  L 68.5585964912282 18.8540849673201  C 66.7213157894738 16.4759803921568  65.0708771929826 14.2779411764704  63.9747368421054 11.71977124183  C 63.0592105263158 10.0743464052287  63.2398245614037 8.24264705882342  64.5290350877194 6.23088235294097  L 61.2219298245617 4.21911764705862  Z " fill-rule="nonzero" fill="#00ccff" stroke="none" fill-opacity="0.6" transform="matrix(1 0 0 1 1116 635 )" />
    <path d="M 61.2219298245617 4.21911764705862  L 55.3488596491228 3.66650326797378  L 55.1682456140352 3.48022875816991  L 51.1324561403509 0.00310457516332008  L 48.9339473684212 1.10212418300648  C 47.4641228070175 4.3929738562091  45.4462280701754 6.40473856209144  42.8740350877193 7.32369281045749  C 42.1391228070175 7.69003267973858  41.223596491228 7.50996732026135  40.6755263157895 6.95735294117651  C 39.9406140350878 6.0446078431371  40.3080701754386 4.02663398692812  41.5972807017545 0.922058823529369  L 35.5373684210526 4.76552287581694  L 35.356754385965 5.13186274509803  L 35.1699122807019 5.13186274509803  L 29.8511403508772 5.13186274509803  L 25.0804385964913 7.50996732026147  L 25.0804385964913 7.87630718954244  L 19.9422807017546 8.05637254901967  L 17.1894736842107 9.52173202614381  L 15.9064912280703 12.0861111111111  L 15.5390350877194 12.4524509803922  L 9.48535087719302 12.4524509803922  C 8.38298245614044 12.4524509803922  5.99763157894756 14.2779411764707  2.1424561403511 18.1214052287582  C 3.97973684210547 18.8540849673203  4.89526315789499 19.5867647058824  5.26271929824588 20.1393790849673  L 5.4433333333335 21.2383986928105  L 5.4433333333335 21.0583333333334  L 8.19614035087739 31.3034313725491  L 8.376754385965 31.8498366013072  L 8.376754385965 32.5825163398692  L 8.19614035087739 32.5825163398692  L 7.82868421052649 32.7625816993464  L 7.64807017543865 32.7625816993464  L 0.311403508772059 42.8214052287582  L 0.678859649123069 45.3857843137255  C 1.77500000000009 44.4730392156863  2.69675438596505 44.2867647058824  3.43166666666673 44.6531045751634  C 4.34719298245636 45.0194444444445  4.71464912280715 46.4848039215688  4.34719298245636 48.6766339869281  C 3.97973684210547 52.1537581699347  4.53403508771953 55.9972222222223  6.18447368421062 59.654411764706  L 8.75666666666689 62.3988562091504  C 9.67219298245629 63.3116013071896  10.0396491228071 64.2243464052287  9.85280701754402 65.1433006535948  L 8.56982456140383 66.975  L 10.2202631578949 69.1668300653595  C 11.1357894736843 70.9985294117647  10.407105263158 74.1031045751635  8.20236842105282 78.499183006536  L 10.5877192982458 82.5227124183007  L 10.9551754385967 83.4416666666667  L 12.4187719298247 82.5227124183007  C 14.8041228070177 80.3308823529412  16.8220175438599 79.7782679738563  18.4724561403511 80.3308823529412  C 19.5748245614037 80.6972222222223  20.1291228070177 81.6099673202614  20.3097368421055 82.5227124183007  C 20.4965789473687 83.8080065359478  19.0267543859653 85.9998366013072  15.7196491228073 89.2906862745098  L 13.1536842105266 92.5815359477124  L 14.4366666666668 94.5933006535947  C 16.267719298246 92.9478758169935  17.7375438596492 92.4014705882353  18.6592982456142 92.7616013071895  C 19.761666666667 92.7616013071895  22.8757017543861 91.6625816993463  28.2007017543863 88.9243464052287  C 29.8573684210529 88.0116013071895  32.0558771929827 88.9243464052287  34.8086842105266 91.6687908496731  L 35.9110526315792 91.1223856209149  L 35.7242105263161 88.9305555555555  L 35.1761403508776 88.5642156862745  C 34.8086842105266 88.0178104575162  35.1761403508776 87.4651960784313  35.7242105263161 86.9187908496732  L 34.8086842105266 83.4416666666666  C 34.6218421052636 82.8890522875816  34.6218421052636 82.1563725490195  34.8086842105266 81.6099673202614  C 35.3629824561407 81.0635620915032  36.0916666666668 80.6972222222221  36.8265789473687 80.3308823529411  L 38.4832456140352 78.865522875817  L 37.5614912280703 76.6674836601306  L 37.5614912280703 76.4874183006536  L 37.7421052631581 76.4874183006536  L 37.7421052631581 76.3011437908497  C 38.4770175438598 75.2021241830066  38.4770175438598 74.2893790849673  38.2901754385967 73.7367647058824  C 37.5552631578951 72.4576797385621  38.1095614035091 71.5449346405228  39.5731578947372 70.2596405228759  L 41.5972807017546 68.4341503267973  L 41.2298245614037 68.0678104575162  L 40.6755263157897 67.5214052287581  L 43.0608771929826 66.422385620915  L 43.0608771929826 63.4916666666666  C 43.0608771929826 62.3988562091503  43.9764035087721 60.933496732026  46.542368421053 59.1017973856208  L 47.6447368421055 58.1890522875816  L 44.8919298245617 55.0782679738561  C 43.9764035087721 53.7991830065359  44.343859649123 52.1537581699345  45.9880701754389 50.5021241830065  L 45.9880701754389 50.1357843137254  L 51.6805263157896 45.3795751633985  L 51.8673684210529 44.1004901960783  C 50.7650000000001 43.7341503267972  50.3975438596494 41.7223856209149  50.9518421052634 38.6116013071894  C 51.6867543859651 33.6691176470587  53.8852631578949 31.2972222222221  57.7404385964913 30.7446078431373  L 58.1078947368424 30.7446078431373  L 60.4932456140353 32.0236928104574  L 63.0654385964914 32.0236928104574  L 65.4507894736845 29.092973856209  L 65.6314035087721 28.9129084967319  L 68.5648245614037 27.0812091503267  L 68.1973684210527 24.5230392156861  L 68.1973684210527 23.9766339869279  L 68.5648245614037 23.6102941176468  L 69.2997368421055 23.2439542483658  L 70.215263157895 22.1449346405227  L 70.3958771929827 21.9648692810456  L 68.5585964912282 18.8540849673201  C 66.7213157894738 16.4759803921568  65.0708771929826 14.2779411764704  63.9747368421054 11.71977124183  C 63.0592105263158 10.0743464052287  63.2398245614037 8.24264705882342  64.5290350877194 6.23088235294097  L 61.2219298245617 4.21911764705862  Z " stroke-width="4" stroke="#00ccff" fill="none" stroke-opacity="0.498039215686275" transform="matrix(1 0 0 1 1116 635 )" mask="url(#clip512)" />
  </g>
</svg>