<?xml version="1.0" encoding="utf-8"?>
<svg version="1.1" xmlns:xlink="http://www.w3.org/1999/xlink" width="56px" height="65px" xmlns="http://www.w3.org/2000/svg">
  <defs>
    <mask fill="white" id="clip517">
      <path d="M 37.2462222222218 0.399285714285838  L 33.9608888888888 1.30928571428569  C 31.9448888888887 2.21928571428577  30.2959999999998 2.94976190476189  29.0142222222221 3.12928571428574  C 27.9128888888889 3.12928571428574  26.0773333333333 2.76404761904757  23.5137777777777 1.85404761904772  L 19.3013333333333 1.30928571428581  C 18.0133333333332 1.85404761904772  16.551111111111 3.68023809523822  14.5288888888889 6.78166666666675  L 17.279111111111 12.6192857142858  L 12.6933333333333 15.1697619047619  L 12.5128888888889 15.1697619047619  L 8.84799999999996 14.0740476190477  C 10.3164444444444 16.8102380952381  10.6773333333333 18.4507142857144  10.136 19.1811904761905  L 9.76888888888891 20.642142857143  C 8.84799999999996 22.8335714285715  8.11377777777773 24.1088095238096  7.38577777777778 24.8392857142858  L 0.970666666666602 30.4911904761906  L 2.61955555555551 31.4073809523811  L 1.51822222222211 32.317380952381  C 0.0497777777777628 33.5988095238096  -0.317333333333295 35.0535714285716  0.416888888888934 36.1492857142858  L 4.81600000000014 42.8969047619049  L 4.99644444444448 42.8969047619049  L 4.99644444444448 43.0764285714287  L 7.01244444444433 46.7288095238096  L 7.01244444444433 46.9145238095239  L 7.19911111111105 47.0940476190476  L 7.01244444444433 47.4592857142858  L 7.01244444444433 47.824523809524  L 7.01244444444433 48.0040476190477  L 6.64533333333327 48.3692857142858  C 7.55999999999995 48.3692857142858  8.29422222222217 48.7345238095238  9.20888888888885 49.2854761904763  C 10.671111111111 50.1954761904763  11.7724444444443 52.752142857143  12.3199999999999 56.5778571428572  L 13.0542222222222 60.2240476190476  C 13.4213333333332 61.1340476190477  13.7884444444444 61.6850000000001  14.7031111111111 62.0502380952382  C 16.1653333333333 62.7807142857143  18.0008888888889 62.595  19.6497777777778 61.5054761904762  C 20.5644444444445 60.9607142857144  21.1182222222222 60.409761904762  20.9377777777778 59.865  L 20.7511111111112 59.6792857142859  L 20.7511111111112 59.3140476190478  L 23.8684444444445 57.1226190476192  L 24.2293333333333 57.4878571428574  L 26.6186666666667 61.5054761904763  C 27.5333333333334 62.2359523809525  28.4542222222224 62.5950000000001  29.9164444444444 62.5950000000001  L 30.8373333333334 62.4092857142859  L 30.103111111111 60.2240476190478  L 33.5875555555556 61.6850000000003  L 34.5022222222223 61.6850000000003  L 34.6826666666667 61.6850000000003  L 34.8693333333334 62.0502380952383  L 38.167111111111 64.6007142857145  L 39.0817777777777 63.1397619047622  L 38.9013333333332 56.9430952380955  L 39.0817777777777 56.7573809523813  L 41.2844444444444 54.0211904761908  C 41.4711111111111 53.6559523809526  41.2844444444444 52.9254761904765  40.3697777777777 52.0154761904764  L 39.8159999999999 51.4707142857146  L 40.1831111111109 51.1054761904763  L 40.3697777777775 50.7402380952383  L 40.9173333333333 50.5607142857145  L 45.4968888888886 43.0764285714288  L 45.8639999999998 43.2621428571431  L 46.7848888888888 43.4416666666668  L 47.1457777777775 43.6273809523811  L 47.1457777777775 43.9926190476192  L 46.7848888888888 46.914523809524  L 47.1457777777775 46.914523809524  L 52.285333333333 42.352142857143  L 51.918222222222 39.9811904761907  L 51.0035555555553 39.9811904761907  L 49.1679999999997 40.1669047619049  L 52.285333333333 31.7726190476193  L 49.5351111111108 31.4073809523811  L 49.1679999999997 31.4073809523811  L 49.1679999999997 31.0421428571429  L 48.2471111111107 29.9464285714287  C 47.6995555555552 28.8507142857145  47.6995555555552 27.9407142857144  48.4337777777774 27.0307142857143  L 52.8328888888886 26.8511904761906  L 55.5831111111108 26.8511904761906  C 55.5831111111108 25.9411904761906  55.0293333333328 24.294523809524  53.3866666666664 21.5583333333335  L 49.5351111111108 20.2769047619049  L 53.5671111111109 16.4511904761906  L 53.5671111111109 15.5411904761905  L 51.5511111111108 15.9064285714287  L 50.8168888888886 15.9064285714287  L 50.8168888888886 15.7207142857145  L 50.6364444444441 15.5411904761906  L 50.4497777777774 15.1759523809526  C 49.8959999999996 13.3497619047621  48.8008888888885 11.8950000000002  47.1457777777775 11.3440476190478  L 39.8159999999997 11.5235714285716  L 36.6986666666663 15.169761904762  L 36.6986666666663 15.3554761904763  L 35.7839999999997 15.169761904762  L 24.229333333333 11.5235714285716  L 35.4168888888885 8.60785714285726  C 36.1511111111108 8.60785714285726  37.9804444444441 6.78785714285721  41.0977777777775 3.13547619047631  L 37.2462222222218 0.399285714285838  Z " fill-rule="evenodd" />
    </mask>
  </defs>
  <g transform="matrix(1 0 0 1 -1182 -610 )">
    <path d="M 37.2462222222218 0.399285714285838  L 33.9608888888888 1.30928571428569  C 31.9448888888887 2.21928571428577  30.2959999999998 2.94976190476189  29.0142222222221 3.12928571428574  C 27.9128888888889 3.12928571428574  26.0773333333333 2.76404761904757  23.5137777777777 1.85404761904772  L 19.3013333333333 1.30928571428581  C 18.0133333333332 1.85404761904772  16.551111111111 3.68023809523822  14.5288888888889 6.78166666666675  L 17.279111111111 12.6192857142858  L 12.6933333333333 15.1697619047619  L 12.5128888888889 15.1697619047619  L 8.84799999999996 14.0740476190477  C 10.3164444444444 16.8102380952381  10.6773333333333 18.4507142857144  10.136 19.1811904761905  L 9.76888888888891 20.642142857143  C 8.84799999999996 22.8335714285715  8.11377777777773 24.1088095238096  7.38577777777778 24.8392857142858  L 0.970666666666602 30.4911904761906  L 2.61955555555551 31.4073809523811  L 1.51822222222211 32.317380952381  C 0.0497777777777628 33.5988095238096  -0.317333333333295 35.0535714285716  0.416888888888934 36.1492857142858  L 4.81600000000014 42.8969047619049  L 4.99644444444448 42.8969047619049  L 4.99644444444448 43.0764285714287  L 7.01244444444433 46.7288095238096  L 7.01244444444433 46.9145238095239  L 7.19911111111105 47.0940476190476  L 7.01244444444433 47.4592857142858  L 7.01244444444433 47.824523809524  L 7.01244444444433 48.0040476190477  L 6.64533333333327 48.3692857142858  C 7.55999999999995 48.3692857142858  8.29422222222217 48.7345238095238  9.20888888888885 49.2854761904763  C 10.671111111111 50.1954761904763  11.7724444444443 52.752142857143  12.3199999999999 56.5778571428572  L 13.0542222222222 60.2240476190476  C 13.4213333333332 61.1340476190477  13.7884444444444 61.6850000000001  14.7031111111111 62.0502380952382  C 16.1653333333333 62.7807142857143  18.0008888888889 62.595  19.6497777777778 61.5054761904762  C 20.5644444444445 60.9607142857144  21.1182222222222 60.409761904762  20.9377777777778 59.865  L 20.7511111111112 59.6792857142859  L 20.7511111111112 59.3140476190478  L 23.8684444444445 57.1226190476192  L 24.2293333333333 57.4878571428574  L 26.6186666666667 61.5054761904763  C 27.5333333333334 62.2359523809525  28.4542222222224 62.5950000000001  29.9164444444444 62.5950000000001  L 30.8373333333334 62.4092857142859  L 30.103111111111 60.2240476190478  L 33.5875555555556 61.6850000000003  L 34.5022222222223 61.6850000000003  L 34.6826666666667 61.6850000000003  L 34.8693333333334 62.0502380952383  L 38.167111111111 64.6007142857145  L 39.0817777777777 63.1397619047622  L 38.9013333333332 56.9430952380955  L 39.0817777777777 56.7573809523813  L 41.2844444444444 54.0211904761908  C 41.4711111111111 53.6559523809526  41.2844444444444 52.9254761904765  40.3697777777777 52.0154761904764  L 39.8159999999999 51.4707142857146  L 40.1831111111109 51.1054761904763  L 40.3697777777775 50.7402380952383  L 40.9173333333333 50.5607142857145  L 45.4968888888886 43.0764285714288  L 45.8639999999998 43.2621428571431  L 46.7848888888888 43.4416666666668  L 47.1457777777775 43.6273809523811  L 47.1457777777775 43.9926190476192  L 46.7848888888888 46.914523809524  L 47.1457777777775 46.914523809524  L 52.285333333333 42.352142857143  L 51.918222222222 39.9811904761907  L 51.0035555555553 39.9811904761907  L 49.1679999999997 40.1669047619049  L 52.285333333333 31.7726190476193  L 49.5351111111108 31.4073809523811  L 49.1679999999997 31.4073809523811  L 49.1679999999997 31.0421428571429  L 48.2471111111107 29.9464285714287  C 47.6995555555552 28.8507142857145  47.6995555555552 27.9407142857144  48.4337777777774 27.0307142857143  L 52.8328888888886 26.8511904761906  L 55.5831111111108 26.8511904761906  C 55.5831111111108 25.9411904761906  55.0293333333328 24.294523809524  53.3866666666664 21.5583333333335  L 49.5351111111108 20.2769047619049  L 53.5671111111109 16.4511904761906  L 53.5671111111109 15.5411904761905  L 51.5511111111108 15.9064285714287  L 50.8168888888886 15.9064285714287  L 50.8168888888886 15.7207142857145  L 50.6364444444441 15.5411904761906  L 50.4497777777774 15.1759523809526  C 49.8959999999996 13.3497619047621  48.8008888888885 11.8950000000002  47.1457777777775 11.3440476190478  L 39.8159999999997 11.5235714285716  L 36.6986666666663 15.169761904762  L 36.6986666666663 15.3554761904763  L 35.7839999999997 15.169761904762  L 24.229333333333 11.5235714285716  L 35.4168888888885 8.60785714285726  C 36.1511111111108 8.60785714285726  37.9804444444441 6.78785714285721  41.0977777777775 3.13547619047631  L 37.2462222222218 0.399285714285838  Z " fill-rule="nonzero" fill="#00ccff" stroke="none" fill-opacity="0.498039215686275" transform="matrix(1 0 0 1 1182 610 )" />
    <path d="M 37.2462222222218 0.399285714285838  L 33.9608888888888 1.30928571428569  C 31.9448888888887 2.21928571428577  30.2959999999998 2.94976190476189  29.0142222222221 3.12928571428574  C 27.9128888888889 3.12928571428574  26.0773333333333 2.76404761904757  23.5137777777777 1.85404761904772  L 19.3013333333333 1.30928571428581  C 18.0133333333332 1.85404761904772  16.551111111111 3.68023809523822  14.5288888888889 6.78166666666675  L 17.279111111111 12.6192857142858  L 12.6933333333333 15.1697619047619  L 12.5128888888889 15.1697619047619  L 8.84799999999996 14.0740476190477  C 10.3164444444444 16.8102380952381  10.6773333333333 18.4507142857144  10.136 19.1811904761905  L 9.76888888888891 20.642142857143  C 8.84799999999996 22.8335714285715  8.11377777777773 24.1088095238096  7.38577777777778 24.8392857142858  L 0.970666666666602 30.4911904761906  L 2.61955555555551 31.4073809523811  L 1.51822222222211 32.317380952381  C 0.0497777777777628 33.5988095238096  -0.317333333333295 35.0535714285716  0.416888888888934 36.1492857142858  L 4.81600000000014 42.8969047619049  L 4.99644444444448 42.8969047619049  L 4.99644444444448 43.0764285714287  L 7.01244444444433 46.7288095238096  L 7.01244444444433 46.9145238095239  L 7.19911111111105 47.0940476190476  L 7.01244444444433 47.4592857142858  L 7.01244444444433 47.824523809524  L 7.01244444444433 48.0040476190477  L 6.64533333333327 48.3692857142858  C 7.55999999999995 48.3692857142858  8.29422222222217 48.7345238095238  9.20888888888885 49.2854761904763  C 10.671111111111 50.1954761904763  11.7724444444443 52.752142857143  12.3199999999999 56.5778571428572  L 13.0542222222222 60.2240476190476  C 13.4213333333332 61.1340476190477  13.7884444444444 61.6850000000001  14.7031111111111 62.0502380952382  C 16.1653333333333 62.7807142857143  18.0008888888889 62.595  19.6497777777778 61.5054761904762  C 20.5644444444445 60.9607142857144  21.1182222222222 60.409761904762  20.9377777777778 59.865  L 20.7511111111112 59.6792857142859  L 20.7511111111112 59.3140476190478  L 23.8684444444445 57.1226190476192  L 24.2293333333333 57.4878571428574  L 26.6186666666667 61.5054761904763  C 27.5333333333334 62.2359523809525  28.4542222222224 62.5950000000001  29.9164444444444 62.5950000000001  L 30.8373333333334 62.4092857142859  L 30.103111111111 60.2240476190478  L 33.5875555555556 61.6850000000003  L 34.5022222222223 61.6850000000003  L 34.6826666666667 61.6850000000003  L 34.8693333333334 62.0502380952383  L 38.167111111111 64.6007142857145  L 39.0817777777777 63.1397619047622  L 38.9013333333332 56.9430952380955  L 39.0817777777777 56.7573809523813  L 41.2844444444444 54.0211904761908  C 41.4711111111111 53.6559523809526  41.2844444444444 52.9254761904765  40.3697777777777 52.0154761904764  L 39.8159999999999 51.4707142857146  L 40.1831111111109 51.1054761904763  L 40.3697777777775 50.7402380952383  L 40.9173333333333 50.5607142857145  L 45.4968888888886 43.0764285714288  L 45.8639999999998 43.2621428571431  L 46.7848888888888 43.4416666666668  L 47.1457777777775 43.6273809523811  L 47.1457777777775 43.9926190476192  L 46.7848888888888 46.914523809524  L 47.1457777777775 46.914523809524  L 52.285333333333 42.352142857143  L 51.918222222222 39.9811904761907  L 51.0035555555553 39.9811904761907  L 49.1679999999997 40.1669047619049  L 52.285333333333 31.7726190476193  L 49.5351111111108 31.4073809523811  L 49.1679999999997 31.4073809523811  L 49.1679999999997 31.0421428571429  L 48.2471111111107 29.9464285714287  C 47.6995555555552 28.8507142857145  47.6995555555552 27.9407142857144  48.4337777777774 27.0307142857143  L 52.8328888888886 26.8511904761906  L 55.5831111111108 26.8511904761906  C 55.5831111111108 25.9411904761906  55.0293333333328 24.294523809524  53.3866666666664 21.5583333333335  L 49.5351111111108 20.2769047619049  L 53.5671111111109 16.4511904761906  L 53.5671111111109 15.5411904761905  L 51.5511111111108 15.9064285714287  L 50.8168888888886 15.9064285714287  L 50.8168888888886 15.7207142857145  L 50.6364444444441 15.5411904761906  L 50.4497777777774 15.1759523809526  C 49.8959999999996 13.3497619047621  48.8008888888885 11.8950000000002  47.1457777777775 11.3440476190478  L 39.8159999999997 11.5235714285716  L 36.6986666666663 15.169761904762  L 36.6986666666663 15.3554761904763  L 35.7839999999997 15.169761904762  L 24.229333333333 11.5235714285716  L 35.4168888888885 8.60785714285726  C 36.1511111111108 8.60785714285726  37.9804444444441 6.78785714285721  41.0977777777775 3.13547619047631  L 37.2462222222218 0.399285714285838  Z " stroke-width="4" stroke="#00ccff" fill="none" stroke-opacity="0.498039215686275" transform="matrix(1 0 0 1 1182 610 )" mask="url(#clip517)" />
  </g>
</svg>