<?xml version="1.0" encoding="utf-8"?>
<svg version="1.1" xmlns:xlink="http://www.w3.org/1999/xlink" width="80px" height="92px" xmlns="http://www.w3.org/2000/svg">
  <defs>
    <mask fill="white" id="clip507">
      <path d="M 70.9124999999998 16.4698648648649  L 69.26875 15.9414864864865  L 69.4499999999999 15.7612162162162  L 69.0812499999998 15.7612162162162  L 69.0812499999998 15.3944594594594  L 67.60625 12.6468918918919  L 67.4187499999999 12.4666216216216  L 67.4187499999999 12.0998648648648  L 67.7875 7.70500000000004  C 67.7875 7.15797297297297  67.23125 6.60472972972968  66.1250000000001 5.87121621621622  L 65.0187500000001 5.87121621621622  L 63.1812500000001 8.07175675675671  L 62.99375 8.07175675675671  L 58.3937500000002 10.2722972972972  L 57.65625 7.15797297297286  L 57.65625 6.79121621621607  L 58.0250000000001 5.32418918918904  L 57.65625 3.49040540540523  L 57.1062500000002 3.31013513513494  L 56.36875 4.77716216216197  L 56.1812500000001 4.77716216216197  L 56.1812500000001 4.95743243243226  L 50.4750000000001 9.90554054054041  L 50.2875000000003 10.2722972972972  L 50.1062500000003 10.2722972972972  L 49.7375000000002 10.2722972972972  L 49.3687500000001 10.2722972972972  L 47.7062500000002 9.53878378378374  L 47.5250000000002 9.35851351351346  L 45.6812500000001 7.70500000000004  L 42.7375000000001 6.60472972972968  L 42.5562500000001 6.4182432432433  L 40.7125000000001 5.13770270270277  L 34.6375 3.85094594594602  L 34.4562500000001 3.85094594594602  L 30.4000000000001 1.83689189189192  L 30.4000000000001 2.01716216216221  L 27.2687500000001 0.556351351351282  L 23.21875 0.189594594594496  L 21.7437500000002 0.36986486486478  L 23.0312500000001 7.14554054054042  L 22.475 7.14554054054042  L 18.425 7.51229729729721  L 16.2187500000001 7.51229729729721  L 16.0375000000001 7.51229729729721  L 13.8250000000002 6.04527027027029  L 10.1437500000002 7.69256756756749  L 6.83125000000018 12.0874324324324  L 3.88750000000016 19.9633783783783  L 4.8062500000002 28.5728378378377  L 6.09375000000023 33.5147297297298  C 6.2750000000002 34.0617567567567  6.2750000000002 34.2482432432432  6.09375000000023 34.4285135135135  L 5.53750000000002 34.615  C 4.61875000000009 35.1620270270271  4.25000000000034 36.4487837837838  4.43125000000009 38.2763513513513  L 6.2750000000002 45.7855405405405  L 5.72500000000014 46.1522972972973  C 2.40625000000011 47.986081081081  0.750000000000114 49.4468918918918  0.562500000000227 50.1804054054054  L 0.193750000000136 52.7414864864866  L 3.32500000000005 51.460945945946  L 3.50625000000002 51.2744594594595  L 3.69375000000014 51.2744594594595  C 5.90625000000011 51.2744594594595  7.19375000000014 52.007972972973  7.37500000000011 53.8417567567569  L 7.93124999999998 57.8698648648649  L 7.75 58.416891891892  L 7.38125000000014 58.7836486486488  C 6.83125000000018 59.3306756756758  6.46250000000009 59.883918918919  6.46250000000009 60.6174324324326  L 5.91250000000002 64.8320270270272  C 6.09375 66.2990540540541  6.65000000000009 67.3993243243244  7.38125000000014 67.9463513513514  L 11.2500000000002 72.5277027027029  L 14.7500000000001 69.7801351351353  L 17.5125000000002 69.4133783783785  L 17.7 69.4133783783785  L 17.88125 69.7801351351353  L 19.7250000000001 70.3271621621623  C 20.275 70.3271621621623  20.8312500000002 70.1468918918921  21.38125 69.5936486486488  L 23.0375 67.2128378378379  L 22.66875 65.7520270270272  C 23.0375 65.2050000000002  23.5875000000001 64.8382432432434  24.325 64.4714864864867  L 28.75 64.4714864864867  C 29.48125 64.8382432432435  30.0375 64.6579729729731  30.0375 64.2912162162164  C 30.5937500000001 63.0106756756759  31.14375 62.4574324324326  31.69375 62.0906756756759  C 32.25 62.0906756756759  33.16875 62.2709459459462  33.7187500000001 62.8241891891894  C 35.0062500000001 63.9244594594596  35.925 64.8382432432435  35.925 66.118783783784  L 35.55625 69.4133783783785  L 36.2937499999998 69.9604054054055  C 37.3999999999999 70.8804054054056  38.1375 71.7941891891894  38.1375 72.5277027027029  L 37.4000000000001 75.8222972972974  C 36.85 77.649864864865  36.29375 78.9366216216217  35.55625 79.3033783783785  L 35.55625 79.116891891892  L 32.7937500000002 84.9787837837839  L 33.7187500000001 85.3455405405407  L 38.1375 85.5258108108109  L 39.0562500000001 85.8925675675677  L 38.6875 86.6260810810811  C 38.1375 88.4536486486488  37.9500000000002 89.7341891891892  38.1375 90.6541891891893  C 39.6062500000002 91.5679729729732  40.5312500000001 92.1212162162163  41.08125 91.5679729729732  L 43.6625 90.4677027027028  L 44.95 89.9206756756759  L 47.34375 89.9206756756759  L 49.7375000000002 87.3595945945947  L 49.7375000000002 84.2452702702705  C 49.5562500000002 83.1450000000002  49.7375000000002 82.4114864864866  50.10625 81.8644594594596  C 50.8437500000001 81.3174324324325  52.3125000000001 81.3174324324325  54.5312500000002 82.597972972973  L 58.9500000000003 85.3455405405406  C 60.4250000000002 86.4458108108108  61.5250000000002 86.8125675675676  62.2625000000002 86.8125675675676  L 62.2625000000002 86.6322972972974  C 62.6312500000003 85.898783783784  62.2625000000002 84.4317567567568  61.34375 82.6041891891892  L 58.95 78.9366216216217  L 58.95 78.5698648648649  L 59.1375000000002 78.5698648648649  L 59.3187500000001 78.2031081081082  C 61.7125000000001 74.9085135135136  64.2875 73.8082432432433  67.2375 74.9085135135136  L 74.05 78.0228378378379  L 76.8125 76.1890540540542  L 76.99375 76.1890540540542  L 76.99375 76.0025675675676  L 76.99375 75.8222972972974  L 76.625 75.4555405405406  L 76.8124999999998 75.2690540540541  L 76.9937499999999 74.9022972972973  C 79.1999999999999 71.240945945946  79.9374999999998 68.4933783783785  79.1999999999999 67.0263513513514  C 78.64375 65.7458108108109  77.7249999999999 65.1987837837839  76.9937499999999 65.1987837837839  L 76.44375 65.1987837837839  L 76.0749999999999 63.365  L 76.44375 63.365  C 77.7312499999999 62.817972972973  78.4687499999999 62.2647297297298  78.6499999999999 61.5312162162162  L 78.0937499999999 60.6174324324325  L 75.1499999999999 57.8698648648649  L 75.1499999999999 57.6833783783784  L 73.6749999999998 53.6552702702703  C 73.1187499999999 50.5409459459461  72.7499999999998 47.7933783783784  73.1187499999999 45.2260810810811  L 73.1187499999999 43.3985135135135  L 71.2812499999999 45.0458108108108  L 69.61875 46.8795945945947  L 69.0687499999999 39.1839189189189  L 69.0687499999999 38.8171621621623  L 69.2562499999998 38.8171621621623  C 73.3062499999998 32.9552702702703  76.0687499999998 29.4741891891892  76.9874999999997 28.5604054054055  L 75.1437499999998 23.0652702702703  C 74.5874999999999 20.3177027027027  74.2249999999997 18.6704054054054  74.2249999999997 17.9368918918919  L 70.9124999999998 16.4698648648649  Z " fill-rule="evenodd" />
    </mask>
  </defs>
  <g transform="matrix(1 0 0 1 -1046 -639 )">
    <path d="M 70.9124999999998 16.4698648648649  L 69.26875 15.9414864864865  L 69.4499999999999 15.7612162162162  L 69.0812499999998 15.7612162162162  L 69.0812499999998 15.3944594594594  L 67.60625 12.6468918918919  L 67.4187499999999 12.4666216216216  L 67.4187499999999 12.0998648648648  L 67.7875 7.70500000000004  C 67.7875 7.15797297297297  67.23125 6.60472972972968  66.1250000000001 5.87121621621622  L 65.0187500000001 5.87121621621622  L 63.1812500000001 8.07175675675671  L 62.99375 8.07175675675671  L 58.3937500000002 10.2722972972972  L 57.65625 7.15797297297286  L 57.65625 6.79121621621607  L 58.0250000000001 5.32418918918904  L 57.65625 3.49040540540523  L 57.1062500000002 3.31013513513494  L 56.36875 4.77716216216197  L 56.1812500000001 4.77716216216197  L 56.1812500000001 4.95743243243226  L 50.4750000000001 9.90554054054041  L 50.2875000000003 10.2722972972972  L 50.1062500000003 10.2722972972972  L 49.7375000000002 10.2722972972972  L 49.3687500000001 10.2722972972972  L 47.7062500000002 9.53878378378374  L 47.5250000000002 9.35851351351346  L 45.6812500000001 7.70500000000004  L 42.7375000000001 6.60472972972968  L 42.5562500000001 6.4182432432433  L 40.7125000000001 5.13770270270277  L 34.6375 3.85094594594602  L 34.4562500000001 3.85094594594602  L 30.4000000000001 1.83689189189192  L 30.4000000000001 2.01716216216221  L 27.2687500000001 0.556351351351282  L 23.21875 0.189594594594496  L 21.7437500000002 0.36986486486478  L 23.0312500000001 7.14554054054042  L 22.475 7.14554054054042  L 18.425 7.51229729729721  L 16.2187500000001 7.51229729729721  L 16.0375000000001 7.51229729729721  L 13.8250000000002 6.04527027027029  L 10.1437500000002 7.69256756756749  L 6.83125000000018 12.0874324324324  L 3.88750000000016 19.9633783783783  L 4.8062500000002 28.5728378378377  L 6.09375000000023 33.5147297297298  C 6.2750000000002 34.0617567567567  6.2750000000002 34.2482432432432  6.09375000000023 34.4285135135135  L 5.53750000000002 34.615  C 4.61875000000009 35.1620270270271  4.25000000000034 36.4487837837838  4.43125000000009 38.2763513513513  L 6.2750000000002 45.7855405405405  L 5.72500000000014 46.1522972972973  C 2.40625000000011 47.986081081081  0.750000000000114 49.4468918918918  0.562500000000227 50.1804054054054  L 0.193750000000136 52.7414864864866  L 3.32500000000005 51.460945945946  L 3.50625000000002 51.2744594594595  L 3.69375000000014 51.2744594594595  C 5.90625000000011 51.2744594594595  7.19375000000014 52.007972972973  7.37500000000011 53.8417567567569  L 7.93124999999998 57.8698648648649  L 7.75 58.416891891892  L 7.38125000000014 58.7836486486488  C 6.83125000000018 59.3306756756758  6.46250000000009 59.883918918919  6.46250000000009 60.6174324324326  L 5.91250000000002 64.8320270270272  C 6.09375 66.2990540540541  6.65000000000009 67.3993243243244  7.38125000000014 67.9463513513514  L 11.2500000000002 72.5277027027029  L 14.7500000000001 69.7801351351353  L 17.5125000000002 69.4133783783785  L 17.7 69.4133783783785  L 17.88125 69.7801351351353  L 19.7250000000001 70.3271621621623  C 20.275 70.3271621621623  20.8312500000002 70.1468918918921  21.38125 69.5936486486488  L 23.0375 67.2128378378379  L 22.66875 65.7520270270272  C 23.0375 65.2050000000002  23.5875000000001 64.8382432432434  24.325 64.4714864864867  L 28.75 64.4714864864867  C 29.48125 64.8382432432435  30.0375 64.6579729729731  30.0375 64.2912162162164  C 30.5937500000001 63.0106756756759  31.14375 62.4574324324326  31.69375 62.0906756756759  C 32.25 62.0906756756759  33.16875 62.2709459459462  33.7187500000001 62.8241891891894  C 35.0062500000001 63.9244594594596  35.925 64.8382432432435  35.925 66.118783783784  L 35.55625 69.4133783783785  L 36.2937499999998 69.9604054054055  C 37.3999999999999 70.8804054054056  38.1375 71.7941891891894  38.1375 72.5277027027029  L 37.4000000000001 75.8222972972974  C 36.85 77.649864864865  36.29375 78.9366216216217  35.55625 79.3033783783785  L 35.55625 79.116891891892  L 32.7937500000002 84.9787837837839  L 33.7187500000001 85.3455405405407  L 38.1375 85.5258108108109  L 39.0562500000001 85.8925675675677  L 38.6875 86.6260810810811  C 38.1375 88.4536486486488  37.9500000000002 89.7341891891892  38.1375 90.6541891891893  C 39.6062500000002 91.5679729729732  40.5312500000001 92.1212162162163  41.08125 91.5679729729732  L 43.6625 90.4677027027028  L 44.95 89.9206756756759  L 47.34375 89.9206756756759  L 49.7375000000002 87.3595945945947  L 49.7375000000002 84.2452702702705  C 49.5562500000002 83.1450000000002  49.7375000000002 82.4114864864866  50.10625 81.8644594594596  C 50.8437500000001 81.3174324324325  52.3125000000001 81.3174324324325  54.5312500000002 82.597972972973  L 58.9500000000003 85.3455405405406  C 60.4250000000002 86.4458108108108  61.5250000000002 86.8125675675676  62.2625000000002 86.8125675675676  L 62.2625000000002 86.6322972972974  C 62.6312500000003 85.898783783784  62.2625000000002 84.4317567567568  61.34375 82.6041891891892  L 58.95 78.9366216216217  L 58.95 78.5698648648649  L 59.1375000000002 78.5698648648649  L 59.3187500000001 78.2031081081082  C 61.7125000000001 74.9085135135136  64.2875 73.8082432432433  67.2375 74.9085135135136  L 74.05 78.0228378378379  L 76.8125 76.1890540540542  L 76.99375 76.1890540540542  L 76.99375 76.0025675675676  L 76.99375 75.8222972972974  L 76.625 75.4555405405406  L 76.8124999999998 75.2690540540541  L 76.9937499999999 74.9022972972973  C 79.1999999999999 71.240945945946  79.9374999999998 68.4933783783785  79.1999999999999 67.0263513513514  C 78.64375 65.7458108108109  77.7249999999999 65.1987837837839  76.9937499999999 65.1987837837839  L 76.44375 65.1987837837839  L 76.0749999999999 63.365  L 76.44375 63.365  C 77.7312499999999 62.817972972973  78.4687499999999 62.2647297297298  78.6499999999999 61.5312162162162  L 78.0937499999999 60.6174324324325  L 75.1499999999999 57.8698648648649  L 75.1499999999999 57.6833783783784  L 73.6749999999998 53.6552702702703  C 73.1187499999999 50.5409459459461  72.7499999999998 47.7933783783784  73.1187499999999 45.2260810810811  L 73.1187499999999 43.3985135135135  L 71.2812499999999 45.0458108108108  L 69.61875 46.8795945945947  L 69.0687499999999 39.1839189189189  L 69.0687499999999 38.8171621621623  L 69.2562499999998 38.8171621621623  C 73.3062499999998 32.9552702702703  76.0687499999998 29.4741891891892  76.9874999999997 28.5604054054055  L 75.1437499999998 23.0652702702703  C 74.5874999999999 20.3177027027027  74.2249999999997 18.6704054054054  74.2249999999997 17.9368918918919  L 70.9124999999998 16.4698648648649  Z " fill-rule="nonzero" fill="#00ccff" stroke="none" fill-opacity="0.498039215686275" transform="matrix(1 0 0 1 1046 639 )" />
    <path d="M 70.9124999999998 16.4698648648649  L 69.26875 15.9414864864865  L 69.4499999999999 15.7612162162162  L 69.0812499999998 15.7612162162162  L 69.0812499999998 15.3944594594594  L 67.60625 12.6468918918919  L 67.4187499999999 12.4666216216216  L 67.4187499999999 12.0998648648648  L 67.7875 7.70500000000004  C 67.7875 7.15797297297297  67.23125 6.60472972972968  66.1250000000001 5.87121621621622  L 65.0187500000001 5.87121621621622  L 63.1812500000001 8.07175675675671  L 62.99375 8.07175675675671  L 58.3937500000002 10.2722972972972  L 57.65625 7.15797297297286  L 57.65625 6.79121621621607  L 58.0250000000001 5.32418918918904  L 57.65625 3.49040540540523  L 57.1062500000002 3.31013513513494  L 56.36875 4.77716216216197  L 56.1812500000001 4.77716216216197  L 56.1812500000001 4.95743243243226  L 50.4750000000001 9.90554054054041  L 50.2875000000003 10.2722972972972  L 50.1062500000003 10.2722972972972  L 49.7375000000002 10.2722972972972  L 49.3687500000001 10.2722972972972  L 47.7062500000002 9.53878378378374  L 47.5250000000002 9.35851351351346  L 45.6812500000001 7.70500000000004  L 42.7375000000001 6.60472972972968  L 42.5562500000001 6.4182432432433  L 40.7125000000001 5.13770270270277  L 34.6375 3.85094594594602  L 34.4562500000001 3.85094594594602  L 30.4000000000001 1.83689189189192  L 30.4000000000001 2.01716216216221  L 27.2687500000001 0.556351351351282  L 23.21875 0.189594594594496  L 21.7437500000002 0.36986486486478  L 23.0312500000001 7.14554054054042  L 22.475 7.14554054054042  L 18.425 7.51229729729721  L 16.2187500000001 7.51229729729721  L 16.0375000000001 7.51229729729721  L 13.8250000000002 6.04527027027029  L 10.1437500000002 7.69256756756749  L 6.83125000000018 12.0874324324324  L 3.88750000000016 19.9633783783783  L 4.8062500000002 28.5728378378377  L 6.09375000000023 33.5147297297298  C 6.2750000000002 34.0617567567567  6.2750000000002 34.2482432432432  6.09375000000023 34.4285135135135  L 5.53750000000002 34.615  C 4.61875000000009 35.1620270270271  4.25000000000034 36.4487837837838  4.43125000000009 38.2763513513513  L 6.2750000000002 45.7855405405405  L 5.72500000000014 46.1522972972973  C 2.40625000000011 47.986081081081  0.750000000000114 49.4468918918918  0.562500000000227 50.1804054054054  L 0.193750000000136 52.7414864864866  L 3.32500000000005 51.460945945946  L 3.50625000000002 51.2744594594595  L 3.69375000000014 51.2744594594595  C 5.90625000000011 51.2744594594595  7.19375000000014 52.007972972973  7.37500000000011 53.8417567567569  L 7.93124999999998 57.8698648648649  L 7.75 58.416891891892  L 7.38125000000014 58.7836486486488  C 6.83125000000018 59.3306756756758  6.46250000000009 59.883918918919  6.46250000000009 60.6174324324326  L 5.91250000000002 64.8320270270272  C 6.09375 66.2990540540541  6.65000000000009 67.3993243243244  7.38125000000014 67.9463513513514  L 11.2500000000002 72.5277027027029  L 14.7500000000001 69.7801351351353  L 17.5125000000002 69.4133783783785  L 17.7 69.4133783783785  L 17.88125 69.7801351351353  L 19.7250000000001 70.3271621621623  C 20.275 70.3271621621623  20.8312500000002 70.1468918918921  21.38125 69.5936486486488  L 23.0375 67.2128378378379  L 22.66875 65.7520270270272  C 23.0375 65.2050000000002  23.5875000000001 64.8382432432434  24.325 64.4714864864867  L 28.75 64.4714864864867  C 29.48125 64.8382432432435  30.0375 64.6579729729731  30.0375 64.2912162162164  C 30.5937500000001 63.0106756756759  31.14375 62.4574324324326  31.69375 62.0906756756759  C 32.25 62.0906756756759  33.16875 62.2709459459462  33.7187500000001 62.8241891891894  C 35.0062500000001 63.9244594594596  35.925 64.8382432432435  35.925 66.118783783784  L 35.55625 69.4133783783785  L 36.2937499999998 69.9604054054055  C 37.3999999999999 70.8804054054056  38.1375 71.7941891891894  38.1375 72.5277027027029  L 37.4000000000001 75.8222972972974  C 36.85 77.649864864865  36.29375 78.9366216216217  35.55625 79.3033783783785  L 35.55625 79.116891891892  L 32.7937500000002 84.9787837837839  L 33.7187500000001 85.3455405405407  L 38.1375 85.5258108108109  L 39.0562500000001 85.8925675675677  L 38.6875 86.6260810810811  C 38.1375 88.4536486486488  37.9500000000002 89.7341891891892  38.1375 90.6541891891893  C 39.6062500000002 91.5679729729732  40.5312500000001 92.1212162162163  41.08125 91.5679729729732  L 43.6625 90.4677027027028  L 44.95 89.9206756756759  L 47.34375 89.9206756756759  L 49.7375000000002 87.3595945945947  L 49.7375000000002 84.2452702702705  C 49.5562500000002 83.1450000000002  49.7375000000002 82.4114864864866  50.10625 81.8644594594596  C 50.8437500000001 81.3174324324325  52.3125000000001 81.3174324324325  54.5312500000002 82.597972972973  L 58.9500000000003 85.3455405405406  C 60.4250000000002 86.4458108108108  61.5250000000002 86.8125675675676  62.2625000000002 86.8125675675676  L 62.2625000000002 86.6322972972974  C 62.6312500000003 85.898783783784  62.2625000000002 84.4317567567568  61.34375 82.6041891891892  L 58.95 78.9366216216217  L 58.95 78.5698648648649  L 59.1375000000002 78.5698648648649  L 59.3187500000001 78.2031081081082  C 61.7125000000001 74.9085135135136  64.2875 73.8082432432433  67.2375 74.9085135135136  L 74.05 78.0228378378379  L 76.8125 76.1890540540542  L 76.99375 76.1890540540542  L 76.99375 76.0025675675676  L 76.99375 75.8222972972974  L 76.625 75.4555405405406  L 76.8124999999998 75.2690540540541  L 76.9937499999999 74.9022972972973  C 79.1999999999999 71.240945945946  79.9374999999998 68.4933783783785  79.1999999999999 67.0263513513514  C 78.64375 65.7458108108109  77.7249999999999 65.1987837837839  76.9937499999999 65.1987837837839  L 76.44375 65.1987837837839  L 76.0749999999999 63.365  L 76.44375 63.365  C 77.7312499999999 62.817972972973  78.4687499999999 62.2647297297298  78.6499999999999 61.5312162162162  L 78.0937499999999 60.6174324324325  L 75.1499999999999 57.8698648648649  L 75.1499999999999 57.6833783783784  L 73.6749999999998 53.6552702702703  C 73.1187499999999 50.5409459459461  72.7499999999998 47.7933783783784  73.1187499999999 45.2260810810811  L 73.1187499999999 43.3985135135135  L 71.2812499999999 45.0458108108108  L 69.61875 46.8795945945947  L 69.0687499999999 39.1839189189189  L 69.0687499999999 38.8171621621623  L 69.2562499999998 38.8171621621623  C 73.3062499999998 32.9552702702703  76.0687499999998 29.4741891891892  76.9874999999997 28.5604054054055  L 75.1437499999998 23.0652702702703  C 74.5874999999999 20.3177027027027  74.2249999999997 18.6704054054054  74.2249999999997 17.9368918918919  L 70.9124999999998 16.4698648648649  Z " stroke-width="4" stroke="#00ccff" fill="none" stroke-opacity="0.498039215686275" transform="matrix(1 0 0 1 1046 639 )" mask="url(#clip507)" />
  </g>
</svg>