<?xml version="1.0" encoding="utf-8"?>
<svg version="1.1" xmlns:xlink="http://www.w3.org/1999/xlink" width="113px" height="71px" xmlns="http://www.w3.org/2000/svg">
  <defs>
    <mask fill="white" id="clip509">
      <path d="M 17.3058563535911 1.17181415929133  L 14.5401657458563 0.210486725663714  L 14.3591160220996 0.95190265486724  L 15.2768508287293 2.06402654867259  L 20.0590607734806 5.39411504424777  L 20.0590607734806 5.57632743362819  L 20.2401104972375 5.57632743362819  L 23.1868508287292 8.91269911504412  L 22.8185082872927 9.28340707964594  L 20.9767955801103 11.5076548672565  L 20.7957458563536 11.6961504424777  L 20.608453038674 12.0605752212389  L 17.4806629834254 12.0605752212389  L 15.6451933701658 12.24907079646  L 14.3591160220996 13.5434070796458  L 14.9085082872928 15.2084513274334  L 14.9085082872928 15.3969469026547  L 15.0958011049723 17.2504867256635  L 16.7502209944751 19.6569469026547  L 16.7502209944751 19.845442477876  L 16.7502209944751 25.0290707964599  L 18.2235911602208 25.588274336283  L 20.8019889502763 26.3234070796458  L 20.9830386740332 26.3234070796458  L 21.1703314917125 26.511902654867  L 21.3513812154695 26.6941150442475  L 23.7424861878453 30.0242035398227  L 23.7424861878453 30.212699115044  L 25.0348066298342 33.542787610619  L 25.0348066298342 33.7312831858403  L 25.0348066298342 35.9492477876101  C 24.8475138121546 37.2498672566368  24.4791712707183 38.3557079646014  24.1108287292818 39.0971238938049  C 23.1930939226518 40.3914601769907  21.5386740331491 41.5035840707961  18.9602762430939 42.6157079646014  L 12.7046961325965 46.3165044247783  L 12.5236464088398 46.3165044247783  L 1.11751381215481 47.0579203539819  L 0.380828729281689 49.8350884955747  L 2.40359116022103 53.5421681415925  L 2.40359116022103 53.724380530973  L 2.40359116022103 53.9065929203534  L 2.95298342541446 58.7195132743358  L 9.20232044198906 66.1273893805304  L 9.38961325966864 66.1273893805304  L 9.38961325966864 66.3158849557516  L 11.9617679558011 70.5758849557517  L 12.142817679558 70.0229646017693  L 12.142817679558 69.834469026548  L 14.1655801104971 64.0979203539817  L 14.3528729281767 63.9157079646012  L 18.0300552486187 59.1027876106189  L 18.2111049723757 58.9205752212384  L 22.8122651933701 56.6963274336279  L 23.1806077348066 56.6963274336279  L 26.1211049723756 58.5498672566367  L 29.9855801104973 58.1791592920349  L 28.6932596685083 51.7011946902651  L 29.4299447513812 51.5189823008845  L 32.9260773480662 51.1482743362827  L 36.6095027624309 51.3304867256633  L 36.9778453038674 51.3304867256633  L 36.9778453038674 51.5189823008844  L 44.3322099447513 54.8490707964597  L 50.5815469613258 56.1496902654862  L 50.7688397790054 56.1496902654862  L 50.9498895027623 56.1496902654862  L 52.9726519337016 57.6325221238933  L 55.9131491712707 58.7383628318579  L 55.9131491712707 58.9268584070791  L 57.754861878453 60.5919026548668  L 58.8598895027623 60.9626106194685  L 60.8826519337016 59.1090707964596  L 60.8826519337016 58.9268584070791  L 64.0104419889501 56.5203982300879  L 65.6711049723756 53.3788053097339  L 68.6116022099447 55.0438495575215  L 68.6116022099447 55.2260619469021  L 68.6116022099447 55.4082743362826  L 69.3482872928175 57.8147345132737  L 69.3482872928175 58.3676548672561  L 68.979944751381 59.8504867256631  L 69.1672375690606 60.221194690265  L 71.0027071823204 59.2975663716809  L 73.5748618784528 56.7088938053092  L 75.9722099447513 56.7088938053092  L 75.9722099447513 56.8911061946897  L 76.1657458563536 56.8911061946897  L 77.8201657458565 58.0032300884949  C 78.9251933701657 59.1090707964596  79.2935359116022 60.0389823008843  78.9251933701657 60.9626106194684  L 78.7441436464088 65.0341150442472  L 79.8491712707183 67.0698672566366  L 80.2175138121548 67.2583628318578  C 84.6313812154697 62.4454424778755  87.5718784530387 60.0389823008843  89.413591160221 60.0389823008843  L 94.3768508287293 60.0389823008843  L 95.4818784530386 57.6325221238932  L 99.3463535911602 55.7789823008843  L 99.5274033149171 55.7789823008843  L 104.309613259668 55.4082743362826  L 109.279116022099 52.8196017699108  L 109.279116022099 52.6373893805303  L 112.406906077348 52.6373893805303  L 111.851270718232 51.1545575221232  L 112.038563535912 50.7838495575214  L 112.775248618785 50.042433628318  L 105.970276243094 35.4214601769905  L 105.970276243094 35.0507522123887  L 105.782983425414 34.8685398230082  L 108.729723756906 30.7970353982295  L 107.811988950276 29.8734070796453  L 102.842486187845 28.9434955752206  L 102.293093922652 28.9434955752206  L 102.293093922652 28.5727876106188  L 99.1653038674033 25.2426991150435  L 99.3525966850829 24.5012831858401  L 99.1653038674033 24.6834955752206  L 98.9780110497237 24.8719911504418  L 96.2185635359116 23.0184513274329  C 94.9324861878454 24.6834955752205  93.646408839779 25.7956194690258  92.1730386740333 26.1663274336275  C 90.886961325967 26.7192477876099  88.8579558011052 25.2426991150435  86.1047513812155 21.9063274336276  L 84.6313812154697 20.0590707964594  C 84.4503314917127 19.6883628318577  83.1642541436464 20.0590707964594  81.1352486187845 20.800486725663  C 78.0074585635359 21.9126106194683  75.9846961325967 22.0948230088487  75.066961325967 21.5419026548665  C 74.1492265193369 20.6182743362823  73.7808839779007 18.7647345132737  74.1492265193369 16.3582743362824  C 74.330276243094 14.3162389380523  74.1492265193369 13.2103982300878  73.7808839779004 12.6511946902647  L 49.8635911602208 11.3568584070789  C 47.6597790055249 10.4332300884947  45.8180662983425 9.50960176991066  44.9003314917126 8.57969026548597  L 41.2231491712705 7.6560619469019  C 39.7497790055247 7.10314159291966  36.9965745856352 4.69039823008768  33.3131491712707 0.065973451326613  L 30.922044198895 2.10172566371602  L 27.2386187845303 0.989601769910792  L 17.3058563535911 1.17181415929133  Z " fill-rule="evenodd" />
    </mask>
  </defs>
  <g transform="matrix(1 0 0 1 -1037 -586 )">
    <path d="M 17.3058563535911 1.17181415929133  L 14.5401657458563 0.210486725663714  L 14.3591160220996 0.95190265486724  L 15.2768508287293 2.06402654867259  L 20.0590607734806 5.39411504424777  L 20.0590607734806 5.57632743362819  L 20.2401104972375 5.57632743362819  L 23.1868508287292 8.91269911504412  L 22.8185082872927 9.28340707964594  L 20.9767955801103 11.5076548672565  L 20.7957458563536 11.6961504424777  L 20.608453038674 12.0605752212389  L 17.4806629834254 12.0605752212389  L 15.6451933701658 12.24907079646  L 14.3591160220996 13.5434070796458  L 14.9085082872928 15.2084513274334  L 14.9085082872928 15.3969469026547  L 15.0958011049723 17.2504867256635  L 16.7502209944751 19.6569469026547  L 16.7502209944751 19.845442477876  L 16.7502209944751 25.0290707964599  L 18.2235911602208 25.588274336283  L 20.8019889502763 26.3234070796458  L 20.9830386740332 26.3234070796458  L 21.1703314917125 26.511902654867  L 21.3513812154695 26.6941150442475  L 23.7424861878453 30.0242035398227  L 23.7424861878453 30.212699115044  L 25.0348066298342 33.542787610619  L 25.0348066298342 33.7312831858403  L 25.0348066298342 35.9492477876101  C 24.8475138121546 37.2498672566368  24.4791712707183 38.3557079646014  24.1108287292818 39.0971238938049  C 23.1930939226518 40.3914601769907  21.5386740331491 41.5035840707961  18.9602762430939 42.6157079646014  L 12.7046961325965 46.3165044247783  L 12.5236464088398 46.3165044247783  L 1.11751381215481 47.0579203539819  L 0.380828729281689 49.8350884955747  L 2.40359116022103 53.5421681415925  L 2.40359116022103 53.724380530973  L 2.40359116022103 53.9065929203534  L 2.95298342541446 58.7195132743358  L 9.20232044198906 66.1273893805304  L 9.38961325966864 66.1273893805304  L 9.38961325966864 66.3158849557516  L 11.9617679558011 70.5758849557517  L 12.142817679558 70.0229646017693  L 12.142817679558 69.834469026548  L 14.1655801104971 64.0979203539817  L 14.3528729281767 63.9157079646012  L 18.0300552486187 59.1027876106189  L 18.2111049723757 58.9205752212384  L 22.8122651933701 56.6963274336279  L 23.1806077348066 56.6963274336279  L 26.1211049723756 58.5498672566367  L 29.9855801104973 58.1791592920349  L 28.6932596685083 51.7011946902651  L 29.4299447513812 51.5189823008845  L 32.9260773480662 51.1482743362827  L 36.6095027624309 51.3304867256633  L 36.9778453038674 51.3304867256633  L 36.9778453038674 51.5189823008844  L 44.3322099447513 54.8490707964597  L 50.5815469613258 56.1496902654862  L 50.7688397790054 56.1496902654862  L 50.9498895027623 56.1496902654862  L 52.9726519337016 57.6325221238933  L 55.9131491712707 58.7383628318579  L 55.9131491712707 58.9268584070791  L 57.754861878453 60.5919026548668  L 58.8598895027623 60.9626106194685  L 60.8826519337016 59.1090707964596  L 60.8826519337016 58.9268584070791  L 64.0104419889501 56.5203982300879  L 65.6711049723756 53.3788053097339  L 68.6116022099447 55.0438495575215  L 68.6116022099447 55.2260619469021  L 68.6116022099447 55.4082743362826  L 69.3482872928175 57.8147345132737  L 69.3482872928175 58.3676548672561  L 68.979944751381 59.8504867256631  L 69.1672375690606 60.221194690265  L 71.0027071823204 59.2975663716809  L 73.5748618784528 56.7088938053092  L 75.9722099447513 56.7088938053092  L 75.9722099447513 56.8911061946897  L 76.1657458563536 56.8911061946897  L 77.8201657458565 58.0032300884949  C 78.9251933701657 59.1090707964596  79.2935359116022 60.0389823008843  78.9251933701657 60.9626106194684  L 78.7441436464088 65.0341150442472  L 79.8491712707183 67.0698672566366  L 80.2175138121548 67.2583628318578  C 84.6313812154697 62.4454424778755  87.5718784530387 60.0389823008843  89.413591160221 60.0389823008843  L 94.3768508287293 60.0389823008843  L 95.4818784530386 57.6325221238932  L 99.3463535911602 55.7789823008843  L 99.5274033149171 55.7789823008843  L 104.309613259668 55.4082743362826  L 109.279116022099 52.8196017699108  L 109.279116022099 52.6373893805303  L 112.406906077348 52.6373893805303  L 111.851270718232 51.1545575221232  L 112.038563535912 50.7838495575214  L 112.775248618785 50.042433628318  L 105.970276243094 35.4214601769905  L 105.970276243094 35.0507522123887  L 105.782983425414 34.8685398230082  L 108.729723756906 30.7970353982295  L 107.811988950276 29.8734070796453  L 102.842486187845 28.9434955752206  L 102.293093922652 28.9434955752206  L 102.293093922652 28.5727876106188  L 99.1653038674033 25.2426991150435  L 99.3525966850829 24.5012831858401  L 99.1653038674033 24.6834955752206  L 98.9780110497237 24.8719911504418  L 96.2185635359116 23.0184513274329  C 94.9324861878454 24.6834955752205  93.646408839779 25.7956194690258  92.1730386740333 26.1663274336275  C 90.886961325967 26.7192477876099  88.8579558011052 25.2426991150435  86.1047513812155 21.9063274336276  L 84.6313812154697 20.0590707964594  C 84.4503314917127 19.6883628318577  83.1642541436464 20.0590707964594  81.1352486187845 20.800486725663  C 78.0074585635359 21.9126106194683  75.9846961325967 22.0948230088487  75.066961325967 21.5419026548665  C 74.1492265193369 20.6182743362823  73.7808839779007 18.7647345132737  74.1492265193369 16.3582743362824  C 74.330276243094 14.3162389380523  74.1492265193369 13.2103982300878  73.7808839779004 12.6511946902647  L 49.8635911602208 11.3568584070789  C 47.6597790055249 10.4332300884947  45.8180662983425 9.50960176991066  44.9003314917126 8.57969026548597  L 41.2231491712705 7.6560619469019  C 39.7497790055247 7.10314159291966  36.9965745856352 4.69039823008768  33.3131491712707 0.065973451326613  L 30.922044198895 2.10172566371602  L 27.2386187845303 0.989601769910792  L 17.3058563535911 1.17181415929133  Z " fill-rule="nonzero" fill="#00ccff" stroke="none" fill-opacity="0.498039215686275" transform="matrix(1 0 0 1 1037 586 )" />
    <path d="M 17.3058563535911 1.17181415929133  L 14.5401657458563 0.210486725663714  L 14.3591160220996 0.95190265486724  L 15.2768508287293 2.06402654867259  L 20.0590607734806 5.39411504424777  L 20.0590607734806 5.57632743362819  L 20.2401104972375 5.57632743362819  L 23.1868508287292 8.91269911504412  L 22.8185082872927 9.28340707964594  L 20.9767955801103 11.5076548672565  L 20.7957458563536 11.6961504424777  L 20.608453038674 12.0605752212389  L 17.4806629834254 12.0605752212389  L 15.6451933701658 12.24907079646  L 14.3591160220996 13.5434070796458  L 14.9085082872928 15.2084513274334  L 14.9085082872928 15.3969469026547  L 15.0958011049723 17.2504867256635  L 16.7502209944751 19.6569469026547  L 16.7502209944751 19.845442477876  L 16.7502209944751 25.0290707964599  L 18.2235911602208 25.588274336283  L 20.8019889502763 26.3234070796458  L 20.9830386740332 26.3234070796458  L 21.1703314917125 26.511902654867  L 21.3513812154695 26.6941150442475  L 23.7424861878453 30.0242035398227  L 23.7424861878453 30.212699115044  L 25.0348066298342 33.542787610619  L 25.0348066298342 33.7312831858403  L 25.0348066298342 35.9492477876101  C 24.8475138121546 37.2498672566368  24.4791712707183 38.3557079646014  24.1108287292818 39.0971238938049  C 23.1930939226518 40.3914601769907  21.5386740331491 41.5035840707961  18.9602762430939 42.6157079646014  L 12.7046961325965 46.3165044247783  L 12.5236464088398 46.3165044247783  L 1.11751381215481 47.0579203539819  L 0.380828729281689 49.8350884955747  L 2.40359116022103 53.5421681415925  L 2.40359116022103 53.724380530973  L 2.40359116022103 53.9065929203534  L 2.95298342541446 58.7195132743358  L 9.20232044198906 66.1273893805304  L 9.38961325966864 66.1273893805304  L 9.38961325966864 66.3158849557516  L 11.9617679558011 70.5758849557517  L 12.142817679558 70.0229646017693  L 12.142817679558 69.834469026548  L 14.1655801104971 64.0979203539817  L 14.3528729281767 63.9157079646012  L 18.0300552486187 59.1027876106189  L 18.2111049723757 58.9205752212384  L 22.8122651933701 56.6963274336279  L 23.1806077348066 56.6963274336279  L 26.1211049723756 58.5498672566367  L 29.9855801104973 58.1791592920349  L 28.6932596685083 51.7011946902651  L 29.4299447513812 51.5189823008845  L 32.9260773480662 51.1482743362827  L 36.6095027624309 51.3304867256633  L 36.9778453038674 51.3304867256633  L 36.9778453038674 51.5189823008844  L 44.3322099447513 54.8490707964597  L 50.5815469613258 56.1496902654862  L 50.7688397790054 56.1496902654862  L 50.9498895027623 56.1496902654862  L 52.9726519337016 57.6325221238933  L 55.9131491712707 58.7383628318579  L 55.9131491712707 58.9268584070791  L 57.754861878453 60.5919026548668  L 58.8598895027623 60.9626106194685  L 60.8826519337016 59.1090707964596  L 60.8826519337016 58.9268584070791  L 64.0104419889501 56.5203982300879  L 65.6711049723756 53.3788053097339  L 68.6116022099447 55.0438495575215  L 68.6116022099447 55.2260619469021  L 68.6116022099447 55.4082743362826  L 69.3482872928175 57.8147345132737  L 69.3482872928175 58.3676548672561  L 68.979944751381 59.8504867256631  L 69.1672375690606 60.221194690265  L 71.0027071823204 59.2975663716809  L 73.5748618784528 56.7088938053092  L 75.9722099447513 56.7088938053092  L 75.9722099447513 56.8911061946897  L 76.1657458563536 56.8911061946897  L 77.8201657458565 58.0032300884949  C 78.9251933701657 59.1090707964596  79.2935359116022 60.0389823008843  78.9251933701657 60.9626106194684  L 78.7441436464088 65.0341150442472  L 79.8491712707183 67.0698672566366  L 80.2175138121548 67.2583628318578  C 84.6313812154697 62.4454424778755  87.5718784530387 60.0389823008843  89.413591160221 60.0389823008843  L 94.3768508287293 60.0389823008843  L 95.4818784530386 57.6325221238932  L 99.3463535911602 55.7789823008843  L 99.5274033149171 55.7789823008843  L 104.309613259668 55.4082743362826  L 109.279116022099 52.8196017699108  L 109.279116022099 52.6373893805303  L 112.406906077348 52.6373893805303  L 111.851270718232 51.1545575221232  L 112.038563535912 50.7838495575214  L 112.775248618785 50.042433628318  L 105.970276243094 35.4214601769905  L 105.970276243094 35.0507522123887  L 105.782983425414 34.8685398230082  L 108.729723756906 30.7970353982295  L 107.811988950276 29.8734070796453  L 102.842486187845 28.9434955752206  L 102.293093922652 28.9434955752206  L 102.293093922652 28.5727876106188  L 99.1653038674033 25.2426991150435  L 99.3525966850829 24.5012831858401  L 99.1653038674033 24.6834955752206  L 98.9780110497237 24.8719911504418  L 96.2185635359116 23.0184513274329  C 94.9324861878454 24.6834955752205  93.646408839779 25.7956194690258  92.1730386740333 26.1663274336275  C 90.886961325967 26.7192477876099  88.8579558011052 25.2426991150435  86.1047513812155 21.9063274336276  L 84.6313812154697 20.0590707964594  C 84.4503314917127 19.6883628318577  83.1642541436464 20.0590707964594  81.1352486187845 20.800486725663  C 78.0074585635359 21.9126106194683  75.9846961325967 22.0948230088487  75.066961325967 21.5419026548665  C 74.1492265193369 20.6182743362823  73.7808839779007 18.7647345132737  74.1492265193369 16.3582743362824  C 74.330276243094 14.3162389380523  74.1492265193369 13.2103982300878  73.7808839779004 12.6511946902647  L 49.8635911602208 11.3568584070789  C 47.6597790055249 10.4332300884947  45.8180662983425 9.50960176991066  44.9003314917126 8.57969026548597  L 41.2231491712705 7.6560619469019  C 39.7497790055247 7.10314159291966  36.9965745856352 4.69039823008768  33.3131491712707 0.065973451326613  L 30.922044198895 2.10172566371602  L 27.2386187845303 0.989601769910792  L 17.3058563535911 1.17181415929133  Z " stroke-width="4" stroke="#00ccff" fill="none" stroke-opacity="0.498039215686275" transform="matrix(1 0 0 1 1037 586 )" mask="url(#clip509)" />
  </g>
</svg>