<?xml version="1.0" encoding="utf-8"?>
<svg version="1.1" xmlns:xlink="http://www.w3.org/1999/xlink" width="26px" height="27px" xmlns="http://www.w3.org/2000/svg">
  <defs>
    <mask fill="white" id="clip523">
      <path d="M 12.2580487804877 2.85383720930224  C 13.209268292683 3.58220930232562  13.5834146341463 4.5052325581396  13.0190243902439 5.80500000000006  L 12.6448780487804 6.35755813953494  L 12.0804878048781 6.17546511627904  L 9.65170731707315 5.80500000000006  L 9.4678048780487 6.91639534883723  L 9.4678048780487 7.47523255813951  L 8.90975609756106 7.47523255813951  L 4.98439024390234 8.95081395348848  L 4.800487804878 9.50965116279076  C 4.24243902439025 10.8031395348838  4.800487804878 11.914534883721  6.10682926829259 13.3963953488372  L 6.48097560975611 13.7668604651162  L 6.10682926829259 14.3194186046511  C 4.98439024390234 16.1654651162792  3.30390243902446 18.0177906976744  1.43951219512189 19.3112790697675  C 0.691219512195062 19.8701162790697  0.500975609756097 20.4226744186046  0.500975609756097 20.981511627907  L 1.80731707317057 22.6454651162791  L 3.86195121951209 23.3863953488373  L 5.54243902439009 23.568488372093  C 7.78097560975596 23.568488372093  9.27756097560973 23.7568604651162  9.841951219512 24.6798837209302  L 11.7063414634146 25.9796511627907  C 13.012682926829 26.5322093023256  14.1351219512195 26.9026744186046  15.0673170731704 26.9026744186046  C 15.8156097560975 26.9026744186046  16.7478048780487 26.3438372093024  17.4960975609754 24.8682558139535  L 18.9863414634145 23.2043023255815  L 20.1087804878048 19.688023255814  L 19.1765853658535 15.6191860465116  L 20.6668292682926 15.9896511627907  L 23.0956097560976 16.1717441860465  L 24.2117073170732 15.4308139534884  L 24.5858536585364 14.5077906976744  L 22.7214634146341 9.14546511627907  L 23.2795121951218 7.29313953488372  C 23.8439024390243 6.18174418604644  24.5858536585364 5.81127906976747  25.3341463414632 5.62918604651156  L 25.5243902439023 5.62918604651156  L 25.1502439024388 4.3294186046511  L 20.6668292682924 4.5177906976744  L 20.6668292682924 4.3294186046511  L 16.5575609756096 1.55406976744189  C 14.8707317073168 0.442674418604611  13.1902439024389 0.260581395348822  11.6936585365851 0.631046511627801  L 11.1356097560974 1.00151162790689  C 10.7614634146339 1.74244186046508  11.1356097560974 2.48337209302315  12.2580487804877 2.85383720930224  Z " fill-rule="evenodd" />
    </mask>
  </defs>
  <g transform="matrix(1 0 0 1 -1123 -444 )">
    <path d="M 12.2580487804877 2.85383720930224  C 13.209268292683 3.58220930232562  13.5834146341463 4.5052325581396  13.0190243902439 5.80500000000006  L 12.6448780487804 6.35755813953494  L 12.0804878048781 6.17546511627904  L 9.65170731707315 5.80500000000006  L 9.4678048780487 6.91639534883723  L 9.4678048780487 7.47523255813951  L 8.90975609756106 7.47523255813951  L 4.98439024390234 8.95081395348848  L 4.800487804878 9.50965116279076  C 4.24243902439025 10.8031395348838  4.800487804878 11.914534883721  6.10682926829259 13.3963953488372  L 6.48097560975611 13.7668604651162  L 6.10682926829259 14.3194186046511  C 4.98439024390234 16.1654651162792  3.30390243902446 18.0177906976744  1.43951219512189 19.3112790697675  C 0.691219512195062 19.8701162790697  0.500975609756097 20.4226744186046  0.500975609756097 20.981511627907  L 1.80731707317057 22.6454651162791  L 3.86195121951209 23.3863953488373  L 5.54243902439009 23.568488372093  C 7.78097560975596 23.568488372093  9.27756097560973 23.7568604651162  9.841951219512 24.6798837209302  L 11.7063414634146 25.9796511627907  C 13.012682926829 26.5322093023256  14.1351219512195 26.9026744186046  15.0673170731704 26.9026744186046  C 15.8156097560975 26.9026744186046  16.7478048780487 26.3438372093024  17.4960975609754 24.8682558139535  L 18.9863414634145 23.2043023255815  L 20.1087804878048 19.688023255814  L 19.1765853658535 15.6191860465116  L 20.6668292682926 15.9896511627907  L 23.0956097560976 16.1717441860465  L 24.2117073170732 15.4308139534884  L 24.5858536585364 14.5077906976744  L 22.7214634146341 9.14546511627907  L 23.2795121951218 7.29313953488372  C 23.8439024390243 6.18174418604644  24.5858536585364 5.81127906976747  25.3341463414632 5.62918604651156  L 25.5243902439023 5.62918604651156  L 25.1502439024388 4.3294186046511  L 20.6668292682924 4.5177906976744  L 20.6668292682924 4.3294186046511  L 16.5575609756096 1.55406976744189  C 14.8707317073168 0.442674418604611  13.1902439024389 0.260581395348822  11.6936585365851 0.631046511627801  L 11.1356097560974 1.00151162790689  C 10.7614634146339 1.74244186046508  11.1356097560974 2.48337209302315  12.2580487804877 2.85383720930224  Z " fill-rule="nonzero" fill="#00ccff" stroke="none" fill-opacity="0.498039215686275" transform="matrix(1 0 0 1 1123 444 )" />
    <path d="M 12.2580487804877 2.85383720930224  C 13.209268292683 3.58220930232562  13.5834146341463 4.5052325581396  13.0190243902439 5.80500000000006  L 12.6448780487804 6.35755813953494  L 12.0804878048781 6.17546511627904  L 9.65170731707315 5.80500000000006  L 9.4678048780487 6.91639534883723  L 9.4678048780487 7.47523255813951  L 8.90975609756106 7.47523255813951  L 4.98439024390234 8.95081395348848  L 4.800487804878 9.50965116279076  C 4.24243902439025 10.8031395348838  4.800487804878 11.914534883721  6.10682926829259 13.3963953488372  L 6.48097560975611 13.7668604651162  L 6.10682926829259 14.3194186046511  C 4.98439024390234 16.1654651162792  3.30390243902446 18.0177906976744  1.43951219512189 19.3112790697675  C 0.691219512195062 19.8701162790697  0.500975609756097 20.4226744186046  0.500975609756097 20.981511627907  L 1.80731707317057 22.6454651162791  L 3.86195121951209 23.3863953488373  L 5.54243902439009 23.568488372093  C 7.78097560975596 23.568488372093  9.27756097560973 23.7568604651162  9.841951219512 24.6798837209302  L 11.7063414634146 25.9796511627907  C 13.012682926829 26.5322093023256  14.1351219512195 26.9026744186046  15.0673170731704 26.9026744186046  C 15.8156097560975 26.9026744186046  16.7478048780487 26.3438372093024  17.4960975609754 24.8682558139535  L 18.9863414634145 23.2043023255815  L 20.1087804878048 19.688023255814  L 19.1765853658535 15.6191860465116  L 20.6668292682926 15.9896511627907  L 23.0956097560976 16.1717441860465  L 24.2117073170732 15.4308139534884  L 24.5858536585364 14.5077906976744  L 22.7214634146341 9.14546511627907  L 23.2795121951218 7.29313953488372  C 23.8439024390243 6.18174418604644  24.5858536585364 5.81127906976747  25.3341463414632 5.62918604651156  L 25.5243902439023 5.62918604651156  L 25.1502439024388 4.3294186046511  L 20.6668292682924 4.5177906976744  L 20.6668292682924 4.3294186046511  L 16.5575609756096 1.55406976744189  C 14.8707317073168 0.442674418604611  13.1902439024389 0.260581395348822  11.6936585365851 0.631046511627801  L 11.1356097560974 1.00151162790689  C 10.7614634146339 1.74244186046508  11.1356097560974 2.48337209302315  12.2580487804877 2.85383720930224  Z " stroke-width="4" stroke="#00ccff" fill="none" stroke-opacity="0.498039215686275" transform="matrix(1 0 0 1 1123 444 )" mask="url(#clip523)" />
  </g>
</svg>