<?xml version="1.0" encoding="utf-8"?>
<svg version="1.1" xmlns:xlink="http://www.w3.org/1999/xlink" width="87px" height="83px" xmlns="http://www.w3.org/2000/svg">
  <defs>
    <mask fill="white" id="clip524">
      <path d="M 43.2058273381292 11.7916165413535  L 39.7007913669065 10.8617669172933  L 37.4913669064747 13.8073308270677  C 37.1220863309352 14.3565037593986  36.9405755395683 15.461090225564  37.3035971223022 17.302067669173  L 37.3035971223022 18.4066541353384  L 32.878489208633 18.4066541353384  L 32.6907194244604 18.4066541353384  L 29.554964028777 17.4892857142858  L 27.1577697841727 21.1650000000001  L 26.788489208633 21.5331954887218  L 23.8342446043166 23.3679323308271  L 21.2555395683453 26.1262781954888  L 20.8862589928057 26.6816917293233  L 16.2796402877697 32.0111654135338  L 16.2796402877697 32.1983834586466  L 16.0918705035971 32.1983834586466  L 12.586834532374 34.0331203007519  L 9.82035971223024 32.1983834586466  L 9.82035971223024 32.0111654135338  L 7.24165467625892 29.2528195488723  L 5.58302158273386 28.3354511278195  L 6.87237410071941 35.8740977443609  L 7.98021582733816 39.9180075187969  L 5.21374100719413 42.4891353383459  L 1.33942446043159 48.1868045112782  L 1.33942446043159 50.5769548872181  L 1.15791366906467 50.7579323308271  L 0.976402877697865 50.7579323308271  L 0.0563309352517081 52.2307142857144  L 0.788633093525164 53.5225187969926  L 2.2657553956833 53.5225187969926  L 7.61719424460432 54.989060150376  L 7.79870503597101 54.989060150376  L 7.98021582733793 54.989060150376  L 7.98021582733793 55.1762781954887  L 8.16798561151052 55.1762781954887  L 9.27582733812926 56.2808646616542  L 10.7466906474818 57.0172556390978  L 11.1159712230215 57.0172556390978  L 11.1159712230215 57.1982330827068  C 11.6730215827336 57.9346240601504  12.0423021582733 58.671015037594  12.0423021582733 59.4074060150376  L 12.5930935251797 61.0611654135339  L 18.3138129496401 62.7149248120302  L 19.9724460431653 62.3467293233083  L 21.6310791366905 60.1437969924813  L 26.0561870503597 51.6877819548873  L 26.2376978417263 51.6877819548873  L 26.2376978417263 51.5005639097745  L 28.2656115107912 48.7422180451129  L 28.4533812949638 48.5550000000001  L 31.9584172661869 46.9012406015039  L 34.3556115107912 46.7202631578947  C 35.2756834532373 45.2474812030075  36.0142446043163 44.511090225564  36.9343165467625 44.511090225564  C 37.4851079136689 44.511090225564  38.4051798561151 44.8792857142857  39.8823021582732 45.6156766917294  L 40.2515827338129 45.7966541353384  L 40.2515827338129 45.9838721804512  L 43.3873381294962 50.7641729323309  L 43.3873381294962 50.9513909774437  L 43.5751079136688 50.9513909774437  L 43.5751079136688 51.3195864661654  L 43.9443884892086 54.8143233082708  L 43.7566187050357 58.6772556390978  L 42.8365467625898 61.991015037594  L 42.8365467625898 62.3592105263158  L 42.6550359712229 62.3592105263158  L 40.2578417266186 65.2985338345865  L 39.1499999999999 67.6886842105263  L 39.3377697841725 71.7325939849625  L 39.7070503597122 71.7325939849625  L 40.9964028776978 71.1834210526316  L 42.473525179856 69.8916165413534  L 42.8428057553955 69.5234210526316  L 43.0305755395683 69.1552255639099  L 44.8769784172659 70.8152255639098  L 44.8769784172659 70.9962030075188  L 44.8769784172659 73.9417669172934  L 44.6892086330934 73.9417669172934  L 43.0305755395683 74.678157894737  L 42.4797841726619 75.4145488721806  L 42.4797841726619 77.0683082706768  L 42.2920143884893 77.2492857142859  L 41.1904316546762 79.2712406015038  L 41.0026618705036 79.2712406015038  L 40.6333812949639 79.4584586466167  L 39.1562589928058 79.6394360902258  L 37.6791366906475 80.0076315789474  L 36.5775539568344 82.0295864661656  L 36.7590647482014 82.3977819548874  L 42.8428057553957 81.6613909774437  L 43.9506474820145 80.7440225563911  L 45.978561151079 75.4145488721806  L 59.6294244604316 61.4356015037595  L 59.9987050359713 61.4356015037595  L 62.946690647482 59.9628195488723  L 63.1282014388488 59.7818421052632  L 63.1282014388488 59.9628195488723  L 65.5253956834531 59.9628195488723  L 67.9225899280575 59.4136466165415  L 70.5012949640285 58.3090601503761  L 72.3476978417265 56.287105263158  L 75.2956834532372 48.1992857142859  L 75.2956834532372 48.0120676691731  L 86.7308633093523 36.0613157894738  L 86.7308633093523 35.8803383458649  L 85.9923021582731 29.4462781954888  C 85.4352517985608 29.2590601503761  84.6966906474819 28.8908646616542  84.3274100719422 28.3416917293234  L 83.9581294964026 27.9734962406015  L 83.9581294964026 28.1544736842108  L 82.1117266187047 28.3416917293235  C 81.1916546762587 27.9734962406017  80.6346043165465 27.6053007518798  79.9023021582732 26.6879323308272  L 79.3515107913668 25.5833458646619  L 79.3515107913668 25.3961278195491  L 79.1637410071939 25.21515037594  L 79.1637410071939 15.2863533834587  C 78.0621582733811 14.9181578947371  76.9543165467624 14.1817669172934  75.6587050359711 12.8962030075189  L 73.2615107913667 10.3250751879701  L 71.0520863309351 7.19853383458667  C 70.6828057553956 6.46214285714302  70.6828057553956 5.35755639097761  70.8643165467624 3.70379699248133  L 71.0520863309351 2.7801879699249  L 69.7627338129496 1.12642857142873  L 69.574964028777 2.59921052631603  L 67.9163309352516 5.72575187969949  L 67.3655395683452 5.72575187969949  C 66.0699280575537 5.72575187969949  64.5990647482012 5.54477443609028  63.4912230215824 4.98936090225584  C 62.3833812949637 4.62116541353407  61.8325899280572 3.70379699248133  61.8325899280572 2.59921052631603  L 61.8325899280572 1.86281954887227  L 60.9125179856112 1.86281954887227  L 57.4137410071939 2.78018796992501  L 54.8287769784171 0.209060150376104  L 53.9087050359709 0.0280827067670089  L 52.9823741007191 0.945451127819638  L 54.0902158273378 2.78018796992501  L 54.4594964028773 3.33560150375956  L 52.6130935251795 7.19853383458667  L 52.4253237410069 7.19853383458667  L 52.4253237410069 7.37951127819565  L 52.24381294964 7.37951127819565  L 48.9265467625896 11.0614661654137  L 48.7387769784168 11.2424436090226  L 48.3694964028773 11.2424436090226  L 43.2058273381292 11.7916165413535  Z " fill-rule="evenodd" />
    </mask>
  </defs>
  <g transform="matrix(1 0 0 1 -1165 -392 )">
    <path d="M 43.2058273381292 11.7916165413535  L 39.7007913669065 10.8617669172933  L 37.4913669064747 13.8073308270677  C 37.1220863309352 14.3565037593986  36.9405755395683 15.461090225564  37.3035971223022 17.302067669173  L 37.3035971223022 18.4066541353384  L 32.878489208633 18.4066541353384  L 32.6907194244604 18.4066541353384  L 29.554964028777 17.4892857142858  L 27.1577697841727 21.1650000000001  L 26.788489208633 21.5331954887218  L 23.8342446043166 23.3679323308271  L 21.2555395683453 26.1262781954888  L 20.8862589928057 26.6816917293233  L 16.2796402877697 32.0111654135338  L 16.2796402877697 32.1983834586466  L 16.0918705035971 32.1983834586466  L 12.586834532374 34.0331203007519  L 9.82035971223024 32.1983834586466  L 9.82035971223024 32.0111654135338  L 7.24165467625892 29.2528195488723  L 5.58302158273386 28.3354511278195  L 6.87237410071941 35.8740977443609  L 7.98021582733816 39.9180075187969  L 5.21374100719413 42.4891353383459  L 1.33942446043159 48.1868045112782  L 1.33942446043159 50.5769548872181  L 1.15791366906467 50.7579323308271  L 0.976402877697865 50.7579323308271  L 0.0563309352517081 52.2307142857144  L 0.788633093525164 53.5225187969926  L 2.2657553956833 53.5225187969926  L 7.61719424460432 54.989060150376  L 7.79870503597101 54.989060150376  L 7.98021582733793 54.989060150376  L 7.98021582733793 55.1762781954887  L 8.16798561151052 55.1762781954887  L 9.27582733812926 56.2808646616542  L 10.7466906474818 57.0172556390978  L 11.1159712230215 57.0172556390978  L 11.1159712230215 57.1982330827068  C 11.6730215827336 57.9346240601504  12.0423021582733 58.671015037594  12.0423021582733 59.4074060150376  L 12.5930935251797 61.0611654135339  L 18.3138129496401 62.7149248120302  L 19.9724460431653 62.3467293233083  L 21.6310791366905 60.1437969924813  L 26.0561870503597 51.6877819548873  L 26.2376978417263 51.6877819548873  L 26.2376978417263 51.5005639097745  L 28.2656115107912 48.7422180451129  L 28.4533812949638 48.5550000000001  L 31.9584172661869 46.9012406015039  L 34.3556115107912 46.7202631578947  C 35.2756834532373 45.2474812030075  36.0142446043163 44.511090225564  36.9343165467625 44.511090225564  C 37.4851079136689 44.511090225564  38.4051798561151 44.8792857142857  39.8823021582732 45.6156766917294  L 40.2515827338129 45.7966541353384  L 40.2515827338129 45.9838721804512  L 43.3873381294962 50.7641729323309  L 43.3873381294962 50.9513909774437  L 43.5751079136688 50.9513909774437  L 43.5751079136688 51.3195864661654  L 43.9443884892086 54.8143233082708  L 43.7566187050357 58.6772556390978  L 42.8365467625898 61.991015037594  L 42.8365467625898 62.3592105263158  L 42.6550359712229 62.3592105263158  L 40.2578417266186 65.2985338345865  L 39.1499999999999 67.6886842105263  L 39.3377697841725 71.7325939849625  L 39.7070503597122 71.7325939849625  L 40.9964028776978 71.1834210526316  L 42.473525179856 69.8916165413534  L 42.8428057553955 69.5234210526316  L 43.0305755395683 69.1552255639099  L 44.8769784172659 70.8152255639098  L 44.8769784172659 70.9962030075188  L 44.8769784172659 73.9417669172934  L 44.6892086330934 73.9417669172934  L 43.0305755395683 74.678157894737  L 42.4797841726619 75.4145488721806  L 42.4797841726619 77.0683082706768  L 42.2920143884893 77.2492857142859  L 41.1904316546762 79.2712406015038  L 41.0026618705036 79.2712406015038  L 40.6333812949639 79.4584586466167  L 39.1562589928058 79.6394360902258  L 37.6791366906475 80.0076315789474  L 36.5775539568344 82.0295864661656  L 36.7590647482014 82.3977819548874  L 42.8428057553957 81.6613909774437  L 43.9506474820145 80.7440225563911  L 45.978561151079 75.4145488721806  L 59.6294244604316 61.4356015037595  L 59.9987050359713 61.4356015037595  L 62.946690647482 59.9628195488723  L 63.1282014388488 59.7818421052632  L 63.1282014388488 59.9628195488723  L 65.5253956834531 59.9628195488723  L 67.9225899280575 59.4136466165415  L 70.5012949640285 58.3090601503761  L 72.3476978417265 56.287105263158  L 75.2956834532372 48.1992857142859  L 75.2956834532372 48.0120676691731  L 86.7308633093523 36.0613157894738  L 86.7308633093523 35.8803383458649  L 85.9923021582731 29.4462781954888  C 85.4352517985608 29.2590601503761  84.6966906474819 28.8908646616542  84.3274100719422 28.3416917293234  L 83.9581294964026 27.9734962406015  L 83.9581294964026 28.1544736842108  L 82.1117266187047 28.3416917293235  C 81.1916546762587 27.9734962406017  80.6346043165465 27.6053007518798  79.9023021582732 26.6879323308272  L 79.3515107913668 25.5833458646619  L 79.3515107913668 25.3961278195491  L 79.1637410071939 25.21515037594  L 79.1637410071939 15.2863533834587  C 78.0621582733811 14.9181578947371  76.9543165467624 14.1817669172934  75.6587050359711 12.8962030075189  L 73.2615107913667 10.3250751879701  L 71.0520863309351 7.19853383458667  C 70.6828057553956 6.46214285714302  70.6828057553956 5.35755639097761  70.8643165467624 3.70379699248133  L 71.0520863309351 2.7801879699249  L 69.7627338129496 1.12642857142873  L 69.574964028777 2.59921052631603  L 67.9163309352516 5.72575187969949  L 67.3655395683452 5.72575187969949  C 66.0699280575537 5.72575187969949  64.5990647482012 5.54477443609028  63.4912230215824 4.98936090225584  C 62.3833812949637 4.62116541353407  61.8325899280572 3.70379699248133  61.8325899280572 2.59921052631603  L 61.8325899280572 1.86281954887227  L 60.9125179856112 1.86281954887227  L 57.4137410071939 2.78018796992501  L 54.8287769784171 0.209060150376104  L 53.9087050359709 0.0280827067670089  L 52.9823741007191 0.945451127819638  L 54.0902158273378 2.78018796992501  L 54.4594964028773 3.33560150375956  L 52.6130935251795 7.19853383458667  L 52.4253237410069 7.19853383458667  L 52.4253237410069 7.37951127819565  L 52.24381294964 7.37951127819565  L 48.9265467625896 11.0614661654137  L 48.7387769784168 11.2424436090226  L 48.3694964028773 11.2424436090226  L 43.2058273381292 11.7916165413535  Z " fill-rule="nonzero" fill="#00ccff" stroke="none" fill-opacity="0.4" transform="matrix(1 0 0 1 1165 392 )" />
    <path d="M 43.2058273381292 11.7916165413535  L 39.7007913669065 10.8617669172933  L 37.4913669064747 13.8073308270677  C 37.1220863309352 14.3565037593986  36.9405755395683 15.461090225564  37.3035971223022 17.302067669173  L 37.3035971223022 18.4066541353384  L 32.878489208633 18.4066541353384  L 32.6907194244604 18.4066541353384  L 29.554964028777 17.4892857142858  L 27.1577697841727 21.1650000000001  L 26.788489208633 21.5331954887218  L 23.8342446043166 23.3679323308271  L 21.2555395683453 26.1262781954888  L 20.8862589928057 26.6816917293233  L 16.2796402877697 32.0111654135338  L 16.2796402877697 32.1983834586466  L 16.0918705035971 32.1983834586466  L 12.586834532374 34.0331203007519  L 9.82035971223024 32.1983834586466  L 9.82035971223024 32.0111654135338  L 7.24165467625892 29.2528195488723  L 5.58302158273386 28.3354511278195  L 6.87237410071941 35.8740977443609  L 7.98021582733816 39.9180075187969  L 5.21374100719413 42.4891353383459  L 1.33942446043159 48.1868045112782  L 1.33942446043159 50.5769548872181  L 1.15791366906467 50.7579323308271  L 0.976402877697865 50.7579323308271  L 0.0563309352517081 52.2307142857144  L 0.788633093525164 53.5225187969926  L 2.2657553956833 53.5225187969926  L 7.61719424460432 54.989060150376  L 7.79870503597101 54.989060150376  L 7.98021582733793 54.989060150376  L 7.98021582733793 55.1762781954887  L 8.16798561151052 55.1762781954887  L 9.27582733812926 56.2808646616542  L 10.7466906474818 57.0172556390978  L 11.1159712230215 57.0172556390978  L 11.1159712230215 57.1982330827068  C 11.6730215827336 57.9346240601504  12.0423021582733 58.671015037594  12.0423021582733 59.4074060150376  L 12.5930935251797 61.0611654135339  L 18.3138129496401 62.7149248120302  L 19.9724460431653 62.3467293233083  L 21.6310791366905 60.1437969924813  L 26.0561870503597 51.6877819548873  L 26.2376978417263 51.6877819548873  L 26.2376978417263 51.5005639097745  L 28.2656115107912 48.7422180451129  L 28.4533812949638 48.5550000000001  L 31.9584172661869 46.9012406015039  L 34.3556115107912 46.7202631578947  C 35.2756834532373 45.2474812030075  36.0142446043163 44.511090225564  36.9343165467625 44.511090225564  C 37.4851079136689 44.511090225564  38.4051798561151 44.8792857142857  39.8823021582732 45.6156766917294  L 40.2515827338129 45.7966541353384  L 40.2515827338129 45.9838721804512  L 43.3873381294962 50.7641729323309  L 43.3873381294962 50.9513909774437  L 43.5751079136688 50.9513909774437  L 43.5751079136688 51.3195864661654  L 43.9443884892086 54.8143233082708  L 43.7566187050357 58.6772556390978  L 42.8365467625898 61.991015037594  L 42.8365467625898 62.3592105263158  L 42.6550359712229 62.3592105263158  L 40.2578417266186 65.2985338345865  L 39.1499999999999 67.6886842105263  L 39.3377697841725 71.7325939849625  L 39.7070503597122 71.7325939849625  L 40.9964028776978 71.1834210526316  L 42.473525179856 69.8916165413534  L 42.8428057553955 69.5234210526316  L 43.0305755395683 69.1552255639099  L 44.8769784172659 70.8152255639098  L 44.8769784172659 70.9962030075188  L 44.8769784172659 73.9417669172934  L 44.6892086330934 73.9417669172934  L 43.0305755395683 74.678157894737  L 42.4797841726619 75.4145488721806  L 42.4797841726619 77.0683082706768  L 42.2920143884893 77.2492857142859  L 41.1904316546762 79.2712406015038  L 41.0026618705036 79.2712406015038  L 40.6333812949639 79.4584586466167  L 39.1562589928058 79.6394360902258  L 37.6791366906475 80.0076315789474  L 36.5775539568344 82.0295864661656  L 36.7590647482014 82.3977819548874  L 42.8428057553957 81.6613909774437  L 43.9506474820145 80.7440225563911  L 45.978561151079 75.4145488721806  L 59.6294244604316 61.4356015037595  L 59.9987050359713 61.4356015037595  L 62.946690647482 59.9628195488723  L 63.1282014388488 59.7818421052632  L 63.1282014388488 59.9628195488723  L 65.5253956834531 59.9628195488723  L 67.9225899280575 59.4136466165415  L 70.5012949640285 58.3090601503761  L 72.3476978417265 56.287105263158  L 75.2956834532372 48.1992857142859  L 75.2956834532372 48.0120676691731  L 86.7308633093523 36.0613157894738  L 86.7308633093523 35.8803383458649  L 85.9923021582731 29.4462781954888  C 85.4352517985608 29.2590601503761  84.6966906474819 28.8908646616542  84.3274100719422 28.3416917293234  L 83.9581294964026 27.9734962406015  L 83.9581294964026 28.1544736842108  L 82.1117266187047 28.3416917293235  C 81.1916546762587 27.9734962406017  80.6346043165465 27.6053007518798  79.9023021582732 26.6879323308272  L 79.3515107913668 25.5833458646619  L 79.3515107913668 25.3961278195491  L 79.1637410071939 25.21515037594  L 79.1637410071939 15.2863533834587  C 78.0621582733811 14.9181578947371  76.9543165467624 14.1817669172934  75.6587050359711 12.8962030075189  L 73.2615107913667 10.3250751879701  L 71.0520863309351 7.19853383458667  C 70.6828057553956 6.46214285714302  70.6828057553956 5.35755639097761  70.8643165467624 3.70379699248133  L 71.0520863309351 2.7801879699249  L 69.7627338129496 1.12642857142873  L 69.574964028777 2.59921052631603  L 67.9163309352516 5.72575187969949  L 67.3655395683452 5.72575187969949  C 66.0699280575537 5.72575187969949  64.5990647482012 5.54477443609028  63.4912230215824 4.98936090225584  C 62.3833812949637 4.62116541353407  61.8325899280572 3.70379699248133  61.8325899280572 2.59921052631603  L 61.8325899280572 1.86281954887227  L 60.9125179856112 1.86281954887227  L 57.4137410071939 2.78018796992501  L 54.8287769784171 0.209060150376104  L 53.9087050359709 0.0280827067670089  L 52.9823741007191 0.945451127819638  L 54.0902158273378 2.78018796992501  L 54.4594964028773 3.33560150375956  L 52.6130935251795 7.19853383458667  L 52.4253237410069 7.19853383458667  L 52.4253237410069 7.37951127819565  L 52.24381294964 7.37951127819565  L 48.9265467625896 11.0614661654137  L 48.7387769784168 11.2424436090226  L 48.3694964028773 11.2424436090226  L 43.2058273381292 11.7916165413535  Z " stroke-width="4" stroke="#00ccff" fill="none" stroke-opacity="0.498039215686275" transform="matrix(1 0 0 1 1165 392 )" mask="url(#clip524)" />
  </g>
</svg>