<?xml version="1.0" encoding="utf-8"?>
<svg version="1.1" xmlns:xlink="http://www.w3.org/1999/xlink" width="19px" height="28px" xmlns="http://www.w3.org/2000/svg">
  <defs>
    <mask fill="white" id="clip521">
      <path d="M 12.2803333333336 4.47045454545457  C 11.9193333333333 2.79045454545462  11.3556666666666 1.66409090909087  10.982 0.913181818181897  L 10.4246666666666 0.537727272727352  C 9.49366666666663 0.537727272727352  8.55633333333321 1.47954545454547  7.6253333333334 3.53500000000008  L 7.06166666666672 3.15954545454554  L 6.87800000000004 3.34409090909105  L 7.06166666666672 3.52863636363645  L 5.38333333333333 5.21500000000003  L 4.63599999999997 5.59045454545458  L 2.58400000000017 6.71681818181821  L 2.39400000000012 8.02772727272736  C 2.58400000000017 10.0895454545455  2.0203333333335 11.5913636363637  1.08933333333346 12.1513636363636  L 0.342000000000098 14.4040909090909  C 0.152000000000271 14.9640909090909  -0.0316666666665242 16.4659090909092  0.152000000000271 18.5277272727274  L 1.27300000000014 24.1531818181819  C 1.64666666666676 24.904090909091  2.5776666666668 25.8395454545455  4.44600000000014 26.5904545454546  L 8.73366666666686 27.7168181818182  C 9.84833333333358 27.7168181818182  11.3430000000002 27.1568181818182  13.0276666666667 26.0304545454546  L 11.906666666667 23.9686363636364  L 11.906666666667 23.5995454545455  L 11.906666666667 23.4086363636364  L 12.2803333333336 21.7222727272728  L 12.2803333333336 21.5313636363637  L 14.3323333333336 17.7831818181819  L 17.8790000000001 17.7831818181819  L 18.8163333333335 17.5986363636365  C 18.4426666666669 16.4722727272728  17.3216666666668 14.4104545454546  15.2696666666668 11.7822727272728  L 13.9586666666668 9.90500000000009  C 13.2113333333336 8.40954545454554  12.4703333333334 6.71681818181821  12.2803333333336 4.47045454545457  Z " fill-rule="evenodd" />
    </mask>
  </defs>
  <g transform="matrix(1 0 0 1 -1141 -456 )">
    <path d="M 12.2803333333336 4.47045454545457  C 11.9193333333333 2.79045454545462  11.3556666666666 1.66409090909087  10.982 0.913181818181897  L 10.4246666666666 0.537727272727352  C 9.49366666666663 0.537727272727352  8.55633333333321 1.47954545454547  7.6253333333334 3.53500000000008  L 7.06166666666672 3.15954545454554  L 6.87800000000004 3.34409090909105  L 7.06166666666672 3.52863636363645  L 5.38333333333333 5.21500000000003  L 4.63599999999997 5.59045454545458  L 2.58400000000017 6.71681818181821  L 2.39400000000012 8.02772727272736  C 2.58400000000017 10.0895454545455  2.0203333333335 11.5913636363637  1.08933333333346 12.1513636363636  L 0.342000000000098 14.4040909090909  C 0.152000000000271 14.9640909090909  -0.0316666666665242 16.4659090909092  0.152000000000271 18.5277272727274  L 1.27300000000014 24.1531818181819  C 1.64666666666676 24.904090909091  2.5776666666668 25.8395454545455  4.44600000000014 26.5904545454546  L 8.73366666666686 27.7168181818182  C 9.84833333333358 27.7168181818182  11.3430000000002 27.1568181818182  13.0276666666667 26.0304545454546  L 11.906666666667 23.9686363636364  L 11.906666666667 23.5995454545455  L 11.906666666667 23.4086363636364  L 12.2803333333336 21.7222727272728  L 12.2803333333336 21.5313636363637  L 14.3323333333336 17.7831818181819  L 17.8790000000001 17.7831818181819  L 18.8163333333335 17.5986363636365  C 18.4426666666669 16.4722727272728  17.3216666666668 14.4104545454546  15.2696666666668 11.7822727272728  L 13.9586666666668 9.90500000000009  C 13.2113333333336 8.40954545454554  12.4703333333334 6.71681818181821  12.2803333333336 4.47045454545457  Z " fill-rule="nonzero" fill="#00ccff" stroke="none" fill-opacity="0.498039215686275" transform="matrix(1 0 0 1 1141 456 )" />
    <path d="M 12.2803333333336 4.47045454545457  C 11.9193333333333 2.79045454545462  11.3556666666666 1.66409090909087  10.982 0.913181818181897  L 10.4246666666666 0.537727272727352  C 9.49366666666663 0.537727272727352  8.55633333333321 1.47954545454547  7.6253333333334 3.53500000000008  L 7.06166666666672 3.15954545454554  L 6.87800000000004 3.34409090909105  L 7.06166666666672 3.52863636363645  L 5.38333333333333 5.21500000000003  L 4.63599999999997 5.59045454545458  L 2.58400000000017 6.71681818181821  L 2.39400000000012 8.02772727272736  C 2.58400000000017 10.0895454545455  2.0203333333335 11.5913636363637  1.08933333333346 12.1513636363636  L 0.342000000000098 14.4040909090909  C 0.152000000000271 14.9640909090909  -0.0316666666665242 16.4659090909092  0.152000000000271 18.5277272727274  L 1.27300000000014 24.1531818181819  C 1.64666666666676 24.904090909091  2.5776666666668 25.8395454545455  4.44600000000014 26.5904545454546  L 8.73366666666686 27.7168181818182  C 9.84833333333358 27.7168181818182  11.3430000000002 27.1568181818182  13.0276666666667 26.0304545454546  L 11.906666666667 23.9686363636364  L 11.906666666667 23.5995454545455  L 11.906666666667 23.4086363636364  L 12.2803333333336 21.7222727272728  L 12.2803333333336 21.5313636363637  L 14.3323333333336 17.7831818181819  L 17.8790000000001 17.7831818181819  L 18.8163333333335 17.5986363636365  C 18.4426666666669 16.4722727272728  17.3216666666668 14.4104545454546  15.2696666666668 11.7822727272728  L 13.9586666666668 9.90500000000009  C 13.2113333333336 8.40954545454554  12.4703333333334 6.71681818181821  12.2803333333336 4.47045454545457  Z " stroke-width="4" stroke="#00ccff" fill="none" stroke-opacity="0.498039215686275" transform="matrix(1 0 0 1 1141 456 )" mask="url(#clip521)" />
  </g>
</svg>