<?xml version="1.0" encoding="utf-8"?>
<svg version="1.1" xmlns:xlink="http://www.w3.org/1999/xlink" width="25px" height="59px" xmlns="http://www.w3.org/2000/svg">
  <defs>
    <mask fill="white" id="clip537">
      <path d="M 24.8062500000001 2.6550000000002  L 18.9000000000001 0.0900526315789421  C 13.0125 4.30078947368418  8.77499999999998 9.60457894736851  6.01250000000016 16.0138421052632  C 3.61875000000009 21.503947368421  1.78125000000011 24.249  0.487500000000068 24.9818421052632  L 1.78125000000011 35.0428947368421  L 1.78125000000011 35.2230000000001  L 0.862500000000068 42.1787894736842  C 0.493750000000091 44.3773157894736  0.862500000000068 45.8367894736842  1.41875000000016 46.2032105263158  L 8.96875000000011 51.1467894736843  L 9.15625000000011 51.1467894736843  L 9.34375000000011 51.6933157894738  C 9.71249999999998 53.3391052631579  10.8124999999999 54.8047894736843  12.2875000000001 56.6368947368421  C 13.0250000000002 57.7361578947369  13.9437500000001 58.2826842105264  14.68125 58.6491052631579  L 15.7875 46.5696315789475  L 15.7875 46.2032105263158  L 21.1249999999999 33.397105263158  L 22.9687499999999 18.2123684210527  L 22.9687499999999 18.026052631579  L 23.1499999999999 17.8459473684212  L 24.8062500000001 13.8153157894737  L 23.5187500000001 10.3374210526316  L 23.5187500000001 10.1573157894738  L 23.3375000000001 10.1573157894738  L 22.9687500000001 5.40005263157911  L 23.1500000000001 5.21994736842112  L 23.3312500000001 5.03363157894751  L 24.2500000000001 3.9343684210528  L 24.8062500000001 2.6550000000002  Z " fill-rule="evenodd" />
    </mask>
  </defs>
  <g transform="matrix(1 0 0 1 -1222 -706 )">
    <path d="M 24.8062500000001 2.6550000000002  L 18.9000000000001 0.0900526315789421  C 13.0125 4.30078947368418  8.77499999999998 9.60457894736851  6.01250000000016 16.0138421052632  C 3.61875000000009 21.503947368421  1.78125000000011 24.249  0.487500000000068 24.9818421052632  L 1.78125000000011 35.0428947368421  L 1.78125000000011 35.2230000000001  L 0.862500000000068 42.1787894736842  C 0.493750000000091 44.3773157894736  0.862500000000068 45.8367894736842  1.41875000000016 46.2032105263158  L 8.96875000000011 51.1467894736843  L 9.15625000000011 51.1467894736843  L 9.34375000000011 51.6933157894738  C 9.71249999999998 53.3391052631579  10.8124999999999 54.8047894736843  12.2875000000001 56.6368947368421  C 13.0250000000002 57.7361578947369  13.9437500000001 58.2826842105264  14.68125 58.6491052631579  L 15.7875 46.5696315789475  L 15.7875 46.2032105263158  L 21.1249999999999 33.397105263158  L 22.9687499999999 18.2123684210527  L 22.9687499999999 18.026052631579  L 23.1499999999999 17.8459473684212  L 24.8062500000001 13.8153157894737  L 23.5187500000001 10.3374210526316  L 23.5187500000001 10.1573157894738  L 23.3375000000001 10.1573157894738  L 22.9687500000001 5.40005263157911  L 23.1500000000001 5.21994736842112  L 23.3312500000001 5.03363157894751  L 24.2500000000001 3.9343684210528  L 24.8062500000001 2.6550000000002  Z " fill-rule="nonzero" fill="#00ccff" stroke="none" fill-opacity="0.498039215686275" transform="matrix(1 0 0 1 1222 706 )" />
    <path d="M 24.8062500000001 2.6550000000002  L 18.9000000000001 0.0900526315789421  C 13.0125 4.30078947368418  8.77499999999998 9.60457894736851  6.01250000000016 16.0138421052632  C 3.61875000000009 21.503947368421  1.78125000000011 24.249  0.487500000000068 24.9818421052632  L 1.78125000000011 35.0428947368421  L 1.78125000000011 35.2230000000001  L 0.862500000000068 42.1787894736842  C 0.493750000000091 44.3773157894736  0.862500000000068 45.8367894736842  1.41875000000016 46.2032105263158  L 8.96875000000011 51.1467894736843  L 9.15625000000011 51.1467894736843  L 9.34375000000011 51.6933157894738  C 9.71249999999998 53.3391052631579  10.8124999999999 54.8047894736843  12.2875000000001 56.6368947368421  C 13.0250000000002 57.7361578947369  13.9437500000001 58.2826842105264  14.68125 58.6491052631579  L 15.7875 46.5696315789475  L 15.7875 46.2032105263158  L 21.1249999999999 33.397105263158  L 22.9687499999999 18.2123684210527  L 22.9687499999999 18.026052631579  L 23.1499999999999 17.8459473684212  L 24.8062500000001 13.8153157894737  L 23.5187500000001 10.3374210526316  L 23.5187500000001 10.1573157894738  L 23.3375000000001 10.1573157894738  L 22.9687500000001 5.40005263157911  L 23.1500000000001 5.21994736842112  L 23.3312500000001 5.03363157894751  L 24.2500000000001 3.9343684210528  L 24.8062500000001 2.6550000000002  Z " stroke-width="4" stroke="#00ccff" fill="none" stroke-opacity="0.498039215686275" transform="matrix(1 0 0 1 1222 706 )" mask="url(#clip537)" />
  </g>
</svg>