<?xml version="1.0" encoding="utf-8"?>
<svg version="1.1" xmlns:xlink="http://www.w3.org/1999/xlink" width="123px" height="84px" xmlns="http://www.w3.org/2000/svg">
  <defs>
    <mask fill="white" id="clip527">
      <path d="M 27.8365151515152 9.60400000000016  L 24.1713636363636 3.88577777777778  L 23.4383333333333 0.0342222222221835  L 21.6119696969697 1.13555555555558  L 21.425606060606 1.13555555555558  L 17.0336363636363 2.78444444444449  L 16.8472727272729 2.41733333333332  L 16.1142424242423 2.23066666666671  L 16.1142424242423 4.24666666666667  L 15.9278787878789 4.43333333333328  L 13.7350000000001 7.73111111111109  L 13.5486363636364 7.73111111111109  L 13.5486363636364 7.91777777777781  L 13.3684848484851 7.91777777777781  L 10.0698484848486 10.6680000000001  L 9.70333333333338 10.6680000000001  L 9.70333333333338 11.0351111111112  L 9.15045454545475 10.6680000000001  C 6.95757575757591 9.75333333333333  5.49151515151527 8.65200000000004  5.12500000000023 7.73111111111109  C 4.75848484848495 7.36400000000003  4.57833333333338 7.36400000000003  4.21181818181844 7.18355555555559  L 1.83257575757591 7.55066666666676  L 0.366515151515273 9.01911111111122  L 4.21181818181844 12.316888888889  L 7.32409090909096 13.6048888888889  L 7.50424242424253 13.7915555555556  L 7.684393939394 13.7915555555556  L 7.87075757575769 14.1586666666667  L 7.87075757575769 14.3453333333334  L 8.42363636363643 18.0102222222223  L 8.60378787878801 18.0102222222223  L 8.60378787878801 23.6911111111111  L 9.33681818181822 26.9888888888891  L 11.5296969696971 32.1222222222223  L 14.0890909090908 34.5053333333334  L 16.1018181818181 33.0368888888889  L 17.5678787878788 31.2013333333334  L 17.5678787878788 31.0146666666668  L 17.7480303030302 31.0146666666668  L 20.3136363636363 27.8973333333334  L 22.5065151515151 29.9133333333334  L 22.5065151515151 30.0937777777779  L 22.5065151515151 30.2742222222223  L 24.7056060606059 34.492888888889  L 27.4513636363636 35.5880000000001  L 28.9174242424241 39.9871111111112  L 28.9174242424241 40.1737777777779  L 28.9174242424241 40.3604444444445  L 28.7310606060606 44.3924444444446  L 28.7310606060606 44.5791111111112  L 28.550909090909 44.5791111111112  L 27.4513636363636 48.2502222222223  L 29.4640909090908 50.0795555555557  L 31.6569696969697 48.9782222222223  L 33.8560606060604 46.7817777777778  L 34.4027272727271 47.1488888888889  L 36.2353030303029 47.6964444444445  L 38.4343939393939 49.7124444444446  L 40.8136363636363 49.164888888889  C 42.6462121212121 48.6111111111112  43.5593939393939 49.164888888889  44.1060606060604 50.4466666666667  L 44.1060606060604 52.0955555555556  L 44.4725757575757 52.2822222222222  L 47.0319696969694 53.0164444444446  L 48.1315151515149 50.6333333333334  L 48.1315151515149 49.7186666666668  C 48.1315151515149 48.9844444444445  48.3178787878784 48.2564444444445  48.8645454545452 48.0697777777779  L 50.3306060606056 48.2564444444446  C 52.3433333333329 49.1711111111113  53.2565151515149 50.452888888889  53.2565151515149 51.9213333333335  L 53.0701515151513 53.2031111111113  L 53.0701515151513 55.3995555555556  L 55.0828787878786 58.3364444444446  L 57.4621212121208 60.9000000000001  C 58.1951515151512 61.8146666666668  59.1083333333331 62.1817777777779  60.027727272727 62.548888888889  L 60.3942424242422 62.548888888889  C 60.9471212121211 62.9160000000001  61.3136363636361 63.8306666666667  61.3136363636361 65.8528888888891  L 61.3136363636361 74.1035555555557  C 61.6801515151511 74.8377777777779  62.226818181818 75.3853333333335  62.7734848484845 75.5720000000001  L 63.1399999999998 75.5720000000001  C 64.239545454545 75.0244444444446  64.9663636363633 75.2048888888891  65.8857575757572 76.1257777777778  L 66.432424242424 76.492888888889  C 67.3456060606059 76.6795555555557  68.0786363636363 77.4137777777779  68.2649999999998 78.8760000000001  L 68.6315151515149 83.4617777777778  L 72.8371212121208 74.8440000000001  C 74.1168181818178 70.2582222222222  75.5828787878786 67.5142222222223  77.5956060606059 67.1471111111111  C 79.2480303030302 66.5995555555555  81.807424242424 67.5142222222223  85.0998484848483 69.3497777777778  L 96.9960606060604 70.2644444444445  L 97.3625757575755 67.6946666666668  L 91.8710606060604 62.3746666666667  C 89.3116666666665 60.9062222222223  88.2121212121208 59.8111111111112  88.5786363636363 59.0768888888889  L 92.7904545454543 59.2635555555556  C 96.6357575757575 60.5515555555556  100.294696969697 58.348888888889  103.773484848485 52.1142222222222  L 103.959848484848 52.1142222222222  L 107.985303030303 48.2688888888889  L 108.538181818182 39.8315555555556  L 108.538181818182 38.9168888888889  L 109.084848484848 38.9168888888889  L 109.451363636364 38.9168888888889  L 112.563636363636 38.1826666666667  L 113.110303030303 38.1826666666667  L 113.476818181818 38.3693333333333  L 113.476818181818 38.556  L 119.881515151515 45.3382222222223  L 121.714090909091 44.604  L 122.080606060606 43.5026666666668  L 118.601818181818 40.2048888888889  L 118.055151515151 39.8377777777779  L 117.688636363636 39.2902222222224  L 122.993787878788 36.172888888889  L 122.633484848485 28.4760000000001  L 120.434393939394 28.836888888889  L 120.24803030303 28.836888888889  L 117.322121212121 27.3746666666667  C 116.222575757576 27.1880000000001  114.762727272727 26.4537777777779  112.563636363636 25.172  C 111.464090909091 24.6244444444445  110.73106060606 24.0706666666667  110.73106060606 23.3364444444445  L 110.73106060606 23.5231111111112  C 110.73106060606 24.2573333333335  110.544696969697 24.6244444444446  110.178181818182 24.804888888889  C 109.625303030303 25.1720000000001  108.898484848485 25.3524444444446  107.618787878788 25.3524444444446  L 107.432424242424 25.3524444444446  L 107.252272727273 25.1657777777779  L 107.065909090909 25.1657777777779  L 104.506515151515 23.3302222222223  L 102.307424242424 25.1657777777779  C 101.207878787879 26.0804444444445  100.474848484849 26.8146666666668  100.474848484849 27.548888888889  L 101.574393939394 29.932  C 102.127272727273 30.6600000000001  102.127272727273 31.0271111111113  101.940909090909 31.5808888888889  C 101.574393939394 32.1284444444445  100.661212121212 32.6822222222223  99.3815151515151 32.8626666666668  L 98.2819696969697 33.4164444444446  C 97.0022727272728 33.7835555555557  95.9027272727274 33.596888888889  95.1696969696969 32.6822222222223  L 94.8031818181819 32.1346666666668  L 90.0446969696969 27.1880000000001  C 87.8456060606062 26.4537777777779  86.5659090909091 25.5391111111112  86.0192424242424 24.4377777777779  C 85.6527272727274 23.8902222222223  85.4663636363636 23.3364444444445  85.6527272727274 22.9693333333335  C 85.4663636363637 21.3204444444445  85.0998484848485 20.2191111111111  84.7333333333335 19.6715555555556  L 83.8201515151515 20.2191111111111  L 83.6400000000001 20.5862222222223  C 83.6400000000001 21.1337777777779  83.8201515151515 21.6875555555556  84.3730303030304 22.4217777777778  L 84.559393939394 22.788888888889  L 84.7395454545456 22.9693333333335  L 84.559393939394 23.3364444444445  L 82.0000000000002 27.5551111111112  L 77.788181818182 26.6404444444446  L 76.8750000000002 26.0866666666667  L 76.8750000000002 25.5391111111112  C 77.2353030303032 24.804888888889  77.2353030303032 23.8902222222223  76.8750000000002 22.9755555555557  L 76.3221212121214 21.5071111111112  L 72.8433333333336 18.9435555555557  L 72.663181818182 18.756888888889  C 72.3028787878789 19.3044444444446  71.9363636363637 19.3044444444446  71.5698484848486 19.4911111111112  L 68.2774242424243 19.1240000000001  C 67.1778787878789 18.9435555555557  66.4448484848486 18.756888888889  66.0845454545457 18.0288888888889  C 65.8981818181821 17.6617777777778  65.8981818181821 16.9275555555557  66.2646969696971 16.0128888888889  L 66.4510606060608 15.4653333333334  L 64.9850000000002 12.8955555555556  L 58.5803030303033 13.2626666666667  C 58.7604545454548 14.1773333333334  58.5803030303033 14.7311111111112  58.2137878787883 15.4653333333334  C 58.0274242424246 16.0128888888889  57.2943939393944 16.1995555555557  56.7477272727277 16.1995555555557  C 55.8283333333336 16.5666666666667  54.7287878787881 16.1995555555557  53.8156060606063 15.2786666666668  L 53.8156060606063 15.0982222222224  L 53.635454545455 15.0982222222224  C 52.1693939393944 13.4493333333335  51.6227272727275 12.1613333333335  51.6227272727275 11.0662222222223  L 50.3430303030307 9.23066666666671  L 48.510454545455 10.5124444444446  C 46.8642424242428 11.4271111111112  45.7646969696973 11.4271111111112  45.2118181818186 10.6991111111112  L 44.4850000000002 10.5124444444446  L 42.6524242424246 10.6991111111112  L 37.7137878787883 12.3480000000001  C 36.6142424242428 13.0822222222224  35.701060606061 13.268888888889  34.9680303030306 13.268888888889  L 34.4213636363637 13.268888888889  C 32.588787878788 13.268888888889  31.4892424242425 12.7151111111112  30.7624242424245 11.9871111111112  L 27.8365151515152 9.60400000000016  Z " fill-rule="evenodd" />
    </mask>
  </defs>
  <g transform="matrix(1 0 0 1 -1184 -343 )">
    <path d="M 27.8365151515152 9.60400000000016  L 24.1713636363636 3.88577777777778  L 23.4383333333333 0.0342222222221835  L 21.6119696969697 1.13555555555558  L 21.425606060606 1.13555555555558  L 17.0336363636363 2.78444444444449  L 16.8472727272729 2.41733333333332  L 16.1142424242423 2.23066666666671  L 16.1142424242423 4.24666666666667  L 15.9278787878789 4.43333333333328  L 13.7350000000001 7.73111111111109  L 13.5486363636364 7.73111111111109  L 13.5486363636364 7.91777777777781  L 13.3684848484851 7.91777777777781  L 10.0698484848486 10.6680000000001  L 9.70333333333338 10.6680000000001  L 9.70333333333338 11.0351111111112  L 9.15045454545475 10.6680000000001  C 6.95757575757591 9.75333333333333  5.49151515151527 8.65200000000004  5.12500000000023 7.73111111111109  C 4.75848484848495 7.36400000000003  4.57833333333338 7.36400000000003  4.21181818181844 7.18355555555559  L 1.83257575757591 7.55066666666676  L 0.366515151515273 9.01911111111122  L 4.21181818181844 12.316888888889  L 7.32409090909096 13.6048888888889  L 7.50424242424253 13.7915555555556  L 7.684393939394 13.7915555555556  L 7.87075757575769 14.1586666666667  L 7.87075757575769 14.3453333333334  L 8.42363636363643 18.0102222222223  L 8.60378787878801 18.0102222222223  L 8.60378787878801 23.6911111111111  L 9.33681818181822 26.9888888888891  L 11.5296969696971 32.1222222222223  L 14.0890909090908 34.5053333333334  L 16.1018181818181 33.0368888888889  L 17.5678787878788 31.2013333333334  L 17.5678787878788 31.0146666666668  L 17.7480303030302 31.0146666666668  L 20.3136363636363 27.8973333333334  L 22.5065151515151 29.9133333333334  L 22.5065151515151 30.0937777777779  L 22.5065151515151 30.2742222222223  L 24.7056060606059 34.492888888889  L 27.4513636363636 35.5880000000001  L 28.9174242424241 39.9871111111112  L 28.9174242424241 40.1737777777779  L 28.9174242424241 40.3604444444445  L 28.7310606060606 44.3924444444446  L 28.7310606060606 44.5791111111112  L 28.550909090909 44.5791111111112  L 27.4513636363636 48.2502222222223  L 29.4640909090908 50.0795555555557  L 31.6569696969697 48.9782222222223  L 33.8560606060604 46.7817777777778  L 34.4027272727271 47.1488888888889  L 36.2353030303029 47.6964444444445  L 38.4343939393939 49.7124444444446  L 40.8136363636363 49.164888888889  C 42.6462121212121 48.6111111111112  43.5593939393939 49.164888888889  44.1060606060604 50.4466666666667  L 44.1060606060604 52.0955555555556  L 44.4725757575757 52.2822222222222  L 47.0319696969694 53.0164444444446  L 48.1315151515149 50.6333333333334  L 48.1315151515149 49.7186666666668  C 48.1315151515149 48.9844444444445  48.3178787878784 48.2564444444445  48.8645454545452 48.0697777777779  L 50.3306060606056 48.2564444444446  C 52.3433333333329 49.1711111111113  53.2565151515149 50.452888888889  53.2565151515149 51.9213333333335  L 53.0701515151513 53.2031111111113  L 53.0701515151513 55.3995555555556  L 55.0828787878786 58.3364444444446  L 57.4621212121208 60.9000000000001  C 58.1951515151512 61.8146666666668  59.1083333333331 62.1817777777779  60.027727272727 62.548888888889  L 60.3942424242422 62.548888888889  C 60.9471212121211 62.9160000000001  61.3136363636361 63.8306666666667  61.3136363636361 65.8528888888891  L 61.3136363636361 74.1035555555557  C 61.6801515151511 74.8377777777779  62.226818181818 75.3853333333335  62.7734848484845 75.5720000000001  L 63.1399999999998 75.5720000000001  C 64.239545454545 75.0244444444446  64.9663636363633 75.2048888888891  65.8857575757572 76.1257777777778  L 66.432424242424 76.492888888889  C 67.3456060606059 76.6795555555557  68.0786363636363 77.4137777777779  68.2649999999998 78.8760000000001  L 68.6315151515149 83.4617777777778  L 72.8371212121208 74.8440000000001  C 74.1168181818178 70.2582222222222  75.5828787878786 67.5142222222223  77.5956060606059 67.1471111111111  C 79.2480303030302 66.5995555555555  81.807424242424 67.5142222222223  85.0998484848483 69.3497777777778  L 96.9960606060604 70.2644444444445  L 97.3625757575755 67.6946666666668  L 91.8710606060604 62.3746666666667  C 89.3116666666665 60.9062222222223  88.2121212121208 59.8111111111112  88.5786363636363 59.0768888888889  L 92.7904545454543 59.2635555555556  C 96.6357575757575 60.5515555555556  100.294696969697 58.348888888889  103.773484848485 52.1142222222222  L 103.959848484848 52.1142222222222  L 107.985303030303 48.2688888888889  L 108.538181818182 39.8315555555556  L 108.538181818182 38.9168888888889  L 109.084848484848 38.9168888888889  L 109.451363636364 38.9168888888889  L 112.563636363636 38.1826666666667  L 113.110303030303 38.1826666666667  L 113.476818181818 38.3693333333333  L 113.476818181818 38.556  L 119.881515151515 45.3382222222223  L 121.714090909091 44.604  L 122.080606060606 43.5026666666668  L 118.601818181818 40.2048888888889  L 118.055151515151 39.8377777777779  L 117.688636363636 39.2902222222224  L 122.993787878788 36.172888888889  L 122.633484848485 28.4760000000001  L 120.434393939394 28.836888888889  L 120.24803030303 28.836888888889  L 117.322121212121 27.3746666666667  C 116.222575757576 27.1880000000001  114.762727272727 26.4537777777779  112.563636363636 25.172  C 111.464090909091 24.6244444444445  110.73106060606 24.0706666666667  110.73106060606 23.3364444444445  L 110.73106060606 23.5231111111112  C 110.73106060606 24.2573333333335  110.544696969697 24.6244444444446  110.178181818182 24.804888888889  C 109.625303030303 25.1720000000001  108.898484848485 25.3524444444446  107.618787878788 25.3524444444446  L 107.432424242424 25.3524444444446  L 107.252272727273 25.1657777777779  L 107.065909090909 25.1657777777779  L 104.506515151515 23.3302222222223  L 102.307424242424 25.1657777777779  C 101.207878787879 26.0804444444445  100.474848484849 26.8146666666668  100.474848484849 27.548888888889  L 101.574393939394 29.932  C 102.127272727273 30.6600000000001  102.127272727273 31.0271111111113  101.940909090909 31.5808888888889  C 101.574393939394 32.1284444444445  100.661212121212 32.6822222222223  99.3815151515151 32.8626666666668  L 98.2819696969697 33.4164444444446  C 97.0022727272728 33.7835555555557  95.9027272727274 33.596888888889  95.1696969696969 32.6822222222223  L 94.8031818181819 32.1346666666668  L 90.0446969696969 27.1880000000001  C 87.8456060606062 26.4537777777779  86.5659090909091 25.5391111111112  86.0192424242424 24.4377777777779  C 85.6527272727274 23.8902222222223  85.4663636363636 23.3364444444445  85.6527272727274 22.9693333333335  C 85.4663636363637 21.3204444444445  85.0998484848485 20.2191111111111  84.7333333333335 19.6715555555556  L 83.8201515151515 20.2191111111111  L 83.6400000000001 20.5862222222223  C 83.6400000000001 21.1337777777779  83.8201515151515 21.6875555555556  84.3730303030304 22.4217777777778  L 84.559393939394 22.788888888889  L 84.7395454545456 22.9693333333335  L 84.559393939394 23.3364444444445  L 82.0000000000002 27.5551111111112  L 77.788181818182 26.6404444444446  L 76.8750000000002 26.0866666666667  L 76.8750000000002 25.5391111111112  C 77.2353030303032 24.804888888889  77.2353030303032 23.8902222222223  76.8750000000002 22.9755555555557  L 76.3221212121214 21.5071111111112  L 72.8433333333336 18.9435555555557  L 72.663181818182 18.756888888889  C 72.3028787878789 19.3044444444446  71.9363636363637 19.3044444444446  71.5698484848486 19.4911111111112  L 68.2774242424243 19.1240000000001  C 67.1778787878789 18.9435555555557  66.4448484848486 18.756888888889  66.0845454545457 18.0288888888889  C 65.8981818181821 17.6617777777778  65.8981818181821 16.9275555555557  66.2646969696971 16.0128888888889  L 66.4510606060608 15.4653333333334  L 64.9850000000002 12.8955555555556  L 58.5803030303033 13.2626666666667  C 58.7604545454548 14.1773333333334  58.5803030303033 14.7311111111112  58.2137878787883 15.4653333333334  C 58.0274242424246 16.0128888888889  57.2943939393944 16.1995555555557  56.7477272727277 16.1995555555557  C 55.8283333333336 16.5666666666667  54.7287878787881 16.1995555555557  53.8156060606063 15.2786666666668  L 53.8156060606063 15.0982222222224  L 53.635454545455 15.0982222222224  C 52.1693939393944 13.4493333333335  51.6227272727275 12.1613333333335  51.6227272727275 11.0662222222223  L 50.3430303030307 9.23066666666671  L 48.510454545455 10.5124444444446  C 46.8642424242428 11.4271111111112  45.7646969696973 11.4271111111112  45.2118181818186 10.6991111111112  L 44.4850000000002 10.5124444444446  L 42.6524242424246 10.6991111111112  L 37.7137878787883 12.3480000000001  C 36.6142424242428 13.0822222222224  35.701060606061 13.268888888889  34.9680303030306 13.268888888889  L 34.4213636363637 13.268888888889  C 32.588787878788 13.268888888889  31.4892424242425 12.7151111111112  30.7624242424245 11.9871111111112  L 27.8365151515152 9.60400000000016  Z " fill-rule="nonzero" fill="#00ccff" stroke="none" fill-opacity="0.498039215686275" transform="matrix(1 0 0 1 1184 343 )" />
    <path d="M 27.8365151515152 9.60400000000016  L 24.1713636363636 3.88577777777778  L 23.4383333333333 0.0342222222221835  L 21.6119696969697 1.13555555555558  L 21.425606060606 1.13555555555558  L 17.0336363636363 2.78444444444449  L 16.8472727272729 2.41733333333332  L 16.1142424242423 2.23066666666671  L 16.1142424242423 4.24666666666667  L 15.9278787878789 4.43333333333328  L 13.7350000000001 7.73111111111109  L 13.5486363636364 7.73111111111109  L 13.5486363636364 7.91777777777781  L 13.3684848484851 7.91777777777781  L 10.0698484848486 10.6680000000001  L 9.70333333333338 10.6680000000001  L 9.70333333333338 11.0351111111112  L 9.15045454545475 10.6680000000001  C 6.95757575757591 9.75333333333333  5.49151515151527 8.65200000000004  5.12500000000023 7.73111111111109  C 4.75848484848495 7.36400000000003  4.57833333333338 7.36400000000003  4.21181818181844 7.18355555555559  L 1.83257575757591 7.55066666666676  L 0.366515151515273 9.01911111111122  L 4.21181818181844 12.316888888889  L 7.32409090909096 13.6048888888889  L 7.50424242424253 13.7915555555556  L 7.684393939394 13.7915555555556  L 7.87075757575769 14.1586666666667  L 7.87075757575769 14.3453333333334  L 8.42363636363643 18.0102222222223  L 8.60378787878801 18.0102222222223  L 8.60378787878801 23.6911111111111  L 9.33681818181822 26.9888888888891  L 11.5296969696971 32.1222222222223  L 14.0890909090908 34.5053333333334  L 16.1018181818181 33.0368888888889  L 17.5678787878788 31.2013333333334  L 17.5678787878788 31.0146666666668  L 17.7480303030302 31.0146666666668  L 20.3136363636363 27.8973333333334  L 22.5065151515151 29.9133333333334  L 22.5065151515151 30.0937777777779  L 22.5065151515151 30.2742222222223  L 24.7056060606059 34.492888888889  L 27.4513636363636 35.5880000000001  L 28.9174242424241 39.9871111111112  L 28.9174242424241 40.1737777777779  L 28.9174242424241 40.3604444444445  L 28.7310606060606 44.3924444444446  L 28.7310606060606 44.5791111111112  L 28.550909090909 44.5791111111112  L 27.4513636363636 48.2502222222223  L 29.4640909090908 50.0795555555557  L 31.6569696969697 48.9782222222223  L 33.8560606060604 46.7817777777778  L 34.4027272727271 47.1488888888889  L 36.2353030303029 47.6964444444445  L 38.4343939393939 49.7124444444446  L 40.8136363636363 49.164888888889  C 42.6462121212121 48.6111111111112  43.5593939393939 49.164888888889  44.1060606060604 50.4466666666667  L 44.1060606060604 52.0955555555556  L 44.4725757575757 52.2822222222222  L 47.0319696969694 53.0164444444446  L 48.1315151515149 50.6333333333334  L 48.1315151515149 49.7186666666668  C 48.1315151515149 48.9844444444445  48.3178787878784 48.2564444444445  48.8645454545452 48.0697777777779  L 50.3306060606056 48.2564444444446  C 52.3433333333329 49.1711111111113  53.2565151515149 50.452888888889  53.2565151515149 51.9213333333335  L 53.0701515151513 53.2031111111113  L 53.0701515151513 55.3995555555556  L 55.0828787878786 58.3364444444446  L 57.4621212121208 60.9000000000001  C 58.1951515151512 61.8146666666668  59.1083333333331 62.1817777777779  60.027727272727 62.548888888889  L 60.3942424242422 62.548888888889  C 60.9471212121211 62.9160000000001  61.3136363636361 63.8306666666667  61.3136363636361 65.8528888888891  L 61.3136363636361 74.1035555555557  C 61.6801515151511 74.8377777777779  62.226818181818 75.3853333333335  62.7734848484845 75.5720000000001  L 63.1399999999998 75.5720000000001  C 64.239545454545 75.0244444444446  64.9663636363633 75.2048888888891  65.8857575757572 76.1257777777778  L 66.432424242424 76.492888888889  C 67.3456060606059 76.6795555555557  68.0786363636363 77.4137777777779  68.2649999999998 78.8760000000001  L 68.6315151515149 83.4617777777778  L 72.8371212121208 74.8440000000001  C 74.1168181818178 70.2582222222222  75.5828787878786 67.5142222222223  77.5956060606059 67.1471111111111  C 79.2480303030302 66.5995555555555  81.807424242424 67.5142222222223  85.0998484848483 69.3497777777778  L 96.9960606060604 70.2644444444445  L 97.3625757575755 67.6946666666668  L 91.8710606060604 62.3746666666667  C 89.3116666666665 60.9062222222223  88.2121212121208 59.8111111111112  88.5786363636363 59.0768888888889  L 92.7904545454543 59.2635555555556  C 96.6357575757575 60.5515555555556  100.294696969697 58.348888888889  103.773484848485 52.1142222222222  L 103.959848484848 52.1142222222222  L 107.985303030303 48.2688888888889  L 108.538181818182 39.8315555555556  L 108.538181818182 38.9168888888889  L 109.084848484848 38.9168888888889  L 109.451363636364 38.9168888888889  L 112.563636363636 38.1826666666667  L 113.110303030303 38.1826666666667  L 113.476818181818 38.3693333333333  L 113.476818181818 38.556  L 119.881515151515 45.3382222222223  L 121.714090909091 44.604  L 122.080606060606 43.5026666666668  L 118.601818181818 40.2048888888889  L 118.055151515151 39.8377777777779  L 117.688636363636 39.2902222222224  L 122.993787878788 36.172888888889  L 122.633484848485 28.4760000000001  L 120.434393939394 28.836888888889  L 120.24803030303 28.836888888889  L 117.322121212121 27.3746666666667  C 116.222575757576 27.1880000000001  114.762727272727 26.4537777777779  112.563636363636 25.172  C 111.464090909091 24.6244444444445  110.73106060606 24.0706666666667  110.73106060606 23.3364444444445  L 110.73106060606 23.5231111111112  C 110.73106060606 24.2573333333335  110.544696969697 24.6244444444446  110.178181818182 24.804888888889  C 109.625303030303 25.1720000000001  108.898484848485 25.3524444444446  107.618787878788 25.3524444444446  L 107.432424242424 25.3524444444446  L 107.252272727273 25.1657777777779  L 107.065909090909 25.1657777777779  L 104.506515151515 23.3302222222223  L 102.307424242424 25.1657777777779  C 101.207878787879 26.0804444444445  100.474848484849 26.8146666666668  100.474848484849 27.548888888889  L 101.574393939394 29.932  C 102.127272727273 30.6600000000001  102.127272727273 31.0271111111113  101.940909090909 31.5808888888889  C 101.574393939394 32.1284444444445  100.661212121212 32.6822222222223  99.3815151515151 32.8626666666668  L 98.2819696969697 33.4164444444446  C 97.0022727272728 33.7835555555557  95.9027272727274 33.596888888889  95.1696969696969 32.6822222222223  L 94.8031818181819 32.1346666666668  L 90.0446969696969 27.1880000000001  C 87.8456060606062 26.4537777777779  86.5659090909091 25.5391111111112  86.0192424242424 24.4377777777779  C 85.6527272727274 23.8902222222223  85.4663636363636 23.3364444444445  85.6527272727274 22.9693333333335  C 85.4663636363637 21.3204444444445  85.0998484848485 20.2191111111111  84.7333333333335 19.6715555555556  L 83.8201515151515 20.2191111111111  L 83.6400000000001 20.5862222222223  C 83.6400000000001 21.1337777777779  83.8201515151515 21.6875555555556  84.3730303030304 22.4217777777778  L 84.559393939394 22.788888888889  L 84.7395454545456 22.9693333333335  L 84.559393939394 23.3364444444445  L 82.0000000000002 27.5551111111112  L 77.788181818182 26.6404444444446  L 76.8750000000002 26.0866666666667  L 76.8750000000002 25.5391111111112  C 77.2353030303032 24.804888888889  77.2353030303032 23.8902222222223  76.8750000000002 22.9755555555557  L 76.3221212121214 21.5071111111112  L 72.8433333333336 18.9435555555557  L 72.663181818182 18.756888888889  C 72.3028787878789 19.3044444444446  71.9363636363637 19.3044444444446  71.5698484848486 19.4911111111112  L 68.2774242424243 19.1240000000001  C 67.1778787878789 18.9435555555557  66.4448484848486 18.756888888889  66.0845454545457 18.0288888888889  C 65.8981818181821 17.6617777777778  65.8981818181821 16.9275555555557  66.2646969696971 16.0128888888889  L 66.4510606060608 15.4653333333334  L 64.9850000000002 12.8955555555556  L 58.5803030303033 13.2626666666667  C 58.7604545454548 14.1773333333334  58.5803030303033 14.7311111111112  58.2137878787883 15.4653333333334  C 58.0274242424246 16.0128888888889  57.2943939393944 16.1995555555557  56.7477272727277 16.1995555555557  C 55.8283333333336 16.5666666666667  54.7287878787881 16.1995555555557  53.8156060606063 15.2786666666668  L 53.8156060606063 15.0982222222224  L 53.635454545455 15.0982222222224  C 52.1693939393944 13.4493333333335  51.6227272727275 12.1613333333335  51.6227272727275 11.0662222222223  L 50.3430303030307 9.23066666666671  L 48.510454545455 10.5124444444446  C 46.8642424242428 11.4271111111112  45.7646969696973 11.4271111111112  45.2118181818186 10.6991111111112  L 44.4850000000002 10.5124444444446  L 42.6524242424246 10.6991111111112  L 37.7137878787883 12.3480000000001  C 36.6142424242428 13.0822222222224  35.701060606061 13.268888888889  34.9680303030306 13.268888888889  L 34.4213636363637 13.268888888889  C 32.588787878788 13.268888888889  31.4892424242425 12.7151111111112  30.7624242424245 11.9871111111112  L 27.8365151515152 9.60400000000016  Z " stroke-width="4" stroke="#00ccff" fill="none" stroke-opacity="0.498039215686275" transform="matrix(1 0 0 1 1184 343 )" mask="url(#clip527)" />
  </g>
</svg>