<?xml version="1.0" encoding="utf-8"?>
<svg version="1.1" xmlns:xlink="http://www.w3.org/1999/xlink" width="177px" height="98px" xmlns="http://www.w3.org/2000/svg">
  <defs>
    <mask fill="white" id="clip542">
      <path d="M 6.2407001934236 0.689771760154747  C 6.2407001934236 0.689771760154747  0.128901353965183 7.7754506769826  0.128901353965183 7.7754506769826  C 0.128901353965183 7.7754506769826  0.128901353965183 88.7437601547389  0.128901353965183 88.7437601547389  C 0.128901353965183 88.7437601547389  9.80558220502901 97.8533462282399  9.80558220502901 97.8533462282399  C 9.80558220502901 97.8533462282399  168.187338491296 97.8533462282399  168.187338491296 97.8533462282399  C 168.187338491296 97.8533462282399  176.336069632495 88.7437601547389  176.336069632495 88.7437601547389  C 176.336069632495 88.7437601547389  176.336069632495 11.8242669245648  176.336069632495 11.8242669245648  C 176.336069632495 11.8242669245648  169.205303675048 6.76349709864604  169.205303675048 6.76349709864604  C 169.205303675048 6.76349709864604  75.507419729207 6.76349709864604  75.507419729207 6.76349709864604  C 75.507419729207 6.76349709864604  68.3776557059961 0.689771760154747  68.3776557059961 0.689771760154747  C 68.3776557059961 0.689771760154747  6.2407001934236 0.689771760154747  6.2407001934236 0.689771760154747  Z " fill-rule="evenodd" />
    </mask>
  </defs>
  <g transform="matrix(1 0 0 1 -852 -637 )">
    <path d="M 6.2407001934236 0.689771760154747  C 6.2407001934236 0.689771760154747  0.128901353965183 7.7754506769826  0.128901353965183 7.7754506769826  C 0.128901353965183 7.7754506769826  0.128901353965183 88.7437601547389  0.128901353965183 88.7437601547389  C 0.128901353965183 88.7437601547389  9.80558220502901 97.8533462282399  9.80558220502901 97.8533462282399  C 9.80558220502901 97.8533462282399  168.187338491296 97.8533462282399  168.187338491296 97.8533462282399  C 168.187338491296 97.8533462282399  176.336069632495 88.7437601547389  176.336069632495 88.7437601547389  C 176.336069632495 88.7437601547389  176.336069632495 11.8242669245648  176.336069632495 11.8242669245648  C 176.336069632495 11.8242669245648  169.205303675048 6.76349709864604  169.205303675048 6.76349709864604  C 169.205303675048 6.76349709864604  75.507419729207 6.76349709864604  75.507419729207 6.76349709864604  C 75.507419729207 6.76349709864604  68.3776557059961 0.689771760154747  68.3776557059961 0.689771760154747  C 68.3776557059961 0.689771760154747  6.2407001934236 0.689771760154747  6.2407001934236 0.689771760154747  Z " fill-rule="nonzero" fill="#0d1a28" stroke="none" fill-opacity="0.8" transform="matrix(1 0 0 1 852 637 )" />
    <path d="M 6.2407001934236 0.689771760154747  C 6.2407001934236 0.689771760154747  0.128901353965183 7.7754506769826  0.128901353965183 7.7754506769826  C 0.128901353965183 7.7754506769826  0.128901353965183 88.7437601547389  0.128901353965183 88.7437601547389  C 0.128901353965183 88.7437601547389  9.80558220502901 97.8533462282399  9.80558220502901 97.8533462282399  C 9.80558220502901 97.8533462282399  168.187338491296 97.8533462282399  168.187338491296 97.8533462282399  C 168.187338491296 97.8533462282399  176.336069632495 88.7437601547389  176.336069632495 88.7437601547389  C 176.336069632495 88.7437601547389  176.336069632495 11.8242669245648  176.336069632495 11.8242669245648  C 176.336069632495 11.8242669245648  169.205303675048 6.76349709864604  169.205303675048 6.76349709864604  C 169.205303675048 6.76349709864604  75.507419729207 6.76349709864604  75.507419729207 6.76349709864604  C 75.507419729207 6.76349709864604  68.3776557059961 0.689771760154747  68.3776557059961 0.689771760154747  C 68.3776557059961 0.689771760154747  6.2407001934236 0.689771760154747  6.2407001934236 0.689771760154747  Z " stroke-width="2.00386847195358" stroke="#00ffff" fill="none" transform="matrix(1 0 0 1 852 637 )" mask="url(#clip542)" />
  </g>
</svg>