<?xml version="1.0" encoding="utf-8"?>
<svg version="1.1" xmlns:xlink="http://www.w3.org/1999/xlink" width="63px" height="80px" xmlns="http://www.w3.org/2000/svg">
  <defs>
    <mask fill="white" id="clip540">
      <path d="M 0 79.391891891892  L 63 79.391891891892  L 63 0.635135135135101  L 39.808444902163 0.635135135135101  L 0 0.336645605440935  L 0 79.391891891892  Z M 55.3583934088567 7.26666109982284  L 57.3422913055005 1.90540540540565  L 61.5517241379308 1.90540540540565  L 61.5517241379308 78.1216216216216  L 1.44827586206918 78.1216216216216  L 1.44827586206918 2.20193262263297  L 6.40885684860973 10.396549484603  L 13.8269824922758 10.4977175940099  L 27.8846549948508 6.65332943654255  L 37.8403707518025 1.90540540540565  L 50.6554738118157 1.90556667269152  L 54.5653964984551 7.46267431179876  L 55.3583934088567 7.26666109982284  Z M 50.6896551724136 25.4054054054052  L 50.6896551724136 31.1216216216217  L 52.1379310344829 31.1216216216217  L 52.1379310344829 25.4054054054052  L 50.6896551724136 25.4054054054052  Z M 48.6467559217305 44.1550829923646  L 51.8692070030895 40.0514515545414  L 50.4057672502578 39.9123454041066  L 46.8444902162718 44.1866980265539  L 48.6467559217305 44.1550829923646  Z M 52.3738414006179 20.0391349124617  L 54.6807415036045 16.1441627002904  L 53.7003089598358 16.0935786455871  L 50.8887744593203 19.792537645782  L 52.3738414006179 20.0391349124617  Z M 14.2378990731207 14.2029996010428  L 11.4984552008234 20.6840816099315  L 15.8887744593203 19.2044980098532  L 18.9237899073117 13.7793581429011  L 14.2378990731207 14.2029996010428  Z M 58.5592173017502 11.9520091667363  L 60.8661174047376 7.59545745539549  L 59.885684860968 7.00741781946749  L 56.1730175077239 11.876133084681  L 58.5592173017502 11.9520091667363  Z M 16.8692070030899 40.7849203477419  L 12.385169927909 46.0140470027184  L 13.8918640576726 46.0456620369084  L 18.1740473738419 41.0315176144214  L 16.8692070030899 40.7849203477419  Z M 15.8743563336765 33.4059713678665  L 13.5097837281153 28.278012822297  L 12.0319258496397 28.0567075829694  L 14.6199794026779 33.4059713678665  L 15.8743563336765 33.4059713678665  Z M 8.81668383110218 60.6012237778458  L 8.54273944387251 55.2772520203007  L 7.38928939237871 55.5175262801422  L 7.66323377960885 60.847821044526  L 8.81668383110218 60.6012237778458  Z M 35.987641606591 61.1450023659089  L 37.6240988671474 61.0185422291497  L 43.3625128733261 53.8229604475741  L 41.949536560247 53.8419294680878  L 35.987641606591 61.1450023659089  Z M 24.0566426364574 70.699065698036  L 30.1338825952625 68.7262875645986  L 28.9515962924821 68.2267700244017  L 22.8743563336767 70.1995481578385  L 24.0566426364574 70.699065698036  Z " fill-rule="evenodd" />
    </mask>
  </defs>
  <g transform="matrix(1 0 0 1 -1159 -762 )">
    <path d="M 0 79.391891891892  L 63 79.391891891892  L 63 0.635135135135101  L 39.808444902163 0.635135135135101  L 0 0.336645605440935  L 0 79.391891891892  Z M 55.3583934088567 7.26666109982284  L 57.3422913055005 1.90540540540565  L 61.5517241379308 1.90540540540565  L 61.5517241379308 78.1216216216216  L 1.44827586206918 78.1216216216216  L 1.44827586206918 2.20193262263297  L 6.40885684860973 10.396549484603  L 13.8269824922758 10.4977175940099  L 27.8846549948508 6.65332943654255  L 37.8403707518025 1.90540540540565  L 50.6554738118157 1.90556667269152  L 54.5653964984551 7.46267431179876  L 55.3583934088567 7.26666109982284  Z M 50.6896551724136 25.4054054054052  L 50.6896551724136 31.1216216216217  L 52.1379310344829 31.1216216216217  L 52.1379310344829 25.4054054054052  L 50.6896551724136 25.4054054054052  Z M 48.6467559217305 44.1550829923646  L 51.8692070030895 40.0514515545414  L 50.4057672502578 39.9123454041066  L 46.8444902162718 44.1866980265539  L 48.6467559217305 44.1550829923646  Z M 52.3738414006179 20.0391349124617  L 54.6807415036045 16.1441627002904  L 53.7003089598358 16.0935786455871  L 50.8887744593203 19.792537645782  L 52.3738414006179 20.0391349124617  Z M 14.2378990731207 14.2029996010428  L 11.4984552008234 20.6840816099315  L 15.8887744593203 19.2044980098532  L 18.9237899073117 13.7793581429011  L 14.2378990731207 14.2029996010428  Z M 58.5592173017502 11.9520091667363  L 60.8661174047376 7.59545745539549  L 59.885684860968 7.00741781946749  L 56.1730175077239 11.876133084681  L 58.5592173017502 11.9520091667363  Z M 16.8692070030899 40.7849203477419  L 12.385169927909 46.0140470027184  L 13.8918640576726 46.0456620369084  L 18.1740473738419 41.0315176144214  L 16.8692070030899 40.7849203477419  Z M 15.8743563336765 33.4059713678665  L 13.5097837281153 28.278012822297  L 12.0319258496397 28.0567075829694  L 14.6199794026779 33.4059713678665  L 15.8743563336765 33.4059713678665  Z M 8.81668383110218 60.6012237778458  L 8.54273944387251 55.2772520203007  L 7.38928939237871 55.5175262801422  L 7.66323377960885 60.847821044526  L 8.81668383110218 60.6012237778458  Z M 35.987641606591 61.1450023659089  L 37.6240988671474 61.0185422291497  L 43.3625128733261 53.8229604475741  L 41.949536560247 53.8419294680878  L 35.987641606591 61.1450023659089  Z M 24.0566426364574 70.699065698036  L 30.1338825952625 68.7262875645986  L 28.9515962924821 68.2267700244017  L 22.8743563336767 70.1995481578385  L 24.0566426364574 70.699065698036  Z " fill-rule="nonzero" fill="#00ccff" stroke="none" fill-opacity="0.298039215686275" transform="matrix(1 0 0 1 1159 762 )" />
    <path d="M 0 79.391891891892  L 63 79.391891891892  L 63 0.635135135135101  L 39.808444902163 0.635135135135101  L 0 0.336645605440935  L 0 79.391891891892  Z " stroke-width="4" stroke="#00ccff" fill="none" stroke-opacity="0.498039215686275" transform="matrix(1 0 0 1 1159 762 )" mask="url(#clip540)" />
    <path d="M 55.3583934088567 7.26666109982284  L 57.3422913055005 1.90540540540565  L 61.5517241379308 1.90540540540565  L 61.5517241379308 78.1216216216216  L 1.44827586206918 78.1216216216216  L 1.44827586206918 2.20193262263297  L 6.40885684860973 10.396549484603  L 13.8269824922758 10.4977175940099  L 27.8846549948508 6.65332943654255  L 37.8403707518025 1.90540540540565  L 50.6554738118157 1.90556667269152  L 54.5653964984551 7.46267431179876  L 55.3583934088567 7.26666109982284  Z " stroke-width="4" stroke="#00ccff" fill="none" stroke-opacity="0.498039215686275" transform="matrix(1 0 0 1 1159 762 )" mask="url(#clip540)" />
    <path d="M 50.6896551724136 25.4054054054052  L 50.6896551724136 31.1216216216217  L 52.1379310344829 31.1216216216217  L 52.1379310344829 25.4054054054052  L 50.6896551724136 25.4054054054052  Z " stroke-width="4" stroke="#00ccff" fill="none" stroke-opacity="0.498039215686275" transform="matrix(1 0 0 1 1159 762 )" mask="url(#clip540)" />
    <path d="M 48.6467559217305 44.1550829923646  L 51.8692070030895 40.0514515545414  L 50.4057672502578 39.9123454041066  L 46.8444902162718 44.1866980265539  L 48.6467559217305 44.1550829923646  Z " stroke-width="4" stroke="#00ccff" fill="none" stroke-opacity="0.498039215686275" transform="matrix(1 0 0 1 1159 762 )" mask="url(#clip540)" />
    <path d="M 52.3738414006179 20.0391349124617  L 54.6807415036045 16.1441627002904  L 53.7003089598358 16.0935786455871  L 50.8887744593203 19.792537645782  L 52.3738414006179 20.0391349124617  Z " stroke-width="4" stroke="#00ccff" fill="none" stroke-opacity="0.498039215686275" transform="matrix(1 0 0 1 1159 762 )" mask="url(#clip540)" />
    <path d="M 14.2378990731207 14.2029996010428  L 11.4984552008234 20.6840816099315  L 15.8887744593203 19.2044980098532  L 18.9237899073117 13.7793581429011  L 14.2378990731207 14.2029996010428  Z " stroke-width="4" stroke="#00ccff" fill="none" stroke-opacity="0.498039215686275" transform="matrix(1 0 0 1 1159 762 )" mask="url(#clip540)" />
    <path d="M 58.5592173017502 11.9520091667363  L 60.8661174047376 7.59545745539549  L 59.885684860968 7.00741781946749  L 56.1730175077239 11.876133084681  L 58.5592173017502 11.9520091667363  Z " stroke-width="4" stroke="#00ccff" fill="none" stroke-opacity="0.498039215686275" transform="matrix(1 0 0 1 1159 762 )" mask="url(#clip540)" />
    <path d="M 16.8692070030899 40.7849203477419  L 12.385169927909 46.0140470027184  L 13.8918640576726 46.0456620369084  L 18.1740473738419 41.0315176144214  L 16.8692070030899 40.7849203477419  Z " stroke-width="4" stroke="#00ccff" fill="none" stroke-opacity="0.498039215686275" transform="matrix(1 0 0 1 1159 762 )" mask="url(#clip540)" />
    <path d="M 15.8743563336765 33.4059713678665  L 13.5097837281153 28.278012822297  L 12.0319258496397 28.0567075829694  L 14.6199794026779 33.4059713678665  L 15.8743563336765 33.4059713678665  Z " stroke-width="4" stroke="#00ccff" fill="none" stroke-opacity="0.498039215686275" transform="matrix(1 0 0 1 1159 762 )" mask="url(#clip540)" />
    <path d="M 8.81668383110218 60.6012237778458  L 8.54273944387251 55.2772520203007  L 7.38928939237871 55.5175262801422  L 7.66323377960885 60.847821044526  L 8.81668383110218 60.6012237778458  Z " stroke-width="4" stroke="#00ccff" fill="none" stroke-opacity="0.498039215686275" transform="matrix(1 0 0 1 1159 762 )" mask="url(#clip540)" />
    <path d="M 35.987641606591 61.1450023659089  L 37.6240988671474 61.0185422291497  L 43.3625128733261 53.8229604475741  L 41.949536560247 53.8419294680878  L 35.987641606591 61.1450023659089  Z " stroke-width="4" stroke="#00ccff" fill="none" stroke-opacity="0.498039215686275" transform="matrix(1 0 0 1 1159 762 )" mask="url(#clip540)" />
    <path d="M 24.0566426364574 70.699065698036  L 30.1338825952625 68.7262875645986  L 28.9515962924821 68.2267700244017  L 22.8743563336767 70.1995481578385  L 24.0566426364574 70.699065698036  Z " stroke-width="4" stroke="#00ccff" fill="none" stroke-opacity="0.498039215686275" transform="matrix(1 0 0 1 1159 762 )" mask="url(#clip540)" />
  </g>
</svg>