<?xml version="1.0" encoding="utf-8"?>
<svg version="1.1" xmlns:xlink="http://www.w3.org/1999/xlink" width="3px" height="3px" xmlns="http://www.w3.org/2000/svg">
  <g transform="matrix(1 0 0 1 -32 -451 )">
    <path d="M 2.798828125 0.7470703125  C 2.93294270833333 0.976888020833333  3 1.22786458333333  3 1.5  C 3 1.77213541666667  2.93294270833333 2.02311197916667  2.798828125 2.2529296875  C 2.66471354166667 2.48274739583333  2.48274739583333 2.66471354166667  2.2529296875 2.798828125  C 2.02311197916667 2.93294270833333  1.77213541666667 3  1.5 3  C 1.22786458333333 3  0.976888020833333 2.93294270833333  0.7470703125 2.798828125  C 0.517252604166667 2.66471354166667  0.335286458333333 2.48274739583333  0.201171875 2.2529296875  C 0.0670572916666667 2.02311197916667  0 1.77213541666667  0 1.5  C 0 1.22786458333333  0.0670572916666667 0.976888020833333  0.201171875 0.7470703125  C 0.335286458333333 0.517252604166667  0.517252604166667 0.335286458333333  0.7470703125 0.201171875  C 0.976888020833333 0.0670572916666664  1.22786458333333 0  1.5 0  C 1.77213541666667 0  2.02311197916667 0.0670572916666664  2.2529296875 0.201171875  C 2.48274739583333 0.335286458333333  2.66471354166667 0.517252604166667  2.798828125 0.7470703125  Z " fill-rule="nonzero" fill="#3478f7" stroke="none" transform="matrix(1 0 0 1 32 451 )" />
  </g>
</svg>