<?xml version="1.0" encoding="utf-8"?>
<svg version="1.1" xmlns:xlink="http://www.w3.org/1999/xlink" width="19px" height="24px" xmlns="http://www.w3.org/2000/svg">
  <g transform="matrix(1 0 0 1 -60 -401 )">
    <path d="M 0 9.38528  C 0.0139053 8.79903  0.369804 8.27044  0.931752 8.07613  C 1.07897 8.02522  1.23009 8.00368  1.38528 8  C 1.97154 8.01391  2.50012 8.3698  2.69444 8.93175  C 2.74534 9.07897  2.76688 9.23009  2.77056 9.38528  L 2.77056 15.7576  C 2.75666 16.3438  2.40076 16.8724  1.83881 17.0667  C 1.69159 17.1176  1.54048 17.1392  1.38528 17.1429  C 0.799025 17.1289  0.270442 16.7731  0.0761269 16.2111  C 0.0252197 16.0639  0.00368166 15.9128  0 15.7576  L 0 9.38528  Z M 15.5152 6.52814  C 15.5291 5.94188  15.885 5.4133  16.4469 5.21898  C 16.5941 5.16808  16.7452 5.14654  16.9004 5.14286  C 17.4867 5.15676  18.0153 5.51266  18.2096 6.07461  C 18.2605 6.22183  18.282 6.37294  18 6.52814  L 18 18.6147  C 18.2718 19.201  17.9159 19.7296  17.354 19.9239  C 17.2067 19.9748  17.0556 19.9963  16.9004 20  C 16.3142 19.9861  15.7856 19.6302  15.5913 19.0682  C 15.5404 18.921  15.5188 18.7699  15.5152 18.6147  L 15.5152 6.52814  Z M 8.68933 0.0761266  C 8.83655 0.0252196  8.98766 0.00368152  9.14286 0  C 9.72911 0.0139059  10.2577 0.369802  10.452 0.93175  C 10.5029 1.07897  10.5245 1.23009  10.5281 1.38528  L 10.5281 22.6147  C 10.5142 23.201  10.1583 23.7296  9.59639 23.9239  C 9.44917 23.9748  9.29805 23.9963  9.14286 24  C 8.5566 23.9861  8.02802 23.6302  7.8337 23.0683  C 7.7828 22.921  7.76126 22.7699  8 22.6147  L 8 1.38528  C 7.77148 0.799026  8.12738 0.270441  8.68933 0.0761266  Z " fill-rule="nonzero" fill="#4aa7dd" stroke="none" transform="matrix(1 0 0 1 60 401 )" />
  </g>
</svg>