<?xml version="1.0" encoding="utf-8"?>
<svg version="1.1" xmlns:xlink="http://www.w3.org/1999/xlink" width="52px" height="28px" xmlns="http://www.w3.org/2000/svg">
  <defs>
    <linearGradient gradientUnits="userSpaceOnUse" x1="0" y1="14" x2="52" y2="14" id="LinearGradient544">
      <stop id="Stop545" stop-color="#54c7ea" offset="0" />
      <stop id="Stop546" stop-color="#3462bf" offset="1" />
    </linearGradient>
    <mask fill="white" id="clip547">
      <path d="M 7.06318785714285 0.00843074750000028  C 7.18460166666665 0.0028102491666715  7.30608666666666 0  7.42764285714287 0  C 7.42764285714287 0  44.2241428571429 0  44.2241428571429 0  C 44.3457238095238 0  44.4672119047619 0.0028102491666715  44.5886071428571 0.00843074750000028  C 44.7100023809524 0.0140512575000002  44.831180952381 0.0224752499999994  44.9521428571429 0.0337027250000048  C 45.0731666666667 0.0449301416666685  45.1937880952381 0.0589475541666644  45.3140071428571 0.0757549624999996  C 45.4342261904762 0.0925624874999968  45.55395 0.112139708333338  45.6731785714286 0.134486625000001  C 45.7924071428571 0.156832958333332  45.9109857142857 0.181922416666666  46.0289142857143 0.209755000000001  C 46.1468428571429 0.237587583333337  46.2639666666666 0.268129166666668  46.3802857142857 0.301379750000002  C 46.4966047619048 0.334630916666669  46.6119952380952 0.370551124999999  46.7264571428572 0.409140375  C 46.8409190476191 0.447729625000001  46.9542976190476 0.488941833333335  47.0665928571428 0.532777000000003  C 47.1788880952381 0.576611583333332  47.2899761904762 0.623016333333332  47.3998571428571 0.671991249999998  C 47.5097380952381 0.720965583333331  47.6182880952381 0.77245116666667  47.7255071428572 0.826447999999999  C 47.8327261904762 0.880446000000006  47.9384595238095 0.936888749999994  48.0427071428571 0.995776249999999  C 48.1469547619047 1.05466375  48.2496238095238 1.11592541666666  48.3507142857143 1.17956125  C 48.4518047619048 1.24320291666667  48.5511619047619 1.30914  48.6487857142857 1.3773725  C 48.7464095238095 1.44561083333333  48.8422071428571 1.51606291666667  48.9361785714286 1.58872875  C 49.03015 1.66139458333333  49.1221714285714 1.73618958333333  49.2122428571429 1.81311375  C 49.3023142857143 1.89003791666667  49.3903119047619 1.96899791666667  49.4762357142857 2.04999375  C 49.5622214285714 2.13098958333333  49.6460404761905 2.213925  49.7276928571429 2.2988  C 49.8092833333333 2.383675  49.8886452380953 2.47038458333333  49.9657785714286 2.55892875  C 50.0429119047619 2.64747291666666  50.1176619047619 2.73774666666667  50.1900285714286 2.82975  C 50.2624571428572 2.92175333333333  50.3324404761905 3.01537541666666  50.3999785714286 3.11061625000001  C 50.4675166666667 3.20585708333333  50.5325476190476 3.30260291666666  50.5950714285714 3.40085375  C 50.6575333333333 3.49910458333333  50.7174261904762 3.59874083333334  50.77475 3.6997625  C 50.8320119047619 3.80078416666667  50.8866428571429 3.90306875  50.9386428571428 4.00661625  C 50.9906428571429 4.11016375  51.0398880952381 4.21484875  51.0863785714286 4.32067125  C 51.1328690476191 4.42649958333334  51.1766047619047 4.53334  51.2175857142857 4.6411925  C 51.2585666666666 4.74903916666666  51.2967 4.85776958333334  51.3319857142857 4.96738375  C 51.3672714285714 5.07699791666667  51.3996785714286 5.18736166666667  51.4292071428571 5.298475  C 51.4587357142857 5.40958833333333  51.4853547619048 5.52131708333334  51.5090642857143 5.63366125  C 51.5327738095238 5.74600541666666  51.5535428571429 5.85883083333334  51.5713714285714 5.9721375  C 51.5892 6.08544416666667  51.6040880952381 6.199095  51.6160357142857 6.31309  C 51.6279214285714 6.42708500000001  51.6368666666667 6.54128708333334  51.6428714285714 6.65569625  C 51.6488142857143 6.77010541666667  51.6517857142857 6.88458166666667  51.6517857142857 6.999125  C 51.6517857142857 6.999125  51.6517857142857 21.000875  51.6517857142857 21.000875  C 51.6517857142857 21.1154416666667  51.6488142857143 21.2299208333333  51.6428714285714 21.3443125  C 51.6368666666667 21.4587041666667  51.6279214285714 21.5728916666667  51.6160357142857 21.686875  C 51.6040880952381 21.8009166666667  51.5892 21.9145791666667  51.5713714285714 22.0278625  C 51.5535428571429 22.1411458333333  51.5327738095238 22.2539625  51.5090642857143 22.3663125  C 51.4853547619048 22.4786625  51.4587357142857 22.5904  51.4292071428571 22.701525  C 51.3996785714286 22.81265  51.3672714285714 22.9230166666667  51.3319857142857 23.032625  C 51.2967 23.1422333333333  51.2585666666666 23.2509666666667  51.2175857142857 23.358825  C 51.1766047619047 23.4666833333333  51.1328690476191 23.5735208333333  51.0863785714286 23.6793375  C 51.0398880952381 23.7851541666667  50.9906428571429 23.8898333333333  50.9386428571428 23.993375  C 50.8866428571429 24.0969166666667  50.8320119047619 24.1992041666667  50.77475 24.3002375  C 50.7174261904762 24.4012708333333  50.6575333333333 24.5009041666667  50.5950714285714 24.5991375  C 50.5325476190476 24.6973708333333  50.4675166666667 24.7941166666667  50.3999785714286 24.889375  C 50.3324404761905 24.9846333333333  50.2624571428572 25.0782583333333  50.1900285714286 25.17025  C 50.1176619047619 25.2622416666667  50.0429119047619 25.3525125  49.9657785714286 25.4410625  C 49.8886452380953 25.5296125  49.8092833333333 25.616325  49.7276928571429 25.7012  C 49.6460404761905 25.786075  49.5622214285714 25.8689958333333  49.4762357142857 25.9499625  C 49.3903119047619 26.0309875  49.3023142857143 26.1099708333333  49.2122428571429 26.1869125  C 49.1221714285714 26.2637958333333  49.03015 26.3385791666667  48.9361785714286 26.4112625  C 48.8422071428571 26.4839458333333  48.7464095238095 26.5544125  48.6487857142857 26.6226625  C 48.5511619047619 26.6908541666667  48.4518047619048 26.7567708333333  48.3507142857143 26.8204125  C 48.2496238095238 26.8840541666667  48.1469547619047 26.9453333333333  48.0427071428571 27.00425  C 47.9384595238095 27.0631083333333  47.8327261904762 27.1195458333333  47.7255071428572 27.1735625  C 47.6182880952381 27.2275791666667  47.5097380952381 27.2790583333333  47.3998571428571 27.328  C 47.2899761904762 27.377  47.1788880952381 27.4234041666667  47.0665928571428 27.4672125  C 46.9542976190476 27.5110791666667  46.8409190476191 27.5522916666667  46.7264571428572 27.59085  C 46.6119952380952 27.6294666666667  46.4966047619048 27.6654  46.3802857142857 27.69865  C 46.2639666666666 27.7319  46.1468428571429 27.7624375  46.0289142857143 27.7902625  C 45.9109857142857 27.8180875  45.7924071428571 27.8431708333333  45.6731785714286 27.8655125  C 45.55395 27.8878541666667  45.4342261904762 27.907425  45.3140071428571 27.924225  C 45.1937880952381 27.941025  45.0731666666667 27.9550541666667  44.9521428571429 27.9663125  C 44.831180952381 27.9775125  44.7100023809524 27.9859416666667  44.5886071428571 27.9916  C 44.4672119047619 27.9972  44.3457238095238 28  44.2241428571429 28  C 44.2241428571429 28  7.42764285714287 28  7.42764285714287 28  C 7.30608666666666 28  7.18460166666665 27.9972  7.06318785714285 27.9916  C 6.94177404761905 27.9859416666667  6.82058000000001 27.9775125  6.69960571428572 27.9663125  C 6.57863142857144 27.9550541666667  6.4580223809524 27.941025  6.33777857142854 27.924225  C 6.21753476190474 27.907425  6.09780166666667 27.8878541666667  5.97857928571426 27.8655125  C 5.85935690476191 27.8431708333333  5.74078761904764 27.8180875  5.62287142857144 27.7902625  C 5.50495523809525 27.7624375  5.38783452380954 27.7319  5.27150928571427 27.69865  C 5.15518404761906 27.6654  5.03979666666669 27.6294666666667  4.92534714285716 27.59085  C 4.81089142857144 27.5522916666667  4.69750976190477 27.5110791666667  4.58520214285716 27.4672125  C 4.47290071428574 27.4234041666667  4.36180642857141 27.377  4.25191928571428 27.328  C 4.14203214285715 27.2790583333333  4.03348523809524 27.2275791666667  3.92627857142855 27.1735625  C 3.81907190476193 27.1195458333333  3.71333547619048 27.0631083333333  3.60906928571427 27.00425  C 3.50480309523812 26.9453333333333  3.40213404761903 26.8840541666667  3.30106214285712 26.8204125  C 3.19999023809521 26.7567708333333  3.10063619047617 26.6908541666667  3.00299999999999 26.6226625  C 2.90536380952381 26.5544125  2.8095630952381 26.4839458333333  2.71559785714288 26.4112625  C 2.6216326190476 26.3385791666667  2.52961428571427 26.2637958333333  2.43954285714284 26.1869125  C 2.34947142857141 26.1099708333333  2.26145833333334 26.0309875  2.17550357142858 25.9499625  C 2.08954880952382 25.8689958333333  2.00575452380951 25.786075  1.92412071428572 25.7012  C 1.84248690476193 25.616325  1.7631126190476 25.5296125  1.68599785714287 25.4410625  C 1.60888309523807 25.3525125  1.53411761904761 25.2622416666667  1.46170142857142 25.17025  C 1.38929142857143 25.0782583333333  1.31931738095238 24.9846333333333  1.25177928571429 24.889375  C 1.1842473809524 24.7941166666667  1.119235 24.6973708333333  1.05674214285716 24.5991375  C 0.994249285714261 24.5009041666667  0.934350857142874 24.4012708333333  0.87704685714283 24.3002375  C 0.819744095238093 24.1992041666667  0.765106333333335 24.0969166666667  0.713133571428557 23.993375  C 0.66116019047621 23.8898333333333  0.611914333333345 23.7851541666667  0.565396000000021 23.6793375  C 0.518877047619071 23.5735208333333  0.475141642857125 23.4666833333333  0.434189785714295 23.358825  C 0.393237928571409 23.2509666666667  0.355118523809551 23.1422333333333  0.319831571428551 23.032625  C 0.284545238095234 22.9230166666667  0.252133761904759 22.81265  0.222597142857126 22.701525  C 0.19306052380955 22.5904  0.166434976190487 22.4786625  0.142720499999996 22.3663125  C 0.119005404761879 22.2539625  0.09822957857142 22.1411458333333  0.0803930214285629 22.0278625  C 0.0625565880952195 21.9145791666667  0.0476809666666895 21.8009166666667  0.0357661571428594 21.686875  C 0.0238512857142723 21.5728916666667  0.0149115385714254 21.4587041666667  0.00894691571426165 21.3443125  C 0.00298230523810616 21.2299208333333  0 21.1154416666667  0 21.000875  C 0 21.000875  0 6.999125  0 6.999125  C 0 6.88458166666667  0.00298230523810616 6.77010541666667  0.00894691571426165 6.65569625  C 0.0149115385714254 6.54128708333334  0.0238512857142723 6.42708500000001  0.0357661571428594 6.31309  C 0.0476809666666895 6.199095  0.0625565880952195 6.08544416666667  0.0803930214285629 5.9721375  C 0.09822957857142 5.85883083333334  0.119005404761879 5.74600541666666  0.142720499999996 5.63366125  C 0.166434976190487 5.52131708333334  0.19306052380955 5.40958833333333  0.222597142857126 5.298475  C 0.252133761904759 5.18736166666667  0.284545238095234 5.07699791666667  0.319831571428551 4.96738375  C 0.355118523809551 4.85776958333334  0.393237928571409 4.74903916666666  0.434189785714295 4.6411925  C 0.475141642857125 4.53334  0.518877047619071 4.42649958333334  0.565396000000021 4.32067125  C 0.611914333333345 4.21484875  0.66116019047621 4.11016375  0.713133571428557 4.00661625  C 0.765106333333335 3.90306875  0.819744095238093 3.80078416666667  0.87704685714283 3.6997625  C 0.934350857142874 3.59874083333334  0.994249285714261 3.49910458333333  1.05674214285716 3.40085375  C 1.119235 3.30260291666666  1.1842473809524 3.20585708333333  1.25177928571429 3.11061625000001  C 1.31931738095238 3.01537541666666  1.38929142857143 2.92175333333333  1.46170142857142 2.82975  C 1.53411761904761 2.73774666666667  1.60888309523807 2.64747291666666  1.68599785714287 2.55892875  C 1.7631126190476 2.47038458333333  1.84248690476193 2.383675  1.92412071428572 2.2988  C 2.00575452380951 2.213925  2.08954880952382 2.13098958333333  2.17550357142858 2.04999375  C 2.26145833333334 1.96899791666667  2.34947142857141 1.89003791666667  2.43954285714284 1.81311375  C 2.52961428571427 1.73618958333333  2.6216326190476 1.66139458333333  2.71559785714288 1.58872875  C 2.8095630952381 1.51606291666667  2.90536380952381 1.44561083333333  3.00299999999999 1.3773725  C 3.10063619047617 1.30914  3.19999023809521 1.24320291666667  3.30106214285712 1.17956125  C 3.40213404761903 1.11592541666666  3.50480309523812 1.05466375  3.60906928571427 0.995776249999999  C 3.71333547619048 0.936888749999994  3.81907190476193 0.880446000000006  3.92627857142855 0.826447999999999  C 4.03348523809524 0.77245116666667  4.14203214285715 0.720965583333331  4.25191928571428 0.671991249999998  C 4.36180642857141 0.623016333333332  4.47290071428574 0.576611583333332  4.58520214285716 0.532777000000003  C 4.69750976190477 0.488941833333335  4.81089142857144 0.447729625000001  4.92534714285716 0.409140375  C 5.03979666666669 0.370551124999999  5.15518404761906 0.334630916666669  5.27150928571427 0.301379750000002  C 5.38783452380954 0.268129166666668  5.50495523809525 0.237587583333337  5.62287142857144 0.209755000000001  C 5.74078761904764 0.181922416666666  5.85935690476191 0.156832958333332  5.97857928571426 0.134486625000001  C 6.09780166666667 0.112139708333338  6.21753476190474 0.0925624874999968  6.33777857142854 0.0757549624999996  C 6.4580223809524 0.0589475541666644  6.57863142857144 0.0449301416666685  6.69960571428572 0.0337027250000048  C 6.82058000000001 0.0224752499999994  6.94177404761905 0.0140512575000002  7.06318785714285 0.00843074750000028  Z " fill-rule="evenodd" />
    </mask>
  </defs>
  <g transform="matrix(1 0 0 1 -307 -391 )">
    <path d="M 7.06318785714285 0.00843074750000028  C 7.18460166666665 0.0028102491666715  7.30608666666666 0  7.42764285714287 0  C 7.42764285714287 0  44.2241428571429 0  44.2241428571429 0  C 44.3457238095238 0  44.4672119047619 0.0028102491666715  44.5886071428571 0.00843074750000028  C 44.7100023809524 0.0140512575000002  44.831180952381 0.0224752499999994  44.9521428571429 0.0337027250000048  C 45.0731666666667 0.0449301416666685  45.1937880952381 0.0589475541666644  45.3140071428571 0.0757549624999996  C 45.4342261904762 0.0925624874999968  45.55395 0.112139708333338  45.6731785714286 0.134486625000001  C 45.7924071428571 0.156832958333332  45.9109857142857 0.181922416666666  46.0289142857143 0.209755000000001  C 46.1468428571429 0.237587583333337  46.2639666666666 0.268129166666668  46.3802857142857 0.301379750000002  C 46.4966047619048 0.334630916666669  46.6119952380952 0.370551124999999  46.7264571428572 0.409140375  C 46.8409190476191 0.447729625000001  46.9542976190476 0.488941833333335  47.0665928571428 0.532777000000003  C 47.1788880952381 0.576611583333332  47.2899761904762 0.623016333333332  47.3998571428571 0.671991249999998  C 47.5097380952381 0.720965583333331  47.6182880952381 0.77245116666667  47.7255071428572 0.826447999999999  C 47.8327261904762 0.880446000000006  47.9384595238095 0.936888749999994  48.0427071428571 0.995776249999999  C 48.1469547619047 1.05466375  48.2496238095238 1.11592541666666  48.3507142857143 1.17956125  C 48.4518047619048 1.24320291666667  48.5511619047619 1.30914  48.6487857142857 1.3773725  C 48.7464095238095 1.44561083333333  48.8422071428571 1.51606291666667  48.9361785714286 1.58872875  C 49.03015 1.66139458333333  49.1221714285714 1.73618958333333  49.2122428571429 1.81311375  C 49.3023142857143 1.89003791666667  49.3903119047619 1.96899791666667  49.4762357142857 2.04999375  C 49.5622214285714 2.13098958333333  49.6460404761905 2.213925  49.7276928571429 2.2988  C 49.8092833333333 2.383675  49.8886452380953 2.47038458333333  49.9657785714286 2.55892875  C 50.0429119047619 2.64747291666666  50.1176619047619 2.73774666666667  50.1900285714286 2.82975  C 50.2624571428572 2.92175333333333  50.3324404761905 3.01537541666666  50.3999785714286 3.11061625000001  C 50.4675166666667 3.20585708333333  50.5325476190476 3.30260291666666  50.5950714285714 3.40085375  C 50.6575333333333 3.49910458333333  50.7174261904762 3.59874083333334  50.77475 3.6997625  C 50.8320119047619 3.80078416666667  50.8866428571429 3.90306875  50.9386428571428 4.00661625  C 50.9906428571429 4.11016375  51.0398880952381 4.21484875  51.0863785714286 4.32067125  C 51.1328690476191 4.42649958333334  51.1766047619047 4.53334  51.2175857142857 4.6411925  C 51.2585666666666 4.74903916666666  51.2967 4.85776958333334  51.3319857142857 4.96738375  C 51.3672714285714 5.07699791666667  51.3996785714286 5.18736166666667  51.4292071428571 5.298475  C 51.4587357142857 5.40958833333333  51.4853547619048 5.52131708333334  51.5090642857143 5.63366125  C 51.5327738095238 5.74600541666666  51.5535428571429 5.85883083333334  51.5713714285714 5.9721375  C 51.5892 6.08544416666667  51.6040880952381 6.199095  51.6160357142857 6.31309  C 51.6279214285714 6.42708500000001  51.6368666666667 6.54128708333334  51.6428714285714 6.65569625  C 51.6488142857143 6.77010541666667  51.6517857142857 6.88458166666667  51.6517857142857 6.999125  C 51.6517857142857 6.999125  51.6517857142857 21.000875  51.6517857142857 21.000875  C 51.6517857142857 21.1154416666667  51.6488142857143 21.2299208333333  51.6428714285714 21.3443125  C 51.6368666666667 21.4587041666667  51.6279214285714 21.5728916666667  51.6160357142857 21.686875  C 51.6040880952381 21.8009166666667  51.5892 21.9145791666667  51.5713714285714 22.0278625  C 51.5535428571429 22.1411458333333  51.5327738095238 22.2539625  51.5090642857143 22.3663125  C 51.4853547619048 22.4786625  51.4587357142857 22.5904  51.4292071428571 22.701525  C 51.3996785714286 22.81265  51.3672714285714 22.9230166666667  51.3319857142857 23.032625  C 51.2967 23.1422333333333  51.2585666666666 23.2509666666667  51.2175857142857 23.358825  C 51.1766047619047 23.4666833333333  51.1328690476191 23.5735208333333  51.0863785714286 23.6793375  C 51.0398880952381 23.7851541666667  50.9906428571429 23.8898333333333  50.9386428571428 23.993375  C 50.8866428571429 24.0969166666667  50.8320119047619 24.1992041666667  50.77475 24.3002375  C 50.7174261904762 24.4012708333333  50.6575333333333 24.5009041666667  50.5950714285714 24.5991375  C 50.5325476190476 24.6973708333333  50.4675166666667 24.7941166666667  50.3999785714286 24.889375  C 50.3324404761905 24.9846333333333  50.2624571428572 25.0782583333333  50.1900285714286 25.17025  C 50.1176619047619 25.2622416666667  50.0429119047619 25.3525125  49.9657785714286 25.4410625  C 49.8886452380953 25.5296125  49.8092833333333 25.616325  49.7276928571429 25.7012  C 49.6460404761905 25.786075  49.5622214285714 25.8689958333333  49.4762357142857 25.9499625  C 49.3903119047619 26.0309875  49.3023142857143 26.1099708333333  49.2122428571429 26.1869125  C 49.1221714285714 26.2637958333333  49.03015 26.3385791666667  48.9361785714286 26.4112625  C 48.8422071428571 26.4839458333333  48.7464095238095 26.5544125  48.6487857142857 26.6226625  C 48.5511619047619 26.6908541666667  48.4518047619048 26.7567708333333  48.3507142857143 26.8204125  C 48.2496238095238 26.8840541666667  48.1469547619047 26.9453333333333  48.0427071428571 27.00425  C 47.9384595238095 27.0631083333333  47.8327261904762 27.1195458333333  47.7255071428572 27.1735625  C 47.6182880952381 27.2275791666667  47.5097380952381 27.2790583333333  47.3998571428571 27.328  C 47.2899761904762 27.377  47.1788880952381 27.4234041666667  47.0665928571428 27.4672125  C 46.9542976190476 27.5110791666667  46.8409190476191 27.5522916666667  46.7264571428572 27.59085  C 46.6119952380952 27.6294666666667  46.4966047619048 27.6654  46.3802857142857 27.69865  C 46.2639666666666 27.7319  46.1468428571429 27.7624375  46.0289142857143 27.7902625  C 45.9109857142857 27.8180875  45.7924071428571 27.8431708333333  45.6731785714286 27.8655125  C 45.55395 27.8878541666667  45.4342261904762 27.907425  45.3140071428571 27.924225  C 45.1937880952381 27.941025  45.0731666666667 27.9550541666667  44.9521428571429 27.9663125  C 44.831180952381 27.9775125  44.7100023809524 27.9859416666667  44.5886071428571 27.9916  C 44.4672119047619 27.9972  44.3457238095238 28  44.2241428571429 28  C 44.2241428571429 28  7.42764285714287 28  7.42764285714287 28  C 7.30608666666666 28  7.18460166666665 27.9972  7.06318785714285 27.9916  C 6.94177404761905 27.9859416666667  6.82058000000001 27.9775125  6.69960571428572 27.9663125  C 6.57863142857144 27.9550541666667  6.4580223809524 27.941025  6.33777857142854 27.924225  C 6.21753476190474 27.907425  6.09780166666667 27.8878541666667  5.97857928571426 27.8655125  C 5.85935690476191 27.8431708333333  5.74078761904764 27.8180875  5.62287142857144 27.7902625  C 5.50495523809525 27.7624375  5.38783452380954 27.7319  5.27150928571427 27.69865  C 5.15518404761906 27.6654  5.03979666666669 27.6294666666667  4.92534714285716 27.59085  C 4.81089142857144 27.5522916666667  4.69750976190477 27.5110791666667  4.58520214285716 27.4672125  C 4.47290071428574 27.4234041666667  4.36180642857141 27.377  4.25191928571428 27.328  C 4.14203214285715 27.2790583333333  4.03348523809524 27.2275791666667  3.92627857142855 27.1735625  C 3.81907190476193 27.1195458333333  3.71333547619048 27.0631083333333  3.60906928571427 27.00425  C 3.50480309523812 26.9453333333333  3.40213404761903 26.8840541666667  3.30106214285712 26.8204125  C 3.19999023809521 26.7567708333333  3.10063619047617 26.6908541666667  3.00299999999999 26.6226625  C 2.90536380952381 26.5544125  2.8095630952381 26.4839458333333  2.71559785714288 26.4112625  C 2.6216326190476 26.3385791666667  2.52961428571427 26.2637958333333  2.43954285714284 26.1869125  C 2.34947142857141 26.1099708333333  2.26145833333334 26.0309875  2.17550357142858 25.9499625  C 2.08954880952382 25.8689958333333  2.00575452380951 25.786075  1.92412071428572 25.7012  C 1.84248690476193 25.616325  1.7631126190476 25.5296125  1.68599785714287 25.4410625  C 1.60888309523807 25.3525125  1.53411761904761 25.2622416666667  1.46170142857142 25.17025  C 1.38929142857143 25.0782583333333  1.31931738095238 24.9846333333333  1.25177928571429 24.889375  C 1.1842473809524 24.7941166666667  1.119235 24.6973708333333  1.05674214285716 24.5991375  C 0.994249285714261 24.5009041666667  0.934350857142874 24.4012708333333  0.87704685714283 24.3002375  C 0.819744095238093 24.1992041666667  0.765106333333335 24.0969166666667  0.713133571428557 23.993375  C 0.66116019047621 23.8898333333333  0.611914333333345 23.7851541666667  0.565396000000021 23.6793375  C 0.518877047619071 23.5735208333333  0.475141642857125 23.4666833333333  0.434189785714295 23.358825  C 0.393237928571409 23.2509666666667  0.355118523809551 23.1422333333333  0.319831571428551 23.032625  C 0.284545238095234 22.9230166666667  0.252133761904759 22.81265  0.222597142857126 22.701525  C 0.19306052380955 22.5904  0.166434976190487 22.4786625  0.142720499999996 22.3663125  C 0.119005404761879 22.2539625  0.09822957857142 22.1411458333333  0.0803930214285629 22.0278625  C 0.0625565880952195 21.9145791666667  0.0476809666666895 21.8009166666667  0.0357661571428594 21.686875  C 0.0238512857142723 21.5728916666667  0.0149115385714254 21.4587041666667  0.00894691571426165 21.3443125  C 0.00298230523810616 21.2299208333333  0 21.1154416666667  0 21.000875  C 0 21.000875  0 6.999125  0 6.999125  C 0 6.88458166666667  0.00298230523810616 6.77010541666667  0.00894691571426165 6.65569625  C 0.0149115385714254 6.54128708333334  0.0238512857142723 6.42708500000001  0.0357661571428594 6.31309  C 0.0476809666666895 6.199095  0.0625565880952195 6.08544416666667  0.0803930214285629 5.9721375  C 0.09822957857142 5.85883083333334  0.119005404761879 5.74600541666666  0.142720499999996 5.63366125  C 0.166434976190487 5.52131708333334  0.19306052380955 5.40958833333333  0.222597142857126 5.298475  C 0.252133761904759 5.18736166666667  0.284545238095234 5.07699791666667  0.319831571428551 4.96738375  C 0.355118523809551 4.85776958333334  0.393237928571409 4.74903916666666  0.434189785714295 4.6411925  C 0.475141642857125 4.53334  0.518877047619071 4.42649958333334  0.565396000000021 4.32067125  C 0.611914333333345 4.21484875  0.66116019047621 4.11016375  0.713133571428557 4.00661625  C 0.765106333333335 3.90306875  0.819744095238093 3.80078416666667  0.87704685714283 3.6997625  C 0.934350857142874 3.59874083333334  0.994249285714261 3.49910458333333  1.05674214285716 3.40085375  C 1.119235 3.30260291666666  1.1842473809524 3.20585708333333  1.25177928571429 3.11061625000001  C 1.31931738095238 3.01537541666666  1.38929142857143 2.92175333333333  1.46170142857142 2.82975  C 1.53411761904761 2.73774666666667  1.60888309523807 2.64747291666666  1.68599785714287 2.55892875  C 1.7631126190476 2.47038458333333  1.84248690476193 2.383675  1.92412071428572 2.2988  C 2.00575452380951 2.213925  2.08954880952382 2.13098958333333  2.17550357142858 2.04999375  C 2.26145833333334 1.96899791666667  2.34947142857141 1.89003791666667  2.43954285714284 1.81311375  C 2.52961428571427 1.73618958333333  2.6216326190476 1.66139458333333  2.71559785714288 1.58872875  C 2.8095630952381 1.51606291666667  2.90536380952381 1.44561083333333  3.00299999999999 1.3773725  C 3.10063619047617 1.30914  3.19999023809521 1.24320291666667  3.30106214285712 1.17956125  C 3.40213404761903 1.11592541666666  3.50480309523812 1.05466375  3.60906928571427 0.995776249999999  C 3.71333547619048 0.936888749999994  3.81907190476193 0.880446000000006  3.92627857142855 0.826447999999999  C 4.03348523809524 0.77245116666667  4.14203214285715 0.720965583333331  4.25191928571428 0.671991249999998  C 4.36180642857141 0.623016333333332  4.47290071428574 0.576611583333332  4.58520214285716 0.532777000000003  C 4.69750976190477 0.488941833333335  4.81089142857144 0.447729625000001  4.92534714285716 0.409140375  C 5.03979666666669 0.370551124999999  5.15518404761906 0.334630916666669  5.27150928571427 0.301379750000002  C 5.38783452380954 0.268129166666668  5.50495523809525 0.237587583333337  5.62287142857144 0.209755000000001  C 5.74078761904764 0.181922416666666  5.85935690476191 0.156832958333332  5.97857928571426 0.134486625000001  C 6.09780166666667 0.112139708333338  6.21753476190474 0.0925624874999968  6.33777857142854 0.0757549624999996  C 6.4580223809524 0.0589475541666644  6.57863142857144 0.0449301416666685  6.69960571428572 0.0337027250000048  C 6.82058000000001 0.0224752499999994  6.94177404761905 0.0140512575000002  7.06318785714285 0.00843074750000028  Z " fill-rule="nonzero" fill="#ffffff" stroke="none" fill-opacity="0" transform="matrix(1 0 0 1 307 391 )" />
    <path d="M 7.06318785714285 0.00843074750000028  C 7.18460166666665 0.0028102491666715  7.30608666666666 0  7.42764285714287 0  C 7.42764285714287 0  44.2241428571429 0  44.2241428571429 0  C 44.3457238095238 0  44.4672119047619 0.0028102491666715  44.5886071428571 0.00843074750000028  C 44.7100023809524 0.0140512575000002  44.831180952381 0.0224752499999994  44.9521428571429 0.0337027250000048  C 45.0731666666667 0.0449301416666685  45.1937880952381 0.0589475541666644  45.3140071428571 0.0757549624999996  C 45.4342261904762 0.0925624874999968  45.55395 0.112139708333338  45.6731785714286 0.134486625000001  C 45.7924071428571 0.156832958333332  45.9109857142857 0.181922416666666  46.0289142857143 0.209755000000001  C 46.1468428571429 0.237587583333337  46.2639666666666 0.268129166666668  46.3802857142857 0.301379750000002  C 46.4966047619048 0.334630916666669  46.6119952380952 0.370551124999999  46.7264571428572 0.409140375  C 46.8409190476191 0.447729625000001  46.9542976190476 0.488941833333335  47.0665928571428 0.532777000000003  C 47.1788880952381 0.576611583333332  47.2899761904762 0.623016333333332  47.3998571428571 0.671991249999998  C 47.5097380952381 0.720965583333331  47.6182880952381 0.77245116666667  47.7255071428572 0.826447999999999  C 47.8327261904762 0.880446000000006  47.9384595238095 0.936888749999994  48.0427071428571 0.995776249999999  C 48.1469547619047 1.05466375  48.2496238095238 1.11592541666666  48.3507142857143 1.17956125  C 48.4518047619048 1.24320291666667  48.5511619047619 1.30914  48.6487857142857 1.3773725  C 48.7464095238095 1.44561083333333  48.8422071428571 1.51606291666667  48.9361785714286 1.58872875  C 49.03015 1.66139458333333  49.1221714285714 1.73618958333333  49.2122428571429 1.81311375  C 49.3023142857143 1.89003791666667  49.3903119047619 1.96899791666667  49.4762357142857 2.04999375  C 49.5622214285714 2.13098958333333  49.6460404761905 2.213925  49.7276928571429 2.2988  C 49.8092833333333 2.383675  49.8886452380953 2.47038458333333  49.9657785714286 2.55892875  C 50.0429119047619 2.64747291666666  50.1176619047619 2.73774666666667  50.1900285714286 2.82975  C 50.2624571428572 2.92175333333333  50.3324404761905 3.01537541666666  50.3999785714286 3.11061625000001  C 50.4675166666667 3.20585708333333  50.5325476190476 3.30260291666666  50.5950714285714 3.40085375  C 50.6575333333333 3.49910458333333  50.7174261904762 3.59874083333334  50.77475 3.6997625  C 50.8320119047619 3.80078416666667  50.8866428571429 3.90306875  50.9386428571428 4.00661625  C 50.9906428571429 4.11016375  51.0398880952381 4.21484875  51.0863785714286 4.32067125  C 51.1328690476191 4.42649958333334  51.1766047619047 4.53334  51.2175857142857 4.6411925  C 51.2585666666666 4.74903916666666  51.2967 4.85776958333334  51.3319857142857 4.96738375  C 51.3672714285714 5.07699791666667  51.3996785714286 5.18736166666667  51.4292071428571 5.298475  C 51.4587357142857 5.40958833333333  51.4853547619048 5.52131708333334  51.5090642857143 5.63366125  C 51.5327738095238 5.74600541666666  51.5535428571429 5.85883083333334  51.5713714285714 5.9721375  C 51.5892 6.08544416666667  51.6040880952381 6.199095  51.6160357142857 6.31309  C 51.6279214285714 6.42708500000001  51.6368666666667 6.54128708333334  51.6428714285714 6.65569625  C 51.6488142857143 6.77010541666667  51.6517857142857 6.88458166666667  51.6517857142857 6.999125  C 51.6517857142857 6.999125  51.6517857142857 21.000875  51.6517857142857 21.000875  C 51.6517857142857 21.1154416666667  51.6488142857143 21.2299208333333  51.6428714285714 21.3443125  C 51.6368666666667 21.4587041666667  51.6279214285714 21.5728916666667  51.6160357142857 21.686875  C 51.6040880952381 21.8009166666667  51.5892 21.9145791666667  51.5713714285714 22.0278625  C 51.5535428571429 22.1411458333333  51.5327738095238 22.2539625  51.5090642857143 22.3663125  C 51.4853547619048 22.4786625  51.4587357142857 22.5904  51.4292071428571 22.701525  C 51.3996785714286 22.81265  51.3672714285714 22.9230166666667  51.3319857142857 23.032625  C 51.2967 23.1422333333333  51.2585666666666 23.2509666666667  51.2175857142857 23.358825  C 51.1766047619047 23.4666833333333  51.1328690476191 23.5735208333333  51.0863785714286 23.6793375  C 51.0398880952381 23.7851541666667  50.9906428571429 23.8898333333333  50.9386428571428 23.993375  C 50.8866428571429 24.0969166666667  50.8320119047619 24.1992041666667  50.77475 24.3002375  C 50.7174261904762 24.4012708333333  50.6575333333333 24.5009041666667  50.5950714285714 24.5991375  C 50.5325476190476 24.6973708333333  50.4675166666667 24.7941166666667  50.3999785714286 24.889375  C 50.3324404761905 24.9846333333333  50.2624571428572 25.0782583333333  50.1900285714286 25.17025  C 50.1176619047619 25.2622416666667  50.0429119047619 25.3525125  49.9657785714286 25.4410625  C 49.8886452380953 25.5296125  49.8092833333333 25.616325  49.7276928571429 25.7012  C 49.6460404761905 25.786075  49.5622214285714 25.8689958333333  49.4762357142857 25.9499625  C 49.3903119047619 26.0309875  49.3023142857143 26.1099708333333  49.2122428571429 26.1869125  C 49.1221714285714 26.2637958333333  49.03015 26.3385791666667  48.9361785714286 26.4112625  C 48.8422071428571 26.4839458333333  48.7464095238095 26.5544125  48.6487857142857 26.6226625  C 48.5511619047619 26.6908541666667  48.4518047619048 26.7567708333333  48.3507142857143 26.8204125  C 48.2496238095238 26.8840541666667  48.1469547619047 26.9453333333333  48.0427071428571 27.00425  C 47.9384595238095 27.0631083333333  47.8327261904762 27.1195458333333  47.7255071428572 27.1735625  C 47.6182880952381 27.2275791666667  47.5097380952381 27.2790583333333  47.3998571428571 27.328  C 47.2899761904762 27.377  47.1788880952381 27.4234041666667  47.0665928571428 27.4672125  C 46.9542976190476 27.5110791666667  46.8409190476191 27.5522916666667  46.7264571428572 27.59085  C 46.6119952380952 27.6294666666667  46.4966047619048 27.6654  46.3802857142857 27.69865  C 46.2639666666666 27.7319  46.1468428571429 27.7624375  46.0289142857143 27.7902625  C 45.9109857142857 27.8180875  45.7924071428571 27.8431708333333  45.6731785714286 27.8655125  C 45.55395 27.8878541666667  45.4342261904762 27.907425  45.3140071428571 27.924225  C 45.1937880952381 27.941025  45.0731666666667 27.9550541666667  44.9521428571429 27.9663125  C 44.831180952381 27.9775125  44.7100023809524 27.9859416666667  44.5886071428571 27.9916  C 44.4672119047619 27.9972  44.3457238095238 28  44.2241428571429 28  C 44.2241428571429 28  7.42764285714287 28  7.42764285714287 28  C 7.30608666666666 28  7.18460166666665 27.9972  7.06318785714285 27.9916  C 6.94177404761905 27.9859416666667  6.82058000000001 27.9775125  6.69960571428572 27.9663125  C 6.57863142857144 27.9550541666667  6.4580223809524 27.941025  6.33777857142854 27.924225  C 6.21753476190474 27.907425  6.09780166666667 27.8878541666667  5.97857928571426 27.8655125  C 5.85935690476191 27.8431708333333  5.74078761904764 27.8180875  5.62287142857144 27.7902625  C 5.50495523809525 27.7624375  5.38783452380954 27.7319  5.27150928571427 27.69865  C 5.15518404761906 27.6654  5.03979666666669 27.6294666666667  4.92534714285716 27.59085  C 4.81089142857144 27.5522916666667  4.69750976190477 27.5110791666667  4.58520214285716 27.4672125  C 4.47290071428574 27.4234041666667  4.36180642857141 27.377  4.25191928571428 27.328  C 4.14203214285715 27.2790583333333  4.03348523809524 27.2275791666667  3.92627857142855 27.1735625  C 3.81907190476193 27.1195458333333  3.71333547619048 27.0631083333333  3.60906928571427 27.00425  C 3.50480309523812 26.9453333333333  3.40213404761903 26.8840541666667  3.30106214285712 26.8204125  C 3.19999023809521 26.7567708333333  3.10063619047617 26.6908541666667  3.00299999999999 26.6226625  C 2.90536380952381 26.5544125  2.8095630952381 26.4839458333333  2.71559785714288 26.4112625  C 2.6216326190476 26.3385791666667  2.52961428571427 26.2637958333333  2.43954285714284 26.1869125  C 2.34947142857141 26.1099708333333  2.26145833333334 26.0309875  2.17550357142858 25.9499625  C 2.08954880952382 25.8689958333333  2.00575452380951 25.786075  1.92412071428572 25.7012  C 1.84248690476193 25.616325  1.7631126190476 25.5296125  1.68599785714287 25.4410625  C 1.60888309523807 25.3525125  1.53411761904761 25.2622416666667  1.46170142857142 25.17025  C 1.38929142857143 25.0782583333333  1.31931738095238 24.9846333333333  1.25177928571429 24.889375  C 1.1842473809524 24.7941166666667  1.119235 24.6973708333333  1.05674214285716 24.5991375  C 0.994249285714261 24.5009041666667  0.934350857142874 24.4012708333333  0.87704685714283 24.3002375  C 0.819744095238093 24.1992041666667  0.765106333333335 24.0969166666667  0.713133571428557 23.993375  C 0.66116019047621 23.8898333333333  0.611914333333345 23.7851541666667  0.565396000000021 23.6793375  C 0.518877047619071 23.5735208333333  0.475141642857125 23.4666833333333  0.434189785714295 23.358825  C 0.393237928571409 23.2509666666667  0.355118523809551 23.1422333333333  0.319831571428551 23.032625  C 0.284545238095234 22.9230166666667  0.252133761904759 22.81265  0.222597142857126 22.701525  C 0.19306052380955 22.5904  0.166434976190487 22.4786625  0.142720499999996 22.3663125  C 0.119005404761879 22.2539625  0.09822957857142 22.1411458333333  0.0803930214285629 22.0278625  C 0.0625565880952195 21.9145791666667  0.0476809666666895 21.8009166666667  0.0357661571428594 21.686875  C 0.0238512857142723 21.5728916666667  0.0149115385714254 21.4587041666667  0.00894691571426165 21.3443125  C 0.00298230523810616 21.2299208333333  0 21.1154416666667  0 21.000875  C 0 21.000875  0 6.999125  0 6.999125  C 0 6.88458166666667  0.00298230523810616 6.77010541666667  0.00894691571426165 6.65569625  C 0.0149115385714254 6.54128708333334  0.0238512857142723 6.42708500000001  0.0357661571428594 6.31309  C 0.0476809666666895 6.199095  0.0625565880952195 6.08544416666667  0.0803930214285629 5.9721375  C 0.09822957857142 5.85883083333334  0.119005404761879 5.74600541666666  0.142720499999996 5.63366125  C 0.166434976190487 5.52131708333334  0.19306052380955 5.40958833333333  0.222597142857126 5.298475  C 0.252133761904759 5.18736166666667  0.284545238095234 5.07699791666667  0.319831571428551 4.96738375  C 0.355118523809551 4.85776958333334  0.393237928571409 4.74903916666666  0.434189785714295 4.6411925  C 0.475141642857125 4.53334  0.518877047619071 4.42649958333334  0.565396000000021 4.32067125  C 0.611914333333345 4.21484875  0.66116019047621 4.11016375  0.713133571428557 4.00661625  C 0.765106333333335 3.90306875  0.819744095238093 3.80078416666667  0.87704685714283 3.6997625  C 0.934350857142874 3.59874083333334  0.994249285714261 3.49910458333333  1.05674214285716 3.40085375  C 1.119235 3.30260291666666  1.1842473809524 3.20585708333333  1.25177928571429 3.11061625000001  C 1.31931738095238 3.01537541666666  1.38929142857143 2.92175333333333  1.46170142857142 2.82975  C 1.53411761904761 2.73774666666667  1.60888309523807 2.64747291666666  1.68599785714287 2.55892875  C 1.7631126190476 2.47038458333333  1.84248690476193 2.383675  1.92412071428572 2.2988  C 2.00575452380951 2.213925  2.08954880952382 2.13098958333333  2.17550357142858 2.04999375  C 2.26145833333334 1.96899791666667  2.34947142857141 1.89003791666667  2.43954285714284 1.81311375  C 2.52961428571427 1.73618958333333  2.6216326190476 1.66139458333333  2.71559785714288 1.58872875  C 2.8095630952381 1.51606291666667  2.90536380952381 1.44561083333333  3.00299999999999 1.3773725  C 3.10063619047617 1.30914  3.19999023809521 1.24320291666667  3.30106214285712 1.17956125  C 3.40213404761903 1.11592541666666  3.50480309523812 1.05466375  3.60906928571427 0.995776249999999  C 3.71333547619048 0.936888749999994  3.81907190476193 0.880446000000006  3.92627857142855 0.826447999999999  C 4.03348523809524 0.77245116666667  4.14203214285715 0.720965583333331  4.25191928571428 0.671991249999998  C 4.36180642857141 0.623016333333332  4.47290071428574 0.576611583333332  4.58520214285716 0.532777000000003  C 4.69750976190477 0.488941833333335  4.81089142857144 0.447729625000001  4.92534714285716 0.409140375  C 5.03979666666669 0.370551124999999  5.15518404761906 0.334630916666669  5.27150928571427 0.301379750000002  C 5.38783452380954 0.268129166666668  5.50495523809525 0.237587583333337  5.62287142857144 0.209755000000001  C 5.74078761904764 0.181922416666666  5.85935690476191 0.156832958333332  5.97857928571426 0.134486625000001  C 6.09780166666667 0.112139708333338  6.21753476190474 0.0925624874999968  6.33777857142854 0.0757549624999996  C 6.4580223809524 0.0589475541666644  6.57863142857144 0.0449301416666685  6.69960571428572 0.0337027250000048  C 6.82058000000001 0.0224752499999994  6.94177404761905 0.0140512575000002  7.06318785714285 0.00843074750000028  Z " stroke-width="4" stroke="url(#LinearGradient544)" fill="none" transform="matrix(1 0 0 1 307 391 )" mask="url(#clip547)" />
  </g>
</svg>