<?xml version="1.0" encoding="utf-8"?>
<svg version="1.1" xmlns:xlink="http://www.w3.org/1999/xlink" width="94px" height="48px" xmlns="http://www.w3.org/2000/svg">
  <g transform="matrix(1 0 0 1 -185 -97 )">
    <path d="M 93.894 27.665  C 93.894 27.798  93.88 27.929  93.879 28.062  C 93.881 28.226  93.894 28.389  93.894 28.554  C 93.894 35.367  91.861 41.894  88.149 47.933  L 0.554000000000002 28.554  L 2.803 28.162  L 0.554000000000002 27.665  L 2.803 27.273  L 0.554000000000002 26.776  L 2.803 26.385  L 0.554000000000002 25.887  L 2.803 25.496  L 0.554000000000002 24.998  L 2.803 24.607  L 0.554000000000002 24.109  L 2.803 23.718  L 0.554000000000002 23.22  L 2.803 22.829  L 0.554000000000002 22.331  L 2.803 21.94  L 0.554000000000002 21.442  L 2.803 21.051  L 0.554000000000002 20.553  L 2.803 20.162  L 0.554000000000002 19.664  L 2.803 19.273  L 0.554000000000002 18.775  L 2.803 18.384  L 0.554000000000002 17.886  L 2.803 17.495  L 0.554000000000002 16.997  L 2.803 16.606  L 0.554000000000002 16.108  L 90.2 0.518000000000001  C 92.588 5.46899999999999  93.894 10.696  93.894 16.108  C 93.894 16.241  93.88 16.373  93.879 16.506  C 93.881 16.67  93.894 16.833  93.894 16.997  C 93.894 17.13  93.88 17.262  93.879 17.394  C 93.881 17.559  93.894 17.722  93.894 17.886  C 93.894 18.019  93.88 18.151  93.879 18.283  C 93.881 18.448  93.894 18.611  93.894 18.775  C 93.894 18.908  93.88 19.04  93.879 19.172  C 93.881 19.337  93.894 19.5  93.894 19.664  C 93.894 19.797  93.88 19.928  93.879 20.061  C 93.881 20.226  93.894 20.388  93.894 20.553  C 93.894 20.686  93.88 20.817  93.879 20.95  C 93.881 21.115  93.894 21.277  93.894 21.442  C 93.894 21.575  93.88 21.706  93.879 21.839  C 93.881 22.004  93.894 22.166  93.894 22.331  C 93.894 22.464  93.88 22.595  93.879 22.728  C 93.881 22.892  93.894 23.055  93.894 23.22  C 93.894 23.353  93.88 23.484  93.879 23.617  C 93.881 23.781  93.894 23.944  93.894 24.109  C 93.894 24.242  93.88 24.373  93.879 24.506  C 93.881 24.67  93.894 24.833  93.894 24.998  C 93.894 25.131  93.88 25.262  93.879 25.395  C 93.881 25.559  93.894 25.722  93.894 25.887  C 93.894 26.02  93.88 26.151  93.879 26.284  C 93.881 26.448  93.894 26.611  93.894 26.776  C 93.894 26.909  93.88 27.04  93.879 27.173  C 93.881 27.337  93.894 27.5  93.894 27.665  Z " fill-rule="nonzero" fill="#cdd965" stroke="none" fill-opacity="0.501960784313725" transform="matrix(1 0 0 1 185 97 )" />
  </g>
</svg>