<?xml version="1.0" encoding="utf-8"?>
<svg version="1.1" xmlns:xlink="http://www.w3.org/1999/xlink" width="149px" height="38px" xmlns="http://www.w3.org/2000/svg">
  <g transform="matrix(1 0 0 1 -125 -144 )">
    <path d="M 122.978 23.183  C 122.012 23.705  121.032 24.217  120.031 24.715  C 121.032 24.217  122.012 23.705  122.978 23.183  Z M 119.297 25.066  C 118.488 25.46  117.67 25.847  116.838 26.225  C 117.67 25.847  118.488 25.46  119.297 25.066  Z M 55.99 37.488  C 57.503 37.532  59.023 37.558  60.554 37.558  C 59.023 37.558  57.503 37.532  55.99 37.488  Z M 125.939 21.507  C 125.33 21.866  124.71 22.218  124.085 22.567  C 124.71 22.218  125.33 21.866  125.939 21.507  Z M 115.619 26.765  C 114.91 27.076  114.195 27.382  113.472 27.681  C 114.195 27.382  114.91 27.076  115.619 26.765  Z M 104.223 31.051  C 103.367 31.323  102.506 31.589  101.636 31.846  C 102.506 31.589  103.367 31.323  104.223 31.051  Z M 100.307 32.229  C 99.453 32.47  98.591 32.703  97.722 32.93  C 98.591 32.703  99.453 32.47  100.307 32.229  Z M 112.211 28.197  C 111.383 28.528  110.543 28.849  109.696 29.164  C 110.543 28.849  111.383 28.528  112.211 28.197  Z M 108.772 29.512  C 107.634 29.925  106.479 30.323  105.31 30.707  C 106.479 30.323  107.634 29.925  108.772 29.512  Z M 64.918 37.491  C 63.47 37.531  62.017 37.558  60.554 37.558  C 62.017 37.558  63.47 37.531  64.918 37.491  Z M 146.057 4.01900000000001  C 145.733 4.46199999999999  145.403 4.904  145.061 5.34100000000001  C 145.403 4.904  145.733 4.46199999999999  146.057 4.01900000000001  Z M 144.281 6.31200000000001  C 143.924 6.74600000000001  143.553 7.17599999999999  143.178 7.60400000000001  C 143.553 7.17599999999999  143.924 6.74600000000001  144.281 6.31200000000001  Z M 146.733 3.08699999999999  C 147.227 2.376  147.703 1.65900000000001  148.149 0.933000000000007  C 147.703 1.65900000000001  147.227 2.376  146.733 3.08699999999999  Z M 127.11 20.805  C 127.708 20.44  128.295 20.068  128.876 19.694  C 128.295 20.068  127.708 20.44  127.11 20.805  Z M 142.397 8.49000000000001  C 141.782 9.16  141.15 9.82400000000001  140.492 10.478  C 141.15 9.82400000000001  141.782 9.16  142.397 8.49000000000001  Z M 134.932 15.381  C 134.385 15.813  133.824 16.238  133.258 16.66  C 133.824 16.238  134.385 15.813  134.932 15.381  Z M 132.426 17.283  C 131.608 17.875  130.767 18.456  129.909 19.027  C 130.767 18.456  131.608 17.875  132.426 17.283  Z M 139.764 11.171  C 139.288 11.628  138.807 12.084  138.309 12.532  C 138.807 12.084  139.288 11.628  139.764 11.171  Z M 137.337 13.385  C 136.882 13.779  136.42 14.17  135.949 14.557  C 136.42 14.17  136.882 13.779  137.337 13.385  Z M 30.5 34.573  C 31.008 34.677  31.512 34.784  32.023 34.883  C 31.512 34.784  31.007 34.677  30.5 34.573  Z M 34.4 35.313  C 35.02 35.421  35.639 35.53  36.264 35.631  C 35.639 35.529  35.019 35.421  34.4 35.313  Z M 13.124 29.785  C 13.181 29.805  13.24 29.824  13.297 29.844  C 13.24 29.824  13.181 29.805  13.124 29.785  Z M 27.114 33.841  C 27.37 33.9  27.622 33.964  27.879 34.022  C 27.622 33.964  27.37 33.9  27.114 33.841  Z M 38.503 35.971  C 39.2 36.073  39.9 36.17  40.603 36.262  C 39.9 36.17  39.2 36.073  38.503 35.971  Z M 51.494 37.291  C 52.469 37.347  53.453 37.387  54.437 37.425  C 53.453 37.387  52.469 37.347  51.494 37.291  Z M 0.0849999999999937 24.2  C 0.0859999999999985 24.2  0.0859999999999985 24.2  0.0870000000000033 24.2  C 0.0859999999999985 24.2  0.0859999999999985 24.2  0.0849999999999937 24.2  Z M 42.737 36.526  C 43.503 36.615  44.273 36.696  45.046 36.774  C 44.273 36.696  43.503 36.615  42.737 36.526  Z M 47.072 36.968  C 47.917 37.042  48.768 37.103  49.62 37.162  C 48.768 37.103  47.917 37.042  47.072 36.968  Z M 9.621 28.476  C 9.738 28.521  9.85599999999999 28.565  9.973 28.611  C 9.85599999999999 28.565  9.738 28.521  9.621 28.476  Z M 87.466 35.184  C 86.536 35.351  85.6 35.511  84.658 35.662  C 85.6 35.511  86.536 35.351  87.466 35.184  Z M 83.287 35.877  C 82.24 36.034  81.186 36.179  80.126 36.314  C 81.186 36.179  82.24 36.034  83.287 35.877  Z M 96.5 33.248  C 95.244 33.563  93.978 33.865  92.696 34.148  C 93.978 33.866  95.244 33.563  96.5 33.248  Z M 92.315 34.227  C 91.14 34.482  89.953 34.722  88.757 34.949  C 89.953 34.722  91.14 34.482  92.315 34.227  Z M 79.16 36.442  C 77.787 36.609  76.402 36.757  75.007 36.887  C 76.402 36.757  77.787 36.608  79.16 36.442  Z M 3.05800000000001 25.654  C 3.139 25.692  3.21899999999999 25.73  3.29900000000001 25.768  C 3.21899999999999 25.73  3.139 25.692  3.05800000000001 25.654  Z M 6.25700000000001 27.093  C 6.373 27.143  6.48999999999999 27.192  6.60599999999999 27.242  C 6.48999999999999 27.192  6.373 27.143  6.25700000000001 27.093  Z M 73.963 36.974  C 72.893 37.066  71.818 37.149  70.737 37.22  C 71.818 37.149  72.893 37.066  73.963 36.974  Z M 69.312 37.304  C 68.295 37.361  67.273 37.407  66.248 37.444  C 67.273 37.407  68.295 37.361  69.312 37.304  Z " fill-rule="nonzero" fill="#87d051" stroke="none" fill-opacity="0.745098039215686" transform="matrix(1 0 0 1 125 144 )" />
  </g>
</svg>