<?xml version="1.0" encoding="utf-8"?>
<svg version="1.1" xmlns:xlink="http://www.w3.org/1999/xlink" width="52px" height="103px" xmlns="http://www.w3.org/2000/svg">
  <g transform="matrix(1 0 0 1 -92 -66 )">
    <path d="M 22.711 95.997  C 22.646 95.951  22.579 95.906  22.514 95.861  C 22.579 95.906  22.646 95.951  22.711 95.997  Z M 19.516 93.641  C 19.494 93.624  19.471 93.607  19.449 93.59  C 19.471 93.607  19.494 93.624  19.516 93.641  Z M 9.15600000000001 83.486  C 9.07899999999999 83.388  9.009 83.288  8.93300000000001 83.19  C 9.009 83.288  9.07899999999999 83.388  9.15600000000001 83.486  Z M 51.913 9.433  C 21.27 18.617  0.213999999999999 37.605  0.213999999999999 59.554  C 0.213999999999999 59.562  0.215000000000003 59.571  0.215000000000003 59.579  C 0.215000000000003 59.571  0.213999999999999 59.562  0.213999999999999 59.554  C 0.213999999999999 59.415  0.222999999999999 59.277  0.224999999999994 59.138  C 0.222999999999999 58.98  0.213999999999999 58.823  0.213999999999999 58.665  C 0.213999999999999 58.526  0.222999999999999 58.388  0.224999999999994 58.249  C 0.222999999999999 58.091  0.213999999999999 57.934  0.213999999999999 57.776  C 0.213999999999999 57.637  0.222999999999999 57.499  0.224999999999994 57.36  C 0.222999999999999 57.202  0.213999999999999 57.045  0.213999999999999 56.887  C 0.213999999999999 56.748  0.222999999999999 56.61  0.224999999999994 56.471  C 0.222999999999999 56.313  0.213999999999999 56.156  0.213999999999999 55.998  C 0.213999999999999 55.859  0.222999999999999 55.721  0.224999999999994 55.582  C 0.222999999999999 55.424  0.213999999999999 55.267  0.213999999999999 55.109  C 0.213999999999999 54.97  0.222999999999999 54.832  0.224999999999994 54.693  C 0.222999999999999 54.535  0.213999999999999 54.378  0.213999999999999 54.22  C 0.213999999999999 54.081  0.222999999999999 53.943  0.224999999999994 53.804  C 0.222999999999999 53.646  0.213999999999999 53.489  0.213999999999999 53.331  C 0.213999999999999 53.192  0.222999999999999 53.054  0.224999999999994 52.916  C 0.222999999999999 52.757  0.213999999999999 52.6  0.213999999999999 52.442  C 0.213999999999999 52.303  0.222999999999999 52.165  0.224999999999994 52.027  C 0.222999999999999 51.869  0.213999999999999 51.711  0.213999999999999 51.553  C 0.213999999999999 51.414  0.222999999999999 51.276  0.224999999999994 51.138  C 0.222999999999999 50.98  0.213999999999999 50.822  0.213999999999999 50.664  C 0.213999999999999 50.525  0.222999999999999 50.387  0.224999999999994 50.249  C 0.222999999999999 50.091  0.213999999999999 49.934  0.213999999999999 49.775  C 0.213999999999999 49.636  0.222999999999999 49.498  0.224999999999994 49.36  C 0.222999999999999 49.202  0.213999999999999 49.045  0.213999999999999 48.886  C 0.213999999999999 48.747  0.222999999999999 48.61  0.224999999999994 48.471  C 0.222999999999999 48.313  0.213999999999999 48.156  0.213999999999999 47.997  C 0.213999999999999 47.858  0.222999999999999 47.721  0.224999999999994 47.582  C 0.222999999999999 47.424  0.213999999999999 47.267  0.213999999999999 47.108  C 0.213999999999999 27.623  16.807 10.469  41.97 0.436999999999998  L 51.913 9.433  Z M 33.083 102.198  C 33.084 102.199  33.085 102.199  33.085 102.2  C 33.085 102.199  33.084 102.199  33.083 102.198  Z M 29.48 100.257  C 29.422 100.224  29.365 100.191  29.307 100.158  C 29.365 100.191  29.422 100.224  29.48 100.257  Z M 25.796 98.049  C 25.872 98.097  25.948 98.145  26.024 98.192  C 25.948 98.145  25.872 98.097  25.796 98.049  Z M 1.77200000000001 69.703  C 1.657 69.327  1.538 68.951  1.435 68.572  C 1.53700000000001 68.951  1.657 69.327  1.77200000000001 69.703  Z M 1 66.718  C 0.921000000000007 66.346  0.831000000000003 65.976  0.763999999999996 65.602  C 0.831000000000003 65.976  0.921000000000007 66.346  1 66.718  Z M 0.478999999999999 63.571  C 0.441000000000003 63.245  0.385000000000005 62.922  0.355000000000004 62.595  C 0.385000000000005 62.922  0.441000000000003 63.245  0.478999999999999 63.571  Z M 2.78700000000001 72.599  C 2.642 72.236  2.499 71.873  2.366 71.507  C 2.499 71.872  2.642 72.236  2.78700000000001 72.599  Z M 7.23 80.867  C 7.074 80.641  6.931 80.411  6.78 80.183  C 6.931 80.411  7.074 80.641  7.23 80.867  Z M 5.52200000000001 78.179  C 5.349 77.884  5.18600000000001 77.587  5.021 77.29  C 5.18600000000001 77.587  5.349 77.884  5.52200000000001 78.179  Z M 4.039 75.423  C 3.873 75.086  3.714 74.748  3.559 74.409  C 3.714 74.748  3.873 75.086  4.039 75.423  Z " fill-rule="nonzero" fill="#309ae3" stroke="none" fill-opacity="0.745098039215686" transform="matrix(1 0 0 1 92 66 )" />
  </g>
</svg>