<?xml version="1.0" encoding="utf-8"?>
<svg version="1.1" xmlns:xlink="http://www.w3.org/1999/xlink" width="149px" height="69px" xmlns="http://www.w3.org/2000/svg">
  <g transform="matrix(1 0 0 1 -125 -113 )">
    <path d="M 148.149 31.044  C 147.988 31.306  147.81 31.562  147.643 31.821  L 148.149 31.933  C 135.006 53.312  100.749 68.558  60.554 68.558  C 37.479 68.558  16.376 63.523  0.0849999999999937 55.2  L 0.829999999999998 54.675  C 0.584000000000003 54.552  0.328999999999994 54.435  0.0849999999999937 54.311  L 0.829999999999998 53.786  C 0.584000000000003 53.663  0.328999999999994 53.546  0.0849999999999937 53.422  L 0.829999999999998 52.897  C 0.584000000000003 52.774  0.328999999999994 52.657  0.0849999999999937 52.533  L 0.829999999999998 52.008  C 0.584000000000003 51.885  0.328999999999994 51.768  0.0849999999999937 51.644  L 0.829999999999998 51.119  C 0.584000000000003 50.996  0.328999999999994 50.879  0.0849999999999937 50.755  L 0.829999999999998 50.23  C 0.584000000000003 50.107  0.328999999999994 49.99  0.0849999999999937 49.866  L 0.829999999999998 49.341  C 0.584000000000003 49.218  0.328999999999994 49.102  0.0849999999999937 48.977  L 0.829999999999998 48.452  C 0.584000000000003 48.329  0.328999999999994 48.213  0.0849999999999937 48.088  L 0.829999999999998 47.563  C 0.584000000000003 47.44  0.328999999999994 47.324  0.0849999999999937 47.199  L 0.829999999999998 46.674  C 0.584000000000003 46.551  0.328999999999994 46.435  0.0849999999999937 46.31  L 0.829999999999998 45.785  C 0.584000000000003 45.662  0.328999999999994 45.546  0.0849999999999937 45.421  L 0.829999999999998 44.896  C 0.584000000000003 44.773  0.328999999999994 44.657  0.0849999999999937 44.532  L 0.829999999999998 44.007  C 0.584000000000003 43.884  0.328999999999994 43.768  0.0849999999999937 43.643  L 0.829999999999998 43.118  C 0.584000000000003 42.995  0.328999999999994 42.879  0.0849999999999937 42.754  L 60.554 0.108000000000004  L 148.149 19.488  C 147.988 19.749  147.81 20.005  147.643 20.265  L 148.149 20.377  C 147.988 20.638  147.81 20.894  147.643 21.154  L 148.149 21.266  C 147.988 21.527  147.81 21.783  147.643 22.043  L 148.149 22.155  C 147.988 22.416  147.81 22.672  147.643 22.932  L 148.149 23.044  C 147.988 23.305  147.81 23.561  147.643 23.821  L 148.149 23.933  C 147.988 24.194  147.81 24.45  147.643 24.709  L 148.149 24.821  C 147.988 25.083  147.81 25.339  147.643 25.598  L 148.149 25.71  C 147.988 25.972  147.81 26.228  147.643 26.487  L 148.149 26.599  C 147.988 26.861  147.81 27.117  147.643 27.376  L 148.149 27.488  C 147.988 27.75  147.81 28.006  147.643 28.265  L 148.149 28.377  C 147.988 28.639  147.81 28.895  147.643 29.154  L 148.149 29.266  C 147.988 29.528  147.81 29.784  147.643 30.043  L 148.149 30.155  C 147.988 30.417  147.81 30.673  147.643 30.932  L 148.149 31.044  Z " fill-rule="nonzero" fill="#87d051" stroke="none" fill-opacity="0.501960784313725" transform="matrix(1 0 0 1 125 113 )" />
  </g>
</svg>