<?xml version="1.0" encoding="utf-8"?>
<svg version="1.1" xmlns:xlink="http://www.w3.org/1999/xlink" width="103px" height="61px" xmlns="http://www.w3.org/2000/svg">
  <defs>
    <mask fill="white" id="clip558">
      <path d="M 0.772000000000006 31.219  C 0.772000000000006 15.263  25.06 0.328000000000003  52.554 0.328000000000003  C 80.047 0.328000000000003  102.335 15.263  102.335 31.219  C 102.335 47.175  80.047 60.11  52.554 60.11  C 25.06 60.11  0.772000000000006 47.175  0.772000000000006 31.219  Z " fill-rule="evenodd" />
    </mask>
  </defs>
  <g transform="matrix(1 0 0 1 -134 -78 )">
    <path d="M 0.772000000000006 31.219  C 0.772000000000006 15.263  25.06 0.328000000000003  52.554 0.328000000000003  C 80.047 0.328000000000003  102.335 15.263  102.335 31.219  C 102.335 47.175  80.047 60.11  52.554 60.11  C 25.06 60.11  0.772000000000006 47.175  0.772000000000006 31.219  Z " fill-rule="nonzero" fill="#06223e" stroke="none" fill-opacity="0.92156862745098" transform="matrix(1 0 0 1 134 78 )" />
    <path d="M 0.772000000000006 31.219  C 0.772000000000006 15.263  25.06 0.328000000000003  52.554 0.328000000000003  C 80.047 0.328000000000003  102.335 15.263  102.335 31.219  C 102.335 47.175  80.047 60.11  52.554 60.11  C 25.06 60.11  0.772000000000006 47.175  0.772000000000006 31.219  Z " stroke-width="4" stroke="#ffffff" fill="none" transform="matrix(1 0 0 1 134 78 )" mask="url(#clip558)" />
  </g>
</svg>