<?xml version="1.0" encoding="utf-8"?>
<svg version="1.1" xmlns:xlink="http://www.w3.org/1999/xlink" width="120px" height="120px" xmlns="http://www.w3.org/2000/svg">
  <defs>
    <mask fill="white" id="clip561">
      <path d="M 0.583000000000027 61.386  C 0.583000000000027 29.101  26.744 0.93  59.014 0.93  C 91.285 0.93  119.446 29.101  119.446 61.386  C 119.446 93.67  91.285 119.842  59.014 119.842  C 26.744 119.842  0.583000000000027 93.67  0.583000000000027 61.386  Z " fill-rule="evenodd" />
    </mask>
  </defs>
  <g transform="matrix(1 0 0 1 -1115 -611 )">
    <path d="M 0.583000000000027 61.386  C 0.583000000000027 29.101  26.744 0.93  59.014 0.93  C 91.285 0.93  119.446 29.101  119.446 61.386  C 119.446 93.67  91.285 119.842  59.014 119.842  C 26.744 119.842  0.583000000000027 93.67  0.583000000000027 61.386  Z " fill-rule="nonzero" fill="#00ffff" stroke="none" fill-opacity="0.0745098039215686" transform="matrix(1 0 0 1 1115 611 )" />
    <path d="M 0.583000000000027 61.386  C 0.583000000000027 29.101  26.744 0.93  59.014 0.93  C 91.285 0.93  119.446 29.101  119.446 61.386  C 119.446 93.67  91.285 119.842  59.014 119.842  C 26.744 119.842  0.583000000000027 93.67  0.583000000000027 61.386  Z " stroke-width="4" stroke="#00ffff" fill="none" transform="matrix(1 0 0 1 1115 611 )" mask="url(#clip561)" />
  </g>
</svg>