<?xml version="1.0" encoding="utf-8"?>
<svg version="1.1" xmlns:xlink="http://www.w3.org/1999/xlink" width="19px" height="25px" xmlns="http://www.w3.org/2000/svg">
  <g transform="matrix(1 0 0 1 -60 -747 )">
    <path d="M 0 9.77633333333335  C 0.0139052999999976 9.16565624999998  0.369804000000002 8.61504166666668  0.931752000000003 8.41263541666672  C 1.07897 8.35960416666671  1.23009 8.33716666666669  1.38528 8.33333333333337  C 1.97154 8.3478229166667  2.50012 8.71854166666662  2.69444 9.30390624999995  C 2.74534 9.45726041666671  2.76688 9.61467708333339  2.77056 9.77633333333335  L 2.77056 16.4141666666667  C 2.75666 17.0247916666667  2.40076 17.5754166666667  1.83881 17.7778125  C 1.69159 17.8308333333333  1.54048 17.8533333333334  1.38528 17.8571875  C 0.799025 17.8426041666667  0.270442000000003 17.4719791666666  0.0761268999999984 16.8865625  C 0.025219700000001 16.7332291666667  0.00368165999999803 16.5758333333333  0 16.4141666666667  L 0 9.77633333333335  Z M 15.5152 6.80014583333332  C 15.5291 6.18945833333328  15.885 5.63885416666665  16.4469 5.43643750000001  C 16.5941 5.38341666666668  16.7452 5.36097916666665  16.9004 5.35714583333333  C 17.4867 5.37162499999999  18.0153 5.7423541666667  18.2096 6.32771875000003  C 18.2605 6.48107291666668  18.282 6.63847916666668  18 6.80014583333332  L 18 19.3903125000001  C 18.2718 20.0010416666667  17.9159 20.5516666666666  17.354 20.7540625  C 17.2067 20.8070833333334  17.0556 20.8294791666667  16.9004 20.8333333333334  C 16.3142 20.8188541666667  15.7856 20.448125  15.5913 19.8627083333333  C 15.5404 19.709375  15.5188 19.5519791666667  15.5152 19.3903125000001  L 15.5152 6.80014583333332  Z M 8.68933 0.079298541666617  C 8.83655 0.0262704166666481  8.98766000000001 0.00383491666661939  9.14286 0  C 9.72910999999999 0.0144853125000282  10.2577 0.385210416666723  10.452 0.970572916666697  C 10.5029 1.12392708333334  10.5245 1.28134375000002  10.5281 1.44299999999998  L 10.5281 23.5569791666667  C 10.5142 24.1677083333333  10.1583 24.7183333333334  9.59639 24.9207291666667  C 9.44917 24.97375  9.29805 24.9961458333333  9.14286 25  C 8.5566 24.9855208333333  8.02802 24.6147916666666  7.8337 24.0294791666666  C 7.7828 23.8760416666667  7.76126 23.7186458333333  8 23.5569791666667  L 8 1.44299999999998  C 7.77148 0.832318750000013  8.12738 0.281709374999991  8.68933 0.079298541666617  Z " fill-rule="nonzero" fill="#4aa7dd" stroke="none" transform="matrix(1 0 0 1 60 747 )" />
  </g>
</svg>