<?xml version="1.0" encoding="utf-8"?>
<svg version="1.1" xmlns:xlink="http://www.w3.org/1999/xlink" width="91px" height="53px" xmlns="http://www.w3.org/2000/svg">
  <g transform="matrix(1 0 0 1 -185 -57 )">
    <path d="M 90.2 52.074  L 89.812 52.142  C 78.119 29.221  42.585 12.55  0.554000000000002 12.55  L 0.554000000000002 11.661  L 0.554000000000002 10.772  L 0.554000000000002 9.883  L 0.554000000000002 8.994  L 0.554000000000002 8.105  L 0.554000000000002 7.216  L 0.554000000000002 6.327  L 0.554000000000002 5.438  L 0.554000000000002 4.549  L 0.554000000000002 3.66  L 0.554000000000002 2.771  L 0.554000000000002 1.882  L 0.554000000000002 0.993000000000002  L 0.554000000000002 0.103999999999999  C 43.083 0.103999999999999  78.943 17.177  90.2 40.518  L 89.777 40.591  C 89.916 40.864  90.068 41.132  90.2 41.407  L 89.777 41.48  C 89.916 41.753  90.068 42.021  90.2 42.296  L 89.777 42.369  C 89.916 42.641  90.068 42.91  90.2 43.184  L 89.777 43.258  C 89.916 43.53  90.068 43.799  90.2 44.073  L 89.777 44.147  C 89.916 44.419  90.068 44.688  90.2 44.962  L 89.777 45.036  C 89.916 45.308  90.068 45.577  90.2 45.851  L 89.777 45.925  C 89.916 46.197  90.068 46.466  90.2 46.74  L 89.777 46.814  C 89.916 47.086  90.068 47.355  90.2 47.629  L 89.777 47.703  C 89.916 47.975  90.068 48.244  90.2 48.518  L 89.777 48.592  C 89.916 48.864  90.068 49.133  90.2 49.407  L 89.777 49.481  C 89.916 49.753  90.068 50.022  90.2 50.296  L 89.777 50.37  C 89.916 50.642  90.068 50.911  90.2 51.185  L 89.777 51.259  C 89.916 51.531  90.068 51.8  90.2 52.074  Z " fill-rule="nonzero" fill="#d95f5f" stroke="none" fill-opacity="0.745098039215686" transform="matrix(1 0 0 1 185 57 )" />
  </g>
</svg>