<?xml version="1.0" encoding="utf-8"?>
<svg version="1.1" xmlns:xlink="http://www.w3.org/1999/xlink" width="229px" height="140px" xmlns="http://www.w3.org/2000/svg">
  <g transform="matrix(1 0 0 1 -71 -63 )">
    <path d="M 40.952 123.124  L 39.59 122.439  L 45.304 118.353  L 46.666 119.038  L 40.952 123.124  Z M 45.304 20.978  L 39.59 16.892  L 40.952 16.206  L 46.666 20.292  L 45.304 20.978  Z M 75.864 135.004  L 74.193 134.639  L 77.234 129.627  L 78.904 129.992  L 75.864 135.004  Z M 77.234 9.703  L 74.193 4.691  L 75.864 4.326  L 78.904 9.338  L 77.234 9.703  Z M 14.917 104.796  L 14.028 103.872  L 21.727 101.206  L 22.616 102.129  L 14.917 104.796  Z M 9.346 59.076  L 0.591000000000001 58.15  L 0.899999999999999 57.1  L 9.654 58.026  L 9.346 59.076  Z M 219.762 80.254  L 228.516 81.18  L 228.207 82.231  L 219.453 81.305  L 219.762 80.254  Z M 21.727 38.125  L 14.028 35.458  L 14.917 34.534  L 22.616 37.201  L 21.727 38.125  Z M 0.899999999999999 82.231  L 0.591000000000001 81.18  L 9.346 80.254  L 9.654 81.305  L 0.899999999999999 82.231  Z M 207.381 38.125  L 206.492 37.201  L 214.19 34.534  L 215.079 35.458  L 207.381 38.125  Z M 188.156 123.124  L 182.442 119.038  L 183.804 118.353  L 189.518 122.439  L 188.156 123.124  Z M 219.762 59.076  L 219.453 58.026  L 228.207 57.1  L 228.516 58.15  L 219.762 59.076  Z M 214.19 104.796  L 206.492 102.129  L 207.381 101.206  L 215.079 103.872  L 214.19 104.796  Z M 183.804 20.978  L 182.442 20.292  L 188.156 16.206  L 189.518 16.892  L 183.804 20.978  Z M 113.665 139.003  L 113.665 133.67  L 115.443 133.67  L 115.443 139.003  L 113.665 139.003  Z M 113.665 5.661  L 113.665 0.326999999999998  L 115.443 0.326999999999998  L 115.443 5.661  L 113.665 5.661  Z M 153.243 135.004  L 150.203 129.992  L 151.874 129.627  L 154.914 134.639  L 153.243 135.004  Z M 151.874 9.703  L 150.203 9.338  L 153.243 4.326  L 154.914 4.691  L 151.874 9.703  Z " fill-rule="nonzero" fill="#009fe9" stroke="none" transform="matrix(1 0 0 1 71 63 )" />
  </g>
</svg>