<?xml version="1.0" encoding="utf-8"?>
<svg version="1.1" xmlns:xlink="http://www.w3.org/1999/xlink" width="233px" height="140px" xmlns="http://www.w3.org/2000/svg">
  <g transform="matrix(1 0 0 1 -69 -63 )">
    <path d="M 35.466 119.072  L 34.209 118.318  L 37.352 116.432  L 38.609 117.186  L 35.466 119.072  Z M 37.352 22.899  L 34.209 21.013  L 35.466 20.259  L 38.609 22.144  L 37.352 22.899  Z M 42.952 123.124  L 41.59 122.439  L 44.447 120.396  L 45.809 121.081  L 42.952 123.124  Z M 44.447 18.935  L 41.59 16.892  L 42.952 16.206  L 45.809 18.249  L 44.447 18.935  Z M 28.598 114.644  L 27.455 113.826  L 30.86 112.112  L 32.003 112.929  L 28.598 114.644  Z M 25.021 31.861  L 21.379 30.331  L 22.399 29.458  L 26.04 30.987  L 25.021 31.861  Z M 16.917 104.796  L 16.028 103.872  L 19.877 102.539  L 20.766 103.463  L 16.917 104.796  Z M 30.86 27.218  L 27.455 25.504  L 28.598 24.687  L 32.003 26.401  L 30.86 27.218  Z M 22.399 109.873  L 21.379 108.999  L 25.021 107.47  L 26.04 108.343  L 22.399 109.873  Z M 77.713 7.197  L 76.193 4.691  L 77.864 4.326  L 79.384 6.832  L 77.713 7.197  Z M 68.52 132.733  L 66.909 132.282  L 68.787 129.865  L 70.399 130.315  L 68.52 132.733  Z M 86.935 5.404  L 85.785 2.828  L 87.502 2.552  L 88.653 5.128  L 86.935 5.404  Z M 77.864 135.004  L 76.193 134.639  L 77.713 132.133  L 79.384 132.498  L 77.864 135.004  Z M 68.787 9.466  L 66.909 7.049  L 68.52 6.598  L 70.399 9.015  L 68.787 9.466  Z M 50.997 126.77  L 49.541 126.158  L 52.09 123.973  L 53.547 124.585  L 50.997 126.77  Z M 52.09 15.357  L 49.541 13.173  L 50.997 12.561  L 53.547 14.745  L 52.09 15.357  Z M 59.542 129.981  L 58.002 129.447  L 60.224 127.138  L 61.764 127.671  L 59.542 129.981  Z M 60.224 12.193  L 58.002 9.883  L 59.542 9.35  L 61.764 11.659  L 60.224 12.193  Z M 15.47 97.358  L 16.221 98.325  L 12.193 99.452  L 11.442 98.485  L 15.47 97.358  Z M 213.23 102.539  L 217.079 103.872  L 216.19 104.796  L 212.341 103.463  L 213.23 102.539  Z M 8.991 86.406  L 9.45099999999999 87.436  L 5.158 88.127  L 4.698 87.096  L 8.991 86.406  Z M 11.832 91.967  L 12.44 92.969  L 8.263 93.882  L 7.655 92.879  L 11.832 91.967  Z M 216.886 98.325  L 217.637 97.358  L 221.666 98.485  L 220.914 99.452  L 216.886 98.325  Z M 225.83 81.768  L 226.139 80.717  L 230.516 81.18  L 230.207 82.231  L 225.83 81.768  Z M 227.172 76.007  L 227.327 74.945  L 231.755 75.177  L 231.6 76.24  L 227.172 76.007  Z M 220.667 92.969  L 221.275 91.967  L 225.452 92.879  L 224.844 93.882  L 220.667 92.969  Z M 223.656 87.436  L 224.116 86.406  L 228.41 87.096  L 227.95 88.127  L 223.656 87.436  Z M 12.44 46.361  L 11.832 47.364  L 7.655 46.451  L 8.263 45.449  L 12.44 46.361  Z M 9.45099999999999 51.894  L 8.991 52.925  L 4.698 52.234  L 5.158 51.204  L 9.45099999999999 51.894  Z M 19.877 36.791  L 16.028 35.458  L 16.917 34.534  L 20.766 35.868  L 19.877 36.791  Z M 16.221 41.005  L 15.47 41.972  L 11.442 40.845  L 12.193 39.878  L 16.221 41.005  Z M 7.277 57.563  L 6.968 58.613  L 2.591 58.15  L 2.9 57.1  L 7.277 57.563  Z M 5.78 74.945  L 5.935 76.007  L 1.507 76.24  L 1.352 75.177  L 5.78 74.945  Z M 6.968 80.717  L 7.277 81.768  L 2.9 82.231  L 2.591 81.18  L 6.968 80.717  Z M 5.935 63.323  L 5.78 64.386  L 1.352 64.153  L 1.507 63.091  L 5.935 63.323  Z M 5.435 69.132  L 5.435 70.199  L 0.990000000000002 70.199  L 0.990000000000002 69.132  L 5.435 69.132  Z M 197.641 119.072  L 194.498 117.186  L 195.755 116.432  L 198.898 118.318  L 197.641 119.072  Z M 195.755 22.899  L 194.498 22.144  L 197.641 20.259  L 198.898 21.013  L 195.755 22.899  Z M 204.509 114.644  L 201.104 112.929  L 202.247 112.112  L 205.652 113.826  L 204.509 114.644  Z M 202.247 27.218  L 201.104 26.401  L 204.509 24.687  L 205.652 25.504  L 202.247 27.218  Z M 190.156 123.124  L 187.299 121.081  L 188.66 120.396  L 191.518 122.439  L 190.156 123.124  Z M 181.017 15.357  L 179.561 14.745  L 182.11 12.561  L 183.566 13.173  L 181.017 15.357  Z M 173.566 129.981  L 171.343 127.671  L 172.883 127.138  L 175.105 129.447  L 173.566 129.981  Z M 188.66 18.935  L 187.299 18.249  L 190.156 16.206  L 191.518 16.892  L 188.66 18.935  Z M 182.11 126.77  L 179.561 124.585  L 181.017 123.973  L 183.566 126.158  L 182.11 126.77  Z M 226.139 58.613  L 225.83 57.563  L 230.207 57.1  L 230.516 58.15  L 226.139 58.613  Z M 224.116 52.925  L 223.656 51.894  L 227.95 51.204  L 228.41 52.234  L 224.116 52.925  Z M 232.117 70.199  L 227.673 70.199  L 227.673 69.132  L 232.117 69.132  L 232.117 70.199  Z M 227.327 64.386  L 227.172 63.323  L 231.6 63.091  L 231.755 64.153  L 227.327 64.386  Z M 221.275 47.364  L 220.667 46.361  L 224.844 45.449  L 225.452 46.451  L 221.275 47.364  Z M 210.708 109.873  L 207.067 108.343  L 208.087 107.47  L 211.728 108.999  L 210.708 109.873  Z M 208.087 31.861  L 207.067 30.987  L 210.708 29.458  L 211.728 30.331  L 208.087 31.861  Z M 217.637 41.972  L 216.886 41.005  L 220.914 39.878  L 221.666 40.845  L 217.637 41.972  Z M 213.23 36.791  L 212.341 35.868  L 216.19 34.534  L 217.079 35.458  L 213.23 36.791  Z M 115.665 139.003  L 115.665 136.337  L 117.443 136.337  L 117.443 139.003  L 115.665 139.003  Z M 115.665 2.994  L 115.665 0.326999999999998  L 117.443 0.326999999999998  L 117.443 2.994  L 115.665 2.994  Z M 125.74 138.786  L 125.353 136.129  L 127.124 136.036  L 127.511 138.693  L 125.74 138.786  Z M 127.124 3.294  L 125.353 3.201  L 125.74 0.543999999999997  L 127.511 0.637  L 127.124 3.294  Z M 107.367 138.786  L 105.596 138.693  L 105.983 136.036  L 107.755 136.129  L 107.367 138.786  Z M 96.383 4.099  L 95.611 1.473  L 97.362 1.288  L 98.133 3.914  L 96.383 4.099  Z M 87.502 136.779  L 85.785 136.503  L 86.935 133.927  L 88.653 134.203  L 87.502 136.779  Z M 105.983 3.294  L 105.596 0.637  L 107.367 0.543999999999997  L 107.755 3.201  L 105.983 3.294  Z M 97.362 138.043  L 95.611 137.857  L 96.383 135.231  L 98.133 135.416  L 97.362 138.043  Z M 164.32 9.466  L 162.709 9.015  L 164.587 6.598  L 166.199 7.049  L 164.32 9.466  Z M 155.243 135.004  L 153.723 132.498  L 155.394 132.133  L 156.914 134.639  L 155.243 135.004  Z M 172.883 12.193  L 171.343 11.659  L 173.566 9.35  L 175.105 9.883  L 172.883 12.193  Z M 164.587 132.733  L 162.709 130.315  L 164.32 129.865  L 166.199 132.282  L 164.587 132.733  Z M 155.394 7.197  L 153.723 6.832  L 155.243 4.326  L 156.914 4.691  L 155.394 7.197  Z M 135.746 138.043  L 134.974 135.416  L 136.725 135.231  L 137.496 137.857  L 135.746 138.043  Z M 136.725 4.099  L 134.974 3.914  L 135.746 1.288  L 137.496 1.473  L 136.725 4.099  Z M 145.605 136.779  L 144.455 134.203  L 146.172 133.927  L 147.322 136.503  L 145.605 136.779  Z M 146.172 5.404  L 144.455 5.128  L 145.605 2.552  L 147.322 2.828  L 146.172 5.404  Z " fill-rule="nonzero" fill="#009fe9" stroke="none" transform="matrix(1 0 0 1 69 63 )" />
  </g>
</svg>