<?xml version="1.0" encoding="utf-8"?>
<svg version="1.1" xmlns:xlink="http://www.w3.org/1999/xlink" width="12px" height="47px" xmlns="http://www.w3.org/2000/svg">
  <g transform="matrix(1 0 0 1 -267 -97 )">
    <path d="M 11.894 27.665  C 11.894 27.798  11.88 27.929  11.879 28.062  C 11.881 28.226  11.894 28.389  11.894 28.554  C 11.894 18.879  7.80500000000001 9.77800000000001  0.608000000000004 1.83799999999999  L 8.19999999999999 0.518000000000001  C 10.588 5.46899999999999  11.894 10.696  11.894 16.108  C 11.894 16.241  11.88 16.373  11.879 16.506  C 11.881 16.67  11.894 16.833  11.894 16.997  C 11.894 17.13  11.88 17.262  11.879 17.394  C 11.881 17.559  11.894 17.722  11.894 17.886  C 11.894 18.019  11.88 18.151  11.879 18.283  C 11.881 18.448  11.894 18.611  11.894 18.775  C 11.894 18.908  11.88 19.039  11.879 19.172  C 11.881 19.337  11.894 19.499  11.894 19.664  C 11.894 19.797  11.88 19.928  11.879 20.061  C 11.881 20.226  11.894 20.388  11.894 20.553  C 11.894 20.686  11.88 20.817  11.879 20.95  C 11.881 21.115  11.894 21.277  11.894 21.442  C 11.894 21.575  11.88 21.706  11.879 21.839  C 11.881 22.004  11.894 22.166  11.894 22.331  C 11.894 22.464  11.88 22.595  11.879 22.728  C 11.881 22.892  11.894 23.055  11.894 23.22  C 11.894 23.353  11.88 23.484  11.879 23.617  C 11.881 23.781  11.894 23.944  11.894 24.109  C 11.894 24.242  11.88 24.373  11.879 24.506  C 11.881 24.67  11.894 24.833  11.894 24.998  C 11.894 25.131  11.88 25.262  11.879 25.395  C 11.881 25.559  11.894 25.722  11.894 25.887  C 11.894 26.02  11.88 26.151  11.879 26.284  C 11.881 26.448  11.894 26.611  11.894 26.776  C 11.894 26.909  11.88 27.04  11.879 27.173  C 11.881 27.337  11.894 27.5  11.894 27.665  Z M 6.80599999999998 46.788  C 7.05500000000001 46.354  7.31099999999998 45.921  7.54199999999997 45.482  C 7.31 45.921  7.05500000000001 46.354  6.80599999999998 46.788  Z M 11.779 31.274  C 11.851 30.372  11.894 29.466  11.894 28.554  C 11.894 29.466  11.851 30.372  11.779 31.274  Z M 8.13799999999998 44.276  C 8.34899999999999 43.843  8.56099999999998 43.41  8.755 42.972  C 8.56099999999998 43.41  8.34899999999999 43.843  8.13799999999998 44.276  Z M 10.92 36.6  C 11.043 36.087  11.148 35.571  11.248 35.054  C 11.148 35.571  11.044 36.087  10.92 36.6  Z M 11.453 33.957  C 11.546 33.372  11.613 32.782  11.676 32.192  C 11.613 32.782  11.546 33.372  11.453 33.957  Z M 9.25999999999999 41.758  C 9.44099999999997 41.308  9.618 40.857  9.78100000000001 40.402  C 9.618 40.857  9.44099999999997 41.308  9.25999999999999 41.758  Z M 10.188 39.2  C 10.34 38.725  10.482 38.248  10.614 37.768  C 10.482 38.248  10.34 38.725  10.188 39.2  Z " fill-rule="nonzero" fill="#cdd965" stroke="none" fill-opacity="0.745098039215686" transform="matrix(1 0 0 1 267 97 )" />
  </g>
</svg>