<?xml version="1.0" encoding="utf-8"?>
<svg version="1.1" xmlns:xlink="http://www.w3.org/1999/xlink" width="94px" height="103px" xmlns="http://www.w3.org/2000/svg">
  <g transform="matrix(1 0 0 1 -92 -66 )">
    <path d="M 93.554 58.665  L 93.002 59.054  L 93.554 59.554  L 33.085 102.2  C 12.981 91.927  0.213999999999999 76.639  0.213999999999999 59.554  C 0.213999999999999 59.364  0.225999999999999 59.177  0.228999999999999 58.988  C 0.227999999999994 58.879  0.213999999999999 58.773  0.213999999999999 58.665  C 0.213999999999999 58.475  0.225999999999999 58.288  0.228999999999999 58.099  C 0.227999999999994 57.99  0.213999999999999 57.884  0.213999999999999 57.776  C 0.213999999999999 57.586  0.225999999999999 57.399  0.228999999999999 57.21  C 0.227999999999994 57.101  0.213999999999999 56.995  0.213999999999999 56.887  C 0.213999999999999 56.697  0.225999999999999 56.51  0.228999999999999 56.321  C 0.227999999999994 56.212  0.213999999999999 56.106  0.213999999999999 55.998  C 0.213999999999999 55.808  0.225999999999999 55.621  0.228999999999999 55.432  C 0.227999999999994 55.324  0.213999999999999 55.217  0.213999999999999 55.109  C 0.213999999999999 54.919  0.225999999999999 54.732  0.228999999999999 54.543  C 0.227999999999994 54.435  0.213999999999999 54.328  0.213999999999999 54.22  C 0.213999999999999 54.031  0.225999999999999 53.843  0.228999999999999 53.654  C 0.227999999999994 53.546  0.213999999999999 53.439  0.213999999999999 53.331  C 0.213999999999999 53.142  0.225999999999999 52.954  0.228999999999999 52.765  C 0.227999999999994 52.657  0.213999999999999 52.55  0.213999999999999 52.442  C 0.213999999999999 52.253  0.225999999999999 52.065  0.228999999999999 51.876  C 0.227999999999994 51.768  0.213999999999999 51.661  0.213999999999999 51.553  C 0.213999999999999 51.364  0.225999999999999 51.176  0.228999999999999 50.987  C 0.227999999999994 50.879  0.213999999999999 50.773  0.213999999999999 50.664  C 0.213999999999999 50.475  0.225999999999999 50.287  0.228999999999999 50.098  C 0.227999999999994 49.99  0.213999999999999 49.884  0.213999999999999 49.775  C 0.213999999999999 49.586  0.225999999999999 49.398  0.228999999999999 49.209  C 0.227999999999994 49.101  0.213999999999999 48.995  0.213999999999999 48.886  C 0.213999999999999 48.697  0.225999999999999 48.509  0.228999999999999 48.32  C 0.227999999999994 48.212  0.213999999999999 48.106  0.213999999999999 47.997  C 0.213999999999999 47.808  0.225999999999999 47.62  0.228999999999999 47.431  C 0.227999999999994 47.323  0.213999999999999 47.217  0.213999999999999 47.108  C 0.213999999999999 27.623  16.807 10.469  41.97 0.436999999999998  L 93.554 47.108  L 93.002 47.498  L 93.554 47.997  L 93.002 48.387  L 93.554 48.886  L 93.002 49.276  L 93.554 49.775  L 93.002 50.165  L 93.554 50.664  L 93.002 51.054  L 93.554 51.553  L 93.002 51.943  L 93.554 52.442  L 93.002 52.831  L 93.554 53.331  L 93.002 53.72  L 93.554 54.22  L 93.002 54.609  L 93.554 55.109  L 93.002 55.498  L 93.554 55.998  L 93.002 56.387  L 93.554 56.887  L 93.002 57.276  L 93.554 57.776  L 93.002 58.165  L 93.554 58.665  Z " fill-rule="nonzero" fill="#309ae3" stroke="none" fill-opacity="0.501960784313725" transform="matrix(1 0 0 1 92 66 )" />
  </g>
</svg>