<?xml version="1.0" encoding="utf-8"?>
<svg version="1.1" xmlns:xlink="http://www.w3.org/1999/xlink" width="53px" height="69px" xmlns="http://www.w3.org/2000/svg">
  <g transform="matrix(1 0 0 1 -133 -57 )">
    <path d="M 52.554 68.554  L 0.969999999999999 21.882  C 1.197 21.792  1.431 21.707  1.66 21.618  L 0.969999999999999 20.993  C 1.197 20.903  1.431 20.818  1.66 20.729  L 0.969999999999999 20.104  C 1.197 20.014  1.431 19.929  1.66 19.84  L 0.969999999999999 19.215  C 1.197 19.125  1.431 19.04  1.66 18.951  L 0.969999999999999 18.327  C 1.197 18.236  1.431 18.151  1.66 18.062  L 0.969999999999999 17.438  C 1.197 17.347  1.431 17.262  1.66 17.173  L 0.969999999999999 16.549  C 1.197 16.458  1.431 16.373  1.66 16.284  L 0.969999999999999 15.66  C 1.197 15.569  1.431 15.484  1.66 15.395  L 0.969999999999999 14.771  C 1.197 14.68  1.431 14.596  1.66 14.506  L 0.969999999999999 13.882  C 1.197 13.791  1.431 13.707  1.66 13.617  L 0.969999999999999 12.993  C 1.197 12.902  1.431 12.818  1.66 12.728  L 0.969999999999999 12.104  C 1.197 12.013  1.431 11.929  1.66 11.839  L 0.969999999999999 11.215  C 1.197 11.124  1.431 11.04  1.66 10.95  L 0.969999999999999 10.326  C 1.197 10.235  1.431 10.151  1.66 10.061  L 0.969999999999999 9.437  C 15.749 3.545  33.479 0.103999999999999  52.554 0.103999999999999  L 52.554 0.993000000000002  L 52.554 1.882  L 52.554 2.771  L 52.554 3.66  L 52.554 4.549  L 52.554 5.438  L 52.554 6.327  L 52.554 7.216  L 52.554 8.105  L 52.554 8.994  L 52.554 9.883  L 52.554 10.772  L 52.554 11.661  L 52 12.55  L 52 56.108  L 52.554 56.997  L 52.554 57.886  L 52.554 58.775  L 52.554 59.664  L 52.554 60.553  L 52.554 61.442  L 52.554 62.331  L 52.554 63.22  L 52.554 64.109  L 52.554 64.998  L 52.554 65.887  L 52.554 66.776  L 52.554 67.665  L 52.554 68.554  Z " fill-rule="nonzero" fill="#436ada" stroke="none" fill-opacity="0.501960784313725" transform="matrix(1 0 0 1 133 57 )" />
  </g>
</svg>