<?xml version="1.0" encoding="utf-8"?>
<svg version="1.1" xmlns:xlink="http://www.w3.org/1999/xlink" width="20px" height="25px" xmlns="http://www.w3.org/2000/svg">
  <g transform="matrix(1 0 0 1 -562 -747 )">
    <path d="M 0 9.77633333333335  C 0.0146371578947343 9.16565624999998  0.389267368421055 8.61504166666668  0.980791578947372 8.41263541666672  C 1.13575789473684 8.35960416666671  1.29483157894737 8.33716666666669  1.45818947368421 8.33333333333337  C 2.07530526315789 8.3478229166667  2.6317052631579 8.71854166666662  2.83625263157895 9.30390624999995  C 2.88983157894737 9.45726041666671  2.91250526315789 9.61467708333339  2.91637894736842 9.77633333333335  L 2.91637894736842 16.4141666666667  C 2.90174736842105 17.0247916666667  2.52711578947368 17.5754166666667  1.93558947368421 17.7778125  C 1.78062105263158 17.8308333333333  1.62155789473684 17.8533333333334  1.45818947368421 17.8571875  C 0.841078947368421 17.8426041666667  0.284675789473687 17.4719791666666  0.0801335789473668 16.8865625  C 0.02654705263158 16.7332291666667  0.0038754315789453 16.5758333333333  0 16.4141666666667  L 0 9.77633333333335  Z M 16 6.80014583333332  C 16.3464210526316 6.18945833333328  16.721052631579 5.63885416666665  17.3125263157895 5.43643750000001  C 17.4674736842105 5.38341666666668  17.6265263157895 5.36097916666665  17.7898947368421 5.35714583333333  C 18.4070526315789 5.37162499999999  18.9634736842105 5.7423541666667  19.168 6.32771875000003  C 19.2215789473684 6.48107291666668  19.2442105263158 6.63847916666668  19 6.80014583333332  L 19 19.3903125000001  C 19.2334736842105 20.0010416666667  18.8588421052632 20.5516666666666  18.2673684210526 20.7540625  C 18.1123157894737 20.8070833333334  17.9532631578947 20.8294791666667  17.7898947368421 20.8333333333334  C 17.1728421052632 20.8188541666667  16.6164210526316 20.448125  16.4118947368421 19.8627083333333  C 16.3583157894737 19.709375  16.3355789473684 19.5519791666667  16 19.3903125000001  L 16 6.80014583333332  Z M 9.14666315789474 0.079298541666617  C 9.30163157894737 0.0262704166666481  9.46069473684211 0.00383491666661939  9.62406315789474 0  C 10.2411684210526 0.0144853125000282  10.7975789473684 0.385210416666723  11.0021052631579 0.970572916666697  C 11.0556842105263 1.12392708333334  11.0784210526316 1.28134375000002  11 1.44299999999998  L 11 23.5569791666667  C 11.0675789473684 24.1677083333333  10.692947368421 24.7183333333334  10.1014631578947 24.9207291666667  C 9.9464947368421 24.97375  9.78742105263158 24.9961458333333  9.62406315789474 25  C 9.00694736842106 24.9855208333333  8.45054736842105 24.6147916666666  8.246 24.0294791666666  C 8.19242105263158 23.8760416666667  8.16974736842105 23.7186458333333  8.16587368421052 23.5569791666667  L 8.16587368421052 1.44299999999998  C 8.18050526315789 0.832318750000013  8.55513684210526 0.281709374999991  9.14666315789474 0.079298541666617  Z " fill-rule="nonzero" fill="#4aa7dd" stroke="none" transform="matrix(1 0 0 1 562 747 )" />
  </g>
</svg>