<?xml version="1.0" encoding="utf-8"?>
<svg version="1.1" xmlns:xlink="http://www.w3.org/1999/xlink" width="108px" height="109px" xmlns="http://www.w3.org/2000/svg">
  <defs>
    <mask fill="white" id="clip122">
      <path d="M 0.314999999999998 53.357  C 0.314999999999998 24.272  25.883 0.693999999999988  54.956 0.693999999999988  C 84.029 0.693999999999988  107.597 24.272  107.597 53.357  C 107.597 82.442  84.029 108.021  54.956 108.021  C 25.883 108.021  0.314999999999998 82.442  0.314999999999998 53.357  Z " fill-rule="evenodd" />
    </mask>
  </defs>
  <g transform="matrix(1 0 0 1 -1262 -552 )">
    <path d="M 0.314999999999998 53.357  C 0.314999999999998 24.272  25.883 0.693999999999988  54.956 0.693999999999988  C 84.029 0.693999999999988  107.597 24.272  107.597 53.357  C 107.597 82.442  84.029 108.021  54.956 108.021  C 25.883 108.021  0.314999999999998 82.442  0.314999999999998 53.357  Z " fill-rule="nonzero" fill="#de5d3b" stroke="none" fill-opacity="0.0352941176470588" transform="matrix(1 0 0 1 1262 552 )" />
    <path d="M 0.314999999999998 53.357  C 0.314999999999998 24.272  25.883 0.693999999999988  54.956 0.693999999999988  C 84.029 0.693999999999988  107.597 24.272  107.597 53.357  C 107.597 82.442  84.029 108.021  54.956 108.021  C 25.883 108.021  0.314999999999998 82.442  0.314999999999998 53.357  Z " stroke-width="4" stroke="#46ae7d" fill="none" transform="matrix(1 0 0 1 1262 552 )" mask="url(#clip122)" />
  </g>
</svg>