<?xml version="1.0" encoding="utf-8"?>
<svg version="1.1" xmlns:xlink="http://www.w3.org/1999/xlink" width="122px" height="122px" xmlns="http://www.w3.org/2000/svg">
  <defs>
    <mask fill="white" id="clip121">
      <path d="M 0.346000000000004 60.131  C 0.346000000000004 27.265  28.978 0.622  61.831 0.622  C 94.683 0.622  121.315 27.265  121.315 60.131  C 121.315 92.998  94.683 121.641  61.831 121.641  C 28.978 121.641  0.346000000000004 92.998  0.346000000000004 60.131  Z " fill-rule="evenodd" />
    </mask>
  </defs>
  <g transform="matrix(1 0 0 1 -642 -584 )">
    <path d="M 0.346000000000004 60.131  C 0.346000000000004 27.265  28.978 0.622  61.831 0.622  C 94.683 0.622  121.315 27.265  121.315 60.131  C 121.315 92.998  94.683 121.641  61.831 121.641  C 28.978 121.641  0.346000000000004 92.998  0.346000000000004 60.131  Z " fill-rule="nonzero" fill="#46ae7d" stroke="none" fill-opacity="0.0352941176470588" transform="matrix(1 0 0 1 642 584 )" />
    <path d="M 0.346000000000004 60.131  C 0.346000000000004 27.265  28.978 0.622  61.831 0.622  C 94.683 0.622  121.315 27.265  121.315 60.131  C 121.315 92.998  94.683 121.641  61.831 121.641  C 28.978 121.641  0.346000000000004 92.998  0.346000000000004 60.131  Z " stroke-width="4" stroke="#46ae7d" fill="none" transform="matrix(1 0 0 1 642 584 )" mask="url(#clip121)" />
  </g>
</svg>