<?xml version="1.0" encoding="utf-8"?>
<svg version="1.1" xmlns:xlink="http://www.w3.org/1999/xlink" width="139px" height="139px" xmlns="http://www.w3.org/2000/svg">
  <defs>
    <mask fill="white" id="clip124">
      <path d="M 0.132999999999981 70.462  C 0.132999999999981 32.652  30.772 0  68.566 0  C 106.361 0  139 32.652  139 70.462  C 139 108.273  106.361 138.924  68.566 138.924  C 30.772 138.924  0.132999999999981 108.273  0.132999999999981 70.462  Z " fill-rule="evenodd" />
    </mask>
  </defs>
  <g transform="matrix(1 0 0 1 -1202 -367 )">
    <path d="M 0.132999999999981 70.462  C 0.132999999999981 32.652  30.772 0  68.566 0  C 106.361 0  139 32.652  139 70.462  C 139 108.273  106.361 138.924  68.566 138.924  C 30.772 138.924  0.132999999999981 108.273  0.132999999999981 70.462  Z " fill-rule="nonzero" fill="#46ae7d" stroke="none" fill-opacity="0.0352941176470588" transform="matrix(1 0 0 1 1202 367 )" />
    <path d="M 0.132999999999981 70.462  C 0.132999999999981 32.652  30.772 0  68.566 0  C 106.361 0  139 32.652  139 70.462  C 139 108.273  106.361 138.924  68.566 138.924  C 30.772 138.924  0.132999999999981 108.273  0.132999999999981 70.462  Z " stroke-width="4" stroke="#46ae7d" fill="none" transform="matrix(1 0 0 1 1202 367 )" mask="url(#clip124)" />
  </g>
</svg>