<?xml version="1.0" encoding="utf-8"?>
<svg version="1.1" xmlns:xlink="http://www.w3.org/1999/xlink" width="25px" height="25px" xmlns="http://www.w3.org/2000/svg">
  <g transform="matrix(1 0 0 1 -1434 -250 )">
    <path d="M 1435 255  A 4 4 0 0 1 1439 251 L 1454 251  A 4 4 0 0 1 1458 255 L 1458 270  A 4 4 0 0 1 1454 274 L 1439 274  A 4 4 0 0 1 1435 270 L 1435 255  Z " fill-rule="nonzero" fill="#02a9ec" stroke="none" />
    <path d="M 1434.5 255  A 4.5 4.5 0 0 1 1439 250.5 L 1454 250.5  A 4.5 4.5 0 0 1 1458.5 255 L 1458.5 270  A 4.5 4.5 0 0 1 1454 274.5 L 1439 274.5  A 4.5 4.5 0 0 1 1434.5 270 L 1434.5 255  Z " stroke-width="1" stroke="#02a6b5" fill="none" stroke-opacity="0.149019607843137" />
  </g>
</svg>